<?xml version="1.0" encoding="us-ascii" standalone="no"?><svg xmlns="http://www.w3.org/2000/svg" xmlns:xlink="http://www.w3.org/1999/xlink" contentStyleType="text/css" height="747px" preserveAspectRatio="none" style="width:754px;height:747px;background:#FFFFFF;" version="1.1" viewBox="0 0 754 747" width="754px" zoomAndPan="magnify"><defs/><g><rect fill="none" height="20.9531" style="stroke:none;stroke-width:1.0;" width="721" x="15" y="12.7451"/><ellipse cx="119" cy="48.6982" fill="#222222" rx="10" ry="10" style="stroke:#222222;stroke-width:1.0;"/><path d="M237,68.6982 L237,92.3975 L217,96.3975 L237,100.3975 L237,124.0967 A0,0 0 0 0 237,124.0967 L362,124.0967 A0,0 0 0 0 362,124.0967 L362,78.6982 L352,68.6982 L237,68.6982 A0,0 0 0 0 237,68.6982 " fill="#FEFFDD" style="stroke:#181818;stroke-width:0.5;"/><path d="M352,68.6982 L352,78.6982 L362,78.6982 L352,68.6982 " fill="#FEFFDD" style="stroke:#181818;stroke-width:0.5;"/><text fill="#000000" font-family="sans-serif" font-size="13" lengthAdjust="spacing" textLength="39" x="243" y="85.7651">audio,</text><text fill="#000000" font-family="sans-serif" font-size="13" lengthAdjust="spacing" textLength="104" x="243" y="100.8979">stimuli_intervals</text><text fill="#000000" font-family="sans-serif" font-size="13" lengthAdjust="spacing" textLength="65" x="243" y="116.0308">frequency</text><rect fill="#F1F1F1" height="33.9688" rx="12.5" ry="12.5" style="stroke:#181818;stroke-width:0.5;" width="196" x="21" y="79.4131"/><text fill="#000000" font-family="sans-serif" font-size="12" lengthAdjust="spacing" textLength="176" x="31" y="100.5518">Construct FlippedFMTagger()</text><rect fill="#F1F1F1" height="33.9688" rx="12.5" ry="12.5" style="stroke:#181818;stroke-width:0.5;" width="177" x="30.5" y="144.0967"/><text fill="#000000" font-family="sans-serif" font-size="12" lengthAdjust="spacing" textLength="157" x="40.5" y="165.2354">FlippedFMTagger.create()</text><rect fill="#F1F1F1" height="33.9688" rx="12.5" ry="12.5" style="stroke:#181818;stroke-width:0.5;" width="135" x="51.5" y="659.2144"/><text fill="#000000" font-family="sans-serif" font-size="12" lengthAdjust="spacing" textLength="115" x="61.5" y="680.353">Further processing</text><ellipse cx="119" cy="724.1831" fill="none" rx="11" ry="11" style="stroke:#222222;stroke-width:1.0;"/><ellipse cx="119" cy="724.1831" fill="#222222" rx="6" ry="6" style="stroke:#222222;stroke-width:1.0;"/><line style="stroke:#000000;stroke-width:1.5;" x1="15" x2="15" y1="12.7451" y2="735.1831"/><rect fill="#F1F1F1" height="33.9688" rx="12.5" ry="12.5" style="stroke:#181818;stroke-width:0.5;" width="171" x="452.5" y="242.0654"/><text fill="#000000" font-family="sans-serif" font-size="12" lengthAdjust="spacing" textLength="151" x="462.5" y="263.2041">get next stimulus interval</text><rect fill="#F1F1F1" height="33.9688" rx="12.5" ry="12.5" style="stroke:#181818;stroke-width:0.5;" width="252" x="412" y="296.0342"/><text fill="#000000" font-family="sans-serif" font-size="12" lengthAdjust="spacing" textLength="232" x="422" y="317.1729">audio_chunk = audio[stimulus interval]</text><rect fill="#F1F1F1" height="47.9375" rx="12.5" ry="12.5" style="stroke:#181818;stroke-width:0.5;" width="330" x="373" y="350.0029"/><text fill="#000000" font-family="sans-serif" font-size="12" lengthAdjust="spacing" textLength="65" x="383" y="371.1416">samples =</text><text fill="#000000" font-family="sans-serif" font-size="12" lengthAdjust="spacing" textLength="302" x="391" y="385.1104">f_carrier / f_sampling * np.arange(audio.shape[0])</text><rect fill="#F1F1F1" height="47.9375" rx="12.5" ry="12.5" style="stroke:#181818;stroke-width:0.5;" width="247" x="414.5" y="417.9404"/><text fill="#000000" font-family="sans-serif" font-size="12" lengthAdjust="spacing" textLength="119" x="424.5" y="439.0791">modulated_chunk =</text><text fill="#000000" font-family="sans-serif" font-size="12" lengthAdjust="spacing" textLength="219" x="432.5" y="453.0479">np.sin(2 * np.pi * (samples + audio)</text><rect fill="#F1F1F1" height="33.9688" rx="12.5" ry="12.5" style="stroke:#181818;stroke-width:0.5;" width="226" x="425" y="485.8779"/><text fill="#000000" font-family="sans-serif" font-size="12" lengthAdjust="spacing" textLength="206" x="435" y="507.0166">insert modulated_chunk into audio</text><polygon fill="#F1F1F1" points="538,198.0654,550,210.0654,538,222.0654,526,210.0654,538,198.0654" style="stroke:#181818;stroke-width:0.5;"/><polygon fill="#F1F1F1" points="473,539.8467,603,539.8467,615,551.8467,603,563.8467,473,563.8467,461,551.8467,473,539.8467" style="stroke:#181818;stroke-width:0.5;"/><text fill="#000000" font-family="sans-serif" font-size="11" lengthAdjust="spacing" textLength="130" x="473" y="555.6548">next stimulus interval?</text><text fill="#000000" font-family="sans-serif" font-size="11" lengthAdjust="spacing" textLength="21" x="615" y="549.2524">yes</text><rect fill="#F1F1F1" height="33.9688" rx="12.5" ry="12.5" style="stroke:#181818;stroke-width:0.5;" width="93" x="491.5" y="605.2456"/><text fill="#000000" font-family="sans-serif" font-size="12" lengthAdjust="spacing" textLength="73" x="501.5" y="626.3843">return audio</text><line style="stroke:#000000;stroke-width:1.5;" x1="367" x2="367" y1="12.7451" y2="735.1831"/><line style="stroke:#000000;stroke-width:1.5;" x1="734" x2="734" y1="12.7451" y2="735.1831"/><line style="stroke:#181818;stroke-width:1.0;" x1="119" x2="119" y1="58.6982" y2="79.4131"/><polygon fill="#181818" points="115,69.4131,119,79.4131,123,69.4131,119,73.4131" style="stroke:#181818;stroke-width:1.0;"/><line style="stroke:#181818;stroke-width:1.0;" x1="119" x2="119" y1="113.3818" y2="144.0967"/><polygon fill="#181818" points="115,134.0967,119,144.0967,123,134.0967,119,138.0967" style="stroke:#181818;stroke-width:1.0;"/><line style="stroke:#181818;stroke-width:1.0;" x1="119" x2="119" y1="693.1831" y2="713.1831"/><polygon fill="#181818" points="115,703.1831,119,713.1831,123,703.1831,119,707.1831" style="stroke:#181818;stroke-width:1.0;"/><line style="stroke:#181818;stroke-width:1.0;" x1="538" x2="538" y1="276.0342" y2="296.0342"/><polygon fill="#181818" points="534,286.0342,538,296.0342,542,286.0342,538,290.0342" style="stroke:#181818;stroke-width:1.0;"/><line style="stroke:#181818;stroke-width:1.0;" x1="538" x2="538" y1="330.0029" y2="350.0029"/><polygon fill="#181818" points="534,340.0029,538,350.0029,542,340.0029,538,344.0029" style="stroke:#181818;stroke-width:1.0;"/><line style="stroke:#181818;stroke-width:1.0;" x1="538" x2="538" y1="397.9404" y2="417.9404"/><polygon fill="#181818" points="534,407.9404,538,417.9404,542,407.9404,538,411.9404" style="stroke:#181818;stroke-width:1.0;"/><line style="stroke:#181818;stroke-width:1.0;" x1="538" x2="538" y1="465.8779" y2="485.8779"/><polygon fill="#181818" points="534,475.8779,538,485.8779,542,475.8779,538,479.8779" style="stroke:#181818;stroke-width:1.0;"/><line style="stroke:#181818;stroke-width:1.0;" x1="538" x2="538" y1="222.0654" y2="242.0654"/><polygon fill="#181818" points="534,232.0654,538,242.0654,542,232.0654,538,236.0654" style="stroke:#181818;stroke-width:1.0;"/><line style="stroke:#181818;stroke-width:1.0;" x1="615" x2="715" y1="551.8467" y2="551.8467"/><polygon fill="#181818" points="711,390.9561,715,380.9561,719,390.9561,715,386.9561" style="stroke:#181818;stroke-width:1.0;"/><line style="stroke:#181818;stroke-width:1.0;" x1="715" x2="715" y1="210.0654" y2="551.8467"/><line style="stroke:#181818;stroke-width:1.0;" x1="715" x2="550" y1="210.0654" y2="210.0654"/><polygon fill="#181818" points="560,206.0654,550,210.0654,560,214.0654,556,210.0654" style="stroke:#181818;stroke-width:1.0;"/><line style="stroke:#181818;stroke-width:1.0;" x1="538" x2="538" y1="519.8467" y2="539.8467"/><polygon fill="#181818" points="534,529.8467,538,539.8467,542,529.8467,538,533.8467" style="stroke:#181818;stroke-width:1.0;"/><line style="stroke:#181818;stroke-width:1.0;" x1="538" x2="538" y1="563.8467" y2="605.2456"/><polygon fill="#181818" points="534,595.2456,538,605.2456,542,595.2456,538,599.2456" style="stroke:#181818;stroke-width:1.0;"/><text fill="#000000" font-family="sans-serif" font-size="11" lengthAdjust="spacing" textLength="14" x="542" y="585.1514">no</text><line style="stroke:#181818;stroke-width:1.0;" x1="119" x2="119" y1="178.0654" y2="183.0654"/><line style="stroke:#181818;stroke-width:1.0;" x1="119" x2="538" y1="183.0654" y2="183.0654"/><line style="stroke:#181818;stroke-width:1.0;" x1="538" x2="538" y1="183.0654" y2="198.0654"/><polygon fill="#181818" points="534,188.0654,538,198.0654,542,188.0654,538,192.0654" style="stroke:#181818;stroke-width:1.0;"/><line style="stroke:#181818;stroke-width:1.0;" x1="538" x2="538" y1="639.2144" y2="644.2144"/><line style="stroke:#181818;stroke-width:1.0;" x1="538" x2="119" y1="644.2144" y2="644.2144"/><line style="stroke:#181818;stroke-width:1.0;" x1="119" x2="119" y1="644.2144" y2="659.2144"/><polygon fill="#181818" points="115,649.2144,119,659.2144,123,649.2144,119,653.2144" style="stroke:#181818;stroke-width:1.0;"/><text fill="#000000" font-family="sans-serif" font-size="18" lengthAdjust="spacing" textLength="44" x="169" y="29.4531">Main</text><text fill="#000000" font-family="sans-serif" font-size="18" lengthAdjust="spacing" textLength="158" x="471.5" y="29.4531">FlippedFMTagger</text><!--SRC=[RP8nJyCm48Lt_mfl940Jn9YeC21rwyPMLPL93kU4OvlpkL0fFnxZ94iXYy-NzxvxTd8pCFlGrBKtod8SJTMviLOTundvikbHQLBZvWrO2J7j5Tf915R4edbnDZ35ZkNEeFVGx_QlIckWeco5TGoIK0yiP7fKxD7Tvp8mZj7W2Iq3dPK9kVjEy1d1TXS1jfU_RY6QAsxL4IY6NxmWyAdErkbADkLkeu6bXMzU1iOWrud9dXKvrAaRelsGspdYuO_usCxYe4Pl8CXjtgR0fquH8P2iKvtVejNoLbfVAL9MGv69LHYKXyF3iLn0e-kZISVeryaBCFa2sk9nHdXCQx4ElPlJhGYq0OZbDIb5ThEmNUv7VWreeFZ_6fvBYK4M5mYbs3pPP6e8E99T6UltRdQHU4WdzUGw22cbRjDFuFmF]--></g></svg>