<?xml version="1.0" encoding="us-ascii" standalone="no"?><svg xmlns="http://www.w3.org/2000/svg" xmlns:xlink="http://www.w3.org/1999/xlink" contentStyleType="text/css" height="747px" preserveAspectRatio="none" style="width:709px;height:747px;background:#FFFFFF;" version="1.1" viewBox="0 0 709 747" width="709px" zoomAndPan="magnify"><defs/><g><rect fill="none" height="20.9531" style="stroke:none;stroke-width:1.0;" width="676" x="15" y="12.7451"/><ellipse cx="96.5" cy="48.6982" fill="#222222" rx="10" ry="10" style="stroke:#222222;stroke-width:1.0;"/><path d="M192,68.6982 L192,92.3975 L172,96.3975 L192,100.3975 L192,124.0967 A0,0 0 0 0 192,124.0967 L317,124.0967 A0,0 0 0 0 317,124.0967 L317,78.6982 L307,68.6982 L192,68.6982 A0,0 0 0 0 192,68.6982 " fill="#FEFFDD" style="stroke:#181818;stroke-width:0.5;"/><path d="M307,68.6982 L307,78.6982 L317,78.6982 L307,68.6982 " fill="#FEFFDD" style="stroke:#181818;stroke-width:0.5;"/><text fill="#000000" font-family="sans-serif" font-size="13" lengthAdjust="spacing" textLength="39" x="198" y="85.7651">audio,</text><text fill="#000000" font-family="sans-serif" font-size="13" lengthAdjust="spacing" textLength="104" x="198" y="100.8979">stimuli_intervals</text><text fill="#000000" font-family="sans-serif" font-size="13" lengthAdjust="spacing" textLength="65" x="198" y="116.0308">frequency</text><rect fill="#F1F1F1" height="33.9688" rx="12.5" ry="12.5" style="stroke:#181818;stroke-width:0.5;" width="151" x="21" y="79.4131"/><text fill="#000000" font-family="sans-serif" font-size="12" lengthAdjust="spacing" textLength="131" x="31" y="100.5518">Construct FMTagger()</text><rect fill="#F1F1F1" height="33.9688" rx="12.5" ry="12.5" style="stroke:#181818;stroke-width:0.5;" width="132" x="30.5" y="144.0967"/><text fill="#000000" font-family="sans-serif" font-size="12" lengthAdjust="spacing" textLength="112" x="40.5" y="165.2354">FMTagger.create()</text><rect fill="#F1F1F1" height="33.9688" rx="12.5" ry="12.5" style="stroke:#181818;stroke-width:0.5;" width="135" x="29" y="659.2144"/><text fill="#000000" font-family="sans-serif" font-size="12" lengthAdjust="spacing" textLength="115" x="39" y="680.353">Further processing</text><ellipse cx="96.5" cy="724.1831" fill="none" rx="11" ry="11" style="stroke:#222222;stroke-width:1.0;"/><ellipse cx="96.5" cy="724.1831" fill="#222222" rx="6" ry="6" style="stroke:#222222;stroke-width:1.0;"/><line style="stroke:#000000;stroke-width:1.5;" x1="15" x2="15" y1="12.7451" y2="735.1831"/><rect fill="#F1F1F1" height="33.9688" rx="12.5" ry="12.5" style="stroke:#181818;stroke-width:0.5;" width="171" x="407.5" y="242.0654"/><text fill="#000000" font-family="sans-serif" font-size="12" lengthAdjust="spacing" textLength="151" x="417.5" y="263.2041">get next stimulus interval</text><rect fill="#F1F1F1" height="33.9688" rx="12.5" ry="12.5" style="stroke:#181818;stroke-width:0.5;" width="252" x="367" y="296.0342"/><text fill="#000000" font-family="sans-serif" font-size="12" lengthAdjust="spacing" textLength="232" x="377" y="317.1729">audio_chunk = audio[stimulus interval]</text><rect fill="#F1F1F1" height="47.9375" rx="12.5" ry="12.5" style="stroke:#181818;stroke-width:0.5;" width="330" x="328" y="350.0029"/><text fill="#000000" font-family="sans-serif" font-size="12" lengthAdjust="spacing" textLength="65" x="338" y="371.1416">samples =</text><text fill="#000000" font-family="sans-serif" font-size="12" lengthAdjust="spacing" textLength="302" x="346" y="385.1104">f_carrier / f_sampling * np.arange(audio.shape[0])</text><rect fill="#F1F1F1" height="47.9375" rx="12.5" ry="12.5" style="stroke:#181818;stroke-width:0.5;" width="247" x="369.5" y="417.9404"/><text fill="#000000" font-family="sans-serif" font-size="12" lengthAdjust="spacing" textLength="119" x="379.5" y="439.0791">modulated_chunk =</text><text fill="#000000" font-family="sans-serif" font-size="12" lengthAdjust="spacing" textLength="219" x="387.5" y="453.0479">np.sin(2 * np.pi * (samples + audio)</text><rect fill="#F1F1F1" height="33.9688" rx="12.5" ry="12.5" style="stroke:#181818;stroke-width:0.5;" width="226" x="380" y="485.8779"/><text fill="#000000" font-family="sans-serif" font-size="12" lengthAdjust="spacing" textLength="206" x="390" y="507.0166">insert modulated_chunk into audio</text><polygon fill="#F1F1F1" points="493,198.0654,505,210.0654,493,222.0654,481,210.0654,493,198.0654" style="stroke:#181818;stroke-width:0.5;"/><polygon fill="#F1F1F1" points="428,539.8467,558,539.8467,570,551.8467,558,563.8467,428,563.8467,416,551.8467,428,539.8467" style="stroke:#181818;stroke-width:0.5;"/><text fill="#000000" font-family="sans-serif" font-size="11" lengthAdjust="spacing" textLength="130" x="428" y="555.6548">next stimulus interval?</text><text fill="#000000" font-family="sans-serif" font-size="11" lengthAdjust="spacing" textLength="21" x="570" y="549.2524">yes</text><rect fill="#F1F1F1" height="33.9688" rx="12.5" ry="12.5" style="stroke:#181818;stroke-width:0.5;" width="93" x="446.5" y="605.2456"/><text fill="#000000" font-family="sans-serif" font-size="12" lengthAdjust="spacing" textLength="73" x="456.5" y="626.3843">return audio</text><line style="stroke:#000000;stroke-width:1.5;" x1="322" x2="322" y1="12.7451" y2="735.1831"/><line style="stroke:#000000;stroke-width:1.5;" x1="689" x2="689" y1="12.7451" y2="735.1831"/><line style="stroke:#181818;stroke-width:1.0;" x1="96.5" x2="96.5" y1="58.6982" y2="79.4131"/><polygon fill="#181818" points="92.5,69.4131,96.5,79.4131,100.5,69.4131,96.5,73.4131" style="stroke:#181818;stroke-width:1.0;"/><line style="stroke:#181818;stroke-width:1.0;" x1="96.5" x2="96.5" y1="113.3818" y2="144.0967"/><polygon fill="#181818" points="92.5,134.0967,96.5,144.0967,100.5,134.0967,96.5,138.0967" style="stroke:#181818;stroke-width:1.0;"/><line style="stroke:#181818;stroke-width:1.0;" x1="96.5" x2="96.5" y1="693.1831" y2="713.1831"/><polygon fill="#181818" points="92.5,703.1831,96.5,713.1831,100.5,703.1831,96.5,707.1831" style="stroke:#181818;stroke-width:1.0;"/><line style="stroke:#181818;stroke-width:1.0;" x1="493" x2="493" y1="276.0342" y2="296.0342"/><polygon fill="#181818" points="489,286.0342,493,296.0342,497,286.0342,493,290.0342" style="stroke:#181818;stroke-width:1.0;"/><line style="stroke:#181818;stroke-width:1.0;" x1="493" x2="493" y1="330.0029" y2="350.0029"/><polygon fill="#181818" points="489,340.0029,493,350.0029,497,340.0029,493,344.0029" style="stroke:#181818;stroke-width:1.0;"/><line style="stroke:#181818;stroke-width:1.0;" x1="493" x2="493" y1="397.9404" y2="417.9404"/><polygon fill="#181818" points="489,407.9404,493,417.9404,497,407.9404,493,411.9404" style="stroke:#181818;stroke-width:1.0;"/><line style="stroke:#181818;stroke-width:1.0;" x1="493" x2="493" y1="465.8779" y2="485.8779"/><polygon fill="#181818" points="489,475.8779,493,485.8779,497,475.8779,493,479.8779" style="stroke:#181818;stroke-width:1.0;"/><line style="stroke:#181818;stroke-width:1.0;" x1="493" x2="493" y1="222.0654" y2="242.0654"/><polygon fill="#181818" points="489,232.0654,493,242.0654,497,232.0654,493,236.0654" style="stroke:#181818;stroke-width:1.0;"/><line style="stroke:#181818;stroke-width:1.0;" x1="570" x2="670" y1="551.8467" y2="551.8467"/><polygon fill="#181818" points="666,390.9561,670,380.9561,674,390.9561,670,386.9561" style="stroke:#181818;stroke-width:1.0;"/><line style="stroke:#181818;stroke-width:1.0;" x1="670" x2="670" y1="210.0654" y2="551.8467"/><line style="stroke:#181818;stroke-width:1.0;" x1="670" x2="505" y1="210.0654" y2="210.0654"/><polygon fill="#181818" points="515,206.0654,505,210.0654,515,214.0654,511,210.0654" style="stroke:#181818;stroke-width:1.0;"/><line style="stroke:#181818;stroke-width:1.0;" x1="493" x2="493" y1="519.8467" y2="539.8467"/><polygon fill="#181818" points="489,529.8467,493,539.8467,497,529.8467,493,533.8467" style="stroke:#181818;stroke-width:1.0;"/><line style="stroke:#181818;stroke-width:1.0;" x1="493" x2="493" y1="563.8467" y2="605.2456"/><polygon fill="#181818" points="489,595.2456,493,605.2456,497,595.2456,493,599.2456" style="stroke:#181818;stroke-width:1.0;"/><text fill="#000000" font-family="sans-serif" font-size="11" lengthAdjust="spacing" textLength="14" x="497" y="585.1514">no</text><line style="stroke:#181818;stroke-width:1.0;" x1="96.5" x2="96.5" y1="178.0654" y2="183.0654"/><line style="stroke:#181818;stroke-width:1.0;" x1="96.5" x2="493" y1="183.0654" y2="183.0654"/><line style="stroke:#181818;stroke-width:1.0;" x1="493" x2="493" y1="183.0654" y2="198.0654"/><polygon fill="#181818" points="489,188.0654,493,198.0654,497,188.0654,493,192.0654" style="stroke:#181818;stroke-width:1.0;"/><line style="stroke:#181818;stroke-width:1.0;" x1="493" x2="493" y1="639.2144" y2="644.2144"/><line style="stroke:#181818;stroke-width:1.0;" x1="493" x2="96.5" y1="644.2144" y2="644.2144"/><line style="stroke:#181818;stroke-width:1.0;" x1="96.5" x2="96.5" y1="644.2144" y2="659.2144"/><polygon fill="#181818" points="92.5,649.2144,96.5,659.2144,100.5,649.2144,96.5,653.2144" style="stroke:#181818;stroke-width:1.0;"/><text fill="#000000" font-family="sans-serif" font-size="18" lengthAdjust="spacing" textLength="44" x="146.5" y="29.4531">Main</text><text fill="#000000" font-family="sans-serif" font-size="18" lengthAdjust="spacing" textLength="91" x="460" y="29.4531">FMTagger</text><!--SRC=[RP71JiCm38RlUOhSQ86rY6EhmG5fjzsuJTDaKfD6j4bmdC6aFZnPsbw0NE8a_Z__iMzwPX-QklO3M8xZK2atrg3Od0rVDfq1JJ1ktf11Y6aFnauYC12BviNPm1GLozt-5RH6AifMMCSeoUYUXKmBOcVSVGu3cp4EvcGi8vrX2FdsdV0pebKNWRQJLxKGpGgi524mNhc2qASuQwRrVSh7HYDBYz-yb8X1hZMIBcTa6oVLH_iXjxEfmv_aOpid1nZzW45kyp5PF2aWCaYoJd5-DLRBMsbz1GHMOv69LUZ1u-7XM2wWqNLnIFwxjV82JBfWRF4u8xn9Ux4MlPlThGXZ0nBBtwHasSs9xT8O-TMR0Ol_s_1SIXDaSS5GYisJJQA6a2FPbR6Ejjb5uZxzr9DJ699BtQPvE_y3]--></g></svg>