<?xml version="1.0" encoding="us-ascii" standalone="no"?><svg xmlns="http://www.w3.org/2000/svg" xmlns:xlink="http://www.w3.org/1999/xlink" contentStyleType="text/css" height="1002px" preserveAspectRatio="none" style="width:963px;height:1002px;background:#FFFFFF;" version="1.1" viewBox="0 0 963 1002" width="963px" zoomAndPan="magnify"><defs/><g><rect fill="none" height="20.9531" style="stroke:none;stroke-width:1.0;" width="930.5" x="15" y="12.7451"/><ellipse cx="96.5" cy="48.6982" fill="#222222" rx="10" ry="10" style="stroke:#222222;stroke-width:1.0;"/><path d="M192,68.6982 L192,92.3975 L172,96.3975 L192,100.3975 L192,124.0967 A0,0 0 0 0 192,124.0967 L317,124.0967 A0,0 0 0 0 317,124.0967 L317,78.6982 L307,68.6982 L192,68.6982 A0,0 0 0 0 192,68.6982 " fill="#FEFFDD" style="stroke:#181818;stroke-width:0.5;"/><path d="M307,68.6982 L307,78.6982 L317,78.6982 L307,68.6982 " fill="#FEFFDD" style="stroke:#181818;stroke-width:0.5;"/><text fill="#000000" font-family="sans-serif" font-size="13" lengthAdjust="spacing" textLength="39" x="198" y="85.7651">audio,</text><text fill="#000000" font-family="sans-serif" font-size="13" lengthAdjust="spacing" textLength="104" x="198" y="100.8979">stimuli_intervals</text><text fill="#000000" font-family="sans-serif" font-size="13" lengthAdjust="spacing" textLength="65" x="198" y="116.0308">frequency</text><rect fill="#F1F1F1" height="33.9688" rx="12.5" ry="12.5" style="stroke:#181818;stroke-width:0.5;" width="151" x="21" y="79.4131"/><text fill="#000000" font-family="sans-serif" font-size="12" lengthAdjust="spacing" textLength="131" x="31" y="100.5518">Construct FMTagger()</text><rect fill="#F1F1F1" height="33.9688" rx="12.5" ry="12.5" style="stroke:#181818;stroke-width:0.5;" width="132" x="30.5" y="144.0967"/><text fill="#000000" font-family="sans-serif" font-size="12" lengthAdjust="spacing" textLength="112" x="40.5" y="165.2354">FMTagger.create()</text><rect fill="#F1F1F1" height="33.9688" rx="12.5" ry="12.5" style="stroke:#181818;stroke-width:0.5;" width="135" x="29" y="914.4565"/><text fill="#000000" font-family="sans-serif" font-size="12" lengthAdjust="spacing" textLength="115" x="39" y="935.5952">Further processing</text><ellipse cx="96.5" cy="979.4253" fill="none" rx="11" ry="11" style="stroke:#222222;stroke-width:1.0;"/><ellipse cx="96.5" cy="979.4253" fill="#222222" rx="6" ry="6" style="stroke:#222222;stroke-width:1.0;"/><line style="stroke:#000000;stroke-width:1.5;" x1="15" x2="15" y1="12.7451" y2="990.4253"/><rect fill="#F1F1F1" height="33.9688" rx="12.5" ry="12.5" style="stroke:#181818;stroke-width:0.5;" width="171" x="405.5" y="242.0654"/><text fill="#000000" font-family="sans-serif" font-size="12" lengthAdjust="spacing" textLength="151" x="415.5" y="263.2041">get next stimulus interval</text><rect fill="#F1F1F1" height="33.9688" rx="12.5" ry="12.5" style="stroke:#181818;stroke-width:0.5;" width="252" x="365" y="296.0342"/><text fill="#000000" font-family="sans-serif" font-size="12" lengthAdjust="spacing" textLength="232" x="375" y="317.1729">audio_chunk = audio[stimulus interval]</text><path d="M594,340.0029 L594,363.7021 L574,367.7021 L594,371.7021 L594,395.4014 A0,0 0 0 0 594,395.4014 L751,395.4014 A0,0 0 0 0 751,395.4014 L751,350.0029 L741,340.0029 L594,340.0029 A0,0 0 0 0 594,340.0029 " fill="#FEFFDD" style="stroke:#181818;stroke-width:0.5;"/><path d="M741,340.0029 L741,350.0029 L751,350.0029 L741,340.0029 " fill="#FEFFDD" style="stroke:#181818;stroke-width:0.5;"/><text fill="#000000" font-family="sans-serif" font-size="13" lengthAdjust="spacing" textLength="109" x="600" y="357.0698">Hilbert transform</text><text fill="#000000" font-family="sans-serif" font-size="13" lengthAdjust="spacing" textLength="136" x="600" y="372.2026">implementation from</text><text fill="#000000" font-family="sans-serif" font-size="13" lengthAdjust="spacing" textLength="33" x="600" y="387.3354">scipy</text><rect fill="#F1F1F1" height="33.9688" rx="12.5" ry="12.5" style="stroke:#181818;stroke-width:0.5;" width="166" x="408" y="350.7178"/><text fill="#000000" font-family="sans-serif" font-size="12" lengthAdjust="spacing" textLength="146" x="418" y="371.8564">analytic = hilbert(signal)</text><path d="M634.5,419.2373 L634.5,435.3701 L614.5,439.3701 L634.5,443.3701 L634.5,459.5029 A0,0 0 0 0 634.5,459.5029 L912.5,459.5029 A0,0 0 0 0 912.5,459.5029 L912.5,429.2373 L902.5,419.2373 L634.5,419.2373 A0,0 0 0 0 634.5,419.2373 " fill="#FEFFDD" style="stroke:#181818;stroke-width:0.5;"/><path d="M902.5,419.2373 L902.5,429.2373 L912.5,429.2373 L902.5,419.2373 " fill="#FEFFDD" style="stroke:#181818;stroke-width:0.5;"/><text fill="#000000" font-family="sans-serif" font-size="13" lengthAdjust="spacing" textLength="192" x="640.5" y="436.3042">amplitude = np.abs(numbers)</text><text fill="#000000" font-family="sans-serif" font-size="13" lengthAdjust="spacing" textLength="257" x="640.5" y="451.437">phase = np.unwrap(np.angle(numbers))</text><rect fill="#F1F1F1" height="47.9375" rx="12.5" ry="12.5" style="stroke:#181818;stroke-width:0.5;" width="247" x="367.5" y="415.4014"/><text fill="#000000" font-family="sans-serif" font-size="12" lengthAdjust="spacing" textLength="118" x="377.5" y="436.54">amplitude, phase =</text><text fill="#000000" font-family="sans-serif" font-size="12" lengthAdjust="spacing" textLength="219" x="385.5" y="450.5088">extract_amplitudes_phases(analytic)</text><path d="M665,494.7412 L665,503.3076 L645,507.3076 L665,511.3076 L665,519.874 A0,0 0 0 0 665,519.874 L879,519.874 A0,0 0 0 0 879,519.874 L879,504.7412 L869,494.7412 L665,494.7412 A0,0 0 0 0 665,494.7412 " fill="#FEFFDD" style="stroke:#181818;stroke-width:0.5;"/><path d="M869,494.7412 L869,504.7412 L879,504.7412 L869,494.7412 " fill="#FEFFDD" style="stroke:#181818;stroke-width:0.5;"/><text fill="#000000" font-family="sans-serif" font-size="13" lengthAdjust="spacing" textLength="193" x="671" y="511.8081">np.diff(phase) / (2 * np.pi) * fs</text><rect fill="#F1F1F1" height="47.9375" rx="12.5" ry="12.5" style="stroke:#181818;stroke-width:0.5;" width="308" x="337" y="483.3389"/><text fill="#000000" font-family="sans-serif" font-size="12" lengthAdjust="spacing" textLength="66" x="347" y="504.4775">inst_freq =</text><text fill="#000000" font-family="sans-serif" font-size="12" lengthAdjust="spacing" textLength="276" x="359" y="518.4463">phases_to_instantaneous_frequencies(phase)</text><rect fill="#F1F1F1" height="47.9375" rx="12.5" ry="12.5" style="stroke:#181818;stroke-width:0.5;" width="257" x="362.5" y="551.2764"/><text fill="#000000" font-family="sans-serif" font-size="12" lengthAdjust="spacing" textLength="113" x="372.5" y="572.415">shifted_inst_freq =</text><text fill="#000000" font-family="sans-serif" font-size="12" lengthAdjust="spacing" textLength="229" x="380.5" y="586.3838">[f + self.__frequency for f in inst_freq]</text><path d="M670.5,630.6162 L670.5,639.1826 L650.5,643.1826 L670.5,647.1826 L670.5,655.749 A0,0 0 0 0 670.5,655.749 L895.5,655.749 A0,0 0 0 0 895.5,655.749 L895.5,640.6162 L885.5,630.6162 L670.5,630.6162 A0,0 0 0 0 670.5,630.6162 " fill="#FEFFDD" style="stroke:#181818;stroke-width:0.5;"/><path d="M885.5,630.6162 L885.5,640.6162 L895.5,640.6162 L885.5,630.6162 " fill="#FEFFDD" style="stroke:#181818;stroke-width:0.5;"/><text fill="#000000" font-family="sans-serif" font-size="13" lengthAdjust="spacing" textLength="204" x="676.5" y="647.6831">amplitude * np.e ** (1j * phase)</text><rect fill="#F1F1F1" height="47.9375" rx="12.5" ry="12.5" style="stroke:#181818;stroke-width:0.5;" width="319" x="331.5" y="619.2139"/><text fill="#000000" font-family="sans-serif" font-size="12" lengthAdjust="spacing" textLength="146" x="341.5" y="640.3525">reconstructed_shifted =</text><text fill="#000000" font-family="sans-serif" font-size="12" lengthAdjust="spacing" textLength="291" x="349.5" y="654.3213">get_complex_number(amplitude, phase_shifted)</text><rect fill="#F1F1F1" height="33.9688" rx="12.5" ry="12.5" style="stroke:#181818;stroke-width:0.5;" width="326" x="328" y="687.1514"/><text fill="#000000" font-family="sans-serif" font-size="12" lengthAdjust="spacing" textLength="306" x="338" y="708.29">modulated_chunk = np.real(reconstructed_shifted)</text><rect fill="#F1F1F1" height="33.9688" rx="12.5" ry="12.5" style="stroke:#181818;stroke-width:0.5;" width="226" x="378" y="741.1201"/><text fill="#000000" font-family="sans-serif" font-size="12" lengthAdjust="spacing" textLength="206" x="388" y="762.2588">insert modulated_chunk into audio</text><polygon fill="#F1F1F1" points="491,198.0654,503,210.0654,491,222.0654,479,210.0654,491,198.0654" style="stroke:#181818;stroke-width:0.5;"/><polygon fill="#F1F1F1" points="426,795.0889,556,795.0889,568,807.0889,556,819.0889,426,819.0889,414,807.0889,426,795.0889" style="stroke:#181818;stroke-width:0.5;"/><text fill="#000000" font-family="sans-serif" font-size="11" lengthAdjust="spacing" textLength="130" x="426" y="810.897">next stimulus interval?</text><text fill="#000000" font-family="sans-serif" font-size="11" lengthAdjust="spacing" textLength="21" x="568" y="804.4946">yes</text><rect fill="#F1F1F1" height="33.9688" rx="12.5" ry="12.5" style="stroke:#181818;stroke-width:0.5;" width="93" x="444.5" y="860.4878"/><text fill="#000000" font-family="sans-serif" font-size="12" lengthAdjust="spacing" textLength="73" x="454.5" y="881.6265">return audio</text><line style="stroke:#000000;stroke-width:1.5;" x1="322" x2="322" y1="12.7451" y2="990.4253"/><line style="stroke:#000000;stroke-width:1.5;" x1="943.5" x2="943.5" y1="12.7451" y2="990.4253"/><line style="stroke:#181818;stroke-width:1.0;" x1="96.5" x2="96.5" y1="58.6982" y2="79.4131"/><polygon fill="#181818" points="92.5,69.4131,96.5,79.4131,100.5,69.4131,96.5,73.4131" style="stroke:#181818;stroke-width:1.0;"/><line style="stroke:#181818;stroke-width:1.0;" x1="96.5" x2="96.5" y1="113.3818" y2="144.0967"/><polygon fill="#181818" points="92.5,134.0967,96.5,144.0967,100.5,134.0967,96.5,138.0967" style="stroke:#181818;stroke-width:1.0;"/><line style="stroke:#181818;stroke-width:1.0;" x1="96.5" x2="96.5" y1="948.4253" y2="968.4253"/><polygon fill="#181818" points="92.5,958.4253,96.5,968.4253,100.5,958.4253,96.5,962.4253" style="stroke:#181818;stroke-width:1.0;"/><line style="stroke:#181818;stroke-width:1.0;" x1="491" x2="491" y1="276.0342" y2="296.0342"/><polygon fill="#181818" points="487,286.0342,491,296.0342,495,286.0342,491,290.0342" style="stroke:#181818;stroke-width:1.0;"/><line style="stroke:#181818;stroke-width:1.0;" x1="491" x2="491" y1="330.0029" y2="350.7178"/><polygon fill="#181818" points="487,340.7178,491,350.7178,495,340.7178,491,344.7178" style="stroke:#181818;stroke-width:1.0;"/><line style="stroke:#181818;stroke-width:1.0;" x1="491" x2="491" y1="384.6865" y2="415.4014"/><polygon fill="#181818" points="487,405.4014,491,415.4014,495,405.4014,491,409.4014" style="stroke:#181818;stroke-width:1.0;"/><line style="stroke:#181818;stroke-width:1.0;" x1="491" x2="491" y1="463.3389" y2="483.3389"/><polygon fill="#181818" points="487,473.3389,491,483.3389,495,473.3389,491,477.3389" style="stroke:#181818;stroke-width:1.0;"/><line style="stroke:#181818;stroke-width:1.0;" x1="491" x2="491" y1="531.2764" y2="551.2764"/><polygon fill="#181818" points="487,541.2764,491,551.2764,495,541.2764,491,545.2764" style="stroke:#181818;stroke-width:1.0;"/><line style="stroke:#181818;stroke-width:1.0;" x1="491" x2="491" y1="599.2139" y2="619.2139"/><polygon fill="#181818" points="487,609.2139,491,619.2139,495,609.2139,491,613.2139" style="stroke:#181818;stroke-width:1.0;"/><line style="stroke:#181818;stroke-width:1.0;" x1="491" x2="491" y1="667.1514" y2="687.1514"/><polygon fill="#181818" points="487,677.1514,491,687.1514,495,677.1514,491,681.1514" style="stroke:#181818;stroke-width:1.0;"/><line style="stroke:#181818;stroke-width:1.0;" x1="491" x2="491" y1="721.1201" y2="741.1201"/><polygon fill="#181818" points="487,731.1201,491,741.1201,495,731.1201,491,735.1201" style="stroke:#181818;stroke-width:1.0;"/><line style="stroke:#181818;stroke-width:1.0;" x1="491" x2="491" y1="222.0654" y2="242.0654"/><polygon fill="#181818" points="487,232.0654,491,242.0654,495,232.0654,491,236.0654" style="stroke:#181818;stroke-width:1.0;"/><line style="stroke:#181818;stroke-width:1.0;" x1="568" x2="924.5" y1="807.0889" y2="807.0889"/><polygon fill="#181818" points="920.5,513.5771,924.5,503.5771,928.5,513.5771,924.5,509.5771" style="stroke:#181818;stroke-width:1.0;"/><line style="stroke:#181818;stroke-width:1.0;" x1="924.5" x2="924.5" y1="210.0654" y2="807.0889"/><line style="stroke:#181818;stroke-width:1.0;" x1="924.5" x2="503" y1="210.0654" y2="210.0654"/><polygon fill="#181818" points="513,206.0654,503,210.0654,513,214.0654,509,210.0654" style="stroke:#181818;stroke-width:1.0;"/><line style="stroke:#181818;stroke-width:1.0;" x1="491" x2="491" y1="775.0889" y2="795.0889"/><polygon fill="#181818" points="487,785.0889,491,795.0889,495,785.0889,491,789.0889" style="stroke:#181818;stroke-width:1.0;"/><line style="stroke:#181818;stroke-width:1.0;" x1="491" x2="491" y1="819.0889" y2="860.4878"/><polygon fill="#181818" points="487,850.4878,491,860.4878,495,850.4878,491,854.4878" style="stroke:#181818;stroke-width:1.0;"/><text fill="#000000" font-family="sans-serif" font-size="11" lengthAdjust="spacing" textLength="14" x="495" y="840.3936">no</text><line style="stroke:#181818;stroke-width:1.0;" x1="96.5" x2="96.5" y1="178.0654" y2="183.0654"/><line style="stroke:#181818;stroke-width:1.0;" x1="96.5" x2="491" y1="183.0654" y2="183.0654"/><line style="stroke:#181818;stroke-width:1.0;" x1="491" x2="491" y1="183.0654" y2="198.0654"/><polygon fill="#181818" points="487,188.0654,491,198.0654,495,188.0654,491,192.0654" style="stroke:#181818;stroke-width:1.0;"/><line style="stroke:#181818;stroke-width:1.0;" x1="491" x2="491" y1="894.4565" y2="899.4565"/><line style="stroke:#181818;stroke-width:1.0;" x1="491" x2="96.5" y1="899.4565" y2="899.4565"/><line style="stroke:#181818;stroke-width:1.0;" x1="96.5" x2="96.5" y1="899.4565" y2="914.4565"/><polygon fill="#181818" points="92.5,904.4565,96.5,914.4565,100.5,904.4565,96.5,908.4565" style="stroke:#181818;stroke-width:1.0;"/><text fill="#000000" font-family="sans-serif" font-size="18" lengthAdjust="spacing" textLength="44" x="146.5" y="29.4531">Main</text><text fill="#000000" font-family="sans-serif" font-size="18" lengthAdjust="spacing" textLength="91" x="587.25" y="29.4531">FMTagger</text><!--SRC=[ZLGzRzmm3DtzAxZLJdDtQ4SVqWu5WYxPkWM1eBDfcwqikHALnC3z-5B-Adgv0FLYINma7yL7VUYOXr0U3eFHbcDlzfNh3xfYUYOUTpNfrkj-TqBMMNP-q6JFMM3jEIk_EHlOnuhX_k67RblqUN7Ch6C4Jst76SYdOqtkTbe6fZuQKcGP_RCsOJfjFFwEQAinGrj3yiwoSWsuhpngnXGtypZ8Ul8vh_Rpj2rRPB3uoakA663DSPm14mjLTT7-WhkPq-CRx9CacT5Mcv6f4cX7veIUyq2j71Ppk8iIq_TznW5xRKFZVBzPg1yCzcXPCpahvRg_jb3HC4wxhVQPWFWGnnflOUXqGBXRNAH6BxrH6o2e2H3obVFx53SVASiEUtqAkOszi0x5Xbco9NkqBruFUKBQrk26BVxbEnCcKO9AdToOpg62OgUIKRIbBReOrDfl4j8Jvdt6ahkcfbbWS83yCzoaqu4AMJJXojM5ZXh6MhrbzDZ0HmXechtQI8mWlO96902RmzEY6O_LAd29jyJTeedab4oAzFPLpLUJNtPjzVcVbanboUy6yay_PJUNVEsgUrT7enEbLSxYALDYygk4b-IfGqcVbzwYVJVFmt4PC7WHpKkxhuxJrm8eG3wYQ6RtnOgJN1D7RzSOwnDHtaVF7NeOlAim1BBjKTuDD_m1]--></g></svg>