<?xml version="1.0" encoding="us-ascii" standalone="no"?><svg xmlns="http://www.w3.org/2000/svg" xmlns:xlink="http://www.w3.org/1999/xlink" contentStyleType="text/css" height="1138px" preserveAspectRatio="none" style="width:1398px;height:1138px;background:#FFFFFF;" version="1.1" viewBox="0 0 1398 1138" width="1398px" zoomAndPan="magnify"><defs/><g><rect fill="none" height="20.9531" style="stroke:none;stroke-width:1.0;" width="1365" x="15" y="12.7451"/><ellipse cx="96.5" cy="48.6982" fill="#222222" rx="10" ry="10" style="stroke:#222222;stroke-width:1.0;"/><path d="M192,68.6982 L192,92.3975 L172,96.3975 L192,100.3975 L192,124.0967 A0,0 0 0 0 192,124.0967 L317,124.0967 A0,0 0 0 0 317,124.0967 L317,78.6982 L307,68.6982 L192,68.6982 A0,0 0 0 0 192,68.6982 " fill="#FEFFDD" style="stroke:#181818;stroke-width:0.5;"/><path d="M307,68.6982 L307,78.6982 L317,78.6982 L307,68.6982 " fill="#FEFFDD" style="stroke:#181818;stroke-width:0.5;"/><text fill="#000000" font-family="sans-serif" font-size="13" lengthAdjust="spacing" textLength="39" x="198" y="85.7651">audio,</text><text fill="#000000" font-family="sans-serif" font-size="13" lengthAdjust="spacing" textLength="104" x="198" y="100.8979">stimuli_intervals</text><text fill="#000000" font-family="sans-serif" font-size="13" lengthAdjust="spacing" textLength="65" x="198" y="116.0308">frequency</text><rect fill="#F1F1F1" height="33.9688" rx="12.5" ry="12.5" style="stroke:#181818;stroke-width:0.5;" width="151" x="21" y="79.4131"/><text fill="#000000" font-family="sans-serif" font-size="12" lengthAdjust="spacing" textLength="131" x="31" y="100.5518">Construct FMTagger()</text><rect fill="#F1F1F1" height="33.9688" rx="12.5" ry="12.5" style="stroke:#181818;stroke-width:0.5;" width="132" x="30.5" y="144.0967"/><text fill="#000000" font-family="sans-serif" font-size="12" lengthAdjust="spacing" textLength="112" x="40.5" y="165.2354">FMTagger.create()</text><rect fill="#F1F1F1" height="33.9688" rx="12.5" ry="12.5" style="stroke:#181818;stroke-width:0.5;" width="135" x="29" y="1050.3315"/><text fill="#000000" font-family="sans-serif" font-size="12" lengthAdjust="spacing" textLength="115" x="39" y="1071.4702">Further processing</text><ellipse cx="96.5" cy="1115.3003" fill="none" rx="11" ry="11" style="stroke:#222222;stroke-width:1.0;"/><ellipse cx="96.5" cy="1115.3003" fill="#222222" rx="6" ry="6" style="stroke:#222222;stroke-width:1.0;"/><line style="stroke:#000000;stroke-width:1.5;" x1="15" x2="15" y1="12.7451" y2="1126.3003"/><rect fill="#F1F1F1" height="33.9688" rx="12.5" ry="12.5" style="stroke:#181818;stroke-width:0.5;" width="171" x="488" y="242.0654"/><text fill="#000000" font-family="sans-serif" font-size="12" lengthAdjust="spacing" textLength="151" x="498" y="263.2041">get next stimulus interval</text><rect fill="#F1F1F1" height="33.9688" rx="12.5" ry="12.5" style="stroke:#181818;stroke-width:0.5;" width="252" x="447.5" y="296.0342"/><text fill="#000000" font-family="sans-serif" font-size="12" lengthAdjust="spacing" textLength="232" x="457.5" y="317.1729">audio_chunk = audio[stimulus interval]</text><path d="M676.5,340.0029 L676.5,363.7021 L656.5,367.7021 L676.5,371.7021 L676.5,395.4014 A0,0 0 0 0 676.5,395.4014 L833.5,395.4014 A0,0 0 0 0 833.5,395.4014 L833.5,350.0029 L823.5,340.0029 L676.5,340.0029 A0,0 0 0 0 676.5,340.0029 " fill="#FEFFDD" style="stroke:#181818;stroke-width:0.5;"/><path d="M823.5,340.0029 L823.5,350.0029 L833.5,350.0029 L823.5,340.0029 " fill="#FEFFDD" style="stroke:#181818;stroke-width:0.5;"/><text fill="#000000" font-family="sans-serif" font-size="13" lengthAdjust="spacing" textLength="109" x="682.5" y="357.0698">Hilbert transform</text><text fill="#000000" font-family="sans-serif" font-size="13" lengthAdjust="spacing" textLength="136" x="682.5" y="372.2026">implementation from</text><text fill="#000000" font-family="sans-serif" font-size="13" lengthAdjust="spacing" textLength="33" x="682.5" y="387.3354">scipy</text><rect fill="#F1F1F1" height="33.9688" rx="12.5" ry="12.5" style="stroke:#181818;stroke-width:0.5;" width="166" x="490.5" y="350.7178"/><text fill="#000000" font-family="sans-serif" font-size="12" lengthAdjust="spacing" textLength="146" x="500.5" y="371.8564">analytic = hilbert(signal)</text><path d="M717,419.2373 L717,435.3701 L697,439.3701 L717,443.3701 L717,459.5029 A0,0 0 0 0 717,459.5029 L995,459.5029 A0,0 0 0 0 995,459.5029 L995,429.2373 L985,419.2373 L717,419.2373 A0,0 0 0 0 717,419.2373 " fill="#FEFFDD" style="stroke:#181818;stroke-width:0.5;"/><path d="M985,419.2373 L985,429.2373 L995,429.2373 L985,419.2373 " fill="#FEFFDD" style="stroke:#181818;stroke-width:0.5;"/><text fill="#000000" font-family="sans-serif" font-size="13" lengthAdjust="spacing" textLength="192" x="723" y="436.3042">amplitude = np.abs(numbers)</text><text fill="#000000" font-family="sans-serif" font-size="13" lengthAdjust="spacing" textLength="257" x="723" y="451.437">phase = np.unwrap(np.angle(numbers))</text><rect fill="#F1F1F1" height="47.9375" rx="12.5" ry="12.5" style="stroke:#181818;stroke-width:0.5;" width="247" x="450" y="415.4014"/><text fill="#000000" font-family="sans-serif" font-size="12" lengthAdjust="spacing" textLength="118" x="460" y="436.54">amplitude, phase =</text><text fill="#000000" font-family="sans-serif" font-size="12" lengthAdjust="spacing" textLength="219" x="468" y="450.5088">extract_amplitudes_phases(analytic)</text><path d="M747.5,494.7412 L747.5,503.3076 L727.5,507.3076 L747.5,511.3076 L747.5,519.874 A0,0 0 0 0 747.5,519.874 L941.5,519.874 A0,0 0 0 0 941.5,519.874 L941.5,504.7412 L931.5,494.7412 L747.5,494.7412 A0,0 0 0 0 747.5,494.7412 " fill="#FEFFDD" style="stroke:#181818;stroke-width:0.5;"/><path d="M931.5,494.7412 L931.5,504.7412 L941.5,504.7412 L931.5,494.7412 " fill="#FEFFDD" style="stroke:#181818;stroke-width:0.5;"/><text fill="#000000" font-family="sans-serif" font-size="13" lengthAdjust="spacing" textLength="173" x="753.5" y="511.8081">np.diff(phase) / (2 * pi) * fs</text><rect fill="#F1F1F1" height="47.9375" rx="12.5" ry="12.5" style="stroke:#181818;stroke-width:0.5;" width="308" x="419.5" y="483.3389"/><text fill="#000000" font-family="sans-serif" font-size="12" lengthAdjust="spacing" textLength="66" x="429.5" y="504.4775">inst_freq =</text><text fill="#000000" font-family="sans-serif" font-size="12" lengthAdjust="spacing" textLength="276" x="441.5" y="518.4463">phases_to_instantaneous_frequencies(phase)</text><rect fill="#F1F1F1" height="47.9375" rx="12.5" ry="12.5" style="stroke:#181818;stroke-width:0.5;" width="317" x="415" y="619.2139"/><text fill="#000000" font-family="sans-serif" font-size="12" lengthAdjust="spacing" textLength="113" x="425" y="640.3525">shifted_inst_freq =</text><text fill="#000000" font-family="sans-serif" font-size="12" lengthAdjust="spacing" textLength="289" x="433" y="654.3213">inst_freq + modulation_factor * modulating_sine</text><path d="M814,698.5537 L814,707.1201 L794,711.1201 L814,715.1201 L814,723.6865 A0,0 0 0 0 814,723.6865 L1025,723.6865 A0,0 0 0 0 1025,723.6865 L1025,708.5537 L1015,698.5537 L814,698.5537 A0,0 0 0 0 814,698.5537 " fill="#FEFFDD" style="stroke:#181818;stroke-width:0.5;"/><path d="M1015,698.5537 L1015,708.5537 L1025,708.5537 L1015,698.5537 " fill="#FEFFDD" style="stroke:#181818;stroke-width:0.5;"/><text fill="#000000" font-family="sans-serif" font-size="13" lengthAdjust="spacing" textLength="190" x="820" y="715.6206">shifted_inst_freq * (2 * pi) / fs</text><rect fill="#F1F1F1" height="47.9375" rx="12.5" ry="12.5" style="stroke:#181818;stroke-width:0.5;" width="441" x="353" y="687.1514"/><text fill="#000000" font-family="sans-serif" font-size="12" lengthAdjust="spacing" textLength="98" x="363" y="708.29">phase_shifted =</text><text fill="#000000" font-family="sans-serif" font-size="12" lengthAdjust="spacing" textLength="413" x="371" y="722.2588">instantaneous_frequencies_to_phases(shifted_inst_freq, phase[0, :])</text><path d="M753,766.4912 L753,775.0576 L733,779.0576 L753,783.0576 L753,791.624 A0,0 0 0 0 753,791.624 L978,791.624 A0,0 0 0 0 978,791.624 L978,776.4912 L968,766.4912 L753,766.4912 A0,0 0 0 0 753,766.4912 " fill="#FEFFDD" style="stroke:#181818;stroke-width:0.5;"/><path d="M968,766.4912 L968,776.4912 L978,776.4912 L968,766.4912 " fill="#FEFFDD" style="stroke:#181818;stroke-width:0.5;"/><text fill="#000000" font-family="sans-serif" font-size="13" lengthAdjust="spacing" textLength="204" x="759" y="783.5581">amplitude * np.e ** (1j * phase)</text><rect fill="#F1F1F1" height="47.9375" rx="12.5" ry="12.5" style="stroke:#181818;stroke-width:0.5;" width="319" x="414" y="755.0889"/><text fill="#000000" font-family="sans-serif" font-size="12" lengthAdjust="spacing" textLength="146" x="424" y="776.2275">reconstructed_shifted =</text><text fill="#000000" font-family="sans-serif" font-size="12" lengthAdjust="spacing" textLength="291" x="432" y="790.1963">get_complex_number(amplitude, phase_shifted)</text><rect fill="#F1F1F1" height="33.9688" rx="12.5" ry="12.5" style="stroke:#181818;stroke-width:0.5;" width="326" x="410.5" y="823.0264"/><text fill="#000000" font-family="sans-serif" font-size="12" lengthAdjust="spacing" textLength="306" x="420.5" y="844.165">modulated_chunk = np.real(reconstructed_shifted)</text><rect fill="#F1F1F1" height="33.9688" rx="12.5" ry="12.5" style="stroke:#181818;stroke-width:0.5;" width="226" x="460.5" y="876.9951"/><text fill="#000000" font-family="sans-serif" font-size="12" lengthAdjust="spacing" textLength="206" x="470.5" y="898.1338">insert modulated_chunk into audio</text><polygon fill="#F1F1F1" points="573.5,198.0654,585.5,210.0654,573.5,222.0654,561.5,210.0654,573.5,198.0654" style="stroke:#181818;stroke-width:0.5;"/><polygon fill="#F1F1F1" points="508.5,930.9639,638.5,930.9639,650.5,942.9639,638.5,954.9639,508.5,954.9639,496.5,942.9639,508.5,930.9639" style="stroke:#181818;stroke-width:0.5;"/><text fill="#000000" font-family="sans-serif" font-size="11" lengthAdjust="spacing" textLength="130" x="508.5" y="946.772">next stimulus interval?</text><text fill="#000000" font-family="sans-serif" font-size="11" lengthAdjust="spacing" textLength="21" x="650.5" y="940.3696">yes</text><rect fill="#F1F1F1" height="33.9688" rx="12.5" ry="12.5" style="stroke:#181818;stroke-width:0.5;" width="93" x="527" y="996.3628"/><text fill="#000000" font-family="sans-serif" font-size="12" lengthAdjust="spacing" textLength="73" x="537" y="1017.5015">return audio</text><line style="stroke:#000000;stroke-width:1.5;" x1="322" x2="322" y1="12.7451" y2="1126.3003"/><rect fill="#F1F1F1" height="47.9375" rx="12.5" ry="12.5" style="stroke:#181818;stroke-width:0.5;" width="338" x="1036" y="551.2764"/><text fill="#000000" font-family="sans-serif" font-size="12" lengthAdjust="spacing" textLength="111" x="1046" y="572.415">modulating_sine =</text><text fill="#000000" font-family="sans-serif" font-size="12" lengthAdjust="spacing" textLength="310" x="1054" y="586.3838">sine_signal(inst_freq.shape[0], frequency, audio.fs)</text><line style="stroke:#000000;stroke-width:1.5;" x1="1030" x2="1030" y1="12.7451" y2="1126.3003"/><line style="stroke:#000000;stroke-width:1.5;" x1="1378" x2="1378" y1="12.7451" y2="1126.3003"/><line style="stroke:#181818;stroke-width:1.0;" x1="96.5" x2="96.5" y1="58.6982" y2="79.4131"/><polygon fill="#181818" points="92.5,69.4131,96.5,79.4131,100.5,69.4131,96.5,73.4131" style="stroke:#181818;stroke-width:1.0;"/><line style="stroke:#181818;stroke-width:1.0;" x1="96.5" x2="96.5" y1="113.3818" y2="144.0967"/><polygon fill="#181818" points="92.5,134.0967,96.5,144.0967,100.5,134.0967,96.5,138.0967" style="stroke:#181818;stroke-width:1.0;"/><line style="stroke:#181818;stroke-width:1.0;" x1="96.5" x2="96.5" y1="1084.3003" y2="1104.3003"/><polygon fill="#181818" points="92.5,1094.3003,96.5,1104.3003,100.5,1094.3003,96.5,1098.3003" style="stroke:#181818;stroke-width:1.0;"/><line style="stroke:#181818;stroke-width:1.0;" x1="573.5" x2="573.5" y1="276.0342" y2="296.0342"/><polygon fill="#181818" points="569.5,286.0342,573.5,296.0342,577.5,286.0342,573.5,290.0342" style="stroke:#181818;stroke-width:1.0;"/><line style="stroke:#181818;stroke-width:1.0;" x1="573.5" x2="573.5" y1="330.0029" y2="350.7178"/><polygon fill="#181818" points="569.5,340.7178,573.5,350.7178,577.5,340.7178,573.5,344.7178" style="stroke:#181818;stroke-width:1.0;"/><line style="stroke:#181818;stroke-width:1.0;" x1="573.5" x2="573.5" y1="384.6865" y2="415.4014"/><polygon fill="#181818" points="569.5,405.4014,573.5,415.4014,577.5,405.4014,573.5,409.4014" style="stroke:#181818;stroke-width:1.0;"/><line style="stroke:#181818;stroke-width:1.0;" x1="573.5" x2="573.5" y1="463.3389" y2="483.3389"/><polygon fill="#181818" points="569.5,473.3389,573.5,483.3389,577.5,473.3389,573.5,477.3389" style="stroke:#181818;stroke-width:1.0;"/><line style="stroke:#181818;stroke-width:1.0;" x1="573.5" x2="573.5" y1="667.1514" y2="687.1514"/><polygon fill="#181818" points="569.5,677.1514,573.5,687.1514,577.5,677.1514,573.5,681.1514" style="stroke:#181818;stroke-width:1.0;"/><line style="stroke:#181818;stroke-width:1.0;" x1="573.5" x2="573.5" y1="735.0889" y2="755.0889"/><polygon fill="#181818" points="569.5,745.0889,573.5,755.0889,577.5,745.0889,573.5,749.0889" style="stroke:#181818;stroke-width:1.0;"/><line style="stroke:#181818;stroke-width:1.0;" x1="573.5" x2="573.5" y1="803.0264" y2="823.0264"/><polygon fill="#181818" points="569.5,813.0264,573.5,823.0264,577.5,813.0264,573.5,817.0264" style="stroke:#181818;stroke-width:1.0;"/><line style="stroke:#181818;stroke-width:1.0;" x1="573.5" x2="573.5" y1="856.9951" y2="876.9951"/><polygon fill="#181818" points="569.5,866.9951,573.5,876.9951,577.5,866.9951,573.5,870.9951" style="stroke:#181818;stroke-width:1.0;"/><line style="stroke:#181818;stroke-width:1.0;" x1="573.5" x2="573.5" y1="222.0654" y2="242.0654"/><polygon fill="#181818" points="569.5,232.0654,573.5,242.0654,577.5,232.0654,573.5,236.0654" style="stroke:#181818;stroke-width:1.0;"/><line style="stroke:#181818;stroke-width:1.0;" x1="496.5" x2="341" y1="942.9639" y2="942.9639"/><polygon fill="#181818" points="337,581.5146,341,571.5146,345,581.5146,341,577.5146" style="stroke:#181818;stroke-width:1.0;"/><line style="stroke:#181818;stroke-width:1.0;" x1="341" x2="341" y1="210.0654" y2="942.9639"/><line style="stroke:#181818;stroke-width:1.0;" x1="341" x2="561.5" y1="210.0654" y2="210.0654"/><polygon fill="#181818" points="551.5,206.0654,561.5,210.0654,551.5,214.0654,555.5,210.0654" style="stroke:#181818;stroke-width:1.0;"/><line style="stroke:#181818;stroke-width:1.0;" x1="573.5" x2="573.5" y1="910.9639" y2="930.9639"/><polygon fill="#181818" points="569.5,920.9639,573.5,930.9639,577.5,920.9639,573.5,924.9639" style="stroke:#181818;stroke-width:1.0;"/><line style="stroke:#181818;stroke-width:1.0;" x1="573.5" x2="573.5" y1="954.9639" y2="996.3628"/><polygon fill="#181818" points="569.5,986.3628,573.5,996.3628,577.5,986.3628,573.5,990.3628" style="stroke:#181818;stroke-width:1.0;"/><text fill="#000000" font-family="sans-serif" font-size="11" lengthAdjust="spacing" textLength="14" x="577.5" y="976.2686">no</text><line style="stroke:#181818;stroke-width:1.0;" x1="573.5" x2="573.5" y1="531.2764" y2="536.2764"/><line style="stroke:#181818;stroke-width:1.0;" x1="573.5" x2="1205" y1="536.2764" y2="536.2764"/><line style="stroke:#181818;stroke-width:1.0;" x1="1205" x2="1205" y1="536.2764" y2="551.2764"/><polygon fill="#181818" points="1201,541.2764,1205,551.2764,1209,541.2764,1205,545.2764" style="stroke:#181818;stroke-width:1.0;"/><line style="stroke:#181818;stroke-width:1.0;" x1="1205" x2="1205" y1="599.2139" y2="604.2139"/><line style="stroke:#181818;stroke-width:1.0;" x1="1205" x2="573.5" y1="604.2139" y2="604.2139"/><line style="stroke:#181818;stroke-width:1.0;" x1="573.5" x2="573.5" y1="604.2139" y2="619.2139"/><polygon fill="#181818" points="569.5,609.2139,573.5,619.2139,577.5,609.2139,573.5,613.2139" style="stroke:#181818;stroke-width:1.0;"/><line style="stroke:#181818;stroke-width:1.0;" x1="96.5" x2="96.5" y1="178.0654" y2="183.0654"/><line style="stroke:#181818;stroke-width:1.0;" x1="96.5" x2="573.5" y1="183.0654" y2="183.0654"/><line style="stroke:#181818;stroke-width:1.0;" x1="573.5" x2="573.5" y1="183.0654" y2="198.0654"/><polygon fill="#181818" points="569.5,188.0654,573.5,198.0654,577.5,188.0654,573.5,192.0654" style="stroke:#181818;stroke-width:1.0;"/><line style="stroke:#181818;stroke-width:1.0;" x1="573.5" x2="573.5" y1="1030.3315" y2="1035.3315"/><line style="stroke:#181818;stroke-width:1.0;" x1="573.5" x2="96.5" y1="1035.3315" y2="1035.3315"/><line style="stroke:#181818;stroke-width:1.0;" x1="96.5" x2="96.5" y1="1035.3315" y2="1050.3315"/><polygon fill="#181818" points="92.5,1040.3315,96.5,1050.3315,100.5,1040.3315,96.5,1044.3315" style="stroke:#181818;stroke-width:1.0;"/><text fill="#000000" font-family="sans-serif" font-size="18" lengthAdjust="spacing" textLength="44" x="146.5" y="29.4531">Main</text><text fill="#000000" font-family="sans-serif" font-size="18" lengthAdjust="spacing" textLength="91" x="630.5" y="29.4531">FMTagger</text><text fill="#000000" font-family="sans-serif" font-size="18" lengthAdjust="spacing" textLength="128" x="1140" y="29.4531">tagger_getter</text><!--SRC=[ZLHDRzim3BtxL-WsEyj7jwE3ReS1nIwzxHO4WchJjZPRqYIgRO3y-56MvQ1E0im7sv8UoKVoYPywHEFAtSxqGg4V-csbXvseKBvAF6rgALehXiqBeCYoyxEGwfmv51QpyeTM3gsla3qz_n9j2pOlzfdI2CpAjiECqIDyBVLw_7Ke1zzBBXM2VHMz6tSR2tyzgEgKWQfPiCwoCZdSLXO4Gl2RMJ3qFzgSq_bvN9Oj85FmZbC8xrYAiO-0aGMlEg_-iCV8wN25FLAGY5QYFw6i2Dh9_WKivawsj5b4TuiKm_CpuXXQeLoZxJ2VoC7qC812WL8hIbTVpbmbpMbSpRb70cGZqTUmPgOJ3jZZP48vMkeDdm6EZm2N9yxtASusb9OoM_7YSkK7OksA6JD52-TUlLbXye1KRGypjlZ8DnAMf0GUEZapZQuSHyt38MbBAD3UyTHlIQH7p7t65BkMJJF1s8xbNzcA6LdGkt4tU9nnL0KdFU0iZa7NlgVYgvOxgIwr30iU-vhF_BUk4mOE3yVrHPZhA9Xjuuf98KlzkKus23M_BiDbvpDBHBJY3JLHMqfZGIufSCoOJsu_EBjPo53bIGTNL2O97HxMh3pUh_Lr2gjBkNUtorrQgD8C8DCbNUe2fs52yd_dKJtvKjZ9vdzKkmfwe0_n-l8x41jLSOlML5IYb6uyMT8WwVERXAVWGSJX2Y-jQJpeg83zD8FO6uq5kX4t9yxtWad7yXFGjTfyKsH4PK9lLVAHfcZvv2rsO9cnkW97xM_tD5gr-GS0]--></g></svg>