<?xml version="1.0" encoding="us-ascii" standalone="no"?><svg xmlns="http://www.w3.org/2000/svg" xmlns:xlink="http://www.w3.org/1999/xlink" contentStyleType="text/css" height="737px" preserveAspectRatio="none" style="width:1011px;height:737px;background:#FFFFFF;" version="1.1" viewBox="0 0 1011 737" width="1011px" zoomAndPan="magnify"><defs/><g><rect fill="none" height="20.9531" style="stroke:none;stroke-width:1.0;" width="978" x="15" y="12.7451"/><ellipse cx="97" cy="48.6982" fill="#222222" rx="10" ry="10" style="stroke:#222222;stroke-width:1.0;"/><path d="M193,68.6982 L193,99.9639 L173,103.9639 L193,107.9639 L193,139.2295 A0,0 0 0 0 193,139.2295 L318,139.2295 A0,0 0 0 0 318,139.2295 L318,78.6982 L308,68.6982 L193,68.6982 A0,0 0 0 0 193,68.6982 " fill="#FEFFDD" style="stroke:#181818;stroke-width:0.5;"/><path d="M308,68.6982 L308,78.6982 L318,78.6982 L308,68.6982 " fill="#FEFFDD" style="stroke:#181818;stroke-width:0.5;"/><text fill="#000000" font-family="sans-serif" font-size="13" lengthAdjust="spacing" textLength="39" x="199" y="85.7651">audio,</text><text fill="#000000" font-family="sans-serif" font-size="13" lengthAdjust="spacing" textLength="104" x="199" y="100.8979">stimuli_intervals</text><text fill="#000000" font-family="sans-serif" font-size="13" lengthAdjust="spacing" textLength="65" x="199" y="116.0308">frequency</text><text fill="#000000" font-family="sans-serif" font-size="13" lengthAdjust="spacing" textLength="91" x="199" y="131.1636">tag_generator</text><rect fill="#F1F1F1" height="33.9688" rx="12.5" ry="12.5" style="stroke:#181818;stroke-width:0.5;" width="152" x="21" y="86.9795"/><text fill="#000000" font-family="sans-serif" font-size="12" lengthAdjust="spacing" textLength="132" x="31" y="108.1182">Construct AMTagger()</text><rect fill="#F1F1F1" height="33.9688" rx="12.5" ry="12.5" style="stroke:#181818;stroke-width:0.5;" width="133" x="30.5" y="159.2295"/><text fill="#000000" font-family="sans-serif" font-size="12" lengthAdjust="spacing" textLength="113" x="40.5" y="180.3682">AMTagger.create()</text><rect fill="#F1F1F1" height="33.9688" rx="12.5" ry="12.5" style="stroke:#181818;stroke-width:0.5;" width="135" x="29.5" y="649.5581"/><text fill="#000000" font-family="sans-serif" font-size="12" lengthAdjust="spacing" textLength="115" x="39.5" y="670.6968">Further processing</text><ellipse cx="97" cy="714.5269" fill="none" rx="11" ry="11" style="stroke:#222222;stroke-width:1.0;"/><ellipse cx="97" cy="714.5269" fill="#222222" rx="6" ry="6" style="stroke:#222222;stroke-width:1.0;"/><line style="stroke:#000000;stroke-width:1.5;" x1="15" x2="15" y1="12.7451" y2="725.5269"/><rect fill="#F1F1F1" height="33.9688" rx="12.5" ry="12.5" style="stroke:#181818;stroke-width:0.5;" width="171" x="396.5" y="257.1982"/><text fill="#000000" font-family="sans-serif" font-size="12" lengthAdjust="spacing" textLength="151" x="406.5" y="278.3369">get next stimulus interval</text><rect fill="#F1F1F1" height="33.9688" rx="12.5" ry="12.5" style="stroke:#181818;stroke-width:0.5;" width="252" x="356" y="368.2842"/><text fill="#000000" font-family="sans-serif" font-size="12" lengthAdjust="spacing" textLength="232" x="366" y="389.4229">audio_chunk = audio[stimulus interval]</text><rect fill="#F1F1F1" height="33.9688" rx="12.5" ry="12.5" style="stroke:#181818;stroke-width:0.5;" width="251" x="356.5" y="422.2529"/><text fill="#000000" font-family="sans-serif" font-size="12" lengthAdjust="spacing" textLength="231" x="366.5" y="443.3916">modulated_chunk = audio_chunk * tag</text><rect fill="#F1F1F1" height="33.9688" rx="12.5" ry="12.5" style="stroke:#181818;stroke-width:0.5;" width="226" x="369" y="476.2217"/><text fill="#000000" font-family="sans-serif" font-size="12" lengthAdjust="spacing" textLength="206" x="379" y="497.3604">insert modulated_chunk into audio</text><polygon fill="#F1F1F1" points="482,213.1982,494,225.1982,482,237.1982,470,225.1982,482,213.1982" style="stroke:#181818;stroke-width:0.5;"/><polygon fill="#F1F1F1" points="417,530.1904,547,530.1904,559,542.1904,547,554.1904,417,554.1904,405,542.1904,417,530.1904" style="stroke:#181818;stroke-width:0.5;"/><text fill="#000000" font-family="sans-serif" font-size="11" lengthAdjust="spacing" textLength="130" x="417" y="545.9985">next stimulus interval?</text><text fill="#000000" font-family="sans-serif" font-size="11" lengthAdjust="spacing" textLength="21" x="559" y="539.5962">yes</text><rect fill="#F1F1F1" height="33.9688" rx="12.5" ry="12.5" style="stroke:#181818;stroke-width:0.5;" width="93" x="435.5" y="595.5894"/><text fill="#000000" font-family="sans-serif" font-size="12" lengthAdjust="spacing" textLength="73" x="445.5" y="616.728">return audio</text><line style="stroke:#000000;stroke-width:1.5;" x1="323" x2="323" y1="12.7451" y2="725.5269"/><path d="M894,308.0186 L894,324.1514 L874,328.1514 L894,332.1514 L894,348.2842 A0,0 0 0 0 894,348.2842 L986,348.2842 A0,0 0 0 0 986,348.2842 L986,318.0186 L976,308.0186 L894,308.0186 A0,0 0 0 0 894,308.0186 " fill="#FEFFDD" style="stroke:#181818;stroke-width:0.5;"/><path d="M976,308.0186 L976,318.0186 L986,318.0186 L976,308.0186 " fill="#FEFFDD" style="stroke:#181818;stroke-width:0.5;"/><text fill="#000000" font-family="sans-serif" font-size="13" lengthAdjust="spacing" textLength="71" x="900" y="325.0854">sine signal/</text><text fill="#000000" font-family="sans-serif" font-size="13" lengthAdjust="spacing" textLength="68" x="900" y="340.2183">click signal</text><rect fill="#F1F1F1" height="33.9688" rx="12.5" ry="12.5" style="stroke:#181818;stroke-width:0.5;" width="256" x="618" y="311.167"/><text fill="#000000" font-family="sans-serif" font-size="12" lengthAdjust="spacing" textLength="236" x="628" y="332.3057">generate tag of stimulus interval length</text><line style="stroke:#000000;stroke-width:1.5;" x1="612" x2="612" y1="12.7451" y2="725.5269"/><line style="stroke:#000000;stroke-width:1.5;" x1="991" x2="991" y1="12.7451" y2="725.5269"/><line style="stroke:#181818;stroke-width:1.0;" x1="97" x2="97" y1="58.6982" y2="86.9795"/><polygon fill="#181818" points="93,76.9795,97,86.9795,101,76.9795,97,80.9795" style="stroke:#181818;stroke-width:1.0;"/><line style="stroke:#181818;stroke-width:1.0;" x1="97" x2="97" y1="120.9482" y2="159.2295"/><polygon fill="#181818" points="93,149.2295,97,159.2295,101,149.2295,97,153.2295" style="stroke:#181818;stroke-width:1.0;"/><line style="stroke:#181818;stroke-width:1.0;" x1="97" x2="97" y1="683.5269" y2="703.5269"/><polygon fill="#181818" points="93,693.5269,97,703.5269,101,693.5269,97,697.5269" style="stroke:#181818;stroke-width:1.0;"/><line style="stroke:#181818;stroke-width:1.0;" x1="482" x2="482" y1="402.2529" y2="422.2529"/><polygon fill="#181818" points="478,412.2529,482,422.2529,486,412.2529,482,416.2529" style="stroke:#181818;stroke-width:1.0;"/><line style="stroke:#181818;stroke-width:1.0;" x1="482" x2="482" y1="456.2217" y2="476.2217"/><polygon fill="#181818" points="478,466.2217,482,476.2217,486,466.2217,482,470.2217" style="stroke:#181818;stroke-width:1.0;"/><line style="stroke:#181818;stroke-width:1.0;" x1="482" x2="482" y1="237.1982" y2="257.1982"/><polygon fill="#181818" points="478,247.1982,482,257.1982,486,247.1982,482,251.1982" style="stroke:#181818;stroke-width:1.0;"/><line style="stroke:#181818;stroke-width:1.0;" x1="405" x2="342" y1="542.1904" y2="542.1904"/><polygon fill="#181818" points="338,392.1201,342,382.1201,346,392.1201,342,388.1201" style="stroke:#181818;stroke-width:1.0;"/><line style="stroke:#181818;stroke-width:1.0;" x1="342" x2="342" y1="225.1982" y2="542.1904"/><line style="stroke:#181818;stroke-width:1.0;" x1="342" x2="470" y1="225.1982" y2="225.1982"/><polygon fill="#181818" points="460,221.1982,470,225.1982,460,229.1982,464,225.1982" style="stroke:#181818;stroke-width:1.0;"/><line style="stroke:#181818;stroke-width:1.0;" x1="482" x2="482" y1="510.1904" y2="530.1904"/><polygon fill="#181818" points="478,520.1904,482,530.1904,486,520.1904,482,524.1904" style="stroke:#181818;stroke-width:1.0;"/><line style="stroke:#181818;stroke-width:1.0;" x1="482" x2="482" y1="554.1904" y2="595.5894"/><polygon fill="#181818" points="478,585.5894,482,595.5894,486,585.5894,482,589.5894" style="stroke:#181818;stroke-width:1.0;"/><text fill="#000000" font-family="sans-serif" font-size="11" lengthAdjust="spacing" textLength="14" x="486" y="575.4951">no</text><line style="stroke:#181818;stroke-width:1.0;" x1="482" x2="482" y1="291.167" y2="296.167"/><line style="stroke:#181818;stroke-width:1.0;" x1="482" x2="746" y1="296.167" y2="296.167"/><line style="stroke:#181818;stroke-width:1.0;" x1="746" x2="746" y1="296.167" y2="311.167"/><polygon fill="#181818" points="742,301.167,746,311.167,750,301.167,746,305.167" style="stroke:#181818;stroke-width:1.0;"/><line style="stroke:#181818;stroke-width:1.0;" x1="746" x2="746" y1="345.1357" y2="353.2842"/><line style="stroke:#181818;stroke-width:1.0;" x1="746" x2="482" y1="353.2842" y2="353.2842"/><line style="stroke:#181818;stroke-width:1.0;" x1="482" x2="482" y1="353.2842" y2="368.2842"/><polygon fill="#181818" points="478,358.2842,482,368.2842,486,358.2842,482,362.2842" style="stroke:#181818;stroke-width:1.0;"/><line style="stroke:#181818;stroke-width:1.0;" x1="97" x2="97" y1="193.1982" y2="198.1982"/><line style="stroke:#181818;stroke-width:1.0;" x1="97" x2="482" y1="198.1982" y2="198.1982"/><line style="stroke:#181818;stroke-width:1.0;" x1="482" x2="482" y1="198.1982" y2="213.1982"/><polygon fill="#181818" points="478,203.1982,482,213.1982,486,203.1982,482,207.1982" style="stroke:#181818;stroke-width:1.0;"/><line style="stroke:#181818;stroke-width:1.0;" x1="482" x2="482" y1="629.5581" y2="634.5581"/><line style="stroke:#181818;stroke-width:1.0;" x1="482" x2="97" y1="634.5581" y2="634.5581"/><line style="stroke:#181818;stroke-width:1.0;" x1="97" x2="97" y1="634.5581" y2="649.5581"/><polygon fill="#181818" points="93,639.5581,97,649.5581,101,639.5581,97,643.5581" style="stroke:#181818;stroke-width:1.0;"/><text fill="#000000" font-family="sans-serif" font-size="18" lengthAdjust="spacing" textLength="44" x="147" y="29.4531">Main</text><text fill="#000000" font-family="sans-serif" font-size="18" lengthAdjust="spacing" textLength="92" x="421.5" y="29.4531">AMTagger</text><text fill="#000000" font-family="sans-serif" font-size="18" lengthAdjust="spacing" textLength="132" x="735.5" y="29.4531">tag_generator</text><!--SRC=[RP9FJyCm3CNl-HIviI6stZC1GaZSTkE6q1HIBusMEiLn1fFwuKcpTcX_UgXYDp-_vwVUDSnTL5NLUOsSMhyqeQsqORTtV5ZKJblIxU8BM0lHhxN3NaJMn4Az1enCoR1yMRzhQu5cyvN0m239sOQ5p8zEjGiFvHZPjScxZKC6sciVItTBy9q0pQ5KhEt60W9f3YG0QpdC4q9D4aj3e1a69K7GvNFX-kbxNqfbWIN2Bu-YASf9DNC5E5CwKQM6mOOCssjOUa3BpQfSlzYqhEWGyikYzjMfQRmpkx5RclzhtR9U4jkO9k5EFXxp-xWoydcqeDfG9vyTr-V0MDqFYumt7KOWbfT07XYEp6hCK_uqpiFiTdhFS-cYd1qWpiNY2JEa23WHJZEcVqIz9U86I7OK3CGSJ3OIENH_]--></g></svg>