<?xml version="1.0" encoding="us-ascii" standalone="no"?><svg xmlns="http://www.w3.org/2000/svg" xmlns:xlink="http://www.w3.org/1999/xlink" contentStyleType="text/css" height="898px" preserveAspectRatio="none" style="width:3101px;height:898px;background:#FFFFFF;" version="1.1" viewBox="0 0 3101 898" width="3101px" zoomAndPan="magnify"><defs/><g><!--cluster auditory_tagging--><g id="cluster_auditory_tagging"><path d="M8.5,151 L148.5,151 A3.75,3.75 0 0 1 151,153.5 L158,173.2969 L3091.5,173.2969 A2.5,2.5 0 0 1 3094,175.7969 L3094,888.5 A2.5,2.5 0 0 1 3091.5,891 L8.5,891 A2.5,2.5 0 0 1 6,888.5 L6,153.5 A2.5,2.5 0 0 1 8.5,151 " fill="none" style="stroke:#000000;stroke-width:1.5;"/><line style="stroke:#000000;stroke-width:1.5;" x1="6" x2="158" y1="173.2969" y2="173.2969"/><text fill="#000000" font-family="sans-serif" font-size="14" font-weight="bold" lengthAdjust="spacing" textLength="139" x="10" y="165.9951">auditory_tagging</text></g><!--cluster assr_tagger--><g id="cluster_assr_tagger"><path d="M1247.5,330 L1344.5,330 A3.75,3.75 0 0 1 1347,332.5 L1354,352.2969 L3067.5,352.2969 A2.5,2.5 0 0 1 3070,354.7969 L3070,755.5 A2.5,2.5 0 0 1 3067.5,758 L1247.5,758 A2.5,2.5 0 0 1 1245,755.5 L1245,332.5 A2.5,2.5 0 0 1 1247.5,330 " fill="none" style="stroke:#000000;stroke-width:1.5;"/><line style="stroke:#000000;stroke-width:1.5;" x1="1245" x2="1354" y1="352.2969" y2="352.2969"/><text fill="#000000" font-family="sans-serif" font-size="14" font-weight="bold" lengthAdjust="spacing" textLength="96" x="1249" y="344.9951">assr_tagger</text></g><!--class AAuditoryTagger--><g id="elem_AAuditoryTagger"><rect codeLine="7" fill="#F1F1F1" height="96.8906" id="AAuditoryTagger" rx="2.5" ry="2.5" style="stroke:#181818;stroke-width:0.5;" width="273" x="1130.5" y="186"/><ellipse cx="1202.25" cy="202" fill="#A9DCDF" rx="11" ry="11" style="stroke:#181818;stroke-width:1.0;"/><path d="M1204.3281,203.8125 L1204.7188,204.7969 L1204.3281,204.7969 C1203.875,204.7969 1203.7656,204.8125 1203.6094,204.9219 C1203.3594,205.0781 1203.2031,205.3594 1203.2031,205.6563 C1203.2031,205.9219 1203.3438,206.1719 1203.5625,206.3281 C1203.7031,206.4531 1203.9063,206.5 1204.3281,206.5 L1206.6875,206.5 C1207.0469,206.5 1207.2656,206.4688 1207.4063,206.375 C1207.6563,206.2344 1207.8125,205.9375 1207.8125,205.6563 C1207.8125,205.375 1207.6719,205.125 1207.4531,204.9688 C1207.2813,204.8281 1207.125,204.7969 1206.6563,204.7969 L1203.2656,196.5938 L1199.5938,196.5938 C1199.1406,196.5938 1199.0156,196.6094 1198.8594,196.7031 C1198.6094,196.875 1198.4531,197.1563 1198.4531,197.4375 C1198.4531,197.7188 1198.5938,197.9688 1198.8125,198.1406 C1198.9844,198.25 1199.1563,198.2813 1199.5938,198.2813 L1200.6719,198.2813 L1198.0313,204.7969 C1197.6094,204.7969 1197.4531,204.8125 1197.2969,204.9219 C1197.0469,205.0781 1196.8906,205.3594 1196.8906,205.6563 C1196.8906,206.2188 1197.2656,206.5 1198.0156,206.5 L1200.2813,206.5 C1200.6406,206.5 1200.8594,206.4688 1200.9844,206.375 C1201.25,206.2344 1201.3906,205.9375 1201.3906,205.6563 C1201.3906,205.375 1201.2656,205.125 1201.0469,204.9531 C1200.875,204.8281 1200.7344,204.7969 1200.2813,204.7969 L1199.8906,204.7969 L1200.2813,203.8125 L1204.3281,203.8125 Z M1203.625,202.1094 L1200.9531,202.1094 L1202.2969,198.8438 L1203.625,202.1094 Z " fill="#000000"/><text fill="#000000" font-family="sans-serif" font-size="14" font-style="italic" lengthAdjust="spacing" textLength="121" x="1222.75" y="206.8467">AAuditoryTagger</text><line style="stroke:#181818;stroke-width:0.5;" x1="1131.5" x2="1402.5" y1="218" y2="218"/><polygon fill="none" points="1141.5,226.6484,1145.5,230.6484,1141.5,234.6484,1137.5,230.6484" style="stroke:#B38D22;stroke-width:1.0;"/><text fill="#000000" font-family="sans-serif" font-size="14" lengthAdjust="spacing" textLength="247" x="1150.5" y="234.9951">list[ [float, float] ] stimuli_intervals</text><line style="stroke:#181818;stroke-width:0.5;" x1="1131.5" x2="1402.5" y1="242.2969" y2="242.2969"/><ellipse cx="1141.5" cy="255.9453" fill="#84BE84" rx="3" ry="3" style="stroke:#038048;stroke-width:1.0;"/><text fill="#000000" font-family="sans-serif" font-size="14" lengthAdjust="spacing" textLength="225" x="1150.5" y="259.292">AAuditoryTagger(audio, stimuli)</text><ellipse cx="1141.5" cy="272.2422" fill="#84BE84" rx="3" ry="3" style="stroke:#038048;stroke-width:1.0;"/><text fill="#000000" font-family="sans-serif" font-size="14" font-style="italic" lengthAdjust="spacing" textLength="101" x="1150.5" y="275.5889">Audio create()</text></g><!--class AAudioTaggerFactory--><g id="elem_AAudioTaggerFactory"><rect codeLine="17" fill="#F1F1F1" height="64.2969" id="AAudioTaggerFactory" rx="2.5" ry="2.5" style="stroke:#181818;stroke-width:0.5;" width="693" x="928.5" y="811"/><ellipse cx="1193.25" cy="827" fill="#A9DCDF" rx="11" ry="11" style="stroke:#181818;stroke-width:1.0;"/><path d="M1195.3281,828.8125 L1195.7188,829.7969 L1195.3281,829.7969 C1194.875,829.7969 1194.7656,829.8125 1194.6094,829.9219 C1194.3594,830.0781 1194.2031,830.3594 1194.2031,830.6563 C1194.2031,830.9219 1194.3438,831.1719 1194.5625,831.3281 C1194.7031,831.4531 1194.9063,831.5 1195.3281,831.5 L1197.6875,831.5 C1198.0469,831.5 1198.2656,831.4688 1198.4063,831.375 C1198.6563,831.2344 1198.8125,830.9375 1198.8125,830.6563 C1198.8125,830.375 1198.6719,830.125 1198.4531,829.9688 C1198.2813,829.8281 1198.125,829.7969 1197.6563,829.7969 L1194.2656,821.5938 L1190.5938,821.5938 C1190.1406,821.5938 1190.0156,821.6094 1189.8594,821.7031 C1189.6094,821.875 1189.4531,822.1563 1189.4531,822.4375 C1189.4531,822.7188 1189.5938,822.9688 1189.8125,823.1406 C1189.9844,823.25 1190.1563,823.2813 1190.5938,823.2813 L1191.6719,823.2813 L1189.0313,829.7969 C1188.6094,829.7969 1188.4531,829.8125 1188.2969,829.9219 C1188.0469,830.0781 1187.8906,830.3594 1187.8906,830.6563 C1187.8906,831.2188 1188.2656,831.5 1189.0156,831.5 L1191.2813,831.5 C1191.6406,831.5 1191.8594,831.4688 1191.9844,831.375 C1192.25,831.2344 1192.3906,830.9375 1192.3906,830.6563 C1192.3906,830.375 1192.2656,830.125 1192.0469,829.9531 C1191.875,829.8281 1191.7344,829.7969 1191.2813,829.7969 L1190.8906,829.7969 L1191.2813,828.8125 L1195.3281,828.8125 Z M1194.625,827.1094 L1191.9531,827.1094 L1193.2969,823.8438 L1194.625,827.1094 Z " fill="#000000"/><text fill="#000000" font-family="sans-serif" font-size="14" font-style="italic" lengthAdjust="spacing" textLength="155" x="1213.75" y="831.8467">AAudioTaggerFactory</text><line style="stroke:#181818;stroke-width:0.5;" x1="929.5" x2="1620.5" y1="843" y2="843"/><line style="stroke:#181818;stroke-width:0.5;" x1="929.5" x2="1620.5" y1="851" y2="851"/><ellipse cx="939.5" cy="864.6484" fill="#84BE84" rx="3" ry="3" style="stroke:#038048;stroke-width:1.0;"/><text fill="#000000" font-family="sans-serif" font-size="14" font-style="italic" lengthAdjust="spacing" textLength="667" x="948.5" y="867.9951">AAudioTagger create_auditory_stimulus(audio: Audio, stimuli_intervals: List[Tuple[float, float])</text></g><!--class NoiseTaggingTagger--><g id="elem_NoiseTaggingTagger"><rect codeLine="72" fill="#F1F1F1" height="178.375" id="NoiseTaggingTagger" rx="2.5" ry="2.5" style="stroke:#181818;stroke-width:0.5;" width="625" x="22.5" y="373.5"/><ellipse cx="257.75" cy="389.5" fill="#ADD1B2" rx="11" ry="11" style="stroke:#181818;stroke-width:1.0;"/><path d="M260.0938,385.1719 C259.1563,384.7344 258.5625,384.5938 257.6875,384.5938 C255.0625,384.5938 253.0625,386.6719 253.0625,389.3906 L253.0625,390.5156 C253.0625,393.0938 255.1719,394.9844 258.0625,394.9844 C259.2813,394.9844 260.4375,394.6875 261.1875,394.1406 C261.7656,393.7344 262.0938,393.2813 262.0938,392.8906 C262.0938,392.4375 261.7031,392.0469 261.2344,392.0469 C261.0156,392.0469 260.8125,392.125 260.625,392.3125 C260.1719,392.7969 260.1719,392.7969 259.9844,392.8906 C259.5625,393.1563 258.875,393.2813 258.1094,393.2813 C256.0625,393.2813 254.7656,392.1875 254.7656,390.4844 L254.7656,389.3906 C254.7656,387.6094 256.0156,386.2969 257.75,386.2969 C258.3281,386.2969 258.9375,386.4531 259.4063,386.7031 C259.8906,386.9844 260.0625,387.2031 260.1563,387.6094 C260.2188,388.0156 260.25,388.1406 260.3906,388.2656 C260.5313,388.4063 260.7656,388.5156 260.9844,388.5156 C261.25,388.5156 261.5156,388.375 261.6875,388.1563 C261.7969,388 261.8281,387.8125 261.8281,387.3906 L261.8281,385.9688 C261.8281,385.5313 261.8125,385.4063 261.7188,385.25 C261.5625,384.9844 261.2813,384.8438 260.9844,384.8438 C260.6875,384.8438 260.4844,384.9375 260.2656,385.25 L260.0938,385.1719 Z " fill="#000000"/><text fill="#000000" font-family="sans-serif" font-size="14" lengthAdjust="spacing" textLength="146" x="278.25" y="394.3467">NoiseTaggingTagger</text><line style="stroke:#181818;stroke-width:0.5;" x1="23.5" x2="646.5" y1="405.5" y2="405.5"/><rect fill="none" height="6" style="stroke:#C82930;stroke-width:1.0;" width="6" x="30.5" y="416.1484"/><text fill="#000000" font-family="sans-serif" font-size="14" lengthAdjust="spacing" textLength="130" x="42.5" y="422.4951">Optional[int] seed</text><rect fill="none" height="6" style="stroke:#C82930;stroke-width:1.0;" width="6" x="30.5" y="432.4453"/><text fill="#000000" font-family="sans-serif" font-size="14" lengthAdjust="spacing" textLength="92" x="42.5" y="438.792">int bit_width</text><rect fill="none" height="6" style="stroke:#C82930;stroke-width:1.0;" width="6" x="30.5" y="448.7422"/><text fill="#000000" font-family="sans-serif" font-size="14" lengthAdjust="spacing" textLength="99" x="42.5" y="455.0889">int length_bit</text><ellipse cx="33.5" cy="468.0391" fill="none" rx="3" ry="3" style="stroke:#038048;stroke-width:1.0;"/><text fill="#000000" font-family="sans-serif" font-size="14" lengthAdjust="spacing" textLength="148" x="42.5" y="471.3857">Optional[Code] code</text><line style="stroke:#181818;stroke-width:0.5;" x1="23.5" x2="646.5" y1="478.6875" y2="478.6875"/><ellipse cx="33.5" cy="492.3359" fill="#84BE84" rx="3" ry="3" style="stroke:#038048;stroke-width:1.0;"/><text fill="#000000" font-family="sans-serif" font-size="14" lengthAdjust="spacing" textLength="599" x="42.5" y="495.6826">NoiseTaggingTagger(audio, stimuli_intervals, bits_per_second: int, length_bit, seed)</text><ellipse cx="33.5" cy="508.6328" fill="#84BE84" rx="3" ry="3" style="stroke:#038048;stroke-width:1.0;"/><text fill="#000000" font-family="sans-serif" font-size="14" lengthAdjust="spacing" textLength="101" x="42.5" y="511.9795">Audio create()</text><rect fill="#F24D5C" height="6" style="stroke:#C82930;stroke-width:1.0;" width="6" x="30.5" y="521.9297"/><text fill="#000000" font-family="sans-serif" font-size="14" lengthAdjust="spacing" textLength="166" x="42.5" y="528.2764">void __generate_code()</text><rect fill="#F24D5C" height="6" style="stroke:#C82930;stroke-width:1.0;" width="6" x="30.5" y="538.2266"/><text fill="#000000" font-family="sans-serif" font-size="14" lengthAdjust="spacing" textLength="201" x="42.5" y="544.5732">void __get_code(length: int)</text></g><!--class NoiseTaggingTaggerFactory--><g id="elem_NoiseTaggingTaggerFactory"><rect codeLine="84" fill="#F1F1F1" height="113.1875" id="NoiseTaggingTaggerFactory" rx="2.5" ry="2.5" style="stroke:#181818;stroke-width:0.5;" width="479" x="182.5" y="637"/><ellipse cx="317.75" cy="653" fill="#ADD1B2" rx="11" ry="11" style="stroke:#181818;stroke-width:1.0;"/><path d="M320.0938,648.6719 C319.1563,648.2344 318.5625,648.0938 317.6875,648.0938 C315.0625,648.0938 313.0625,650.1719 313.0625,652.8906 L313.0625,654.0156 C313.0625,656.5938 315.1719,658.4844 318.0625,658.4844 C319.2813,658.4844 320.4375,658.1875 321.1875,657.6406 C321.7656,657.2344 322.0938,656.7813 322.0938,656.3906 C322.0938,655.9375 321.7031,655.5469 321.2344,655.5469 C321.0156,655.5469 320.8125,655.625 320.625,655.8125 C320.1719,656.2969 320.1719,656.2969 319.9844,656.3906 C319.5625,656.6563 318.875,656.7813 318.1094,656.7813 C316.0625,656.7813 314.7656,655.6875 314.7656,653.9844 L314.7656,652.8906 C314.7656,651.1094 316.0156,649.7969 317.75,649.7969 C318.3281,649.7969 318.9375,649.9531 319.4063,650.2031 C319.8906,650.4844 320.0625,650.7031 320.1563,651.1094 C320.2188,651.5156 320.25,651.6406 320.3906,651.7656 C320.5313,651.9063 320.7656,652.0156 320.9844,652.0156 C321.25,652.0156 321.5156,651.875 321.6875,651.6563 C321.7969,651.5 321.8281,651.3125 321.8281,650.8906 L321.8281,649.4688 C321.8281,649.0313 321.8125,648.9063 321.7188,648.75 C321.5625,648.4844 321.2813,648.3438 320.9844,648.3438 C320.6875,648.3438 320.4844,648.4375 320.2656,648.75 L320.0938,648.6719 Z " fill="#000000"/><text fill="#000000" font-family="sans-serif" font-size="14" lengthAdjust="spacing" textLength="200" x="338.25" y="657.8467">NoiseTaggingTaggerFactory</text><line style="stroke:#181818;stroke-width:0.5;" x1="183.5" x2="660.5" y1="669" y2="669"/><rect fill="none" height="6" style="stroke:#C82930;stroke-width:1.0;" width="6" x="190.5" y="679.6484"/><text fill="#000000" font-family="sans-serif" font-size="14" lengthAdjust="spacing" textLength="142" x="202.5" y="685.9951">int bits_per_second</text><rect fill="none" height="6" style="stroke:#C82930;stroke-width:1.0;" width="6" x="190.5" y="695.9453"/><text fill="#000000" font-family="sans-serif" font-size="14" lengthAdjust="spacing" textLength="99" x="202.5" y="702.292">int length_bit</text><rect fill="none" height="6" style="stroke:#C82930;stroke-width:1.0;" width="6" x="190.5" y="712.2422"/><text fill="#000000" font-family="sans-serif" font-size="14" lengthAdjust="spacing" textLength="130" x="202.5" y="718.5889">Optional[int] seed</text><line style="stroke:#181818;stroke-width:0.5;" x1="183.5" x2="660.5" y1="725.8906" y2="725.8906"/><ellipse cx="193.5" cy="739.5391" fill="#84BE84" rx="3" ry="3" style="stroke:#038048;stroke-width:1.0;"/><text fill="#000000" font-family="sans-serif" font-size="14" lengthAdjust="spacing" textLength="453" x="202.5" y="742.8857">NoiseTaggingTaggerFactory(bits_per_second, length_bit, seed)</text></g><!--class RawTagger--><g id="elem_RawTagger"><rect codeLine="92" fill="#F1F1F1" height="64.2969" id="RawTagger" rx="2.5" ry="2.5" style="stroke:#181818;stroke-width:0.5;" width="127" x="682.5" y="430.5"/><ellipse cx="704.7" cy="446.5" fill="#ADD1B2" rx="11" ry="11" style="stroke:#181818;stroke-width:1.0;"/><path d="M707.0438,442.1719 C706.1063,441.7344 705.5125,441.5938 704.6375,441.5938 C702.0125,441.5938 700.0125,443.6719 700.0125,446.3906 L700.0125,447.5156 C700.0125,450.0938 702.1219,451.9844 705.0125,451.9844 C706.2313,451.9844 707.3875,451.6875 708.1375,451.1406 C708.7156,450.7344 709.0438,450.2813 709.0438,449.8906 C709.0438,449.4375 708.6531,449.0469 708.1844,449.0469 C707.9656,449.0469 707.7625,449.125 707.575,449.3125 C707.1219,449.7969 707.1219,449.7969 706.9344,449.8906 C706.5125,450.1563 705.825,450.2813 705.0594,450.2813 C703.0125,450.2813 701.7156,449.1875 701.7156,447.4844 L701.7156,446.3906 C701.7156,444.6094 702.9656,443.2969 704.7,443.2969 C705.2781,443.2969 705.8875,443.4531 706.3563,443.7031 C706.8406,443.9844 707.0125,444.2031 707.1063,444.6094 C707.1688,445.0156 707.2,445.1406 707.3406,445.2656 C707.4813,445.4063 707.7156,445.5156 707.9344,445.5156 C708.2,445.5156 708.4656,445.375 708.6375,445.1563 C708.7469,445 708.7781,444.8125 708.7781,444.3906 L708.7781,442.9688 C708.7781,442.5313 708.7625,442.4063 708.6688,442.25 C708.5125,441.9844 708.2313,441.8438 707.9344,441.8438 C707.6375,441.8438 707.4344,441.9375 707.2156,442.25 L707.0438,442.1719 Z " fill="#000000"/><text fill="#000000" font-family="sans-serif" font-size="14" lengthAdjust="spacing" textLength="79" x="720.3" y="451.3467">RawTagger</text><line style="stroke:#181818;stroke-width:0.5;" x1="683.5" x2="808.5" y1="462.5" y2="462.5"/><line style="stroke:#181818;stroke-width:0.5;" x1="683.5" x2="808.5" y1="470.5" y2="470.5"/><ellipse cx="693.5" cy="484.1484" fill="#84BE84" rx="3" ry="3" style="stroke:#038048;stroke-width:1.0;"/><text fill="#000000" font-family="sans-serif" font-size="14" lengthAdjust="spacing" textLength="101" x="702.5" y="487.4951">Audio create()</text></g><!--class RawTaggerFactory--><g id="elem_RawTaggerFactory"><rect codeLine="96" fill="#F1F1F1" height="48" id="RawTaggerFactory" rx="2.5" ry="2.5" style="stroke:#181818;stroke-width:0.5;" width="165" x="731.5" y="669.5"/><ellipse cx="746.5" cy="685.5" fill="#ADD1B2" rx="11" ry="11" style="stroke:#181818;stroke-width:1.0;"/><path d="M748.8438,681.1719 C747.9063,680.7344 747.3125,680.5938 746.4375,680.5938 C743.8125,680.5938 741.8125,682.6719 741.8125,685.3906 L741.8125,686.5156 C741.8125,689.0938 743.9219,690.9844 746.8125,690.9844 C748.0313,690.9844 749.1875,690.6875 749.9375,690.1406 C750.5156,689.7344 750.8438,689.2813 750.8438,688.8906 C750.8438,688.4375 750.4531,688.0469 749.9844,688.0469 C749.7656,688.0469 749.5625,688.125 749.375,688.3125 C748.9219,688.7969 748.9219,688.7969 748.7344,688.8906 C748.3125,689.1563 747.625,689.2813 746.8594,689.2813 C744.8125,689.2813 743.5156,688.1875 743.5156,686.4844 L743.5156,685.3906 C743.5156,683.6094 744.7656,682.2969 746.5,682.2969 C747.0781,682.2969 747.6875,682.4531 748.1563,682.7031 C748.6406,682.9844 748.8125,683.2031 748.9063,683.6094 C748.9688,684.0156 749,684.1406 749.1406,684.2656 C749.2813,684.4063 749.5156,684.5156 749.7344,684.5156 C750,684.5156 750.2656,684.375 750.4375,684.1563 C750.5469,684 750.5781,683.8125 750.5781,683.3906 L750.5781,681.9688 C750.5781,681.5313 750.5625,681.4063 750.4688,681.25 C750.3125,680.9844 750.0313,680.8438 749.7344,680.8438 C749.4375,680.8438 749.2344,680.9375 749.0156,681.25 L748.8438,681.1719 Z " fill="#000000"/><text fill="#000000" font-family="sans-serif" font-size="14" lengthAdjust="spacing" textLength="133" x="760.5" y="690.3467">RawTaggerFactory</text><line style="stroke:#181818;stroke-width:0.5;" x1="732.5" x2="895.5" y1="701.5" y2="701.5"/><line style="stroke:#181818;stroke-width:0.5;" x1="732.5" x2="895.5" y1="709.5" y2="709.5"/></g><!--class ShiftSumTagger--><g id="elem_ShiftSumTagger"><rect codeLine="99" fill="#F1F1F1" height="96.8906" id="ShiftSumTagger" rx="2.5" ry="2.5" style="stroke:#181818;stroke-width:0.5;" width="381" x="844.5" y="414"/><ellipse cx="972.75" cy="430" fill="#ADD1B2" rx="11" ry="11" style="stroke:#181818;stroke-width:1.0;"/><path d="M975.0938,425.6719 C974.1563,425.2344 973.5625,425.0938 972.6875,425.0938 C970.0625,425.0938 968.0625,427.1719 968.0625,429.8906 L968.0625,431.0156 C968.0625,433.5938 970.1719,435.4844 973.0625,435.4844 C974.2813,435.4844 975.4375,435.1875 976.1875,434.6406 C976.7656,434.2344 977.0938,433.7813 977.0938,433.3906 C977.0938,432.9375 976.7031,432.5469 976.2344,432.5469 C976.0156,432.5469 975.8125,432.625 975.625,432.8125 C975.1719,433.2969 975.1719,433.2969 974.9844,433.3906 C974.5625,433.6563 973.875,433.7813 973.1094,433.7813 C971.0625,433.7813 969.7656,432.6875 969.7656,430.9844 L969.7656,429.8906 C969.7656,428.1094 971.0156,426.7969 972.75,426.7969 C973.3281,426.7969 973.9375,426.9531 974.4063,427.2031 C974.8906,427.4844 975.0625,427.7031 975.1563,428.1094 C975.2188,428.5156 975.25,428.6406 975.3906,428.7656 C975.5313,428.9063 975.7656,429.0156 975.9844,429.0156 C976.25,429.0156 976.5156,428.875 976.6875,428.6563 C976.7969,428.5 976.8281,428.3125 976.8281,427.8906 L976.8281,426.4688 C976.8281,426.0313 976.8125,425.9063 976.7188,425.75 C976.5625,425.4844 976.2813,425.3438 975.9844,425.3438 C975.6875,425.3438 975.4844,425.4375 975.2656,425.75 L975.0938,425.6719 Z " fill="#000000"/><text fill="#000000" font-family="sans-serif" font-size="14" lengthAdjust="spacing" textLength="116" x="993.25" y="434.8467">ShiftSumTagger</text><line style="stroke:#181818;stroke-width:0.5;" x1="845.5" x2="1224.5" y1="446" y2="446"/><rect fill="none" height="6" style="stroke:#C82930;stroke-width:1.0;" width="6" x="852.5" y="456.6484"/><text fill="#000000" font-family="sans-serif" font-size="14" lengthAdjust="spacing" textLength="82" x="864.5" y="462.9951">int shift_by</text><line style="stroke:#181818;stroke-width:0.5;" x1="845.5" x2="1224.5" y1="470.2969" y2="470.2969"/><ellipse cx="855.5" cy="483.9453" fill="#84BE84" rx="3" ry="3" style="stroke:#038048;stroke-width:1.0;"/><text fill="#000000" font-family="sans-serif" font-size="14" lengthAdjust="spacing" textLength="355" x="864.5" y="487.292">ShiftSumTagger(audio, stimuli_intervals, shift_by)</text><ellipse cx="855.5" cy="500.2422" fill="#84BE84" rx="3" ry="3" style="stroke:#038048;stroke-width:1.0;"/><text fill="#000000" font-family="sans-serif" font-size="14" lengthAdjust="spacing" textLength="101" x="864.5" y="503.5889">Audio create()</text></g><!--class ShiftSumTaggerFactory--><g id="elem_ShiftSumTaggerFactory"><rect codeLine="106" fill="#F1F1F1" height="80.5938" id="ShiftSumTaggerFactory" rx="2.5" ry="2.5" style="stroke:#181818;stroke-width:0.5;" width="264" x="949" y="653"/><ellipse cx="991.9" cy="669" fill="#ADD1B2" rx="11" ry="11" style="stroke:#181818;stroke-width:1.0;"/><path d="M994.2438,664.6719 C993.3063,664.2344 992.7125,664.0938 991.8375,664.0938 C989.2125,664.0938 987.2125,666.1719 987.2125,668.8906 L987.2125,670.0156 C987.2125,672.5938 989.3219,674.4844 992.2125,674.4844 C993.4313,674.4844 994.5875,674.1875 995.3375,673.6406 C995.9156,673.2344 996.2438,672.7813 996.2438,672.3906 C996.2438,671.9375 995.8531,671.5469 995.3844,671.5469 C995.1656,671.5469 994.9625,671.625 994.775,671.8125 C994.3219,672.2969 994.3219,672.2969 994.1344,672.3906 C993.7125,672.6563 993.025,672.7813 992.2594,672.7813 C990.2125,672.7813 988.9156,671.6875 988.9156,669.9844 L988.9156,668.8906 C988.9156,667.1094 990.1656,665.7969 991.9,665.7969 C992.4781,665.7969 993.0875,665.9531 993.5563,666.2031 C994.0406,666.4844 994.2125,666.7031 994.3063,667.1094 C994.3688,667.5156 994.4,667.6406 994.5406,667.7656 C994.6813,667.9063 994.9156,668.0156 995.1344,668.0156 C995.4,668.0156 995.6656,667.875 995.8375,667.6563 C995.9469,667.5 995.9781,667.3125 995.9781,666.8906 L995.9781,665.4688 C995.9781,665.0313 995.9625,664.9063 995.8688,664.75 C995.7125,664.4844 995.4313,664.3438 995.1344,664.3438 C994.8375,664.3438 994.6344,664.4375 994.4156,664.75 L994.2438,664.6719 Z " fill="#000000"/><text fill="#000000" font-family="sans-serif" font-size="14" lengthAdjust="spacing" textLength="170" x="1012.1" y="673.8467">ShiftSumTaggerFactory</text><line style="stroke:#181818;stroke-width:0.5;" x1="950" x2="1212" y1="685" y2="685"/><rect fill="none" height="6" style="stroke:#C82930;stroke-width:1.0;" width="6" x="957" y="695.6484"/><text fill="#000000" font-family="sans-serif" font-size="14" lengthAdjust="spacing" textLength="82" x="969" y="701.9951">int shift_by</text><line style="stroke:#181818;stroke-width:0.5;" x1="950" x2="1212" y1="709.2969" y2="709.2969"/><ellipse cx="960" cy="722.9453" fill="#84BE84" rx="3" ry="3" style="stroke:#038048;stroke-width:1.0;"/><text fill="#000000" font-family="sans-serif" font-size="14" lengthAdjust="spacing" textLength="238" x="969" y="726.292">ShiftSumTaggerFactory(shift_by)</text></g><!--class AMTagger--><g id="elem_AMTagger"><rect codeLine="22" fill="#F1F1F1" height="113.1875" id="AMTagger" rx="2.5" ry="2.5" style="stroke:#181818;stroke-width:0.5;" width="478" x="1261" y="406"/><ellipse cx="1459.75" cy="422" fill="#ADD1B2" rx="11" ry="11" style="stroke:#181818;stroke-width:1.0;"/><path d="M1462.0938,417.6719 C1461.1563,417.2344 1460.5625,417.0938 1459.6875,417.0938 C1457.0625,417.0938 1455.0625,419.1719 1455.0625,421.8906 L1455.0625,423.0156 C1455.0625,425.5938 1457.1719,427.4844 1460.0625,427.4844 C1461.2813,427.4844 1462.4375,427.1875 1463.1875,426.6406 C1463.7656,426.2344 1464.0938,425.7813 1464.0938,425.3906 C1464.0938,424.9375 1463.7031,424.5469 1463.2344,424.5469 C1463.0156,424.5469 1462.8125,424.625 1462.625,424.8125 C1462.1719,425.2969 1462.1719,425.2969 1461.9844,425.3906 C1461.5625,425.6563 1460.875,425.7813 1460.1094,425.7813 C1458.0625,425.7813 1456.7656,424.6875 1456.7656,422.9844 L1456.7656,421.8906 C1456.7656,420.1094 1458.0156,418.7969 1459.75,418.7969 C1460.3281,418.7969 1460.9375,418.9531 1461.4063,419.2031 C1461.8906,419.4844 1462.0625,419.7031 1462.1563,420.1094 C1462.2188,420.5156 1462.25,420.6406 1462.3906,420.7656 C1462.5313,420.9063 1462.7656,421.0156 1462.9844,421.0156 C1463.25,421.0156 1463.5156,420.875 1463.6875,420.6563 C1463.7969,420.5 1463.8281,420.3125 1463.8281,419.8906 L1463.8281,418.4688 C1463.8281,418.0313 1463.8125,417.9063 1463.7188,417.75 C1463.5625,417.4844 1463.2813,417.3438 1462.9844,417.3438 C1462.6875,417.3438 1462.4844,417.4375 1462.2656,417.75 L1462.0938,417.6719 Z " fill="#000000"/><text fill="#000000" font-family="sans-serif" font-size="14" lengthAdjust="spacing" textLength="72" x="1480.25" y="426.8467">AMTagger</text><line style="stroke:#181818;stroke-width:0.5;" x1="1262" x2="1738" y1="438" y2="438"/><rect fill="none" height="6" style="stroke:#C82930;stroke-width:1.0;" width="6" x="1269" y="448.6484"/><text fill="#000000" font-family="sans-serif" font-size="14" lengthAdjust="spacing" textLength="96" x="1281" y="454.9951">int frequency</text><rect fill="none" height="6" style="stroke:#C82930;stroke-width:1.0;" width="6" x="1269" y="464.9453"/><text fill="#000000" font-family="sans-serif" font-size="14" lengthAdjust="spacing" textLength="366" x="1281" y="471.292">Callable[[int, int, int], NDArray[float] tag_generator</text><line style="stroke:#181818;stroke-width:0.5;" x1="1262" x2="1738" y1="478.5938" y2="478.5938"/><ellipse cx="1272" cy="492.2422" fill="#84BE84" rx="3" ry="3" style="stroke:#038048;stroke-width:1.0;"/><text fill="#000000" font-family="sans-serif" font-size="14" lengthAdjust="spacing" textLength="452" x="1281" y="495.5889">ASSRTagger(audio, stimuli_intervals, frequency, tag_generator)</text><ellipse cx="1272" cy="508.5391" fill="#84BE84" rx="3" ry="3" style="stroke:#038048;stroke-width:1.0;"/><text fill="#000000" font-family="sans-serif" font-size="14" lengthAdjust="spacing" textLength="101" x="1281" y="511.8857">Audio create()</text></g><!--class FMTagger--><g id="elem_FMTagger"><rect codeLine="30" fill="#F1F1F1" height="194.6719" id="FMTagger" rx="2.5" ry="2.5" style="stroke:#181818;stroke-width:0.5;" width="841" x="1774.5" y="365"/><ellipse cx="2155.75" cy="381" fill="#ADD1B2" rx="11" ry="11" style="stroke:#181818;stroke-width:1.0;"/><path d="M2158.0938,376.6719 C2157.1563,376.2344 2156.5625,376.0938 2155.6875,376.0938 C2153.0625,376.0938 2151.0625,378.1719 2151.0625,380.8906 L2151.0625,382.0156 C2151.0625,384.5938 2153.1719,386.4844 2156.0625,386.4844 C2157.2813,386.4844 2158.4375,386.1875 2159.1875,385.6406 C2159.7656,385.2344 2160.0938,384.7813 2160.0938,384.3906 C2160.0938,383.9375 2159.7031,383.5469 2159.2344,383.5469 C2159.0156,383.5469 2158.8125,383.625 2158.625,383.8125 C2158.1719,384.2969 2158.1719,384.2969 2157.9844,384.3906 C2157.5625,384.6563 2156.875,384.7813 2156.1094,384.7813 C2154.0625,384.7813 2152.7656,383.6875 2152.7656,381.9844 L2152.7656,380.8906 C2152.7656,379.1094 2154.0156,377.7969 2155.75,377.7969 C2156.3281,377.7969 2156.9375,377.9531 2157.4063,378.2031 C2157.8906,378.4844 2158.0625,378.7031 2158.1563,379.1094 C2158.2188,379.5156 2158.25,379.6406 2158.3906,379.7656 C2158.5313,379.9063 2158.7656,380.0156 2158.9844,380.0156 C2159.25,380.0156 2159.5156,379.875 2159.6875,379.6563 C2159.7969,379.5 2159.8281,379.3125 2159.8281,378.8906 L2159.8281,377.4688 C2159.8281,377.0313 2159.8125,376.9063 2159.7188,376.75 C2159.5625,376.4844 2159.2813,376.3438 2158.9844,376.3438 C2158.6875,376.3438 2158.4844,376.4375 2158.2656,376.75 L2158.0938,376.6719 Z " fill="#000000"/><text fill="#000000" font-family="sans-serif" font-size="14" lengthAdjust="spacing" textLength="70" x="2176.25" y="385.8467">FMTagger</text><line style="stroke:#181818;stroke-width:0.5;" x1="1775.5" x2="2614.5" y1="397" y2="397"/><rect fill="none" height="6" style="stroke:#C82930;stroke-width:1.0;" width="6" x="1782.5" y="407.6484"/><text fill="#000000" font-family="sans-serif" font-size="14" lengthAdjust="spacing" textLength="96" x="1794.5" y="413.9951">int frequency</text><rect fill="none" height="6" style="stroke:#C82930;stroke-width:1.0;" width="6" x="1782.5" y="423.9453"/><text fill="#000000" font-family="sans-serif" font-size="14" lengthAdjust="spacing" textLength="170" x="1794.5" y="430.292">float modulation_factor</text><line style="stroke:#181818;stroke-width:0.5;" x1="1775.5" x2="2614.5" y1="437.5938" y2="437.5938"/><ellipse cx="1785.5" cy="451.2422" fill="#84BE84" rx="3" ry="3" style="stroke:#038048;stroke-width:1.0;"/><text fill="#000000" font-family="sans-serif" font-size="14" lengthAdjust="spacing" textLength="463" x="1794.5" y="454.5889">FMTagger(audio, stimuli_intervals, frequency, modulation_factor)</text><ellipse cx="1785.5" cy="467.5391" fill="#84BE84" rx="3" ry="3" style="stroke:#038048;stroke-width:1.0;"/><text fill="#000000" font-family="sans-serif" font-size="14" lengthAdjust="spacing" textLength="101" x="1794.5" y="470.8857">Audio create()</text><rect fill="#F24D5C" height="6" style="stroke:#C82930;stroke-width:1.0;" width="6" x="1782.5" y="480.8359"/><text fill="#000000" font-family="sans-serif" font-size="14" lengthAdjust="spacing" text-decoration="underline" textLength="634" x="1794.5" y="487.1826">(NDArray[Real], NDArray[Real]) extract_amplitudes_phases(numbers: NDArray[Complex])</text><rect fill="#F24D5C" height="6" style="stroke:#C82930;stroke-width:1.0;" width="6" x="1782.5" y="497.1328"/><text fill="#000000" font-family="sans-serif" font-size="14" lengthAdjust="spacing" text-decoration="underline" textLength="660" x="1794.5" y="503.4795">NDArray[Complex] get_complex_number(amplitudes: NDArray[Real], phases: NDArray[Real])</text><rect fill="#F24D5C" height="6" style="stroke:#C82930;stroke-width:1.0;" width="6" x="1782.5" y="513.4297"/><text fill="#000000" font-family="sans-serif" font-size="14" lengthAdjust="spacing" textLength="545" x="1794.5" y="519.7764">NDArray[Real] phases_to_instantaneous_frequencies(phases: NDArray[Real])</text><rect fill="#F24D5C" height="6" style="stroke:#C82930;stroke-width:1.0;" width="6" x="1782.5" y="529.7266"/><text fill="#000000" font-family="sans-serif" font-size="14" lengthAdjust="spacing" textLength="815" x="1794.5" y="536.0732">NDArray[Real] instantaneous_frequencies_to_phases(instantaneous_frequencies: NDArray[Real], first_phase: Real)</text><rect fill="#F24D5C" height="6" style="stroke:#C82930;stroke-width:1.0;" width="6" x="1782.5" y="546.0234"/><text fill="#000000" font-family="sans-serif" font-size="14" lengthAdjust="spacing" textLength="372" x="1794.5" y="552.3701">NDArray[float32] modulate(signal: NDArray[float32])</text></g><!--class FlippedFMTagger--><g id="elem_FlippedFMTagger"><rect codeLine="44" fill="#F1F1F1" height="96.8906" id="FlippedFMTagger" rx="2.5" ry="2.5" style="stroke:#181818;stroke-width:0.5;" width="403" x="2650.5" y="414"/><ellipse cx="2785.75" cy="430" fill="#ADD1B2" rx="11" ry="11" style="stroke:#181818;stroke-width:1.0;"/><path d="M2788.0938,425.6719 C2787.1563,425.2344 2786.5625,425.0938 2785.6875,425.0938 C2783.0625,425.0938 2781.0625,427.1719 2781.0625,429.8906 L2781.0625,431.0156 C2781.0625,433.5938 2783.1719,435.4844 2786.0625,435.4844 C2787.2813,435.4844 2788.4375,435.1875 2789.1875,434.6406 C2789.7656,434.2344 2790.0938,433.7813 2790.0938,433.3906 C2790.0938,432.9375 2789.7031,432.5469 2789.2344,432.5469 C2789.0156,432.5469 2788.8125,432.625 2788.625,432.8125 C2788.1719,433.2969 2788.1719,433.2969 2787.9844,433.3906 C2787.5625,433.6563 2786.875,433.7813 2786.1094,433.7813 C2784.0625,433.7813 2782.7656,432.6875 2782.7656,430.9844 L2782.7656,429.8906 C2782.7656,428.1094 2784.0156,426.7969 2785.75,426.7969 C2786.3281,426.7969 2786.9375,426.9531 2787.4063,427.2031 C2787.8906,427.4844 2788.0625,427.7031 2788.1563,428.1094 C2788.2188,428.5156 2788.25,428.6406 2788.3906,428.7656 C2788.5313,428.9063 2788.7656,429.0156 2788.9844,429.0156 C2789.25,429.0156 2789.5156,428.875 2789.6875,428.6563 C2789.7969,428.5 2789.8281,428.3125 2789.8281,427.8906 L2789.8281,426.4688 C2789.8281,426.0313 2789.8125,425.9063 2789.7188,425.75 C2789.5625,425.4844 2789.2813,425.3438 2788.9844,425.3438 C2788.6875,425.3438 2788.4844,425.4375 2788.2656,425.75 L2788.0938,425.6719 Z " fill="#000000"/><text fill="#000000" font-family="sans-serif" font-size="14" lengthAdjust="spacing" textLength="124" x="2806.25" y="434.8467">FlippedFMTagger</text><line style="stroke:#181818;stroke-width:0.5;" x1="2651.5" x2="3052.5" y1="446" y2="446"/><rect fill="none" height="6" style="stroke:#C82930;stroke-width:1.0;" width="6" x="2658.5" y="456.6484"/><text fill="#000000" font-family="sans-serif" font-size="14" lengthAdjust="spacing" textLength="96" x="2670.5" y="462.9951">int frequency</text><line style="stroke:#181818;stroke-width:0.5;" x1="2651.5" x2="3052.5" y1="470.2969" y2="470.2969"/><ellipse cx="2661.5" cy="483.9453" fill="#84BE84" rx="3" ry="3" style="stroke:#038048;stroke-width:1.0;"/><text fill="#000000" font-family="sans-serif" font-size="14" lengthAdjust="spacing" textLength="377" x="2670.5" y="487.292">FlippedFMTagger(audio, stimuli_intervals, frequency)</text><ellipse cx="2661.5" cy="500.2422" fill="#84BE84" rx="3" ry="3" style="stroke:#038048;stroke-width:1.0;"/><text fill="#000000" font-family="sans-serif" font-size="14" lengthAdjust="spacing" textLength="101" x="2670.5" y="503.5889">Audio create()</text></g><!--class AMTaggerFactory--><g id="elem_AMTaggerFactory"><rect codeLine="52" fill="#F1F1F1" height="96.8906" id="AMTaggerFactory" rx="2.5" ry="2.5" style="stroke:#181818;stroke-width:0.5;" width="397" x="1271.5" y="645"/><ellipse cx="1402.75" cy="661" fill="#ADD1B2" rx="11" ry="11" style="stroke:#181818;stroke-width:1.0;"/><path d="M1405.0938,656.6719 C1404.1563,656.2344 1403.5625,656.0938 1402.6875,656.0938 C1400.0625,656.0938 1398.0625,658.1719 1398.0625,660.8906 L1398.0625,662.0156 C1398.0625,664.5938 1400.1719,666.4844 1403.0625,666.4844 C1404.2813,666.4844 1405.4375,666.1875 1406.1875,665.6406 C1406.7656,665.2344 1407.0938,664.7813 1407.0938,664.3906 C1407.0938,663.9375 1406.7031,663.5469 1406.2344,663.5469 C1406.0156,663.5469 1405.8125,663.625 1405.625,663.8125 C1405.1719,664.2969 1405.1719,664.2969 1404.9844,664.3906 C1404.5625,664.6563 1403.875,664.7813 1403.1094,664.7813 C1401.0625,664.7813 1399.7656,663.6875 1399.7656,661.9844 L1399.7656,660.8906 C1399.7656,659.1094 1401.0156,657.7969 1402.75,657.7969 C1403.3281,657.7969 1403.9375,657.9531 1404.4063,658.2031 C1404.8906,658.4844 1405.0625,658.7031 1405.1563,659.1094 C1405.2188,659.5156 1405.25,659.6406 1405.3906,659.7656 C1405.5313,659.9063 1405.7656,660.0156 1405.9844,660.0156 C1406.25,660.0156 1406.5156,659.875 1406.6875,659.6563 C1406.7969,659.5 1406.8281,659.3125 1406.8281,658.8906 L1406.8281,657.4688 C1406.8281,657.0313 1406.8125,656.9063 1406.7188,656.75 C1406.5625,656.4844 1406.2813,656.3438 1405.9844,656.3438 C1405.6875,656.3438 1405.4844,656.4375 1405.2656,656.75 L1405.0938,656.6719 Z " fill="#000000"/><text fill="#000000" font-family="sans-serif" font-size="14" lengthAdjust="spacing" textLength="126" x="1423.25" y="665.8467">AMTaggerFactory</text><line style="stroke:#181818;stroke-width:0.5;" x1="1272.5" x2="1667.5" y1="677" y2="677"/><rect fill="none" height="6" style="stroke:#C82930;stroke-width:1.0;" width="6" x="1279.5" y="687.6484"/><text fill="#000000" font-family="sans-serif" font-size="14" lengthAdjust="spacing" textLength="96" x="1291.5" y="693.9951">int frequency</text><rect fill="none" height="6" style="stroke:#C82930;stroke-width:1.0;" width="6" x="1279.5" y="703.9453"/><text fill="#000000" font-family="sans-serif" font-size="14" lengthAdjust="spacing" textLength="371" x="1291.5" y="710.292">Callable[[int, int, int], NDArray[float]] tag_generator</text><line style="stroke:#181818;stroke-width:0.5;" x1="1272.5" x2="1667.5" y1="717.5938" y2="717.5938"/><ellipse cx="1282.5" cy="731.2422" fill="#84BE84" rx="3" ry="3" style="stroke:#038048;stroke-width:1.0;"/><text fill="#000000" font-family="sans-serif" font-size="14" lengthAdjust="spacing" textLength="319" x="1291.5" y="734.5889">AMTaggerFactory(frequency, tag_generator)</text></g><!--class FlippedFMTaggerFactory--><g id="elem_FlippedFMTaggerFactory"><rect codeLine="59" fill="#F1F1F1" height="80.5938" id="FlippedFMTaggerFactory" rx="2.5" ry="2.5" style="stroke:#181818;stroke-width:0.5;" width="286" x="2198" y="653"/><ellipse cx="2247.75" cy="669" fill="#ADD1B2" rx="11" ry="11" style="stroke:#181818;stroke-width:1.0;"/><path d="M2250.0938,664.6719 C2249.1563,664.2344 2248.5625,664.0938 2247.6875,664.0938 C2245.0625,664.0938 2243.0625,666.1719 2243.0625,668.8906 L2243.0625,670.0156 C2243.0625,672.5938 2245.1719,674.4844 2248.0625,674.4844 C2249.2813,674.4844 2250.4375,674.1875 2251.1875,673.6406 C2251.7656,673.2344 2252.0938,672.7813 2252.0938,672.3906 C2252.0938,671.9375 2251.7031,671.5469 2251.2344,671.5469 C2251.0156,671.5469 2250.8125,671.625 2250.625,671.8125 C2250.1719,672.2969 2250.1719,672.2969 2249.9844,672.3906 C2249.5625,672.6563 2248.875,672.7813 2248.1094,672.7813 C2246.0625,672.7813 2244.7656,671.6875 2244.7656,669.9844 L2244.7656,668.8906 C2244.7656,667.1094 2246.0156,665.7969 2247.75,665.7969 C2248.3281,665.7969 2248.9375,665.9531 2249.4063,666.2031 C2249.8906,666.4844 2250.0625,666.7031 2250.1563,667.1094 C2250.2188,667.5156 2250.25,667.6406 2250.3906,667.7656 C2250.5313,667.9063 2250.7656,668.0156 2250.9844,668.0156 C2251.25,668.0156 2251.5156,667.875 2251.6875,667.6563 C2251.7969,667.5 2251.8281,667.3125 2251.8281,666.8906 L2251.8281,665.4688 C2251.8281,665.0313 2251.8125,664.9063 2251.7188,664.75 C2251.5625,664.4844 2251.2813,664.3438 2250.9844,664.3438 C2250.6875,664.3438 2250.4844,664.4375 2250.2656,664.75 L2250.0938,664.6719 Z " fill="#000000"/><text fill="#000000" font-family="sans-serif" font-size="14" lengthAdjust="spacing" textLength="178" x="2268.25" y="673.8467">FlippedFMTaggerFactory</text><line style="stroke:#181818;stroke-width:0.5;" x1="2199" x2="2483" y1="685" y2="685"/><rect fill="none" height="6" style="stroke:#C82930;stroke-width:1.0;" width="6" x="2206" y="695.6484"/><text fill="#000000" font-family="sans-serif" font-size="14" lengthAdjust="spacing" textLength="96" x="2218" y="701.9951">int frequency</text><line style="stroke:#181818;stroke-width:0.5;" x1="2199" x2="2483" y1="709.2969" y2="709.2969"/><ellipse cx="2209" cy="722.9453" fill="#84BE84" rx="3" ry="3" style="stroke:#038048;stroke-width:1.0;"/><text fill="#000000" font-family="sans-serif" font-size="14" lengthAdjust="spacing" textLength="260" x="2218" y="726.292">FlippedFMTaggerFactory(frequency)</text></g><!--class FMTaggerFactory--><g id="elem_FMTaggerFactory"><rect codeLine="65" fill="#F1F1F1" height="80.5938" id="FMTaggerFactory" rx="2.5" ry="2.5" style="stroke:#181818;stroke-width:0.5;" width="232" x="1795" y="653"/><ellipse cx="1844.75" cy="669" fill="#ADD1B2" rx="11" ry="11" style="stroke:#181818;stroke-width:1.0;"/><path d="M1847.0938,664.6719 C1846.1563,664.2344 1845.5625,664.0938 1844.6875,664.0938 C1842.0625,664.0938 1840.0625,666.1719 1840.0625,668.8906 L1840.0625,670.0156 C1840.0625,672.5938 1842.1719,674.4844 1845.0625,674.4844 C1846.2813,674.4844 1847.4375,674.1875 1848.1875,673.6406 C1848.7656,673.2344 1849.0938,672.7813 1849.0938,672.3906 C1849.0938,671.9375 1848.7031,671.5469 1848.2344,671.5469 C1848.0156,671.5469 1847.8125,671.625 1847.625,671.8125 C1847.1719,672.2969 1847.1719,672.2969 1846.9844,672.3906 C1846.5625,672.6563 1845.875,672.7813 1845.1094,672.7813 C1843.0625,672.7813 1841.7656,671.6875 1841.7656,669.9844 L1841.7656,668.8906 C1841.7656,667.1094 1843.0156,665.7969 1844.75,665.7969 C1845.3281,665.7969 1845.9375,665.9531 1846.4063,666.2031 C1846.8906,666.4844 1847.0625,666.7031 1847.1563,667.1094 C1847.2188,667.5156 1847.25,667.6406 1847.3906,667.7656 C1847.5313,667.9063 1847.7656,668.0156 1847.9844,668.0156 C1848.25,668.0156 1848.5156,667.875 1848.6875,667.6563 C1848.7969,667.5 1848.8281,667.3125 1848.8281,666.8906 L1848.8281,665.4688 C1848.8281,665.0313 1848.8125,664.9063 1848.7188,664.75 C1848.5625,664.4844 1848.2813,664.3438 1847.9844,664.3438 C1847.6875,664.3438 1847.4844,664.4375 1847.2656,664.75 L1847.0938,664.6719 Z " fill="#000000"/><text fill="#000000" font-family="sans-serif" font-size="14" lengthAdjust="spacing" textLength="124" x="1865.25" y="673.8467">FMTaggerFactory</text><line style="stroke:#181818;stroke-width:0.5;" x1="1796" x2="2026" y1="685" y2="685"/><rect fill="none" height="6" style="stroke:#C82930;stroke-width:1.0;" width="6" x="1803" y="695.6484"/><text fill="#000000" font-family="sans-serif" font-size="14" lengthAdjust="spacing" textLength="96" x="1815" y="701.9951">int frequency</text><line style="stroke:#181818;stroke-width:0.5;" x1="1796" x2="2026" y1="709.2969" y2="709.2969"/><ellipse cx="1806" cy="722.9453" fill="#84BE84" rx="3" ry="3" style="stroke:#038048;stroke-width:1.0;"/><text fill="#000000" font-family="sans-serif" font-size="14" lengthAdjust="spacing" textLength="206" x="1815" y="726.292">FMTaggerFactory(frequency)</text></g><!--class Audio--><g id="elem_Audio"><rect codeLine="1" fill="#F1F1F1" height="80.5938" id="Audio" rx="2.5" ry="2.5" style="stroke:#181818;stroke-width:0.5;" width="194" x="1170" y="7"/><ellipse cx="1242.75" cy="23" fill="#ADD1B2" rx="11" ry="11" style="stroke:#181818;stroke-width:1.0;"/><path d="M1245.0938,18.6719 C1244.1563,18.2344 1243.5625,18.0938 1242.6875,18.0938 C1240.0625,18.0938 1238.0625,20.1719 1238.0625,22.8906 L1238.0625,24.0156 C1238.0625,26.5938 1240.1719,28.4844 1243.0625,28.4844 C1244.2813,28.4844 1245.4375,28.1875 1246.1875,27.6406 C1246.7656,27.2344 1247.0938,26.7813 1247.0938,26.3906 C1247.0938,25.9375 1246.7031,25.5469 1246.2344,25.5469 C1246.0156,25.5469 1245.8125,25.625 1245.625,25.8125 C1245.1719,26.2969 1245.1719,26.2969 1244.9844,26.3906 C1244.5625,26.6563 1243.875,26.7813 1243.1094,26.7813 C1241.0625,26.7813 1239.7656,25.6875 1239.7656,23.9844 L1239.7656,22.8906 C1239.7656,21.1094 1241.0156,19.7969 1242.75,19.7969 C1243.3281,19.7969 1243.9375,19.9531 1244.4063,20.2031 C1244.8906,20.4844 1245.0625,20.7031 1245.1563,21.1094 C1245.2188,21.5156 1245.25,21.6406 1245.3906,21.7656 C1245.5313,21.9063 1245.7656,22.0156 1245.9844,22.0156 C1246.25,22.0156 1246.5156,21.875 1246.6875,21.6563 C1246.7969,21.5 1246.8281,21.3125 1246.8281,20.8906 L1246.8281,19.4688 C1246.8281,19.0313 1246.8125,18.9063 1246.7188,18.75 C1246.5625,18.4844 1246.2813,18.3438 1245.9844,18.3438 C1245.6875,18.3438 1245.4844,18.4375 1245.2656,18.75 L1245.0938,18.6719 Z " fill="#000000"/><text fill="#000000" font-family="sans-serif" font-size="14" lengthAdjust="spacing" textLength="40" x="1263.25" y="27.8467">Audio</text><line style="stroke:#181818;stroke-width:0.5;" x1="1171" x2="1363" y1="39" y2="39"/><ellipse cx="1181" cy="52.6484" fill="none" rx="3" ry="3" style="stroke:#038048;stroke-width:1.0;"/><text fill="#000000" font-family="sans-serif" font-size="14" lengthAdjust="spacing" textLength="143" x="1190" y="55.9951">NDArray[float] array</text><ellipse cx="1181" cy="68.9453" fill="none" rx="3" ry="3" style="stroke:#038048;stroke-width:1.0;"/><text fill="#000000" font-family="sans-serif" font-size="14" lengthAdjust="spacing" textLength="168" x="1190" y="72.292">int sampling_frequency</text><line style="stroke:#181818;stroke-width:0.5;" x1="1171" x2="1363" y1="79.5938" y2="79.5938"/></g><!--link Audio to AAuditoryTagger--><g id="link_Audio_AAuditoryTagger"><path codeLine="14" d="M1267,88.187 C1267,116.747 1267,143.408 1267,173.673 " fill="none" id="Audio-to-AAuditoryTagger" style="stroke:#181818;stroke-width:1.0;"/><polygon fill="#181818" points="1267,185.673,1271,179.673,1267,173.673,1263,179.673,1267,185.673" style="stroke:#181818;stroke-width:1.0;"/><text fill="#000000" font-family="sans-serif" font-size="13" lengthAdjust="spacing" textLength="35" x="1268" y="131.0669">audio</text><text fill="#000000" font-family="sans-serif" font-size="13" lengthAdjust="spacing" textLength="8" x="1258.3875" y="107.6738">1</text><text fill="#000000" font-family="sans-serif" font-size="13" lengthAdjust="spacing" textLength="8" x="1258.4375" y="174.8359">1</text></g><!--reverse link AAuditoryTagger to ShiftSumTagger--><g id="link_AAuditoryTagger_ShiftSumTagger"><path codeLine="112" d="M1205.1869,295.7136 C1165.7069,334.1756 1123.32,375.467 1083.85,413.913 " fill="none" id="AAuditoryTagger-backto-ShiftSumTagger" style="stroke:#181818;stroke-width:1.0;"/><polygon fill="none" points="1218.08,283.153,1201.0001,291.4159,1209.3738,300.0113,1218.08,283.153" style="stroke:#181818;stroke-width:1.0;"/></g><!--reverse link AAuditoryTagger to RawTagger--><g id="link_AAuditoryTagger_RawTagger"><path codeLine="113" d="M1112.5008,252.1737 C1001.9608,266.0797 874.937,287.819 827,322 C789.718,348.583 767.018,398.113 755.481,430.435 " fill="none" id="AAuditoryTagger-backto-RawTagger" style="stroke:#181818;stroke-width:1.0;"/><polygon fill="none" points="1130.36,249.927,1111.7519,246.2206,1113.2497,258.1268,1130.36,249.927" style="stroke:#181818;stroke-width:1.0;"/></g><!--reverse link AAuditoryTagger to NoiseTaggingTagger--><g id="link_AAuditoryTagger_NoiseTaggingTagger"><path codeLine="114" d="M1112.531,246.6492 C989.151,257.6402 821.401,278.491 665,322 C616.91,335.378 566.542,354.077 520.05,373.446 " fill="none" id="AAuditoryTagger-backto-NoiseTaggingTagger" style="stroke:#181818;stroke-width:1.0;"/><polygon fill="none" points="1130.46,245.052,1111.9986,240.6728,1113.0634,252.6255,1130.46,245.052" style="stroke:#181818;stroke-width:1.0;"/></g><!--reverse link AAuditoryTagger to AMTagger--><g id="link_AAuditoryTagger_AMTagger"><path codeLine="115" d="M1329.05,295.6859 C1366.03,331.5579 1403.9,368.284 1442.72,405.946 " fill="none" id="AAuditoryTagger-backto-AMTagger" style="stroke:#181818;stroke-width:1.0;"/><polygon fill="none" points="1316.13,283.153,1324.8724,299.9926,1333.2276,291.3792,1316.13,283.153" style="stroke:#181818;stroke-width:1.0;"/></g><!--reverse link AAuditoryTagger to FMTagger--><g id="link_AAuditoryTagger_FMTagger"><path codeLine="116" d="M1421.5252,257.3337 C1520.3752,272.3747 1638.94,292.918 1757,322 C1807.17,334.36 1859.99,349.392 1910.9,364.953 " fill="none" id="AAuditoryTagger-backto-FMTagger" style="stroke:#181818;stroke-width:1.0;"/><polygon fill="none" points="1403.73,254.626,1420.6226,263.2654,1422.4277,251.402,1403.73,254.626" style="stroke:#181818;stroke-width:1.0;"/></g><!--reverse link AAuditoryTagger to FlippedFMTagger--><g id="link_AAuditoryTagger_FlippedFMTagger"><path codeLine="117" d="M1421.7498,235.6289 C1721.0698,237.1069 2407.5,248.471 2633,322 C2693.22,341.635 2753.3,381.737 2795.26,413.925 " fill="none" id="AAuditoryTagger-backto-FlippedFMTagger" style="stroke:#181818;stroke-width:1.0;"/><polygon fill="none" points="1403.75,235.54,1421.7202,241.6288,1421.7794,229.629,1403.75,235.54" style="stroke:#181818;stroke-width:1.0;"/></g><!--link ShiftSumTaggerFactory to AAudioTaggerFactory--><g id="link_ShiftSumTaggerFactory_AAudioTaggerFactory"><path codeLine="119" d="M1132.99,734.027 C1164.64,758.092 1190.1813,777.5076 1219.6113,799.8838 " fill="none" id="ShiftSumTaggerFactory-to-AAudioTaggerFactory" style="stroke:#181818;stroke-width:1.0;"/><polygon fill="none" points="1233.94,810.7782,1223.2428,795.1076,1215.9798,804.66,1233.94,810.7782" style="stroke:#181818;stroke-width:1.0;"/></g><!--link AMTaggerFactory to AAudioTaggerFactory--><g id="link_AMTaggerFactory_AAudioTaggerFactory"><path codeLine="120" d="M1406.96,742.185 C1377.14,764.742 1356.7347,780.1729 1330.3847,800.1081 " fill="none" id="AMTaggerFactory-to-AAudioTaggerFactory" style="stroke:#181818;stroke-width:1.0;"/><polygon fill="none" points="1316.03,810.9682,1334.0048,804.893,1326.7647,795.3232,1316.03,810.9682" style="stroke:#181818;stroke-width:1.0;"/></g><!--link FMTaggerFactory to AAudioTaggerFactory--><g id="link_FMTaggerFactory_AAudioTaggerFactory"><path codeLine="121" d="M1796.17,734.032 C1761.07,745.291 1722.18,756.943 1686,766 C1616.31,783.443 1556.7803,795.6 1488.2303,807.8281 " fill="none" id="FMTaggerFactory-to-AAudioTaggerFactory" style="stroke:#181818;stroke-width:1.0;"/><polygon fill="none" points="1470.51,810.9891,1489.2839,813.7349,1487.1766,801.9214,1470.51,810.9891" style="stroke:#181818;stroke-width:1.0;"/></g><!--link FlippedFMTaggerFactory to AAudioTaggerFactory--><g id="link_FlippedFMTaggerFactory_AAudioTaggerFactory"><path codeLine="122" d="M2197.67,733.357 C2149.46,745.293 2095.17,757.507 2045,766 C1907.42,789.29 1772.6487,804.5926 1639.7387,816.4564 " fill="none" id="FlippedFMTaggerFactory-to-AAudioTaggerFactory" style="stroke:#181818;stroke-width:1.0;"/><polygon fill="none" points="1621.81,818.0568,1640.2722,822.4327,1639.2053,810.4802,1621.81,818.0568" style="stroke:#181818;stroke-width:1.0;"/></g><!--link NoiseTaggingTaggerFactory to AAudioTaggerFactory--><g id="link_NoiseTaggingTaggerFactory_AAudioTaggerFactory"><path codeLine="123" d="M637.909,750.069 C663.47,755.845 689.258,761.308 714,766 C807.547,783.738 892.7821,796.5998 984.7921,808.6381 " fill="none" id="NoiseTaggingTaggerFactory-to-AAudioTaggerFactory" style="stroke:#181818;stroke-width:1.0;"/><polygon fill="none" points="1002.64,810.9733,985.5705,802.6888,984.0137,814.5874,1002.64,810.9733" style="stroke:#181818;stroke-width:1.0;"/></g><!--link RawTaggerFactory to AAudioTaggerFactory--><g id="link_RawTaggerFactory_AAudioTaggerFactory"><path codeLine="124" d="M845.256,717.566 C867.994,733.33 900.087,753.546 931,766 C978.371,785.085 1013.8732,795.8808 1063.8732,807.0531 " fill="none" id="RawTaggerFactory-to-AAudioTaggerFactory" style="stroke:#181818;stroke-width:1.0;"/><polygon fill="none" points="1081.44,810.9783,1065.1816,801.1975,1062.5648,812.9087,1081.44,810.9783" style="stroke:#181818;stroke-width:1.0;"/></g><!--reverse link ShiftSumTagger to ShiftSumTaggerFactory--><g id="link_ShiftSumTagger_ShiftSumTaggerFactory"><path codeLine="126" d="M1045.7708,517.1097 C1054.1908,559.0557 1065.13,613.496 1073.03,652.84 " fill="none" id="ShiftSumTagger-backto-ShiftSumTaggerFactory" style="stroke:#181818;stroke-width:1.0;stroke-dasharray:7.0,7.0;"/><polygon fill="#181818" points="1044.59,511.227,1042.4395,520.8382,1045.574,516.1292,1050.283,519.2637,1044.59,511.227" style="stroke:#181818;stroke-width:1.0;"/><text fill="#000000" font-family="sans-serif" font-size="13" lengthAdjust="spacing" textLength="48" x="1065" y="603.0669">creates</text></g><!--reverse link AMTagger to AMTaggerFactory--><g id="link_AMTagger_AMTaggerFactory"><path codeLine="127" d="M1491.9206,525.1762 C1486.8906,563.5702 1481.06,608.11 1476.27,644.676 " fill="none" id="AMTagger-backto-AMTaggerFactory" style="stroke:#181818;stroke-width:1.0;stroke-dasharray:7.0,7.0;"/><polygon fill="#181818" points="1492.7,519.227,1487.5648,527.6311,1492.0505,524.1846,1495.497,528.6703,1492.7,519.227" style="stroke:#181818;stroke-width:1.0;"/><text fill="#000000" font-family="sans-serif" font-size="13" lengthAdjust="spacing" textLength="48" x="1484" y="603.0669">creates</text></g><!--reverse link FMTagger to FMTaggerFactory--><g id="link_FMTagger_FMTaggerFactory"><path codeLine="128" d="M2070.2992,564.0511 C2030.0292,596.5211 1992.02,627.173 1960.3,652.751 " fill="none" id="FMTagger-backto-FMTaggerFactory" style="stroke:#181818;stroke-width:1.0;stroke-dasharray:7.0,7.0;"/><polygon fill="#181818" points="2074.97,560.285,2065.4531,562.8203,2071.0777,563.4234,2070.4745,569.048,2074.97,560.285" style="stroke:#181818;stroke-width:1.0;"/><text fill="#000000" font-family="sans-serif" font-size="13" lengthAdjust="spacing" textLength="48" x="2036" y="603.0669">creates</text></g><!--reverse link FlippedFMTagger to FlippedFMTaggerFactory--><g id="link_FlippedFMTagger_FlippedFMTaggerFactory"><path codeLine="129" d="M2740.3347,513.5417 C2646.6147,555.5417 2517.08,613.591 2429.2,652.976 " fill="none" id="FlippedFMTagger-backto-FlippedFMTaggerFactory" style="stroke:#181818;stroke-width:1.0;stroke-dasharray:7.0,7.0;"/><polygon fill="#181818" points="2745.81,511.088,2735.9612,511.1184,2741.2472,513.1328,2739.2328,518.4188,2745.81,511.088" style="stroke:#181818;stroke-width:1.0;"/><text fill="#000000" font-family="sans-serif" font-size="13" lengthAdjust="spacing" textLength="48" x="2566" y="603.0669">creates</text></g><!--reverse link NoiseTaggingTagger to NoiseTaggingTaggerFactory--><g id="link_NoiseTaggingTagger_NoiseTaggingTaggerFactory"><path codeLine="130" d="M370.6429,557.3189 C381.5089,585.9199 391.123,611.226 400.831,636.781 " fill="none" id="NoiseTaggingTagger-backto-NoiseTaggingTaggerFactory" style="stroke:#181818;stroke-width:1.0;stroke-dasharray:7.0,7.0;"/><polygon fill="#181818" points="368.512,551.71,367.9691,561.5439,370.2877,556.384,375.4476,558.7027,368.512,551.71" style="stroke:#181818;stroke-width:1.0;"/><text fill="#000000" font-family="sans-serif" font-size="13" lengthAdjust="spacing" textLength="48" x="390" y="603.0669">creates</text></g><!--reverse link RawTagger to RawTaggerFactory--><g id="link_RawTagger_RawTaggerFactory"><path codeLine="131" d="M757.0209,500.6128 C770.8789,547.2838 794.902,628.185 807.162,669.472 " fill="none" id="RawTagger-backto-RawTaggerFactory" style="stroke:#181818;stroke-width:1.0;stroke-dasharray:7.0,7.0;"/><polygon fill="#181818" points="755.313,494.861,754.0403,504.6273,756.7362,499.6542,761.7093,502.3501,755.313,494.861" style="stroke:#181818;stroke-width:1.0;"/><text fill="#000000" font-family="sans-serif" font-size="13" lengthAdjust="spacing" textLength="48" x="790" y="603.0669">creates</text></g><!--SRC=[hLPDZzem4BtdLrZq0YLPgUqjsWlQYbExbHPkAsIPn0Ih9gQnin_Qyj_hs75Y6oURbOeGWioRUJDlXh4pYZW7gped3Bn5GBwMzzzNLOLU7m-K8R43gFcXBQGKWAFJcPAoW8SA_wbncRr6boWwe-mtAZ10Cf1WrIiKg2Wages9zbnKA1CWqtIh5hQLA5or800-KSB58z3CCMWJs04koAcc14f-N3qXogFMOUb5cZVyB3OEYmwcwpDfN41MOIJmN0CkEfoVrUpB37nEwaHzKH5ILH-Bei6YcFPToySoK5VOqZPUvm4xsNJYDTU5f9eslXOW1JyQgRRrcM9NBgUahYsSLwebbjZ0vFrpwni0I9fMznss37U8KhINh8yI4WFpiOk1DpUI3XQun1MIbKLMYELgita8zgklB-x9OpVImeca-keqqwg-ht7ziHfL1U34yfeYGLW93wgVJX4cvBGIhc9DAKDcCZUYFc14BOtLpmLuuq86pIu0lwY1WkhFAUeSStW-8exvlAnFUrp9WJ6kTqnYyClEuV6DVUG22vZffr37clSaAV3oqwJUuo2JihHuA9ZKJJAMyerPpRlbGcG57uqv6AcXQLKPn5nLT20L5zej1Ssp8BEQc6zVTwRHUCv9KIAQ0X-nY4R6b9Bp6UTJfjKPHTTjoaIEZTzmVcPL-Elj_soCqPNXCi_VtmxlYJkXXX6Dh_AOi7m-oZY5oYBKPFUCSBpLXwytHSclSxE046tw80zLZFF8oc9F17mckJZQ3oak2t64qcPEiYx87Sln3cJoipkDhyb7Pb76b4iALv3ZZ9LvgWUZ9unLXjuHxkt8v8cH743JVmoRT09MeGqwk69QJ97ExvZHoSvxLAsGvCDYcKvx34EYECa_e6UltI75mYvkcGvcSoG7iQbF_YYfcs1ZW_jkQfSkUAJrndCnDLKtSh0jNJR1P8oqBlEbkRhwrxxRlqdY4OOndNvXytL_mpYpsiBMzRZLtKfjCTubL2Bh92pX2DxRk2F8zNHaS8cEE0p-HqPy_B6E8c-8RszkmcgaOAP7aC-YxbRSe3qjRDpQngr7SDxHhk11EMolm3Pl70TbiNtxZT2u-AfOo7y0]--></g></svg>