<?xml version="1.0" encoding="us-ascii" standalone="no"?><svg xmlns="http://www.w3.org/2000/svg" xmlns:xlink="http://www.w3.org/1999/xlink" contentStyleType="text/css" height="916px" preserveAspectRatio="none" style="width:3689px;height:916px;background:#FFFFFF;" version="1.1" viewBox="0 0 3689 916" width="3689px" zoomAndPan="magnify"><defs/><g><!--cluster auditory_tagging--><g id="cluster_auditory_tagging"><path d="M8.5,151 L148.5,151 A3.75,3.75 0 0 1 151,153.5 L158,173.2969 L3679.5,173.2969 A2.5,2.5 0 0 1 3682,175.7969 L3682,906.5 A2.5,2.5 0 0 1 3679.5,909 L8.5,909 A2.5,2.5 0 0 1 6,906.5 L6,153.5 A2.5,2.5 0 0 1 8.5,151 " fill="none" style="stroke:#000000;stroke-width:1.5;"/><line style="stroke:#000000;stroke-width:1.5;" x1="6" x2="158" y1="173.2969" y2="173.2969"/><text fill="#000000" font-family="sans-serif" font-size="14" font-weight="bold" lengthAdjust="spacing" textLength="139" x="10" y="165.9951">auditory_tagging</text></g><!--cluster assr_tagger--><g id="cluster_assr_tagger"><path d="M830.5,330 L927.5,330 A3.75,3.75 0 0 1 930,332.5 L937,352.2969 L2761.5,352.2969 A2.5,2.5 0 0 1 2764,354.7969 L2764,779.5 A2.5,2.5 0 0 1 2761.5,782 L830.5,782 A2.5,2.5 0 0 1 828,779.5 L828,332.5 A2.5,2.5 0 0 1 830.5,330 " fill="none" style="stroke:#000000;stroke-width:1.5;"/><line style="stroke:#000000;stroke-width:1.5;" x1="828" x2="937" y1="352.2969" y2="352.2969"/><text fill="#000000" font-family="sans-serif" font-size="14" font-weight="bold" lengthAdjust="spacing" textLength="96" x="832" y="344.9951">assr_tagger</text></g><!--cluster shift_taggers--><g id="cluster_shift_taggers"><path d="M2790.5,379 L2900.5,379 A3.75,3.75 0 0 1 2903,381.5 L2910,401.2969 L3655.5,401.2969 A2.5,2.5 0 0 1 3658,403.7969 L3658,755.5 A2.5,2.5 0 0 1 3655.5,758 L2790.5,758 A2.5,2.5 0 0 1 2788,755.5 L2788,381.5 A2.5,2.5 0 0 1 2790.5,379 " fill="none" style="stroke:#000000;stroke-width:1.5;"/><line style="stroke:#000000;stroke-width:1.5;" x1="2788" x2="2910" y1="401.2969" y2="401.2969"/><text fill="#000000" font-family="sans-serif" font-size="14" font-weight="bold" lengthAdjust="spacing" textLength="109" x="2792" y="393.9951">shift_taggers</text></g><!--class AAudioTagger--><g id="elem_AAudioTagger"><rect codeLine="7" fill="#F1F1F1" height="96.8906" id="AAudioTagger" rx="2.5" ry="2.5" style="stroke:#181818;stroke-width:0.5;" width="273" x="1752.5" y="186"/><ellipse cx="1833.75" cy="202" fill="#A9DCDF" rx="11" ry="11" style="stroke:#181818;stroke-width:1.0;"/><path d="M1835.8281,203.8125 L1836.2188,204.7969 L1835.8281,204.7969 C1835.375,204.7969 1835.2656,204.8125 1835.1094,204.9219 C1834.8594,205.0781 1834.7031,205.3594 1834.7031,205.6563 C1834.7031,205.9219 1834.8438,206.1719 1835.0625,206.3281 C1835.2031,206.4531 1835.4063,206.5 1835.8281,206.5 L1838.1875,206.5 C1838.5469,206.5 1838.7656,206.4688 1838.9063,206.375 C1839.1563,206.2344 1839.3125,205.9375 1839.3125,205.6563 C1839.3125,205.375 1839.1719,205.125 1838.9531,204.9688 C1838.7813,204.8281 1838.625,204.7969 1838.1563,204.7969 L1834.7656,196.5938 L1831.0938,196.5938 C1830.6406,196.5938 1830.5156,196.6094 1830.3594,196.7031 C1830.1094,196.875 1829.9531,197.1563 1829.9531,197.4375 C1829.9531,197.7188 1830.0938,197.9688 1830.3125,198.1406 C1830.4844,198.25 1830.6563,198.2813 1831.0938,198.2813 L1832.1719,198.2813 L1829.5313,204.7969 C1829.1094,204.7969 1828.9531,204.8125 1828.7969,204.9219 C1828.5469,205.0781 1828.3906,205.3594 1828.3906,205.6563 C1828.3906,206.2188 1828.7656,206.5 1829.5156,206.5 L1831.7813,206.5 C1832.1406,206.5 1832.3594,206.4688 1832.4844,206.375 C1832.75,206.2344 1832.8906,205.9375 1832.8906,205.6563 C1832.8906,205.375 1832.7656,205.125 1832.5469,204.9531 C1832.375,204.8281 1832.2344,204.7969 1831.7813,204.7969 L1831.3906,204.7969 L1831.7813,203.8125 L1835.8281,203.8125 Z M1835.125,202.1094 L1832.4531,202.1094 L1833.7969,198.8438 L1835.125,202.1094 Z " fill="#000000"/><text fill="#000000" font-family="sans-serif" font-size="14" font-style="italic" lengthAdjust="spacing" textLength="102" x="1854.25" y="206.8467">AAudioTagger</text><line style="stroke:#181818;stroke-width:0.5;" x1="1753.5" x2="2024.5" y1="218" y2="218"/><polygon fill="none" points="1763.5,226.6484,1767.5,230.6484,1763.5,234.6484,1759.5,230.6484" style="stroke:#B38D22;stroke-width:1.0;"/><text fill="#000000" font-family="sans-serif" font-size="14" lengthAdjust="spacing" textLength="247" x="1772.5" y="234.9951">list[ [float, float] ] stimuli_intervals</text><line style="stroke:#181818;stroke-width:0.5;" x1="1753.5" x2="2024.5" y1="242.2969" y2="242.2969"/><ellipse cx="1763.5" cy="255.9453" fill="#84BE84" rx="3" ry="3" style="stroke:#038048;stroke-width:1.0;"/><text fill="#000000" font-family="sans-serif" font-size="14" lengthAdjust="spacing" textLength="225" x="1772.5" y="259.292">AAuditoryTagger(audio, stimuli)</text><ellipse cx="1763.5" cy="272.2422" fill="#84BE84" rx="3" ry="3" style="stroke:#038048;stroke-width:1.0;"/><text fill="#000000" font-family="sans-serif" font-size="14" font-style="italic" lengthAdjust="spacing" textLength="101" x="1772.5" y="275.5889">Audio create()</text></g><!--class AAudioTaggerFactory--><g id="elem_AAudioTaggerFactory"><rect codeLine="17" fill="#F1F1F1" height="64.2969" id="AAudioTaggerFactory" rx="2.5" ry="2.5" style="stroke:#181818;stroke-width:0.5;" width="662" x="1558" y="829"/><ellipse cx="1807.25" cy="845" fill="#A9DCDF" rx="11" ry="11" style="stroke:#181818;stroke-width:1.0;"/><path d="M1809.3281,846.8125 L1809.7188,847.7969 L1809.3281,847.7969 C1808.875,847.7969 1808.7656,847.8125 1808.6094,847.9219 C1808.3594,848.0781 1808.2031,848.3594 1808.2031,848.6563 C1808.2031,848.9219 1808.3438,849.1719 1808.5625,849.3281 C1808.7031,849.4531 1808.9063,849.5 1809.3281,849.5 L1811.6875,849.5 C1812.0469,849.5 1812.2656,849.4688 1812.4063,849.375 C1812.6563,849.2344 1812.8125,848.9375 1812.8125,848.6563 C1812.8125,848.375 1812.6719,848.125 1812.4531,847.9688 C1812.2813,847.8281 1812.125,847.7969 1811.6563,847.7969 L1808.2656,839.5938 L1804.5938,839.5938 C1804.1406,839.5938 1804.0156,839.6094 1803.8594,839.7031 C1803.6094,839.875 1803.4531,840.1563 1803.4531,840.4375 C1803.4531,840.7188 1803.5938,840.9688 1803.8125,841.1406 C1803.9844,841.25 1804.1563,841.2813 1804.5938,841.2813 L1805.6719,841.2813 L1803.0313,847.7969 C1802.6094,847.7969 1802.4531,847.8125 1802.2969,847.9219 C1802.0469,848.0781 1801.8906,848.3594 1801.8906,848.6563 C1801.8906,849.2188 1802.2656,849.5 1803.0156,849.5 L1805.2813,849.5 C1805.6406,849.5 1805.8594,849.4688 1805.9844,849.375 C1806.25,849.2344 1806.3906,848.9375 1806.3906,848.6563 C1806.3906,848.375 1806.2656,848.125 1806.0469,847.9531 C1805.875,847.8281 1805.7344,847.7969 1805.2813,847.7969 L1804.8906,847.7969 L1805.2813,846.8125 L1809.3281,846.8125 Z M1808.625,845.1094 L1805.9531,845.1094 L1807.2969,841.8438 L1808.625,845.1094 Z " fill="#000000"/><text fill="#000000" font-family="sans-serif" font-size="14" font-style="italic" lengthAdjust="spacing" textLength="155" x="1827.75" y="849.8467">AAudioTaggerFactory</text><line style="stroke:#181818;stroke-width:0.5;" x1="1559" x2="2219" y1="861" y2="861"/><line style="stroke:#181818;stroke-width:0.5;" x1="1559" x2="2219" y1="869" y2="869"/><ellipse cx="1569" cy="882.6484" fill="#84BE84" rx="3" ry="3" style="stroke:#038048;stroke-width:1.0;"/><text fill="#000000" font-family="sans-serif" font-size="14" font-style="italic" lengthAdjust="spacing" textLength="636" x="1578" y="885.9951">AAudioTagger create_audio_tagger(audio: Audio, stimuli_intervals: List[Tuple[float, float])</text></g><!--class NoiseTaggingTagger--><g id="elem_NoiseTaggingTagger"><rect codeLine="74" fill="#F1F1F1" height="178.375" id="NoiseTaggingTagger" rx="2.5" ry="2.5" style="stroke:#181818;stroke-width:0.5;" width="625" x="22.5" y="373.5"/><ellipse cx="257.75" cy="389.5" fill="#ADD1B2" rx="11" ry="11" style="stroke:#181818;stroke-width:1.0;"/><path d="M260.0938,385.1719 C259.1563,384.7344 258.5625,384.5938 257.6875,384.5938 C255.0625,384.5938 253.0625,386.6719 253.0625,389.3906 L253.0625,390.5156 C253.0625,393.0938 255.1719,394.9844 258.0625,394.9844 C259.2813,394.9844 260.4375,394.6875 261.1875,394.1406 C261.7656,393.7344 262.0938,393.2813 262.0938,392.8906 C262.0938,392.4375 261.7031,392.0469 261.2344,392.0469 C261.0156,392.0469 260.8125,392.125 260.625,392.3125 C260.1719,392.7969 260.1719,392.7969 259.9844,392.8906 C259.5625,393.1563 258.875,393.2813 258.1094,393.2813 C256.0625,393.2813 254.7656,392.1875 254.7656,390.4844 L254.7656,389.3906 C254.7656,387.6094 256.0156,386.2969 257.75,386.2969 C258.3281,386.2969 258.9375,386.4531 259.4063,386.7031 C259.8906,386.9844 260.0625,387.2031 260.1563,387.6094 C260.2188,388.0156 260.25,388.1406 260.3906,388.2656 C260.5313,388.4063 260.7656,388.5156 260.9844,388.5156 C261.25,388.5156 261.5156,388.375 261.6875,388.1563 C261.7969,388 261.8281,387.8125 261.8281,387.3906 L261.8281,385.9688 C261.8281,385.5313 261.8125,385.4063 261.7188,385.25 C261.5625,384.9844 261.2813,384.8438 260.9844,384.8438 C260.6875,384.8438 260.4844,384.9375 260.2656,385.25 L260.0938,385.1719 Z " fill="#000000"/><text fill="#000000" font-family="sans-serif" font-size="14" lengthAdjust="spacing" textLength="146" x="278.25" y="394.3467">NoiseTaggingTagger</text><line style="stroke:#181818;stroke-width:0.5;" x1="23.5" x2="646.5" y1="405.5" y2="405.5"/><rect fill="none" height="6" style="stroke:#C82930;stroke-width:1.0;" width="6" x="30.5" y="416.1484"/><text fill="#000000" font-family="sans-serif" font-size="14" lengthAdjust="spacing" textLength="130" x="42.5" y="422.4951">Optional[int] seed</text><rect fill="none" height="6" style="stroke:#C82930;stroke-width:1.0;" width="6" x="30.5" y="432.4453"/><text fill="#000000" font-family="sans-serif" font-size="14" lengthAdjust="spacing" textLength="92" x="42.5" y="438.792">int bit_width</text><rect fill="none" height="6" style="stroke:#C82930;stroke-width:1.0;" width="6" x="30.5" y="448.7422"/><text fill="#000000" font-family="sans-serif" font-size="14" lengthAdjust="spacing" textLength="99" x="42.5" y="455.0889">int length_bit</text><ellipse cx="33.5" cy="468.0391" fill="none" rx="3" ry="3" style="stroke:#038048;stroke-width:1.0;"/><text fill="#000000" font-family="sans-serif" font-size="14" lengthAdjust="spacing" textLength="148" x="42.5" y="471.3857">Optional[Code] code</text><line style="stroke:#181818;stroke-width:0.5;" x1="23.5" x2="646.5" y1="478.6875" y2="478.6875"/><ellipse cx="33.5" cy="492.3359" fill="#84BE84" rx="3" ry="3" style="stroke:#038048;stroke-width:1.0;"/><text fill="#000000" font-family="sans-serif" font-size="14" lengthAdjust="spacing" textLength="599" x="42.5" y="495.6826">NoiseTaggingTagger(audio, stimuli_intervals, bits_per_second: int, length_bit, seed)</text><ellipse cx="33.5" cy="508.6328" fill="#84BE84" rx="3" ry="3" style="stroke:#038048;stroke-width:1.0;"/><text fill="#000000" font-family="sans-serif" font-size="14" lengthAdjust="spacing" textLength="101" x="42.5" y="511.9795">Audio create()</text><rect fill="#F24D5C" height="6" style="stroke:#C82930;stroke-width:1.0;" width="6" x="30.5" y="521.9297"/><text fill="#000000" font-family="sans-serif" font-size="14" lengthAdjust="spacing" textLength="166" x="42.5" y="528.2764">void __generate_code()</text><rect fill="#F24D5C" height="6" style="stroke:#C82930;stroke-width:1.0;" width="6" x="30.5" y="538.2266"/><text fill="#000000" font-family="sans-serif" font-size="14" lengthAdjust="spacing" textLength="201" x="42.5" y="544.5732">void __get_code(length: int)</text></g><!--class NoiseTaggingTaggerFactory--><g id="elem_NoiseTaggingTaggerFactory"><rect codeLine="86" fill="#F1F1F1" height="113.1875" id="NoiseTaggingTaggerFactory" rx="2.5" ry="2.5" style="stroke:#181818;stroke-width:0.5;" width="479" x="123.5" y="645"/><ellipse cx="258.75" cy="661" fill="#ADD1B2" rx="11" ry="11" style="stroke:#181818;stroke-width:1.0;"/><path d="M261.0938,656.6719 C260.1563,656.2344 259.5625,656.0938 258.6875,656.0938 C256.0625,656.0938 254.0625,658.1719 254.0625,660.8906 L254.0625,662.0156 C254.0625,664.5938 256.1719,666.4844 259.0625,666.4844 C260.2813,666.4844 261.4375,666.1875 262.1875,665.6406 C262.7656,665.2344 263.0938,664.7813 263.0938,664.3906 C263.0938,663.9375 262.7031,663.5469 262.2344,663.5469 C262.0156,663.5469 261.8125,663.625 261.625,663.8125 C261.1719,664.2969 261.1719,664.2969 260.9844,664.3906 C260.5625,664.6563 259.875,664.7813 259.1094,664.7813 C257.0625,664.7813 255.7656,663.6875 255.7656,661.9844 L255.7656,660.8906 C255.7656,659.1094 257.0156,657.7969 258.75,657.7969 C259.3281,657.7969 259.9375,657.9531 260.4063,658.2031 C260.8906,658.4844 261.0625,658.7031 261.1563,659.1094 C261.2188,659.5156 261.25,659.6406 261.3906,659.7656 C261.5313,659.9063 261.7656,660.0156 261.9844,660.0156 C262.25,660.0156 262.5156,659.875 262.6875,659.6563 C262.7969,659.5 262.8281,659.3125 262.8281,658.8906 L262.8281,657.4688 C262.8281,657.0313 262.8125,656.9063 262.7188,656.75 C262.5625,656.4844 262.2813,656.3438 261.9844,656.3438 C261.6875,656.3438 261.4844,656.4375 261.2656,656.75 L261.0938,656.6719 Z " fill="#000000"/><text fill="#000000" font-family="sans-serif" font-size="14" lengthAdjust="spacing" textLength="200" x="279.25" y="665.8467">NoiseTaggingTaggerFactory</text><line style="stroke:#181818;stroke-width:0.5;" x1="124.5" x2="601.5" y1="677" y2="677"/><rect fill="none" height="6" style="stroke:#C82930;stroke-width:1.0;" width="6" x="131.5" y="687.6484"/><text fill="#000000" font-family="sans-serif" font-size="14" lengthAdjust="spacing" textLength="142" x="143.5" y="693.9951">int bits_per_second</text><rect fill="none" height="6" style="stroke:#C82930;stroke-width:1.0;" width="6" x="131.5" y="703.9453"/><text fill="#000000" font-family="sans-serif" font-size="14" lengthAdjust="spacing" textLength="99" x="143.5" y="710.292">int length_bit</text><rect fill="none" height="6" style="stroke:#C82930;stroke-width:1.0;" width="6" x="131.5" y="720.2422"/><text fill="#000000" font-family="sans-serif" font-size="14" lengthAdjust="spacing" textLength="130" x="143.5" y="726.5889">Optional[int] seed</text><line style="stroke:#181818;stroke-width:0.5;" x1="124.5" x2="601.5" y1="733.8906" y2="733.8906"/><ellipse cx="134.5" cy="747.5391" fill="#84BE84" rx="3" ry="3" style="stroke:#038048;stroke-width:1.0;"/><text fill="#000000" font-family="sans-serif" font-size="14" lengthAdjust="spacing" textLength="453" x="143.5" y="750.8857">NoiseTaggingTaggerFactory(bits_per_second, length_bit, seed)</text></g><!--class RawTagger--><g id="elem_RawTagger"><rect codeLine="94" fill="#F1F1F1" height="64.2969" id="RawTagger" rx="2.5" ry="2.5" style="stroke:#181818;stroke-width:0.5;" width="127" x="682.5" y="430.5"/><ellipse cx="704.7" cy="446.5" fill="#ADD1B2" rx="11" ry="11" style="stroke:#181818;stroke-width:1.0;"/><path d="M707.0438,442.1719 C706.1063,441.7344 705.5125,441.5938 704.6375,441.5938 C702.0125,441.5938 700.0125,443.6719 700.0125,446.3906 L700.0125,447.5156 C700.0125,450.0938 702.1219,451.9844 705.0125,451.9844 C706.2313,451.9844 707.3875,451.6875 708.1375,451.1406 C708.7156,450.7344 709.0438,450.2813 709.0438,449.8906 C709.0438,449.4375 708.6531,449.0469 708.1844,449.0469 C707.9656,449.0469 707.7625,449.125 707.575,449.3125 C707.1219,449.7969 707.1219,449.7969 706.9344,449.8906 C706.5125,450.1563 705.825,450.2813 705.0594,450.2813 C703.0125,450.2813 701.7156,449.1875 701.7156,447.4844 L701.7156,446.3906 C701.7156,444.6094 702.9656,443.2969 704.7,443.2969 C705.2781,443.2969 705.8875,443.4531 706.3563,443.7031 C706.8406,443.9844 707.0125,444.2031 707.1063,444.6094 C707.1688,445.0156 707.2,445.1406 707.3406,445.2656 C707.4813,445.4063 707.7156,445.5156 707.9344,445.5156 C708.2,445.5156 708.4656,445.375 708.6375,445.1563 C708.7469,445 708.7781,444.8125 708.7781,444.3906 L708.7781,442.9688 C708.7781,442.5313 708.7625,442.4063 708.6688,442.25 C708.5125,441.9844 708.2313,441.8438 707.9344,441.8438 C707.6375,441.8438 707.4344,441.9375 707.2156,442.25 L707.0438,442.1719 Z " fill="#000000"/><text fill="#000000" font-family="sans-serif" font-size="14" lengthAdjust="spacing" textLength="79" x="720.3" y="451.3467">RawTagger</text><line style="stroke:#181818;stroke-width:0.5;" x1="683.5" x2="808.5" y1="462.5" y2="462.5"/><line style="stroke:#181818;stroke-width:0.5;" x1="683.5" x2="808.5" y1="470.5" y2="470.5"/><ellipse cx="693.5" cy="484.1484" fill="#84BE84" rx="3" ry="3" style="stroke:#038048;stroke-width:1.0;"/><text fill="#000000" font-family="sans-serif" font-size="14" lengthAdjust="spacing" textLength="101" x="702.5" y="487.4951">Audio create()</text></g><!--class RawTaggerFactory--><g id="elem_RawTaggerFactory"><rect codeLine="98" fill="#F1F1F1" height="48" id="RawTaggerFactory" rx="2.5" ry="2.5" style="stroke:#181818;stroke-width:0.5;" width="165" x="646.5" y="677.5"/><ellipse cx="661.5" cy="693.5" fill="#ADD1B2" rx="11" ry="11" style="stroke:#181818;stroke-width:1.0;"/><path d="M663.8438,689.1719 C662.9063,688.7344 662.3125,688.5938 661.4375,688.5938 C658.8125,688.5938 656.8125,690.6719 656.8125,693.3906 L656.8125,694.5156 C656.8125,697.0938 658.9219,698.9844 661.8125,698.9844 C663.0313,698.9844 664.1875,698.6875 664.9375,698.1406 C665.5156,697.7344 665.8438,697.2813 665.8438,696.8906 C665.8438,696.4375 665.4531,696.0469 664.9844,696.0469 C664.7656,696.0469 664.5625,696.125 664.375,696.3125 C663.9219,696.7969 663.9219,696.7969 663.7344,696.8906 C663.3125,697.1563 662.625,697.2813 661.8594,697.2813 C659.8125,697.2813 658.5156,696.1875 658.5156,694.4844 L658.5156,693.3906 C658.5156,691.6094 659.7656,690.2969 661.5,690.2969 C662.0781,690.2969 662.6875,690.4531 663.1563,690.7031 C663.6406,690.9844 663.8125,691.2031 663.9063,691.6094 C663.9688,692.0156 664,692.1406 664.1406,692.2656 C664.2813,692.4063 664.5156,692.5156 664.7344,692.5156 C665,692.5156 665.2656,692.375 665.4375,692.1563 C665.5469,692 665.5781,691.8125 665.5781,691.3906 L665.5781,689.9688 C665.5781,689.5313 665.5625,689.4063 665.4688,689.25 C665.3125,688.9844 665.0313,688.8438 664.7344,688.8438 C664.4375,688.8438 664.2344,688.9375 664.0156,689.25 L663.8438,689.1719 Z " fill="#000000"/><text fill="#000000" font-family="sans-serif" font-size="14" lengthAdjust="spacing" textLength="133" x="675.5" y="698.3467">RawTaggerFactory</text><line style="stroke:#181818;stroke-width:0.5;" x1="647.5" x2="810.5" y1="709.5" y2="709.5"/><line style="stroke:#181818;stroke-width:0.5;" x1="647.5" x2="810.5" y1="717.5" y2="717.5"/></g><!--class AMTagger--><g id="elem_AMTagger"><rect codeLine="22" fill="#F1F1F1" height="129.4844" id="AMTagger" rx="2.5" ry="2.5" style="stroke:#181818;stroke-width:0.5;" width="589" x="844.5" y="398"/><ellipse cx="1098.75" cy="414" fill="#ADD1B2" rx="11" ry="11" style="stroke:#181818;stroke-width:1.0;"/><path d="M1101.0938,409.6719 C1100.1563,409.2344 1099.5625,409.0938 1098.6875,409.0938 C1096.0625,409.0938 1094.0625,411.1719 1094.0625,413.8906 L1094.0625,415.0156 C1094.0625,417.5938 1096.1719,419.4844 1099.0625,419.4844 C1100.2813,419.4844 1101.4375,419.1875 1102.1875,418.6406 C1102.7656,418.2344 1103.0938,417.7813 1103.0938,417.3906 C1103.0938,416.9375 1102.7031,416.5469 1102.2344,416.5469 C1102.0156,416.5469 1101.8125,416.625 1101.625,416.8125 C1101.1719,417.2969 1101.1719,417.2969 1100.9844,417.3906 C1100.5625,417.6563 1099.875,417.7813 1099.1094,417.7813 C1097.0625,417.7813 1095.7656,416.6875 1095.7656,414.9844 L1095.7656,413.8906 C1095.7656,412.1094 1097.0156,410.7969 1098.75,410.7969 C1099.3281,410.7969 1099.9375,410.9531 1100.4063,411.2031 C1100.8906,411.4844 1101.0625,411.7031 1101.1563,412.1094 C1101.2188,412.5156 1101.25,412.6406 1101.3906,412.7656 C1101.5313,412.9063 1101.7656,413.0156 1101.9844,413.0156 C1102.25,413.0156 1102.5156,412.875 1102.6875,412.6563 C1102.7969,412.5 1102.8281,412.3125 1102.8281,411.8906 L1102.8281,410.4688 C1102.8281,410.0313 1102.8125,409.9063 1102.7188,409.75 C1102.5625,409.4844 1102.2813,409.3438 1101.9844,409.3438 C1101.6875,409.3438 1101.4844,409.4375 1101.2656,409.75 L1101.0938,409.6719 Z " fill="#000000"/><text fill="#000000" font-family="sans-serif" font-size="14" lengthAdjust="spacing" textLength="72" x="1119.25" y="418.8467">AMTagger</text><line style="stroke:#181818;stroke-width:0.5;" x1="845.5" x2="1432.5" y1="430" y2="430"/><rect fill="none" height="6" style="stroke:#C82930;stroke-width:1.0;" width="6" x="852.5" y="440.6484"/><text fill="#000000" font-family="sans-serif" font-size="14" lengthAdjust="spacing" textLength="96" x="864.5" y="446.9951">int frequency</text><rect fill="none" height="6" style="stroke:#C82930;stroke-width:1.0;" width="6" x="852.5" y="456.9453"/><text fill="#000000" font-family="sans-serif" font-size="14" lengthAdjust="spacing" textLength="366" x="864.5" y="463.292">Callable[[int, int, int], NDArray[float] tag_generator</text><rect fill="none" height="6" style="stroke:#C82930;stroke-width:1.0;" width="6" x="852.5" y="473.2422"/><text fill="#000000" font-family="sans-serif" font-size="14" lengthAdjust="spacing" textLength="193" x="864.5" y="479.5889">[float, float] signal_interval</text><line style="stroke:#181818;stroke-width:0.5;" x1="845.5" x2="1432.5" y1="486.8906" y2="486.8906"/><ellipse cx="855.5" cy="500.5391" fill="#84BE84" rx="3" ry="3" style="stroke:#038048;stroke-width:1.0;"/><text fill="#000000" font-family="sans-serif" font-size="14" lengthAdjust="spacing" textLength="563" x="864.5" y="503.8857">ASSRTagger(audio, stimuli_intervals, frequency, tag_generator, signal_interval)</text><ellipse cx="855.5" cy="516.8359" fill="#84BE84" rx="3" ry="3" style="stroke:#038048;stroke-width:1.0;"/><text fill="#000000" font-family="sans-serif" font-size="14" lengthAdjust="spacing" textLength="101" x="864.5" y="520.1826">Audio create()</text></g><!--class FMTagger--><g id="elem_FMTagger"><rect codeLine="31" fill="#F1F1F1" height="194.6719" id="FMTagger" rx="2.5" ry="2.5" style="stroke:#181818;stroke-width:0.5;" width="841" x="1468.5" y="365"/><ellipse cx="1849.75" cy="381" fill="#ADD1B2" rx="11" ry="11" style="stroke:#181818;stroke-width:1.0;"/><path d="M1852.0938,376.6719 C1851.1563,376.2344 1850.5625,376.0938 1849.6875,376.0938 C1847.0625,376.0938 1845.0625,378.1719 1845.0625,380.8906 L1845.0625,382.0156 C1845.0625,384.5938 1847.1719,386.4844 1850.0625,386.4844 C1851.2813,386.4844 1852.4375,386.1875 1853.1875,385.6406 C1853.7656,385.2344 1854.0938,384.7813 1854.0938,384.3906 C1854.0938,383.9375 1853.7031,383.5469 1853.2344,383.5469 C1853.0156,383.5469 1852.8125,383.625 1852.625,383.8125 C1852.1719,384.2969 1852.1719,384.2969 1851.9844,384.3906 C1851.5625,384.6563 1850.875,384.7813 1850.1094,384.7813 C1848.0625,384.7813 1846.7656,383.6875 1846.7656,381.9844 L1846.7656,380.8906 C1846.7656,379.1094 1848.0156,377.7969 1849.75,377.7969 C1850.3281,377.7969 1850.9375,377.9531 1851.4063,378.2031 C1851.8906,378.4844 1852.0625,378.7031 1852.1563,379.1094 C1852.2188,379.5156 1852.25,379.6406 1852.3906,379.7656 C1852.5313,379.9063 1852.7656,380.0156 1852.9844,380.0156 C1853.25,380.0156 1853.5156,379.875 1853.6875,379.6563 C1853.7969,379.5 1853.8281,379.3125 1853.8281,378.8906 L1853.8281,377.4688 C1853.8281,377.0313 1853.8125,376.9063 1853.7188,376.75 C1853.5625,376.4844 1853.2813,376.3438 1852.9844,376.3438 C1852.6875,376.3438 1852.4844,376.4375 1852.2656,376.75 L1852.0938,376.6719 Z " fill="#000000"/><text fill="#000000" font-family="sans-serif" font-size="14" lengthAdjust="spacing" textLength="70" x="1870.25" y="385.8467">FMTagger</text><line style="stroke:#181818;stroke-width:0.5;" x1="1469.5" x2="2308.5" y1="397" y2="397"/><rect fill="none" height="6" style="stroke:#C82930;stroke-width:1.0;" width="6" x="1476.5" y="407.6484"/><text fill="#000000" font-family="sans-serif" font-size="14" lengthAdjust="spacing" textLength="96" x="1488.5" y="413.9951">int frequency</text><rect fill="none" height="6" style="stroke:#C82930;stroke-width:1.0;" width="6" x="1476.5" y="423.9453"/><text fill="#000000" font-family="sans-serif" font-size="14" lengthAdjust="spacing" textLength="170" x="1488.5" y="430.292">float modulation_factor</text><line style="stroke:#181818;stroke-width:0.5;" x1="1469.5" x2="2308.5" y1="437.5938" y2="437.5938"/><ellipse cx="1479.5" cy="451.2422" fill="#84BE84" rx="3" ry="3" style="stroke:#038048;stroke-width:1.0;"/><text fill="#000000" font-family="sans-serif" font-size="14" lengthAdjust="spacing" textLength="463" x="1488.5" y="454.5889">FMTagger(audio, stimuli_intervals, frequency, modulation_factor)</text><ellipse cx="1479.5" cy="467.5391" fill="#84BE84" rx="3" ry="3" style="stroke:#038048;stroke-width:1.0;"/><text fill="#000000" font-family="sans-serif" font-size="14" lengthAdjust="spacing" textLength="101" x="1488.5" y="470.8857">Audio create()</text><rect fill="#F24D5C" height="6" style="stroke:#C82930;stroke-width:1.0;" width="6" x="1476.5" y="480.8359"/><text fill="#000000" font-family="sans-serif" font-size="14" lengthAdjust="spacing" text-decoration="underline" textLength="634" x="1488.5" y="487.1826">(NDArray[Real], NDArray[Real]) extract_amplitudes_phases(numbers: NDArray[Complex])</text><rect fill="#F24D5C" height="6" style="stroke:#C82930;stroke-width:1.0;" width="6" x="1476.5" y="497.1328"/><text fill="#000000" font-family="sans-serif" font-size="14" lengthAdjust="spacing" text-decoration="underline" textLength="660" x="1488.5" y="503.4795">NDArray[Complex] get_complex_number(amplitudes: NDArray[Real], phases: NDArray[Real])</text><rect fill="#F24D5C" height="6" style="stroke:#C82930;stroke-width:1.0;" width="6" x="1476.5" y="513.4297"/><text fill="#000000" font-family="sans-serif" font-size="14" lengthAdjust="spacing" textLength="545" x="1488.5" y="519.7764">NDArray[Real] phases_to_instantaneous_frequencies(phases: NDArray[Real])</text><rect fill="#F24D5C" height="6" style="stroke:#C82930;stroke-width:1.0;" width="6" x="1476.5" y="529.7266"/><text fill="#000000" font-family="sans-serif" font-size="14" lengthAdjust="spacing" textLength="815" x="1488.5" y="536.0732">NDArray[Real] instantaneous_frequencies_to_phases(instantaneous_frequencies: NDArray[Real], first_phase: Real)</text><rect fill="#F24D5C" height="6" style="stroke:#C82930;stroke-width:1.0;" width="6" x="1476.5" y="546.0234"/><text fill="#000000" font-family="sans-serif" font-size="14" lengthAdjust="spacing" textLength="372" x="1488.5" y="552.3701">NDArray[float32] modulate(signal: NDArray[float32])</text></g><!--class FlippedFMTagger--><g id="elem_FlippedFMTagger"><rect codeLine="45" fill="#F1F1F1" height="96.8906" id="FlippedFMTagger" rx="2.5" ry="2.5" style="stroke:#181818;stroke-width:0.5;" width="403" x="2344.5" y="414"/><ellipse cx="2479.75" cy="430" fill="#ADD1B2" rx="11" ry="11" style="stroke:#181818;stroke-width:1.0;"/><path d="M2482.0938,425.6719 C2481.1563,425.2344 2480.5625,425.0938 2479.6875,425.0938 C2477.0625,425.0938 2475.0625,427.1719 2475.0625,429.8906 L2475.0625,431.0156 C2475.0625,433.5938 2477.1719,435.4844 2480.0625,435.4844 C2481.2813,435.4844 2482.4375,435.1875 2483.1875,434.6406 C2483.7656,434.2344 2484.0938,433.7813 2484.0938,433.3906 C2484.0938,432.9375 2483.7031,432.5469 2483.2344,432.5469 C2483.0156,432.5469 2482.8125,432.625 2482.625,432.8125 C2482.1719,433.2969 2482.1719,433.2969 2481.9844,433.3906 C2481.5625,433.6563 2480.875,433.7813 2480.1094,433.7813 C2478.0625,433.7813 2476.7656,432.6875 2476.7656,430.9844 L2476.7656,429.8906 C2476.7656,428.1094 2478.0156,426.7969 2479.75,426.7969 C2480.3281,426.7969 2480.9375,426.9531 2481.4063,427.2031 C2481.8906,427.4844 2482.0625,427.7031 2482.1563,428.1094 C2482.2188,428.5156 2482.25,428.6406 2482.3906,428.7656 C2482.5313,428.9063 2482.7656,429.0156 2482.9844,429.0156 C2483.25,429.0156 2483.5156,428.875 2483.6875,428.6563 C2483.7969,428.5 2483.8281,428.3125 2483.8281,427.8906 L2483.8281,426.4688 C2483.8281,426.0313 2483.8125,425.9063 2483.7188,425.75 C2483.5625,425.4844 2483.2813,425.3438 2482.9844,425.3438 C2482.6875,425.3438 2482.4844,425.4375 2482.2656,425.75 L2482.0938,425.6719 Z " fill="#000000"/><text fill="#000000" font-family="sans-serif" font-size="14" lengthAdjust="spacing" textLength="124" x="2500.25" y="434.8467">FlippedFMTagger</text><line style="stroke:#181818;stroke-width:0.5;" x1="2345.5" x2="2746.5" y1="446" y2="446"/><rect fill="none" height="6" style="stroke:#C82930;stroke-width:1.0;" width="6" x="2352.5" y="456.6484"/><text fill="#000000" font-family="sans-serif" font-size="14" lengthAdjust="spacing" textLength="96" x="2364.5" y="462.9951">int frequency</text><line style="stroke:#181818;stroke-width:0.5;" x1="2345.5" x2="2746.5" y1="470.2969" y2="470.2969"/><ellipse cx="2355.5" cy="483.9453" fill="#84BE84" rx="3" ry="3" style="stroke:#038048;stroke-width:1.0;"/><text fill="#000000" font-family="sans-serif" font-size="14" lengthAdjust="spacing" textLength="377" x="2364.5" y="487.292">FlippedFMTagger(audio, stimuli_intervals, frequency)</text><ellipse cx="2355.5" cy="500.2422" fill="#84BE84" rx="3" ry="3" style="stroke:#038048;stroke-width:1.0;"/><text fill="#000000" font-family="sans-serif" font-size="14" lengthAdjust="spacing" textLength="101" x="2364.5" y="503.5889">Audio create()</text></g><!--class AMTaggerFactory--><g id="elem_AMTaggerFactory"><rect codeLine="53" fill="#F1F1F1" height="129.4844" id="AMTaggerFactory" rx="2.5" ry="2.5" style="stroke:#181818;stroke-width:0.5;" width="456" x="1189" y="637"/><ellipse cx="1349.75" cy="653" fill="#ADD1B2" rx="11" ry="11" style="stroke:#181818;stroke-width:1.0;"/><path d="M1352.0938,648.6719 C1351.1563,648.2344 1350.5625,648.0938 1349.6875,648.0938 C1347.0625,648.0938 1345.0625,650.1719 1345.0625,652.8906 L1345.0625,654.0156 C1345.0625,656.5938 1347.1719,658.4844 1350.0625,658.4844 C1351.2813,658.4844 1352.4375,658.1875 1353.1875,657.6406 C1353.7656,657.2344 1354.0938,656.7813 1354.0938,656.3906 C1354.0938,655.9375 1353.7031,655.5469 1353.2344,655.5469 C1353.0156,655.5469 1352.8125,655.625 1352.625,655.8125 C1352.1719,656.2969 1352.1719,656.2969 1351.9844,656.3906 C1351.5625,656.6563 1350.875,656.7813 1350.1094,656.7813 C1348.0625,656.7813 1346.7656,655.6875 1346.7656,653.9844 L1346.7656,652.8906 C1346.7656,651.1094 1348.0156,649.7969 1349.75,649.7969 C1350.3281,649.7969 1350.9375,649.9531 1351.4063,650.2031 C1351.8906,650.4844 1352.0625,650.7031 1352.1563,651.1094 C1352.2188,651.5156 1352.25,651.6406 1352.3906,651.7656 C1352.5313,651.9063 1352.7656,652.0156 1352.9844,652.0156 C1353.25,652.0156 1353.5156,651.875 1353.6875,651.6563 C1353.7969,651.5 1353.8281,651.3125 1353.8281,650.8906 L1353.8281,649.4688 C1353.8281,649.0313 1353.8125,648.9063 1353.7188,648.75 C1353.5625,648.4844 1353.2813,648.3438 1352.9844,648.3438 C1352.6875,648.3438 1352.4844,648.4375 1352.2656,648.75 L1352.0938,648.6719 Z " fill="#000000"/><text fill="#000000" font-family="sans-serif" font-size="14" lengthAdjust="spacing" textLength="126" x="1370.25" y="657.8467">AMTaggerFactory</text><line style="stroke:#181818;stroke-width:0.5;" x1="1190" x2="1644" y1="669" y2="669"/><rect fill="none" height="6" style="stroke:#C82930;stroke-width:1.0;" width="6" x="1197" y="679.6484"/><text fill="#000000" font-family="sans-serif" font-size="14" lengthAdjust="spacing" textLength="96" x="1209" y="685.9951">int frequency</text><rect fill="none" height="6" style="stroke:#C82930;stroke-width:1.0;" width="6" x="1197" y="695.9453"/><text fill="#000000" font-family="sans-serif" font-size="14" lengthAdjust="spacing" textLength="371" x="1209" y="702.292">Callable[[int, int, int], NDArray[float]] tag_generator</text><line style="stroke:#181818;stroke-width:0.5;" x1="1190" x2="1644" y1="709.5938" y2="709.5938"/><rect fill="#F24D5C" height="6" style="stroke:#C82930;stroke-width:1.0;" width="6" x="1197" y="720.2422"/><text fill="#000000" font-family="sans-serif" font-size="14" lengthAdjust="spacing" textLength="193" x="1209" y="726.5889">(float, float) signal_interval</text><text fill="#000000" font-family="sans-serif" font-size="14" lengthAdjust="spacing" textLength="4" x="1209" y="742.8857">&#160;</text><ellipse cx="1200" cy="755.8359" fill="#84BE84" rx="3" ry="3" style="stroke:#038048;stroke-width:1.0;"/><text fill="#000000" font-family="sans-serif" font-size="14" lengthAdjust="spacing" textLength="430" x="1209" y="759.1826">AMTaggerFactory(frequency, tag_generator, signal_interval)</text></g><!--class FlippedFMTaggerFactory--><g id="elem_FlippedFMTaggerFactory"><rect codeLine="61" fill="#F1F1F1" height="80.5938" id="FlippedFMTaggerFactory" rx="2.5" ry="2.5" style="stroke:#181818;stroke-width:0.5;" width="286" x="2131" y="661"/><ellipse cx="2180.75" cy="677" fill="#ADD1B2" rx="11" ry="11" style="stroke:#181818;stroke-width:1.0;"/><path d="M2183.0938,672.6719 C2182.1563,672.2344 2181.5625,672.0938 2180.6875,672.0938 C2178.0625,672.0938 2176.0625,674.1719 2176.0625,676.8906 L2176.0625,678.0156 C2176.0625,680.5938 2178.1719,682.4844 2181.0625,682.4844 C2182.2813,682.4844 2183.4375,682.1875 2184.1875,681.6406 C2184.7656,681.2344 2185.0938,680.7813 2185.0938,680.3906 C2185.0938,679.9375 2184.7031,679.5469 2184.2344,679.5469 C2184.0156,679.5469 2183.8125,679.625 2183.625,679.8125 C2183.1719,680.2969 2183.1719,680.2969 2182.9844,680.3906 C2182.5625,680.6563 2181.875,680.7813 2181.1094,680.7813 C2179.0625,680.7813 2177.7656,679.6875 2177.7656,677.9844 L2177.7656,676.8906 C2177.7656,675.1094 2179.0156,673.7969 2180.75,673.7969 C2181.3281,673.7969 2181.9375,673.9531 2182.4063,674.2031 C2182.8906,674.4844 2183.0625,674.7031 2183.1563,675.1094 C2183.2188,675.5156 2183.25,675.6406 2183.3906,675.7656 C2183.5313,675.9063 2183.7656,676.0156 2183.9844,676.0156 C2184.25,676.0156 2184.5156,675.875 2184.6875,675.6563 C2184.7969,675.5 2184.8281,675.3125 2184.8281,674.8906 L2184.8281,673.4688 C2184.8281,673.0313 2184.8125,672.9063 2184.7188,672.75 C2184.5625,672.4844 2184.2813,672.3438 2183.9844,672.3438 C2183.6875,672.3438 2183.4844,672.4375 2183.2656,672.75 L2183.0938,672.6719 Z " fill="#000000"/><text fill="#000000" font-family="sans-serif" font-size="14" lengthAdjust="spacing" textLength="178" x="2201.25" y="681.8467">FlippedFMTaggerFactory</text><line style="stroke:#181818;stroke-width:0.5;" x1="2132" x2="2416" y1="693" y2="693"/><rect fill="none" height="6" style="stroke:#C82930;stroke-width:1.0;" width="6" x="2139" y="703.6484"/><text fill="#000000" font-family="sans-serif" font-size="14" lengthAdjust="spacing" textLength="96" x="2151" y="709.9951">int frequency</text><line style="stroke:#181818;stroke-width:0.5;" x1="2132" x2="2416" y1="717.2969" y2="717.2969"/><ellipse cx="2142" cy="730.9453" fill="#84BE84" rx="3" ry="3" style="stroke:#038048;stroke-width:1.0;"/><text fill="#000000" font-family="sans-serif" font-size="14" lengthAdjust="spacing" textLength="260" x="2151" y="734.292">FlippedFMTaggerFactory(frequency)</text></g><!--class FMTaggerFactory--><g id="elem_FMTaggerFactory"><rect codeLine="67" fill="#F1F1F1" height="80.5938" id="FMTaggerFactory" rx="2.5" ry="2.5" style="stroke:#181818;stroke-width:0.5;" width="232" x="1773" y="661"/><ellipse cx="1822.75" cy="677" fill="#ADD1B2" rx="11" ry="11" style="stroke:#181818;stroke-width:1.0;"/><path d="M1825.0938,672.6719 C1824.1563,672.2344 1823.5625,672.0938 1822.6875,672.0938 C1820.0625,672.0938 1818.0625,674.1719 1818.0625,676.8906 L1818.0625,678.0156 C1818.0625,680.5938 1820.1719,682.4844 1823.0625,682.4844 C1824.2813,682.4844 1825.4375,682.1875 1826.1875,681.6406 C1826.7656,681.2344 1827.0938,680.7813 1827.0938,680.3906 C1827.0938,679.9375 1826.7031,679.5469 1826.2344,679.5469 C1826.0156,679.5469 1825.8125,679.625 1825.625,679.8125 C1825.1719,680.2969 1825.1719,680.2969 1824.9844,680.3906 C1824.5625,680.6563 1823.875,680.7813 1823.1094,680.7813 C1821.0625,680.7813 1819.7656,679.6875 1819.7656,677.9844 L1819.7656,676.8906 C1819.7656,675.1094 1821.0156,673.7969 1822.75,673.7969 C1823.3281,673.7969 1823.9375,673.9531 1824.4063,674.2031 C1824.8906,674.4844 1825.0625,674.7031 1825.1563,675.1094 C1825.2188,675.5156 1825.25,675.6406 1825.3906,675.7656 C1825.5313,675.9063 1825.7656,676.0156 1825.9844,676.0156 C1826.25,676.0156 1826.5156,675.875 1826.6875,675.6563 C1826.7969,675.5 1826.8281,675.3125 1826.8281,674.8906 L1826.8281,673.4688 C1826.8281,673.0313 1826.8125,672.9063 1826.7188,672.75 C1826.5625,672.4844 1826.2813,672.3438 1825.9844,672.3438 C1825.6875,672.3438 1825.4844,672.4375 1825.2656,672.75 L1825.0938,672.6719 Z " fill="#000000"/><text fill="#000000" font-family="sans-serif" font-size="14" lengthAdjust="spacing" textLength="124" x="1843.25" y="681.8467">FMTaggerFactory</text><line style="stroke:#181818;stroke-width:0.5;" x1="1774" x2="2004" y1="693" y2="693"/><rect fill="none" height="6" style="stroke:#C82930;stroke-width:1.0;" width="6" x="1781" y="703.6484"/><text fill="#000000" font-family="sans-serif" font-size="14" lengthAdjust="spacing" textLength="96" x="1793" y="709.9951">int frequency</text><line style="stroke:#181818;stroke-width:0.5;" x1="1774" x2="2004" y1="717.2969" y2="717.2969"/><ellipse cx="1784" cy="730.9453" fill="#84BE84" rx="3" ry="3" style="stroke:#038048;stroke-width:1.0;"/><text fill="#000000" font-family="sans-serif" font-size="14" lengthAdjust="spacing" textLength="206" x="1793" y="734.292">FMTaggerFactory(frequency)</text></g><!--class ShiftSumTagger--><g id="elem_ShiftSumTagger"><rect codeLine="102" fill="#F1F1F1" height="96.8906" id="ShiftSumTagger" rx="2.5" ry="2.5" style="stroke:#181818;stroke-width:0.5;" width="381" x="2804.5" y="414"/><ellipse cx="2932.75" cy="430" fill="#ADD1B2" rx="11" ry="11" style="stroke:#181818;stroke-width:1.0;"/><path d="M2935.0938,425.6719 C2934.1563,425.2344 2933.5625,425.0938 2932.6875,425.0938 C2930.0625,425.0938 2928.0625,427.1719 2928.0625,429.8906 L2928.0625,431.0156 C2928.0625,433.5938 2930.1719,435.4844 2933.0625,435.4844 C2934.2813,435.4844 2935.4375,435.1875 2936.1875,434.6406 C2936.7656,434.2344 2937.0938,433.7813 2937.0938,433.3906 C2937.0938,432.9375 2936.7031,432.5469 2936.2344,432.5469 C2936.0156,432.5469 2935.8125,432.625 2935.625,432.8125 C2935.1719,433.2969 2935.1719,433.2969 2934.9844,433.3906 C2934.5625,433.6563 2933.875,433.7813 2933.1094,433.7813 C2931.0625,433.7813 2929.7656,432.6875 2929.7656,430.9844 L2929.7656,429.8906 C2929.7656,428.1094 2931.0156,426.7969 2932.75,426.7969 C2933.3281,426.7969 2933.9375,426.9531 2934.4063,427.2031 C2934.8906,427.4844 2935.0625,427.7031 2935.1563,428.1094 C2935.2188,428.5156 2935.25,428.6406 2935.3906,428.7656 C2935.5313,428.9063 2935.7656,429.0156 2935.9844,429.0156 C2936.25,429.0156 2936.5156,428.875 2936.6875,428.6563 C2936.7969,428.5 2936.8281,428.3125 2936.8281,427.8906 L2936.8281,426.4688 C2936.8281,426.0313 2936.8125,425.9063 2936.7188,425.75 C2936.5625,425.4844 2936.2813,425.3438 2935.9844,425.3438 C2935.6875,425.3438 2935.4844,425.4375 2935.2656,425.75 L2935.0938,425.6719 Z " fill="#000000"/><text fill="#000000" font-family="sans-serif" font-size="14" lengthAdjust="spacing" textLength="116" x="2953.25" y="434.8467">ShiftSumTagger</text><line style="stroke:#181818;stroke-width:0.5;" x1="2805.5" x2="3184.5" y1="446" y2="446"/><rect fill="none" height="6" style="stroke:#C82930;stroke-width:1.0;" width="6" x="2812.5" y="456.6484"/><text fill="#000000" font-family="sans-serif" font-size="14" lengthAdjust="spacing" textLength="82" x="2824.5" y="462.9951">int shift_by</text><line style="stroke:#181818;stroke-width:0.5;" x1="2805.5" x2="3184.5" y1="470.2969" y2="470.2969"/><ellipse cx="2815.5" cy="483.9453" fill="#84BE84" rx="3" ry="3" style="stroke:#038048;stroke-width:1.0;"/><text fill="#000000" font-family="sans-serif" font-size="14" lengthAdjust="spacing" textLength="355" x="2824.5" y="487.292">ShiftSumTagger(audio, stimuli_intervals, shift_by)</text><ellipse cx="2815.5" cy="500.2422" fill="#84BE84" rx="3" ry="3" style="stroke:#038048;stroke-width:1.0;"/><text fill="#000000" font-family="sans-serif" font-size="14" lengthAdjust="spacing" textLength="101" x="2824.5" y="503.5889">Audio create()</text></g><!--class ShiftSumTaggerFactory--><g id="elem_ShiftSumTaggerFactory"><rect codeLine="109" fill="#F1F1F1" height="80.5938" id="ShiftSumTaggerFactory" rx="2.5" ry="2.5" style="stroke:#181818;stroke-width:0.5;" width="264" x="2819" y="661"/><ellipse cx="2861.9" cy="677" fill="#ADD1B2" rx="11" ry="11" style="stroke:#181818;stroke-width:1.0;"/><path d="M2864.2438,672.6719 C2863.3063,672.2344 2862.7125,672.0938 2861.8375,672.0938 C2859.2125,672.0938 2857.2125,674.1719 2857.2125,676.8906 L2857.2125,678.0156 C2857.2125,680.5938 2859.3219,682.4844 2862.2125,682.4844 C2863.4313,682.4844 2864.5875,682.1875 2865.3375,681.6406 C2865.9156,681.2344 2866.2438,680.7813 2866.2438,680.3906 C2866.2438,679.9375 2865.8531,679.5469 2865.3844,679.5469 C2865.1656,679.5469 2864.9625,679.625 2864.775,679.8125 C2864.3219,680.2969 2864.3219,680.2969 2864.1344,680.3906 C2863.7125,680.6563 2863.025,680.7813 2862.2594,680.7813 C2860.2125,680.7813 2858.9156,679.6875 2858.9156,677.9844 L2858.9156,676.8906 C2858.9156,675.1094 2860.1656,673.7969 2861.9,673.7969 C2862.4781,673.7969 2863.0875,673.9531 2863.5563,674.2031 C2864.0406,674.4844 2864.2125,674.7031 2864.3063,675.1094 C2864.3688,675.5156 2864.4,675.6406 2864.5406,675.7656 C2864.6813,675.9063 2864.9156,676.0156 2865.1344,676.0156 C2865.4,676.0156 2865.6656,675.875 2865.8375,675.6563 C2865.9469,675.5 2865.9781,675.3125 2865.9781,674.8906 L2865.9781,673.4688 C2865.9781,673.0313 2865.9625,672.9063 2865.8688,672.75 C2865.7125,672.4844 2865.4313,672.3438 2865.1344,672.3438 C2864.8375,672.3438 2864.6344,672.4375 2864.4156,672.75 L2864.2438,672.6719 Z " fill="#000000"/><text fill="#000000" font-family="sans-serif" font-size="14" lengthAdjust="spacing" textLength="170" x="2882.1" y="681.8467">ShiftSumTaggerFactory</text><line style="stroke:#181818;stroke-width:0.5;" x1="2820" x2="3082" y1="693" y2="693"/><rect fill="none" height="6" style="stroke:#C82930;stroke-width:1.0;" width="6" x="2827" y="703.6484"/><text fill="#000000" font-family="sans-serif" font-size="14" lengthAdjust="spacing" textLength="82" x="2839" y="709.9951">int shift_by</text><line style="stroke:#181818;stroke-width:0.5;" x1="2820" x2="3082" y1="717.2969" y2="717.2969"/><ellipse cx="2830" cy="730.9453" fill="#84BE84" rx="3" ry="3" style="stroke:#038048;stroke-width:1.0;"/><text fill="#000000" font-family="sans-serif" font-size="14" lengthAdjust="spacing" textLength="238" x="2839" y="734.292">ShiftSumTaggerFactory(shift_by)</text></g><!--class SpectrumShiftTagger--><g id="elem_SpectrumShiftTagger"><rect codeLine="114" fill="#F1F1F1" height="96.8906" id="SpectrumShiftTagger" rx="2.5" ry="2.5" style="stroke:#181818;stroke-width:0.5;" width="421" x="3220.5" y="414"/><ellipse cx="3348.75" cy="430" fill="#ADD1B2" rx="11" ry="11" style="stroke:#181818;stroke-width:1.0;"/><path d="M3351.0938,425.6719 C3350.1563,425.2344 3349.5625,425.0938 3348.6875,425.0938 C3346.0625,425.0938 3344.0625,427.1719 3344.0625,429.8906 L3344.0625,431.0156 C3344.0625,433.5938 3346.1719,435.4844 3349.0625,435.4844 C3350.2813,435.4844 3351.4375,435.1875 3352.1875,434.6406 C3352.7656,434.2344 3353.0938,433.7813 3353.0938,433.3906 C3353.0938,432.9375 3352.7031,432.5469 3352.2344,432.5469 C3352.0156,432.5469 3351.8125,432.625 3351.625,432.8125 C3351.1719,433.2969 3351.1719,433.2969 3350.9844,433.3906 C3350.5625,433.6563 3349.875,433.7813 3349.1094,433.7813 C3347.0625,433.7813 3345.7656,432.6875 3345.7656,430.9844 L3345.7656,429.8906 C3345.7656,428.1094 3347.0156,426.7969 3348.75,426.7969 C3349.3281,426.7969 3349.9375,426.9531 3350.4063,427.2031 C3350.8906,427.4844 3351.0625,427.7031 3351.1563,428.1094 C3351.2188,428.5156 3351.25,428.6406 3351.3906,428.7656 C3351.5313,428.9063 3351.7656,429.0156 3351.9844,429.0156 C3352.25,429.0156 3352.5156,428.875 3352.6875,428.6563 C3352.7969,428.5 3352.8281,428.3125 3352.8281,427.8906 L3352.8281,426.4688 C3352.8281,426.0313 3352.8125,425.9063 3352.7188,425.75 C3352.5625,425.4844 3352.2813,425.3438 3351.9844,425.3438 C3351.6875,425.3438 3351.4844,425.4375 3351.2656,425.75 L3351.0938,425.6719 Z " fill="#000000"/><text fill="#000000" font-family="sans-serif" font-size="14" lengthAdjust="spacing" textLength="156" x="3369.25" y="434.8467">SpectrumShiftTagger</text><line style="stroke:#181818;stroke-width:0.5;" x1="3221.5" x2="3640.5" y1="446" y2="446"/><rect fill="none" height="6" style="stroke:#C82930;stroke-width:1.0;" width="6" x="3228.5" y="456.6484"/><text fill="#000000" font-family="sans-serif" font-size="14" lengthAdjust="spacing" textLength="82" x="3240.5" y="462.9951">int shift_by</text><line style="stroke:#181818;stroke-width:0.5;" x1="3221.5" x2="3640.5" y1="470.2969" y2="470.2969"/><ellipse cx="3231.5" cy="483.9453" fill="#84BE84" rx="3" ry="3" style="stroke:#038048;stroke-width:1.0;"/><text fill="#000000" font-family="sans-serif" font-size="14" lengthAdjust="spacing" textLength="395" x="3240.5" y="487.292">SpectrumShiftTagger(audio, stimuli_intervals, shift_by)</text><ellipse cx="3231.5" cy="500.2422" fill="#84BE84" rx="3" ry="3" style="stroke:#038048;stroke-width:1.0;"/><text fill="#000000" font-family="sans-serif" font-size="14" lengthAdjust="spacing" textLength="101" x="3240.5" y="503.5889">Audio create()</text></g><!--class SpectrumShiftTaggerFactory--><g id="elem_SpectrumShiftTaggerFactory"><rect codeLine="121" fill="#F1F1F1" height="80.5938" id="SpectrumShiftTaggerFactory" rx="2.5" ry="2.5" style="stroke:#181818;stroke-width:0.5;" width="304" x="3154" y="661"/><ellipse cx="3196.9" cy="677" fill="#ADD1B2" rx="11" ry="11" style="stroke:#181818;stroke-width:1.0;"/><path d="M3199.2438,672.6719 C3198.3063,672.2344 3197.7125,672.0938 3196.8375,672.0938 C3194.2125,672.0938 3192.2125,674.1719 3192.2125,676.8906 L3192.2125,678.0156 C3192.2125,680.5938 3194.3219,682.4844 3197.2125,682.4844 C3198.4313,682.4844 3199.5875,682.1875 3200.3375,681.6406 C3200.9156,681.2344 3201.2438,680.7813 3201.2438,680.3906 C3201.2438,679.9375 3200.8531,679.5469 3200.3844,679.5469 C3200.1656,679.5469 3199.9625,679.625 3199.775,679.8125 C3199.3219,680.2969 3199.3219,680.2969 3199.1344,680.3906 C3198.7125,680.6563 3198.025,680.7813 3197.2594,680.7813 C3195.2125,680.7813 3193.9156,679.6875 3193.9156,677.9844 L3193.9156,676.8906 C3193.9156,675.1094 3195.1656,673.7969 3196.9,673.7969 C3197.4781,673.7969 3198.0875,673.9531 3198.5563,674.2031 C3199.0406,674.4844 3199.2125,674.7031 3199.3063,675.1094 C3199.3688,675.5156 3199.4,675.6406 3199.5406,675.7656 C3199.6813,675.9063 3199.9156,676.0156 3200.1344,676.0156 C3200.4,676.0156 3200.6656,675.875 3200.8375,675.6563 C3200.9469,675.5 3200.9781,675.3125 3200.9781,674.8906 L3200.9781,673.4688 C3200.9781,673.0313 3200.9625,672.9063 3200.8688,672.75 C3200.7125,672.4844 3200.4313,672.3438 3200.1344,672.3438 C3199.8375,672.3438 3199.6344,672.4375 3199.4156,672.75 L3199.2438,672.6719 Z " fill="#000000"/><text fill="#000000" font-family="sans-serif" font-size="14" lengthAdjust="spacing" textLength="210" x="3217.1" y="681.8467">SpectrumShiftTaggerFactory</text><line style="stroke:#181818;stroke-width:0.5;" x1="3155" x2="3457" y1="693" y2="693"/><rect fill="none" height="6" style="stroke:#C82930;stroke-width:1.0;" width="6" x="3162" y="703.6484"/><text fill="#000000" font-family="sans-serif" font-size="14" lengthAdjust="spacing" textLength="82" x="3174" y="709.9951">int shift_by</text><line style="stroke:#181818;stroke-width:0.5;" x1="3155" x2="3457" y1="717.2969" y2="717.2969"/><ellipse cx="3165" cy="730.9453" fill="#84BE84" rx="3" ry="3" style="stroke:#038048;stroke-width:1.0;"/><text fill="#000000" font-family="sans-serif" font-size="14" lengthAdjust="spacing" textLength="278" x="3174" y="734.292">SpectrumShiftTaggerFactory(shift_by)</text></g><!--class Audio--><g id="elem_Audio"><rect codeLine="1" fill="#F1F1F1" height="80.5938" id="Audio" rx="2.5" ry="2.5" style="stroke:#181818;stroke-width:0.5;" width="194" x="1792" y="7"/><ellipse cx="1864.75" cy="23" fill="#ADD1B2" rx="11" ry="11" style="stroke:#181818;stroke-width:1.0;"/><path d="M1867.0938,18.6719 C1866.1563,18.2344 1865.5625,18.0938 1864.6875,18.0938 C1862.0625,18.0938 1860.0625,20.1719 1860.0625,22.8906 L1860.0625,24.0156 C1860.0625,26.5938 1862.1719,28.4844 1865.0625,28.4844 C1866.2813,28.4844 1867.4375,28.1875 1868.1875,27.6406 C1868.7656,27.2344 1869.0938,26.7813 1869.0938,26.3906 C1869.0938,25.9375 1868.7031,25.5469 1868.2344,25.5469 C1868.0156,25.5469 1867.8125,25.625 1867.625,25.8125 C1867.1719,26.2969 1867.1719,26.2969 1866.9844,26.3906 C1866.5625,26.6563 1865.875,26.7813 1865.1094,26.7813 C1863.0625,26.7813 1861.7656,25.6875 1861.7656,23.9844 L1861.7656,22.8906 C1861.7656,21.1094 1863.0156,19.7969 1864.75,19.7969 C1865.3281,19.7969 1865.9375,19.9531 1866.4063,20.2031 C1866.8906,20.4844 1867.0625,20.7031 1867.1563,21.1094 C1867.2188,21.5156 1867.25,21.6406 1867.3906,21.7656 C1867.5313,21.9063 1867.7656,22.0156 1867.9844,22.0156 C1868.25,22.0156 1868.5156,21.875 1868.6875,21.6563 C1868.7969,21.5 1868.8281,21.3125 1868.8281,20.8906 L1868.8281,19.4688 C1868.8281,19.0313 1868.8125,18.9063 1868.7188,18.75 C1868.5625,18.4844 1868.2813,18.3438 1867.9844,18.3438 C1867.6875,18.3438 1867.4844,18.4375 1867.2656,18.75 L1867.0938,18.6719 Z " fill="#000000"/><text fill="#000000" font-family="sans-serif" font-size="14" lengthAdjust="spacing" textLength="40" x="1885.25" y="27.8467">Audio</text><line style="stroke:#181818;stroke-width:0.5;" x1="1793" x2="1985" y1="39" y2="39"/><ellipse cx="1803" cy="52.6484" fill="none" rx="3" ry="3" style="stroke:#038048;stroke-width:1.0;"/><text fill="#000000" font-family="sans-serif" font-size="14" lengthAdjust="spacing" textLength="143" x="1812" y="55.9951">NDArray[float] array</text><ellipse cx="1803" cy="68.9453" fill="none" rx="3" ry="3" style="stroke:#038048;stroke-width:1.0;"/><text fill="#000000" font-family="sans-serif" font-size="14" lengthAdjust="spacing" textLength="168" x="1812" y="72.292">int sampling_frequency</text><line style="stroke:#181818;stroke-width:0.5;" x1="1793" x2="1985" y1="79.5938" y2="79.5938"/></g><!--link Audio to AAudioTagger--><g id="link_Audio_AAudioTagger"><path codeLine="14" d="M1889,88.187 C1889,116.747 1889,143.408 1889,173.673 " fill="none" id="Audio-to-AAudioTagger" style="stroke:#181818;stroke-width:1.0;"/><polygon fill="#181818" points="1889,185.673,1893,179.673,1889,173.673,1885,179.673,1889,185.673" style="stroke:#181818;stroke-width:1.0;"/><text fill="#000000" font-family="sans-serif" font-size="13" lengthAdjust="spacing" textLength="35" x="1890" y="131.0669">audio</text><text fill="#000000" font-family="sans-serif" font-size="13" lengthAdjust="spacing" textLength="8" x="1880.3875" y="107.6738">1</text><text fill="#000000" font-family="sans-serif" font-size="13" lengthAdjust="spacing" textLength="8" x="1880.4375" y="174.8359">1</text></g><!--reverse link AAudioTagger to SpectrumShiftTagger--><g id="link_AAudioTagger_SpectrumShiftTagger"><path codeLine="127" d="M2043.6391,236.4237 C2334.2491,239.3407 2986.8,253.363 3203,322 C3265.14,341.728 3327.75,381.821 3371.59,413.982 " fill="none" id="AAudioTagger-backto-SpectrumShiftTagger" style="stroke:#181818;stroke-width:1.0;"/><polygon fill="none" points="2025.64,236.243,2043.5789,242.4234,2043.6993,230.424,2025.64,236.243" style="stroke:#181818;stroke-width:1.0;"/></g><!--reverse link AAudioTagger to ShiftSumTagger--><g id="link_AAudioTagger_ShiftSumTagger"><path codeLine="128" d="M2043.6268,242.5579 C2254.4468,253.2759 2630.64,277.672 2764,322 C2826.02,342.615 2889.04,382.186 2933.56,413.932 " fill="none" id="AAudioTagger-backto-ShiftSumTagger" style="stroke:#181818;stroke-width:1.0;"/><polygon fill="none" points="2025.65,241.644,2043.3221,248.5502,2043.9314,236.5657,2025.65,241.644" style="stroke:#181818;stroke-width:1.0;"/></g><!--reverse link AAudioTagger to RawTagger--><g id="link_AAudioTagger_RawTagger"><path codeLine="129" d="M1734.3205,240.2715 C1465.3105,249.4605 904.537,273.976 828,322 C788.736,346.637 766.021,397.466 754.834,430.49 " fill="none" id="AAudioTagger-backto-RawTagger" style="stroke:#181818;stroke-width:1.0;"/><polygon fill="none" points="1752.31,239.657,1734.1157,234.275,1734.5253,246.268,1752.31,239.657" style="stroke:#181818;stroke-width:1.0;"/></g><!--reverse link AAudioTagger to NoiseTaggingTagger--><g id="link_AAudioTagger_NoiseTaggingTagger"><path codeLine="130" d="M1734.2696,240.0961 C1459.6596,249.0731 868.019,273.339 665,322 C614.493,334.106 561.826,353.156 513.781,373.332 " fill="none" id="AAudioTagger-backto-NoiseTaggingTagger" style="stroke:#181818;stroke-width:1.0;"/><polygon fill="none" points="1752.26,239.508,1734.0736,234.0993,1734.4656,246.0929,1752.26,239.508" style="stroke:#181818;stroke-width:1.0;"/></g><!--reverse link AAudioTagger to AMTagger--><g id="link_AAudioTagger_AMTagger"><path codeLine="131" d="M1734.5678,257.2109 C1647.1478,271.2539 1549.8,290.6 1451,322 C1387.67,342.128 1320.03,371.345 1263.98,397.846 " fill="none" id="AAudioTagger-backto-AMTagger" style="stroke:#181818;stroke-width:1.0;"/><polygon fill="none" points="1752.34,254.356,1733.6162,251.2868,1735.5195,263.1349,1752.34,254.356" style="stroke:#181818;stroke-width:1.0;"/></g><!--reverse link AAudioTagger to FMTagger--><g id="link_AAudioTagger_FMTagger"><path codeLine="132" d="M1889,301.153 C1889,324.852 1889,336.394 1889,364.574 " fill="none" id="AAudioTagger-backto-FMTagger" style="stroke:#181818;stroke-width:1.0;"/><polygon fill="none" points="1889,283.153,1883,301.153,1895,301.153,1889,283.153" style="stroke:#181818;stroke-width:1.0;"/></g><!--reverse link AAudioTagger to FlippedFMTagger--><g id="link_AAudioTagger_FlippedFMTagger"><path codeLine="133" d="M2043.7744,251.6932 C2132.0744,263.7552 2230.23,283.227 2327,322 C2384.33,344.969 2443.02,383.306 2485.19,413.984 " fill="none" id="AAudioTagger-backto-FlippedFMTagger" style="stroke:#181818;stroke-width:1.0;"/><polygon fill="none" points="2025.94,249.257,2042.9623,257.638,2044.5864,245.7484,2025.94,249.257" style="stroke:#181818;stroke-width:1.0;"/></g><!--link SpectrumShiftTaggerFactory to AAudioTaggerFactory--><g id="link_SpectrumShiftTaggerFactory_AAudioTaggerFactory"><path codeLine="135" d="M3230.75,742.043 C3192.88,759.995 3145.64,779.521 3101,790 C2939.93,827.8089 2538.5635,845.0864 2238.3035,853.1697 " fill="none" id="SpectrumShiftTaggerFactory-to-AAudioTaggerFactory" style="stroke:#181818;stroke-width:1.0;"/><polygon fill="none" points="2220.31,853.6541,2238.4649,859.1675,2238.142,847.1719,2220.31,853.6541" style="stroke:#181818;stroke-width:1.0;"/></g><!--link ShiftSumTaggerFactory to AAudioTaggerFactory--><g id="link_ShiftSumTaggerFactory_AAudioTaggerFactory"><path codeLine="136" d="M2881.77,742.159 C2847.45,759.907 2804.71,779.224 2764,790 C2663.91,816.49 2441.5531,833.5961 2238.0331,844.7401 " fill="none" id="ShiftSumTaggerFactory-to-AAudioTaggerFactory" style="stroke:#181818;stroke-width:1.0;"/><polygon fill="none" points="2220.06,845.7242,2238.3611,850.7311,2237.705,838.749,2220.06,845.7242" style="stroke:#181818;stroke-width:1.0;"/></g><!--link AMTaggerFactory to AAudioTaggerFactory--><g id="link_AMTaggerFactory_AAudioTaggerFactory"><path codeLine="137" d="M1607.62,766.107 C1672.48,787.75 1725.0155,805.2806 1778.7755,823.2191 " fill="none" id="AMTaggerFactory-to-AAudioTaggerFactory" style="stroke:#181818;stroke-width:1.0;"/><polygon fill="none" points="1795.85,828.9165,1780.6746,817.5276,1776.8763,828.9106,1795.85,828.9165" style="stroke:#181818;stroke-width:1.0;"/></g><!--link FMTaggerFactory to AAudioTaggerFactory--><g id="link_FMTaggerFactory_AAudioTaggerFactory"><path codeLine="138" d="M1889,742.244 C1889,769.127 1889,786.123 1889,810.9595 " fill="none" id="FMTaggerFactory-to-AAudioTaggerFactory" style="stroke:#181818;stroke-width:1.0;"/><polygon fill="none" points="1889,828.9595,1895,810.9595,1883,810.9595,1889,828.9595" style="stroke:#181818;stroke-width:1.0;"/></g><!--link FlippedFMTaggerFactory to AAudioTaggerFactory--><g id="link_FlippedFMTaggerFactory_AAudioTaggerFactory"><path codeLine="139" d="M2177.35,742.041 C2111.64,768.922 2042.5798,797.1705 1981.7298,822.0643 " fill="none" id="FlippedFMTaggerFactory-to-AAudioTaggerFactory" style="stroke:#181818;stroke-width:1.0;"/><polygon fill="none" points="1965.07,828.8798,1984.0016,827.6175,1979.4579,816.511,1965.07,828.8798" style="stroke:#181818;stroke-width:1.0;"/></g><!--link NoiseTaggingTaggerFactory to AAudioTaggerFactory--><g id="link_NoiseTaggingTaggerFactory_AAudioTaggerFactory"><path codeLine="140" d="M508.926,758.112 C547.45,770.682 589.35,782.512 629,790 C800.284,822.346 1227.459,840.9572 1539.849,850.8413 " fill="none" id="NoiseTaggingTaggerFactory-to-AAudioTaggerFactory" style="stroke:#181818;stroke-width:1.0;"/><polygon fill="none" points="1557.84,851.4105,1540.0387,844.8443,1539.6593,856.8383,1557.84,851.4105" style="stroke:#181818;stroke-width:1.0;"/></g><!--link RawTaggerFactory to AAudioTaggerFactory--><g id="link_RawTaggerFactory_AAudioTaggerFactory"><path codeLine="141" d="M747.397,725.822 C765.432,746.754 794.969,776.235 828,790 C894.269,817.616 1253.7942,836.803 1539.8142,848.1681 " fill="none" id="RawTaggerFactory-to-AAudioTaggerFactory" style="stroke:#181818;stroke-width:1.0;"/><polygon fill="none" points="1557.8,848.8828,1540.0524,842.1729,1539.576,854.1634,1557.8,848.8828" style="stroke:#181818;stroke-width:1.0;"/></g><!--reverse link SpectrumShiftTagger to SpectrumShiftTaggerFactory--><g id="link_SpectrumShiftTagger_SpectrumShiftTaggerFactory"><path codeLine="143" d="M3403.0509,516.4821 C3379.8809,560.4131 3348.7,619.55 3326.96,660.763 " fill="none" id="SpectrumShiftTagger-backto-SpectrumShiftTaggerFactory" style="stroke:#181818;stroke-width:1.0;stroke-dasharray:7.0,7.0;"/><polygon fill="#181818" points="3405.85,511.175,3398.1133,517.2696,3403.5175,515.5976,3405.1895,521.0017,3405.85,511.175" style="stroke:#181818;stroke-width:1.0;"/><text fill="#000000" font-family="sans-serif" font-size="13" lengthAdjust="spacing" textLength="48" x="3362" y="603.0669">creates</text></g><!--reverse link ShiftSumTagger to ShiftSumTaggerFactory--><g id="link_ShiftSumTagger_ShiftSumTaggerFactory"><path codeLine="144" d="M2985.0543,517.0741 C2976.8943,561.0051 2966.03,619.55 2958.38,660.763 " fill="none" id="ShiftSumTagger-backto-ShiftSumTaggerFactory" style="stroke:#181818;stroke-width:1.0;stroke-dasharray:7.0,7.0;"/><polygon fill="#181818" points="2986.15,511.175,2980.5737,519.2932,2985.2369,516.0909,2988.4391,520.7541,2986.15,511.175" style="stroke:#181818;stroke-width:1.0;"/><text fill="#000000" font-family="sans-serif" font-size="13" lengthAdjust="spacing" textLength="48" x="2971" y="603.0669">creates</text></g><!--reverse link AMTagger to AMTaggerFactory--><g id="link_AMTagger_AMTaggerFactory"><path codeLine="145" d="M1218.0661,530.9044 C1257.9561,564.9084 1302.38,602.782 1342.3,636.813 " fill="none" id="AMTagger-backto-AMTaggerFactory" style="stroke:#181818;stroke-width:1.0;stroke-dasharray:7.0,7.0;"/><polygon fill="#181818" points="1213.5,527.012,1217.7543,535.8946,1217.3051,530.2556,1222.9441,529.8065,1213.5,527.012" style="stroke:#181818;stroke-width:1.0;"/><text fill="#000000" font-family="sans-serif" font-size="13" lengthAdjust="spacing" textLength="48" x="1304" y="603.0669">creates</text></g><!--reverse link FMTagger to FMTaggerFactory--><g id="link_FMTagger_FMTaggerFactory"><path codeLine="146" d="M1889,566.239 C1889,601.437 1889,633.288 1889,660.788 " fill="none" id="FMTagger-backto-FMTaggerFactory" style="stroke:#181818;stroke-width:1.0;stroke-dasharray:7.0,7.0;"/><polygon fill="#181818" points="1889,560.239,1885,569.239,1889,565.239,1893,569.239,1889,560.239" style="stroke:#181818;stroke-width:1.0;"/><text fill="#000000" font-family="sans-serif" font-size="13" lengthAdjust="spacing" textLength="48" x="1890" y="603.0669">creates</text></g><!--reverse link FlippedFMTagger to FlippedFMTaggerFactory--><g id="link_FlippedFMTagger_FlippedFMTaggerFactory"><path codeLine="147" d="M2486.7566,515.117 C2436.3466,559.048 2366.91,619.55 2319.61,660.763 " fill="none" id="FlippedFMTagger-backto-FlippedFMTaggerFactory" style="stroke:#181818;stroke-width:1.0;stroke-dasharray:7.0,7.0;"/><polygon fill="#181818" points="2491.28,511.175,2481.867,514.0724,2487.5105,514.46,2487.123,520.1035,2491.28,511.175" style="stroke:#181818;stroke-width:1.0;"/><text fill="#000000" font-family="sans-serif" font-size="13" lengthAdjust="spacing" textLength="48" x="2395" y="603.0669">creates</text></g><!--reverse link NoiseTaggingTagger to NoiseTaggingTaggerFactory--><g id="link_NoiseTaggingTagger_NoiseTaggingTaggerFactory"><path codeLine="148" d="M346.13,557.7086 C349.815,588.8996 353.15,617.128 356.426,644.854 " fill="none" id="NoiseTaggingTagger-backto-NoiseTaggingTaggerFactory" style="stroke:#181818;stroke-width:1.0;stroke-dasharray:7.0,7.0;"/><polygon fill="#181818" points="345.426,551.75,342.5096,561.1571,346.0126,556.7155,350.4543,560.2185,345.426,551.75" style="stroke:#181818;stroke-width:1.0;"/><text fill="#000000" font-family="sans-serif" font-size="13" lengthAdjust="spacing" textLength="48" x="353" y="603.0669">creates</text></g><!--reverse link RawTagger to RawTaggerFactory--><g id="link_RawTagger_RawTaggerFactory"><path codeLine="149" d="M743.3136,500.9566 C739.8446,549.3076 733.716,634.757 730.653,677.452 " fill="none" id="RawTagger-backto-RawTaggerFactory" style="stroke:#181818;stroke-width:1.0;stroke-dasharray:7.0,7.0;"/><polygon fill="#181818" points="743.743,494.972,739.1092,503.6627,743.3852,499.9592,747.0887,504.2352,743.743,494.972" style="stroke:#181818;stroke-width:1.0;"/><text fill="#000000" font-family="sans-serif" font-size="13" lengthAdjust="spacing" textLength="48" x="738" y="603.0669">creates</text></g><!--SRC=[jLVVRvim47xtNs5rBsI1IjlUehvKdVAqTLAJjogo7728DG8Cc_xGblzzniQ0ZN59jLLLr7BVtNVttN5suWmp1c_hX1RmDu3YPtd_zRQgyElZ8Iimtq7S_ACiDEUGuLEPqJn5XuhygaaUlu8p02MEV-AKG2m2yQ9wHHodgK2rCV6UyGh77CQAJl9j1OHKBGB23nbb_14gsX2sx3l8E3tL6KM2d5HFE6EWTLZAC0sRYXGqv4Me7HOTJ1MdSpZ3k2AOaq01pYgSaTBLfoluCQeZ-OSqh6Hb1G1lbRCMZqL6NLLBirOx2IJ3IhLq0Il568uBNy5lZKJRkio8APDHIjSBngesSfSEr2b_tze62AEcltrR1uOxd6LuBrWV1II4-cCNGcjO11rAIKugB5GOHh3QocYQuwmh3GoWozlDvi7PqLw9i4ypD3b3E_J222r7mUZ_GBXUdlLbyiYYuAb8wWnpMkJe8AV0g4g7d5VJADQSCaGcWUx70y7Pe3totmNypRW86fyXUP5ZYEJBpEk4C5GUCICioElJdbHYrhJhNI4mv6LdyDZ6Fd9AE8hLKwHY1Jt92bhvALBhiPD9MbeyueNGJJ3cufSKDUkM4HKLN1fpCb93qweoYHbLTA0Luyfj1PjdJcOvCLy-xtIZIQ36TWLjn09unZIZPKcIETDgZABfDcSYVUCtdP_UClPI_3VBnhDjWk6sMVYtZPbZy8x5ybPVPfJlQSyeiHbxwrB6ELG3GaLsNr16jkgSjmOm-b4skmjdJGl5jYSa0OCizfIZPvhmu_1XHlAK7v6mwQEp2t9N96G7O_7PdVrZSiyOYvXYlv4ACH8NUR9ICzKJXZ93wy9WhTVegQ09H7eW26hISLYvCgZWacanHpgxOrgdOTvUjLoIJukbEsqnJ8bY9F-0dwrsknHpkvXbMXSMTgG7tjvOsEZAiccic_eqjUkKzzwSRDF9CoBQ-rtN1PDbykNhCfnCKBTbdCsOioGnh-gJ372P9cFF_oRCcEeoTIRzdHAfppCmxjmtVwB8bOWBPJJ30UZcs64RlsGEa3vj7AQrnsIU202uld48P1rv5FSvkORGWxVEJ0zoFH_fFFKy3fDBpUDZxo40NA_HpVMrHySLl5A3pww0jPEaeqlBeK_trQj1MqeESUiXRkt1MPT02NUAEVHo7DwDuwIeGz_-06XSR4q7oBy0]--></g></svg>