<?xml version="1.0" encoding="us-ascii" standalone="no"?><svg xmlns="http://www.w3.org/2000/svg" xmlns:xlink="http://www.w3.org/1999/xlink" contentStyleType="text/css" height="407px" preserveAspectRatio="none" style="width:3317px;height:407px;background:#FFFFFF;" version="1.1" viewBox="0 0 3317 407" width="3317px" zoomAndPan="magnify"><defs/><g><!--cluster auditory_tagging--><g id="cluster_auditory_tagging"><path d="M8.5,6 L148.5,6 A3.75,3.75 0 0 1 151,8.5 L158,28.2969 L3307.5,28.2969 A2.5,2.5 0 0 1 3310,30.7969 L3310,397.5 A2.5,2.5 0 0 1 3307.5,400 L8.5,400 A2.5,2.5 0 0 1 6,397.5 L6,8.5 A2.5,2.5 0 0 1 8.5,6 " fill="none" style="stroke:#000000;stroke-width:1.5;"/><line style="stroke:#000000;stroke-width:1.5;" x1="6" x2="158" y1="28.2969" y2="28.2969"/><text fill="#000000" font-family="sans-serif" font-size="14" font-weight="bold" lengthAdjust="spacing" textLength="139" x="10" y="20.9951">auditory_tagging</text></g><!--cluster assr_tagger--><g id="cluster_assr_tagger"><path d="M680.5,147 L777.5,147 A3.75,3.75 0 0 1 780,149.5 L787,169.2969 L2495.5,169.2969 A2.5,2.5 0 0 1 2498,171.7969 L2498,373.5 A2.5,2.5 0 0 1 2495.5,376 L680.5,376 A2.5,2.5 0 0 1 678,373.5 L678,149.5 A2.5,2.5 0 0 1 680.5,147 " fill="none" style="stroke:#000000;stroke-width:1.5;"/><line style="stroke:#000000;stroke-width:1.5;" x1="678" x2="787" y1="169.2969" y2="169.2969"/><text fill="#000000" font-family="sans-serif" font-size="14" font-weight="bold" lengthAdjust="spacing" textLength="96" x="682" y="161.9951">assr_tagger</text></g><!--cluster shift_taggers--><g id="cluster_shift_taggers"><path d="M2524.5,195.5 L2634.5,195.5 A3.75,3.75 0 0 1 2637,198 L2644,217.7969 L3283.5,217.7969 A2.5,2.5 0 0 1 3286,220.2969 L3286,325 A2.5,2.5 0 0 1 3283.5,327.5 L2524.5,327.5 A2.5,2.5 0 0 1 2522,325 L2522,198 A2.5,2.5 0 0 1 2524.5,195.5 " fill="none" style="stroke:#000000;stroke-width:1.5;"/><line style="stroke:#000000;stroke-width:1.5;" x1="2522" x2="2644" y1="217.7969" y2="217.7969"/><text fill="#000000" font-family="sans-serif" font-size="14" font-weight="bold" lengthAdjust="spacing" textLength="109" x="2526" y="210.4951">shift_taggers</text></g><!--class AAudioTagger--><g id="elem_AAudioTagger"><rect codeLine="2" fill="#F1F1F1" height="80.5938" id="AAudioTagger" rx="2.5" ry="2.5" style="stroke:#181818;stroke-width:0.5;" width="539" x="1641.5" y="41"/><ellipse cx="1855.75" cy="57" fill="#A9DCDF" rx="11" ry="11" style="stroke:#181818;stroke-width:1.0;"/><path d="M1857.8281,58.8125 L1858.2188,59.7969 L1857.8281,59.7969 C1857.375,59.7969 1857.2656,59.8125 1857.1094,59.9219 C1856.8594,60.0781 1856.7031,60.3594 1856.7031,60.6563 C1856.7031,60.9219 1856.8438,61.1719 1857.0625,61.3281 C1857.2031,61.4531 1857.4063,61.5 1857.8281,61.5 L1860.1875,61.5 C1860.5469,61.5 1860.7656,61.4688 1860.9063,61.375 C1861.1563,61.2344 1861.3125,60.9375 1861.3125,60.6563 C1861.3125,60.375 1861.1719,60.125 1860.9531,59.9688 C1860.7813,59.8281 1860.625,59.7969 1860.1563,59.7969 L1856.7656,51.5938 L1853.0938,51.5938 C1852.6406,51.5938 1852.5156,51.6094 1852.3594,51.7031 C1852.1094,51.875 1851.9531,52.1563 1851.9531,52.4375 C1851.9531,52.7188 1852.0938,52.9688 1852.3125,53.1406 C1852.4844,53.25 1852.6563,53.2813 1853.0938,53.2813 L1854.1719,53.2813 L1851.5313,59.7969 C1851.1094,59.7969 1850.9531,59.8125 1850.7969,59.9219 C1850.5469,60.0781 1850.3906,60.3594 1850.3906,60.6563 C1850.3906,61.2188 1850.7656,61.5 1851.5156,61.5 L1853.7813,61.5 C1854.1406,61.5 1854.3594,61.4688 1854.4844,61.375 C1854.75,61.2344 1854.8906,60.9375 1854.8906,60.6563 C1854.8906,60.375 1854.7656,60.125 1854.5469,59.9531 C1854.375,59.8281 1854.2344,59.7969 1853.7813,59.7969 L1853.3906,59.7969 L1853.7813,58.8125 L1857.8281,58.8125 Z M1857.125,57.1094 L1854.4531,57.1094 L1855.7969,53.8438 L1857.125,57.1094 Z " fill="#000000"/><text fill="#000000" font-family="sans-serif" font-size="14" font-style="italic" lengthAdjust="spacing" textLength="102" x="1876.25" y="61.8467">AAudioTagger</text><line style="stroke:#181818;stroke-width:0.5;" x1="1642.5" x2="2179.5" y1="73" y2="73"/><line style="stroke:#181818;stroke-width:0.5;" x1="1642.5" x2="2179.5" y1="81" y2="81"/><polygon fill="#FFFF44" points="1652.5,89.6484,1656.5,93.6484,1652.5,97.6484,1648.5,93.6484" style="stroke:#B38D22;stroke-width:1.0;"/><text fill="#000000" font-family="sans-serif" font-size="14" font-style="italic" lengthAdjust="spacing" textLength="513" x="1661.5" y="97.9951">NDArray[float] modify_chunk(audio_array_chunk: NDArray[float], fs: int))</text><ellipse cx="1652.5" cy="110.9453" fill="#84BE84" rx="3" ry="3" style="stroke:#038048;stroke-width:1.0;"/><text fill="#000000" font-family="sans-serif" font-size="14" lengthAdjust="spacing" textLength="195" x="1661.5" y="114.292">Audio create(audio, stimuli)</text></g><!--class NoiseTaggingTagger--><g id="elem_NoiseTaggingTagger"><rect codeLine="38" fill="#F1F1F1" height="178.375" id="NoiseTaggingTagger" rx="2.5" ry="2.5" style="stroke:#181818;stroke-width:0.5;" width="490" x="22" y="182"/><ellipse cx="189.75" cy="198" fill="#ADD1B2" rx="11" ry="11" style="stroke:#181818;stroke-width:1.0;"/><path d="M192.0938,193.6719 C191.1563,193.2344 190.5625,193.0938 189.6875,193.0938 C187.0625,193.0938 185.0625,195.1719 185.0625,197.8906 L185.0625,199.0156 C185.0625,201.5938 187.1719,203.4844 190.0625,203.4844 C191.2813,203.4844 192.4375,203.1875 193.1875,202.6406 C193.7656,202.2344 194.0938,201.7813 194.0938,201.3906 C194.0938,200.9375 193.7031,200.5469 193.2344,200.5469 C193.0156,200.5469 192.8125,200.625 192.625,200.8125 C192.1719,201.2969 192.1719,201.2969 191.9844,201.3906 C191.5625,201.6563 190.875,201.7813 190.1094,201.7813 C188.0625,201.7813 186.7656,200.6875 186.7656,198.9844 L186.7656,197.8906 C186.7656,196.1094 188.0156,194.7969 189.75,194.7969 C190.3281,194.7969 190.9375,194.9531 191.4063,195.2031 C191.8906,195.4844 192.0625,195.7031 192.1563,196.1094 C192.2188,196.5156 192.25,196.6406 192.3906,196.7656 C192.5313,196.9063 192.7656,197.0156 192.9844,197.0156 C193.25,197.0156 193.5156,196.875 193.6875,196.6563 C193.7969,196.5 193.8281,196.3125 193.8281,195.8906 L193.8281,194.4688 C193.8281,194.0313 193.8125,193.9063 193.7188,193.75 C193.5625,193.4844 193.2813,193.3438 192.9844,193.3438 C192.6875,193.3438 192.4844,193.4375 192.2656,193.75 L192.0938,193.6719 Z " fill="#000000"/><text fill="#000000" font-family="sans-serif" font-size="14" lengthAdjust="spacing" textLength="146" x="210.25" y="202.8467">NoiseTaggingTagger</text><line style="stroke:#181818;stroke-width:0.5;" x1="23" x2="511" y1="214" y2="214"/><rect fill="none" height="6" style="stroke:#C82930;stroke-width:1.0;" width="6" x="30" y="224.6484"/><text fill="#000000" font-family="sans-serif" font-size="14" lengthAdjust="spacing" textLength="102" x="42" y="230.9951">Generator rng</text><rect fill="none" height="6" style="stroke:#C82930;stroke-width:1.0;" width="6" x="30" y="240.9453"/><text fill="#000000" font-family="sans-serif" font-size="14" lengthAdjust="spacing" textLength="110" x="42" y="247.292">int specified_fs</text><rect fill="none" height="6" style="stroke:#C82930;stroke-width:1.0;" width="6" x="30" y="257.2422"/><text fill="#000000" font-family="sans-serif" font-size="14" lengthAdjust="spacing" textLength="92" x="42" y="263.5889">int bit_width</text><rect fill="none" height="6" style="stroke:#C82930;stroke-width:1.0;" width="6" x="30" y="273.5391"/><text fill="#000000" font-family="sans-serif" font-size="14" lengthAdjust="spacing" textLength="99" x="42" y="279.8857">int length_bit</text><ellipse cx="33" cy="292.8359" fill="none" rx="3" ry="3" style="stroke:#038048;stroke-width:1.0;"/><text fill="#000000" font-family="sans-serif" font-size="14" lengthAdjust="spacing" textLength="148" x="42" y="296.1826">Optional[Code] code</text><line style="stroke:#181818;stroke-width:0.5;" x1="23" x2="511" y1="303.4844" y2="303.4844"/><ellipse cx="33" cy="317.1328" fill="#84BE84" rx="3" ry="3" style="stroke:#038048;stroke-width:1.0;"/><text fill="#000000" font-family="sans-serif" font-size="14" lengthAdjust="spacing" textLength="464" x="42" y="320.4795">NoiseTaggingTagger(fs:int, bits_per_second: int, length_bit, rng)</text><rect fill="#F24D5C" height="6" style="stroke:#C82930;stroke-width:1.0;" width="6" x="30" y="330.4297"/><text fill="#000000" font-family="sans-serif" font-size="14" lengthAdjust="spacing" textLength="166" x="42" y="336.7764">void __generate_code()</text><rect fill="#F24D5C" height="6" style="stroke:#C82930;stroke-width:1.0;" width="6" x="30" y="346.7266"/><text fill="#000000" font-family="sans-serif" font-size="14" lengthAdjust="spacing" textLength="201" x="42" y="353.0732">void __get_code(length: int)</text></g><!--class RawTagger--><g id="elem_RawTagger"><rect codeLine="50" fill="#F1F1F1" height="48" id="RawTagger" rx="2.5" ry="2.5" style="stroke:#181818;stroke-width:0.5;" width="111" x="547.5" y="247"/><ellipse cx="562.5" cy="263" fill="#ADD1B2" rx="11" ry="11" style="stroke:#181818;stroke-width:1.0;"/><path d="M564.8438,258.6719 C563.9063,258.2344 563.3125,258.0938 562.4375,258.0938 C559.8125,258.0938 557.8125,260.1719 557.8125,262.8906 L557.8125,264.0156 C557.8125,266.5938 559.9219,268.4844 562.8125,268.4844 C564.0313,268.4844 565.1875,268.1875 565.9375,267.6406 C566.5156,267.2344 566.8438,266.7813 566.8438,266.3906 C566.8438,265.9375 566.4531,265.5469 565.9844,265.5469 C565.7656,265.5469 565.5625,265.625 565.375,265.8125 C564.9219,266.2969 564.9219,266.2969 564.7344,266.3906 C564.3125,266.6563 563.625,266.7813 562.8594,266.7813 C560.8125,266.7813 559.5156,265.6875 559.5156,263.9844 L559.5156,262.8906 C559.5156,261.1094 560.7656,259.7969 562.5,259.7969 C563.0781,259.7969 563.6875,259.9531 564.1563,260.2031 C564.6406,260.4844 564.8125,260.7031 564.9063,261.1094 C564.9688,261.5156 565,261.6406 565.1406,261.7656 C565.2813,261.9063 565.5156,262.0156 565.7344,262.0156 C566,262.0156 566.2656,261.875 566.4375,261.6563 C566.5469,261.5 566.5781,261.3125 566.5781,260.8906 L566.5781,259.4688 C566.5781,259.0313 566.5625,258.9063 566.4688,258.75 C566.3125,258.4844 566.0313,258.3438 565.7344,258.3438 C565.4375,258.3438 565.2344,258.4375 565.0156,258.75 L564.8438,258.6719 Z " fill="#000000"/><text fill="#000000" font-family="sans-serif" font-size="14" lengthAdjust="spacing" textLength="79" x="576.5" y="267.8467">RawTagger</text><line style="stroke:#181818;stroke-width:0.5;" x1="548.5" x2="657.5" y1="279" y2="279"/><line style="stroke:#181818;stroke-width:0.5;" x1="548.5" x2="657.5" y1="287" y2="287"/></g><!--class AMTagger--><g id="elem_AMTagger"><rect codeLine="9" fill="#F1F1F1" height="113.1875" id="AMTagger" rx="2.5" ry="2.5" style="stroke:#181818;stroke-width:0.5;" width="418" x="2064" y="214.5"/><ellipse cx="2232.75" cy="230.5" fill="#ADD1B2" rx="11" ry="11" style="stroke:#181818;stroke-width:1.0;"/><path d="M2235.0938,226.1719 C2234.1563,225.7344 2233.5625,225.5938 2232.6875,225.5938 C2230.0625,225.5938 2228.0625,227.6719 2228.0625,230.3906 L2228.0625,231.5156 C2228.0625,234.0938 2230.1719,235.9844 2233.0625,235.9844 C2234.2813,235.9844 2235.4375,235.6875 2236.1875,235.1406 C2236.7656,234.7344 2237.0938,234.2813 2237.0938,233.8906 C2237.0938,233.4375 2236.7031,233.0469 2236.2344,233.0469 C2236.0156,233.0469 2235.8125,233.125 2235.625,233.3125 C2235.1719,233.7969 2235.1719,233.7969 2234.9844,233.8906 C2234.5625,234.1563 2233.875,234.2813 2233.1094,234.2813 C2231.0625,234.2813 2229.7656,233.1875 2229.7656,231.4844 L2229.7656,230.3906 C2229.7656,228.6094 2231.0156,227.2969 2232.75,227.2969 C2233.3281,227.2969 2233.9375,227.4531 2234.4063,227.7031 C2234.8906,227.9844 2235.0625,228.2031 2235.1563,228.6094 C2235.2188,229.0156 2235.25,229.1406 2235.3906,229.2656 C2235.5313,229.4063 2235.7656,229.5156 2235.9844,229.5156 C2236.25,229.5156 2236.5156,229.375 2236.6875,229.1563 C2236.7969,229 2236.8281,228.8125 2236.8281,228.3906 L2236.8281,226.9688 C2236.8281,226.5313 2236.8125,226.4063 2236.7188,226.25 C2236.5625,225.9844 2236.2813,225.8438 2235.9844,225.8438 C2235.6875,225.8438 2235.4844,225.9375 2235.2656,226.25 L2235.0938,226.1719 Z " fill="#000000"/><text fill="#000000" font-family="sans-serif" font-size="14" lengthAdjust="spacing" textLength="72" x="2253.25" y="235.3467">AMTagger</text><line style="stroke:#181818;stroke-width:0.5;" x1="2065" x2="2481" y1="246.5" y2="246.5"/><rect fill="none" height="6" style="stroke:#C82930;stroke-width:1.0;" width="6" x="2072" y="257.1484"/><text fill="#000000" font-family="sans-serif" font-size="14" lengthAdjust="spacing" textLength="96" x="2084" y="263.4951">int frequency</text><rect fill="none" height="6" style="stroke:#C82930;stroke-width:1.0;" width="6" x="2072" y="273.4453"/><text fill="#000000" font-family="sans-serif" font-size="14" lengthAdjust="spacing" textLength="366" x="2084" y="279.792">Callable[[int, int, int], NDArray[float] tag_generator</text><rect fill="none" height="6" style="stroke:#C82930;stroke-width:1.0;" width="6" x="2072" y="289.7422"/><text fill="#000000" font-family="sans-serif" font-size="14" lengthAdjust="spacing" textLength="193" x="2084" y="296.0889">[float, float] signal_interval</text><line style="stroke:#181818;stroke-width:0.5;" x1="2065" x2="2481" y1="303.3906" y2="303.3906"/><ellipse cx="2075" cy="317.0391" fill="#84BE84" rx="3" ry="3" style="stroke:#038048;stroke-width:1.0;"/><text fill="#000000" font-family="sans-serif" font-size="14" lengthAdjust="spacing" textLength="392" x="2084" y="320.3857">ASSRTagger(frequency, tag_generator, signal_interval)</text></g><!--class FMTagger--><g id="elem_FMTagger"><rect codeLine="17" fill="#F1F1F1" height="178.375" id="FMTagger" rx="2.5" ry="2.5" style="stroke:#181818;stroke-width:0.5;" width="960" x="1069" y="182"/><ellipse cx="1509.75" cy="198" fill="#ADD1B2" rx="11" ry="11" style="stroke:#181818;stroke-width:1.0;"/><path d="M1512.0938,193.6719 C1511.1563,193.2344 1510.5625,193.0938 1509.6875,193.0938 C1507.0625,193.0938 1505.0625,195.1719 1505.0625,197.8906 L1505.0625,199.0156 C1505.0625,201.5938 1507.1719,203.4844 1510.0625,203.4844 C1511.2813,203.4844 1512.4375,203.1875 1513.1875,202.6406 C1513.7656,202.2344 1514.0938,201.7813 1514.0938,201.3906 C1514.0938,200.9375 1513.7031,200.5469 1513.2344,200.5469 C1513.0156,200.5469 1512.8125,200.625 1512.625,200.8125 C1512.1719,201.2969 1512.1719,201.2969 1511.9844,201.3906 C1511.5625,201.6563 1510.875,201.7813 1510.1094,201.7813 C1508.0625,201.7813 1506.7656,200.6875 1506.7656,198.9844 L1506.7656,197.8906 C1506.7656,196.1094 1508.0156,194.7969 1509.75,194.7969 C1510.3281,194.7969 1510.9375,194.9531 1511.4063,195.2031 C1511.8906,195.4844 1512.0625,195.7031 1512.1563,196.1094 C1512.2188,196.5156 1512.25,196.6406 1512.3906,196.7656 C1512.5313,196.9063 1512.7656,197.0156 1512.9844,197.0156 C1513.25,197.0156 1513.5156,196.875 1513.6875,196.6563 C1513.7969,196.5 1513.8281,196.3125 1513.8281,195.8906 L1513.8281,194.4688 C1513.8281,194.0313 1513.8125,193.9063 1513.7188,193.75 C1513.5625,193.4844 1513.2813,193.3438 1512.9844,193.3438 C1512.6875,193.3438 1512.4844,193.4375 1512.2656,193.75 L1512.0938,193.6719 Z " fill="#000000"/><text fill="#000000" font-family="sans-serif" font-size="14" lengthAdjust="spacing" textLength="70" x="1530.25" y="202.8467">FMTagger</text><line style="stroke:#181818;stroke-width:0.5;" x1="1070" x2="2028" y1="214" y2="214"/><rect fill="none" height="6" style="stroke:#C82930;stroke-width:1.0;" width="6" x="1077" y="224.6484"/><text fill="#000000" font-family="sans-serif" font-size="14" lengthAdjust="spacing" textLength="96" x="1089" y="230.9951">int frequency</text><rect fill="none" height="6" style="stroke:#C82930;stroke-width:1.0;" width="6" x="1077" y="240.9453"/><text fill="#000000" font-family="sans-serif" font-size="14" lengthAdjust="spacing" textLength="170" x="1089" y="247.292">float modulation_factor</text><line style="stroke:#181818;stroke-width:0.5;" x1="1070" x2="2028" y1="254.5938" y2="254.5938"/><ellipse cx="1080" cy="268.2422" fill="#84BE84" rx="3" ry="3" style="stroke:#038048;stroke-width:1.0;"/><text fill="#000000" font-family="sans-serif" font-size="14" lengthAdjust="spacing" textLength="292" x="1089" y="271.5889">FMTagger(frequency, modulation_factor)</text><rect fill="#F24D5C" height="6" style="stroke:#C82930;stroke-width:1.0;" width="6" x="1077" y="281.5391"/><text fill="#000000" font-family="sans-serif" font-size="14" lengthAdjust="spacing" text-decoration="underline" textLength="634" x="1089" y="287.8857">(NDArray[Real], NDArray[Real]) extract_amplitudes_phases(numbers: NDArray[Complex])</text><rect fill="#F24D5C" height="6" style="stroke:#C82930;stroke-width:1.0;" width="6" x="1077" y="297.8359"/><text fill="#000000" font-family="sans-serif" font-size="14" lengthAdjust="spacing" text-decoration="underline" textLength="660" x="1089" y="304.1826">NDArray[Complex] get_complex_number(amplitudes: NDArray[Real], phases: NDArray[Real])</text><rect fill="#F24D5C" height="6" style="stroke:#C82930;stroke-width:1.0;" width="6" x="1077" y="314.1328"/><text fill="#000000" font-family="sans-serif" font-size="14" lengthAdjust="spacing" textLength="595" x="1089" y="320.4795">NDArray[Real] phases_to_instantaneous_frequencies(phases: NDArray[Real], fs: int)</text><rect fill="#F24D5C" height="6" style="stroke:#C82930;stroke-width:1.0;" width="6" x="1077" y="330.4297"/><text fill="#000000" font-family="sans-serif" font-size="14" lengthAdjust="spacing" textLength="934" x="1089" y="336.7764">NDArray[Real] instantaneous_frequencies_to_phases(instantaneous_frequencies: NDArray[Real], first_phase: NDArray[Real], fs: int)</text><rect fill="#F24D5C" height="6" style="stroke:#C82930;stroke-width:1.0;" width="6" x="1077" y="346.7266"/><text fill="#000000" font-family="sans-serif" font-size="14" lengthAdjust="spacing" textLength="372" x="1089" y="353.0732">NDArray[float32] modulate(signal: NDArray[float32])</text></g><!--class FlippedFMTagger--><g id="elem_FlippedFMTagger"><rect codeLine="30" fill="#F1F1F1" height="96.8906" id="FlippedFMTagger" rx="2.5" ry="2.5" style="stroke:#181818;stroke-width:0.5;" width="340" x="694" y="222.5"/><ellipse cx="797.75" cy="238.5" fill="#ADD1B2" rx="11" ry="11" style="stroke:#181818;stroke-width:1.0;"/><path d="M800.0938,234.1719 C799.1563,233.7344 798.5625,233.5938 797.6875,233.5938 C795.0625,233.5938 793.0625,235.6719 793.0625,238.3906 L793.0625,239.5156 C793.0625,242.0938 795.1719,243.9844 798.0625,243.9844 C799.2813,243.9844 800.4375,243.6875 801.1875,243.1406 C801.7656,242.7344 802.0938,242.2813 802.0938,241.8906 C802.0938,241.4375 801.7031,241.0469 801.2344,241.0469 C801.0156,241.0469 800.8125,241.125 800.625,241.3125 C800.1719,241.7969 800.1719,241.7969 799.9844,241.8906 C799.5625,242.1563 798.875,242.2813 798.1094,242.2813 C796.0625,242.2813 794.7656,241.1875 794.7656,239.4844 L794.7656,238.3906 C794.7656,236.6094 796.0156,235.2969 797.75,235.2969 C798.3281,235.2969 798.9375,235.4531 799.4063,235.7031 C799.8906,235.9844 800.0625,236.2031 800.1563,236.6094 C800.2188,237.0156 800.25,237.1406 800.3906,237.2656 C800.5313,237.4063 800.7656,237.5156 800.9844,237.5156 C801.25,237.5156 801.5156,237.375 801.6875,237.1563 C801.7969,237 801.8281,236.8125 801.8281,236.3906 L801.8281,234.9688 C801.8281,234.5313 801.8125,234.4063 801.7188,234.25 C801.5625,233.9844 801.2813,233.8438 800.9844,233.8438 C800.6875,233.8438 800.4844,233.9375 800.2656,234.25 L800.0938,234.1719 Z " fill="#000000"/><text fill="#000000" font-family="sans-serif" font-size="14" lengthAdjust="spacing" textLength="124" x="818.25" y="243.3467">FlippedFMTagger</text><line style="stroke:#181818;stroke-width:0.5;" x1="695" x2="1033" y1="254.5" y2="254.5"/><rect fill="none" height="6" style="stroke:#C82930;stroke-width:1.0;" width="6" x="702" y="265.1484"/><text fill="#000000" font-family="sans-serif" font-size="14" lengthAdjust="spacing" textLength="96" x="714" y="271.4951">int frequency</text><rect fill="none" height="6" style="stroke:#C82930;stroke-width:1.0;" width="6" x="702" y="281.4453"/><text fill="#000000" font-family="sans-serif" font-size="14" lengthAdjust="spacing" textLength="124" x="714" y="287.792">int scaling_factor</text><line style="stroke:#181818;stroke-width:0.5;" x1="695" x2="1033" y1="295.0938" y2="295.0938"/><ellipse cx="705" cy="308.7422" fill="#84BE84" rx="3" ry="3" style="stroke:#038048;stroke-width:1.0;"/><text fill="#000000" font-family="sans-serif" font-size="14" lengthAdjust="spacing" textLength="314" x="714" y="312.0889">FlippedFMTagger(frequency, scaling_factor)</text></g><!--class ShiftSumTagger--><g id="elem_ShiftSumTagger"><rect codeLine="54" fill="#F1F1F1" height="80.5938" id="ShiftSumTagger" rx="2.5" ry="2.5" style="stroke:#181818;stroke-width:0.5;" width="210" x="2823" y="230.5"/><ellipse cx="2865.9" cy="246.5" fill="#ADD1B2" rx="11" ry="11" style="stroke:#181818;stroke-width:1.0;"/><path d="M2868.2438,242.1719 C2867.3063,241.7344 2866.7125,241.5938 2865.8375,241.5938 C2863.2125,241.5938 2861.2125,243.6719 2861.2125,246.3906 L2861.2125,247.5156 C2861.2125,250.0938 2863.3219,251.9844 2866.2125,251.9844 C2867.4313,251.9844 2868.5875,251.6875 2869.3375,251.1406 C2869.9156,250.7344 2870.2438,250.2813 2870.2438,249.8906 C2870.2438,249.4375 2869.8531,249.0469 2869.3844,249.0469 C2869.1656,249.0469 2868.9625,249.125 2868.775,249.3125 C2868.3219,249.7969 2868.3219,249.7969 2868.1344,249.8906 C2867.7125,250.1563 2867.025,250.2813 2866.2594,250.2813 C2864.2125,250.2813 2862.9156,249.1875 2862.9156,247.4844 L2862.9156,246.3906 C2862.9156,244.6094 2864.1656,243.2969 2865.9,243.2969 C2866.4781,243.2969 2867.0875,243.4531 2867.5563,243.7031 C2868.0406,243.9844 2868.2125,244.2031 2868.3063,244.6094 C2868.3688,245.0156 2868.4,245.1406 2868.5406,245.2656 C2868.6813,245.4063 2868.9156,245.5156 2869.1344,245.5156 C2869.4,245.5156 2869.6656,245.375 2869.8375,245.1563 C2869.9469,245 2869.9781,244.8125 2869.9781,244.3906 L2869.9781,242.9688 C2869.9781,242.5313 2869.9625,242.4063 2869.8688,242.25 C2869.7125,241.9844 2869.4313,241.8438 2869.1344,241.8438 C2868.8375,241.8438 2868.6344,241.9375 2868.4156,242.25 L2868.2438,242.1719 Z " fill="#000000"/><text fill="#000000" font-family="sans-serif" font-size="14" lengthAdjust="spacing" textLength="116" x="2886.1" y="251.3467">ShiftSumTagger</text><line style="stroke:#181818;stroke-width:0.5;" x1="2824" x2="3032" y1="262.5" y2="262.5"/><rect fill="none" height="6" style="stroke:#C82930;stroke-width:1.0;" width="6" x="2831" y="273.1484"/><text fill="#000000" font-family="sans-serif" font-size="14" lengthAdjust="spacing" textLength="82" x="2843" y="279.4951">int shift_by</text><line style="stroke:#181818;stroke-width:0.5;" x1="2824" x2="3032" y1="286.7969" y2="286.7969"/><ellipse cx="2834" cy="300.4453" fill="#84BE84" rx="3" ry="3" style="stroke:#038048;stroke-width:1.0;"/><text fill="#000000" font-family="sans-serif" font-size="14" lengthAdjust="spacing" textLength="184" x="2843" y="303.792">ShiftSumTagger(shift_by)</text></g><!--class SpectrumShiftTagger--><g id="elem_SpectrumShiftTagger"><rect codeLine="60" fill="#F1F1F1" height="80.5938" id="SpectrumShiftTagger" rx="2.5" ry="2.5" style="stroke:#181818;stroke-width:0.5;" width="250" x="2538" y="230.5"/><ellipse cx="2580.9" cy="246.5" fill="#ADD1B2" rx="11" ry="11" style="stroke:#181818;stroke-width:1.0;"/><path d="M2583.2438,242.1719 C2582.3063,241.7344 2581.7125,241.5938 2580.8375,241.5938 C2578.2125,241.5938 2576.2125,243.6719 2576.2125,246.3906 L2576.2125,247.5156 C2576.2125,250.0938 2578.3219,251.9844 2581.2125,251.9844 C2582.4313,251.9844 2583.5875,251.6875 2584.3375,251.1406 C2584.9156,250.7344 2585.2438,250.2813 2585.2438,249.8906 C2585.2438,249.4375 2584.8531,249.0469 2584.3844,249.0469 C2584.1656,249.0469 2583.9625,249.125 2583.775,249.3125 C2583.3219,249.7969 2583.3219,249.7969 2583.1344,249.8906 C2582.7125,250.1563 2582.025,250.2813 2581.2594,250.2813 C2579.2125,250.2813 2577.9156,249.1875 2577.9156,247.4844 L2577.9156,246.3906 C2577.9156,244.6094 2579.1656,243.2969 2580.9,243.2969 C2581.4781,243.2969 2582.0875,243.4531 2582.5563,243.7031 C2583.0406,243.9844 2583.2125,244.2031 2583.3063,244.6094 C2583.3688,245.0156 2583.4,245.1406 2583.5406,245.2656 C2583.6813,245.4063 2583.9156,245.5156 2584.1344,245.5156 C2584.4,245.5156 2584.6656,245.375 2584.8375,245.1563 C2584.9469,245 2584.9781,244.8125 2584.9781,244.3906 L2584.9781,242.9688 C2584.9781,242.5313 2584.9625,242.4063 2584.8688,242.25 C2584.7125,241.9844 2584.4313,241.8438 2584.1344,241.8438 C2583.8375,241.8438 2583.6344,241.9375 2583.4156,242.25 L2583.2438,242.1719 Z " fill="#000000"/><text fill="#000000" font-family="sans-serif" font-size="14" lengthAdjust="spacing" textLength="156" x="2601.1" y="251.3467">SpectrumShiftTagger</text><line style="stroke:#181818;stroke-width:0.5;" x1="2539" x2="2787" y1="262.5" y2="262.5"/><rect fill="none" height="6" style="stroke:#C82930;stroke-width:1.0;" width="6" x="2546" y="273.1484"/><text fill="#000000" font-family="sans-serif" font-size="14" lengthAdjust="spacing" textLength="82" x="2558" y="279.4951">int shift_by</text><line style="stroke:#181818;stroke-width:0.5;" x1="2539" x2="2787" y1="286.7969" y2="286.7969"/><ellipse cx="2549" cy="300.4453" fill="#84BE84" rx="3" ry="3" style="stroke:#038048;stroke-width:1.0;"/><text fill="#000000" font-family="sans-serif" font-size="14" lengthAdjust="spacing" textLength="224" x="2558" y="303.792">SpectrumShiftTagger(shift_by)</text></g><!--class BinauralTagger--><g id="elem_BinauralTagger"><rect codeLine="66" fill="#F1F1F1" height="80.5938" id="BinauralTagger" rx="2.5" ry="2.5" style="stroke:#181818;stroke-width:0.5;" width="201" x="3068.5" y="230.5"/><ellipse cx="3111.4" cy="246.5" fill="#ADD1B2" rx="11" ry="11" style="stroke:#181818;stroke-width:1.0;"/><path d="M3113.7438,242.1719 C3112.8063,241.7344 3112.2125,241.5938 3111.3375,241.5938 C3108.7125,241.5938 3106.7125,243.6719 3106.7125,246.3906 L3106.7125,247.5156 C3106.7125,250.0938 3108.8219,251.9844 3111.7125,251.9844 C3112.9313,251.9844 3114.0875,251.6875 3114.8375,251.1406 C3115.4156,250.7344 3115.7438,250.2813 3115.7438,249.8906 C3115.7438,249.4375 3115.3531,249.0469 3114.8844,249.0469 C3114.6656,249.0469 3114.4625,249.125 3114.275,249.3125 C3113.8219,249.7969 3113.8219,249.7969 3113.6344,249.8906 C3113.2125,250.1563 3112.525,250.2813 3111.7594,250.2813 C3109.7125,250.2813 3108.4156,249.1875 3108.4156,247.4844 L3108.4156,246.3906 C3108.4156,244.6094 3109.6656,243.2969 3111.4,243.2969 C3111.9781,243.2969 3112.5875,243.4531 3113.0563,243.7031 C3113.5406,243.9844 3113.7125,244.2031 3113.8063,244.6094 C3113.8688,245.0156 3113.9,245.1406 3114.0406,245.2656 C3114.1813,245.4063 3114.4156,245.5156 3114.6344,245.5156 C3114.9,245.5156 3115.1656,245.375 3115.3375,245.1563 C3115.4469,245 3115.4781,244.8125 3115.4781,244.3906 L3115.4781,242.9688 C3115.4781,242.5313 3115.4625,242.4063 3115.3688,242.25 C3115.2125,241.9844 3114.9313,241.8438 3114.6344,241.8438 C3114.3375,241.8438 3114.1344,241.9375 3113.9156,242.25 L3113.7438,242.1719 Z " fill="#000000"/><text fill="#000000" font-family="sans-serif" font-size="14" lengthAdjust="spacing" textLength="107" x="3131.6" y="251.3467">BinauralTagger</text><line style="stroke:#181818;stroke-width:0.5;" x1="3069.5" x2="3268.5" y1="262.5" y2="262.5"/><rect fill="none" height="6" style="stroke:#C82930;stroke-width:1.0;" width="6" x="3076.5" y="273.1484"/><text fill="#000000" font-family="sans-serif" font-size="14" lengthAdjust="spacing" textLength="82" x="3088.5" y="279.4951">int shift_by</text><line style="stroke:#181818;stroke-width:0.5;" x1="3069.5" x2="3268.5" y1="286.7969" y2="286.7969"/><ellipse cx="3079.5" cy="300.4453" fill="#84BE84" rx="3" ry="3" style="stroke:#038048;stroke-width:1.0;"/><text fill="#000000" font-family="sans-serif" font-size="14" lengthAdjust="spacing" textLength="175" x="3088.5" y="303.792">BinauralTagger(shift_by)</text></g><!--link BinauralTagger to AAudioTagger--><g id="link_BinauralTagger_AAudioTagger"><path codeLine="73" d="M3145.77,230.42 C3125.19,199.463 3092.06,158.506 3051,139 C2974.6,102.699 2510.948,89.9555 2198.638,85.3145 " fill="none" id="BinauralTagger-to-AAudioTagger" style="stroke:#181818;stroke-width:1.0;"/><polygon fill="none" points="2180.64,85.047,2198.5489,91.3138,2198.7272,79.3151,2180.64,85.047" style="stroke:#181818;stroke-width:1.0;"/></g><!--reverse link AAudioTagger to SpectrumShiftTagger--><g id="link_AAudioTagger_SpectrumShiftTagger"><path codeLine="74" d="M2198.5918,94.9028 C2324.2418,103.1068 2440.56,115.824 2498,139 C2548.03,159.186 2595.19,199.6 2626.17,230.23 " fill="none" id="AAudioTagger-backto-SpectrumShiftTagger" style="stroke:#181818;stroke-width:1.0;"/><polygon fill="none" points="2180.63,93.73,2198.2008,100.89,2198.9827,88.9155,2180.63,93.73" style="stroke:#181818;stroke-width:1.0;"/></g><!--reverse link AAudioTagger to ShiftSumTagger--><g id="link_AAudioTagger_ShiftSumTagger"><path codeLine="75" d="M2198.7604,90.0594 C2441.5404,97.9724 2750.5,112.736 2806,139 C2847.58,158.675 2881.86,199.384 2903.38,230.232 " fill="none" id="AAudioTagger-backto-ShiftSumTagger" style="stroke:#181818;stroke-width:1.0;"/><polygon fill="none" points="2180.77,89.473,2198.565,96.0562,2198.9559,84.0626,2180.77,89.473" style="stroke:#181818;stroke-width:1.0;"/></g><!--reverse link AAudioTagger to RawTagger--><g id="link_AAudioTagger_RawTagger"><path codeLine="76" d="M1623.2953,88.732 C1272.7853,97.224 718.404,114.322 678,139 C638.526,163.11 617.832,216.245 608.786,246.921 " fill="none" id="AAudioTagger-backto-RawTagger" style="stroke:#181818;stroke-width:1.0;"/><polygon fill="none" points="1641.29,88.296,1623.15,82.7337,1623.4406,94.7302,1641.29,88.296" style="stroke:#181818;stroke-width:1.0;"/></g><!--reverse link AAudioTagger to NoiseTaggingTagger--><g id="link_AAudioTagger_NoiseTaggingTagger"><path codeLine="77" d="M1623.1339,87.8508 C1251.5239,95.6308 634.148,112.239 530,139 C491.834,148.807 452.754,164.623 416.786,181.93 " fill="none" id="AAudioTagger-backto-NoiseTaggingTagger" style="stroke:#181818;stroke-width:1.0;"/><polygon fill="none" points="1641.13,87.474,1623.0084,81.8521,1623.2595,93.8494,1641.13,87.474" style="stroke:#181818;stroke-width:1.0;"/></g><!--reverse link AAudioTagger to AMTagger--><g id="link_AAudioTagger_AMTagger"><path codeLine="78" d="M2026.9588,129.2832 C2039.3688,134.7372 2035.31,133.217 2047,139 C2093.03,161.78 2142.57,190.042 2183.49,214.477 " fill="none" id="AAudioTagger-backto-AMTagger" style="stroke:#181818;stroke-width:1.0;"/><polygon fill="none" points="2010.48,122.041,2024.5447,134.7761,2029.3729,123.7902,2010.48,122.041" style="stroke:#181818;stroke-width:1.0;"/></g><!--reverse link AAudioTagger to FMTagger--><g id="link_AAudioTagger_FMTagger"><path codeLine="79" d="M1818.6869,130.314 C1784.8769,147.827 1759.62,160.907 1719.12,181.888 " fill="none" id="AAudioTagger-backto-FMTagger" style="stroke:#181818;stroke-width:1.0;"/><polygon fill="none" points="1834.67,122.035,1815.9273,124.9863,1821.4466,135.6417,1834.67,122.035" style="stroke:#181818;stroke-width:1.0;"/></g><!--reverse link AAudioTagger to FlippedFMTagger--><g id="link_AAudioTagger_FlippedFMTagger"><path codeLine="80" d="M1623.3241,84.9439 C1412.8341,89.4579 1157.08,102.17 1052,139 C1000.94,156.896 951.076,192.749 915.543,222.429 " fill="none" id="AAudioTagger-backto-FlippedFMTagger" style="stroke:#181818;stroke-width:1.0;"/><polygon fill="none" points="1641.32,84.558,1623.1955,78.9453,1623.4528,90.9425,1641.32,84.558" style="stroke:#181818;stroke-width:1.0;"/></g><!--SRC=[bLLDZzem4BtdLupKIn1mQM-e5xghxQbRQU66a6MIIR3MEAdjx2xQyjyxYV5Y9s5L40h2y-Qz-VAavjapBn5uamjRwIEpl2o5Ak4z0VhmdR6QPnOooOs1vP9WrPeWgCy8W2-Fzqkj-N5Jo8hRBRnxfnCSgbmKHvRj6_MSjX8LuotKdImWzfn1OHOWb9rCpjJJJWyoZToY8vY1iUBGIE4mfoJfVckVXp6woo4847pqlzPz0y2SzA3G-AT1bHr3mnsNakyaRZO4cO5_K9YzX4cEbQXGSwfWoE00b9R36L4gBXbne7xXCWcWq-LgzUIYIp-2cSNCipx1v8FWbFHIVRWjrIx0jbkDv5PKYXNKFiebZD1JXl4DF2OXQ-hhz8HS1cNh_axWtLXopKw0RzsuC7wefR1DZeRLUsxGfAevx52Row3SLOJ1jssaqpTUc4kqB7Edp76b5v45zE9pehtZKQNESiOpMr57I57H5wl6C5yWGHcCSbu6_JhvLSfMxroUgvYXdj36EhUROka6uzlNhUyqfcu6UrUN49FaascKegunlt4eMuF9kAHjD3gFCMaubh5NU4s2y5neZvKmk7OxhnVT_AU_UQ1LcOHHrPY9Gc3E2XEUxuHbhoAt-_1GeYhjdf7DBxNVTNjZkAI1pN4B6JrzPjDXF2drfzizn40N0pKpc5KgNxYDTA6VjM7wPESlbSY1-Us1h5L9XrRh38ubc8EeI4_yDQhDATwvPYyAUrwwPh1rLwrrrHokzTvvxuvHSsEdr6C-sNWhwedLpQ7pl4rhwFa_WZ-4uetcSaIhhnPQfh7Vg99xacBqllt-TzxCUx83n7oi46EegC0ZW8-UZzY6Gpe2yc_R4TF39wRuLly3]--></g></svg>