<?xml version="1.0" encoding="us-ascii" standalone="no"?><svg xmlns="http://www.w3.org/2000/svg" xmlns:xlink="http://www.w3.org/1999/xlink" contentStyleType="text/css" height="407px" preserveAspectRatio="none" style="width:3327px;height:407px;background:#FFFFFF;" version="1.1" viewBox="0 0 3327 407" width="3327px" zoomAndPan="magnify"><defs/><g><!--cluster auditory_tagging--><g id="cluster_auditory_tagging"><path d="M8.5,6 L148.5,6 A3.75,3.75 0 0 1 151,8.5 L158,28.2969 L3317.5,28.2969 A2.5,2.5 0 0 1 3320,30.7969 L3320,397.5 A2.5,2.5 0 0 1 3317.5,400 L8.5,400 A2.5,2.5 0 0 1 6,397.5 L6,8.5 A2.5,2.5 0 0 1 8.5,6 " fill="none" style="stroke:#000000;stroke-width:1.5;"/><line style="stroke:#000000;stroke-width:1.5;" x1="6" x2="158" y1="28.2969" y2="28.2969"/><text fill="#000000" font-family="sans-serif" font-size="14" font-weight="bold" lengthAdjust="spacing" textLength="139" x="10" y="20.9951">auditory_tagging</text></g><!--cluster assr_tagger--><g id="cluster_assr_tagger"><path d="M690.5,147 L787.5,147 A3.75,3.75 0 0 1 790,149.5 L797,169.2969 L2505.5,169.2969 A2.5,2.5 0 0 1 2508,171.7969 L2508,373.5 A2.5,2.5 0 0 1 2505.5,376 L690.5,376 A2.5,2.5 0 0 1 688,373.5 L688,149.5 A2.5,2.5 0 0 1 690.5,147 " fill="none" style="stroke:#000000;stroke-width:1.5;"/><line style="stroke:#000000;stroke-width:1.5;" x1="688" x2="797" y1="169.2969" y2="169.2969"/><text fill="#000000" font-family="sans-serif" font-size="14" font-weight="bold" lengthAdjust="spacing" textLength="96" x="692" y="161.9951">assr_tagger</text></g><!--cluster shift_taggers--><g id="cluster_shift_taggers"><path d="M2534.5,195.5 L2644.5,195.5 A3.75,3.75 0 0 1 2647,198 L2654,217.7969 L3293.5,217.7969 A2.5,2.5 0 0 1 3296,220.2969 L3296,325 A2.5,2.5 0 0 1 3293.5,327.5 L2534.5,327.5 A2.5,2.5 0 0 1 2532,325 L2532,198 A2.5,2.5 0 0 1 2534.5,195.5 " fill="none" style="stroke:#000000;stroke-width:1.5;"/><line style="stroke:#000000;stroke-width:1.5;" x1="2532" x2="2654" y1="217.7969" y2="217.7969"/><text fill="#000000" font-family="sans-serif" font-size="14" font-weight="bold" lengthAdjust="spacing" textLength="109" x="2536" y="210.4951">shift_taggers</text></g><!--class AAudioTagger--><g id="elem_AAudioTagger"><rect codeLine="2" fill="#F1F1F1" height="80.5938" id="AAudioTagger" rx="2.5" ry="2.5" style="stroke:#181818;stroke-width:0.5;" width="539" x="1651.5" y="41"/><ellipse cx="1865.75" cy="57" fill="#A9DCDF" rx="11" ry="11" style="stroke:#181818;stroke-width:1.0;"/><path d="M1867.8281,58.8125 L1868.2188,59.7969 L1867.8281,59.7969 C1867.375,59.7969 1867.2656,59.8125 1867.1094,59.9219 C1866.8594,60.0781 1866.7031,60.3594 1866.7031,60.6563 C1866.7031,60.9219 1866.8438,61.1719 1867.0625,61.3281 C1867.2031,61.4531 1867.4063,61.5 1867.8281,61.5 L1870.1875,61.5 C1870.5469,61.5 1870.7656,61.4688 1870.9063,61.375 C1871.1563,61.2344 1871.3125,60.9375 1871.3125,60.6563 C1871.3125,60.375 1871.1719,60.125 1870.9531,59.9688 C1870.7813,59.8281 1870.625,59.7969 1870.1563,59.7969 L1866.7656,51.5938 L1863.0938,51.5938 C1862.6406,51.5938 1862.5156,51.6094 1862.3594,51.7031 C1862.1094,51.875 1861.9531,52.1563 1861.9531,52.4375 C1861.9531,52.7188 1862.0938,52.9688 1862.3125,53.1406 C1862.4844,53.25 1862.6563,53.2813 1863.0938,53.2813 L1864.1719,53.2813 L1861.5313,59.7969 C1861.1094,59.7969 1860.9531,59.8125 1860.7969,59.9219 C1860.5469,60.0781 1860.3906,60.3594 1860.3906,60.6563 C1860.3906,61.2188 1860.7656,61.5 1861.5156,61.5 L1863.7813,61.5 C1864.1406,61.5 1864.3594,61.4688 1864.4844,61.375 C1864.75,61.2344 1864.8906,60.9375 1864.8906,60.6563 C1864.8906,60.375 1864.7656,60.125 1864.5469,59.9531 C1864.375,59.8281 1864.2344,59.7969 1863.7813,59.7969 L1863.3906,59.7969 L1863.7813,58.8125 L1867.8281,58.8125 Z M1867.125,57.1094 L1864.4531,57.1094 L1865.7969,53.8438 L1867.125,57.1094 Z " fill="#000000"/><text fill="#000000" font-family="sans-serif" font-size="14" font-style="italic" lengthAdjust="spacing" textLength="102" x="1886.25" y="61.8467">AAudioTagger</text><line style="stroke:#181818;stroke-width:0.5;" x1="1652.5" x2="2189.5" y1="73" y2="73"/><line style="stroke:#181818;stroke-width:0.5;" x1="1652.5" x2="2189.5" y1="81" y2="81"/><polygon fill="#FFFF44" points="1662.5,89.6484,1666.5,93.6484,1662.5,97.6484,1658.5,93.6484" style="stroke:#B38D22;stroke-width:1.0;"/><text fill="#000000" font-family="sans-serif" font-size="14" font-style="italic" lengthAdjust="spacing" textLength="513" x="1671.5" y="97.9951">NDArray[float] modify_chunk(audio_array_chunk: NDArray[float], fs: int))</text><ellipse cx="1662.5" cy="110.9453" fill="#84BE84" rx="3" ry="3" style="stroke:#038048;stroke-width:1.0;"/><text fill="#000000" font-family="sans-serif" font-size="14" lengthAdjust="spacing" textLength="195" x="1671.5" y="114.292">Audio create(audio, stimuli)</text></g><!--class NoiseTaggingTagger--><g id="elem_NoiseTaggingTagger"><rect codeLine="38" fill="#F1F1F1" height="178.375" id="NoiseTaggingTagger" rx="2.5" ry="2.5" style="stroke:#181818;stroke-width:0.5;" width="500" x="22" y="182"/><ellipse cx="194.75" cy="198" fill="#ADD1B2" rx="11" ry="11" style="stroke:#181818;stroke-width:1.0;"/><path d="M197.0938,193.6719 C196.1563,193.2344 195.5625,193.0938 194.6875,193.0938 C192.0625,193.0938 190.0625,195.1719 190.0625,197.8906 L190.0625,199.0156 C190.0625,201.5938 192.1719,203.4844 195.0625,203.4844 C196.2813,203.4844 197.4375,203.1875 198.1875,202.6406 C198.7656,202.2344 199.0938,201.7813 199.0938,201.3906 C199.0938,200.9375 198.7031,200.5469 198.2344,200.5469 C198.0156,200.5469 197.8125,200.625 197.625,200.8125 C197.1719,201.2969 197.1719,201.2969 196.9844,201.3906 C196.5625,201.6563 195.875,201.7813 195.1094,201.7813 C193.0625,201.7813 191.7656,200.6875 191.7656,198.9844 L191.7656,197.8906 C191.7656,196.1094 193.0156,194.7969 194.75,194.7969 C195.3281,194.7969 195.9375,194.9531 196.4063,195.2031 C196.8906,195.4844 197.0625,195.7031 197.1563,196.1094 C197.2188,196.5156 197.25,196.6406 197.3906,196.7656 C197.5313,196.9063 197.7656,197.0156 197.9844,197.0156 C198.25,197.0156 198.5156,196.875 198.6875,196.6563 C198.7969,196.5 198.8281,196.3125 198.8281,195.8906 L198.8281,194.4688 C198.8281,194.0313 198.8125,193.9063 198.7188,193.75 C198.5625,193.4844 198.2813,193.3438 197.9844,193.3438 C197.6875,193.3438 197.4844,193.4375 197.2656,193.75 L197.0938,193.6719 Z " fill="#000000"/><text fill="#000000" font-family="sans-serif" font-size="14" lengthAdjust="spacing" textLength="146" x="215.25" y="202.8467">NoiseTaggingTagger</text><line style="stroke:#181818;stroke-width:0.5;" x1="23" x2="521" y1="214" y2="214"/><rect fill="none" height="6" style="stroke:#C82930;stroke-width:1.0;" width="6" x="30" y="224.6484"/><text fill="#000000" font-family="sans-serif" font-size="14" lengthAdjust="spacing" textLength="130" x="42" y="230.9951">Optional[int] seed</text><rect fill="none" height="6" style="stroke:#C82930;stroke-width:1.0;" width="6" x="30" y="240.9453"/><text fill="#000000" font-family="sans-serif" font-size="14" lengthAdjust="spacing" textLength="110" x="42" y="247.292">int specified_fs</text><rect fill="none" height="6" style="stroke:#C82930;stroke-width:1.0;" width="6" x="30" y="257.2422"/><text fill="#000000" font-family="sans-serif" font-size="14" lengthAdjust="spacing" textLength="92" x="42" y="263.5889">int bit_width</text><rect fill="none" height="6" style="stroke:#C82930;stroke-width:1.0;" width="6" x="30" y="273.5391"/><text fill="#000000" font-family="sans-serif" font-size="14" lengthAdjust="spacing" textLength="99" x="42" y="279.8857">int length_bit</text><ellipse cx="33" cy="292.8359" fill="none" rx="3" ry="3" style="stroke:#038048;stroke-width:1.0;"/><text fill="#000000" font-family="sans-serif" font-size="14" lengthAdjust="spacing" textLength="148" x="42" y="296.1826">Optional[Code] code</text><line style="stroke:#181818;stroke-width:0.5;" x1="23" x2="521" y1="303.4844" y2="303.4844"/><ellipse cx="33" cy="317.1328" fill="#84BE84" rx="3" ry="3" style="stroke:#038048;stroke-width:1.0;"/><text fill="#000000" font-family="sans-serif" font-size="14" lengthAdjust="spacing" textLength="474" x="42" y="320.4795">NoiseTaggingTagger(fs:int, bits_per_second: int, length_bit, seed)</text><rect fill="#F24D5C" height="6" style="stroke:#C82930;stroke-width:1.0;" width="6" x="30" y="330.4297"/><text fill="#000000" font-family="sans-serif" font-size="14" lengthAdjust="spacing" textLength="166" x="42" y="336.7764">void __generate_code()</text><rect fill="#F24D5C" height="6" style="stroke:#C82930;stroke-width:1.0;" width="6" x="30" y="346.7266"/><text fill="#000000" font-family="sans-serif" font-size="14" lengthAdjust="spacing" textLength="201" x="42" y="353.0732">void __get_code(length: int)</text></g><!--class RawTagger--><g id="elem_RawTagger"><rect codeLine="50" fill="#F1F1F1" height="48" id="RawTagger" rx="2.5" ry="2.5" style="stroke:#181818;stroke-width:0.5;" width="111" x="557.5" y="247"/><ellipse cx="572.5" cy="263" fill="#ADD1B2" rx="11" ry="11" style="stroke:#181818;stroke-width:1.0;"/><path d="M574.8438,258.6719 C573.9063,258.2344 573.3125,258.0938 572.4375,258.0938 C569.8125,258.0938 567.8125,260.1719 567.8125,262.8906 L567.8125,264.0156 C567.8125,266.5938 569.9219,268.4844 572.8125,268.4844 C574.0313,268.4844 575.1875,268.1875 575.9375,267.6406 C576.5156,267.2344 576.8438,266.7813 576.8438,266.3906 C576.8438,265.9375 576.4531,265.5469 575.9844,265.5469 C575.7656,265.5469 575.5625,265.625 575.375,265.8125 C574.9219,266.2969 574.9219,266.2969 574.7344,266.3906 C574.3125,266.6563 573.625,266.7813 572.8594,266.7813 C570.8125,266.7813 569.5156,265.6875 569.5156,263.9844 L569.5156,262.8906 C569.5156,261.1094 570.7656,259.7969 572.5,259.7969 C573.0781,259.7969 573.6875,259.9531 574.1563,260.2031 C574.6406,260.4844 574.8125,260.7031 574.9063,261.1094 C574.9688,261.5156 575,261.6406 575.1406,261.7656 C575.2813,261.9063 575.5156,262.0156 575.7344,262.0156 C576,262.0156 576.2656,261.875 576.4375,261.6563 C576.5469,261.5 576.5781,261.3125 576.5781,260.8906 L576.5781,259.4688 C576.5781,259.0313 576.5625,258.9063 576.4688,258.75 C576.3125,258.4844 576.0313,258.3438 575.7344,258.3438 C575.4375,258.3438 575.2344,258.4375 575.0156,258.75 L574.8438,258.6719 Z " fill="#000000"/><text fill="#000000" font-family="sans-serif" font-size="14" lengthAdjust="spacing" textLength="79" x="586.5" y="267.8467">RawTagger</text><line style="stroke:#181818;stroke-width:0.5;" x1="558.5" x2="667.5" y1="279" y2="279"/><line style="stroke:#181818;stroke-width:0.5;" x1="558.5" x2="667.5" y1="287" y2="287"/></g><!--class AMTagger--><g id="elem_AMTagger"><rect codeLine="9" fill="#F1F1F1" height="113.1875" id="AMTagger" rx="2.5" ry="2.5" style="stroke:#181818;stroke-width:0.5;" width="418" x="2074" y="214.5"/><ellipse cx="2242.75" cy="230.5" fill="#ADD1B2" rx="11" ry="11" style="stroke:#181818;stroke-width:1.0;"/><path d="M2245.0938,226.1719 C2244.1563,225.7344 2243.5625,225.5938 2242.6875,225.5938 C2240.0625,225.5938 2238.0625,227.6719 2238.0625,230.3906 L2238.0625,231.5156 C2238.0625,234.0938 2240.1719,235.9844 2243.0625,235.9844 C2244.2813,235.9844 2245.4375,235.6875 2246.1875,235.1406 C2246.7656,234.7344 2247.0938,234.2813 2247.0938,233.8906 C2247.0938,233.4375 2246.7031,233.0469 2246.2344,233.0469 C2246.0156,233.0469 2245.8125,233.125 2245.625,233.3125 C2245.1719,233.7969 2245.1719,233.7969 2244.9844,233.8906 C2244.5625,234.1563 2243.875,234.2813 2243.1094,234.2813 C2241.0625,234.2813 2239.7656,233.1875 2239.7656,231.4844 L2239.7656,230.3906 C2239.7656,228.6094 2241.0156,227.2969 2242.75,227.2969 C2243.3281,227.2969 2243.9375,227.4531 2244.4063,227.7031 C2244.8906,227.9844 2245.0625,228.2031 2245.1563,228.6094 C2245.2188,229.0156 2245.25,229.1406 2245.3906,229.2656 C2245.5313,229.4063 2245.7656,229.5156 2245.9844,229.5156 C2246.25,229.5156 2246.5156,229.375 2246.6875,229.1563 C2246.7969,229 2246.8281,228.8125 2246.8281,228.3906 L2246.8281,226.9688 C2246.8281,226.5313 2246.8125,226.4063 2246.7188,226.25 C2246.5625,225.9844 2246.2813,225.8438 2245.9844,225.8438 C2245.6875,225.8438 2245.4844,225.9375 2245.2656,226.25 L2245.0938,226.1719 Z " fill="#000000"/><text fill="#000000" font-family="sans-serif" font-size="14" lengthAdjust="spacing" textLength="72" x="2263.25" y="235.3467">AMTagger</text><line style="stroke:#181818;stroke-width:0.5;" x1="2075" x2="2491" y1="246.5" y2="246.5"/><rect fill="none" height="6" style="stroke:#C82930;stroke-width:1.0;" width="6" x="2082" y="257.1484"/><text fill="#000000" font-family="sans-serif" font-size="14" lengthAdjust="spacing" textLength="96" x="2094" y="263.4951">int frequency</text><rect fill="none" height="6" style="stroke:#C82930;stroke-width:1.0;" width="6" x="2082" y="273.4453"/><text fill="#000000" font-family="sans-serif" font-size="14" lengthAdjust="spacing" textLength="366" x="2094" y="279.792">Callable[[int, int, int], NDArray[float] tag_generator</text><rect fill="none" height="6" style="stroke:#C82930;stroke-width:1.0;" width="6" x="2082" y="289.7422"/><text fill="#000000" font-family="sans-serif" font-size="14" lengthAdjust="spacing" textLength="193" x="2094" y="296.0889">[float, float] signal_interval</text><line style="stroke:#181818;stroke-width:0.5;" x1="2075" x2="2491" y1="303.3906" y2="303.3906"/><ellipse cx="2085" cy="317.0391" fill="#84BE84" rx="3" ry="3" style="stroke:#038048;stroke-width:1.0;"/><text fill="#000000" font-family="sans-serif" font-size="14" lengthAdjust="spacing" textLength="392" x="2094" y="320.3857">ASSRTagger(frequency, tag_generator, signal_interval)</text></g><!--class FMTagger--><g id="elem_FMTagger"><rect codeLine="17" fill="#F1F1F1" height="178.375" id="FMTagger" rx="2.5" ry="2.5" style="stroke:#181818;stroke-width:0.5;" width="960" x="1079" y="182"/><ellipse cx="1519.75" cy="198" fill="#ADD1B2" rx="11" ry="11" style="stroke:#181818;stroke-width:1.0;"/><path d="M1522.0938,193.6719 C1521.1563,193.2344 1520.5625,193.0938 1519.6875,193.0938 C1517.0625,193.0938 1515.0625,195.1719 1515.0625,197.8906 L1515.0625,199.0156 C1515.0625,201.5938 1517.1719,203.4844 1520.0625,203.4844 C1521.2813,203.4844 1522.4375,203.1875 1523.1875,202.6406 C1523.7656,202.2344 1524.0938,201.7813 1524.0938,201.3906 C1524.0938,200.9375 1523.7031,200.5469 1523.2344,200.5469 C1523.0156,200.5469 1522.8125,200.625 1522.625,200.8125 C1522.1719,201.2969 1522.1719,201.2969 1521.9844,201.3906 C1521.5625,201.6563 1520.875,201.7813 1520.1094,201.7813 C1518.0625,201.7813 1516.7656,200.6875 1516.7656,198.9844 L1516.7656,197.8906 C1516.7656,196.1094 1518.0156,194.7969 1519.75,194.7969 C1520.3281,194.7969 1520.9375,194.9531 1521.4063,195.2031 C1521.8906,195.4844 1522.0625,195.7031 1522.1563,196.1094 C1522.2188,196.5156 1522.25,196.6406 1522.3906,196.7656 C1522.5313,196.9063 1522.7656,197.0156 1522.9844,197.0156 C1523.25,197.0156 1523.5156,196.875 1523.6875,196.6563 C1523.7969,196.5 1523.8281,196.3125 1523.8281,195.8906 L1523.8281,194.4688 C1523.8281,194.0313 1523.8125,193.9063 1523.7188,193.75 C1523.5625,193.4844 1523.2813,193.3438 1522.9844,193.3438 C1522.6875,193.3438 1522.4844,193.4375 1522.2656,193.75 L1522.0938,193.6719 Z " fill="#000000"/><text fill="#000000" font-family="sans-serif" font-size="14" lengthAdjust="spacing" textLength="70" x="1540.25" y="202.8467">FMTagger</text><line style="stroke:#181818;stroke-width:0.5;" x1="1080" x2="2038" y1="214" y2="214"/><rect fill="none" height="6" style="stroke:#C82930;stroke-width:1.0;" width="6" x="1087" y="224.6484"/><text fill="#000000" font-family="sans-serif" font-size="14" lengthAdjust="spacing" textLength="96" x="1099" y="230.9951">int frequency</text><rect fill="none" height="6" style="stroke:#C82930;stroke-width:1.0;" width="6" x="1087" y="240.9453"/><text fill="#000000" font-family="sans-serif" font-size="14" lengthAdjust="spacing" textLength="170" x="1099" y="247.292">float modulation_factor</text><line style="stroke:#181818;stroke-width:0.5;" x1="1080" x2="2038" y1="254.5938" y2="254.5938"/><ellipse cx="1090" cy="268.2422" fill="#84BE84" rx="3" ry="3" style="stroke:#038048;stroke-width:1.0;"/><text fill="#000000" font-family="sans-serif" font-size="14" lengthAdjust="spacing" textLength="292" x="1099" y="271.5889">FMTagger(frequency, modulation_factor)</text><rect fill="#F24D5C" height="6" style="stroke:#C82930;stroke-width:1.0;" width="6" x="1087" y="281.5391"/><text fill="#000000" font-family="sans-serif" font-size="14" lengthAdjust="spacing" text-decoration="underline" textLength="634" x="1099" y="287.8857">(NDArray[Real], NDArray[Real]) extract_amplitudes_phases(numbers: NDArray[Complex])</text><rect fill="#F24D5C" height="6" style="stroke:#C82930;stroke-width:1.0;" width="6" x="1087" y="297.8359"/><text fill="#000000" font-family="sans-serif" font-size="14" lengthAdjust="spacing" text-decoration="underline" textLength="660" x="1099" y="304.1826">NDArray[Complex] get_complex_number(amplitudes: NDArray[Real], phases: NDArray[Real])</text><rect fill="#F24D5C" height="6" style="stroke:#C82930;stroke-width:1.0;" width="6" x="1087" y="314.1328"/><text fill="#000000" font-family="sans-serif" font-size="14" lengthAdjust="spacing" textLength="595" x="1099" y="320.4795">NDArray[Real] phases_to_instantaneous_frequencies(phases: NDArray[Real], fs: int)</text><rect fill="#F24D5C" height="6" style="stroke:#C82930;stroke-width:1.0;" width="6" x="1087" y="330.4297"/><text fill="#000000" font-family="sans-serif" font-size="14" lengthAdjust="spacing" textLength="934" x="1099" y="336.7764">NDArray[Real] instantaneous_frequencies_to_phases(instantaneous_frequencies: NDArray[Real], first_phase: NDArray[Real], fs: int)</text><rect fill="#F24D5C" height="6" style="stroke:#C82930;stroke-width:1.0;" width="6" x="1087" y="346.7266"/><text fill="#000000" font-family="sans-serif" font-size="14" lengthAdjust="spacing" textLength="372" x="1099" y="353.0732">NDArray[float32] modulate(signal: NDArray[float32])</text></g><!--class FlippedFMTagger--><g id="elem_FlippedFMTagger"><rect codeLine="30" fill="#F1F1F1" height="96.8906" id="FlippedFMTagger" rx="2.5" ry="2.5" style="stroke:#181818;stroke-width:0.5;" width="340" x="704" y="222.5"/><ellipse cx="807.75" cy="238.5" fill="#ADD1B2" rx="11" ry="11" style="stroke:#181818;stroke-width:1.0;"/><path d="M810.0938,234.1719 C809.1563,233.7344 808.5625,233.5938 807.6875,233.5938 C805.0625,233.5938 803.0625,235.6719 803.0625,238.3906 L803.0625,239.5156 C803.0625,242.0938 805.1719,243.9844 808.0625,243.9844 C809.2813,243.9844 810.4375,243.6875 811.1875,243.1406 C811.7656,242.7344 812.0938,242.2813 812.0938,241.8906 C812.0938,241.4375 811.7031,241.0469 811.2344,241.0469 C811.0156,241.0469 810.8125,241.125 810.625,241.3125 C810.1719,241.7969 810.1719,241.7969 809.9844,241.8906 C809.5625,242.1563 808.875,242.2813 808.1094,242.2813 C806.0625,242.2813 804.7656,241.1875 804.7656,239.4844 L804.7656,238.3906 C804.7656,236.6094 806.0156,235.2969 807.75,235.2969 C808.3281,235.2969 808.9375,235.4531 809.4063,235.7031 C809.8906,235.9844 810.0625,236.2031 810.1563,236.6094 C810.2188,237.0156 810.25,237.1406 810.3906,237.2656 C810.5313,237.4063 810.7656,237.5156 810.9844,237.5156 C811.25,237.5156 811.5156,237.375 811.6875,237.1563 C811.7969,237 811.8281,236.8125 811.8281,236.3906 L811.8281,234.9688 C811.8281,234.5313 811.8125,234.4063 811.7188,234.25 C811.5625,233.9844 811.2813,233.8438 810.9844,233.8438 C810.6875,233.8438 810.4844,233.9375 810.2656,234.25 L810.0938,234.1719 Z " fill="#000000"/><text fill="#000000" font-family="sans-serif" font-size="14" lengthAdjust="spacing" textLength="124" x="828.25" y="243.3467">FlippedFMTagger</text><line style="stroke:#181818;stroke-width:0.5;" x1="705" x2="1043" y1="254.5" y2="254.5"/><rect fill="none" height="6" style="stroke:#C82930;stroke-width:1.0;" width="6" x="712" y="265.1484"/><text fill="#000000" font-family="sans-serif" font-size="14" lengthAdjust="spacing" textLength="96" x="724" y="271.4951">int frequency</text><rect fill="none" height="6" style="stroke:#C82930;stroke-width:1.0;" width="6" x="712" y="281.4453"/><text fill="#000000" font-family="sans-serif" font-size="14" lengthAdjust="spacing" textLength="124" x="724" y="287.792">int scaling_factor</text><line style="stroke:#181818;stroke-width:0.5;" x1="705" x2="1043" y1="295.0938" y2="295.0938"/><ellipse cx="715" cy="308.7422" fill="#84BE84" rx="3" ry="3" style="stroke:#038048;stroke-width:1.0;"/><text fill="#000000" font-family="sans-serif" font-size="14" lengthAdjust="spacing" textLength="314" x="724" y="312.0889">FlippedFMTagger(frequency, scaling_factor)</text></g><!--class ShiftSumTagger--><g id="elem_ShiftSumTagger"><rect codeLine="54" fill="#F1F1F1" height="80.5938" id="ShiftSumTagger" rx="2.5" ry="2.5" style="stroke:#181818;stroke-width:0.5;" width="210" x="2833" y="230.5"/><ellipse cx="2875.9" cy="246.5" fill="#ADD1B2" rx="11" ry="11" style="stroke:#181818;stroke-width:1.0;"/><path d="M2878.2438,242.1719 C2877.3063,241.7344 2876.7125,241.5938 2875.8375,241.5938 C2873.2125,241.5938 2871.2125,243.6719 2871.2125,246.3906 L2871.2125,247.5156 C2871.2125,250.0938 2873.3219,251.9844 2876.2125,251.9844 C2877.4313,251.9844 2878.5875,251.6875 2879.3375,251.1406 C2879.9156,250.7344 2880.2438,250.2813 2880.2438,249.8906 C2880.2438,249.4375 2879.8531,249.0469 2879.3844,249.0469 C2879.1656,249.0469 2878.9625,249.125 2878.775,249.3125 C2878.3219,249.7969 2878.3219,249.7969 2878.1344,249.8906 C2877.7125,250.1563 2877.025,250.2813 2876.2594,250.2813 C2874.2125,250.2813 2872.9156,249.1875 2872.9156,247.4844 L2872.9156,246.3906 C2872.9156,244.6094 2874.1656,243.2969 2875.9,243.2969 C2876.4781,243.2969 2877.0875,243.4531 2877.5563,243.7031 C2878.0406,243.9844 2878.2125,244.2031 2878.3063,244.6094 C2878.3688,245.0156 2878.4,245.1406 2878.5406,245.2656 C2878.6813,245.4063 2878.9156,245.5156 2879.1344,245.5156 C2879.4,245.5156 2879.6656,245.375 2879.8375,245.1563 C2879.9469,245 2879.9781,244.8125 2879.9781,244.3906 L2879.9781,242.9688 C2879.9781,242.5313 2879.9625,242.4063 2879.8688,242.25 C2879.7125,241.9844 2879.4313,241.8438 2879.1344,241.8438 C2878.8375,241.8438 2878.6344,241.9375 2878.4156,242.25 L2878.2438,242.1719 Z " fill="#000000"/><text fill="#000000" font-family="sans-serif" font-size="14" lengthAdjust="spacing" textLength="116" x="2896.1" y="251.3467">ShiftSumTagger</text><line style="stroke:#181818;stroke-width:0.5;" x1="2834" x2="3042" y1="262.5" y2="262.5"/><rect fill="none" height="6" style="stroke:#C82930;stroke-width:1.0;" width="6" x="2841" y="273.1484"/><text fill="#000000" font-family="sans-serif" font-size="14" lengthAdjust="spacing" textLength="82" x="2853" y="279.4951">int shift_by</text><line style="stroke:#181818;stroke-width:0.5;" x1="2834" x2="3042" y1="286.7969" y2="286.7969"/><ellipse cx="2844" cy="300.4453" fill="#84BE84" rx="3" ry="3" style="stroke:#038048;stroke-width:1.0;"/><text fill="#000000" font-family="sans-serif" font-size="14" lengthAdjust="spacing" textLength="184" x="2853" y="303.792">ShiftSumTagger(shift_by)</text></g><!--class SpectrumShiftTagger--><g id="elem_SpectrumShiftTagger"><rect codeLine="60" fill="#F1F1F1" height="80.5938" id="SpectrumShiftTagger" rx="2.5" ry="2.5" style="stroke:#181818;stroke-width:0.5;" width="250" x="2548" y="230.5"/><ellipse cx="2590.9" cy="246.5" fill="#ADD1B2" rx="11" ry="11" style="stroke:#181818;stroke-width:1.0;"/><path d="M2593.2438,242.1719 C2592.3063,241.7344 2591.7125,241.5938 2590.8375,241.5938 C2588.2125,241.5938 2586.2125,243.6719 2586.2125,246.3906 L2586.2125,247.5156 C2586.2125,250.0938 2588.3219,251.9844 2591.2125,251.9844 C2592.4313,251.9844 2593.5875,251.6875 2594.3375,251.1406 C2594.9156,250.7344 2595.2438,250.2813 2595.2438,249.8906 C2595.2438,249.4375 2594.8531,249.0469 2594.3844,249.0469 C2594.1656,249.0469 2593.9625,249.125 2593.775,249.3125 C2593.3219,249.7969 2593.3219,249.7969 2593.1344,249.8906 C2592.7125,250.1563 2592.025,250.2813 2591.2594,250.2813 C2589.2125,250.2813 2587.9156,249.1875 2587.9156,247.4844 L2587.9156,246.3906 C2587.9156,244.6094 2589.1656,243.2969 2590.9,243.2969 C2591.4781,243.2969 2592.0875,243.4531 2592.5563,243.7031 C2593.0406,243.9844 2593.2125,244.2031 2593.3063,244.6094 C2593.3688,245.0156 2593.4,245.1406 2593.5406,245.2656 C2593.6813,245.4063 2593.9156,245.5156 2594.1344,245.5156 C2594.4,245.5156 2594.6656,245.375 2594.8375,245.1563 C2594.9469,245 2594.9781,244.8125 2594.9781,244.3906 L2594.9781,242.9688 C2594.9781,242.5313 2594.9625,242.4063 2594.8688,242.25 C2594.7125,241.9844 2594.4313,241.8438 2594.1344,241.8438 C2593.8375,241.8438 2593.6344,241.9375 2593.4156,242.25 L2593.2438,242.1719 Z " fill="#000000"/><text fill="#000000" font-family="sans-serif" font-size="14" lengthAdjust="spacing" textLength="156" x="2611.1" y="251.3467">SpectrumShiftTagger</text><line style="stroke:#181818;stroke-width:0.5;" x1="2549" x2="2797" y1="262.5" y2="262.5"/><rect fill="none" height="6" style="stroke:#C82930;stroke-width:1.0;" width="6" x="2556" y="273.1484"/><text fill="#000000" font-family="sans-serif" font-size="14" lengthAdjust="spacing" textLength="82" x="2568" y="279.4951">int shift_by</text><line style="stroke:#181818;stroke-width:0.5;" x1="2549" x2="2797" y1="286.7969" y2="286.7969"/><ellipse cx="2559" cy="300.4453" fill="#84BE84" rx="3" ry="3" style="stroke:#038048;stroke-width:1.0;"/><text fill="#000000" font-family="sans-serif" font-size="14" lengthAdjust="spacing" textLength="224" x="2568" y="303.792">SpectrumShiftTagger(shift_by)</text></g><!--class BinauralTagger--><g id="elem_BinauralTagger"><rect codeLine="66" fill="#F1F1F1" height="80.5938" id="BinauralTagger" rx="2.5" ry="2.5" style="stroke:#181818;stroke-width:0.5;" width="201" x="3078.5" y="230.5"/><ellipse cx="3121.4" cy="246.5" fill="#ADD1B2" rx="11" ry="11" style="stroke:#181818;stroke-width:1.0;"/><path d="M3123.7438,242.1719 C3122.8063,241.7344 3122.2125,241.5938 3121.3375,241.5938 C3118.7125,241.5938 3116.7125,243.6719 3116.7125,246.3906 L3116.7125,247.5156 C3116.7125,250.0938 3118.8219,251.9844 3121.7125,251.9844 C3122.9313,251.9844 3124.0875,251.6875 3124.8375,251.1406 C3125.4156,250.7344 3125.7438,250.2813 3125.7438,249.8906 C3125.7438,249.4375 3125.3531,249.0469 3124.8844,249.0469 C3124.6656,249.0469 3124.4625,249.125 3124.275,249.3125 C3123.8219,249.7969 3123.8219,249.7969 3123.6344,249.8906 C3123.2125,250.1563 3122.525,250.2813 3121.7594,250.2813 C3119.7125,250.2813 3118.4156,249.1875 3118.4156,247.4844 L3118.4156,246.3906 C3118.4156,244.6094 3119.6656,243.2969 3121.4,243.2969 C3121.9781,243.2969 3122.5875,243.4531 3123.0563,243.7031 C3123.5406,243.9844 3123.7125,244.2031 3123.8063,244.6094 C3123.8688,245.0156 3123.9,245.1406 3124.0406,245.2656 C3124.1813,245.4063 3124.4156,245.5156 3124.6344,245.5156 C3124.9,245.5156 3125.1656,245.375 3125.3375,245.1563 C3125.4469,245 3125.4781,244.8125 3125.4781,244.3906 L3125.4781,242.9688 C3125.4781,242.5313 3125.4625,242.4063 3125.3688,242.25 C3125.2125,241.9844 3124.9313,241.8438 3124.6344,241.8438 C3124.3375,241.8438 3124.1344,241.9375 3123.9156,242.25 L3123.7438,242.1719 Z " fill="#000000"/><text fill="#000000" font-family="sans-serif" font-size="14" lengthAdjust="spacing" textLength="107" x="3141.6" y="251.3467">BinauralTagger</text><line style="stroke:#181818;stroke-width:0.5;" x1="3079.5" x2="3278.5" y1="262.5" y2="262.5"/><rect fill="none" height="6" style="stroke:#C82930;stroke-width:1.0;" width="6" x="3086.5" y="273.1484"/><text fill="#000000" font-family="sans-serif" font-size="14" lengthAdjust="spacing" textLength="82" x="3098.5" y="279.4951">int shift_by</text><line style="stroke:#181818;stroke-width:0.5;" x1="3079.5" x2="3278.5" y1="286.7969" y2="286.7969"/><ellipse cx="3089.5" cy="300.4453" fill="#84BE84" rx="3" ry="3" style="stroke:#038048;stroke-width:1.0;"/><text fill="#000000" font-family="sans-serif" font-size="14" lengthAdjust="spacing" textLength="175" x="3098.5" y="303.792">BinauralTagger(shift_by)</text></g><!--link BinauralTagger to AAudioTagger--><g id="link_BinauralTagger_AAudioTagger"><path codeLine="73" d="M3155.77,230.42 C3135.19,199.463 3102.06,158.506 3061,139 C2984.6,102.699 2520.948,89.9555 2208.638,85.3145 " fill="none" id="BinauralTagger-to-AAudioTagger" style="stroke:#181818;stroke-width:1.0;"/><polygon fill="none" points="2190.64,85.047,2208.5489,91.3138,2208.7272,79.3151,2190.64,85.047" style="stroke:#181818;stroke-width:1.0;"/></g><!--reverse link AAudioTagger to SpectrumShiftTagger--><g id="link_AAudioTagger_SpectrumShiftTagger"><path codeLine="74" d="M2208.5918,94.9028 C2334.2418,103.1068 2450.56,115.824 2508,139 C2558.03,159.186 2605.19,199.6 2636.17,230.23 " fill="none" id="AAudioTagger-backto-SpectrumShiftTagger" style="stroke:#181818;stroke-width:1.0;"/><polygon fill="none" points="2190.63,93.73,2208.2008,100.89,2208.9827,88.9155,2190.63,93.73" style="stroke:#181818;stroke-width:1.0;"/></g><!--reverse link AAudioTagger to ShiftSumTagger--><g id="link_AAudioTagger_ShiftSumTagger"><path codeLine="75" d="M2208.7604,90.0594 C2451.5404,97.9724 2760.5,112.736 2816,139 C2857.58,158.675 2891.86,199.384 2913.38,230.232 " fill="none" id="AAudioTagger-backto-ShiftSumTagger" style="stroke:#181818;stroke-width:1.0;"/><polygon fill="none" points="2190.77,89.473,2208.565,96.0562,2208.9559,84.0626,2190.77,89.473" style="stroke:#181818;stroke-width:1.0;"/></g><!--reverse link AAudioTagger to RawTagger--><g id="link_AAudioTagger_RawTagger"><path codeLine="76" d="M1633.2953,88.732 C1282.7853,97.224 728.404,114.322 688,139 C648.526,163.11 627.832,216.245 618.786,246.921 " fill="none" id="AAudioTagger-backto-RawTagger" style="stroke:#181818;stroke-width:1.0;"/><polygon fill="none" points="1651.29,88.296,1633.15,82.7337,1633.4406,94.7302,1651.29,88.296" style="stroke:#181818;stroke-width:1.0;"/></g><!--reverse link AAudioTagger to NoiseTaggingTagger--><g id="link_AAudioTagger_NoiseTaggingTagger"><path codeLine="77" d="M1633.1541,87.962 C1261.5841,95.87 644.247,112.629 540,139 C501.215,148.811 461.434,164.63 424.789,181.937 " fill="none" id="AAudioTagger-backto-NoiseTaggingTagger" style="stroke:#181818;stroke-width:1.0;"/><polygon fill="none" points="1651.15,87.579,1633.0264,81.9634,1633.2817,93.9606,1651.15,87.579" style="stroke:#181818;stroke-width:1.0;"/></g><!--reverse link AAudioTagger to AMTagger--><g id="link_AAudioTagger_AMTagger"><path codeLine="78" d="M2036.9588,129.2832 C2049.3688,134.7372 2045.31,133.217 2057,139 C2103.03,161.78 2152.57,190.042 2193.49,214.477 " fill="none" id="AAudioTagger-backto-AMTagger" style="stroke:#181818;stroke-width:1.0;"/><polygon fill="none" points="2020.48,122.041,2034.5447,134.7761,2039.3729,123.7902,2020.48,122.041" style="stroke:#181818;stroke-width:1.0;"/></g><!--reverse link AAudioTagger to FMTagger--><g id="link_AAudioTagger_FMTagger"><path codeLine="79" d="M1828.6869,130.314 C1794.8769,147.827 1769.62,160.907 1729.12,181.888 " fill="none" id="AAudioTagger-backto-FMTagger" style="stroke:#181818;stroke-width:1.0;"/><polygon fill="none" points="1844.67,122.035,1825.9273,124.9863,1831.4466,135.6417,1844.67,122.035" style="stroke:#181818;stroke-width:1.0;"/></g><!--reverse link AAudioTagger to FlippedFMTagger--><g id="link_AAudioTagger_FlippedFMTagger"><path codeLine="80" d="M1633.3241,84.9439 C1422.8341,89.4579 1167.08,102.17 1062,139 C1010.94,156.896 961.076,192.749 925.543,222.429 " fill="none" id="AAudioTagger-backto-FlippedFMTagger" style="stroke:#181818;stroke-width:1.0;"/><polygon fill="none" points="1651.32,84.558,1633.1955,78.9453,1633.4528,90.9425,1651.32,84.558" style="stroke:#181818;stroke-width:1.0;"/></g><!--SRC=[bLLDZzem4BtdLrZg9GYuj3VK2zrgRzrA2pU4h26P16jDdDhExg8j_xsJ68ETX5L1A0ZFc_VcovCQiXSeaK6J2wlqaLieIr6Lx2DXz86TiHeoop89nh3bac1gJH3KPmHZNvv-BhM6uwQG2koMVNYd4pkeN1H7dksRwYLj9HI75kfE5YpsdB72B9Yex6HoffvsUYpJ21OTmOmPAmwD50vpIfBkj_Pv6AEx7880cO_-rxflO6nEUgpG-AV1AZk6XWUG4dOIDnk2p9X_K9YzX4cEbrYX1gfWoE00b9R36L5M83bne7u5cGJGwNArUdRHfPTWPZ7ph4ymkH2SabwgZ_UbsWNOTgkHO8MgU47jerp223rb6D_0OnAofhvEpmWoA5ltTy8-Z2NNxCJmlHiN3eTQ2jlaQ7Yz1uCchPh33hMv3ig38Wo-RoETll7ANABbcJlbZYkzYYnOBpudsZiULUeiPpotYZf2YXLzKJM6-m89oc2KyphejyblKhPwv_BSn0prX3RMkTqLIpSOtxvkVQSnTJFOkxg4c2IVJACKTOtvdKFP6am6ahRHw3p6fE5OnbxXDGd2Sw4zAM5mxNPUBxhvxxgTR93j_QVRYvWdOMWrPg8GcFF2XESxOVcRoEq-F9HObNRFoUOtsuNyGUMuPHazVNhJOL0fDQbRGCH0jmCrDvYfAb-ujNIbdtLn-fJdhqhaZFiTWhoLIOTMwmoE9fY6g5JFy1PLw1HlNhCNXJslNZFOlQlMkceEjoR0UU-EKOjZfzHZFjbxAsgArSsXyxnFQ-ZvFu8_H0MD1ZcYrLSBBTFORrJ9FKanUkj-_pjlvZtP0M8-LeWnL5JW4S2bvoEsuPIEWFmxTyJq-8afljl_0000]--></g></svg>