<?xml version="1.0" encoding="us-ascii" standalone="no"?><svg xmlns="http://www.w3.org/2000/svg" xmlns:xlink="http://www.w3.org/1999/xlink" contentStyleType="text/css" height="881px" preserveAspectRatio="none" style="width:3101px;height:881px;background:#FFFFFF;" version="1.1" viewBox="0 0 3101 881" width="3101px" zoomAndPan="magnify"><defs/><g><!--cluster auditory_tagging--><g id="cluster_auditory_tagging"><path d="M8.5,151 L148.5,151 A3.75,3.75 0 0 1 151,153.5 L158,173.2969 L3091.5,173.2969 A2.5,2.5 0 0 1 3094,175.7969 L3094,871.5 A2.5,2.5 0 0 1 3091.5,874 L8.5,874 A2.5,2.5 0 0 1 6,871.5 L6,153.5 A2.5,2.5 0 0 1 8.5,151 " fill="none" style="stroke:#000000;stroke-width:1.5;"/><line style="stroke:#000000;stroke-width:1.5;" x1="6" x2="158" y1="173.2969" y2="173.2969"/><text fill="#000000" font-family="sans-serif" font-size="14" font-weight="bold" lengthAdjust="spacing" textLength="139" x="10" y="165.9951">auditory_tagging</text></g><!--cluster assr_tagger--><g id="cluster_assr_tagger"><path d="M1247.5,330 L1344.5,330 A3.75,3.75 0 0 1 1347,332.5 L1354,352.2969 L3067.5,352.2969 A2.5,2.5 0 0 1 3070,354.7969 L3070,738.5 A2.5,2.5 0 0 1 3067.5,741 L1247.5,741 A2.5,2.5 0 0 1 1245,738.5 L1245,332.5 A2.5,2.5 0 0 1 1247.5,330 " fill="none" style="stroke:#000000;stroke-width:1.5;"/><line style="stroke:#000000;stroke-width:1.5;" x1="1245" x2="1354" y1="352.2969" y2="352.2969"/><text fill="#000000" font-family="sans-serif" font-size="14" font-weight="bold" lengthAdjust="spacing" textLength="96" x="1249" y="344.9951">assr_tagger</text></g><!--class AAuditoryTagger--><g id="elem_AAuditoryTagger"><rect codeLine="7" fill="#F1F1F1" height="96.8906" id="AAuditoryTagger" rx="2.5" ry="2.5" style="stroke:#181818;stroke-width:0.5;" width="273" x="1130.5" y="186"/><ellipse cx="1202.25" cy="202" fill="#A9DCDF" rx="11" ry="11" style="stroke:#181818;stroke-width:1.0;"/><path d="M1204.3281,203.8125 L1204.7188,204.7969 L1204.3281,204.7969 C1203.875,204.7969 1203.7656,204.8125 1203.6094,204.9219 C1203.3594,205.0781 1203.2031,205.3594 1203.2031,205.6563 C1203.2031,205.9219 1203.3438,206.1719 1203.5625,206.3281 C1203.7031,206.4531 1203.9063,206.5 1204.3281,206.5 L1206.6875,206.5 C1207.0469,206.5 1207.2656,206.4688 1207.4063,206.375 C1207.6563,206.2344 1207.8125,205.9375 1207.8125,205.6563 C1207.8125,205.375 1207.6719,205.125 1207.4531,204.9688 C1207.2813,204.8281 1207.125,204.7969 1206.6563,204.7969 L1203.2656,196.5938 L1199.5938,196.5938 C1199.1406,196.5938 1199.0156,196.6094 1198.8594,196.7031 C1198.6094,196.875 1198.4531,197.1563 1198.4531,197.4375 C1198.4531,197.7188 1198.5938,197.9688 1198.8125,198.1406 C1198.9844,198.25 1199.1563,198.2813 1199.5938,198.2813 L1200.6719,198.2813 L1198.0313,204.7969 C1197.6094,204.7969 1197.4531,204.8125 1197.2969,204.9219 C1197.0469,205.0781 1196.8906,205.3594 1196.8906,205.6563 C1196.8906,206.2188 1197.2656,206.5 1198.0156,206.5 L1200.2813,206.5 C1200.6406,206.5 1200.8594,206.4688 1200.9844,206.375 C1201.25,206.2344 1201.3906,205.9375 1201.3906,205.6563 C1201.3906,205.375 1201.2656,205.125 1201.0469,204.9531 C1200.875,204.8281 1200.7344,204.7969 1200.2813,204.7969 L1199.8906,204.7969 L1200.2813,203.8125 L1204.3281,203.8125 Z M1203.625,202.1094 L1200.9531,202.1094 L1202.2969,198.8438 L1203.625,202.1094 Z " fill="#000000"/><text fill="#000000" font-family="sans-serif" font-size="14" font-style="italic" lengthAdjust="spacing" textLength="121" x="1222.75" y="206.8467">AAuditoryTagger</text><line style="stroke:#181818;stroke-width:0.5;" x1="1131.5" x2="1402.5" y1="218" y2="218"/><polygon fill="none" points="1141.5,226.6484,1145.5,230.6484,1141.5,234.6484,1137.5,230.6484" style="stroke:#B38D22;stroke-width:1.0;"/><text fill="#000000" font-family="sans-serif" font-size="14" lengthAdjust="spacing" textLength="247" x="1150.5" y="234.9951">list[ [float, float] ] stimuli_intervals</text><line style="stroke:#181818;stroke-width:0.5;" x1="1131.5" x2="1402.5" y1="242.2969" y2="242.2969"/><ellipse cx="1141.5" cy="255.9453" fill="#84BE84" rx="3" ry="3" style="stroke:#038048;stroke-width:1.0;"/><text fill="#000000" font-family="sans-serif" font-size="14" lengthAdjust="spacing" textLength="225" x="1150.5" y="259.292">AAuditoryTagger(audio, stimuli)</text><ellipse cx="1141.5" cy="272.2422" fill="#84BE84" rx="3" ry="3" style="stroke:#038048;stroke-width:1.0;"/><text fill="#000000" font-family="sans-serif" font-size="14" font-style="italic" lengthAdjust="spacing" textLength="101" x="1150.5" y="275.5889">Audio create()</text></g><!--class AAudioTaggerFactory--><g id="elem_AAudioTaggerFactory"><rect codeLine="17" fill="#F1F1F1" height="64.2969" id="AAudioTaggerFactory" rx="2.5" ry="2.5" style="stroke:#181818;stroke-width:0.5;" width="693" x="928.5" y="794"/><ellipse cx="1193.25" cy="810" fill="#A9DCDF" rx="11" ry="11" style="stroke:#181818;stroke-width:1.0;"/><path d="M1195.3281,811.8125 L1195.7188,812.7969 L1195.3281,812.7969 C1194.875,812.7969 1194.7656,812.8125 1194.6094,812.9219 C1194.3594,813.0781 1194.2031,813.3594 1194.2031,813.6563 C1194.2031,813.9219 1194.3438,814.1719 1194.5625,814.3281 C1194.7031,814.4531 1194.9063,814.5 1195.3281,814.5 L1197.6875,814.5 C1198.0469,814.5 1198.2656,814.4688 1198.4063,814.375 C1198.6563,814.2344 1198.8125,813.9375 1198.8125,813.6563 C1198.8125,813.375 1198.6719,813.125 1198.4531,812.9688 C1198.2813,812.8281 1198.125,812.7969 1197.6563,812.7969 L1194.2656,804.5938 L1190.5938,804.5938 C1190.1406,804.5938 1190.0156,804.6094 1189.8594,804.7031 C1189.6094,804.875 1189.4531,805.1563 1189.4531,805.4375 C1189.4531,805.7188 1189.5938,805.9688 1189.8125,806.1406 C1189.9844,806.25 1190.1563,806.2813 1190.5938,806.2813 L1191.6719,806.2813 L1189.0313,812.7969 C1188.6094,812.7969 1188.4531,812.8125 1188.2969,812.9219 C1188.0469,813.0781 1187.8906,813.3594 1187.8906,813.6563 C1187.8906,814.2188 1188.2656,814.5 1189.0156,814.5 L1191.2813,814.5 C1191.6406,814.5 1191.8594,814.4688 1191.9844,814.375 C1192.25,814.2344 1192.3906,813.9375 1192.3906,813.6563 C1192.3906,813.375 1192.2656,813.125 1192.0469,812.9531 C1191.875,812.8281 1191.7344,812.7969 1191.2813,812.7969 L1190.8906,812.7969 L1191.2813,811.8125 L1195.3281,811.8125 Z M1194.625,810.1094 L1191.9531,810.1094 L1193.2969,806.8438 L1194.625,810.1094 Z " fill="#000000"/><text fill="#000000" font-family="sans-serif" font-size="14" font-style="italic" lengthAdjust="spacing" textLength="155" x="1213.75" y="814.8467">AAudioTaggerFactory</text><line style="stroke:#181818;stroke-width:0.5;" x1="929.5" x2="1620.5" y1="826" y2="826"/><line style="stroke:#181818;stroke-width:0.5;" x1="929.5" x2="1620.5" y1="834" y2="834"/><ellipse cx="939.5" cy="847.6484" fill="#84BE84" rx="3" ry="3" style="stroke:#038048;stroke-width:1.0;"/><text fill="#000000" font-family="sans-serif" font-size="14" font-style="italic" lengthAdjust="spacing" textLength="667" x="948.5" y="850.9951">AAudioTagger create_auditory_stimulus(audio: Audio, stimuli_intervals: List[Tuple[float, float])</text></g><!--class NoiseTaggingTagger--><g id="elem_NoiseTaggingTagger"><rect codeLine="71" fill="#F1F1F1" height="178.375" id="NoiseTaggingTagger" rx="2.5" ry="2.5" style="stroke:#181818;stroke-width:0.5;" width="625" x="22.5" y="365"/><ellipse cx="257.75" cy="381" fill="#ADD1B2" rx="11" ry="11" style="stroke:#181818;stroke-width:1.0;"/><path d="M260.0938,376.6719 C259.1563,376.2344 258.5625,376.0938 257.6875,376.0938 C255.0625,376.0938 253.0625,378.1719 253.0625,380.8906 L253.0625,382.0156 C253.0625,384.5938 255.1719,386.4844 258.0625,386.4844 C259.2813,386.4844 260.4375,386.1875 261.1875,385.6406 C261.7656,385.2344 262.0938,384.7813 262.0938,384.3906 C262.0938,383.9375 261.7031,383.5469 261.2344,383.5469 C261.0156,383.5469 260.8125,383.625 260.625,383.8125 C260.1719,384.2969 260.1719,384.2969 259.9844,384.3906 C259.5625,384.6563 258.875,384.7813 258.1094,384.7813 C256.0625,384.7813 254.7656,383.6875 254.7656,381.9844 L254.7656,380.8906 C254.7656,379.1094 256.0156,377.7969 257.75,377.7969 C258.3281,377.7969 258.9375,377.9531 259.4063,378.2031 C259.8906,378.4844 260.0625,378.7031 260.1563,379.1094 C260.2188,379.5156 260.25,379.6406 260.3906,379.7656 C260.5313,379.9063 260.7656,380.0156 260.9844,380.0156 C261.25,380.0156 261.5156,379.875 261.6875,379.6563 C261.7969,379.5 261.8281,379.3125 261.8281,378.8906 L261.8281,377.4688 C261.8281,377.0313 261.8125,376.9063 261.7188,376.75 C261.5625,376.4844 261.2813,376.3438 260.9844,376.3438 C260.6875,376.3438 260.4844,376.4375 260.2656,376.75 L260.0938,376.6719 Z " fill="#000000"/><text fill="#000000" font-family="sans-serif" font-size="14" lengthAdjust="spacing" textLength="146" x="278.25" y="385.8467">NoiseTaggingTagger</text><line style="stroke:#181818;stroke-width:0.5;" x1="23.5" x2="646.5" y1="397" y2="397"/><rect fill="none" height="6" style="stroke:#C82930;stroke-width:1.0;" width="6" x="30.5" y="407.6484"/><text fill="#000000" font-family="sans-serif" font-size="14" lengthAdjust="spacing" textLength="130" x="42.5" y="413.9951">Optional[int] seed</text><rect fill="none" height="6" style="stroke:#C82930;stroke-width:1.0;" width="6" x="30.5" y="423.9453"/><text fill="#000000" font-family="sans-serif" font-size="14" lengthAdjust="spacing" textLength="92" x="42.5" y="430.292">int bit_width</text><rect fill="none" height="6" style="stroke:#C82930;stroke-width:1.0;" width="6" x="30.5" y="440.2422"/><text fill="#000000" font-family="sans-serif" font-size="14" lengthAdjust="spacing" textLength="99" x="42.5" y="446.5889">int length_bit</text><ellipse cx="33.5" cy="459.5391" fill="none" rx="3" ry="3" style="stroke:#038048;stroke-width:1.0;"/><text fill="#000000" font-family="sans-serif" font-size="14" lengthAdjust="spacing" textLength="148" x="42.5" y="462.8857">Optional[Code] code</text><line style="stroke:#181818;stroke-width:0.5;" x1="23.5" x2="646.5" y1="470.1875" y2="470.1875"/><ellipse cx="33.5" cy="483.8359" fill="#84BE84" rx="3" ry="3" style="stroke:#038048;stroke-width:1.0;"/><text fill="#000000" font-family="sans-serif" font-size="14" lengthAdjust="spacing" textLength="599" x="42.5" y="487.1826">NoiseTaggingTagger(audio, stimuli_intervals, bits_per_second: int, length_bit, seed)</text><ellipse cx="33.5" cy="500.1328" fill="#84BE84" rx="3" ry="3" style="stroke:#038048;stroke-width:1.0;"/><text fill="#000000" font-family="sans-serif" font-size="14" lengthAdjust="spacing" textLength="101" x="42.5" y="503.4795">Audio create()</text><rect fill="#F24D5C" height="6" style="stroke:#C82930;stroke-width:1.0;" width="6" x="30.5" y="513.4297"/><text fill="#000000" font-family="sans-serif" font-size="14" lengthAdjust="spacing" textLength="166" x="42.5" y="519.7764">void __generate_code()</text><rect fill="#F24D5C" height="6" style="stroke:#C82930;stroke-width:1.0;" width="6" x="30.5" y="529.7266"/><text fill="#000000" font-family="sans-serif" font-size="14" lengthAdjust="spacing" textLength="201" x="42.5" y="536.0732">void __get_code(length: int)</text></g><!--class NoiseTaggingTaggerFactory--><g id="elem_NoiseTaggingTaggerFactory"><rect codeLine="83" fill="#F1F1F1" height="113.1875" id="NoiseTaggingTaggerFactory" rx="2.5" ry="2.5" style="stroke:#181818;stroke-width:0.5;" width="479" x="182.5" y="620"/><ellipse cx="317.75" cy="636" fill="#ADD1B2" rx="11" ry="11" style="stroke:#181818;stroke-width:1.0;"/><path d="M320.0938,631.6719 C319.1563,631.2344 318.5625,631.0938 317.6875,631.0938 C315.0625,631.0938 313.0625,633.1719 313.0625,635.8906 L313.0625,637.0156 C313.0625,639.5938 315.1719,641.4844 318.0625,641.4844 C319.2813,641.4844 320.4375,641.1875 321.1875,640.6406 C321.7656,640.2344 322.0938,639.7813 322.0938,639.3906 C322.0938,638.9375 321.7031,638.5469 321.2344,638.5469 C321.0156,638.5469 320.8125,638.625 320.625,638.8125 C320.1719,639.2969 320.1719,639.2969 319.9844,639.3906 C319.5625,639.6563 318.875,639.7813 318.1094,639.7813 C316.0625,639.7813 314.7656,638.6875 314.7656,636.9844 L314.7656,635.8906 C314.7656,634.1094 316.0156,632.7969 317.75,632.7969 C318.3281,632.7969 318.9375,632.9531 319.4063,633.2031 C319.8906,633.4844 320.0625,633.7031 320.1563,634.1094 C320.2188,634.5156 320.25,634.6406 320.3906,634.7656 C320.5313,634.9063 320.7656,635.0156 320.9844,635.0156 C321.25,635.0156 321.5156,634.875 321.6875,634.6563 C321.7969,634.5 321.8281,634.3125 321.8281,633.8906 L321.8281,632.4688 C321.8281,632.0313 321.8125,631.9063 321.7188,631.75 C321.5625,631.4844 321.2813,631.3438 320.9844,631.3438 C320.6875,631.3438 320.4844,631.4375 320.2656,631.75 L320.0938,631.6719 Z " fill="#000000"/><text fill="#000000" font-family="sans-serif" font-size="14" lengthAdjust="spacing" textLength="200" x="338.25" y="640.8467">NoiseTaggingTaggerFactory</text><line style="stroke:#181818;stroke-width:0.5;" x1="183.5" x2="660.5" y1="652" y2="652"/><rect fill="none" height="6" style="stroke:#C82930;stroke-width:1.0;" width="6" x="190.5" y="662.6484"/><text fill="#000000" font-family="sans-serif" font-size="14" lengthAdjust="spacing" textLength="142" x="202.5" y="668.9951">int bits_per_second</text><rect fill="none" height="6" style="stroke:#C82930;stroke-width:1.0;" width="6" x="190.5" y="678.9453"/><text fill="#000000" font-family="sans-serif" font-size="14" lengthAdjust="spacing" textLength="99" x="202.5" y="685.292">int length_bit</text><rect fill="none" height="6" style="stroke:#C82930;stroke-width:1.0;" width="6" x="190.5" y="695.2422"/><text fill="#000000" font-family="sans-serif" font-size="14" lengthAdjust="spacing" textLength="130" x="202.5" y="701.5889">Optional[int] seed</text><line style="stroke:#181818;stroke-width:0.5;" x1="183.5" x2="660.5" y1="708.8906" y2="708.8906"/><ellipse cx="193.5" cy="722.5391" fill="#84BE84" rx="3" ry="3" style="stroke:#038048;stroke-width:1.0;"/><text fill="#000000" font-family="sans-serif" font-size="14" lengthAdjust="spacing" textLength="453" x="202.5" y="725.8857">NoiseTaggingTaggerFactory(bits_per_second, length_bit, seed)</text></g><!--class RawTagger--><g id="elem_RawTagger"><rect codeLine="91" fill="#F1F1F1" height="64.2969" id="RawTagger" rx="2.5" ry="2.5" style="stroke:#181818;stroke-width:0.5;" width="127" x="682.5" y="422"/><ellipse cx="704.7" cy="438" fill="#ADD1B2" rx="11" ry="11" style="stroke:#181818;stroke-width:1.0;"/><path d="M707.0438,433.6719 C706.1063,433.2344 705.5125,433.0938 704.6375,433.0938 C702.0125,433.0938 700.0125,435.1719 700.0125,437.8906 L700.0125,439.0156 C700.0125,441.5938 702.1219,443.4844 705.0125,443.4844 C706.2313,443.4844 707.3875,443.1875 708.1375,442.6406 C708.7156,442.2344 709.0438,441.7813 709.0438,441.3906 C709.0438,440.9375 708.6531,440.5469 708.1844,440.5469 C707.9656,440.5469 707.7625,440.625 707.575,440.8125 C707.1219,441.2969 707.1219,441.2969 706.9344,441.3906 C706.5125,441.6563 705.825,441.7813 705.0594,441.7813 C703.0125,441.7813 701.7156,440.6875 701.7156,438.9844 L701.7156,437.8906 C701.7156,436.1094 702.9656,434.7969 704.7,434.7969 C705.2781,434.7969 705.8875,434.9531 706.3563,435.2031 C706.8406,435.4844 707.0125,435.7031 707.1063,436.1094 C707.1688,436.5156 707.2,436.6406 707.3406,436.7656 C707.4813,436.9063 707.7156,437.0156 707.9344,437.0156 C708.2,437.0156 708.4656,436.875 708.6375,436.6563 C708.7469,436.5 708.7781,436.3125 708.7781,435.8906 L708.7781,434.4688 C708.7781,434.0313 708.7625,433.9063 708.6688,433.75 C708.5125,433.4844 708.2313,433.3438 707.9344,433.3438 C707.6375,433.3438 707.4344,433.4375 707.2156,433.75 L707.0438,433.6719 Z " fill="#000000"/><text fill="#000000" font-family="sans-serif" font-size="14" lengthAdjust="spacing" textLength="79" x="720.3" y="442.8467">RawTagger</text><line style="stroke:#181818;stroke-width:0.5;" x1="683.5" x2="808.5" y1="454" y2="454"/><line style="stroke:#181818;stroke-width:0.5;" x1="683.5" x2="808.5" y1="462" y2="462"/><ellipse cx="693.5" cy="475.6484" fill="#84BE84" rx="3" ry="3" style="stroke:#038048;stroke-width:1.0;"/><text fill="#000000" font-family="sans-serif" font-size="14" lengthAdjust="spacing" textLength="101" x="702.5" y="478.9951">Audio create()</text></g><!--class RawTaggerFactory--><g id="elem_RawTaggerFactory"><rect codeLine="95" fill="#F1F1F1" height="48" id="RawTaggerFactory" rx="2.5" ry="2.5" style="stroke:#181818;stroke-width:0.5;" width="165" x="731.5" y="652.5"/><ellipse cx="746.5" cy="668.5" fill="#ADD1B2" rx="11" ry="11" style="stroke:#181818;stroke-width:1.0;"/><path d="M748.8438,664.1719 C747.9063,663.7344 747.3125,663.5938 746.4375,663.5938 C743.8125,663.5938 741.8125,665.6719 741.8125,668.3906 L741.8125,669.5156 C741.8125,672.0938 743.9219,673.9844 746.8125,673.9844 C748.0313,673.9844 749.1875,673.6875 749.9375,673.1406 C750.5156,672.7344 750.8438,672.2813 750.8438,671.8906 C750.8438,671.4375 750.4531,671.0469 749.9844,671.0469 C749.7656,671.0469 749.5625,671.125 749.375,671.3125 C748.9219,671.7969 748.9219,671.7969 748.7344,671.8906 C748.3125,672.1563 747.625,672.2813 746.8594,672.2813 C744.8125,672.2813 743.5156,671.1875 743.5156,669.4844 L743.5156,668.3906 C743.5156,666.6094 744.7656,665.2969 746.5,665.2969 C747.0781,665.2969 747.6875,665.4531 748.1563,665.7031 C748.6406,665.9844 748.8125,666.2031 748.9063,666.6094 C748.9688,667.0156 749,667.1406 749.1406,667.2656 C749.2813,667.4063 749.5156,667.5156 749.7344,667.5156 C750,667.5156 750.2656,667.375 750.4375,667.1563 C750.5469,667 750.5781,666.8125 750.5781,666.3906 L750.5781,664.9688 C750.5781,664.5313 750.5625,664.4063 750.4688,664.25 C750.3125,663.9844 750.0313,663.8438 749.7344,663.8438 C749.4375,663.8438 749.2344,663.9375 749.0156,664.25 L748.8438,664.1719 Z " fill="#000000"/><text fill="#000000" font-family="sans-serif" font-size="14" lengthAdjust="spacing" textLength="133" x="760.5" y="673.3467">RawTaggerFactory</text><line style="stroke:#181818;stroke-width:0.5;" x1="732.5" x2="895.5" y1="684.5" y2="684.5"/><line style="stroke:#181818;stroke-width:0.5;" x1="732.5" x2="895.5" y1="692.5" y2="692.5"/></g><!--class ShiftSumTagger--><g id="elem_ShiftSumTagger"><rect codeLine="98" fill="#F1F1F1" height="96.8906" id="ShiftSumTagger" rx="2.5" ry="2.5" style="stroke:#181818;stroke-width:0.5;" width="381" x="844.5" y="405.5"/><ellipse cx="972.75" cy="421.5" fill="#ADD1B2" rx="11" ry="11" style="stroke:#181818;stroke-width:1.0;"/><path d="M975.0938,417.1719 C974.1563,416.7344 973.5625,416.5938 972.6875,416.5938 C970.0625,416.5938 968.0625,418.6719 968.0625,421.3906 L968.0625,422.5156 C968.0625,425.0938 970.1719,426.9844 973.0625,426.9844 C974.2813,426.9844 975.4375,426.6875 976.1875,426.1406 C976.7656,425.7344 977.0938,425.2813 977.0938,424.8906 C977.0938,424.4375 976.7031,424.0469 976.2344,424.0469 C976.0156,424.0469 975.8125,424.125 975.625,424.3125 C975.1719,424.7969 975.1719,424.7969 974.9844,424.8906 C974.5625,425.1563 973.875,425.2813 973.1094,425.2813 C971.0625,425.2813 969.7656,424.1875 969.7656,422.4844 L969.7656,421.3906 C969.7656,419.6094 971.0156,418.2969 972.75,418.2969 C973.3281,418.2969 973.9375,418.4531 974.4063,418.7031 C974.8906,418.9844 975.0625,419.2031 975.1563,419.6094 C975.2188,420.0156 975.25,420.1406 975.3906,420.2656 C975.5313,420.4063 975.7656,420.5156 975.9844,420.5156 C976.25,420.5156 976.5156,420.375 976.6875,420.1563 C976.7969,420 976.8281,419.8125 976.8281,419.3906 L976.8281,417.9688 C976.8281,417.5313 976.8125,417.4063 976.7188,417.25 C976.5625,416.9844 976.2813,416.8438 975.9844,416.8438 C975.6875,416.8438 975.4844,416.9375 975.2656,417.25 L975.0938,417.1719 Z " fill="#000000"/><text fill="#000000" font-family="sans-serif" font-size="14" lengthAdjust="spacing" textLength="116" x="993.25" y="426.3467">ShiftSumTagger</text><line style="stroke:#181818;stroke-width:0.5;" x1="845.5" x2="1224.5" y1="437.5" y2="437.5"/><rect fill="none" height="6" style="stroke:#C82930;stroke-width:1.0;" width="6" x="852.5" y="448.1484"/><text fill="#000000" font-family="sans-serif" font-size="14" lengthAdjust="spacing" textLength="82" x="864.5" y="454.4951">int shift_by</text><line style="stroke:#181818;stroke-width:0.5;" x1="845.5" x2="1224.5" y1="461.7969" y2="461.7969"/><ellipse cx="855.5" cy="475.4453" fill="#84BE84" rx="3" ry="3" style="stroke:#038048;stroke-width:1.0;"/><text fill="#000000" font-family="sans-serif" font-size="14" lengthAdjust="spacing" textLength="355" x="864.5" y="478.792">ShiftSumTagger(audio, stimuli_intervals, shift_by)</text><ellipse cx="855.5" cy="491.7422" fill="#84BE84" rx="3" ry="3" style="stroke:#038048;stroke-width:1.0;"/><text fill="#000000" font-family="sans-serif" font-size="14" lengthAdjust="spacing" textLength="101" x="864.5" y="495.0889">Audio create()</text></g><!--class ShiftSumTaggerFactory--><g id="elem_ShiftSumTaggerFactory"><rect codeLine="105" fill="#F1F1F1" height="80.5938" id="ShiftSumTaggerFactory" rx="2.5" ry="2.5" style="stroke:#181818;stroke-width:0.5;" width="264" x="949" y="636"/><ellipse cx="991.9" cy="652" fill="#ADD1B2" rx="11" ry="11" style="stroke:#181818;stroke-width:1.0;"/><path d="M994.2438,647.6719 C993.3063,647.2344 992.7125,647.0938 991.8375,647.0938 C989.2125,647.0938 987.2125,649.1719 987.2125,651.8906 L987.2125,653.0156 C987.2125,655.5938 989.3219,657.4844 992.2125,657.4844 C993.4313,657.4844 994.5875,657.1875 995.3375,656.6406 C995.9156,656.2344 996.2438,655.7813 996.2438,655.3906 C996.2438,654.9375 995.8531,654.5469 995.3844,654.5469 C995.1656,654.5469 994.9625,654.625 994.775,654.8125 C994.3219,655.2969 994.3219,655.2969 994.1344,655.3906 C993.7125,655.6563 993.025,655.7813 992.2594,655.7813 C990.2125,655.7813 988.9156,654.6875 988.9156,652.9844 L988.9156,651.8906 C988.9156,650.1094 990.1656,648.7969 991.9,648.7969 C992.4781,648.7969 993.0875,648.9531 993.5563,649.2031 C994.0406,649.4844 994.2125,649.7031 994.3063,650.1094 C994.3688,650.5156 994.4,650.6406 994.5406,650.7656 C994.6813,650.9063 994.9156,651.0156 995.1344,651.0156 C995.4,651.0156 995.6656,650.875 995.8375,650.6563 C995.9469,650.5 995.9781,650.3125 995.9781,649.8906 L995.9781,648.4688 C995.9781,648.0313 995.9625,647.9063 995.8688,647.75 C995.7125,647.4844 995.4313,647.3438 995.1344,647.3438 C994.8375,647.3438 994.6344,647.4375 994.4156,647.75 L994.2438,647.6719 Z " fill="#000000"/><text fill="#000000" font-family="sans-serif" font-size="14" lengthAdjust="spacing" textLength="170" x="1012.1" y="656.8467">ShiftSumTaggerFactory</text><line style="stroke:#181818;stroke-width:0.5;" x1="950" x2="1212" y1="668" y2="668"/><rect fill="none" height="6" style="stroke:#C82930;stroke-width:1.0;" width="6" x="957" y="678.6484"/><text fill="#000000" font-family="sans-serif" font-size="14" lengthAdjust="spacing" textLength="82" x="969" y="684.9951">int shift_by</text><line style="stroke:#181818;stroke-width:0.5;" x1="950" x2="1212" y1="692.2969" y2="692.2969"/><ellipse cx="960" cy="705.9453" fill="#84BE84" rx="3" ry="3" style="stroke:#038048;stroke-width:1.0;"/><text fill="#000000" font-family="sans-serif" font-size="14" lengthAdjust="spacing" textLength="238" x="969" y="709.292">ShiftSumTaggerFactory(shift_by)</text></g><!--class AMTagger--><g id="elem_AMTagger"><rect codeLine="22" fill="#F1F1F1" height="113.1875" id="AMTagger" rx="2.5" ry="2.5" style="stroke:#181818;stroke-width:0.5;" width="478" x="1261" y="397.5"/><ellipse cx="1459.75" cy="413.5" fill="#ADD1B2" rx="11" ry="11" style="stroke:#181818;stroke-width:1.0;"/><path d="M1462.0938,409.1719 C1461.1563,408.7344 1460.5625,408.5938 1459.6875,408.5938 C1457.0625,408.5938 1455.0625,410.6719 1455.0625,413.3906 L1455.0625,414.5156 C1455.0625,417.0938 1457.1719,418.9844 1460.0625,418.9844 C1461.2813,418.9844 1462.4375,418.6875 1463.1875,418.1406 C1463.7656,417.7344 1464.0938,417.2813 1464.0938,416.8906 C1464.0938,416.4375 1463.7031,416.0469 1463.2344,416.0469 C1463.0156,416.0469 1462.8125,416.125 1462.625,416.3125 C1462.1719,416.7969 1462.1719,416.7969 1461.9844,416.8906 C1461.5625,417.1563 1460.875,417.2813 1460.1094,417.2813 C1458.0625,417.2813 1456.7656,416.1875 1456.7656,414.4844 L1456.7656,413.3906 C1456.7656,411.6094 1458.0156,410.2969 1459.75,410.2969 C1460.3281,410.2969 1460.9375,410.4531 1461.4063,410.7031 C1461.8906,410.9844 1462.0625,411.2031 1462.1563,411.6094 C1462.2188,412.0156 1462.25,412.1406 1462.3906,412.2656 C1462.5313,412.4063 1462.7656,412.5156 1462.9844,412.5156 C1463.25,412.5156 1463.5156,412.375 1463.6875,412.1563 C1463.7969,412 1463.8281,411.8125 1463.8281,411.3906 L1463.8281,409.9688 C1463.8281,409.5313 1463.8125,409.4063 1463.7188,409.25 C1463.5625,408.9844 1463.2813,408.8438 1462.9844,408.8438 C1462.6875,408.8438 1462.4844,408.9375 1462.2656,409.25 L1462.0938,409.1719 Z " fill="#000000"/><text fill="#000000" font-family="sans-serif" font-size="14" lengthAdjust="spacing" textLength="72" x="1480.25" y="418.3467">AMTagger</text><line style="stroke:#181818;stroke-width:0.5;" x1="1262" x2="1738" y1="429.5" y2="429.5"/><rect fill="none" height="6" style="stroke:#C82930;stroke-width:1.0;" width="6" x="1269" y="440.1484"/><text fill="#000000" font-family="sans-serif" font-size="14" lengthAdjust="spacing" textLength="96" x="1281" y="446.4951">int frequency</text><rect fill="none" height="6" style="stroke:#C82930;stroke-width:1.0;" width="6" x="1269" y="456.4453"/><text fill="#000000" font-family="sans-serif" font-size="14" lengthAdjust="spacing" textLength="366" x="1281" y="462.792">Callable[[int, int, int], NDArray[float] tag_generator</text><line style="stroke:#181818;stroke-width:0.5;" x1="1262" x2="1738" y1="470.0938" y2="470.0938"/><ellipse cx="1272" cy="483.7422" fill="#84BE84" rx="3" ry="3" style="stroke:#038048;stroke-width:1.0;"/><text fill="#000000" font-family="sans-serif" font-size="14" lengthAdjust="spacing" textLength="452" x="1281" y="487.0889">ASSRTagger(audio, stimuli_intervals, frequency, tag_generator)</text><ellipse cx="1272" cy="500.0391" fill="#84BE84" rx="3" ry="3" style="stroke:#038048;stroke-width:1.0;"/><text fill="#000000" font-family="sans-serif" font-size="14" lengthAdjust="spacing" textLength="101" x="1281" y="503.3857">Audio create()</text></g><!--class FMTagger--><g id="elem_FMTagger"><rect codeLine="30" fill="#F1F1F1" height="178.375" id="FMTagger" rx="2.5" ry="2.5" style="stroke:#181818;stroke-width:0.5;" width="841" x="1774.5" y="365"/><ellipse cx="2155.75" cy="381" fill="#ADD1B2" rx="11" ry="11" style="stroke:#181818;stroke-width:1.0;"/><path d="M2158.0938,376.6719 C2157.1563,376.2344 2156.5625,376.0938 2155.6875,376.0938 C2153.0625,376.0938 2151.0625,378.1719 2151.0625,380.8906 L2151.0625,382.0156 C2151.0625,384.5938 2153.1719,386.4844 2156.0625,386.4844 C2157.2813,386.4844 2158.4375,386.1875 2159.1875,385.6406 C2159.7656,385.2344 2160.0938,384.7813 2160.0938,384.3906 C2160.0938,383.9375 2159.7031,383.5469 2159.2344,383.5469 C2159.0156,383.5469 2158.8125,383.625 2158.625,383.8125 C2158.1719,384.2969 2158.1719,384.2969 2157.9844,384.3906 C2157.5625,384.6563 2156.875,384.7813 2156.1094,384.7813 C2154.0625,384.7813 2152.7656,383.6875 2152.7656,381.9844 L2152.7656,380.8906 C2152.7656,379.1094 2154.0156,377.7969 2155.75,377.7969 C2156.3281,377.7969 2156.9375,377.9531 2157.4063,378.2031 C2157.8906,378.4844 2158.0625,378.7031 2158.1563,379.1094 C2158.2188,379.5156 2158.25,379.6406 2158.3906,379.7656 C2158.5313,379.9063 2158.7656,380.0156 2158.9844,380.0156 C2159.25,380.0156 2159.5156,379.875 2159.6875,379.6563 C2159.7969,379.5 2159.8281,379.3125 2159.8281,378.8906 L2159.8281,377.4688 C2159.8281,377.0313 2159.8125,376.9063 2159.7188,376.75 C2159.5625,376.4844 2159.2813,376.3438 2158.9844,376.3438 C2158.6875,376.3438 2158.4844,376.4375 2158.2656,376.75 L2158.0938,376.6719 Z " fill="#000000"/><text fill="#000000" font-family="sans-serif" font-size="14" lengthAdjust="spacing" textLength="70" x="2176.25" y="385.8467">FMTagger</text><line style="stroke:#181818;stroke-width:0.5;" x1="1775.5" x2="2614.5" y1="397" y2="397"/><rect fill="none" height="6" style="stroke:#C82930;stroke-width:1.0;" width="6" x="1782.5" y="407.6484"/><text fill="#000000" font-family="sans-serif" font-size="14" lengthAdjust="spacing" textLength="96" x="1794.5" y="413.9951">int frequency</text><line style="stroke:#181818;stroke-width:0.5;" x1="1775.5" x2="2614.5" y1="421.2969" y2="421.2969"/><ellipse cx="1785.5" cy="434.9453" fill="#84BE84" rx="3" ry="3" style="stroke:#038048;stroke-width:1.0;"/><text fill="#000000" font-family="sans-serif" font-size="14" lengthAdjust="spacing" textLength="323" x="1794.5" y="438.292">FMTagger(audio, stimuli_intervals, frequency)</text><ellipse cx="1785.5" cy="451.2422" fill="#84BE84" rx="3" ry="3" style="stroke:#038048;stroke-width:1.0;"/><text fill="#000000" font-family="sans-serif" font-size="14" lengthAdjust="spacing" textLength="101" x="1794.5" y="454.5889">Audio create()</text><rect fill="#F24D5C" height="6" style="stroke:#C82930;stroke-width:1.0;" width="6" x="1782.5" y="464.5391"/><text fill="#000000" font-family="sans-serif" font-size="14" lengthAdjust="spacing" text-decoration="underline" textLength="634" x="1794.5" y="470.8857">(NDArray[Real], NDArray[Real]) extract_amplitudes_phases(numbers: NDArray[Complex])</text><rect fill="#F24D5C" height="6" style="stroke:#C82930;stroke-width:1.0;" width="6" x="1782.5" y="480.8359"/><text fill="#000000" font-family="sans-serif" font-size="14" lengthAdjust="spacing" text-decoration="underline" textLength="660" x="1794.5" y="487.1826">NDArray[Complex] get_complex_number(amplitudes: NDArray[Real], phases: NDArray[Real])</text><rect fill="#F24D5C" height="6" style="stroke:#C82930;stroke-width:1.0;" width="6" x="1782.5" y="497.1328"/><text fill="#000000" font-family="sans-serif" font-size="14" lengthAdjust="spacing" textLength="545" x="1794.5" y="503.4795">NDArray[Real] phases_to_instantaneous_frequencies(phases: NDArray[Real])</text><rect fill="#F24D5C" height="6" style="stroke:#C82930;stroke-width:1.0;" width="6" x="1782.5" y="513.4297"/><text fill="#000000" font-family="sans-serif" font-size="14" lengthAdjust="spacing" textLength="815" x="1794.5" y="519.7764">NDArray[Real] instantaneous_frequencies_to_phases(instantaneous_frequencies: NDArray[Real], first_phase: Real)</text><rect fill="#F24D5C" height="6" style="stroke:#C82930;stroke-width:1.0;" width="6" x="1782.5" y="529.7266"/><text fill="#000000" font-family="sans-serif" font-size="14" lengthAdjust="spacing" textLength="372" x="1794.5" y="536.0732">NDArray[float32] modulate(signal: NDArray[float32])</text></g><!--class FlippedFMTagger--><g id="elem_FlippedFMTagger"><rect codeLine="43" fill="#F1F1F1" height="96.8906" id="FlippedFMTagger" rx="2.5" ry="2.5" style="stroke:#181818;stroke-width:0.5;" width="403" x="2650.5" y="405.5"/><ellipse cx="2785.75" cy="421.5" fill="#ADD1B2" rx="11" ry="11" style="stroke:#181818;stroke-width:1.0;"/><path d="M2788.0938,417.1719 C2787.1563,416.7344 2786.5625,416.5938 2785.6875,416.5938 C2783.0625,416.5938 2781.0625,418.6719 2781.0625,421.3906 L2781.0625,422.5156 C2781.0625,425.0938 2783.1719,426.9844 2786.0625,426.9844 C2787.2813,426.9844 2788.4375,426.6875 2789.1875,426.1406 C2789.7656,425.7344 2790.0938,425.2813 2790.0938,424.8906 C2790.0938,424.4375 2789.7031,424.0469 2789.2344,424.0469 C2789.0156,424.0469 2788.8125,424.125 2788.625,424.3125 C2788.1719,424.7969 2788.1719,424.7969 2787.9844,424.8906 C2787.5625,425.1563 2786.875,425.2813 2786.1094,425.2813 C2784.0625,425.2813 2782.7656,424.1875 2782.7656,422.4844 L2782.7656,421.3906 C2782.7656,419.6094 2784.0156,418.2969 2785.75,418.2969 C2786.3281,418.2969 2786.9375,418.4531 2787.4063,418.7031 C2787.8906,418.9844 2788.0625,419.2031 2788.1563,419.6094 C2788.2188,420.0156 2788.25,420.1406 2788.3906,420.2656 C2788.5313,420.4063 2788.7656,420.5156 2788.9844,420.5156 C2789.25,420.5156 2789.5156,420.375 2789.6875,420.1563 C2789.7969,420 2789.8281,419.8125 2789.8281,419.3906 L2789.8281,417.9688 C2789.8281,417.5313 2789.8125,417.4063 2789.7188,417.25 C2789.5625,416.9844 2789.2813,416.8438 2788.9844,416.8438 C2788.6875,416.8438 2788.4844,416.9375 2788.2656,417.25 L2788.0938,417.1719 Z " fill="#000000"/><text fill="#000000" font-family="sans-serif" font-size="14" lengthAdjust="spacing" textLength="124" x="2806.25" y="426.3467">FlippedFMTagger</text><line style="stroke:#181818;stroke-width:0.5;" x1="2651.5" x2="3052.5" y1="437.5" y2="437.5"/><rect fill="none" height="6" style="stroke:#C82930;stroke-width:1.0;" width="6" x="2658.5" y="448.1484"/><text fill="#000000" font-family="sans-serif" font-size="14" lengthAdjust="spacing" textLength="96" x="2670.5" y="454.4951">int frequency</text><line style="stroke:#181818;stroke-width:0.5;" x1="2651.5" x2="3052.5" y1="461.7969" y2="461.7969"/><ellipse cx="2661.5" cy="475.4453" fill="#84BE84" rx="3" ry="3" style="stroke:#038048;stroke-width:1.0;"/><text fill="#000000" font-family="sans-serif" font-size="14" lengthAdjust="spacing" textLength="377" x="2670.5" y="478.792">FlippedFMTagger(audio, stimuli_intervals, frequency)</text><ellipse cx="2661.5" cy="491.7422" fill="#84BE84" rx="3" ry="3" style="stroke:#038048;stroke-width:1.0;"/><text fill="#000000" font-family="sans-serif" font-size="14" lengthAdjust="spacing" textLength="101" x="2670.5" y="495.0889">Audio create()</text></g><!--class AMTaggerFactory--><g id="elem_AMTaggerFactory"><rect codeLine="51" fill="#F1F1F1" height="96.8906" id="AMTaggerFactory" rx="2.5" ry="2.5" style="stroke:#181818;stroke-width:0.5;" width="397" x="1271.5" y="628"/><ellipse cx="1402.75" cy="644" fill="#ADD1B2" rx="11" ry="11" style="stroke:#181818;stroke-width:1.0;"/><path d="M1405.0938,639.6719 C1404.1563,639.2344 1403.5625,639.0938 1402.6875,639.0938 C1400.0625,639.0938 1398.0625,641.1719 1398.0625,643.8906 L1398.0625,645.0156 C1398.0625,647.5938 1400.1719,649.4844 1403.0625,649.4844 C1404.2813,649.4844 1405.4375,649.1875 1406.1875,648.6406 C1406.7656,648.2344 1407.0938,647.7813 1407.0938,647.3906 C1407.0938,646.9375 1406.7031,646.5469 1406.2344,646.5469 C1406.0156,646.5469 1405.8125,646.625 1405.625,646.8125 C1405.1719,647.2969 1405.1719,647.2969 1404.9844,647.3906 C1404.5625,647.6563 1403.875,647.7813 1403.1094,647.7813 C1401.0625,647.7813 1399.7656,646.6875 1399.7656,644.9844 L1399.7656,643.8906 C1399.7656,642.1094 1401.0156,640.7969 1402.75,640.7969 C1403.3281,640.7969 1403.9375,640.9531 1404.4063,641.2031 C1404.8906,641.4844 1405.0625,641.7031 1405.1563,642.1094 C1405.2188,642.5156 1405.25,642.6406 1405.3906,642.7656 C1405.5313,642.9063 1405.7656,643.0156 1405.9844,643.0156 C1406.25,643.0156 1406.5156,642.875 1406.6875,642.6563 C1406.7969,642.5 1406.8281,642.3125 1406.8281,641.8906 L1406.8281,640.4688 C1406.8281,640.0313 1406.8125,639.9063 1406.7188,639.75 C1406.5625,639.4844 1406.2813,639.3438 1405.9844,639.3438 C1405.6875,639.3438 1405.4844,639.4375 1405.2656,639.75 L1405.0938,639.6719 Z " fill="#000000"/><text fill="#000000" font-family="sans-serif" font-size="14" lengthAdjust="spacing" textLength="126" x="1423.25" y="648.8467">AMTaggerFactory</text><line style="stroke:#181818;stroke-width:0.5;" x1="1272.5" x2="1667.5" y1="660" y2="660"/><rect fill="none" height="6" style="stroke:#C82930;stroke-width:1.0;" width="6" x="1279.5" y="670.6484"/><text fill="#000000" font-family="sans-serif" font-size="14" lengthAdjust="spacing" textLength="96" x="1291.5" y="676.9951">int frequency</text><rect fill="none" height="6" style="stroke:#C82930;stroke-width:1.0;" width="6" x="1279.5" y="686.9453"/><text fill="#000000" font-family="sans-serif" font-size="14" lengthAdjust="spacing" textLength="371" x="1291.5" y="693.292">Callable[[int, int, int], NDArray[float]] tag_generator</text><line style="stroke:#181818;stroke-width:0.5;" x1="1272.5" x2="1667.5" y1="700.5938" y2="700.5938"/><ellipse cx="1282.5" cy="714.2422" fill="#84BE84" rx="3" ry="3" style="stroke:#038048;stroke-width:1.0;"/><text fill="#000000" font-family="sans-serif" font-size="14" lengthAdjust="spacing" textLength="319" x="1291.5" y="717.5889">AMTaggerFactory(frequency, tag_generator)</text></g><!--class FlippedFMTaggerFactory--><g id="elem_FlippedFMTaggerFactory"><rect codeLine="58" fill="#F1F1F1" height="80.5938" id="FlippedFMTaggerFactory" rx="2.5" ry="2.5" style="stroke:#181818;stroke-width:0.5;" width="286" x="2198" y="636"/><ellipse cx="2247.75" cy="652" fill="#ADD1B2" rx="11" ry="11" style="stroke:#181818;stroke-width:1.0;"/><path d="M2250.0938,647.6719 C2249.1563,647.2344 2248.5625,647.0938 2247.6875,647.0938 C2245.0625,647.0938 2243.0625,649.1719 2243.0625,651.8906 L2243.0625,653.0156 C2243.0625,655.5938 2245.1719,657.4844 2248.0625,657.4844 C2249.2813,657.4844 2250.4375,657.1875 2251.1875,656.6406 C2251.7656,656.2344 2252.0938,655.7813 2252.0938,655.3906 C2252.0938,654.9375 2251.7031,654.5469 2251.2344,654.5469 C2251.0156,654.5469 2250.8125,654.625 2250.625,654.8125 C2250.1719,655.2969 2250.1719,655.2969 2249.9844,655.3906 C2249.5625,655.6563 2248.875,655.7813 2248.1094,655.7813 C2246.0625,655.7813 2244.7656,654.6875 2244.7656,652.9844 L2244.7656,651.8906 C2244.7656,650.1094 2246.0156,648.7969 2247.75,648.7969 C2248.3281,648.7969 2248.9375,648.9531 2249.4063,649.2031 C2249.8906,649.4844 2250.0625,649.7031 2250.1563,650.1094 C2250.2188,650.5156 2250.25,650.6406 2250.3906,650.7656 C2250.5313,650.9063 2250.7656,651.0156 2250.9844,651.0156 C2251.25,651.0156 2251.5156,650.875 2251.6875,650.6563 C2251.7969,650.5 2251.8281,650.3125 2251.8281,649.8906 L2251.8281,648.4688 C2251.8281,648.0313 2251.8125,647.9063 2251.7188,647.75 C2251.5625,647.4844 2251.2813,647.3438 2250.9844,647.3438 C2250.6875,647.3438 2250.4844,647.4375 2250.2656,647.75 L2250.0938,647.6719 Z " fill="#000000"/><text fill="#000000" font-family="sans-serif" font-size="14" lengthAdjust="spacing" textLength="178" x="2268.25" y="656.8467">FlippedFMTaggerFactory</text><line style="stroke:#181818;stroke-width:0.5;" x1="2199" x2="2483" y1="668" y2="668"/><rect fill="none" height="6" style="stroke:#C82930;stroke-width:1.0;" width="6" x="2206" y="678.6484"/><text fill="#000000" font-family="sans-serif" font-size="14" lengthAdjust="spacing" textLength="96" x="2218" y="684.9951">int frequency</text><line style="stroke:#181818;stroke-width:0.5;" x1="2199" x2="2483" y1="692.2969" y2="692.2969"/><ellipse cx="2209" cy="705.9453" fill="#84BE84" rx="3" ry="3" style="stroke:#038048;stroke-width:1.0;"/><text fill="#000000" font-family="sans-serif" font-size="14" lengthAdjust="spacing" textLength="260" x="2218" y="709.292">FlippedFMTaggerFactory(frequency)</text></g><!--class FMTaggerFactory--><g id="elem_FMTaggerFactory"><rect codeLine="64" fill="#F1F1F1" height="80.5938" id="FMTaggerFactory" rx="2.5" ry="2.5" style="stroke:#181818;stroke-width:0.5;" width="232" x="1795" y="636"/><ellipse cx="1844.75" cy="652" fill="#ADD1B2" rx="11" ry="11" style="stroke:#181818;stroke-width:1.0;"/><path d="M1847.0938,647.6719 C1846.1563,647.2344 1845.5625,647.0938 1844.6875,647.0938 C1842.0625,647.0938 1840.0625,649.1719 1840.0625,651.8906 L1840.0625,653.0156 C1840.0625,655.5938 1842.1719,657.4844 1845.0625,657.4844 C1846.2813,657.4844 1847.4375,657.1875 1848.1875,656.6406 C1848.7656,656.2344 1849.0938,655.7813 1849.0938,655.3906 C1849.0938,654.9375 1848.7031,654.5469 1848.2344,654.5469 C1848.0156,654.5469 1847.8125,654.625 1847.625,654.8125 C1847.1719,655.2969 1847.1719,655.2969 1846.9844,655.3906 C1846.5625,655.6563 1845.875,655.7813 1845.1094,655.7813 C1843.0625,655.7813 1841.7656,654.6875 1841.7656,652.9844 L1841.7656,651.8906 C1841.7656,650.1094 1843.0156,648.7969 1844.75,648.7969 C1845.3281,648.7969 1845.9375,648.9531 1846.4063,649.2031 C1846.8906,649.4844 1847.0625,649.7031 1847.1563,650.1094 C1847.2188,650.5156 1847.25,650.6406 1847.3906,650.7656 C1847.5313,650.9063 1847.7656,651.0156 1847.9844,651.0156 C1848.25,651.0156 1848.5156,650.875 1848.6875,650.6563 C1848.7969,650.5 1848.8281,650.3125 1848.8281,649.8906 L1848.8281,648.4688 C1848.8281,648.0313 1848.8125,647.9063 1848.7188,647.75 C1848.5625,647.4844 1848.2813,647.3438 1847.9844,647.3438 C1847.6875,647.3438 1847.4844,647.4375 1847.2656,647.75 L1847.0938,647.6719 Z " fill="#000000"/><text fill="#000000" font-family="sans-serif" font-size="14" lengthAdjust="spacing" textLength="124" x="1865.25" y="656.8467">FMTaggerFactory</text><line style="stroke:#181818;stroke-width:0.5;" x1="1796" x2="2026" y1="668" y2="668"/><rect fill="none" height="6" style="stroke:#C82930;stroke-width:1.0;" width="6" x="1803" y="678.6484"/><text fill="#000000" font-family="sans-serif" font-size="14" lengthAdjust="spacing" textLength="96" x="1815" y="684.9951">int frequency</text><line style="stroke:#181818;stroke-width:0.5;" x1="1796" x2="2026" y1="692.2969" y2="692.2969"/><ellipse cx="1806" cy="705.9453" fill="#84BE84" rx="3" ry="3" style="stroke:#038048;stroke-width:1.0;"/><text fill="#000000" font-family="sans-serif" font-size="14" lengthAdjust="spacing" textLength="206" x="1815" y="709.292">FMTaggerFactory(frequency)</text></g><!--class Audio--><g id="elem_Audio"><rect codeLine="1" fill="#F1F1F1" height="80.5938" id="Audio" rx="2.5" ry="2.5" style="stroke:#181818;stroke-width:0.5;" width="194" x="1170" y="7"/><ellipse cx="1242.75" cy="23" fill="#ADD1B2" rx="11" ry="11" style="stroke:#181818;stroke-width:1.0;"/><path d="M1245.0938,18.6719 C1244.1563,18.2344 1243.5625,18.0938 1242.6875,18.0938 C1240.0625,18.0938 1238.0625,20.1719 1238.0625,22.8906 L1238.0625,24.0156 C1238.0625,26.5938 1240.1719,28.4844 1243.0625,28.4844 C1244.2813,28.4844 1245.4375,28.1875 1246.1875,27.6406 C1246.7656,27.2344 1247.0938,26.7813 1247.0938,26.3906 C1247.0938,25.9375 1246.7031,25.5469 1246.2344,25.5469 C1246.0156,25.5469 1245.8125,25.625 1245.625,25.8125 C1245.1719,26.2969 1245.1719,26.2969 1244.9844,26.3906 C1244.5625,26.6563 1243.875,26.7813 1243.1094,26.7813 C1241.0625,26.7813 1239.7656,25.6875 1239.7656,23.9844 L1239.7656,22.8906 C1239.7656,21.1094 1241.0156,19.7969 1242.75,19.7969 C1243.3281,19.7969 1243.9375,19.9531 1244.4063,20.2031 C1244.8906,20.4844 1245.0625,20.7031 1245.1563,21.1094 C1245.2188,21.5156 1245.25,21.6406 1245.3906,21.7656 C1245.5313,21.9063 1245.7656,22.0156 1245.9844,22.0156 C1246.25,22.0156 1246.5156,21.875 1246.6875,21.6563 C1246.7969,21.5 1246.8281,21.3125 1246.8281,20.8906 L1246.8281,19.4688 C1246.8281,19.0313 1246.8125,18.9063 1246.7188,18.75 C1246.5625,18.4844 1246.2813,18.3438 1245.9844,18.3438 C1245.6875,18.3438 1245.4844,18.4375 1245.2656,18.75 L1245.0938,18.6719 Z " fill="#000000"/><text fill="#000000" font-family="sans-serif" font-size="14" lengthAdjust="spacing" textLength="40" x="1263.25" y="27.8467">Audio</text><line style="stroke:#181818;stroke-width:0.5;" x1="1171" x2="1363" y1="39" y2="39"/><ellipse cx="1181" cy="52.6484" fill="none" rx="3" ry="3" style="stroke:#038048;stroke-width:1.0;"/><text fill="#000000" font-family="sans-serif" font-size="14" lengthAdjust="spacing" textLength="143" x="1190" y="55.9951">NDArray[float] array</text><ellipse cx="1181" cy="68.9453" fill="none" rx="3" ry="3" style="stroke:#038048;stroke-width:1.0;"/><text fill="#000000" font-family="sans-serif" font-size="14" lengthAdjust="spacing" textLength="168" x="1190" y="72.292">int sampling_frequency</text><line style="stroke:#181818;stroke-width:0.5;" x1="1171" x2="1363" y1="79.5938" y2="79.5938"/></g><!--link Audio to AAuditoryTagger--><g id="link_Audio_AAuditoryTagger"><path codeLine="14" d="M1267,88.187 C1267,116.747 1267,143.408 1267,173.673 " fill="none" id="Audio-to-AAuditoryTagger" style="stroke:#181818;stroke-width:1.0;"/><polygon fill="#181818" points="1267,185.673,1271,179.673,1267,173.673,1263,179.673,1267,185.673" style="stroke:#181818;stroke-width:1.0;"/><text fill="#000000" font-family="sans-serif" font-size="13" lengthAdjust="spacing" textLength="35" x="1268" y="131.0669">audio</text><text fill="#000000" font-family="sans-serif" font-size="13" lengthAdjust="spacing" textLength="8" x="1258.3875" y="107.6738">1</text><text fill="#000000" font-family="sans-serif" font-size="13" lengthAdjust="spacing" textLength="8" x="1258.4375" y="174.8359">1</text></g><!--reverse link AAuditoryTagger to ShiftSumTagger--><g id="link_AAuditoryTagger_ShiftSumTagger"><path codeLine="111" d="M1202.9586,295.5422 C1164.2786,331.8062 1124.45,369.143 1085.79,405.38 " fill="none" id="AAuditoryTagger-backto-ShiftSumTagger" style="stroke:#181818;stroke-width:1.0;"/><polygon fill="none" points="1216.09,283.231,1198.8548,291.1651,1207.0623,299.9193,1216.09,283.231" style="stroke:#181818;stroke-width:1.0;"/></g><!--reverse link AAuditoryTagger to RawTagger--><g id="link_AAuditoryTagger_RawTagger"><path codeLine="112" d="M1112.4656,252.5827 C1002.1056,266.7047 875.366,288.515 827,322 C791.824,346.353 768.978,391.437 756.789,421.825 " fill="none" id="AAuditoryTagger-backto-RawTagger" style="stroke:#181818;stroke-width:1.0;"/><polygon fill="none" points="1130.32,250.298,1111.704,246.6312,1113.2272,258.5342,1130.32,250.298" style="stroke:#181818;stroke-width:1.0;"/></g><!--reverse link AAuditoryTagger to NoiseTaggingTagger--><g id="link_AAuditoryTagger_NoiseTaggingTagger"><path codeLine="113" d="M1112.4586,247.5873 C989.2386,259.1403 821.744,280.252 665,322 C622.114,333.422 577.248,348.782 534.907,364.961 " fill="none" id="AAuditoryTagger-backto-NoiseTaggingTagger" style="stroke:#181818;stroke-width:1.0;"/><polygon fill="none" points="1130.38,245.907,1111.8985,241.6135,1113.0187,253.5611,1130.38,245.907" style="stroke:#181818;stroke-width:1.0;"/></g><!--reverse link AAuditoryTagger to AMTagger--><g id="link_AAuditoryTagger_AMTagger"><path codeLine="114" d="M1331.2889,295.5129 C1367.3289,329.1509 1402.54,362.023 1440.34,397.307 " fill="none" id="AAuditoryTagger-backto-AMTagger" style="stroke:#181818;stroke-width:1.0;"/><polygon fill="none" points="1318.13,283.231,1327.1949,299.8991,1335.3828,291.1266,1318.13,283.231" style="stroke:#181818;stroke-width:1.0;"/></g><!--reverse link AAuditoryTagger to FMTagger--><g id="link_AAuditoryTagger_FMTagger"><path codeLine="115" d="M1421.3666,258.0265 C1520.1366,273.3725 1638.69,293.964 1757,322 C1809.52,334.445 1865.04,349.521 1918.26,364.953 " fill="none" id="AAuditoryTagger-backto-FMTagger" style="stroke:#181818;stroke-width:1.0;"/><polygon fill="none" points="1403.58,255.263,1420.4454,263.9554,1422.2878,252.0977,1403.58,255.263" style="stroke:#181818;stroke-width:1.0;"/></g><!--reverse link AAuditoryTagger to FlippedFMTagger--><g id="link_AAuditoryTagger_FlippedFMTagger"><path codeLine="116" d="M1421.5994,236.1464 C1720.6194,238.5614 2406.49,251.646 2633,322 C2690.54,339.873 2748.75,375.727 2790.68,405.414 " fill="none" id="AAuditoryTagger-backto-FlippedFMTagger" style="stroke:#181818;stroke-width:1.0;"/><polygon fill="none" points="1403.6,236.001,1421.551,242.1462,1421.6479,230.1466,1403.6,236.001" style="stroke:#181818;stroke-width:1.0;"/></g><!--link ShiftSumTaggerFactory to AAudioTaggerFactory--><g id="link_ShiftSumTaggerFactory_AAudioTaggerFactory"><path codeLine="118" d="M1132.99,717.027 C1164.64,741.092 1190.1813,760.5076 1219.6113,782.8838 " fill="none" id="ShiftSumTaggerFactory-to-AAudioTaggerFactory" style="stroke:#181818;stroke-width:1.0;"/><polygon fill="none" points="1233.94,793.7782,1223.2428,778.1076,1215.9798,787.66,1233.94,793.7782" style="stroke:#181818;stroke-width:1.0;"/></g><!--link AMTaggerFactory to AAudioTaggerFactory--><g id="link_AMTaggerFactory_AAudioTaggerFactory"><path codeLine="119" d="M1406.96,725.185 C1377.14,747.742 1356.7347,763.1729 1330.3847,783.1081 " fill="none" id="AMTaggerFactory-to-AAudioTaggerFactory" style="stroke:#181818;stroke-width:1.0;"/><polygon fill="none" points="1316.03,793.9682,1334.0048,787.893,1326.7647,778.3232,1316.03,793.9682" style="stroke:#181818;stroke-width:1.0;"/></g><!--link FMTaggerFactory to AAudioTaggerFactory--><g id="link_FMTaggerFactory_AAudioTaggerFactory"><path codeLine="120" d="M1796.17,717.032 C1761.07,728.291 1722.18,739.943 1686,749 C1616.31,766.443 1556.7803,778.6 1488.2303,790.8281 " fill="none" id="FMTaggerFactory-to-AAudioTaggerFactory" style="stroke:#181818;stroke-width:1.0;"/><polygon fill="none" points="1470.51,793.9891,1489.2839,796.7349,1487.1766,784.9214,1470.51,793.9891" style="stroke:#181818;stroke-width:1.0;"/></g><!--link FlippedFMTaggerFactory to AAudioTaggerFactory--><g id="link_FlippedFMTaggerFactory_AAudioTaggerFactory"><path codeLine="121" d="M2197.67,716.357 C2149.46,728.293 2095.17,740.507 2045,749 C1907.42,772.29 1772.6487,787.5926 1639.7387,799.4564 " fill="none" id="FlippedFMTaggerFactory-to-AAudioTaggerFactory" style="stroke:#181818;stroke-width:1.0;"/><polygon fill="none" points="1621.81,801.0568,1640.2722,805.4327,1639.2053,793.4802,1621.81,801.0568" style="stroke:#181818;stroke-width:1.0;"/></g><!--link NoiseTaggingTaggerFactory to AAudioTaggerFactory--><g id="link_NoiseTaggingTaggerFactory_AAudioTaggerFactory"><path codeLine="122" d="M637.909,733.069 C663.47,738.845 689.258,744.308 714,749 C807.547,766.738 892.7821,779.5998 984.7921,791.6381 " fill="none" id="NoiseTaggingTaggerFactory-to-AAudioTaggerFactory" style="stroke:#181818;stroke-width:1.0;"/><polygon fill="none" points="1002.64,793.9733,985.5705,785.6888,984.0137,797.5874,1002.64,793.9733" style="stroke:#181818;stroke-width:1.0;"/></g><!--link RawTaggerFactory to AAudioTaggerFactory--><g id="link_RawTaggerFactory_AAudioTaggerFactory"><path codeLine="123" d="M845.256,700.566 C867.994,716.33 900.087,736.546 931,749 C978.371,768.085 1013.8732,778.8808 1063.8732,790.0531 " fill="none" id="RawTaggerFactory-to-AAudioTaggerFactory" style="stroke:#181818;stroke-width:1.0;"/><polygon fill="none" points="1081.44,793.9783,1065.1816,784.1975,1062.5648,795.9087,1081.44,793.9783" style="stroke:#181818;stroke-width:1.0;"/></g><!--reverse link ShiftSumTagger to ShiftSumTaggerFactory--><g id="link_ShiftSumTagger_ShiftSumTaggerFactory"><path codeLine="125" d="M1046.1463,508.4473 C1054.4463,548.2003 1064.91,598.361 1072.71,635.754 " fill="none" id="ShiftSumTagger-backto-ShiftSumTaggerFactory" style="stroke:#181818;stroke-width:1.0;stroke-dasharray:7.0,7.0;"/><polygon fill="#181818" points="1044.92,502.574,1042.8439,512.2015,1045.9419,507.4685,1050.675,510.5665,1044.92,502.574" style="stroke:#181818;stroke-width:1.0;"/><text fill="#000000" font-family="sans-serif" font-size="13" lengthAdjust="spacing" textLength="48" x="1064" y="586.0669">creates</text></g><!--reverse link AMTagger to AMTaggerFactory--><g id="link_AMTagger_AMTaggerFactory"><path codeLine="126" d="M1491.6215,516.5863 C1486.7115,552.6923 1481.18,593.306 1476.5,627.731 " fill="none" id="AMTagger-backto-AMTaggerFactory" style="stroke:#181818;stroke-width:1.0;stroke-dasharray:7.0,7.0;"/><polygon fill="#181818" points="1492.43,510.641,1487.2537,519.0199,1491.7563,515.5954,1495.1808,520.0979,1492.43,510.641" style="stroke:#181818;stroke-width:1.0;"/><text fill="#000000" font-family="sans-serif" font-size="13" lengthAdjust="spacing" textLength="48" x="1484" y="586.0669">creates</text></g><!--reverse link FMTagger to FMTaggerFactory--><g id="link_FMTagger_FMTaggerFactory"><path codeLine="127" d="M2076.7906,546.7774 C2035.3806,578.9254 1995.34,610.016 1962.06,635.854 " fill="none" id="FMTagger-backto-FMTaggerFactory" style="stroke:#181818;stroke-width:1.0;stroke-dasharray:7.0,7.0;"/><polygon fill="#181818" points="2081.53,543.098,2071.9679,545.4575,2077.5805,546.1641,2076.8738,551.7767,2081.53,543.098" style="stroke:#181818;stroke-width:1.0;"/><text fill="#000000" font-family="sans-serif" font-size="13" lengthAdjust="spacing" textLength="48" x="2036" y="586.0669">creates</text></g><!--reverse link FlippedFMTagger to FlippedFMTaggerFactory--><g id="link_FlippedFMTagger_FlippedFMTaggerFactory"><path codeLine="128" d="M2736.241,504.9513 C2643.971,544.7683 2519.35,598.539 2432.7,635.932 " fill="none" id="FlippedFMTagger-backto-FlippedFMTaggerFactory" style="stroke:#181818;stroke-width:1.0;stroke-dasharray:7.0,7.0;"/><polygon fill="#181818" points="2741.75,502.574,2731.9017,502.4673,2737.1592,504.5551,2735.0714,509.8125,2741.75,502.574" style="stroke:#181818;stroke-width:1.0;"/><text fill="#000000" font-family="sans-serif" font-size="13" lengthAdjust="spacing" textLength="48" x="2566" y="586.0669">creates</text></g><!--reverse link NoiseTaggingTagger to NoiseTaggingTaggerFactory--><g id="link_NoiseTaggingTagger_NoiseTaggingTaggerFactory"><path codeLine="129" d="M371.9621,548.6793 C382.1851,574.5903 390.878,596.622 400.059,619.89 " fill="none" id="NoiseTaggingTagger-backto-NoiseTaggingTaggerFactory" style="stroke:#181818;stroke-width:1.0;stroke-dasharray:7.0,7.0;"/><polygon fill="#181818" points="369.76,543.098,369.3422,552.938,371.5951,547.7491,376.784,550.0019,369.76,543.098" style="stroke:#181818;stroke-width:1.0;"/><text fill="#000000" font-family="sans-serif" font-size="13" lengthAdjust="spacing" textLength="48" x="388" y="586.0669">creates</text></g><!--reverse link RawTagger to RawTaggerFactory--><g id="link_RawTagger_RawTaggerFactory"><path codeLine="130" d="M757.3671,491.8586 C771.1681,536.6126 794.541,612.401 806.839,652.28 " fill="none" id="RawTagger-backto-RawTaggerFactory" style="stroke:#181818;stroke-width:1.0;stroke-dasharray:7.0,7.0;"/><polygon fill="#181818" points="755.599,486.125,754.4288,495.9041,757.0724,490.903,762.0735,493.5466,755.599,486.125" style="stroke:#181818;stroke-width:1.0;"/><text fill="#000000" font-family="sans-serif" font-size="13" lengthAdjust="spacing" textLength="48" x="788" y="586.0669">creates</text></g><!--SRC=[hLPDZvim4BtpAqRf9MbWfROtj9TegvpQhRJ9RHLP3ZZ4Ai4fDlkXDl-z1cEm7SEoQbUhA67Up9jvCnwJv9XpM5KfPV0x0FctlF-wAaly-dZ86HOxmFKFPQ6508vFvvmM6JgKv5T5YkGrk0J16IS_SKO0oq22bQz8u2oJg3OctdDHuaH0ekXMBMmhKQHiGG0VSih58oZc4De4Ti05FLKvHPAVb4yuvq7hi7GYpMj-5cg7HGTJzUaqBf2K10ioLu2B2kTcDViqWuzH5JLVcWXnKnyBWi6YcF9ToySoK5VOqZHUvu4wsLJY5LU5n8esl1OWXc-rLDlgd1DRBgkahYsSbqrB3B51v_rzwne0ehhLVOSDmntESxoNh8yI4eB-s8NWp8saGnafI8bbPO4HOhdQR1wy_Uhh2tloq8wqi28rVRMQQLJVrxYUKACPL-Edv3Sb8Kasr_8y49mRQZK_5_2R2oneSW7oqem6QewPg5B2qVc8EU7peZhjIIbRhrtlcCIGbvt5unhxo1aHA55FaOerxqbYSF9JfCvZBrDZQV58C2cIP2paFs4LxzO4bHMyD-PWf9gcLMKGSrNHWPPSABSOwcTUvcPwltpUmOcbLLwtaTEim7aCBc8HZ0nSJizdahvxxcotVns_uVpqeNSNrVyv-wE7tsQUlttEtn9tGWqZ6b_bCM6Dl9Tn2fL1gCZk6ULagwvHPugY7sT1cHpAkW_oUYGa3OmizbIWPvgAe_am9qKcZaZQz9tK1RbZATb18Z-xU_MQV6GMPKovf4Y9E4bOaSPgC7h2iCdGkOoT7HazCPe2qlqdg4x7OnNAe88tJ8ifqhaTqpgPUO-gvPDyM2pTQOTXI1Gh-GVyxBJRfvZVnIxJmcoEz20srSaTfUQThhQXVJUrIniyqdhjkPYQgXtPsvOk6syoMbgR-LA_XBelSBT_eiWXz6Cw_Vpcw_xwSNgr-QthSQkzbTfYdDT9YQmYluGZU6VZZY3Nqv7U9JhYC7X6HdpSiGu2PuXlRsxyQiGmKoF8Pq7tVbkZ7IrCtDh4hKTmpjNUmBroc5wURLux3ifY-lOReNPnLJ6GVm40]--></g></svg>