<?xml version="1.0" encoding="us-ascii" standalone="no"?><svg xmlns="http://www.w3.org/2000/svg" xmlns:xlink="http://www.w3.org/1999/xlink" contentStyleType="text/css" height="731px" preserveAspectRatio="none" style="width:3174px;height:731px;background:#FFFFFF;" version="1.1" viewBox="0 0 3174 731" width="3174px" zoomAndPan="magnify"><defs/><g><!--cluster auditory_tagging--><g id="cluster_auditory_tagging"><path d="M219.5,6 L359.5,6 A3.75,3.75 0 0 1 362,8.5 L369,28.2969 L3164.5,28.2969 A2.5,2.5 0 0 1 3167,30.7969 L3167,721.5 A2.5,2.5 0 0 1 3164.5,724 L219.5,724 A2.5,2.5 0 0 1 217,721.5 L217,8.5 A2.5,2.5 0 0 1 219.5,6 " fill="none" style="stroke:#000000;stroke-width:1.5;"/><line style="stroke:#000000;stroke-width:1.5;" x1="217" x2="369" y1="28.2969" y2="28.2969"/><text fill="#000000" font-family="sans-serif" font-size="14" font-weight="bold" lengthAdjust="spacing" textLength="139" x="221" y="20.9951">auditory_tagging</text></g><!--cluster assr_tagger--><g id="cluster_assr_tagger"><path d="M1683.5,196.5 L1780.5,196.5 A3.75,3.75 0 0 1 1783,199 L1790,218.7969 L3140.5,218.7969 A2.5,2.5 0 0 1 3143,221.2969 L3143,588.5 A2.5,2.5 0 0 1 3140.5,591 L1683.5,591 A2.5,2.5 0 0 1 1681,588.5 L1681,199 A2.5,2.5 0 0 1 1683.5,196.5 " fill="none" style="stroke:#000000;stroke-width:1.5;"/><line style="stroke:#000000;stroke-width:1.5;" x1="1681" x2="1790" y1="218.7969" y2="218.7969"/><text fill="#000000" font-family="sans-serif" font-size="14" font-weight="bold" lengthAdjust="spacing" textLength="96" x="1685" y="211.4951">assr_tagger</text></g><!--class AAuditoryTagger--><g id="elem_AAuditoryTagger"><rect codeLine="7" fill="#F1F1F1" height="96.8906" id="AAuditoryTagger" rx="2.5" ry="2.5" style="stroke:#181818;stroke-width:0.5;" width="273" x="1641.5" y="41"/><ellipse cx="1713.25" cy="57" fill="#A9DCDF" rx="11" ry="11" style="stroke:#181818;stroke-width:1.0;"/><path d="M1715.3281,58.8125 L1715.7188,59.7969 L1715.3281,59.7969 C1714.875,59.7969 1714.7656,59.8125 1714.6094,59.9219 C1714.3594,60.0781 1714.2031,60.3594 1714.2031,60.6563 C1714.2031,60.9219 1714.3438,61.1719 1714.5625,61.3281 C1714.7031,61.4531 1714.9063,61.5 1715.3281,61.5 L1717.6875,61.5 C1718.0469,61.5 1718.2656,61.4688 1718.4063,61.375 C1718.6563,61.2344 1718.8125,60.9375 1718.8125,60.6563 C1718.8125,60.375 1718.6719,60.125 1718.4531,59.9688 C1718.2813,59.8281 1718.125,59.7969 1717.6563,59.7969 L1714.2656,51.5938 L1710.5938,51.5938 C1710.1406,51.5938 1710.0156,51.6094 1709.8594,51.7031 C1709.6094,51.875 1709.4531,52.1563 1709.4531,52.4375 C1709.4531,52.7188 1709.5938,52.9688 1709.8125,53.1406 C1709.9844,53.25 1710.1563,53.2813 1710.5938,53.2813 L1711.6719,53.2813 L1709.0313,59.7969 C1708.6094,59.7969 1708.4531,59.8125 1708.2969,59.9219 C1708.0469,60.0781 1707.8906,60.3594 1707.8906,60.6563 C1707.8906,61.2188 1708.2656,61.5 1709.0156,61.5 L1711.2813,61.5 C1711.6406,61.5 1711.8594,61.4688 1711.9844,61.375 C1712.25,61.2344 1712.3906,60.9375 1712.3906,60.6563 C1712.3906,60.375 1712.2656,60.125 1712.0469,59.9531 C1711.875,59.8281 1711.7344,59.7969 1711.2813,59.7969 L1710.8906,59.7969 L1711.2813,58.8125 L1715.3281,58.8125 Z M1714.625,57.1094 L1711.9531,57.1094 L1713.2969,53.8438 L1714.625,57.1094 Z " fill="#000000"/><text fill="#000000" font-family="sans-serif" font-size="14" font-style="italic" lengthAdjust="spacing" textLength="121" x="1733.75" y="61.8467">AAuditoryTagger</text><line style="stroke:#181818;stroke-width:0.5;" x1="1642.5" x2="1913.5" y1="73" y2="73"/><polygon fill="none" points="1652.5,81.6484,1656.5,85.6484,1652.5,89.6484,1648.5,85.6484" style="stroke:#B38D22;stroke-width:1.0;"/><text fill="#000000" font-family="sans-serif" font-size="14" lengthAdjust="spacing" textLength="247" x="1661.5" y="89.9951">list[ [float, float] ] stimuli_intervals</text><line style="stroke:#181818;stroke-width:0.5;" x1="1642.5" x2="1913.5" y1="97.2969" y2="97.2969"/><ellipse cx="1652.5" cy="110.9453" fill="#84BE84" rx="3" ry="3" style="stroke:#038048;stroke-width:1.0;"/><text fill="#000000" font-family="sans-serif" font-size="14" lengthAdjust="spacing" textLength="225" x="1661.5" y="114.292">AAuditoryTagger(audio, stimuli)</text><ellipse cx="1652.5" cy="127.2422" fill="#84BE84" rx="3" ry="3" style="stroke:#038048;stroke-width:1.0;"/><text fill="#000000" font-family="sans-serif" font-size="14" font-style="italic" lengthAdjust="spacing" textLength="101" x="1661.5" y="130.5889">Audio create()</text></g><!--class AAudioTaggerFactory--><g id="elem_AAudioTaggerFactory"><rect codeLine="17" fill="#F1F1F1" height="64.2969" id="AAudioTaggerFactory" rx="2.5" ry="2.5" style="stroke:#181818;stroke-width:0.5;" width="693" x="1332.5" y="644"/><ellipse cx="1597.25" cy="660" fill="#A9DCDF" rx="11" ry="11" style="stroke:#181818;stroke-width:1.0;"/><path d="M1599.3281,661.8125 L1599.7188,662.7969 L1599.3281,662.7969 C1598.875,662.7969 1598.7656,662.8125 1598.6094,662.9219 C1598.3594,663.0781 1598.2031,663.3594 1598.2031,663.6563 C1598.2031,663.9219 1598.3438,664.1719 1598.5625,664.3281 C1598.7031,664.4531 1598.9063,664.5 1599.3281,664.5 L1601.6875,664.5 C1602.0469,664.5 1602.2656,664.4688 1602.4063,664.375 C1602.6563,664.2344 1602.8125,663.9375 1602.8125,663.6563 C1602.8125,663.375 1602.6719,663.125 1602.4531,662.9688 C1602.2813,662.8281 1602.125,662.7969 1601.6563,662.7969 L1598.2656,654.5938 L1594.5938,654.5938 C1594.1406,654.5938 1594.0156,654.6094 1593.8594,654.7031 C1593.6094,654.875 1593.4531,655.1563 1593.4531,655.4375 C1593.4531,655.7188 1593.5938,655.9688 1593.8125,656.1406 C1593.9844,656.25 1594.1563,656.2813 1594.5938,656.2813 L1595.6719,656.2813 L1593.0313,662.7969 C1592.6094,662.7969 1592.4531,662.8125 1592.2969,662.9219 C1592.0469,663.0781 1591.8906,663.3594 1591.8906,663.6563 C1591.8906,664.2188 1592.2656,664.5 1593.0156,664.5 L1595.2813,664.5 C1595.6406,664.5 1595.8594,664.4688 1595.9844,664.375 C1596.25,664.2344 1596.3906,663.9375 1596.3906,663.6563 C1596.3906,663.375 1596.2656,663.125 1596.0469,662.9531 C1595.875,662.8281 1595.7344,662.7969 1595.2813,662.7969 L1594.8906,662.7969 L1595.2813,661.8125 L1599.3281,661.8125 Z M1598.625,660.1094 L1595.9531,660.1094 L1597.2969,656.8438 L1598.625,660.1094 Z " fill="#000000"/><text fill="#000000" font-family="sans-serif" font-size="14" font-style="italic" lengthAdjust="spacing" textLength="155" x="1617.75" y="664.8467">AAudioTaggerFactory</text><line style="stroke:#181818;stroke-width:0.5;" x1="1333.5" x2="2024.5" y1="676" y2="676"/><line style="stroke:#181818;stroke-width:0.5;" x1="1333.5" x2="2024.5" y1="684" y2="684"/><ellipse cx="1343.5" cy="697.6484" fill="#84BE84" rx="3" ry="3" style="stroke:#038048;stroke-width:1.0;"/><text fill="#000000" font-family="sans-serif" font-size="14" font-style="italic" lengthAdjust="spacing" textLength="667" x="1352.5" y="700.9951">AAudioTagger create_auditory_stimulus(audio: Audio, stimuli_intervals: List[Tuple[float, float])</text></g><!--class NoiseTaggingTagger--><g id="elem_NoiseTaggingTagger"><rect codeLine="54" fill="#F1F1F1" height="178.375" id="NoiseTaggingTagger" rx="2.5" ry="2.5" style="stroke:#181818;stroke-width:0.5;" width="625" x="572.5" y="199"/><ellipse cx="807.75" cy="215" fill="#ADD1B2" rx="11" ry="11" style="stroke:#181818;stroke-width:1.0;"/><path d="M810.0938,210.6719 C809.1563,210.2344 808.5625,210.0938 807.6875,210.0938 C805.0625,210.0938 803.0625,212.1719 803.0625,214.8906 L803.0625,216.0156 C803.0625,218.5938 805.1719,220.4844 808.0625,220.4844 C809.2813,220.4844 810.4375,220.1875 811.1875,219.6406 C811.7656,219.2344 812.0938,218.7813 812.0938,218.3906 C812.0938,217.9375 811.7031,217.5469 811.2344,217.5469 C811.0156,217.5469 810.8125,217.625 810.625,217.8125 C810.1719,218.2969 810.1719,218.2969 809.9844,218.3906 C809.5625,218.6563 808.875,218.7813 808.1094,218.7813 C806.0625,218.7813 804.7656,217.6875 804.7656,215.9844 L804.7656,214.8906 C804.7656,213.1094 806.0156,211.7969 807.75,211.7969 C808.3281,211.7969 808.9375,211.9531 809.4063,212.2031 C809.8906,212.4844 810.0625,212.7031 810.1563,213.1094 C810.2188,213.5156 810.25,213.6406 810.3906,213.7656 C810.5313,213.9063 810.7656,214.0156 810.9844,214.0156 C811.25,214.0156 811.5156,213.875 811.6875,213.6563 C811.7969,213.5 811.8281,213.3125 811.8281,212.8906 L811.8281,211.4688 C811.8281,211.0313 811.8125,210.9063 811.7188,210.75 C811.5625,210.4844 811.2813,210.3438 810.9844,210.3438 C810.6875,210.3438 810.4844,210.4375 810.2656,210.75 L810.0938,210.6719 Z " fill="#000000"/><text fill="#000000" font-family="sans-serif" font-size="14" lengthAdjust="spacing" textLength="146" x="828.25" y="219.8467">NoiseTaggingTagger</text><line style="stroke:#181818;stroke-width:0.5;" x1="573.5" x2="1196.5" y1="231" y2="231"/><rect fill="none" height="6" style="stroke:#C82930;stroke-width:1.0;" width="6" x="580.5" y="241.6484"/><text fill="#000000" font-family="sans-serif" font-size="14" lengthAdjust="spacing" textLength="130" x="592.5" y="247.9951">Optional[int] seed</text><rect fill="none" height="6" style="stroke:#C82930;stroke-width:1.0;" width="6" x="580.5" y="257.9453"/><text fill="#000000" font-family="sans-serif" font-size="14" lengthAdjust="spacing" textLength="92" x="592.5" y="264.292">int bit_width</text><rect fill="none" height="6" style="stroke:#C82930;stroke-width:1.0;" width="6" x="580.5" y="274.2422"/><text fill="#000000" font-family="sans-serif" font-size="14" lengthAdjust="spacing" textLength="99" x="592.5" y="280.5889">int length_bit</text><ellipse cx="583.5" cy="293.5391" fill="none" rx="3" ry="3" style="stroke:#038048;stroke-width:1.0;"/><text fill="#000000" font-family="sans-serif" font-size="14" lengthAdjust="spacing" textLength="148" x="592.5" y="296.8857">Optional[Code] code</text><line style="stroke:#181818;stroke-width:0.5;" x1="573.5" x2="1196.5" y1="304.1875" y2="304.1875"/><ellipse cx="583.5" cy="317.8359" fill="#84BE84" rx="3" ry="3" style="stroke:#038048;stroke-width:1.0;"/><text fill="#000000" font-family="sans-serif" font-size="14" lengthAdjust="spacing" textLength="599" x="592.5" y="321.1826">NoiseTaggingTagger(audio, stimuli_intervals, bits_per_second: int, length_bit, seed)</text><ellipse cx="583.5" cy="334.1328" fill="#84BE84" rx="3" ry="3" style="stroke:#038048;stroke-width:1.0;"/><text fill="#000000" font-family="sans-serif" font-size="14" lengthAdjust="spacing" textLength="101" x="592.5" y="337.4795">Audio create()</text><rect fill="#F24D5C" height="6" style="stroke:#C82930;stroke-width:1.0;" width="6" x="580.5" y="347.4297"/><text fill="#000000" font-family="sans-serif" font-size="14" lengthAdjust="spacing" textLength="166" x="592.5" y="353.7764">void __generate_code()</text><rect fill="#F24D5C" height="6" style="stroke:#C82930;stroke-width:1.0;" width="6" x="580.5" y="363.7266"/><text fill="#000000" font-family="sans-serif" font-size="14" lengthAdjust="spacing" textLength="201" x="592.5" y="370.0732">void __get_code(length: int)</text></g><!--class NoiseTaggingTaggerFactory--><g id="elem_NoiseTaggingTaggerFactory"><rect codeLine="66" fill="#F1F1F1" height="129.4844" id="NoiseTaggingTaggerFactory" rx="2.5" ry="2.5" style="stroke:#181818;stroke-width:0.5;" width="697" x="233.5" y="454"/><ellipse cx="477.75" cy="470" fill="#ADD1B2" rx="11" ry="11" style="stroke:#181818;stroke-width:1.0;"/><path d="M480.0938,465.6719 C479.1563,465.2344 478.5625,465.0938 477.6875,465.0938 C475.0625,465.0938 473.0625,467.1719 473.0625,469.8906 L473.0625,471.0156 C473.0625,473.5938 475.1719,475.4844 478.0625,475.4844 C479.2813,475.4844 480.4375,475.1875 481.1875,474.6406 C481.7656,474.2344 482.0938,473.7813 482.0938,473.3906 C482.0938,472.9375 481.7031,472.5469 481.2344,472.5469 C481.0156,472.5469 480.8125,472.625 480.625,472.8125 C480.1719,473.2969 480.1719,473.2969 479.9844,473.3906 C479.5625,473.6563 478.875,473.7813 478.1094,473.7813 C476.0625,473.7813 474.7656,472.6875 474.7656,470.9844 L474.7656,469.8906 C474.7656,468.1094 476.0156,466.7969 477.75,466.7969 C478.3281,466.7969 478.9375,466.9531 479.4063,467.2031 C479.8906,467.4844 480.0625,467.7031 480.1563,468.1094 C480.2188,468.5156 480.25,468.6406 480.3906,468.7656 C480.5313,468.9063 480.7656,469.0156 480.9844,469.0156 C481.25,469.0156 481.5156,468.875 481.6875,468.6563 C481.7969,468.5 481.8281,468.3125 481.8281,467.8906 L481.8281,466.4688 C481.8281,466.0313 481.8125,465.9063 481.7188,465.75 C481.5625,465.4844 481.2813,465.3438 480.9844,465.3438 C480.6875,465.3438 480.4844,465.4375 480.2656,465.75 L480.0938,465.6719 Z " fill="#000000"/><text fill="#000000" font-family="sans-serif" font-size="14" lengthAdjust="spacing" textLength="200" x="498.25" y="474.8467">NoiseTaggingTaggerFactory</text><line style="stroke:#181818;stroke-width:0.5;" x1="234.5" x2="929.5" y1="486" y2="486"/><rect fill="none" height="6" style="stroke:#C82930;stroke-width:1.0;" width="6" x="241.5" y="496.6484"/><text fill="#000000" font-family="sans-serif" font-size="14" lengthAdjust="spacing" textLength="142" x="253.5" y="502.9951">int bits_per_second</text><rect fill="none" height="6" style="stroke:#C82930;stroke-width:1.0;" width="6" x="241.5" y="512.9453"/><text fill="#000000" font-family="sans-serif" font-size="14" lengthAdjust="spacing" textLength="99" x="253.5" y="519.292">int length_bit</text><rect fill="none" height="6" style="stroke:#C82930;stroke-width:1.0;" width="6" x="241.5" y="529.2422"/><text fill="#000000" font-family="sans-serif" font-size="14" lengthAdjust="spacing" textLength="130" x="253.5" y="535.5889">Optional[int] seed</text><line style="stroke:#181818;stroke-width:0.5;" x1="234.5" x2="929.5" y1="542.8906" y2="542.8906"/><ellipse cx="244.5" cy="556.5391" fill="#84BE84" rx="3" ry="3" style="stroke:#038048;stroke-width:1.0;"/><text fill="#000000" font-family="sans-serif" font-size="14" lengthAdjust="spacing" textLength="453" x="253.5" y="559.8857">NoiseTaggingTaggerFactory(bits_per_second, length_bit, seed)</text><ellipse cx="244.5" cy="572.8359" fill="#84BE84" rx="3" ry="3" style="stroke:#038048;stroke-width:1.0;"/><text fill="#000000" font-family="sans-serif" font-size="14" lengthAdjust="spacing" textLength="671" x="253.5" y="576.1826">AAudioTagger create_auditory_stimulus(audio: Audio, stimuli_intervals: List[Tuple[float, float])</text></g><!--class RawTagger--><g id="elem_RawTagger"><rect codeLine="75" fill="#F1F1F1" height="64.2969" id="RawTagger" rx="2.5" ry="2.5" style="stroke:#181818;stroke-width:0.5;" width="127" x="1376.5" y="256"/><ellipse cx="1398.7" cy="272" fill="#ADD1B2" rx="11" ry="11" style="stroke:#181818;stroke-width:1.0;"/><path d="M1401.0438,267.6719 C1400.1063,267.2344 1399.5125,267.0938 1398.6375,267.0938 C1396.0125,267.0938 1394.0125,269.1719 1394.0125,271.8906 L1394.0125,273.0156 C1394.0125,275.5938 1396.1219,277.4844 1399.0125,277.4844 C1400.2313,277.4844 1401.3875,277.1875 1402.1375,276.6406 C1402.7156,276.2344 1403.0438,275.7813 1403.0438,275.3906 C1403.0438,274.9375 1402.6531,274.5469 1402.1844,274.5469 C1401.9656,274.5469 1401.7625,274.625 1401.575,274.8125 C1401.1219,275.2969 1401.1219,275.2969 1400.9344,275.3906 C1400.5125,275.6563 1399.825,275.7813 1399.0594,275.7813 C1397.0125,275.7813 1395.7156,274.6875 1395.7156,272.9844 L1395.7156,271.8906 C1395.7156,270.1094 1396.9656,268.7969 1398.7,268.7969 C1399.2781,268.7969 1399.8875,268.9531 1400.3563,269.2031 C1400.8406,269.4844 1401.0125,269.7031 1401.1063,270.1094 C1401.1688,270.5156 1401.2,270.6406 1401.3406,270.7656 C1401.4813,270.9063 1401.7156,271.0156 1401.9344,271.0156 C1402.2,271.0156 1402.4656,270.875 1402.6375,270.6563 C1402.7469,270.5 1402.7781,270.3125 1402.7781,269.8906 L1402.7781,268.4688 C1402.7781,268.0313 1402.7625,267.9063 1402.6688,267.75 C1402.5125,267.4844 1402.2313,267.3438 1401.9344,267.3438 C1401.6375,267.3438 1401.4344,267.4375 1401.2156,267.75 L1401.0438,267.6719 Z " fill="#000000"/><text fill="#000000" font-family="sans-serif" font-size="14" lengthAdjust="spacing" textLength="79" x="1414.3" y="276.8467">RawTagger</text><line style="stroke:#181818;stroke-width:0.5;" x1="1377.5" x2="1502.5" y1="288" y2="288"/><line style="stroke:#181818;stroke-width:0.5;" x1="1377.5" x2="1502.5" y1="296" y2="296"/><ellipse cx="1387.5" cy="309.6484" fill="#84BE84" rx="3" ry="3" style="stroke:#038048;stroke-width:1.0;"/><text fill="#000000" font-family="sans-serif" font-size="14" lengthAdjust="spacing" textLength="101" x="1396.5" y="312.9951">Audio create()</text></g><!--class RawTaggerFactory--><g id="elem_RawTaggerFactory"><rect codeLine="79" fill="#F1F1F1" height="64.2969" id="RawTaggerFactory" rx="2.5" ry="2.5" style="stroke:#181818;stroke-width:0.5;" width="697" x="965.5" y="486.5"/><ellipse cx="1243.25" cy="502.5" fill="#ADD1B2" rx="11" ry="11" style="stroke:#181818;stroke-width:1.0;"/><path d="M1245.5938,498.1719 C1244.6563,497.7344 1244.0625,497.5938 1243.1875,497.5938 C1240.5625,497.5938 1238.5625,499.6719 1238.5625,502.3906 L1238.5625,503.5156 C1238.5625,506.0938 1240.6719,507.9844 1243.5625,507.9844 C1244.7813,507.9844 1245.9375,507.6875 1246.6875,507.1406 C1247.2656,506.7344 1247.5938,506.2813 1247.5938,505.8906 C1247.5938,505.4375 1247.2031,505.0469 1246.7344,505.0469 C1246.5156,505.0469 1246.3125,505.125 1246.125,505.3125 C1245.6719,505.7969 1245.6719,505.7969 1245.4844,505.8906 C1245.0625,506.1563 1244.375,506.2813 1243.6094,506.2813 C1241.5625,506.2813 1240.2656,505.1875 1240.2656,503.4844 L1240.2656,502.3906 C1240.2656,500.6094 1241.5156,499.2969 1243.25,499.2969 C1243.8281,499.2969 1244.4375,499.4531 1244.9063,499.7031 C1245.3906,499.9844 1245.5625,500.2031 1245.6563,500.6094 C1245.7188,501.0156 1245.75,501.1406 1245.8906,501.2656 C1246.0313,501.4063 1246.2656,501.5156 1246.4844,501.5156 C1246.75,501.5156 1247.0156,501.375 1247.1875,501.1563 C1247.2969,501 1247.3281,500.8125 1247.3281,500.3906 L1247.3281,498.9688 C1247.3281,498.5313 1247.3125,498.4063 1247.2188,498.25 C1247.0625,497.9844 1246.7813,497.8438 1246.4844,497.8438 C1246.1875,497.8438 1245.9844,497.9375 1245.7656,498.25 L1245.5938,498.1719 Z " fill="#000000"/><text fill="#000000" font-family="sans-serif" font-size="14" lengthAdjust="spacing" textLength="133" x="1263.75" y="507.3467">RawTaggerFactory</text><line style="stroke:#181818;stroke-width:0.5;" x1="966.5" x2="1661.5" y1="518.5" y2="518.5"/><line style="stroke:#181818;stroke-width:0.5;" x1="966.5" x2="1661.5" y1="526.5" y2="526.5"/><ellipse cx="976.5" cy="540.1484" fill="#84BE84" rx="3" ry="3" style="stroke:#038048;stroke-width:1.0;"/><text fill="#000000" font-family="sans-serif" font-size="14" lengthAdjust="spacing" textLength="671" x="985.5" y="543.4951">AAudioTagger create_auditory_stimulus(audio: Audio, stimuli_intervals: List[Tuple[float, float])</text></g><!--class AMTagger--><g id="elem_AMTagger"><rect codeLine="22" fill="#F1F1F1" height="113.1875" id="AMTagger" rx="2.5" ry="2.5" style="stroke:#181818;stroke-width:0.5;" width="478" x="1752" y="231.5"/><ellipse cx="1950.75" cy="247.5" fill="#ADD1B2" rx="11" ry="11" style="stroke:#181818;stroke-width:1.0;"/><path d="M1953.0938,243.1719 C1952.1563,242.7344 1951.5625,242.5938 1950.6875,242.5938 C1948.0625,242.5938 1946.0625,244.6719 1946.0625,247.3906 L1946.0625,248.5156 C1946.0625,251.0938 1948.1719,252.9844 1951.0625,252.9844 C1952.2813,252.9844 1953.4375,252.6875 1954.1875,252.1406 C1954.7656,251.7344 1955.0938,251.2813 1955.0938,250.8906 C1955.0938,250.4375 1954.7031,250.0469 1954.2344,250.0469 C1954.0156,250.0469 1953.8125,250.125 1953.625,250.3125 C1953.1719,250.7969 1953.1719,250.7969 1952.9844,250.8906 C1952.5625,251.1563 1951.875,251.2813 1951.1094,251.2813 C1949.0625,251.2813 1947.7656,250.1875 1947.7656,248.4844 L1947.7656,247.3906 C1947.7656,245.6094 1949.0156,244.2969 1950.75,244.2969 C1951.3281,244.2969 1951.9375,244.4531 1952.4063,244.7031 C1952.8906,244.9844 1953.0625,245.2031 1953.1563,245.6094 C1953.2188,246.0156 1953.25,246.1406 1953.3906,246.2656 C1953.5313,246.4063 1953.7656,246.5156 1953.9844,246.5156 C1954.25,246.5156 1954.5156,246.375 1954.6875,246.1563 C1954.7969,246 1954.8281,245.8125 1954.8281,245.3906 L1954.8281,243.9688 C1954.8281,243.5313 1954.8125,243.4063 1954.7188,243.25 C1954.5625,242.9844 1954.2813,242.8438 1953.9844,242.8438 C1953.6875,242.8438 1953.4844,242.9375 1953.2656,243.25 L1953.0938,243.1719 Z " fill="#000000"/><text fill="#000000" font-family="sans-serif" font-size="14" lengthAdjust="spacing" textLength="72" x="1971.25" y="252.3467">AMTagger</text><line style="stroke:#181818;stroke-width:0.5;" x1="1753" x2="2229" y1="263.5" y2="263.5"/><rect fill="none" height="6" style="stroke:#C82930;stroke-width:1.0;" width="6" x="1760" y="274.1484"/><text fill="#000000" font-family="sans-serif" font-size="14" lengthAdjust="spacing" textLength="96" x="1772" y="280.4951">int frequency</text><rect fill="none" height="6" style="stroke:#C82930;stroke-width:1.0;" width="6" x="1760" y="290.4453"/><text fill="#000000" font-family="sans-serif" font-size="14" lengthAdjust="spacing" textLength="366" x="1772" y="296.792">Callable[[int, int, int], NDArray[float] tag_generator</text><line style="stroke:#181818;stroke-width:0.5;" x1="1753" x2="2229" y1="304.0938" y2="304.0938"/><ellipse cx="1763" cy="317.7422" fill="#84BE84" rx="3" ry="3" style="stroke:#038048;stroke-width:1.0;"/><text fill="#000000" font-family="sans-serif" font-size="14" lengthAdjust="spacing" textLength="452" x="1772" y="321.0889">ASSRTagger(audio, stimuli_intervals, frequency, tag_generator)</text><ellipse cx="1763" cy="334.0391" fill="#84BE84" rx="3" ry="3" style="stroke:#038048;stroke-width:1.0;"/><text fill="#000000" font-family="sans-serif" font-size="14" lengthAdjust="spacing" textLength="101" x="1772" y="337.3857">Audio create()</text></g><!--class FMTagger--><g id="elem_FMTagger"><rect codeLine="30" fill="#F1F1F1" height="96.8906" id="FMTagger" rx="2.5" ry="2.5" style="stroke:#181818;stroke-width:0.5;" width="349" x="2434.5" y="239.5"/><ellipse cx="2569.75" cy="255.5" fill="#ADD1B2" rx="11" ry="11" style="stroke:#181818;stroke-width:1.0;"/><path d="M2572.0938,251.1719 C2571.1563,250.7344 2570.5625,250.5938 2569.6875,250.5938 C2567.0625,250.5938 2565.0625,252.6719 2565.0625,255.3906 L2565.0625,256.5156 C2565.0625,259.0938 2567.1719,260.9844 2570.0625,260.9844 C2571.2813,260.9844 2572.4375,260.6875 2573.1875,260.1406 C2573.7656,259.7344 2574.0938,259.2813 2574.0938,258.8906 C2574.0938,258.4375 2573.7031,258.0469 2573.2344,258.0469 C2573.0156,258.0469 2572.8125,258.125 2572.625,258.3125 C2572.1719,258.7969 2572.1719,258.7969 2571.9844,258.8906 C2571.5625,259.1563 2570.875,259.2813 2570.1094,259.2813 C2568.0625,259.2813 2566.7656,258.1875 2566.7656,256.4844 L2566.7656,255.3906 C2566.7656,253.6094 2568.0156,252.2969 2569.75,252.2969 C2570.3281,252.2969 2570.9375,252.4531 2571.4063,252.7031 C2571.8906,252.9844 2572.0625,253.2031 2572.1563,253.6094 C2572.2188,254.0156 2572.25,254.1406 2572.3906,254.2656 C2572.5313,254.4063 2572.7656,254.5156 2572.9844,254.5156 C2573.25,254.5156 2573.5156,254.375 2573.6875,254.1563 C2573.7969,254 2573.8281,253.8125 2573.8281,253.3906 L2573.8281,251.9688 C2573.8281,251.5313 2573.8125,251.4063 2573.7188,251.25 C2573.5625,250.9844 2573.2813,250.8438 2572.9844,250.8438 C2572.6875,250.8438 2572.4844,250.9375 2572.2656,251.25 L2572.0938,251.1719 Z " fill="#000000"/><text fill="#000000" font-family="sans-serif" font-size="14" lengthAdjust="spacing" textLength="70" x="2590.25" y="260.3467">FMTagger</text><line style="stroke:#181818;stroke-width:0.5;" x1="2435.5" x2="2782.5" y1="271.5" y2="271.5"/><rect fill="none" height="6" style="stroke:#C82930;stroke-width:1.0;" width="6" x="2442.5" y="282.1484"/><text fill="#000000" font-family="sans-serif" font-size="14" lengthAdjust="spacing" textLength="96" x="2454.5" y="288.4951">int frequency</text><line style="stroke:#181818;stroke-width:0.5;" x1="2435.5" x2="2782.5" y1="295.7969" y2="295.7969"/><ellipse cx="2445.5" cy="309.4453" fill="#84BE84" rx="3" ry="3" style="stroke:#038048;stroke-width:1.0;"/><text fill="#000000" font-family="sans-serif" font-size="14" lengthAdjust="spacing" textLength="323" x="2454.5" y="312.792">FMTagger(audio, stimuli_intervals, frequency)</text><ellipse cx="2445.5" cy="325.7422" fill="#84BE84" rx="3" ry="3" style="stroke:#038048;stroke-width:1.0;"/><text fill="#000000" font-family="sans-serif" font-size="14" lengthAdjust="spacing" textLength="101" x="2454.5" y="329.0889">Audio create()</text></g><!--class AMTaggerFactory--><g id="elem_AMTaggerFactory"><rect codeLine="38" fill="#F1F1F1" height="113.1875" id="AMTaggerFactory" rx="2.5" ry="2.5" style="stroke:#181818;stroke-width:0.5;" width="697" x="1697.5" y="462"/><ellipse cx="1978.75" cy="478" fill="#ADD1B2" rx="11" ry="11" style="stroke:#181818;stroke-width:1.0;"/><path d="M1981.0938,473.6719 C1980.1563,473.2344 1979.5625,473.0938 1978.6875,473.0938 C1976.0625,473.0938 1974.0625,475.1719 1974.0625,477.8906 L1974.0625,479.0156 C1974.0625,481.5938 1976.1719,483.4844 1979.0625,483.4844 C1980.2813,483.4844 1981.4375,483.1875 1982.1875,482.6406 C1982.7656,482.2344 1983.0938,481.7813 1983.0938,481.3906 C1983.0938,480.9375 1982.7031,480.5469 1982.2344,480.5469 C1982.0156,480.5469 1981.8125,480.625 1981.625,480.8125 C1981.1719,481.2969 1981.1719,481.2969 1980.9844,481.3906 C1980.5625,481.6563 1979.875,481.7813 1979.1094,481.7813 C1977.0625,481.7813 1975.7656,480.6875 1975.7656,478.9844 L1975.7656,477.8906 C1975.7656,476.1094 1977.0156,474.7969 1978.75,474.7969 C1979.3281,474.7969 1979.9375,474.9531 1980.4063,475.2031 C1980.8906,475.4844 1981.0625,475.7031 1981.1563,476.1094 C1981.2188,476.5156 1981.25,476.6406 1981.3906,476.7656 C1981.5313,476.9063 1981.7656,477.0156 1981.9844,477.0156 C1982.25,477.0156 1982.5156,476.875 1982.6875,476.6563 C1982.7969,476.5 1982.8281,476.3125 1982.8281,475.8906 L1982.8281,474.4688 C1982.8281,474.0313 1982.8125,473.9063 1982.7188,473.75 C1982.5625,473.4844 1982.2813,473.3438 1981.9844,473.3438 C1981.6875,473.3438 1981.4844,473.4375 1981.2656,473.75 L1981.0938,473.6719 Z " fill="#000000"/><text fill="#000000" font-family="sans-serif" font-size="14" lengthAdjust="spacing" textLength="126" x="1999.25" y="482.8467">AMTaggerFactory</text><line style="stroke:#181818;stroke-width:0.5;" x1="1698.5" x2="2393.5" y1="494" y2="494"/><rect fill="none" height="6" style="stroke:#C82930;stroke-width:1.0;" width="6" x="1705.5" y="504.6484"/><text fill="#000000" font-family="sans-serif" font-size="14" lengthAdjust="spacing" textLength="96" x="1717.5" y="510.9951">int frequency</text><rect fill="none" height="6" style="stroke:#C82930;stroke-width:1.0;" width="6" x="1705.5" y="520.9453"/><text fill="#000000" font-family="sans-serif" font-size="14" lengthAdjust="spacing" textLength="371" x="1717.5" y="527.292">Callable[[int, int, int], NDArray[float]] tag_generator</text><line style="stroke:#181818;stroke-width:0.5;" x1="1698.5" x2="2393.5" y1="534.5938" y2="534.5938"/><ellipse cx="1708.5" cy="548.2422" fill="#84BE84" rx="3" ry="3" style="stroke:#038048;stroke-width:1.0;"/><text fill="#000000" font-family="sans-serif" font-size="14" lengthAdjust="spacing" textLength="319" x="1717.5" y="551.5889">AMTaggerFactory(frequency, tag_generator)</text><ellipse cx="1708.5" cy="564.5391" fill="#84BE84" rx="3" ry="3" style="stroke:#038048;stroke-width:1.0;"/><text fill="#000000" font-family="sans-serif" font-size="14" lengthAdjust="spacing" textLength="671" x="1717.5" y="567.8857">AAudioTagger create_auditory_stimulus(audio: Audio, stimuli_intervals: List[Tuple[float, float])</text></g><!--class FMTaggerFactory--><g id="elem_FMTaggerFactory"><rect codeLine="46" fill="#F1F1F1" height="96.8906" id="FMTaggerFactory" rx="2.5" ry="2.5" style="stroke:#181818;stroke-width:0.5;" width="697" x="2429.5" y="470"/><ellipse cx="2711.75" cy="486" fill="#ADD1B2" rx="11" ry="11" style="stroke:#181818;stroke-width:1.0;"/><path d="M2714.0938,481.6719 C2713.1563,481.2344 2712.5625,481.0938 2711.6875,481.0938 C2709.0625,481.0938 2707.0625,483.1719 2707.0625,485.8906 L2707.0625,487.0156 C2707.0625,489.5938 2709.1719,491.4844 2712.0625,491.4844 C2713.2813,491.4844 2714.4375,491.1875 2715.1875,490.6406 C2715.7656,490.2344 2716.0938,489.7813 2716.0938,489.3906 C2716.0938,488.9375 2715.7031,488.5469 2715.2344,488.5469 C2715.0156,488.5469 2714.8125,488.625 2714.625,488.8125 C2714.1719,489.2969 2714.1719,489.2969 2713.9844,489.3906 C2713.5625,489.6563 2712.875,489.7813 2712.1094,489.7813 C2710.0625,489.7813 2708.7656,488.6875 2708.7656,486.9844 L2708.7656,485.8906 C2708.7656,484.1094 2710.0156,482.7969 2711.75,482.7969 C2712.3281,482.7969 2712.9375,482.9531 2713.4063,483.2031 C2713.8906,483.4844 2714.0625,483.7031 2714.1563,484.1094 C2714.2188,484.5156 2714.25,484.6406 2714.3906,484.7656 C2714.5313,484.9063 2714.7656,485.0156 2714.9844,485.0156 C2715.25,485.0156 2715.5156,484.875 2715.6875,484.6563 C2715.7969,484.5 2715.8281,484.3125 2715.8281,483.8906 L2715.8281,482.4688 C2715.8281,482.0313 2715.8125,481.9063 2715.7188,481.75 C2715.5625,481.4844 2715.2813,481.3438 2714.9844,481.3438 C2714.6875,481.3438 2714.4844,481.4375 2714.2656,481.75 L2714.0938,481.6719 Z " fill="#000000"/><text fill="#000000" font-family="sans-serif" font-size="14" lengthAdjust="spacing" textLength="124" x="2732.25" y="490.8467">FMTaggerFactory</text><line style="stroke:#181818;stroke-width:0.5;" x1="2430.5" x2="3125.5" y1="502" y2="502"/><rect fill="none" height="6" style="stroke:#C82930;stroke-width:1.0;" width="6" x="2437.5" y="512.6484"/><text fill="#000000" font-family="sans-serif" font-size="14" lengthAdjust="spacing" textLength="96" x="2449.5" y="518.9951">int frequency</text><line style="stroke:#181818;stroke-width:0.5;" x1="2430.5" x2="3125.5" y1="526.2969" y2="526.2969"/><ellipse cx="2440.5" cy="539.9453" fill="#84BE84" rx="3" ry="3" style="stroke:#038048;stroke-width:1.0;"/><text fill="#000000" font-family="sans-serif" font-size="14" lengthAdjust="spacing" textLength="206" x="2449.5" y="543.292">FMTaggerFactory(frequency)</text><ellipse cx="2440.5" cy="556.2422" fill="#84BE84" rx="3" ry="3" style="stroke:#038048;stroke-width:1.0;"/><text fill="#000000" font-family="sans-serif" font-size="14" lengthAdjust="spacing" textLength="671" x="2449.5" y="559.5889">AAudioTagger create_auditory_stimulus(audio: Audio, stimuli_intervals: List[Tuple[float, float])</text></g><!--class Audio--><g id="elem_Audio"><rect codeLine="1" fill="#F1F1F1" height="80.5938" id="Audio" rx="2.5" ry="2.5" style="stroke:#181818;stroke-width:0.5;" width="194" x="7" y="49"/><ellipse cx="79.75" cy="65" fill="#ADD1B2" rx="11" ry="11" style="stroke:#181818;stroke-width:1.0;"/><path d="M82.0938,60.6719 C81.1563,60.2344 80.5625,60.0938 79.6875,60.0938 C77.0625,60.0938 75.0625,62.1719 75.0625,64.8906 L75.0625,66.0156 C75.0625,68.5938 77.1719,70.4844 80.0625,70.4844 C81.2813,70.4844 82.4375,70.1875 83.1875,69.6406 C83.7656,69.2344 84.0938,68.7813 84.0938,68.3906 C84.0938,67.9375 83.7031,67.5469 83.2344,67.5469 C83.0156,67.5469 82.8125,67.625 82.625,67.8125 C82.1719,68.2969 82.1719,68.2969 81.9844,68.3906 C81.5625,68.6563 80.875,68.7813 80.1094,68.7813 C78.0625,68.7813 76.7656,67.6875 76.7656,65.9844 L76.7656,64.8906 C76.7656,63.1094 78.0156,61.7969 79.75,61.7969 C80.3281,61.7969 80.9375,61.9531 81.4063,62.2031 C81.8906,62.4844 82.0625,62.7031 82.1563,63.1094 C82.2188,63.5156 82.25,63.6406 82.3906,63.7656 C82.5313,63.9063 82.7656,64.0156 82.9844,64.0156 C83.25,64.0156 83.5156,63.875 83.6875,63.6563 C83.7969,63.5 83.8281,63.3125 83.8281,62.8906 L83.8281,61.4688 C83.8281,61.0313 83.8125,60.9063 83.7188,60.75 C83.5625,60.4844 83.2813,60.3438 82.9844,60.3438 C82.6875,60.3438 82.4844,60.4375 82.2656,60.75 L82.0938,60.6719 Z " fill="#000000"/><text fill="#000000" font-family="sans-serif" font-size="14" lengthAdjust="spacing" textLength="40" x="100.25" y="69.8467">Audio</text><line style="stroke:#181818;stroke-width:0.5;" x1="8" x2="200" y1="81" y2="81"/><ellipse cx="18" cy="94.6484" fill="none" rx="3" ry="3" style="stroke:#038048;stroke-width:1.0;"/><text fill="#000000" font-family="sans-serif" font-size="14" lengthAdjust="spacing" textLength="143" x="27" y="97.9951">NDArray[float] array</text><ellipse cx="18" cy="110.9453" fill="none" rx="3" ry="3" style="stroke:#038048;stroke-width:1.0;"/><text fill="#000000" font-family="sans-serif" font-size="14" lengthAdjust="spacing" textLength="168" x="27" y="114.292">int sampling_frequency</text><line style="stroke:#181818;stroke-width:0.5;" x1="8" x2="200" y1="121.5938" y2="121.5938"/></g><!--reverse link AAuditoryTagger to Audio--><g id="link_AAuditoryTagger_Audio"><path codeLine="14" d="M1629.49,89.5 C1301.06,89.5 485.066,89.5 201.237,89.5 " fill="none" id="AAuditoryTagger-backto-Audio" style="stroke:#181818;stroke-width:1.0;"/><polygon fill="#181818" points="1641.49,89.5,1635.49,85.5,1629.49,89.5,1635.49,93.5,1641.49,89.5" style="stroke:#181818;stroke-width:1.0;"/><text fill="#000000" font-family="sans-serif" font-size="13" lengthAdjust="spacing" textLength="35" x="903.75" y="82.5669">audio</text><text fill="#000000" font-family="sans-serif" font-size="13" lengthAdjust="spacing" textLength="8" x="1625.3668" y="86.1403">1</text><text fill="#000000" font-family="sans-serif" font-size="13" lengthAdjust="spacing" textLength="8" x="208.988" y="86.0133">1</text></g><!--reverse link AAuditoryTagger to RawTagger--><g id="link_AAuditoryTagger_RawTagger"><path codeLine="84" d="M1680.6186,147.1137 C1617.6086,183.7447 1547.9,224.272 1493.41,255.95 " fill="none" id="AAuditoryTagger-backto-RawTagger" style="stroke:#181818;stroke-width:1.0;"/><polygon fill="none" points="1696.18,138.067,1677.603,141.9265,1683.6341,152.3008,1696.18,138.067" style="stroke:#181818;stroke-width:1.0;"/></g><!--reverse link AAuditoryTagger to NoiseTaggingTagger--><g id="link_AAuditoryTagger_NoiseTaggingTagger"><path codeLine="85" d="M1623.8205,124.4261 C1506.1905,150.3091 1349.52,184.784 1197.91,218.146 " fill="none" id="AAuditoryTagger-backto-NoiseTaggingTagger" style="stroke:#181818;stroke-width:1.0;"/><polygon fill="none" points="1641.4,120.558,1622.5312,118.5663,1625.1099,130.286,1641.4,120.558" style="stroke:#181818;stroke-width:1.0;"/></g><!--reverse link AAuditoryTagger to AMTagger--><g id="link_AAuditoryTagger_AMTagger"><path codeLine="86" d="M1842.7899,150.2723 C1873.1999,178.3273 1898.61,201.77 1930.47,231.155 " fill="none" id="AAuditoryTagger-backto-AMTagger" style="stroke:#181818;stroke-width:1.0;"/><polygon fill="none" points="1829.56,138.067,1838.7214,154.6823,1846.8583,145.8624,1829.56,138.067" style="stroke:#181818;stroke-width:1.0;"/></g><!--reverse link AAuditoryTagger to FMTagger--><g id="link_AAuditoryTagger_FMTagger"><path codeLine="87" d="M1932.3981,120.2226 C2026.4481,138.8196 2136.36,161.658 2248,188.5 C2311.95,203.878 2381.79,222.499 2442.85,239.393 " fill="none" id="AAuditoryTagger-backto-FMTagger" style="stroke:#181818;stroke-width:1.0;"/><polygon fill="none" points="1914.74,116.731,1931.2342,126.1087,1933.562,114.3366,1914.74,116.731" style="stroke:#181818;stroke-width:1.0;"/></g><!--link AMTaggerFactory to AAudioTaggerFactory--><g id="link_AMTaggerFactory_AAudioTaggerFactory"><path codeLine="89" d="M1914.8,575.09 C1860.17,598.238 1815.3637,617.2218 1768.9237,636.8983 " fill="none" id="AMTaggerFactory-to-AAudioTaggerFactory" style="stroke:#181818;stroke-width:1.0;"/><polygon fill="none" points="1752.35,643.9205,1771.2645,642.4228,1766.583,631.3737,1752.35,643.9205" style="stroke:#181818;stroke-width:1.0;"/></g><!--link FMTaggerFactory to AAudioTaggerFactory--><g id="link_FMTaggerFactory_AAudioTaggerFactory"><path codeLine="90" d="M2578.35,567.049 C2524.57,578.711 2466.26,590.322 2412,599 C2286.61,619.055 2166.1943,633.2288 2043.7843,645.2152 " fill="none" id="FMTaggerFactory-to-AAudioTaggerFactory" style="stroke:#181818;stroke-width:1.0;"/><polygon fill="none" points="2025.87,646.9694,2044.369,651.1867,2043.1996,639.2438,2025.87,646.9694" style="stroke:#181818;stroke-width:1.0;"/></g><!--link NoiseTaggingTaggerFactory to AAudioTaggerFactory--><g id="link_NoiseTaggingTaggerFactory_AAudioTaggerFactory"><path codeLine="91" d="M859.165,583.068 C889.063,588.919 919.107,594.375 948,599 C1072.73,618.968 1192.3964,633.0967 1314.2364,645.0762 " fill="none" id="NoiseTaggingTaggerFactory-to-AAudioTaggerFactory" style="stroke:#181818;stroke-width:1.0;"/><polygon fill="none" points="1332.15,646.8375,1314.8235,639.105,1313.6493,651.0474,1332.15,646.8375" style="stroke:#181818;stroke-width:1.0;"/></g><!--link RawTaggerFactory to AAudioTaggerFactory--><g id="link_RawTaggerFactory_AAudioTaggerFactory"><path codeLine="92" d="M1386.99,550.594 C1450.65,577.715 1525.9603,609.7998 1589.5803,636.9047 " fill="none" id="RawTaggerFactory-to-AAudioTaggerFactory" style="stroke:#181818;stroke-width:1.0;"/><polygon fill="none" points="1606.14,643.9599,1591.932,631.3848,1587.2285,642.4246,1606.14,643.9599" style="stroke:#181818;stroke-width:1.0;"/></g><!--reverse link AMTagger to AMTaggerFactory--><g id="link_AMTagger_AMTaggerFactory"><path codeLine="94" d="M2005.7851,350.4382 C2014.3451,385.9742 2023.99,426.061 2032.56,461.645 " fill="none" id="AMTagger-backto-AMTaggerFactory" style="stroke:#181818;stroke-width:1.0;stroke-dasharray:7.0,7.0;"/><polygon fill="#181818" points="2004.38,344.605,2002.5989,354.2915,2005.5509,349.466,2010.3764,352.418,2004.38,344.605" style="stroke:#181818;stroke-width:1.0;"/><text fill="#000000" font-family="sans-serif" font-size="13" lengthAdjust="spacing" textLength="48" x="2024" y="420.0669">creates</text></g><!--reverse link FMTagger to FMTaggerFactory--><g id="link_FMTagger_FMTaggerFactory"><path codeLine="95" d="M2647.7883,341.4466 C2676.7183,380.5546 2713.91,430.848 2742.82,469.938 " fill="none" id="FMTagger-backto-FMTaggerFactory" style="stroke:#181818;stroke-width:1.0;stroke-dasharray:7.0,7.0;"/><polygon fill="#181818" points="2644.22,336.623,2646.3566,346.2373,2647.1936,340.6427,2652.7882,341.4796,2644.22,336.623" style="stroke:#181818;stroke-width:1.0;"/><text fill="#000000" font-family="sans-serif" font-size="13" lengthAdjust="spacing" textLength="48" x="2709" y="420.0669">creates</text></g><!--reverse link NoiseTaggingTagger to NoiseTaggingTaggerFactory--><g id="link_NoiseTaggingTagger_NoiseTaggingTaggerFactory"><path codeLine="96" d="M763.4955,380.6296 C729.4865,406.2766 697.795,430.176 666.211,453.995 " fill="none" id="NoiseTaggingTagger-backto-NoiseTaggingTaggerFactory" style="stroke:#181818;stroke-width:1.0;stroke-dasharray:7.0,7.0;"/><polygon fill="#181818" points="768.286,377.017,758.6918,379.2423,764.2939,380.0275,763.5087,385.6296,768.286,377.017" style="stroke:#181818;stroke-width:1.0;"/><text fill="#000000" font-family="sans-serif" font-size="13" lengthAdjust="spacing" textLength="48" x="726" y="420.0669">creates</text></g><!--reverse link RawTagger to RawTaggerFactory--><g id="link_RawTagger_RawTaggerFactory"><path codeLine="97" d="M1419.8429,325.5472 C1395.7829,369.1822 1355.31,442.591 1331.25,486.219 " fill="none" id="RawTagger-backto-RawTaggerFactory" style="stroke:#181818;stroke-width:1.0;stroke-dasharray:7.0,7.0;"/><polygon fill="#181818" points="1422.74,320.293,1414.8915,326.2429,1420.3257,324.6715,1421.8971,330.1057,1422.74,320.293" style="stroke:#181818;stroke-width:1.0;"/><text fill="#000000" font-family="sans-serif" font-size="13" lengthAdjust="spacing" textLength="48" x="1375" y="420.0669">creates</text></g><!--SRC=[nLKzRzim4DtrAmxkOjTIWAv25YE5fpO54c-6GT0Ien1XH9Ma4XYj_tifKPGewWCQcjQ30EaUxzvxTpuc34i9kpAb77u5e7_R-wyx8V3b-CGuLYV0rOk9q5o1nAy5etc6dWJvMP8ykGJN82Xmye8p0bWdKbnSaC9Pfb5DJdoMIk14GMBAxHhOGQE8Q400dnYLwWYcSWWDWHD8HLzBHf6kJyGRPZ9e3cozJEkgFW_jWKqBC_eiZIiaWc15rWPmDUbyLgilA_WS7NCkSFvoYkhtEb5So-H1CAcDcnHx_LddQ_LjtU2G3chTC_nBQVJ4fcmuz266RvLZXx9WfEzQJrdR7Ib5tHd7Sx2yln_y041KTRnhj1EumupXiwvwr90GxECKWZS-kXpAI4u4rie29yLsz_ZuCDgsJb_O5G_xcJQzJ7LxUprrr7SQzmiqkdajVWc_EKBJZAph_gJy7VDdtUzNNYypsftVZnhQsTOjC6giWmEL_qkM8yu8k-TKaeFPbjvqHZyAHNcEMTLclGK9IGD7yPagz4vJzUn-P2JFr3FICRjpsYHtF2KdIFIpNP_3uZEZhdDAL12194budiPcxhg2OStGsxdUdp9wupG5PCUBe8hEI5IPW4bULzeiiSwV3kkJotlMhJ7BfysoK-LLc3FbNqnQpwG7_EwDrLXdne_CtryVHr-pyI_ZszzHr14R3myRD8wpgsyyQbT6my6xoZMaZForFOFSBqPEZjVC6RzJchEzucvlRdoQCQnCp-GgsBku_JHkP3rL9oR9kcUxqQkE-5mTv1y0]--></g></svg>