<?xml version="1.0" encoding="us-ascii" standalone="no"?><svg xmlns="http://www.w3.org/2000/svg" xmlns:xlink="http://www.w3.org/1999/xlink" contentStyleType="text/css" height="916px" preserveAspectRatio="none" style="width:3211px;height:916px;background:#FFFFFF;" version="1.1" viewBox="0 0 3211 916" width="3211px" zoomAndPan="magnify"><defs/><g><!--cluster auditory_tagging--><g id="cluster_auditory_tagging"><path d="M8.5,151 L148.5,151 A3.75,3.75 0 0 1 151,153.5 L158,173.2969 L3201.5,173.2969 A2.5,2.5 0 0 1 3204,175.7969 L3204,906.5 A2.5,2.5 0 0 1 3201.5,909 L8.5,909 A2.5,2.5 0 0 1 6,906.5 L6,153.5 A2.5,2.5 0 0 1 8.5,151 " fill="none" style="stroke:#000000;stroke-width:1.5;"/><line style="stroke:#000000;stroke-width:1.5;" x1="6" x2="158" y1="173.2969" y2="173.2969"/><text fill="#000000" font-family="sans-serif" font-size="14" font-weight="bold" lengthAdjust="spacing" textLength="139" x="10" y="165.9951">auditory_tagging</text></g><!--cluster assr_tagger--><g id="cluster_assr_tagger"><path d="M1246.5,330 L1343.5,330 A3.75,3.75 0 0 1 1346,332.5 L1353,352.2969 L3177.5,352.2969 A2.5,2.5 0 0 1 3180,354.7969 L3180,779.5 A2.5,2.5 0 0 1 3177.5,782 L1246.5,782 A2.5,2.5 0 0 1 1244,779.5 L1244,332.5 A2.5,2.5 0 0 1 1246.5,330 " fill="none" style="stroke:#000000;stroke-width:1.5;"/><line style="stroke:#000000;stroke-width:1.5;" x1="1244" x2="1353" y1="352.2969" y2="352.2969"/><text fill="#000000" font-family="sans-serif" font-size="14" font-weight="bold" lengthAdjust="spacing" textLength="96" x="1248" y="344.9951">assr_tagger</text></g><!--class AAudioTagger--><g id="elem_AAudioTagger"><rect codeLine="7" fill="#F1F1F1" height="96.8906" id="AAudioTagger" rx="2.5" ry="2.5" style="stroke:#181818;stroke-width:0.5;" width="273" x="1158.5" y="186"/><ellipse cx="1239.75" cy="202" fill="#A9DCDF" rx="11" ry="11" style="stroke:#181818;stroke-width:1.0;"/><path d="M1241.8281,203.8125 L1242.2188,204.7969 L1241.8281,204.7969 C1241.375,204.7969 1241.2656,204.8125 1241.1094,204.9219 C1240.8594,205.0781 1240.7031,205.3594 1240.7031,205.6563 C1240.7031,205.9219 1240.8438,206.1719 1241.0625,206.3281 C1241.2031,206.4531 1241.4063,206.5 1241.8281,206.5 L1244.1875,206.5 C1244.5469,206.5 1244.7656,206.4688 1244.9063,206.375 C1245.1563,206.2344 1245.3125,205.9375 1245.3125,205.6563 C1245.3125,205.375 1245.1719,205.125 1244.9531,204.9688 C1244.7813,204.8281 1244.625,204.7969 1244.1563,204.7969 L1240.7656,196.5938 L1237.0938,196.5938 C1236.6406,196.5938 1236.5156,196.6094 1236.3594,196.7031 C1236.1094,196.875 1235.9531,197.1563 1235.9531,197.4375 C1235.9531,197.7188 1236.0938,197.9688 1236.3125,198.1406 C1236.4844,198.25 1236.6563,198.2813 1237.0938,198.2813 L1238.1719,198.2813 L1235.5313,204.7969 C1235.1094,204.7969 1234.9531,204.8125 1234.7969,204.9219 C1234.5469,205.0781 1234.3906,205.3594 1234.3906,205.6563 C1234.3906,206.2188 1234.7656,206.5 1235.5156,206.5 L1237.7813,206.5 C1238.1406,206.5 1238.3594,206.4688 1238.4844,206.375 C1238.75,206.2344 1238.8906,205.9375 1238.8906,205.6563 C1238.8906,205.375 1238.7656,205.125 1238.5469,204.9531 C1238.375,204.8281 1238.2344,204.7969 1237.7813,204.7969 L1237.3906,204.7969 L1237.7813,203.8125 L1241.8281,203.8125 Z M1241.125,202.1094 L1238.4531,202.1094 L1239.7969,198.8438 L1241.125,202.1094 Z " fill="#000000"/><text fill="#000000" font-family="sans-serif" font-size="14" font-style="italic" lengthAdjust="spacing" textLength="102" x="1260.25" y="206.8467">AAudioTagger</text><line style="stroke:#181818;stroke-width:0.5;" x1="1159.5" x2="1430.5" y1="218" y2="218"/><polygon fill="none" points="1169.5,226.6484,1173.5,230.6484,1169.5,234.6484,1165.5,230.6484" style="stroke:#B38D22;stroke-width:1.0;"/><text fill="#000000" font-family="sans-serif" font-size="14" lengthAdjust="spacing" textLength="247" x="1178.5" y="234.9951">list[ [float, float] ] stimuli_intervals</text><line style="stroke:#181818;stroke-width:0.5;" x1="1159.5" x2="1430.5" y1="242.2969" y2="242.2969"/><ellipse cx="1169.5" cy="255.9453" fill="#84BE84" rx="3" ry="3" style="stroke:#038048;stroke-width:1.0;"/><text fill="#000000" font-family="sans-serif" font-size="14" lengthAdjust="spacing" textLength="225" x="1178.5" y="259.292">AAuditoryTagger(audio, stimuli)</text><ellipse cx="1169.5" cy="272.2422" fill="#84BE84" rx="3" ry="3" style="stroke:#038048;stroke-width:1.0;"/><text fill="#000000" font-family="sans-serif" font-size="14" font-style="italic" lengthAdjust="spacing" textLength="101" x="1178.5" y="275.5889">Audio create()</text></g><!--class AAudioTaggerFactory--><g id="elem_AAudioTaggerFactory"><rect codeLine="17" fill="#F1F1F1" height="64.2969" id="AAudioTaggerFactory" rx="2.5" ry="2.5" style="stroke:#181818;stroke-width:0.5;" width="662" x="961" y="829"/><ellipse cx="1210.25" cy="845" fill="#A9DCDF" rx="11" ry="11" style="stroke:#181818;stroke-width:1.0;"/><path d="M1212.3281,846.8125 L1212.7188,847.7969 L1212.3281,847.7969 C1211.875,847.7969 1211.7656,847.8125 1211.6094,847.9219 C1211.3594,848.0781 1211.2031,848.3594 1211.2031,848.6563 C1211.2031,848.9219 1211.3438,849.1719 1211.5625,849.3281 C1211.7031,849.4531 1211.9063,849.5 1212.3281,849.5 L1214.6875,849.5 C1215.0469,849.5 1215.2656,849.4688 1215.4063,849.375 C1215.6563,849.2344 1215.8125,848.9375 1215.8125,848.6563 C1215.8125,848.375 1215.6719,848.125 1215.4531,847.9688 C1215.2813,847.8281 1215.125,847.7969 1214.6563,847.7969 L1211.2656,839.5938 L1207.5938,839.5938 C1207.1406,839.5938 1207.0156,839.6094 1206.8594,839.7031 C1206.6094,839.875 1206.4531,840.1563 1206.4531,840.4375 C1206.4531,840.7188 1206.5938,840.9688 1206.8125,841.1406 C1206.9844,841.25 1207.1563,841.2813 1207.5938,841.2813 L1208.6719,841.2813 L1206.0313,847.7969 C1205.6094,847.7969 1205.4531,847.8125 1205.2969,847.9219 C1205.0469,848.0781 1204.8906,848.3594 1204.8906,848.6563 C1204.8906,849.2188 1205.2656,849.5 1206.0156,849.5 L1208.2813,849.5 C1208.6406,849.5 1208.8594,849.4688 1208.9844,849.375 C1209.25,849.2344 1209.3906,848.9375 1209.3906,848.6563 C1209.3906,848.375 1209.2656,848.125 1209.0469,847.9531 C1208.875,847.8281 1208.7344,847.7969 1208.2813,847.7969 L1207.8906,847.7969 L1208.2813,846.8125 L1212.3281,846.8125 Z M1211.625,845.1094 L1208.9531,845.1094 L1210.2969,841.8438 L1211.625,845.1094 Z " fill="#000000"/><text fill="#000000" font-family="sans-serif" font-size="14" font-style="italic" lengthAdjust="spacing" textLength="155" x="1230.75" y="849.8467">AAudioTaggerFactory</text><line style="stroke:#181818;stroke-width:0.5;" x1="962" x2="1622" y1="861" y2="861"/><line style="stroke:#181818;stroke-width:0.5;" x1="962" x2="1622" y1="869" y2="869"/><ellipse cx="972" cy="882.6484" fill="#84BE84" rx="3" ry="3" style="stroke:#038048;stroke-width:1.0;"/><text fill="#000000" font-family="sans-serif" font-size="14" font-style="italic" lengthAdjust="spacing" textLength="636" x="981" y="885.9951">AAudioTagger create_audio_tagger(audio: Audio, stimuli_intervals: List[Tuple[float, float])</text></g><!--class NoiseTaggingTagger--><g id="elem_NoiseTaggingTagger"><rect codeLine="74" fill="#F1F1F1" height="178.375" id="NoiseTaggingTagger" rx="2.5" ry="2.5" style="stroke:#181818;stroke-width:0.5;" width="625" x="22.5" y="373.5"/><ellipse cx="257.75" cy="389.5" fill="#ADD1B2" rx="11" ry="11" style="stroke:#181818;stroke-width:1.0;"/><path d="M260.0938,385.1719 C259.1563,384.7344 258.5625,384.5938 257.6875,384.5938 C255.0625,384.5938 253.0625,386.6719 253.0625,389.3906 L253.0625,390.5156 C253.0625,393.0938 255.1719,394.9844 258.0625,394.9844 C259.2813,394.9844 260.4375,394.6875 261.1875,394.1406 C261.7656,393.7344 262.0938,393.2813 262.0938,392.8906 C262.0938,392.4375 261.7031,392.0469 261.2344,392.0469 C261.0156,392.0469 260.8125,392.125 260.625,392.3125 C260.1719,392.7969 260.1719,392.7969 259.9844,392.8906 C259.5625,393.1563 258.875,393.2813 258.1094,393.2813 C256.0625,393.2813 254.7656,392.1875 254.7656,390.4844 L254.7656,389.3906 C254.7656,387.6094 256.0156,386.2969 257.75,386.2969 C258.3281,386.2969 258.9375,386.4531 259.4063,386.7031 C259.8906,386.9844 260.0625,387.2031 260.1563,387.6094 C260.2188,388.0156 260.25,388.1406 260.3906,388.2656 C260.5313,388.4063 260.7656,388.5156 260.9844,388.5156 C261.25,388.5156 261.5156,388.375 261.6875,388.1563 C261.7969,388 261.8281,387.8125 261.8281,387.3906 L261.8281,385.9688 C261.8281,385.5313 261.8125,385.4063 261.7188,385.25 C261.5625,384.9844 261.2813,384.8438 260.9844,384.8438 C260.6875,384.8438 260.4844,384.9375 260.2656,385.25 L260.0938,385.1719 Z " fill="#000000"/><text fill="#000000" font-family="sans-serif" font-size="14" lengthAdjust="spacing" textLength="146" x="278.25" y="394.3467">NoiseTaggingTagger</text><line style="stroke:#181818;stroke-width:0.5;" x1="23.5" x2="646.5" y1="405.5" y2="405.5"/><rect fill="none" height="6" style="stroke:#C82930;stroke-width:1.0;" width="6" x="30.5" y="416.1484"/><text fill="#000000" font-family="sans-serif" font-size="14" lengthAdjust="spacing" textLength="130" x="42.5" y="422.4951">Optional[int] seed</text><rect fill="none" height="6" style="stroke:#C82930;stroke-width:1.0;" width="6" x="30.5" y="432.4453"/><text fill="#000000" font-family="sans-serif" font-size="14" lengthAdjust="spacing" textLength="92" x="42.5" y="438.792">int bit_width</text><rect fill="none" height="6" style="stroke:#C82930;stroke-width:1.0;" width="6" x="30.5" y="448.7422"/><text fill="#000000" font-family="sans-serif" font-size="14" lengthAdjust="spacing" textLength="99" x="42.5" y="455.0889">int length_bit</text><ellipse cx="33.5" cy="468.0391" fill="none" rx="3" ry="3" style="stroke:#038048;stroke-width:1.0;"/><text fill="#000000" font-family="sans-serif" font-size="14" lengthAdjust="spacing" textLength="148" x="42.5" y="471.3857">Optional[Code] code</text><line style="stroke:#181818;stroke-width:0.5;" x1="23.5" x2="646.5" y1="478.6875" y2="478.6875"/><ellipse cx="33.5" cy="492.3359" fill="#84BE84" rx="3" ry="3" style="stroke:#038048;stroke-width:1.0;"/><text fill="#000000" font-family="sans-serif" font-size="14" lengthAdjust="spacing" textLength="599" x="42.5" y="495.6826">NoiseTaggingTagger(audio, stimuli_intervals, bits_per_second: int, length_bit, seed)</text><ellipse cx="33.5" cy="508.6328" fill="#84BE84" rx="3" ry="3" style="stroke:#038048;stroke-width:1.0;"/><text fill="#000000" font-family="sans-serif" font-size="14" lengthAdjust="spacing" textLength="101" x="42.5" y="511.9795">Audio create()</text><rect fill="#F24D5C" height="6" style="stroke:#C82930;stroke-width:1.0;" width="6" x="30.5" y="521.9297"/><text fill="#000000" font-family="sans-serif" font-size="14" lengthAdjust="spacing" textLength="166" x="42.5" y="528.2764">void __generate_code()</text><rect fill="#F24D5C" height="6" style="stroke:#C82930;stroke-width:1.0;" width="6" x="30.5" y="538.2266"/><text fill="#000000" font-family="sans-serif" font-size="14" lengthAdjust="spacing" textLength="201" x="42.5" y="544.5732">void __get_code(length: int)</text></g><!--class NoiseTaggingTaggerFactory--><g id="elem_NoiseTaggingTaggerFactory"><rect codeLine="86" fill="#F1F1F1" height="113.1875" id="NoiseTaggingTaggerFactory" rx="2.5" ry="2.5" style="stroke:#181818;stroke-width:0.5;" width="479" x="182.5" y="645"/><ellipse cx="317.75" cy="661" fill="#ADD1B2" rx="11" ry="11" style="stroke:#181818;stroke-width:1.0;"/><path d="M320.0938,656.6719 C319.1563,656.2344 318.5625,656.0938 317.6875,656.0938 C315.0625,656.0938 313.0625,658.1719 313.0625,660.8906 L313.0625,662.0156 C313.0625,664.5938 315.1719,666.4844 318.0625,666.4844 C319.2813,666.4844 320.4375,666.1875 321.1875,665.6406 C321.7656,665.2344 322.0938,664.7813 322.0938,664.3906 C322.0938,663.9375 321.7031,663.5469 321.2344,663.5469 C321.0156,663.5469 320.8125,663.625 320.625,663.8125 C320.1719,664.2969 320.1719,664.2969 319.9844,664.3906 C319.5625,664.6563 318.875,664.7813 318.1094,664.7813 C316.0625,664.7813 314.7656,663.6875 314.7656,661.9844 L314.7656,660.8906 C314.7656,659.1094 316.0156,657.7969 317.75,657.7969 C318.3281,657.7969 318.9375,657.9531 319.4063,658.2031 C319.8906,658.4844 320.0625,658.7031 320.1563,659.1094 C320.2188,659.5156 320.25,659.6406 320.3906,659.7656 C320.5313,659.9063 320.7656,660.0156 320.9844,660.0156 C321.25,660.0156 321.5156,659.875 321.6875,659.6563 C321.7969,659.5 321.8281,659.3125 321.8281,658.8906 L321.8281,657.4688 C321.8281,657.0313 321.8125,656.9063 321.7188,656.75 C321.5625,656.4844 321.2813,656.3438 320.9844,656.3438 C320.6875,656.3438 320.4844,656.4375 320.2656,656.75 L320.0938,656.6719 Z " fill="#000000"/><text fill="#000000" font-family="sans-serif" font-size="14" lengthAdjust="spacing" textLength="200" x="338.25" y="665.8467">NoiseTaggingTaggerFactory</text><line style="stroke:#181818;stroke-width:0.5;" x1="183.5" x2="660.5" y1="677" y2="677"/><rect fill="none" height="6" style="stroke:#C82930;stroke-width:1.0;" width="6" x="190.5" y="687.6484"/><text fill="#000000" font-family="sans-serif" font-size="14" lengthAdjust="spacing" textLength="142" x="202.5" y="693.9951">int bits_per_second</text><rect fill="none" height="6" style="stroke:#C82930;stroke-width:1.0;" width="6" x="190.5" y="703.9453"/><text fill="#000000" font-family="sans-serif" font-size="14" lengthAdjust="spacing" textLength="99" x="202.5" y="710.292">int length_bit</text><rect fill="none" height="6" style="stroke:#C82930;stroke-width:1.0;" width="6" x="190.5" y="720.2422"/><text fill="#000000" font-family="sans-serif" font-size="14" lengthAdjust="spacing" textLength="130" x="202.5" y="726.5889">Optional[int] seed</text><line style="stroke:#181818;stroke-width:0.5;" x1="183.5" x2="660.5" y1="733.8906" y2="733.8906"/><ellipse cx="193.5" cy="747.5391" fill="#84BE84" rx="3" ry="3" style="stroke:#038048;stroke-width:1.0;"/><text fill="#000000" font-family="sans-serif" font-size="14" lengthAdjust="spacing" textLength="453" x="202.5" y="750.8857">NoiseTaggingTaggerFactory(bits_per_second, length_bit, seed)</text></g><!--class RawTagger--><g id="elem_RawTagger"><rect codeLine="94" fill="#F1F1F1" height="64.2969" id="RawTagger" rx="2.5" ry="2.5" style="stroke:#181818;stroke-width:0.5;" width="127" x="682.5" y="430.5"/><ellipse cx="704.7" cy="446.5" fill="#ADD1B2" rx="11" ry="11" style="stroke:#181818;stroke-width:1.0;"/><path d="M707.0438,442.1719 C706.1063,441.7344 705.5125,441.5938 704.6375,441.5938 C702.0125,441.5938 700.0125,443.6719 700.0125,446.3906 L700.0125,447.5156 C700.0125,450.0938 702.1219,451.9844 705.0125,451.9844 C706.2313,451.9844 707.3875,451.6875 708.1375,451.1406 C708.7156,450.7344 709.0438,450.2813 709.0438,449.8906 C709.0438,449.4375 708.6531,449.0469 708.1844,449.0469 C707.9656,449.0469 707.7625,449.125 707.575,449.3125 C707.1219,449.7969 707.1219,449.7969 706.9344,449.8906 C706.5125,450.1563 705.825,450.2813 705.0594,450.2813 C703.0125,450.2813 701.7156,449.1875 701.7156,447.4844 L701.7156,446.3906 C701.7156,444.6094 702.9656,443.2969 704.7,443.2969 C705.2781,443.2969 705.8875,443.4531 706.3563,443.7031 C706.8406,443.9844 707.0125,444.2031 707.1063,444.6094 C707.1688,445.0156 707.2,445.1406 707.3406,445.2656 C707.4813,445.4063 707.7156,445.5156 707.9344,445.5156 C708.2,445.5156 708.4656,445.375 708.6375,445.1563 C708.7469,445 708.7781,444.8125 708.7781,444.3906 L708.7781,442.9688 C708.7781,442.5313 708.7625,442.4063 708.6688,442.25 C708.5125,441.9844 708.2313,441.8438 707.9344,441.8438 C707.6375,441.8438 707.4344,441.9375 707.2156,442.25 L707.0438,442.1719 Z " fill="#000000"/><text fill="#000000" font-family="sans-serif" font-size="14" lengthAdjust="spacing" textLength="79" x="720.3" y="451.3467">RawTagger</text><line style="stroke:#181818;stroke-width:0.5;" x1="683.5" x2="808.5" y1="462.5" y2="462.5"/><line style="stroke:#181818;stroke-width:0.5;" x1="683.5" x2="808.5" y1="470.5" y2="470.5"/><ellipse cx="693.5" cy="484.1484" fill="#84BE84" rx="3" ry="3" style="stroke:#038048;stroke-width:1.0;"/><text fill="#000000" font-family="sans-serif" font-size="14" lengthAdjust="spacing" textLength="101" x="702.5" y="487.4951">Audio create()</text></g><!--class RawTaggerFactory--><g id="elem_RawTaggerFactory"><rect codeLine="98" fill="#F1F1F1" height="48" id="RawTaggerFactory" rx="2.5" ry="2.5" style="stroke:#181818;stroke-width:0.5;" width="165" x="730.5" y="677.5"/><ellipse cx="745.5" cy="693.5" fill="#ADD1B2" rx="11" ry="11" style="stroke:#181818;stroke-width:1.0;"/><path d="M747.8438,689.1719 C746.9063,688.7344 746.3125,688.5938 745.4375,688.5938 C742.8125,688.5938 740.8125,690.6719 740.8125,693.3906 L740.8125,694.5156 C740.8125,697.0938 742.9219,698.9844 745.8125,698.9844 C747.0313,698.9844 748.1875,698.6875 748.9375,698.1406 C749.5156,697.7344 749.8438,697.2813 749.8438,696.8906 C749.8438,696.4375 749.4531,696.0469 748.9844,696.0469 C748.7656,696.0469 748.5625,696.125 748.375,696.3125 C747.9219,696.7969 747.9219,696.7969 747.7344,696.8906 C747.3125,697.1563 746.625,697.2813 745.8594,697.2813 C743.8125,697.2813 742.5156,696.1875 742.5156,694.4844 L742.5156,693.3906 C742.5156,691.6094 743.7656,690.2969 745.5,690.2969 C746.0781,690.2969 746.6875,690.4531 747.1563,690.7031 C747.6406,690.9844 747.8125,691.2031 747.9063,691.6094 C747.9688,692.0156 748,692.1406 748.1406,692.2656 C748.2813,692.4063 748.5156,692.5156 748.7344,692.5156 C749,692.5156 749.2656,692.375 749.4375,692.1563 C749.5469,692 749.5781,691.8125 749.5781,691.3906 L749.5781,689.9688 C749.5781,689.5313 749.5625,689.4063 749.4688,689.25 C749.3125,688.9844 749.0313,688.8438 748.7344,688.8438 C748.4375,688.8438 748.2344,688.9375 748.0156,689.25 L747.8438,689.1719 Z " fill="#000000"/><text fill="#000000" font-family="sans-serif" font-size="14" lengthAdjust="spacing" textLength="133" x="759.5" y="698.3467">RawTaggerFactory</text><line style="stroke:#181818;stroke-width:0.5;" x1="731.5" x2="894.5" y1="709.5" y2="709.5"/><line style="stroke:#181818;stroke-width:0.5;" x1="731.5" x2="894.5" y1="717.5" y2="717.5"/></g><!--class ShiftSumTagger--><g id="elem_ShiftSumTagger"><rect codeLine="101" fill="#F1F1F1" height="96.8906" id="ShiftSumTagger" rx="2.5" ry="2.5" style="stroke:#181818;stroke-width:0.5;" width="381" x="844.5" y="414"/><ellipse cx="972.75" cy="430" fill="#ADD1B2" rx="11" ry="11" style="stroke:#181818;stroke-width:1.0;"/><path d="M975.0938,425.6719 C974.1563,425.2344 973.5625,425.0938 972.6875,425.0938 C970.0625,425.0938 968.0625,427.1719 968.0625,429.8906 L968.0625,431.0156 C968.0625,433.5938 970.1719,435.4844 973.0625,435.4844 C974.2813,435.4844 975.4375,435.1875 976.1875,434.6406 C976.7656,434.2344 977.0938,433.7813 977.0938,433.3906 C977.0938,432.9375 976.7031,432.5469 976.2344,432.5469 C976.0156,432.5469 975.8125,432.625 975.625,432.8125 C975.1719,433.2969 975.1719,433.2969 974.9844,433.3906 C974.5625,433.6563 973.875,433.7813 973.1094,433.7813 C971.0625,433.7813 969.7656,432.6875 969.7656,430.9844 L969.7656,429.8906 C969.7656,428.1094 971.0156,426.7969 972.75,426.7969 C973.3281,426.7969 973.9375,426.9531 974.4063,427.2031 C974.8906,427.4844 975.0625,427.7031 975.1563,428.1094 C975.2188,428.5156 975.25,428.6406 975.3906,428.7656 C975.5313,428.9063 975.7656,429.0156 975.9844,429.0156 C976.25,429.0156 976.5156,428.875 976.6875,428.6563 C976.7969,428.5 976.8281,428.3125 976.8281,427.8906 L976.8281,426.4688 C976.8281,426.0313 976.8125,425.9063 976.7188,425.75 C976.5625,425.4844 976.2813,425.3438 975.9844,425.3438 C975.6875,425.3438 975.4844,425.4375 975.2656,425.75 L975.0938,425.6719 Z " fill="#000000"/><text fill="#000000" font-family="sans-serif" font-size="14" lengthAdjust="spacing" textLength="116" x="993.25" y="434.8467">ShiftSumTagger</text><line style="stroke:#181818;stroke-width:0.5;" x1="845.5" x2="1224.5" y1="446" y2="446"/><rect fill="none" height="6" style="stroke:#C82930;stroke-width:1.0;" width="6" x="852.5" y="456.6484"/><text fill="#000000" font-family="sans-serif" font-size="14" lengthAdjust="spacing" textLength="82" x="864.5" y="462.9951">int shift_by</text><line style="stroke:#181818;stroke-width:0.5;" x1="845.5" x2="1224.5" y1="470.2969" y2="470.2969"/><ellipse cx="855.5" cy="483.9453" fill="#84BE84" rx="3" ry="3" style="stroke:#038048;stroke-width:1.0;"/><text fill="#000000" font-family="sans-serif" font-size="14" lengthAdjust="spacing" textLength="355" x="864.5" y="487.292">ShiftSumTagger(audio, stimuli_intervals, shift_by)</text><ellipse cx="855.5" cy="500.2422" fill="#84BE84" rx="3" ry="3" style="stroke:#038048;stroke-width:1.0;"/><text fill="#000000" font-family="sans-serif" font-size="14" lengthAdjust="spacing" textLength="101" x="864.5" y="503.5889">Audio create()</text></g><!--class ShiftSumTaggerFactory--><g id="elem_ShiftSumTaggerFactory"><rect codeLine="108" fill="#F1F1F1" height="80.5938" id="ShiftSumTaggerFactory" rx="2.5" ry="2.5" style="stroke:#181818;stroke-width:0.5;" width="264" x="948" y="661"/><ellipse cx="990.9" cy="677" fill="#ADD1B2" rx="11" ry="11" style="stroke:#181818;stroke-width:1.0;"/><path d="M993.2438,672.6719 C992.3063,672.2344 991.7125,672.0938 990.8375,672.0938 C988.2125,672.0938 986.2125,674.1719 986.2125,676.8906 L986.2125,678.0156 C986.2125,680.5938 988.3219,682.4844 991.2125,682.4844 C992.4313,682.4844 993.5875,682.1875 994.3375,681.6406 C994.9156,681.2344 995.2438,680.7813 995.2438,680.3906 C995.2438,679.9375 994.8531,679.5469 994.3844,679.5469 C994.1656,679.5469 993.9625,679.625 993.775,679.8125 C993.3219,680.2969 993.3219,680.2969 993.1344,680.3906 C992.7125,680.6563 992.025,680.7813 991.2594,680.7813 C989.2125,680.7813 987.9156,679.6875 987.9156,677.9844 L987.9156,676.8906 C987.9156,675.1094 989.1656,673.7969 990.9,673.7969 C991.4781,673.7969 992.0875,673.9531 992.5563,674.2031 C993.0406,674.4844 993.2125,674.7031 993.3063,675.1094 C993.3688,675.5156 993.4,675.6406 993.5406,675.7656 C993.6813,675.9063 993.9156,676.0156 994.1344,676.0156 C994.4,676.0156 994.6656,675.875 994.8375,675.6563 C994.9469,675.5 994.9781,675.3125 994.9781,674.8906 L994.9781,673.4688 C994.9781,673.0313 994.9625,672.9063 994.8688,672.75 C994.7125,672.4844 994.4313,672.3438 994.1344,672.3438 C993.8375,672.3438 993.6344,672.4375 993.4156,672.75 L993.2438,672.6719 Z " fill="#000000"/><text fill="#000000" font-family="sans-serif" font-size="14" lengthAdjust="spacing" textLength="170" x="1011.1" y="681.8467">ShiftSumTaggerFactory</text><line style="stroke:#181818;stroke-width:0.5;" x1="949" x2="1211" y1="693" y2="693"/><rect fill="none" height="6" style="stroke:#C82930;stroke-width:1.0;" width="6" x="956" y="703.6484"/><text fill="#000000" font-family="sans-serif" font-size="14" lengthAdjust="spacing" textLength="82" x="968" y="709.9951">int shift_by</text><line style="stroke:#181818;stroke-width:0.5;" x1="949" x2="1211" y1="717.2969" y2="717.2969"/><ellipse cx="959" cy="730.9453" fill="#84BE84" rx="3" ry="3" style="stroke:#038048;stroke-width:1.0;"/><text fill="#000000" font-family="sans-serif" font-size="14" lengthAdjust="spacing" textLength="238" x="968" y="734.292">ShiftSumTaggerFactory(shift_by)</text></g><!--class AMTagger--><g id="elem_AMTagger"><rect codeLine="22" fill="#F1F1F1" height="129.4844" id="AMTagger" rx="2.5" ry="2.5" style="stroke:#181818;stroke-width:0.5;" width="589" x="1260.5" y="398"/><ellipse cx="1514.75" cy="414" fill="#ADD1B2" rx="11" ry="11" style="stroke:#181818;stroke-width:1.0;"/><path d="M1517.0938,409.6719 C1516.1563,409.2344 1515.5625,409.0938 1514.6875,409.0938 C1512.0625,409.0938 1510.0625,411.1719 1510.0625,413.8906 L1510.0625,415.0156 C1510.0625,417.5938 1512.1719,419.4844 1515.0625,419.4844 C1516.2813,419.4844 1517.4375,419.1875 1518.1875,418.6406 C1518.7656,418.2344 1519.0938,417.7813 1519.0938,417.3906 C1519.0938,416.9375 1518.7031,416.5469 1518.2344,416.5469 C1518.0156,416.5469 1517.8125,416.625 1517.625,416.8125 C1517.1719,417.2969 1517.1719,417.2969 1516.9844,417.3906 C1516.5625,417.6563 1515.875,417.7813 1515.1094,417.7813 C1513.0625,417.7813 1511.7656,416.6875 1511.7656,414.9844 L1511.7656,413.8906 C1511.7656,412.1094 1513.0156,410.7969 1514.75,410.7969 C1515.3281,410.7969 1515.9375,410.9531 1516.4063,411.2031 C1516.8906,411.4844 1517.0625,411.7031 1517.1563,412.1094 C1517.2188,412.5156 1517.25,412.6406 1517.3906,412.7656 C1517.5313,412.9063 1517.7656,413.0156 1517.9844,413.0156 C1518.25,413.0156 1518.5156,412.875 1518.6875,412.6563 C1518.7969,412.5 1518.8281,412.3125 1518.8281,411.8906 L1518.8281,410.4688 C1518.8281,410.0313 1518.8125,409.9063 1518.7188,409.75 C1518.5625,409.4844 1518.2813,409.3438 1517.9844,409.3438 C1517.6875,409.3438 1517.4844,409.4375 1517.2656,409.75 L1517.0938,409.6719 Z " fill="#000000"/><text fill="#000000" font-family="sans-serif" font-size="14" lengthAdjust="spacing" textLength="72" x="1535.25" y="418.8467">AMTagger</text><line style="stroke:#181818;stroke-width:0.5;" x1="1261.5" x2="1848.5" y1="430" y2="430"/><rect fill="none" height="6" style="stroke:#C82930;stroke-width:1.0;" width="6" x="1268.5" y="440.6484"/><text fill="#000000" font-family="sans-serif" font-size="14" lengthAdjust="spacing" textLength="96" x="1280.5" y="446.9951">int frequency</text><rect fill="none" height="6" style="stroke:#C82930;stroke-width:1.0;" width="6" x="1268.5" y="456.9453"/><text fill="#000000" font-family="sans-serif" font-size="14" lengthAdjust="spacing" textLength="366" x="1280.5" y="463.292">Callable[[int, int, int], NDArray[float] tag_generator</text><rect fill="none" height="6" style="stroke:#C82930;stroke-width:1.0;" width="6" x="1268.5" y="473.2422"/><text fill="#000000" font-family="sans-serif" font-size="14" lengthAdjust="spacing" textLength="193" x="1280.5" y="479.5889">[float, float] signal_interval</text><line style="stroke:#181818;stroke-width:0.5;" x1="1261.5" x2="1848.5" y1="486.8906" y2="486.8906"/><ellipse cx="1271.5" cy="500.5391" fill="#84BE84" rx="3" ry="3" style="stroke:#038048;stroke-width:1.0;"/><text fill="#000000" font-family="sans-serif" font-size="14" lengthAdjust="spacing" textLength="563" x="1280.5" y="503.8857">ASSRTagger(audio, stimuli_intervals, frequency, tag_generator, signal_interval)</text><ellipse cx="1271.5" cy="516.8359" fill="#84BE84" rx="3" ry="3" style="stroke:#038048;stroke-width:1.0;"/><text fill="#000000" font-family="sans-serif" font-size="14" lengthAdjust="spacing" textLength="101" x="1280.5" y="520.1826">Audio create()</text></g><!--class FMTagger--><g id="elem_FMTagger"><rect codeLine="31" fill="#F1F1F1" height="194.6719" id="FMTagger" rx="2.5" ry="2.5" style="stroke:#181818;stroke-width:0.5;" width="841" x="1884.5" y="365"/><ellipse cx="2265.75" cy="381" fill="#ADD1B2" rx="11" ry="11" style="stroke:#181818;stroke-width:1.0;"/><path d="M2268.0938,376.6719 C2267.1563,376.2344 2266.5625,376.0938 2265.6875,376.0938 C2263.0625,376.0938 2261.0625,378.1719 2261.0625,380.8906 L2261.0625,382.0156 C2261.0625,384.5938 2263.1719,386.4844 2266.0625,386.4844 C2267.2813,386.4844 2268.4375,386.1875 2269.1875,385.6406 C2269.7656,385.2344 2270.0938,384.7813 2270.0938,384.3906 C2270.0938,383.9375 2269.7031,383.5469 2269.2344,383.5469 C2269.0156,383.5469 2268.8125,383.625 2268.625,383.8125 C2268.1719,384.2969 2268.1719,384.2969 2267.9844,384.3906 C2267.5625,384.6563 2266.875,384.7813 2266.1094,384.7813 C2264.0625,384.7813 2262.7656,383.6875 2262.7656,381.9844 L2262.7656,380.8906 C2262.7656,379.1094 2264.0156,377.7969 2265.75,377.7969 C2266.3281,377.7969 2266.9375,377.9531 2267.4063,378.2031 C2267.8906,378.4844 2268.0625,378.7031 2268.1563,379.1094 C2268.2188,379.5156 2268.25,379.6406 2268.3906,379.7656 C2268.5313,379.9063 2268.7656,380.0156 2268.9844,380.0156 C2269.25,380.0156 2269.5156,379.875 2269.6875,379.6563 C2269.7969,379.5 2269.8281,379.3125 2269.8281,378.8906 L2269.8281,377.4688 C2269.8281,377.0313 2269.8125,376.9063 2269.7188,376.75 C2269.5625,376.4844 2269.2813,376.3438 2268.9844,376.3438 C2268.6875,376.3438 2268.4844,376.4375 2268.2656,376.75 L2268.0938,376.6719 Z " fill="#000000"/><text fill="#000000" font-family="sans-serif" font-size="14" lengthAdjust="spacing" textLength="70" x="2286.25" y="385.8467">FMTagger</text><line style="stroke:#181818;stroke-width:0.5;" x1="1885.5" x2="2724.5" y1="397" y2="397"/><rect fill="none" height="6" style="stroke:#C82930;stroke-width:1.0;" width="6" x="1892.5" y="407.6484"/><text fill="#000000" font-family="sans-serif" font-size="14" lengthAdjust="spacing" textLength="96" x="1904.5" y="413.9951">int frequency</text><rect fill="none" height="6" style="stroke:#C82930;stroke-width:1.0;" width="6" x="1892.5" y="423.9453"/><text fill="#000000" font-family="sans-serif" font-size="14" lengthAdjust="spacing" textLength="170" x="1904.5" y="430.292">float modulation_factor</text><line style="stroke:#181818;stroke-width:0.5;" x1="1885.5" x2="2724.5" y1="437.5938" y2="437.5938"/><ellipse cx="1895.5" cy="451.2422" fill="#84BE84" rx="3" ry="3" style="stroke:#038048;stroke-width:1.0;"/><text fill="#000000" font-family="sans-serif" font-size="14" lengthAdjust="spacing" textLength="463" x="1904.5" y="454.5889">FMTagger(audio, stimuli_intervals, frequency, modulation_factor)</text><ellipse cx="1895.5" cy="467.5391" fill="#84BE84" rx="3" ry="3" style="stroke:#038048;stroke-width:1.0;"/><text fill="#000000" font-family="sans-serif" font-size="14" lengthAdjust="spacing" textLength="101" x="1904.5" y="470.8857">Audio create()</text><rect fill="#F24D5C" height="6" style="stroke:#C82930;stroke-width:1.0;" width="6" x="1892.5" y="480.8359"/><text fill="#000000" font-family="sans-serif" font-size="14" lengthAdjust="spacing" text-decoration="underline" textLength="634" x="1904.5" y="487.1826">(NDArray[Real], NDArray[Real]) extract_amplitudes_phases(numbers: NDArray[Complex])</text><rect fill="#F24D5C" height="6" style="stroke:#C82930;stroke-width:1.0;" width="6" x="1892.5" y="497.1328"/><text fill="#000000" font-family="sans-serif" font-size="14" lengthAdjust="spacing" text-decoration="underline" textLength="660" x="1904.5" y="503.4795">NDArray[Complex] get_complex_number(amplitudes: NDArray[Real], phases: NDArray[Real])</text><rect fill="#F24D5C" height="6" style="stroke:#C82930;stroke-width:1.0;" width="6" x="1892.5" y="513.4297"/><text fill="#000000" font-family="sans-serif" font-size="14" lengthAdjust="spacing" textLength="545" x="1904.5" y="519.7764">NDArray[Real] phases_to_instantaneous_frequencies(phases: NDArray[Real])</text><rect fill="#F24D5C" height="6" style="stroke:#C82930;stroke-width:1.0;" width="6" x="1892.5" y="529.7266"/><text fill="#000000" font-family="sans-serif" font-size="14" lengthAdjust="spacing" textLength="815" x="1904.5" y="536.0732">NDArray[Real] instantaneous_frequencies_to_phases(instantaneous_frequencies: NDArray[Real], first_phase: Real)</text><rect fill="#F24D5C" height="6" style="stroke:#C82930;stroke-width:1.0;" width="6" x="1892.5" y="546.0234"/><text fill="#000000" font-family="sans-serif" font-size="14" lengthAdjust="spacing" textLength="372" x="1904.5" y="552.3701">NDArray[float32] modulate(signal: NDArray[float32])</text></g><!--class FlippedFMTagger--><g id="elem_FlippedFMTagger"><rect codeLine="45" fill="#F1F1F1" height="96.8906" id="FlippedFMTagger" rx="2.5" ry="2.5" style="stroke:#181818;stroke-width:0.5;" width="403" x="2760.5" y="414"/><ellipse cx="2895.75" cy="430" fill="#ADD1B2" rx="11" ry="11" style="stroke:#181818;stroke-width:1.0;"/><path d="M2898.0938,425.6719 C2897.1563,425.2344 2896.5625,425.0938 2895.6875,425.0938 C2893.0625,425.0938 2891.0625,427.1719 2891.0625,429.8906 L2891.0625,431.0156 C2891.0625,433.5938 2893.1719,435.4844 2896.0625,435.4844 C2897.2813,435.4844 2898.4375,435.1875 2899.1875,434.6406 C2899.7656,434.2344 2900.0938,433.7813 2900.0938,433.3906 C2900.0938,432.9375 2899.7031,432.5469 2899.2344,432.5469 C2899.0156,432.5469 2898.8125,432.625 2898.625,432.8125 C2898.1719,433.2969 2898.1719,433.2969 2897.9844,433.3906 C2897.5625,433.6563 2896.875,433.7813 2896.1094,433.7813 C2894.0625,433.7813 2892.7656,432.6875 2892.7656,430.9844 L2892.7656,429.8906 C2892.7656,428.1094 2894.0156,426.7969 2895.75,426.7969 C2896.3281,426.7969 2896.9375,426.9531 2897.4063,427.2031 C2897.8906,427.4844 2898.0625,427.7031 2898.1563,428.1094 C2898.2188,428.5156 2898.25,428.6406 2898.3906,428.7656 C2898.5313,428.9063 2898.7656,429.0156 2898.9844,429.0156 C2899.25,429.0156 2899.5156,428.875 2899.6875,428.6563 C2899.7969,428.5 2899.8281,428.3125 2899.8281,427.8906 L2899.8281,426.4688 C2899.8281,426.0313 2899.8125,425.9063 2899.7188,425.75 C2899.5625,425.4844 2899.2813,425.3438 2898.9844,425.3438 C2898.6875,425.3438 2898.4844,425.4375 2898.2656,425.75 L2898.0938,425.6719 Z " fill="#000000"/><text fill="#000000" font-family="sans-serif" font-size="14" lengthAdjust="spacing" textLength="124" x="2916.25" y="434.8467">FlippedFMTagger</text><line style="stroke:#181818;stroke-width:0.5;" x1="2761.5" x2="3162.5" y1="446" y2="446"/><rect fill="none" height="6" style="stroke:#C82930;stroke-width:1.0;" width="6" x="2768.5" y="456.6484"/><text fill="#000000" font-family="sans-serif" font-size="14" lengthAdjust="spacing" textLength="96" x="2780.5" y="462.9951">int frequency</text><line style="stroke:#181818;stroke-width:0.5;" x1="2761.5" x2="3162.5" y1="470.2969" y2="470.2969"/><ellipse cx="2771.5" cy="483.9453" fill="#84BE84" rx="3" ry="3" style="stroke:#038048;stroke-width:1.0;"/><text fill="#000000" font-family="sans-serif" font-size="14" lengthAdjust="spacing" textLength="377" x="2780.5" y="487.292">FlippedFMTagger(audio, stimuli_intervals, frequency)</text><ellipse cx="2771.5" cy="500.2422" fill="#84BE84" rx="3" ry="3" style="stroke:#038048;stroke-width:1.0;"/><text fill="#000000" font-family="sans-serif" font-size="14" lengthAdjust="spacing" textLength="101" x="2780.5" y="503.5889">Audio create()</text></g><!--class AMTaggerFactory--><g id="elem_AMTaggerFactory"><rect codeLine="53" fill="#F1F1F1" height="129.4844" id="AMTaggerFactory" rx="2.5" ry="2.5" style="stroke:#181818;stroke-width:0.5;" width="456" x="1277" y="637"/><ellipse cx="1437.75" cy="653" fill="#ADD1B2" rx="11" ry="11" style="stroke:#181818;stroke-width:1.0;"/><path d="M1440.0938,648.6719 C1439.1563,648.2344 1438.5625,648.0938 1437.6875,648.0938 C1435.0625,648.0938 1433.0625,650.1719 1433.0625,652.8906 L1433.0625,654.0156 C1433.0625,656.5938 1435.1719,658.4844 1438.0625,658.4844 C1439.2813,658.4844 1440.4375,658.1875 1441.1875,657.6406 C1441.7656,657.2344 1442.0938,656.7813 1442.0938,656.3906 C1442.0938,655.9375 1441.7031,655.5469 1441.2344,655.5469 C1441.0156,655.5469 1440.8125,655.625 1440.625,655.8125 C1440.1719,656.2969 1440.1719,656.2969 1439.9844,656.3906 C1439.5625,656.6563 1438.875,656.7813 1438.1094,656.7813 C1436.0625,656.7813 1434.7656,655.6875 1434.7656,653.9844 L1434.7656,652.8906 C1434.7656,651.1094 1436.0156,649.7969 1437.75,649.7969 C1438.3281,649.7969 1438.9375,649.9531 1439.4063,650.2031 C1439.8906,650.4844 1440.0625,650.7031 1440.1563,651.1094 C1440.2188,651.5156 1440.25,651.6406 1440.3906,651.7656 C1440.5313,651.9063 1440.7656,652.0156 1440.9844,652.0156 C1441.25,652.0156 1441.5156,651.875 1441.6875,651.6563 C1441.7969,651.5 1441.8281,651.3125 1441.8281,650.8906 L1441.8281,649.4688 C1441.8281,649.0313 1441.8125,648.9063 1441.7188,648.75 C1441.5625,648.4844 1441.2813,648.3438 1440.9844,648.3438 C1440.6875,648.3438 1440.4844,648.4375 1440.2656,648.75 L1440.0938,648.6719 Z " fill="#000000"/><text fill="#000000" font-family="sans-serif" font-size="14" lengthAdjust="spacing" textLength="126" x="1458.25" y="657.8467">AMTaggerFactory</text><line style="stroke:#181818;stroke-width:0.5;" x1="1278" x2="1732" y1="669" y2="669"/><rect fill="none" height="6" style="stroke:#C82930;stroke-width:1.0;" width="6" x="1285" y="679.6484"/><text fill="#000000" font-family="sans-serif" font-size="14" lengthAdjust="spacing" textLength="96" x="1297" y="685.9951">int frequency</text><rect fill="none" height="6" style="stroke:#C82930;stroke-width:1.0;" width="6" x="1285" y="695.9453"/><text fill="#000000" font-family="sans-serif" font-size="14" lengthAdjust="spacing" textLength="371" x="1297" y="702.292">Callable[[int, int, int], NDArray[float]] tag_generator</text><line style="stroke:#181818;stroke-width:0.5;" x1="1278" x2="1732" y1="709.5938" y2="709.5938"/><rect fill="#F24D5C" height="6" style="stroke:#C82930;stroke-width:1.0;" width="6" x="1285" y="720.2422"/><text fill="#000000" font-family="sans-serif" font-size="14" lengthAdjust="spacing" textLength="193" x="1297" y="726.5889">(float, float) signal_interval</text><text fill="#000000" font-family="sans-serif" font-size="14" lengthAdjust="spacing" textLength="4" x="1297" y="742.8857">&#160;</text><ellipse cx="1288" cy="755.8359" fill="#84BE84" rx="3" ry="3" style="stroke:#038048;stroke-width:1.0;"/><text fill="#000000" font-family="sans-serif" font-size="14" lengthAdjust="spacing" textLength="430" x="1297" y="759.1826">AMTaggerFactory(frequency, tag_generator, signal_interval)</text></g><!--class FlippedFMTaggerFactory--><g id="elem_FlippedFMTaggerFactory"><rect codeLine="61" fill="#F1F1F1" height="80.5938" id="FlippedFMTaggerFactory" rx="2.5" ry="2.5" style="stroke:#181818;stroke-width:0.5;" width="286" x="2277" y="661"/><ellipse cx="2326.75" cy="677" fill="#ADD1B2" rx="11" ry="11" style="stroke:#181818;stroke-width:1.0;"/><path d="M2329.0938,672.6719 C2328.1563,672.2344 2327.5625,672.0938 2326.6875,672.0938 C2324.0625,672.0938 2322.0625,674.1719 2322.0625,676.8906 L2322.0625,678.0156 C2322.0625,680.5938 2324.1719,682.4844 2327.0625,682.4844 C2328.2813,682.4844 2329.4375,682.1875 2330.1875,681.6406 C2330.7656,681.2344 2331.0938,680.7813 2331.0938,680.3906 C2331.0938,679.9375 2330.7031,679.5469 2330.2344,679.5469 C2330.0156,679.5469 2329.8125,679.625 2329.625,679.8125 C2329.1719,680.2969 2329.1719,680.2969 2328.9844,680.3906 C2328.5625,680.6563 2327.875,680.7813 2327.1094,680.7813 C2325.0625,680.7813 2323.7656,679.6875 2323.7656,677.9844 L2323.7656,676.8906 C2323.7656,675.1094 2325.0156,673.7969 2326.75,673.7969 C2327.3281,673.7969 2327.9375,673.9531 2328.4063,674.2031 C2328.8906,674.4844 2329.0625,674.7031 2329.1563,675.1094 C2329.2188,675.5156 2329.25,675.6406 2329.3906,675.7656 C2329.5313,675.9063 2329.7656,676.0156 2329.9844,676.0156 C2330.25,676.0156 2330.5156,675.875 2330.6875,675.6563 C2330.7969,675.5 2330.8281,675.3125 2330.8281,674.8906 L2330.8281,673.4688 C2330.8281,673.0313 2330.8125,672.9063 2330.7188,672.75 C2330.5625,672.4844 2330.2813,672.3438 2329.9844,672.3438 C2329.6875,672.3438 2329.4844,672.4375 2329.2656,672.75 L2329.0938,672.6719 Z " fill="#000000"/><text fill="#000000" font-family="sans-serif" font-size="14" lengthAdjust="spacing" textLength="178" x="2347.25" y="681.8467">FlippedFMTaggerFactory</text><line style="stroke:#181818;stroke-width:0.5;" x1="2278" x2="2562" y1="693" y2="693"/><rect fill="none" height="6" style="stroke:#C82930;stroke-width:1.0;" width="6" x="2285" y="703.6484"/><text fill="#000000" font-family="sans-serif" font-size="14" lengthAdjust="spacing" textLength="96" x="2297" y="709.9951">int frequency</text><line style="stroke:#181818;stroke-width:0.5;" x1="2278" x2="2562" y1="717.2969" y2="717.2969"/><ellipse cx="2288" cy="730.9453" fill="#84BE84" rx="3" ry="3" style="stroke:#038048;stroke-width:1.0;"/><text fill="#000000" font-family="sans-serif" font-size="14" lengthAdjust="spacing" textLength="260" x="2297" y="734.292">FlippedFMTaggerFactory(frequency)</text></g><!--class FMTaggerFactory--><g id="elem_FMTaggerFactory"><rect codeLine="67" fill="#F1F1F1" height="80.5938" id="FMTaggerFactory" rx="2.5" ry="2.5" style="stroke:#181818;stroke-width:0.5;" width="232" x="1869" y="661"/><ellipse cx="1918.75" cy="677" fill="#ADD1B2" rx="11" ry="11" style="stroke:#181818;stroke-width:1.0;"/><path d="M1921.0938,672.6719 C1920.1563,672.2344 1919.5625,672.0938 1918.6875,672.0938 C1916.0625,672.0938 1914.0625,674.1719 1914.0625,676.8906 L1914.0625,678.0156 C1914.0625,680.5938 1916.1719,682.4844 1919.0625,682.4844 C1920.2813,682.4844 1921.4375,682.1875 1922.1875,681.6406 C1922.7656,681.2344 1923.0938,680.7813 1923.0938,680.3906 C1923.0938,679.9375 1922.7031,679.5469 1922.2344,679.5469 C1922.0156,679.5469 1921.8125,679.625 1921.625,679.8125 C1921.1719,680.2969 1921.1719,680.2969 1920.9844,680.3906 C1920.5625,680.6563 1919.875,680.7813 1919.1094,680.7813 C1917.0625,680.7813 1915.7656,679.6875 1915.7656,677.9844 L1915.7656,676.8906 C1915.7656,675.1094 1917.0156,673.7969 1918.75,673.7969 C1919.3281,673.7969 1919.9375,673.9531 1920.4063,674.2031 C1920.8906,674.4844 1921.0625,674.7031 1921.1563,675.1094 C1921.2188,675.5156 1921.25,675.6406 1921.3906,675.7656 C1921.5313,675.9063 1921.7656,676.0156 1921.9844,676.0156 C1922.25,676.0156 1922.5156,675.875 1922.6875,675.6563 C1922.7969,675.5 1922.8281,675.3125 1922.8281,674.8906 L1922.8281,673.4688 C1922.8281,673.0313 1922.8125,672.9063 1922.7188,672.75 C1922.5625,672.4844 1922.2813,672.3438 1921.9844,672.3438 C1921.6875,672.3438 1921.4844,672.4375 1921.2656,672.75 L1921.0938,672.6719 Z " fill="#000000"/><text fill="#000000" font-family="sans-serif" font-size="14" lengthAdjust="spacing" textLength="124" x="1939.25" y="681.8467">FMTaggerFactory</text><line style="stroke:#181818;stroke-width:0.5;" x1="1870" x2="2100" y1="693" y2="693"/><rect fill="none" height="6" style="stroke:#C82930;stroke-width:1.0;" width="6" x="1877" y="703.6484"/><text fill="#000000" font-family="sans-serif" font-size="14" lengthAdjust="spacing" textLength="96" x="1889" y="709.9951">int frequency</text><line style="stroke:#181818;stroke-width:0.5;" x1="1870" x2="2100" y1="717.2969" y2="717.2969"/><ellipse cx="1880" cy="730.9453" fill="#84BE84" rx="3" ry="3" style="stroke:#038048;stroke-width:1.0;"/><text fill="#000000" font-family="sans-serif" font-size="14" lengthAdjust="spacing" textLength="206" x="1889" y="734.292">FMTaggerFactory(frequency)</text></g><!--class Audio--><g id="elem_Audio"><rect codeLine="1" fill="#F1F1F1" height="80.5938" id="Audio" rx="2.5" ry="2.5" style="stroke:#181818;stroke-width:0.5;" width="194" x="1198" y="7"/><ellipse cx="1270.75" cy="23" fill="#ADD1B2" rx="11" ry="11" style="stroke:#181818;stroke-width:1.0;"/><path d="M1273.0938,18.6719 C1272.1563,18.2344 1271.5625,18.0938 1270.6875,18.0938 C1268.0625,18.0938 1266.0625,20.1719 1266.0625,22.8906 L1266.0625,24.0156 C1266.0625,26.5938 1268.1719,28.4844 1271.0625,28.4844 C1272.2813,28.4844 1273.4375,28.1875 1274.1875,27.6406 C1274.7656,27.2344 1275.0938,26.7813 1275.0938,26.3906 C1275.0938,25.9375 1274.7031,25.5469 1274.2344,25.5469 C1274.0156,25.5469 1273.8125,25.625 1273.625,25.8125 C1273.1719,26.2969 1273.1719,26.2969 1272.9844,26.3906 C1272.5625,26.6563 1271.875,26.7813 1271.1094,26.7813 C1269.0625,26.7813 1267.7656,25.6875 1267.7656,23.9844 L1267.7656,22.8906 C1267.7656,21.1094 1269.0156,19.7969 1270.75,19.7969 C1271.3281,19.7969 1271.9375,19.9531 1272.4063,20.2031 C1272.8906,20.4844 1273.0625,20.7031 1273.1563,21.1094 C1273.2188,21.5156 1273.25,21.6406 1273.3906,21.7656 C1273.5313,21.9063 1273.7656,22.0156 1273.9844,22.0156 C1274.25,22.0156 1274.5156,21.875 1274.6875,21.6563 C1274.7969,21.5 1274.8281,21.3125 1274.8281,20.8906 L1274.8281,19.4688 C1274.8281,19.0313 1274.8125,18.9063 1274.7188,18.75 C1274.5625,18.4844 1274.2813,18.3438 1273.9844,18.3438 C1273.6875,18.3438 1273.4844,18.4375 1273.2656,18.75 L1273.0938,18.6719 Z " fill="#000000"/><text fill="#000000" font-family="sans-serif" font-size="14" lengthAdjust="spacing" textLength="40" x="1291.25" y="27.8467">Audio</text><line style="stroke:#181818;stroke-width:0.5;" x1="1199" x2="1391" y1="39" y2="39"/><ellipse cx="1209" cy="52.6484" fill="none" rx="3" ry="3" style="stroke:#038048;stroke-width:1.0;"/><text fill="#000000" font-family="sans-serif" font-size="14" lengthAdjust="spacing" textLength="143" x="1218" y="55.9951">NDArray[float] array</text><ellipse cx="1209" cy="68.9453" fill="none" rx="3" ry="3" style="stroke:#038048;stroke-width:1.0;"/><text fill="#000000" font-family="sans-serif" font-size="14" lengthAdjust="spacing" textLength="168" x="1218" y="72.292">int sampling_frequency</text><line style="stroke:#181818;stroke-width:0.5;" x1="1199" x2="1391" y1="79.5938" y2="79.5938"/></g><!--link Audio to AAudioTagger--><g id="link_Audio_AAudioTagger"><path codeLine="14" d="M1295,88.187 C1295,116.747 1295,143.408 1295,173.673 " fill="none" id="Audio-to-AAudioTagger" style="stroke:#181818;stroke-width:1.0;"/><polygon fill="#181818" points="1295,185.673,1299,179.673,1295,173.673,1291,179.673,1295,185.673" style="stroke:#181818;stroke-width:1.0;"/><text fill="#000000" font-family="sans-serif" font-size="13" lengthAdjust="spacing" textLength="35" x="1296" y="131.0669">audio</text><text fill="#000000" font-family="sans-serif" font-size="13" lengthAdjust="spacing" textLength="8" x="1286.3875" y="107.6738">1</text><text fill="#000000" font-family="sans-serif" font-size="13" lengthAdjust="spacing" textLength="8" x="1286.4375" y="174.8359">1</text></g><!--reverse link AAudioTagger to ShiftSumTagger--><g id="link_AAudioTagger_ShiftSumTagger"><path codeLine="114" d="M1226.5946,294.9614 C1182.3446,333.4234 1133.98,375.467 1089.75,413.913 " fill="none" id="AAudioTagger-backto-ShiftSumTagger" style="stroke:#181818;stroke-width:1.0;"/><polygon fill="none" points="1240.18,283.153,1222.6585,290.4329,1230.5308,299.4898,1240.18,283.153" style="stroke:#181818;stroke-width:1.0;"/></g><!--reverse link AAudioTagger to RawTagger--><g id="link_AAudioTagger_RawTagger"><path codeLine="115" d="M1140.4996,250.0308 C1021.9796,263.1728 879.349,285.12 827,322 C789.568,348.371 766.909,397.96 755.422,430.352 " fill="none" id="AAudioTagger-backto-RawTagger" style="stroke:#181818;stroke-width:1.0;"/><polygon fill="none" points="1158.39,248.047,1139.8384,244.0673,1141.1609,255.9942,1158.39,248.047" style="stroke:#181818;stroke-width:1.0;"/></g><!--reverse link AAudioTagger to NoiseTaggingTagger--><g id="link_AAudioTagger_NoiseTaggingTagger"><path codeLine="116" d="M1140.4072,245.2776 C1011.3772,255.5866 831.335,276.288 665,322 C616.719,335.269 566.171,353.986 519.557,373.414 " fill="none" id="AAudioTagger-backto-NoiseTaggingTagger" style="stroke:#181818;stroke-width:1.0;"/><polygon fill="none" points="1158.35,243.844,1139.9293,239.2966,1140.885,251.2585,1158.35,243.844" style="stroke:#181818;stroke-width:1.0;"/></g><!--reverse link AAudioTagger to AMTagger--><g id="link_AAudioTagger_AMTagger"><path codeLine="117" d="M1363.4053,294.9615 C1401.6953,328.2435 1439.66,361.241 1481.51,397.616 " fill="none" id="AAudioTagger-backto-AMTagger" style="stroke:#181818;stroke-width:1.0;"/><polygon fill="none" points="1349.82,283.153,1359.4691,299.4899,1367.3415,290.433,1349.82,283.153" style="stroke:#181818;stroke-width:1.0;"/></g><!--reverse link AAudioTagger to FMTagger--><g id="link_AAudioTagger_FMTagger"><path codeLine="118" d="M1449.5346,252.121 C1566.1446,265.958 1719.92,287.685 1867,322 C1918.49,334.013 1972.66,349.151 2024.68,364.991 " fill="none" id="AAudioTagger-backto-FMTagger" style="stroke:#181818;stroke-width:1.0;"/><polygon fill="none" points="1431.66,250,1448.8276,258.0792,1450.2416,246.1628,1431.66,250" style="stroke:#181818;stroke-width:1.0;"/></g><!--reverse link AAudioTagger to FlippedFMTagger--><g id="link_AAudioTagger_FlippedFMTagger"><path codeLine="119" d="M1449.7,234.965 C1762.08,235.122 2501.78,243.821 2743,322 C2803.25,341.527 2863.33,381.64 2905.28,413.86 " fill="none" id="AAudioTagger-backto-FlippedFMTagger" style="stroke:#181818;stroke-width:1.0;"/><polygon fill="none" points="1431.7,234.956,1449.7,240.956,1449.7,228.956,1431.7,234.956" style="stroke:#181818;stroke-width:1.0;"/></g><!--link ShiftSumTaggerFactory to AAudioTaggerFactory--><g id="link_ShiftSumTaggerFactory_AAudioTaggerFactory"><path codeLine="121" d="M1133.22,742.041 C1169.41,768.922 1202.1507,793.252 1235.6607,818.1458 " fill="none" id="ShiftSumTaggerFactory-to-AAudioTaggerFactory" style="stroke:#181818;stroke-width:1.0;"/><polygon fill="none" points="1250.11,828.8798,1239.2388,813.3294,1232.0827,822.9622,1250.11,828.8798" style="stroke:#181818;stroke-width:1.0;"/></g><!--link AMTaggerFactory to AAudioTaggerFactory--><g id="link_AMTaggerFactory_AAudioTaggerFactory"><path codeLine="122" d="M1418.98,766.107 C1389.77,787.707 1372.8932,800.1853 1348.6532,818.1086 " fill="none" id="AMTaggerFactory-to-AAudioTaggerFactory" style="stroke:#181818;stroke-width:1.0;"/><polygon fill="none" points="1334.18,828.8103,1352.2205,822.9331,1345.086,813.2842,1334.18,828.8103" style="stroke:#181818;stroke-width:1.0;"/></g><!--link FMTaggerFactory to AAudioTaggerFactory--><g id="link_FMTaggerFactory_AAudioTaggerFactory"><path codeLine="123" d="M1892.77,742.017 C1850.26,758.916 1798.75,777.575 1751,790 C1689.18,806.089 1639.4204,816.1208 1575.6404,826.1763 " fill="none" id="FMTaggerFactory-to-AAudioTaggerFactory" style="stroke:#181818;stroke-width:1.0;"/><polygon fill="none" points="1557.86,828.9795,1576.5748,832.1031,1574.706,820.2495,1557.86,828.9795" style="stroke:#181818;stroke-width:1.0;"/></g><!--link FlippedFMTaggerFactory to AAudioTaggerFactory--><g id="link_FlippedFMTaggerFactory_AAudioTaggerFactory"><path codeLine="124" d="M2304.08,742.04 C2248.69,759.424 2181.07,778.47 2119,790 C1957.15,820.067 1793.0027,836.0811 1640.9627,845.8795 " fill="none" id="FlippedFMTaggerFactory-to-AAudioTaggerFactory" style="stroke:#181818;stroke-width:1.0;"/><polygon fill="none" points="1623,847.0371,1641.3486,851.867,1640.5769,839.8919,1623,847.0371" style="stroke:#181818;stroke-width:1.0;"/></g><!--link NoiseTaggingTaggerFactory to AAudioTaggerFactory--><g id="link_NoiseTaggingTaggerFactory_AAudioTaggerFactory"><path codeLine="125" d="M588.848,758.021 C629.152,769.941 672.335,781.494 713,790 C792.658,806.662 861.5085,817.541 942.9935,827.6728 " fill="none" id="NoiseTaggingTaggerFactory-to-AAudioTaggerFactory" style="stroke:#181818;stroke-width:1.0;"/><polygon fill="none" points="960.856,829.8938,943.7339,821.7186,942.2532,833.6269,960.856,829.8938" style="stroke:#181818;stroke-width:1.0;"/></g><!--link RawTaggerFactory to AAudioTaggerFactory--><g id="link_RawTaggerFactory_AAudioTaggerFactory"><path codeLine="126" d="M836.909,725.576 C859.195,745.741 894.279,774.195 930,790 C967.464,806.577 991.3016,815.104 1032.2616,824.7744 " fill="none" id="RawTaggerFactory-to-AAudioTaggerFactory" style="stroke:#181818;stroke-width:1.0;"/><polygon fill="none" points="1049.78,828.9104,1033.6403,818.935,1030.883,830.6139,1049.78,828.9104" style="stroke:#181818;stroke-width:1.0;"/></g><!--reverse link ShiftSumTagger to ShiftSumTaggerFactory--><g id="link_ShiftSumTagger_ShiftSumTaggerFactory"><path codeLine="128" d="M1045.1691,517.0697 C1053.5091,561.0007 1064.63,619.55 1072.46,660.763 " fill="none" id="ShiftSumTagger-backto-ShiftSumTaggerFactory" style="stroke:#181818;stroke-width:1.0;stroke-dasharray:7.0,7.0;"/><polygon fill="#181818" points="1044.05,511.175,1041.7988,520.7631,1044.9826,516.0873,1049.6584,519.271,1044.05,511.175" style="stroke:#181818;stroke-width:1.0;"/><text fill="#000000" font-family="sans-serif" font-size="13" lengthAdjust="spacing" textLength="48" x="1063" y="603.0669">creates</text></g><!--reverse link AMTagger to AMTaggerFactory--><g id="link_AMTagger_AMTaggerFactory"><path codeLine="129" d="M1540.3621,532.8829 C1533.1921,566.8869 1525.62,602.782 1518.44,636.813 " fill="none" id="AMTagger-backto-AMTaggerFactory" style="stroke:#181818;stroke-width:1.0;stroke-dasharray:7.0,7.0;"/><polygon fill="#181818" points="1541.6,527.012,1535.8292,534.9931,1540.5684,531.9044,1543.6571,536.6436,1541.6,527.012" style="stroke:#181818;stroke-width:1.0;"/><text fill="#000000" font-family="sans-serif" font-size="13" lengthAdjust="spacing" textLength="48" x="1528" y="603.0669">creates</text></g><!--reverse link FMTagger to FMTaggerFactory--><g id="link_FMTagger_FMTaggerFactory"><path codeLine="130" d="M2169.5586,563.8102 C2122.0386,599.0082 2075.75,633.288 2038.62,660.788 " fill="none" id="FMTagger-backto-FMTaggerFactory" style="stroke:#181818;stroke-width:1.0;stroke-dasharray:7.0,7.0;"/><polygon fill="#181818" points="2174.38,560.239,2164.767,562.3816,2170.3621,563.215,2169.5287,568.8101,2174.38,560.239" style="stroke:#181818;stroke-width:1.0;"/><text fill="#000000" font-family="sans-serif" font-size="13" lengthAdjust="spacing" textLength="48" x="2126" y="603.0669">creates</text></g><!--reverse link FlippedFMTagger to FlippedFMTaggerFactory--><g id="link_FlippedFMTagger_FlippedFMTaggerFactory"><path codeLine="131" d="M2848.7801,513.5099 C2813.3601,529.1289 2779.25,544.128 2743,560 C2664.85,594.213 2575.96,632.859 2511.24,660.948 " fill="none" id="FlippedFMTagger-backto-FlippedFMTaggerFactory" style="stroke:#181818;stroke-width:1.0;stroke-dasharray:7.0,7.0;"/><polygon fill="#181818" points="2854.27,511.089,2844.4212,511.0604,2849.6951,513.1064,2847.649,518.3803,2854.27,511.089" style="stroke:#181818;stroke-width:1.0;"/><text fill="#000000" font-family="sans-serif" font-size="13" lengthAdjust="spacing" textLength="48" x="2673" y="603.0669">creates</text></g><!--reverse link NoiseTaggingTagger to NoiseTaggingTaggerFactory--><g id="link_NoiseTaggingTagger_NoiseTaggingTaggerFactory"><path codeLine="132" d="M369.4635,557.3825 C380.9125,588.5735 391.395,617.128 401.573,644.854 " fill="none" id="NoiseTaggingTagger-backto-NoiseTaggingTaggerFactory" style="stroke:#181818;stroke-width:1.0;stroke-dasharray:7.0,7.0;"/><polygon fill="#181818" points="367.396,551.75,366.7422,561.5771,369.1189,556.4438,374.2523,558.8205,367.396,551.75" style="stroke:#181818;stroke-width:1.0;"/><text fill="#000000" font-family="sans-serif" font-size="13" lengthAdjust="spacing" textLength="48" x="388" y="603.0669">creates</text></g><!--reverse link RawTagger to RawTaggerFactory--><g id="link_RawTagger_RawTaggerFactory"><path codeLine="133" d="M756.5292,500.7457 C770.1982,549.0967 794.414,634.757 806.484,677.452 " fill="none" id="RawTagger-backto-RawTaggerFactory" style="stroke:#181818;stroke-width:1.0;stroke-dasharray:7.0,7.0;"/><polygon fill="#181818" points="754.897,494.972,753.4962,504.7207,756.2572,499.7834,761.1945,502.5444,754.897,494.972" style="stroke:#181818;stroke-width:1.0;"/><text fill="#000000" font-family="sans-serif" font-size="13" lengthAdjust="spacing" textLength="48" x="787" y="603.0669">creates</text></g><!--SRC=[hLPDRzim3BtxLmZPnLdi0jjkHYz5Xvos3cXoAm91iHL7c69dbjmFTFdlqqTaIuhikiMA8aZ4HpxoaQQLKyGOk6aBKeFN28Y_nTttcwP1BmyxMYE-0KZ-q1PISS3GuKX9LS9TW_-qkCfVebCK7L7-6vKO8168ryqBvAWi1UeS4sqPRr3EGQxf5DzQG71pHW3mYHB67u2cJS2PVGCO9uUM4YZ8SVE8A8lE3WiLHhBfIB4ahnFZCEzWkZYJmmda3KOSnnfmqk6Sb6PVPk1psgRgYp9agh8wYjugPocEHKPTLGktLZy9gC8gjKm1cMPCBWlFm0yfqRezKkpAv9JIzOAnvXovImUOb7-kVGC0gUnltrRBS8ieHLl1-Y0W2J0VcmHumoBeO8aht22XWXt1QoiZPOLeLrfaGHStgzLziAEz4acVPk9o9dxekHDQZOBJVqkuNfxb- -HHHO53NRGKSL9NSAUcmAdAX9nMqqMiAMM8J6BJZtkCgDKUzNCENXaNGVCJmCzg3A5wc7bRO0QFUyGmYwlsiCMDc3NZUbiB37xUE3o-iOzSOWvpVGfrhBWdoO2NdoRrZeDCodB6GruBtGHZ9VvntR9k6H5HmNjZ3aQID6TL1Z4N5Ur8mxXsou0y2pAhYVdsTMCQZMCzjXdm4VDeP4mfEHvnCMLQdL5qtQPCvDZu3UTdjeo_5F_FiXdPDh6zRURZsyRDCVx0OdchBnFA7sdFHM8JzjPx6QTGMOIQxAuc3A_rUzuRmFJNKUukH6KBnRR7k8YiBBQ4moTIyBrzI75LyZqKDlFgx8BSrWNUW5nyTk_-I_AHCHOnnNx33MGuhwiYqpFL4oOgG-_2uAtNzB4c1O1c832KwGIiN1jqSCKqdoATtp6Zavttg5eXoOV5Cfts68P4SPA_HqzUkqEAXLtSCXtCQazsVDKU_55IbqvfWzjkQXSkUAJrndC-DLKtSh0jNJR1P8oqBlD9tfATk-3rtpJrs0A0Jhc0xRAj0P3PRm7JSiJaxY0tTIEAGBPfMB0HlBTmHv3BwSZWoXnn67mYHdpy8OuYRsIlhwx2QcHWfWUEpQBkvYtHdXOsRcdZbYCuxmwWu44vRA_0xfQEWxBOlltpBrryLIpaFm00]--></g></svg>