<?xml version="1.0" encoding="us-ascii" standalone="no"?><svg xmlns="http://www.w3.org/2000/svg" xmlns:xlink="http://www.w3.org/1999/xlink" contentStyleType="text/css" height="407px" preserveAspectRatio="none" style="width:3219px;height:407px;background:#FFFFFF;" version="1.1" viewBox="0 0 3219 407" width="3219px" zoomAndPan="magnify"><defs/><g><!--cluster auditory_tagging--><g id="cluster_auditory_tagging"><path d="M8.5,6 L148.5,6 A3.75,3.75 0 0 1 151,8.5 L158,28.2969 L3209.5,28.2969 A2.5,2.5 0 0 1 3212,30.7969 L3212,397.5 A2.5,2.5 0 0 1 3209.5,400 L8.5,400 A2.5,2.5 0 0 1 6,397.5 L6,8.5 A2.5,2.5 0 0 1 8.5,6 " fill="none" style="stroke:#000000;stroke-width:1.5;"/><line style="stroke:#000000;stroke-width:1.5;" x1="6" x2="158" y1="28.2969" y2="28.2969"/><text fill="#000000" font-family="sans-serif" font-size="14" font-weight="bold" lengthAdjust="spacing" textLength="139" x="10" y="20.9951">auditory_tagging</text></g><!--cluster assr_tagger--><g id="cluster_assr_tagger"><path d="M690.5,147 L787.5,147 A3.75,3.75 0 0 1 790,149.5 L797,169.2969 L2397.5,169.2969 A2.5,2.5 0 0 1 2400,171.7969 L2400,373.5 A2.5,2.5 0 0 1 2397.5,376 L690.5,376 A2.5,2.5 0 0 1 688,373.5 L688,149.5 A2.5,2.5 0 0 1 690.5,147 " fill="none" style="stroke:#000000;stroke-width:1.5;"/><line style="stroke:#000000;stroke-width:1.5;" x1="688" x2="797" y1="169.2969" y2="169.2969"/><text fill="#000000" font-family="sans-serif" font-size="14" font-weight="bold" lengthAdjust="spacing" textLength="96" x="692" y="161.9951">assr_tagger</text></g><!--cluster shift_taggers--><g id="cluster_shift_taggers"><path d="M2426.5,195.5 L2536.5,195.5 A3.75,3.75 0 0 1 2539,198 L2546,217.7969 L3185.5,217.7969 A2.5,2.5 0 0 1 3188,220.2969 L3188,325 A2.5,2.5 0 0 1 3185.5,327.5 L2426.5,327.5 A2.5,2.5 0 0 1 2424,325 L2424,198 A2.5,2.5 0 0 1 2426.5,195.5 " fill="none" style="stroke:#000000;stroke-width:1.5;"/><line style="stroke:#000000;stroke-width:1.5;" x1="2424" x2="2546" y1="217.7969" y2="217.7969"/><text fill="#000000" font-family="sans-serif" font-size="14" font-weight="bold" lengthAdjust="spacing" textLength="109" x="2428" y="210.4951">shift_taggers</text></g><!--class AAudioTagger--><g id="elem_AAudioTagger"><rect codeLine="2" fill="#F1F1F1" height="80.5938" id="AAudioTagger" rx="2.5" ry="2.5" style="stroke:#181818;stroke-width:0.5;" width="539" x="1543.5" y="41"/><ellipse cx="1757.75" cy="57" fill="#A9DCDF" rx="11" ry="11" style="stroke:#181818;stroke-width:1.0;"/><path d="M1759.8281,58.8125 L1760.2188,59.7969 L1759.8281,59.7969 C1759.375,59.7969 1759.2656,59.8125 1759.1094,59.9219 C1758.8594,60.0781 1758.7031,60.3594 1758.7031,60.6563 C1758.7031,60.9219 1758.8438,61.1719 1759.0625,61.3281 C1759.2031,61.4531 1759.4063,61.5 1759.8281,61.5 L1762.1875,61.5 C1762.5469,61.5 1762.7656,61.4688 1762.9063,61.375 C1763.1563,61.2344 1763.3125,60.9375 1763.3125,60.6563 C1763.3125,60.375 1763.1719,60.125 1762.9531,59.9688 C1762.7813,59.8281 1762.625,59.7969 1762.1563,59.7969 L1758.7656,51.5938 L1755.0938,51.5938 C1754.6406,51.5938 1754.5156,51.6094 1754.3594,51.7031 C1754.1094,51.875 1753.9531,52.1563 1753.9531,52.4375 C1753.9531,52.7188 1754.0938,52.9688 1754.3125,53.1406 C1754.4844,53.25 1754.6563,53.2813 1755.0938,53.2813 L1756.1719,53.2813 L1753.5313,59.7969 C1753.1094,59.7969 1752.9531,59.8125 1752.7969,59.9219 C1752.5469,60.0781 1752.3906,60.3594 1752.3906,60.6563 C1752.3906,61.2188 1752.7656,61.5 1753.5156,61.5 L1755.7813,61.5 C1756.1406,61.5 1756.3594,61.4688 1756.4844,61.375 C1756.75,61.2344 1756.8906,60.9375 1756.8906,60.6563 C1756.8906,60.375 1756.7656,60.125 1756.5469,59.9531 C1756.375,59.8281 1756.2344,59.7969 1755.7813,59.7969 L1755.3906,59.7969 L1755.7813,58.8125 L1759.8281,58.8125 Z M1759.125,57.1094 L1756.4531,57.1094 L1757.7969,53.8438 L1759.125,57.1094 Z " fill="#000000"/><text fill="#000000" font-family="sans-serif" font-size="14" font-style="italic" lengthAdjust="spacing" textLength="102" x="1778.25" y="61.8467">AAudioTagger</text><line style="stroke:#181818;stroke-width:0.5;" x1="1544.5" x2="2081.5" y1="73" y2="73"/><line style="stroke:#181818;stroke-width:0.5;" x1="1544.5" x2="2081.5" y1="81" y2="81"/><polygon fill="#FFFF44" points="1554.5,89.6484,1558.5,93.6484,1554.5,97.6484,1550.5,93.6484" style="stroke:#B38D22;stroke-width:1.0;"/><text fill="#000000" font-family="sans-serif" font-size="14" font-style="italic" lengthAdjust="spacing" textLength="513" x="1563.5" y="97.9951">NDArray[float] modify_chunk(audio_array_chunk: NDArray[float], fs: int))</text><ellipse cx="1554.5" cy="110.9453" fill="#84BE84" rx="3" ry="3" style="stroke:#038048;stroke-width:1.0;"/><text fill="#000000" font-family="sans-serif" font-size="14" lengthAdjust="spacing" textLength="195" x="1563.5" y="114.292">Audio create(audio, stimuli)</text></g><!--class NoiseTaggingTagger--><g id="elem_NoiseTaggingTagger"><rect codeLine="37" fill="#F1F1F1" height="178.375" id="NoiseTaggingTagger" rx="2.5" ry="2.5" style="stroke:#181818;stroke-width:0.5;" width="500" x="22" y="182"/><ellipse cx="194.75" cy="198" fill="#ADD1B2" rx="11" ry="11" style="stroke:#181818;stroke-width:1.0;"/><path d="M197.0938,193.6719 C196.1563,193.2344 195.5625,193.0938 194.6875,193.0938 C192.0625,193.0938 190.0625,195.1719 190.0625,197.8906 L190.0625,199.0156 C190.0625,201.5938 192.1719,203.4844 195.0625,203.4844 C196.2813,203.4844 197.4375,203.1875 198.1875,202.6406 C198.7656,202.2344 199.0938,201.7813 199.0938,201.3906 C199.0938,200.9375 198.7031,200.5469 198.2344,200.5469 C198.0156,200.5469 197.8125,200.625 197.625,200.8125 C197.1719,201.2969 197.1719,201.2969 196.9844,201.3906 C196.5625,201.6563 195.875,201.7813 195.1094,201.7813 C193.0625,201.7813 191.7656,200.6875 191.7656,198.9844 L191.7656,197.8906 C191.7656,196.1094 193.0156,194.7969 194.75,194.7969 C195.3281,194.7969 195.9375,194.9531 196.4063,195.2031 C196.8906,195.4844 197.0625,195.7031 197.1563,196.1094 C197.2188,196.5156 197.25,196.6406 197.3906,196.7656 C197.5313,196.9063 197.7656,197.0156 197.9844,197.0156 C198.25,197.0156 198.5156,196.875 198.6875,196.6563 C198.7969,196.5 198.8281,196.3125 198.8281,195.8906 L198.8281,194.4688 C198.8281,194.0313 198.8125,193.9063 198.7188,193.75 C198.5625,193.4844 198.2813,193.3438 197.9844,193.3438 C197.6875,193.3438 197.4844,193.4375 197.2656,193.75 L197.0938,193.6719 Z " fill="#000000"/><text fill="#000000" font-family="sans-serif" font-size="14" lengthAdjust="spacing" textLength="146" x="215.25" y="202.8467">NoiseTaggingTagger</text><line style="stroke:#181818;stroke-width:0.5;" x1="23" x2="521" y1="214" y2="214"/><rect fill="none" height="6" style="stroke:#C82930;stroke-width:1.0;" width="6" x="30" y="224.6484"/><text fill="#000000" font-family="sans-serif" font-size="14" lengthAdjust="spacing" textLength="130" x="42" y="230.9951">Optional[int] seed</text><rect fill="none" height="6" style="stroke:#C82930;stroke-width:1.0;" width="6" x="30" y="240.9453"/><text fill="#000000" font-family="sans-serif" font-size="14" lengthAdjust="spacing" textLength="110" x="42" y="247.292">int specified_fs</text><rect fill="none" height="6" style="stroke:#C82930;stroke-width:1.0;" width="6" x="30" y="257.2422"/><text fill="#000000" font-family="sans-serif" font-size="14" lengthAdjust="spacing" textLength="92" x="42" y="263.5889">int bit_width</text><rect fill="none" height="6" style="stroke:#C82930;stroke-width:1.0;" width="6" x="30" y="273.5391"/><text fill="#000000" font-family="sans-serif" font-size="14" lengthAdjust="spacing" textLength="99" x="42" y="279.8857">int length_bit</text><ellipse cx="33" cy="292.8359" fill="none" rx="3" ry="3" style="stroke:#038048;stroke-width:1.0;"/><text fill="#000000" font-family="sans-serif" font-size="14" lengthAdjust="spacing" textLength="148" x="42" y="296.1826">Optional[Code] code</text><line style="stroke:#181818;stroke-width:0.5;" x1="23" x2="521" y1="303.4844" y2="303.4844"/><ellipse cx="33" cy="317.1328" fill="#84BE84" rx="3" ry="3" style="stroke:#038048;stroke-width:1.0;"/><text fill="#000000" font-family="sans-serif" font-size="14" lengthAdjust="spacing" textLength="474" x="42" y="320.4795">NoiseTaggingTagger(fs:int, bits_per_second: int, length_bit, seed)</text><rect fill="#F24D5C" height="6" style="stroke:#C82930;stroke-width:1.0;" width="6" x="30" y="330.4297"/><text fill="#000000" font-family="sans-serif" font-size="14" lengthAdjust="spacing" textLength="166" x="42" y="336.7764">void __generate_code()</text><rect fill="#F24D5C" height="6" style="stroke:#C82930;stroke-width:1.0;" width="6" x="30" y="346.7266"/><text fill="#000000" font-family="sans-serif" font-size="14" lengthAdjust="spacing" textLength="201" x="42" y="353.0732">void __get_code(length: int)</text></g><!--class RawTagger--><g id="elem_RawTagger"><rect codeLine="49" fill="#F1F1F1" height="48" id="RawTagger" rx="2.5" ry="2.5" style="stroke:#181818;stroke-width:0.5;" width="111" x="557.5" y="247"/><ellipse cx="572.5" cy="263" fill="#ADD1B2" rx="11" ry="11" style="stroke:#181818;stroke-width:1.0;"/><path d="M574.8438,258.6719 C573.9063,258.2344 573.3125,258.0938 572.4375,258.0938 C569.8125,258.0938 567.8125,260.1719 567.8125,262.8906 L567.8125,264.0156 C567.8125,266.5938 569.9219,268.4844 572.8125,268.4844 C574.0313,268.4844 575.1875,268.1875 575.9375,267.6406 C576.5156,267.2344 576.8438,266.7813 576.8438,266.3906 C576.8438,265.9375 576.4531,265.5469 575.9844,265.5469 C575.7656,265.5469 575.5625,265.625 575.375,265.8125 C574.9219,266.2969 574.9219,266.2969 574.7344,266.3906 C574.3125,266.6563 573.625,266.7813 572.8594,266.7813 C570.8125,266.7813 569.5156,265.6875 569.5156,263.9844 L569.5156,262.8906 C569.5156,261.1094 570.7656,259.7969 572.5,259.7969 C573.0781,259.7969 573.6875,259.9531 574.1563,260.2031 C574.6406,260.4844 574.8125,260.7031 574.9063,261.1094 C574.9688,261.5156 575,261.6406 575.1406,261.7656 C575.2813,261.9063 575.5156,262.0156 575.7344,262.0156 C576,262.0156 576.2656,261.875 576.4375,261.6563 C576.5469,261.5 576.5781,261.3125 576.5781,260.8906 L576.5781,259.4688 C576.5781,259.0313 576.5625,258.9063 576.4688,258.75 C576.3125,258.4844 576.0313,258.3438 575.7344,258.3438 C575.4375,258.3438 575.2344,258.4375 575.0156,258.75 L574.8438,258.6719 Z " fill="#000000"/><text fill="#000000" font-family="sans-serif" font-size="14" lengthAdjust="spacing" textLength="79" x="586.5" y="267.8467">RawTagger</text><line style="stroke:#181818;stroke-width:0.5;" x1="558.5" x2="667.5" y1="279" y2="279"/><line style="stroke:#181818;stroke-width:0.5;" x1="558.5" x2="667.5" y1="287" y2="287"/></g><!--class AMTagger--><g id="elem_AMTagger"><rect codeLine="9" fill="#F1F1F1" height="113.1875" id="AMTagger" rx="2.5" ry="2.5" style="stroke:#181818;stroke-width:0.5;" width="418" x="1966" y="214.5"/><ellipse cx="2134.75" cy="230.5" fill="#ADD1B2" rx="11" ry="11" style="stroke:#181818;stroke-width:1.0;"/><path d="M2137.0938,226.1719 C2136.1563,225.7344 2135.5625,225.5938 2134.6875,225.5938 C2132.0625,225.5938 2130.0625,227.6719 2130.0625,230.3906 L2130.0625,231.5156 C2130.0625,234.0938 2132.1719,235.9844 2135.0625,235.9844 C2136.2813,235.9844 2137.4375,235.6875 2138.1875,235.1406 C2138.7656,234.7344 2139.0938,234.2813 2139.0938,233.8906 C2139.0938,233.4375 2138.7031,233.0469 2138.2344,233.0469 C2138.0156,233.0469 2137.8125,233.125 2137.625,233.3125 C2137.1719,233.7969 2137.1719,233.7969 2136.9844,233.8906 C2136.5625,234.1563 2135.875,234.2813 2135.1094,234.2813 C2133.0625,234.2813 2131.7656,233.1875 2131.7656,231.4844 L2131.7656,230.3906 C2131.7656,228.6094 2133.0156,227.2969 2134.75,227.2969 C2135.3281,227.2969 2135.9375,227.4531 2136.4063,227.7031 C2136.8906,227.9844 2137.0625,228.2031 2137.1563,228.6094 C2137.2188,229.0156 2137.25,229.1406 2137.3906,229.2656 C2137.5313,229.4063 2137.7656,229.5156 2137.9844,229.5156 C2138.25,229.5156 2138.5156,229.375 2138.6875,229.1563 C2138.7969,229 2138.8281,228.8125 2138.8281,228.3906 L2138.8281,226.9688 C2138.8281,226.5313 2138.8125,226.4063 2138.7188,226.25 C2138.5625,225.9844 2138.2813,225.8438 2137.9844,225.8438 C2137.6875,225.8438 2137.4844,225.9375 2137.2656,226.25 L2137.0938,226.1719 Z " fill="#000000"/><text fill="#000000" font-family="sans-serif" font-size="14" lengthAdjust="spacing" textLength="72" x="2155.25" y="235.3467">AMTagger</text><line style="stroke:#181818;stroke-width:0.5;" x1="1967" x2="2383" y1="246.5" y2="246.5"/><rect fill="none" height="6" style="stroke:#C82930;stroke-width:1.0;" width="6" x="1974" y="257.1484"/><text fill="#000000" font-family="sans-serif" font-size="14" lengthAdjust="spacing" textLength="96" x="1986" y="263.4951">int frequency</text><rect fill="none" height="6" style="stroke:#C82930;stroke-width:1.0;" width="6" x="1974" y="273.4453"/><text fill="#000000" font-family="sans-serif" font-size="14" lengthAdjust="spacing" textLength="366" x="1986" y="279.792">Callable[[int, int, int], NDArray[float] tag_generator</text><rect fill="none" height="6" style="stroke:#C82930;stroke-width:1.0;" width="6" x="1974" y="289.7422"/><text fill="#000000" font-family="sans-serif" font-size="14" lengthAdjust="spacing" textLength="193" x="1986" y="296.0889">[float, float] signal_interval</text><line style="stroke:#181818;stroke-width:0.5;" x1="1967" x2="2383" y1="303.3906" y2="303.3906"/><ellipse cx="1977" cy="317.0391" fill="#84BE84" rx="3" ry="3" style="stroke:#038048;stroke-width:1.0;"/><text fill="#000000" font-family="sans-serif" font-size="14" lengthAdjust="spacing" textLength="392" x="1986" y="320.3857">ASSRTagger(frequency, tag_generator, signal_interval)</text></g><!--class FMTagger--><g id="elem_FMTagger"><rect codeLine="17" fill="#F1F1F1" height="178.375" id="FMTagger" rx="2.5" ry="2.5" style="stroke:#181818;stroke-width:0.5;" width="960" x="971" y="182"/><ellipse cx="1411.75" cy="198" fill="#ADD1B2" rx="11" ry="11" style="stroke:#181818;stroke-width:1.0;"/><path d="M1414.0938,193.6719 C1413.1563,193.2344 1412.5625,193.0938 1411.6875,193.0938 C1409.0625,193.0938 1407.0625,195.1719 1407.0625,197.8906 L1407.0625,199.0156 C1407.0625,201.5938 1409.1719,203.4844 1412.0625,203.4844 C1413.2813,203.4844 1414.4375,203.1875 1415.1875,202.6406 C1415.7656,202.2344 1416.0938,201.7813 1416.0938,201.3906 C1416.0938,200.9375 1415.7031,200.5469 1415.2344,200.5469 C1415.0156,200.5469 1414.8125,200.625 1414.625,200.8125 C1414.1719,201.2969 1414.1719,201.2969 1413.9844,201.3906 C1413.5625,201.6563 1412.875,201.7813 1412.1094,201.7813 C1410.0625,201.7813 1408.7656,200.6875 1408.7656,198.9844 L1408.7656,197.8906 C1408.7656,196.1094 1410.0156,194.7969 1411.75,194.7969 C1412.3281,194.7969 1412.9375,194.9531 1413.4063,195.2031 C1413.8906,195.4844 1414.0625,195.7031 1414.1563,196.1094 C1414.2188,196.5156 1414.25,196.6406 1414.3906,196.7656 C1414.5313,196.9063 1414.7656,197.0156 1414.9844,197.0156 C1415.25,197.0156 1415.5156,196.875 1415.6875,196.6563 C1415.7969,196.5 1415.8281,196.3125 1415.8281,195.8906 L1415.8281,194.4688 C1415.8281,194.0313 1415.8125,193.9063 1415.7188,193.75 C1415.5625,193.4844 1415.2813,193.3438 1414.9844,193.3438 C1414.6875,193.3438 1414.4844,193.4375 1414.2656,193.75 L1414.0938,193.6719 Z " fill="#000000"/><text fill="#000000" font-family="sans-serif" font-size="14" lengthAdjust="spacing" textLength="70" x="1432.25" y="202.8467">FMTagger</text><line style="stroke:#181818;stroke-width:0.5;" x1="972" x2="1930" y1="214" y2="214"/><rect fill="none" height="6" style="stroke:#C82930;stroke-width:1.0;" width="6" x="979" y="224.6484"/><text fill="#000000" font-family="sans-serif" font-size="14" lengthAdjust="spacing" textLength="96" x="991" y="230.9951">int frequency</text><rect fill="none" height="6" style="stroke:#C82930;stroke-width:1.0;" width="6" x="979" y="240.9453"/><text fill="#000000" font-family="sans-serif" font-size="14" lengthAdjust="spacing" textLength="170" x="991" y="247.292">float modulation_factor</text><line style="stroke:#181818;stroke-width:0.5;" x1="972" x2="1930" y1="254.5938" y2="254.5938"/><ellipse cx="982" cy="268.2422" fill="#84BE84" rx="3" ry="3" style="stroke:#038048;stroke-width:1.0;"/><text fill="#000000" font-family="sans-serif" font-size="14" lengthAdjust="spacing" textLength="292" x="991" y="271.5889">FMTagger(frequency, modulation_factor)</text><rect fill="#F24D5C" height="6" style="stroke:#C82930;stroke-width:1.0;" width="6" x="979" y="281.5391"/><text fill="#000000" font-family="sans-serif" font-size="14" lengthAdjust="spacing" text-decoration="underline" textLength="634" x="991" y="287.8857">(NDArray[Real], NDArray[Real]) extract_amplitudes_phases(numbers: NDArray[Complex])</text><rect fill="#F24D5C" height="6" style="stroke:#C82930;stroke-width:1.0;" width="6" x="979" y="297.8359"/><text fill="#000000" font-family="sans-serif" font-size="14" lengthAdjust="spacing" text-decoration="underline" textLength="660" x="991" y="304.1826">NDArray[Complex] get_complex_number(amplitudes: NDArray[Real], phases: NDArray[Real])</text><rect fill="#F24D5C" height="6" style="stroke:#C82930;stroke-width:1.0;" width="6" x="979" y="314.1328"/><text fill="#000000" font-family="sans-serif" font-size="14" lengthAdjust="spacing" textLength="595" x="991" y="320.4795">NDArray[Real] phases_to_instantaneous_frequencies(phases: NDArray[Real], fs: int)</text><rect fill="#F24D5C" height="6" style="stroke:#C82930;stroke-width:1.0;" width="6" x="979" y="330.4297"/><text fill="#000000" font-family="sans-serif" font-size="14" lengthAdjust="spacing" textLength="934" x="991" y="336.7764">NDArray[Real] instantaneous_frequencies_to_phases(instantaneous_frequencies: NDArray[Real], first_phase: NDArray[Real], fs: int)</text><rect fill="#F24D5C" height="6" style="stroke:#C82930;stroke-width:1.0;" width="6" x="979" y="346.7266"/><text fill="#000000" font-family="sans-serif" font-size="14" lengthAdjust="spacing" textLength="372" x="991" y="353.0732">NDArray[float32] modulate(signal: NDArray[float32])</text></g><!--class FlippedFMTagger--><g id="elem_FlippedFMTagger"><rect codeLine="30" fill="#F1F1F1" height="80.5938" id="FlippedFMTagger" rx="2.5" ry="2.5" style="stroke:#181818;stroke-width:0.5;" width="232" x="704" y="230.5"/><ellipse cx="753.75" cy="246.5" fill="#ADD1B2" rx="11" ry="11" style="stroke:#181818;stroke-width:1.0;"/><path d="M756.0938,242.1719 C755.1563,241.7344 754.5625,241.5938 753.6875,241.5938 C751.0625,241.5938 749.0625,243.6719 749.0625,246.3906 L749.0625,247.5156 C749.0625,250.0938 751.1719,251.9844 754.0625,251.9844 C755.2813,251.9844 756.4375,251.6875 757.1875,251.1406 C757.7656,250.7344 758.0938,250.2813 758.0938,249.8906 C758.0938,249.4375 757.7031,249.0469 757.2344,249.0469 C757.0156,249.0469 756.8125,249.125 756.625,249.3125 C756.1719,249.7969 756.1719,249.7969 755.9844,249.8906 C755.5625,250.1563 754.875,250.2813 754.1094,250.2813 C752.0625,250.2813 750.7656,249.1875 750.7656,247.4844 L750.7656,246.3906 C750.7656,244.6094 752.0156,243.2969 753.75,243.2969 C754.3281,243.2969 754.9375,243.4531 755.4063,243.7031 C755.8906,243.9844 756.0625,244.2031 756.1563,244.6094 C756.2188,245.0156 756.25,245.1406 756.3906,245.2656 C756.5313,245.4063 756.7656,245.5156 756.9844,245.5156 C757.25,245.5156 757.5156,245.375 757.6875,245.1563 C757.7969,245 757.8281,244.8125 757.8281,244.3906 L757.8281,242.9688 C757.8281,242.5313 757.8125,242.4063 757.7188,242.25 C757.5625,241.9844 757.2813,241.8438 756.9844,241.8438 C756.6875,241.8438 756.4844,241.9375 756.2656,242.25 L756.0938,242.1719 Z " fill="#000000"/><text fill="#000000" font-family="sans-serif" font-size="14" lengthAdjust="spacing" textLength="124" x="774.25" y="251.3467">FlippedFMTagger</text><line style="stroke:#181818;stroke-width:0.5;" x1="705" x2="935" y1="262.5" y2="262.5"/><rect fill="none" height="6" style="stroke:#C82930;stroke-width:1.0;" width="6" x="712" y="273.1484"/><text fill="#000000" font-family="sans-serif" font-size="14" lengthAdjust="spacing" textLength="96" x="724" y="279.4951">int frequency</text><line style="stroke:#181818;stroke-width:0.5;" x1="705" x2="935" y1="286.7969" y2="286.7969"/><ellipse cx="715" cy="300.4453" fill="#84BE84" rx="3" ry="3" style="stroke:#038048;stroke-width:1.0;"/><text fill="#000000" font-family="sans-serif" font-size="14" lengthAdjust="spacing" textLength="206" x="724" y="303.792">FlippedFMTagger(frequency)</text></g><!--class ShiftSumTagger--><g id="elem_ShiftSumTagger"><rect codeLine="53" fill="#F1F1F1" height="80.5938" id="ShiftSumTagger" rx="2.5" ry="2.5" style="stroke:#181818;stroke-width:0.5;" width="210" x="2725" y="230.5"/><ellipse cx="2767.9" cy="246.5" fill="#ADD1B2" rx="11" ry="11" style="stroke:#181818;stroke-width:1.0;"/><path d="M2770.2438,242.1719 C2769.3063,241.7344 2768.7125,241.5938 2767.8375,241.5938 C2765.2125,241.5938 2763.2125,243.6719 2763.2125,246.3906 L2763.2125,247.5156 C2763.2125,250.0938 2765.3219,251.9844 2768.2125,251.9844 C2769.4313,251.9844 2770.5875,251.6875 2771.3375,251.1406 C2771.9156,250.7344 2772.2438,250.2813 2772.2438,249.8906 C2772.2438,249.4375 2771.8531,249.0469 2771.3844,249.0469 C2771.1656,249.0469 2770.9625,249.125 2770.775,249.3125 C2770.3219,249.7969 2770.3219,249.7969 2770.1344,249.8906 C2769.7125,250.1563 2769.025,250.2813 2768.2594,250.2813 C2766.2125,250.2813 2764.9156,249.1875 2764.9156,247.4844 L2764.9156,246.3906 C2764.9156,244.6094 2766.1656,243.2969 2767.9,243.2969 C2768.4781,243.2969 2769.0875,243.4531 2769.5563,243.7031 C2770.0406,243.9844 2770.2125,244.2031 2770.3063,244.6094 C2770.3688,245.0156 2770.4,245.1406 2770.5406,245.2656 C2770.6813,245.4063 2770.9156,245.5156 2771.1344,245.5156 C2771.4,245.5156 2771.6656,245.375 2771.8375,245.1563 C2771.9469,245 2771.9781,244.8125 2771.9781,244.3906 L2771.9781,242.9688 C2771.9781,242.5313 2771.9625,242.4063 2771.8688,242.25 C2771.7125,241.9844 2771.4313,241.8438 2771.1344,241.8438 C2770.8375,241.8438 2770.6344,241.9375 2770.4156,242.25 L2770.2438,242.1719 Z " fill="#000000"/><text fill="#000000" font-family="sans-serif" font-size="14" lengthAdjust="spacing" textLength="116" x="2788.1" y="251.3467">ShiftSumTagger</text><line style="stroke:#181818;stroke-width:0.5;" x1="2726" x2="2934" y1="262.5" y2="262.5"/><rect fill="none" height="6" style="stroke:#C82930;stroke-width:1.0;" width="6" x="2733" y="273.1484"/><text fill="#000000" font-family="sans-serif" font-size="14" lengthAdjust="spacing" textLength="82" x="2745" y="279.4951">int shift_by</text><line style="stroke:#181818;stroke-width:0.5;" x1="2726" x2="2934" y1="286.7969" y2="286.7969"/><ellipse cx="2736" cy="300.4453" fill="#84BE84" rx="3" ry="3" style="stroke:#038048;stroke-width:1.0;"/><text fill="#000000" font-family="sans-serif" font-size="14" lengthAdjust="spacing" textLength="184" x="2745" y="303.792">ShiftSumTagger(shift_by)</text></g><!--class SpectrumShiftTagger--><g id="elem_SpectrumShiftTagger"><rect codeLine="59" fill="#F1F1F1" height="80.5938" id="SpectrumShiftTagger" rx="2.5" ry="2.5" style="stroke:#181818;stroke-width:0.5;" width="250" x="2440" y="230.5"/><ellipse cx="2482.9" cy="246.5" fill="#ADD1B2" rx="11" ry="11" style="stroke:#181818;stroke-width:1.0;"/><path d="M2485.2438,242.1719 C2484.3063,241.7344 2483.7125,241.5938 2482.8375,241.5938 C2480.2125,241.5938 2478.2125,243.6719 2478.2125,246.3906 L2478.2125,247.5156 C2478.2125,250.0938 2480.3219,251.9844 2483.2125,251.9844 C2484.4313,251.9844 2485.5875,251.6875 2486.3375,251.1406 C2486.9156,250.7344 2487.2438,250.2813 2487.2438,249.8906 C2487.2438,249.4375 2486.8531,249.0469 2486.3844,249.0469 C2486.1656,249.0469 2485.9625,249.125 2485.775,249.3125 C2485.3219,249.7969 2485.3219,249.7969 2485.1344,249.8906 C2484.7125,250.1563 2484.025,250.2813 2483.2594,250.2813 C2481.2125,250.2813 2479.9156,249.1875 2479.9156,247.4844 L2479.9156,246.3906 C2479.9156,244.6094 2481.1656,243.2969 2482.9,243.2969 C2483.4781,243.2969 2484.0875,243.4531 2484.5563,243.7031 C2485.0406,243.9844 2485.2125,244.2031 2485.3063,244.6094 C2485.3688,245.0156 2485.4,245.1406 2485.5406,245.2656 C2485.6813,245.4063 2485.9156,245.5156 2486.1344,245.5156 C2486.4,245.5156 2486.6656,245.375 2486.8375,245.1563 C2486.9469,245 2486.9781,244.8125 2486.9781,244.3906 L2486.9781,242.9688 C2486.9781,242.5313 2486.9625,242.4063 2486.8688,242.25 C2486.7125,241.9844 2486.4313,241.8438 2486.1344,241.8438 C2485.8375,241.8438 2485.6344,241.9375 2485.4156,242.25 L2485.2438,242.1719 Z " fill="#000000"/><text fill="#000000" font-family="sans-serif" font-size="14" lengthAdjust="spacing" textLength="156" x="2503.1" y="251.3467">SpectrumShiftTagger</text><line style="stroke:#181818;stroke-width:0.5;" x1="2441" x2="2689" y1="262.5" y2="262.5"/><rect fill="none" height="6" style="stroke:#C82930;stroke-width:1.0;" width="6" x="2448" y="273.1484"/><text fill="#000000" font-family="sans-serif" font-size="14" lengthAdjust="spacing" textLength="82" x="2460" y="279.4951">int shift_by</text><line style="stroke:#181818;stroke-width:0.5;" x1="2441" x2="2689" y1="286.7969" y2="286.7969"/><ellipse cx="2451" cy="300.4453" fill="#84BE84" rx="3" ry="3" style="stroke:#038048;stroke-width:1.0;"/><text fill="#000000" font-family="sans-serif" font-size="14" lengthAdjust="spacing" textLength="224" x="2460" y="303.792">SpectrumShiftTagger(shift_by)</text></g><!--class BinauralTagger--><g id="elem_BinauralTagger"><rect codeLine="65" fill="#F1F1F1" height="80.5938" id="BinauralTagger" rx="2.5" ry="2.5" style="stroke:#181818;stroke-width:0.5;" width="201" x="2970.5" y="230.5"/><ellipse cx="3013.4" cy="246.5" fill="#ADD1B2" rx="11" ry="11" style="stroke:#181818;stroke-width:1.0;"/><path d="M3015.7438,242.1719 C3014.8063,241.7344 3014.2125,241.5938 3013.3375,241.5938 C3010.7125,241.5938 3008.7125,243.6719 3008.7125,246.3906 L3008.7125,247.5156 C3008.7125,250.0938 3010.8219,251.9844 3013.7125,251.9844 C3014.9313,251.9844 3016.0875,251.6875 3016.8375,251.1406 C3017.4156,250.7344 3017.7438,250.2813 3017.7438,249.8906 C3017.7438,249.4375 3017.3531,249.0469 3016.8844,249.0469 C3016.6656,249.0469 3016.4625,249.125 3016.275,249.3125 C3015.8219,249.7969 3015.8219,249.7969 3015.6344,249.8906 C3015.2125,250.1563 3014.525,250.2813 3013.7594,250.2813 C3011.7125,250.2813 3010.4156,249.1875 3010.4156,247.4844 L3010.4156,246.3906 C3010.4156,244.6094 3011.6656,243.2969 3013.4,243.2969 C3013.9781,243.2969 3014.5875,243.4531 3015.0563,243.7031 C3015.5406,243.9844 3015.7125,244.2031 3015.8063,244.6094 C3015.8688,245.0156 3015.9,245.1406 3016.0406,245.2656 C3016.1813,245.4063 3016.4156,245.5156 3016.6344,245.5156 C3016.9,245.5156 3017.1656,245.375 3017.3375,245.1563 C3017.4469,245 3017.4781,244.8125 3017.4781,244.3906 L3017.4781,242.9688 C3017.4781,242.5313 3017.4625,242.4063 3017.3688,242.25 C3017.2125,241.9844 3016.9313,241.8438 3016.6344,241.8438 C3016.3375,241.8438 3016.1344,241.9375 3015.9156,242.25 L3015.7438,242.1719 Z " fill="#000000"/><text fill="#000000" font-family="sans-serif" font-size="14" lengthAdjust="spacing" textLength="107" x="3033.6" y="251.3467">BinauralTagger</text><line style="stroke:#181818;stroke-width:0.5;" x1="2971.5" x2="3170.5" y1="262.5" y2="262.5"/><rect fill="none" height="6" style="stroke:#C82930;stroke-width:1.0;" width="6" x="2978.5" y="273.1484"/><text fill="#000000" font-family="sans-serif" font-size="14" lengthAdjust="spacing" textLength="82" x="2990.5" y="279.4951">int shift_by</text><line style="stroke:#181818;stroke-width:0.5;" x1="2971.5" x2="3170.5" y1="286.7969" y2="286.7969"/><ellipse cx="2981.5" cy="300.4453" fill="#84BE84" rx="3" ry="3" style="stroke:#038048;stroke-width:1.0;"/><text fill="#000000" font-family="sans-serif" font-size="14" lengthAdjust="spacing" textLength="175" x="2990.5" y="303.792">BinauralTagger(shift_by)</text></g><!--link BinauralTagger to AAudioTagger--><g id="link_BinauralTagger_AAudioTagger"><path codeLine="72" d="M3047.77,230.42 C3027.19,199.463 2994.06,158.506 2953,139 C2876.6,102.699 2412.948,89.9555 2100.638,85.3145 " fill="none" id="BinauralTagger-to-AAudioTagger" style="stroke:#181818;stroke-width:1.0;"/><polygon fill="none" points="2082.64,85.047,2100.5489,91.3138,2100.7272,79.3151,2082.64,85.047" style="stroke:#181818;stroke-width:1.0;"/></g><!--reverse link AAudioTagger to SpectrumShiftTagger--><g id="link_AAudioTagger_SpectrumShiftTagger"><path codeLine="73" d="M2100.5918,94.9028 C2226.2418,103.1068 2342.56,115.824 2400,139 C2450.03,159.186 2497.19,199.6 2528.17,230.23 " fill="none" id="AAudioTagger-backto-SpectrumShiftTagger" style="stroke:#181818;stroke-width:1.0;"/><polygon fill="none" points="2082.63,93.73,2100.2008,100.89,2100.9827,88.9155,2082.63,93.73" style="stroke:#181818;stroke-width:1.0;"/></g><!--reverse link AAudioTagger to ShiftSumTagger--><g id="link_AAudioTagger_ShiftSumTagger"><path codeLine="74" d="M2100.7604,90.0594 C2343.5404,97.9724 2652.5,112.736 2708,139 C2749.58,158.675 2783.86,199.384 2805.38,230.232 " fill="none" id="AAudioTagger-backto-ShiftSumTagger" style="stroke:#181818;stroke-width:1.0;"/><polygon fill="none" points="2082.77,89.473,2100.565,96.0562,2100.9559,84.0626,2082.77,89.473" style="stroke:#181818;stroke-width:1.0;"/></g><!--reverse link AAudioTagger to RawTagger--><g id="link_AAudioTagger_RawTagger"><path codeLine="75" d="M1525.4505,82.7388 C1215.7805,84.9548 758.99,95.427 688,139 C648.579,163.197 627.865,216.299 618.801,246.946 " fill="none" id="AAudioTagger-backto-RawTagger" style="stroke:#181818;stroke-width:1.0;"/><polygon fill="none" points="1543.45,82.61,1525.4075,76.739,1525.4934,88.7387,1543.45,82.61" style="stroke:#181818;stroke-width:1.0;"/></g><!--reverse link AAudioTagger to NoiseTaggingTagger--><g id="link_AAudioTagger_NoiseTaggingTagger"><path codeLine="76" d="M1525.1858,89.0734 C1180.2358,97.8034 634.124,115.016 540,139 C501.357,148.847 461.715,164.621 425.17,181.867 " fill="none" id="AAudioTagger-backto-NoiseTaggingTagger" style="stroke:#181818;stroke-width:1.0;"/><polygon fill="none" points="1543.18,88.618,1525.034,83.0753,1525.3376,95.0715,1543.18,88.618" style="stroke:#181818;stroke-width:1.0;"/></g><!--reverse link AAudioTagger to AMTagger--><g id="link_AAudioTagger_AMTagger"><path codeLine="77" d="M1928.9588,129.2832 C1941.3688,134.7372 1937.31,133.217 1949,139 C1995.03,161.78 2044.57,190.042 2085.49,214.477 " fill="none" id="AAudioTagger-backto-AMTagger" style="stroke:#181818;stroke-width:1.0;"/><polygon fill="none" points="1912.48,122.041,1926.5447,134.7761,1931.3729,123.7902,1912.48,122.041" style="stroke:#181818;stroke-width:1.0;"/></g><!--reverse link AAudioTagger to FMTagger--><g id="link_AAudioTagger_FMTagger"><path codeLine="78" d="M1720.6869,130.314 C1686.8769,147.827 1661.62,160.907 1621.12,181.888 " fill="none" id="AAudioTagger-backto-FMTagger" style="stroke:#181818;stroke-width:1.0;"/><polygon fill="none" points="1736.67,122.035,1717.9273,124.9863,1723.4466,135.6417,1736.67,122.035" style="stroke:#181818;stroke-width:1.0;"/></g><!--reverse link AAudioTagger to FlippedFMTagger--><g id="link_AAudioTagger_FlippedFMTagger"><path codeLine="79" d="M1525.4828,91.5449 C1293.8728,100.2739 1006.99,115.344 954,139 C910.032,158.628 872.116,199.345 847.949,230.207 " fill="none" id="AAudioTagger-backto-FlippedFMTagger" style="stroke:#181818;stroke-width:1.0;"/><polygon fill="none" points="1543.47,90.867,1525.2568,85.5492,1525.7087,97.5407,1543.47,90.867" style="stroke:#181818;stroke-width:1.0;"/></g><!--SRC=[bLLDZzem4BtdLrZg9H7XqjvGBtHNU-jM0cu8MIQP16jDdDhExYBAV-yanc0d0Iq81U5vyzvyULApx8sLG5YJSoFLWHfMbhmgoJ4Y-65RRHJB3Ca4qvhCvmYJAuI0EYC8-VRwF5UA7TQ5aCnioD4vdSXUvhmuq6pNL6znAo4fQw7sP4P2pvGKUaPuPPBaJ3tfz4YcW1cm12dHXkyRmItc54NTR-toq5frENW14XVzxrNVGCWKzKYXu6y3LNRm3KzC2BOLi5uZ92NkWM7s4aOvMa85Yc45VGOBmBGiJlEoOe8Y1wXt9Y8FEfalbmiRNNm99WsPqpv1SY4uHRrKNnvBjGkmxLOZcE6oeWMs3tFn8tIKVdm3ZyHdZLsT5i24LxRkRqAEsg1hTYBmsOqBPVjQSDFae6czOnfqN3NxBIXz7PGdYHZut0GwVUELkGH3CtjABLTy5PcHNdnMj7SygjHPpdXg97O45IlyWcmqTGNYcC4evtNGRvFVf6prpkMvYHdgSQMDTNiebcumVdpVk4v3R6UmTtKHaKHtfb7mkeRyAqCPJ5peTXqyV_0zGIlsAhc6bTrYFRtfdxgTLIRQ6utt4I2Fl2Xq3HalEEIqqFxvbXlwmNEpymy5LANPKRIvNNKXVv8vR4Y6JvVEP1XKZ6NlLWeouBo3eXeoMUKpksYkz6aNfqjv-YvvJgZR2a1RcNXeDTPWQRp-1gLQi8-WGgTmb-eTBynvcUh1DbssrcMplzLJwxqDMnewnGvpPvCjiIb6DVlEyp6jeUTN17_nYZMAYH6jlfflcOH-eqhsYOh1U_JdlsapxSaE4DEnGeoXWWAF02uz7x4DftG4vDwY8wQNEwRmBly7]--></g></svg>