<?xml version="1.0" encoding="us-ascii" standalone="no"?><svg xmlns="http://www.w3.org/2000/svg" xmlns:xlink="http://www.w3.org/1999/xlink" contentStyleType="text/css" height="1716px" preserveAspectRatio="none" style="width:3337px;height:1716px;background:#FFFFFF;" version="1.1" viewBox="0 0 3337 1716" width="3337px" zoomAndPan="magnify"><defs/><g><!--cluster view--><g id="cluster_view"><path d="M1002.5,965 L1039.5,965 A3.75,3.75 0 0 1 1042,967.5 L1049,987.2969 L1519.5,987.2969 A2.5,2.5 0 0 1 1522,989.7969 L1522,1390 A2.5,2.5 0 0 1 1519.5,1392.5 L1002.5,1392.5 A2.5,2.5 0 0 1 1000,1390 L1000,967.5 A2.5,2.5 0 0 1 1002.5,965 " fill="none" style="stroke:#000000;stroke-width:1.5;"/><line style="stroke:#000000;stroke-width:1.5;" x1="1000" x2="1049" y1="987.2969" y2="987.2969"/><text fill="#000000" font-family="sans-serif" font-size="14" font-weight="bold" lengthAdjust="spacing" textLength="36" x="1004" y="979.9951">view</text></g><!--cluster model--><g id="cluster_model"><path d="M1565.5,981 L1615.5,981 A3.75,3.75 0 0 1 1618,983.5 L1625,1003.2969 L2751.5,1003.2969 A2.5,2.5 0 0 1 2754,1005.7969 L2754,1706.5 A2.5,2.5 0 0 1 2751.5,1709 L1565.5,1709 A2.5,2.5 0 0 1 1563,1706.5 L1563,983.5 A2.5,2.5 0 0 1 1565.5,981 " fill="none" style="stroke:#000000;stroke-width:1.5;"/><line style="stroke:#000000;stroke-width:1.5;" x1="1563" x2="1625" y1="1003.2969" y2="1003.2969"/><text fill="#000000" font-family="sans-serif" font-size="14" font-weight="bold" lengthAdjust="spacing" textLength="49" x="1567" y="995.9951">model</text></g><!--cluster constants--><g id="cluster_constants"><path d="M1597.5,1464 L1681.5,1464 A3.75,3.75 0 0 1 1684,1466.5 L1691,1486.2969 L2164.5,1486.2969 A2.5,2.5 0 0 1 2167,1488.7969 L2167,1674.5 A2.5,2.5 0 0 1 2164.5,1677 L1597.5,1677 A2.5,2.5 0 0 1 1595,1674.5 L1595,1466.5 A2.5,2.5 0 0 1 1597.5,1464 " fill="none" style="stroke:#000000;stroke-width:1.5;"/><line style="stroke:#000000;stroke-width:1.5;" x1="1595" x2="1691" y1="1486.2969" y2="1486.2969"/><text fill="#000000" font-family="sans-serif" font-size="14" font-weight="bold" lengthAdjust="spacing" textLength="83" x="1599" y="1478.9951">constants</text></g><!--cluster auditory_tagging--><g id="cluster_auditory_tagging"><path d="M8.5,6 L148.5,6 A3.75,3.75 0 0 1 151,8.5 L158,28.2969 L2953.5,28.2969 A2.5,2.5 0 0 1 2956,30.7969 L2956,737.5 A2.5,2.5 0 0 1 2953.5,740 L8.5,740 A2.5,2.5 0 0 1 6,737.5 L6,8.5 A2.5,2.5 0 0 1 8.5,6 " fill="none" style="stroke:#000000;stroke-width:1.5;"/><line style="stroke:#000000;stroke-width:1.5;" x1="6" x2="158" y1="28.2969" y2="28.2969"/><text fill="#000000" font-family="sans-serif" font-size="14" font-weight="bold" lengthAdjust="spacing" textLength="139" x="10" y="20.9951">auditory_tagging</text></g><!--cluster assr_tagger--><g id="cluster_assr_tagger"><path d="M1472.5,196.5 L1569.5,196.5 A3.75,3.75 0 0 1 1572,199 L1579,218.7969 L2929.5,218.7969 A2.5,2.5 0 0 1 2932,221.2969 L2932,588.5 A2.5,2.5 0 0 1 2929.5,591 L1472.5,591 A2.5,2.5 0 0 1 1470,588.5 L1470,199 A2.5,2.5 0 0 1 1472.5,196.5 " fill="none" style="stroke:#000000;stroke-width:1.5;"/><line style="stroke:#000000;stroke-width:1.5;" x1="1470" x2="1579" y1="218.7969" y2="218.7969"/><text fill="#000000" font-family="sans-serif" font-size="14" font-weight="bold" lengthAdjust="spacing" textLength="96" x="1474" y="211.4951">assr_tagger</text></g><!--class AView--><g id="elem_AView"><rect codeLine="13" fill="#F1F1F1" height="219.2344" id="AView" rx="2.5" ry="2.5" style="stroke:#181818;stroke-width:0.5;" width="489" x="1016.5" y="1000"/><ellipse cx="1224.75" cy="1020.1328" fill="#A9DCDF" rx="11" ry="11" style="stroke:#181818;stroke-width:1.0;"/><path d="M1226.8281,1021.9453 L1227.2188,1022.9297 L1226.8281,1022.9297 C1226.375,1022.9297 1226.2656,1022.9453 1226.1094,1023.0547 C1225.8594,1023.2109 1225.7031,1023.4922 1225.7031,1023.7891 C1225.7031,1024.0547 1225.8438,1024.3047 1226.0625,1024.4609 C1226.2031,1024.5859 1226.4063,1024.6328 1226.8281,1024.6328 L1229.1875,1024.6328 C1229.5469,1024.6328 1229.7656,1024.6016 1229.9063,1024.5078 C1230.1563,1024.3672 1230.3125,1024.0703 1230.3125,1023.7891 C1230.3125,1023.5078 1230.1719,1023.2578 1229.9531,1023.1016 C1229.7813,1022.9609 1229.625,1022.9297 1229.1563,1022.9297 L1225.7656,1014.7266 L1222.0938,1014.7266 C1221.6406,1014.7266 1221.5156,1014.7422 1221.3594,1014.8359 C1221.1094,1015.0078 1220.9531,1015.2891 1220.9531,1015.5703 C1220.9531,1015.8516 1221.0938,1016.1016 1221.3125,1016.2734 C1221.4844,1016.3828 1221.6563,1016.4141 1222.0938,1016.4141 L1223.1719,1016.4141 L1220.5313,1022.9297 C1220.1094,1022.9297 1219.9531,1022.9453 1219.7969,1023.0547 C1219.5469,1023.2109 1219.3906,1023.4922 1219.3906,1023.7891 C1219.3906,1024.3516 1219.7656,1024.6328 1220.5156,1024.6328 L1222.7813,1024.6328 C1223.1406,1024.6328 1223.3594,1024.6016 1223.4844,1024.5078 C1223.75,1024.3672 1223.8906,1024.0703 1223.8906,1023.7891 C1223.8906,1023.5078 1223.7656,1023.2578 1223.5469,1023.0859 C1223.375,1022.9609 1223.2344,1022.9297 1222.7813,1022.9297 L1222.3906,1022.9297 L1222.7813,1021.9453 L1226.8281,1021.9453 Z M1226.125,1020.2422 L1223.4531,1020.2422 L1224.7969,1016.9766 L1226.125,1020.2422 Z " fill="#000000"/><text fill="#000000" font-family="sans-serif" font-size="12" font-style="italic" lengthAdjust="spacing" textLength="68" x="1243.25" y="1016.1387">&#171;Observer&#187;</text><text fill="#000000" font-family="sans-serif" font-size="14" font-style="italic" lengthAdjust="spacing" textLength="44" x="1255.25" y="1031.9639">AView</text><line style="stroke:#181818;stroke-width:0.5;" x1="1017.5" x2="1504.5" y1="1040.2656" y2="1040.2656"/><polygon fill="none" points="1027.5,1048.9141,1031.5,1052.9141,1027.5,1056.9141,1023.5,1052.9141" style="stroke:#B38D22;stroke-width:1.0;"/><text fill="#000000" font-family="sans-serif" font-size="14" lengthAdjust="spacing" textLength="260" x="1036.5" y="1057.2607">Callable[[Audio], None] sound_player</text><polygon fill="none" points="1027.5,1065.2109,1031.5,1069.2109,1027.5,1073.2109,1023.5,1069.2109" style="stroke:#B38D22;stroke-width:1.0;"/><text fill="#000000" font-family="sans-serif" font-size="14" lengthAdjust="spacing" textLength="408" x="1036.5" y="1073.5576">Dict[EExperimentState, Optional[str]] experiment_texts</text><line style="stroke:#181818;stroke-width:0.5;" x1="1017.5" x2="1504.5" y1="1080.8594" y2="1080.8594"/><ellipse cx="1027.5" cy="1094.5078" fill="#84BE84" rx="3" ry="3" style="stroke:#038048;stroke-width:1.0;"/><text fill="#000000" font-family="sans-serif" font-size="14" lengthAdjust="spacing" textLength="286" x="1036.5" y="1097.8545">AView(sound_player, experiment_texts)</text><text fill="#000000" font-family="sans-serif" font-size="14" lengthAdjust="spacing" textLength="4" x="1036.5" y="1114.1514">&#160;</text><polygon fill="#FFFF44" points="1027.5,1122.1016,1031.5,1126.1016,1027.5,1130.1016,1023.5,1126.1016" style="stroke:#B38D22;stroke-width:1.0;"/><text fill="#000000" font-family="sans-serif" font-size="14" font-style="italic" lengthAdjust="spacing" textLength="382" x="1036.5" y="1130.4482">void update_new_stimulus(stimulus: CreatedStimulus)</text><polygon fill="#FFFF44" points="1027.5,1138.3984,1031.5,1142.3984,1027.5,1146.3984,1023.5,1142.3984" style="stroke:#B38D22;stroke-width:1.0;"/><text fill="#000000" font-family="sans-serif" font-size="14" font-style="italic" lengthAdjust="spacing" textLength="269" x="1036.5" y="1146.7451">void updated_new_primer(primer: str)</text><polygon fill="#FFFF44" points="1027.5,1154.6953,1031.5,1158.6953,1027.5,1162.6953,1023.5,1158.6953" style="stroke:#B38D22;stroke-width:1.0;"/><text fill="#000000" font-family="sans-serif" font-size="14" font-style="italic" lengthAdjust="spacing" textLength="463" x="1036.5" y="1163.042">void update_experiment_state_changed(data: EExperimentState)</text><ellipse cx="1027.5" cy="1175.9922" fill="#84BE84" rx="3" ry="3" style="stroke:#038048;stroke-width:1.0;"/><text fill="#000000" font-family="sans-serif" font-size="14" lengthAdjust="spacing" textLength="413" x="1036.5" y="1179.3389">void update(data: Any, identifier: EModelUpdateIdentifier</text><ellipse cx="1027.5" cy="1192.2891" fill="#84BE84" rx="3" ry="3" style="stroke:#038048;stroke-width:1.0;"/><text fill="#000000" font-family="sans-serif" font-size="14" font-style="italic" lengthAdjust="spacing" textLength="166" x="1036.5" y="1195.6357">bool get_confirmation()</text><ellipse cx="1027.5" cy="1208.5859" fill="#84BE84" rx="3" ry="3" style="stroke:#038048;stroke-width:1.0;"/><text fill="#000000" font-family="sans-serif" font-size="14" font-style="italic" lengthAdjust="spacing" textLength="131" x="1036.5" y="1211.9326">void wait(secs: int)</text></g><!--class PsychopyView--><g id="elem_PsychopyView"><rect codeLine="27" fill="#F1F1F1" height="48" id="PsychopyView" rx="2.5" ry="2.5" style="stroke:#181818;stroke-width:0.5;" width="134" x="1356" y="1328.5"/><ellipse cx="1371" cy="1344.5" fill="#ADD1B2" rx="11" ry="11" style="stroke:#181818;stroke-width:1.0;"/><path d="M1373.3438,1340.1719 C1372.4063,1339.7344 1371.8125,1339.5938 1370.9375,1339.5938 C1368.3125,1339.5938 1366.3125,1341.6719 1366.3125,1344.3906 L1366.3125,1345.5156 C1366.3125,1348.0938 1368.4219,1349.9844 1371.3125,1349.9844 C1372.5313,1349.9844 1373.6875,1349.6875 1374.4375,1349.1406 C1375.0156,1348.7344 1375.3438,1348.2813 1375.3438,1347.8906 C1375.3438,1347.4375 1374.9531,1347.0469 1374.4844,1347.0469 C1374.2656,1347.0469 1374.0625,1347.125 1373.875,1347.3125 C1373.4219,1347.7969 1373.4219,1347.7969 1373.2344,1347.8906 C1372.8125,1348.1563 1372.125,1348.2813 1371.3594,1348.2813 C1369.3125,1348.2813 1368.0156,1347.1875 1368.0156,1345.4844 L1368.0156,1344.3906 C1368.0156,1342.6094 1369.2656,1341.2969 1371,1341.2969 C1371.5781,1341.2969 1372.1875,1341.4531 1372.6563,1341.7031 C1373.1406,1341.9844 1373.3125,1342.2031 1373.4063,1342.6094 C1373.4688,1343.0156 1373.5,1343.1406 1373.6406,1343.2656 C1373.7813,1343.4063 1374.0156,1343.5156 1374.2344,1343.5156 C1374.5,1343.5156 1374.7656,1343.375 1374.9375,1343.1563 C1375.0469,1343 1375.0781,1342.8125 1375.0781,1342.3906 L1375.0781,1340.9688 C1375.0781,1340.5313 1375.0625,1340.4063 1374.9688,1340.25 C1374.8125,1339.9844 1374.5313,1339.8438 1374.2344,1339.8438 C1373.9375,1339.8438 1373.7344,1339.9375 1373.5156,1340.25 L1373.3438,1340.1719 Z " fill="#000000"/><text fill="#000000" font-family="sans-serif" font-size="14" lengthAdjust="spacing" textLength="102" x="1385" y="1349.3467">PsychopyView</text><line style="stroke:#181818;stroke-width:0.5;" x1="1357" x2="1489" y1="1360.5" y2="1360.5"/><line style="stroke:#181818;stroke-width:0.5;" x1="1357" x2="1489" y1="1368.5" y2="1368.5"/></g><!--class CLIView--><g id="elem_CLIView"><rect codeLine="30" fill="#F1F1F1" height="48" id="CLIView" rx="2.5" ry="2.5" style="stroke:#181818;stroke-width:0.5;" width="88" x="1233" y="1328.5"/><ellipse cx="1248" cy="1344.5" fill="#ADD1B2" rx="11" ry="11" style="stroke:#181818;stroke-width:1.0;"/><path d="M1250.3438,1340.1719 C1249.4063,1339.7344 1248.8125,1339.5938 1247.9375,1339.5938 C1245.3125,1339.5938 1243.3125,1341.6719 1243.3125,1344.3906 L1243.3125,1345.5156 C1243.3125,1348.0938 1245.4219,1349.9844 1248.3125,1349.9844 C1249.5313,1349.9844 1250.6875,1349.6875 1251.4375,1349.1406 C1252.0156,1348.7344 1252.3438,1348.2813 1252.3438,1347.8906 C1252.3438,1347.4375 1251.9531,1347.0469 1251.4844,1347.0469 C1251.2656,1347.0469 1251.0625,1347.125 1250.875,1347.3125 C1250.4219,1347.7969 1250.4219,1347.7969 1250.2344,1347.8906 C1249.8125,1348.1563 1249.125,1348.2813 1248.3594,1348.2813 C1246.3125,1348.2813 1245.0156,1347.1875 1245.0156,1345.4844 L1245.0156,1344.3906 C1245.0156,1342.6094 1246.2656,1341.2969 1248,1341.2969 C1248.5781,1341.2969 1249.1875,1341.4531 1249.6563,1341.7031 C1250.1406,1341.9844 1250.3125,1342.2031 1250.4063,1342.6094 C1250.4688,1343.0156 1250.5,1343.1406 1250.6406,1343.2656 C1250.7813,1343.4063 1251.0156,1343.5156 1251.2344,1343.5156 C1251.5,1343.5156 1251.7656,1343.375 1251.9375,1343.1563 C1252.0469,1343 1252.0781,1342.8125 1252.0781,1342.3906 L1252.0781,1340.9688 C1252.0781,1340.5313 1252.0625,1340.4063 1251.9688,1340.25 C1251.8125,1339.9844 1251.5313,1339.8438 1251.2344,1339.8438 C1250.9375,1339.8438 1250.7344,1339.9375 1250.5156,1340.25 L1250.3438,1340.1719 Z " fill="#000000"/><text fill="#000000" font-family="sans-serif" font-size="14" lengthAdjust="spacing" textLength="56" x="1262" y="1349.3467">CLIView</text><line style="stroke:#181818;stroke-width:0.5;" x1="1234" x2="1320" y1="1360.5" y2="1360.5"/><line style="stroke:#181818;stroke-width:0.5;" x1="1234" x2="1320" y1="1368.5" y2="1368.5"/></g><!--class Model--><g id="elem_Model"><rect codeLine="35" fill="#F1F1F1" height="186.6406" id="Model" rx="2.5" ry="2.5" style="stroke:#181818;stroke-width:0.5;" width="476" x="1579" y="1016"/><ellipse cx="1774.25" cy="1036.1328" fill="#ADD1B2" rx="11" ry="11" style="stroke:#181818;stroke-width:1.0;"/><path d="M1776.5938,1031.8047 C1775.6563,1031.3672 1775.0625,1031.2266 1774.1875,1031.2266 C1771.5625,1031.2266 1769.5625,1033.3047 1769.5625,1036.0234 L1769.5625,1037.1484 C1769.5625,1039.7266 1771.6719,1041.6172 1774.5625,1041.6172 C1775.7813,1041.6172 1776.9375,1041.3203 1777.6875,1040.7734 C1778.2656,1040.3672 1778.5938,1039.9141 1778.5938,1039.5234 C1778.5938,1039.0703 1778.2031,1038.6797 1777.7344,1038.6797 C1777.5156,1038.6797 1777.3125,1038.7578 1777.125,1038.9453 C1776.6719,1039.4297 1776.6719,1039.4297 1776.4844,1039.5234 C1776.0625,1039.7891 1775.375,1039.9141 1774.6094,1039.9141 C1772.5625,1039.9141 1771.2656,1038.8203 1771.2656,1037.1172 L1771.2656,1036.0234 C1771.2656,1034.2422 1772.5156,1032.9297 1774.25,1032.9297 C1774.8281,1032.9297 1775.4375,1033.0859 1775.9063,1033.3359 C1776.3906,1033.6172 1776.5625,1033.8359 1776.6563,1034.2422 C1776.7188,1034.6484 1776.75,1034.7734 1776.8906,1034.8984 C1777.0313,1035.0391 1777.2656,1035.1484 1777.4844,1035.1484 C1777.75,1035.1484 1778.0156,1035.0078 1778.1875,1034.7891 C1778.2969,1034.6328 1778.3281,1034.4453 1778.3281,1034.0234 L1778.3281,1032.6016 C1778.3281,1032.1641 1778.3125,1032.0391 1778.2188,1031.8828 C1778.0625,1031.6172 1777.7813,1031.4766 1777.4844,1031.4766 C1777.1875,1031.4766 1776.9844,1031.5703 1776.7656,1031.8828 L1776.5938,1031.8047 Z " fill="#000000"/><text fill="#000000" font-family="sans-serif" font-size="12" font-style="italic" lengthAdjust="spacing" textLength="81" x="1792.75" y="1032.1387">&#171;Observable&#187;</text><text fill="#000000" font-family="sans-serif" font-size="14" lengthAdjust="spacing" textLength="43" x="1811.75" y="1047.9639">Model</text><line style="stroke:#181818;stroke-width:0.5;" x1="1580" x2="2054" y1="1056.2656" y2="1056.2656"/><rect fill="none" height="6" style="stroke:#C82930;stroke-width:1.0;" width="6" x="1587" y="1066.9141"/><text fill="#000000" font-family="sans-serif" font-size="14" lengthAdjust="spacing" textLength="166" x="1599" y="1073.2607">List[str] primer_history</text><rect fill="none" height="6" style="stroke:#C82930;stroke-width:1.0;" width="6" x="1587" y="1083.2109"/><text fill="#000000" font-family="sans-serif" font-size="14" lengthAdjust="spacing" textLength="100" x="1599" y="1089.5576">Logger logger</text><line style="stroke:#181818;stroke-width:0.5;" x1="1580" x2="2054" y1="1096.8594" y2="1096.8594"/><rect fill="#F24D5C" height="6" style="stroke:#C82930;stroke-width:1.0;" width="6" x="1587" y="1107.5078"/><text fill="#000000" font-family="sans-serif" font-size="14" lengthAdjust="spacing" textLength="99" x="1599" y="1113.8545">Model(logger)</text><rect fill="#F24D5C" height="6" style="stroke:#C82930;stroke-width:1.0;" width="6" x="1587" y="1123.8047"/><text fill="#000000" font-family="sans-serif" font-size="14" lengthAdjust="spacing" textLength="410" x="1599" y="1130.1514">void notify(data: Any, identifier: EModelUpdateIdentifier)</text><ellipse cx="1590" cy="1143.1016" fill="#84BE84" rx="3" ry="3" style="stroke:#038048;stroke-width:1.0;"/><text fill="#000000" font-family="sans-serif" font-size="14" lengthAdjust="spacing" textLength="176" x="1599" y="1146.4482">void register(view: View)</text><ellipse cx="1590" cy="1159.3984" fill="#84BE84" rx="3" ry="3" style="stroke:#038048;stroke-width:1.0;"/><text fill="#000000" font-family="sans-serif" font-size="14" lengthAdjust="spacing" textLength="326" x="1599" y="1162.7451">void new_stimulus(stimulus: CreatedStimulus)</text><ellipse cx="1590" cy="1175.6953" fill="#84BE84" rx="3" ry="3" style="stroke:#038048;stroke-width:1.0;"/><text fill="#000000" font-family="sans-serif" font-size="14" lengthAdjust="spacing" textLength="316" x="1599" y="1179.042">void new_primer(stimulus: CreatedStimulus)</text><ellipse cx="1590" cy="1191.9922" fill="#84BE84" rx="3" ry="3" style="stroke:#038048;stroke-width:1.0;"/><text fill="#000000" font-family="sans-serif" font-size="14" lengthAdjust="spacing" textLength="450" x="1599" y="1195.3389">void change_experiment_state(new_state: EExperimentState)</text></g><!--class Stimulus--><g id="elem_Stimulus"><rect codeLine="64" fill="#F1F1F1" height="113.1875" id="Stimulus" rx="2.5" ry="2.5" style="stroke:#181818;stroke-width:0.5;" width="286" x="2420" y="1296"/><ellipse cx="2528.25" cy="1312" fill="#ADD1B2" rx="11" ry="11" style="stroke:#181818;stroke-width:1.0;"/><path d="M2530.5938,1307.6719 C2529.6563,1307.2344 2529.0625,1307.0938 2528.1875,1307.0938 C2525.5625,1307.0938 2523.5625,1309.1719 2523.5625,1311.8906 L2523.5625,1313.0156 C2523.5625,1315.5938 2525.6719,1317.4844 2528.5625,1317.4844 C2529.7813,1317.4844 2530.9375,1317.1875 2531.6875,1316.6406 C2532.2656,1316.2344 2532.5938,1315.7813 2532.5938,1315.3906 C2532.5938,1314.9375 2532.2031,1314.5469 2531.7344,1314.5469 C2531.5156,1314.5469 2531.3125,1314.625 2531.125,1314.8125 C2530.6719,1315.2969 2530.6719,1315.2969 2530.4844,1315.3906 C2530.0625,1315.6563 2529.375,1315.7813 2528.6094,1315.7813 C2526.5625,1315.7813 2525.2656,1314.6875 2525.2656,1312.9844 L2525.2656,1311.8906 C2525.2656,1310.1094 2526.5156,1308.7969 2528.25,1308.7969 C2528.8281,1308.7969 2529.4375,1308.9531 2529.9063,1309.2031 C2530.3906,1309.4844 2530.5625,1309.7031 2530.6563,1310.1094 C2530.7188,1310.5156 2530.75,1310.6406 2530.8906,1310.7656 C2531.0313,1310.9063 2531.2656,1311.0156 2531.4844,1311.0156 C2531.75,1311.0156 2532.0156,1310.875 2532.1875,1310.6563 C2532.2969,1310.5 2532.3281,1310.3125 2532.3281,1309.8906 L2532.3281,1308.4688 C2532.3281,1308.0313 2532.3125,1307.9063 2532.2188,1307.75 C2532.0625,1307.4844 2531.7813,1307.3438 2531.4844,1307.3438 C2531.1875,1307.3438 2530.9844,1307.4375 2530.7656,1307.75 L2530.5938,1307.6719 Z " fill="#000000"/><text fill="#000000" font-family="sans-serif" font-size="14" lengthAdjust="spacing" textLength="61" x="2548.75" y="1316.8467">Stimulus</text><line style="stroke:#181818;stroke-width:0.5;" x1="2421" x2="2705" y1="1328" y2="1328"/><ellipse cx="2431" cy="1341.6484" fill="none" rx="3" ry="3" style="stroke:#038048;stroke-width:1.0;"/><text fill="#000000" font-family="sans-serif" font-size="14" lengthAdjust="spacing" textLength="80" x="2440" y="1344.9951">str prompt</text><ellipse cx="2431" cy="1357.9453" fill="none" rx="3" ry="3" style="stroke:#038048;stroke-width:1.0;"/><text fill="#000000" font-family="sans-serif" font-size="14" lengthAdjust="spacing" textLength="73" x="2440" y="1361.292">str primer</text><ellipse cx="2431" cy="1374.2422" fill="none" rx="3" ry="3" style="stroke:#038048;stroke-width:1.0;"/><text fill="#000000" font-family="sans-serif" font-size="14" lengthAdjust="spacing" textLength="115" x="2440" y="1377.5889">List[str] options</text><ellipse cx="2431" cy="1390.5391" fill="none" rx="3" ry="3" style="stroke:#038048;stroke-width:1.0;"/><text fill="#000000" font-family="sans-serif" font-size="14" lengthAdjust="spacing" textLength="260" x="2440" y="1393.8857">List[Tuple[float, float]] time_stamps</text><line style="stroke:#181818;stroke-width:0.5;" x1="2421" x2="2705" y1="1401.1875" y2="1401.1875"/></g><!--class CreatedStimulus--><g id="elem_CreatedStimulus"><rect codeLine="72" fill="#F1F1F1" height="64.2969" id="CreatedStimulus" rx="2.5" ry="2.5" style="stroke:#181818;stroke-width:0.5;" width="541" x="2196.5" y="1077.5"/><ellipse cx="2403.25" cy="1093.5" fill="#ADD1B2" rx="11" ry="11" style="stroke:#181818;stroke-width:1.0;"/><path d="M2405.5938,1089.1719 C2404.6563,1088.7344 2404.0625,1088.5938 2403.1875,1088.5938 C2400.5625,1088.5938 2398.5625,1090.6719 2398.5625,1093.3906 L2398.5625,1094.5156 C2398.5625,1097.0938 2400.6719,1098.9844 2403.5625,1098.9844 C2404.7813,1098.9844 2405.9375,1098.6875 2406.6875,1098.1406 C2407.2656,1097.7344 2407.5938,1097.2813 2407.5938,1096.8906 C2407.5938,1096.4375 2407.2031,1096.0469 2406.7344,1096.0469 C2406.5156,1096.0469 2406.3125,1096.125 2406.125,1096.3125 C2405.6719,1096.7969 2405.6719,1096.7969 2405.4844,1096.8906 C2405.0625,1097.1563 2404.375,1097.2813 2403.6094,1097.2813 C2401.5625,1097.2813 2400.2656,1096.1875 2400.2656,1094.4844 L2400.2656,1093.3906 C2400.2656,1091.6094 2401.5156,1090.2969 2403.25,1090.2969 C2403.8281,1090.2969 2404.4375,1090.4531 2404.9063,1090.7031 C2405.3906,1090.9844 2405.5625,1091.2031 2405.6563,1091.6094 C2405.7188,1092.0156 2405.75,1092.1406 2405.8906,1092.2656 C2406.0313,1092.4063 2406.2656,1092.5156 2406.4844,1092.5156 C2406.75,1092.5156 2407.0156,1092.375 2407.1875,1092.1563 C2407.2969,1092 2407.3281,1091.8125 2407.3281,1091.3906 L2407.3281,1089.9688 C2407.3281,1089.5313 2407.3125,1089.4063 2407.2188,1089.25 C2407.0625,1088.9844 2406.7813,1088.8438 2406.4844,1088.8438 C2406.1875,1088.8438 2405.9844,1088.9375 2405.7656,1089.25 L2405.5938,1089.1719 Z " fill="#000000"/><text fill="#000000" font-family="sans-serif" font-size="14" lengthAdjust="spacing" textLength="119" x="2423.75" y="1098.3467">CreatedStimulus</text><line style="stroke:#181818;stroke-width:0.5;" x1="2197.5" x2="2736.5" y1="1109.5" y2="1109.5"/><line style="stroke:#181818;stroke-width:0.5;" x1="2197.5" x2="2736.5" y1="1117.5" y2="1117.5"/><text fill="#000000" font-family="sans-serif" font-size="14" lengthAdjust="spacing" textLength="529" x="2202.5" y="1134.4951">CreatedStimulus from_stimulus(stimulus: Stimulus, modified_audio: Audio)</text></g><!--class EExperimentState--><g id="elem_EExperimentState"><rect codeLine="48" fill="#F1F1F1" height="145.7813" id="EExperimentState" rx="2.5" ry="2.5" style="stroke:#181818;stroke-width:0.5;" width="235" x="1907.5" y="1507"/><ellipse cx="1953.75" cy="1523" fill="#EB937F" rx="11" ry="11" style="stroke:#181818;stroke-width:1.0;"/><path d="M1952.5469,1523.875 L1954,1523.875 L1954,1523.9844 C1954,1524.3906 1954.0313,1524.5469 1954.1094,1524.7031 C1954.2656,1524.9531 1954.5469,1525.1094 1954.8438,1525.1094 C1955.0938,1525.1094 1955.3594,1524.9688 1955.5156,1524.75 C1955.6406,1524.5938 1955.6719,1524.4375 1955.6719,1523.9844 L1955.6719,1522.0625 C1955.6719,1521.9063 1955.6719,1521.8594 1955.6563,1521.7031 C1955.5938,1521.2344 1955.2813,1520.9219 1954.8281,1520.9219 C1954.5781,1520.9219 1954.3125,1521.0625 1954.1406,1521.2813 C1954.0313,1521.4531 1954,1521.6094 1954,1522.0625 L1954,1522.1875 L1952.5469,1522.1875 L1952.5469,1519.7813 L1956.5313,1519.7813 L1956.5313,1520.6406 C1956.5313,1521.0469 1956.5625,1521.2188 1956.6406,1521.375 C1956.8125,1521.625 1957.0938,1521.7813 1957.375,1521.7813 C1957.6406,1521.7813 1957.9063,1521.6406 1958.0781,1521.4219 C1958.1875,1521.25 1958.2188,1521.1094 1958.2188,1520.6406 L1958.2188,1518.0938 L1950.5938,1518.0938 C1950.1563,1518.0938 1950.0313,1518.1094 1949.875,1518.2031 C1949.625,1518.3594 1949.4688,1518.6563 1949.4688,1518.9375 C1949.4688,1519.2188 1949.6094,1519.4688 1949.8281,1519.6406 C1949.9844,1519.75 1950.1719,1519.7813 1950.5938,1519.7813 L1950.8438,1519.7813 L1950.8438,1526.2969 L1950.5938,1526.2969 C1950.1875,1526.2969 1950.0313,1526.3125 1949.875,1526.4219 C1949.625,1526.5938 1949.4688,1526.8594 1949.4688,1527.1563 C1949.4688,1527.4219 1949.6094,1527.6719 1949.8281,1527.8281 C1949.9688,1527.9531 1950.2031,1528 1950.5938,1528 L1958.5938,1528 L1958.5938,1525.4219 C1958.5938,1524.9844 1958.5625,1524.8438 1958.4844,1524.6875 C1958.3125,1524.4375 1958.0313,1524.2813 1957.75,1524.2813 C1957.4844,1524.2813 1957.2188,1524.3906 1957.0469,1524.6406 C1956.9375,1524.7969 1956.9063,1524.9375 1956.9063,1525.4219 L1956.9063,1526.2969 L1952.5469,1526.2969 L1952.5469,1523.875 Z " fill="#000000"/><text fill="#000000" font-family="sans-serif" font-size="14" lengthAdjust="spacing" textLength="134" x="1974.25" y="1527.8467">EExperimentState</text><line style="stroke:#181818;stroke-width:0.5;" x1="1908.5" x2="2141.5" y1="1539" y2="1539"/><text fill="#000000" font-family="sans-serif" font-size="14" lengthAdjust="spacing" textLength="66" x="1913.5" y="1555.9951">INACTIVE</text><text fill="#000000" font-family="sans-serif" font-size="14" lengthAdjust="spacing" textLength="108" x="1913.5" y="1572.292">INTRODUCTION</text><text fill="#000000" font-family="sans-serif" font-size="14" lengthAdjust="spacing" textLength="204" x="1913.5" y="1588.5889">RESTING_STATE_EYES_OPEN</text><text fill="#000000" font-family="sans-serif" font-size="14" lengthAdjust="spacing" textLength="223" x="1913.5" y="1604.8857">RESTING_STATE_EYES_CLOSED</text><text fill="#000000" font-family="sans-serif" font-size="14" lengthAdjust="spacing" textLength="206" x="1913.5" y="1621.1826">EXPERIMENT_INTRODUCTION</text><text fill="#000000" font-family="sans-serif" font-size="14" lengthAdjust="spacing" textLength="91" x="1913.5" y="1637.4795">EXPERIMENT</text><line style="stroke:#181818;stroke-width:0.5;" x1="1908.5" x2="2141.5" y1="1644.7813" y2="1644.7813"/></g><!--class EModelUpdateIdentifier--><g id="elem_EModelUpdateIdentifier"><rect codeLine="57" fill="#F1F1F1" height="96.8906" id="EModelUpdateIdentifier" rx="2.5" ry="2.5" style="stroke:#181818;stroke-width:0.5;" width="234" x="1638" y="1531.5"/><ellipse cx="1666.95" cy="1547.5" fill="#EB937F" rx="11" ry="11" style="stroke:#181818;stroke-width:1.0;"/><path d="M1665.7469,1548.375 L1667.2,1548.375 L1667.2,1548.4844 C1667.2,1548.8906 1667.2313,1549.0469 1667.3094,1549.2031 C1667.4656,1549.4531 1667.7469,1549.6094 1668.0438,1549.6094 C1668.2938,1549.6094 1668.5594,1549.4688 1668.7156,1549.25 C1668.8406,1549.0938 1668.8719,1548.9375 1668.8719,1548.4844 L1668.8719,1546.5625 C1668.8719,1546.4063 1668.8719,1546.3594 1668.8563,1546.2031 C1668.7938,1545.7344 1668.4813,1545.4219 1668.0281,1545.4219 C1667.7781,1545.4219 1667.5125,1545.5625 1667.3406,1545.7813 C1667.2313,1545.9531 1667.2,1546.1094 1667.2,1546.5625 L1667.2,1546.6875 L1665.7469,1546.6875 L1665.7469,1544.2813 L1669.7313,1544.2813 L1669.7313,1545.1406 C1669.7313,1545.5469 1669.7625,1545.7188 1669.8406,1545.875 C1670.0125,1546.125 1670.2938,1546.2813 1670.575,1546.2813 C1670.8406,1546.2813 1671.1063,1546.1406 1671.2781,1545.9219 C1671.3875,1545.75 1671.4188,1545.6094 1671.4188,1545.1406 L1671.4188,1542.5938 L1663.7938,1542.5938 C1663.3563,1542.5938 1663.2313,1542.6094 1663.075,1542.7031 C1662.825,1542.8594 1662.6688,1543.1563 1662.6688,1543.4375 C1662.6688,1543.7188 1662.8094,1543.9688 1663.0281,1544.1406 C1663.1844,1544.25 1663.3719,1544.2813 1663.7938,1544.2813 L1664.0438,1544.2813 L1664.0438,1550.7969 L1663.7938,1550.7969 C1663.3875,1550.7969 1663.2313,1550.8125 1663.075,1550.9219 C1662.825,1551.0938 1662.6688,1551.3594 1662.6688,1551.6563 C1662.6688,1551.9219 1662.8094,1552.1719 1663.0281,1552.3281 C1663.1688,1552.4531 1663.4031,1552.5 1663.7938,1552.5 L1671.7938,1552.5 L1671.7938,1549.9219 C1671.7938,1549.4844 1671.7625,1549.3438 1671.6844,1549.1875 C1671.5125,1548.9375 1671.2313,1548.7813 1670.95,1548.7813 C1670.6844,1548.7813 1670.4188,1548.8906 1670.2469,1549.1406 C1670.1375,1549.2969 1670.1063,1549.4375 1670.1063,1549.9219 L1670.1063,1550.7969 L1665.7469,1550.7969 L1665.7469,1548.375 Z " fill="#000000"/><text fill="#000000" font-family="sans-serif" font-size="14" lengthAdjust="spacing" textLength="171" x="1684.05" y="1552.3467">EModelUpdateIdentifier</text><line style="stroke:#181818;stroke-width:0.5;" x1="1639" x2="1871" y1="1563.5" y2="1563.5"/><text fill="#000000" font-family="sans-serif" font-size="14" lengthAdjust="spacing" textLength="109" x="1644" y="1580.4951">NEW_STIMULUS</text><text fill="#000000" font-family="sans-serif" font-size="14" lengthAdjust="spacing" textLength="94" x="1644" y="1596.792">NEW_PRIMER</text><text fill="#000000" font-family="sans-serif" font-size="14" lengthAdjust="spacing" textLength="222" x="1644" y="1613.0889">EXPERIMENT_STATE_CHANGED</text><line style="stroke:#181818;stroke-width:0.5;" x1="1639" x2="1871" y1="1620.3906" y2="1620.3906"/></g><!--class AAuditoryTagger--><g id="elem_AAuditoryTagger"><rect codeLine="89" fill="#F1F1F1" height="96.8906" id="AAuditoryTagger" rx="2.5" ry="2.5" style="stroke:#181818;stroke-width:0.5;" width="273" x="1698.5" y="41"/><ellipse cx="1770.25" cy="57" fill="#A9DCDF" rx="11" ry="11" style="stroke:#181818;stroke-width:1.0;"/><path d="M1772.3281,58.8125 L1772.7188,59.7969 L1772.3281,59.7969 C1771.875,59.7969 1771.7656,59.8125 1771.6094,59.9219 C1771.3594,60.0781 1771.2031,60.3594 1771.2031,60.6563 C1771.2031,60.9219 1771.3438,61.1719 1771.5625,61.3281 C1771.7031,61.4531 1771.9063,61.5 1772.3281,61.5 L1774.6875,61.5 C1775.0469,61.5 1775.2656,61.4688 1775.4063,61.375 C1775.6563,61.2344 1775.8125,60.9375 1775.8125,60.6563 C1775.8125,60.375 1775.6719,60.125 1775.4531,59.9688 C1775.2813,59.8281 1775.125,59.7969 1774.6563,59.7969 L1771.2656,51.5938 L1767.5938,51.5938 C1767.1406,51.5938 1767.0156,51.6094 1766.8594,51.7031 C1766.6094,51.875 1766.4531,52.1563 1766.4531,52.4375 C1766.4531,52.7188 1766.5938,52.9688 1766.8125,53.1406 C1766.9844,53.25 1767.1563,53.2813 1767.5938,53.2813 L1768.6719,53.2813 L1766.0313,59.7969 C1765.6094,59.7969 1765.4531,59.8125 1765.2969,59.9219 C1765.0469,60.0781 1764.8906,60.3594 1764.8906,60.6563 C1764.8906,61.2188 1765.2656,61.5 1766.0156,61.5 L1768.2813,61.5 C1768.6406,61.5 1768.8594,61.4688 1768.9844,61.375 C1769.25,61.2344 1769.3906,60.9375 1769.3906,60.6563 C1769.3906,60.375 1769.2656,60.125 1769.0469,59.9531 C1768.875,59.8281 1768.7344,59.7969 1768.2813,59.7969 L1767.8906,59.7969 L1768.2813,58.8125 L1772.3281,58.8125 Z M1771.625,57.1094 L1768.9531,57.1094 L1770.2969,53.8438 L1771.625,57.1094 Z " fill="#000000"/><text fill="#000000" font-family="sans-serif" font-size="14" font-style="italic" lengthAdjust="spacing" textLength="121" x="1790.75" y="61.8467">AAuditoryTagger</text><line style="stroke:#181818;stroke-width:0.5;" x1="1699.5" x2="1970.5" y1="73" y2="73"/><polygon fill="none" points="1709.5,81.6484,1713.5,85.6484,1709.5,89.6484,1705.5,85.6484" style="stroke:#B38D22;stroke-width:1.0;"/><text fill="#000000" font-family="sans-serif" font-size="14" lengthAdjust="spacing" textLength="247" x="1718.5" y="89.9951">list[ [float, float] ] stimuli_intervals</text><line style="stroke:#181818;stroke-width:0.5;" x1="1699.5" x2="1970.5" y1="97.2969" y2="97.2969"/><ellipse cx="1709.5" cy="110.9453" fill="#84BE84" rx="3" ry="3" style="stroke:#038048;stroke-width:1.0;"/><text fill="#000000" font-family="sans-serif" font-size="14" lengthAdjust="spacing" textLength="225" x="1718.5" y="114.292">AAuditoryTagger(audio, stimuli)</text><ellipse cx="1709.5" cy="127.2422" fill="#84BE84" rx="3" ry="3" style="stroke:#038048;stroke-width:1.0;"/><text fill="#000000" font-family="sans-serif" font-size="14" font-style="italic" lengthAdjust="spacing" textLength="101" x="1718.5" y="130.5889">Audio create()</text></g><!--class AAudioTaggerFactory--><g id="elem_AAudioTaggerFactory"><rect codeLine="99" fill="#F1F1F1" height="64.2969" id="AAudioTaggerFactory" rx="2.5" ry="2.5" style="stroke:#181818;stroke-width:0.5;" width="693" x="1470.5" y="660"/><ellipse cx="1735.25" cy="676" fill="#A9DCDF" rx="11" ry="11" style="stroke:#181818;stroke-width:1.0;"/><path d="M1737.3281,677.8125 L1737.7188,678.7969 L1737.3281,678.7969 C1736.875,678.7969 1736.7656,678.8125 1736.6094,678.9219 C1736.3594,679.0781 1736.2031,679.3594 1736.2031,679.6563 C1736.2031,679.9219 1736.3438,680.1719 1736.5625,680.3281 C1736.7031,680.4531 1736.9063,680.5 1737.3281,680.5 L1739.6875,680.5 C1740.0469,680.5 1740.2656,680.4688 1740.4063,680.375 C1740.6563,680.2344 1740.8125,679.9375 1740.8125,679.6563 C1740.8125,679.375 1740.6719,679.125 1740.4531,678.9688 C1740.2813,678.8281 1740.125,678.7969 1739.6563,678.7969 L1736.2656,670.5938 L1732.5938,670.5938 C1732.1406,670.5938 1732.0156,670.6094 1731.8594,670.7031 C1731.6094,670.875 1731.4531,671.1563 1731.4531,671.4375 C1731.4531,671.7188 1731.5938,671.9688 1731.8125,672.1406 C1731.9844,672.25 1732.1563,672.2813 1732.5938,672.2813 L1733.6719,672.2813 L1731.0313,678.7969 C1730.6094,678.7969 1730.4531,678.8125 1730.2969,678.9219 C1730.0469,679.0781 1729.8906,679.3594 1729.8906,679.6563 C1729.8906,680.2188 1730.2656,680.5 1731.0156,680.5 L1733.2813,680.5 C1733.6406,680.5 1733.8594,680.4688 1733.9844,680.375 C1734.25,680.2344 1734.3906,679.9375 1734.3906,679.6563 C1734.3906,679.375 1734.2656,679.125 1734.0469,678.9531 C1733.875,678.8281 1733.7344,678.7969 1733.2813,678.7969 L1732.8906,678.7969 L1733.2813,677.8125 L1737.3281,677.8125 Z M1736.625,676.1094 L1733.9531,676.1094 L1735.2969,672.8438 L1736.625,676.1094 Z " fill="#000000"/><text fill="#000000" font-family="sans-serif" font-size="14" font-style="italic" lengthAdjust="spacing" textLength="155" x="1755.75" y="680.8467">AAudioTaggerFactory</text><line style="stroke:#181818;stroke-width:0.5;" x1="1471.5" x2="2162.5" y1="692" y2="692"/><line style="stroke:#181818;stroke-width:0.5;" x1="1471.5" x2="2162.5" y1="700" y2="700"/><ellipse cx="1481.5" cy="713.6484" fill="#84BE84" rx="3" ry="3" style="stroke:#038048;stroke-width:1.0;"/><text fill="#000000" font-family="sans-serif" font-size="14" font-style="italic" lengthAdjust="spacing" textLength="667" x="1490.5" y="716.9951">AAudioTagger create_auditory_stimulus(audio: Audio, stimuli_intervals: List[Tuple[float, float])</text></g><!--class NoiseTaggingTagger--><g id="elem_NoiseTaggingTagger"><rect codeLine="136" fill="#F1F1F1" height="178.375" id="NoiseTaggingTagger" rx="2.5" ry="2.5" style="stroke:#181818;stroke-width:0.5;" width="625" x="818.5" y="199"/><ellipse cx="1053.75" cy="215" fill="#ADD1B2" rx="11" ry="11" style="stroke:#181818;stroke-width:1.0;"/><path d="M1056.0938,210.6719 C1055.1563,210.2344 1054.5625,210.0938 1053.6875,210.0938 C1051.0625,210.0938 1049.0625,212.1719 1049.0625,214.8906 L1049.0625,216.0156 C1049.0625,218.5938 1051.1719,220.4844 1054.0625,220.4844 C1055.2813,220.4844 1056.4375,220.1875 1057.1875,219.6406 C1057.7656,219.2344 1058.0938,218.7813 1058.0938,218.3906 C1058.0938,217.9375 1057.7031,217.5469 1057.2344,217.5469 C1057.0156,217.5469 1056.8125,217.625 1056.625,217.8125 C1056.1719,218.2969 1056.1719,218.2969 1055.9844,218.3906 C1055.5625,218.6563 1054.875,218.7813 1054.1094,218.7813 C1052.0625,218.7813 1050.7656,217.6875 1050.7656,215.9844 L1050.7656,214.8906 C1050.7656,213.1094 1052.0156,211.7969 1053.75,211.7969 C1054.3281,211.7969 1054.9375,211.9531 1055.4063,212.2031 C1055.8906,212.4844 1056.0625,212.7031 1056.1563,213.1094 C1056.2188,213.5156 1056.25,213.6406 1056.3906,213.7656 C1056.5313,213.9063 1056.7656,214.0156 1056.9844,214.0156 C1057.25,214.0156 1057.5156,213.875 1057.6875,213.6563 C1057.7969,213.5 1057.8281,213.3125 1057.8281,212.8906 L1057.8281,211.4688 C1057.8281,211.0313 1057.8125,210.9063 1057.7188,210.75 C1057.5625,210.4844 1057.2813,210.3438 1056.9844,210.3438 C1056.6875,210.3438 1056.4844,210.4375 1056.2656,210.75 L1056.0938,210.6719 Z " fill="#000000"/><text fill="#000000" font-family="sans-serif" font-size="14" lengthAdjust="spacing" textLength="146" x="1074.25" y="219.8467">NoiseTaggingTagger</text><line style="stroke:#181818;stroke-width:0.5;" x1="819.5" x2="1442.5" y1="231" y2="231"/><rect fill="none" height="6" style="stroke:#C82930;stroke-width:1.0;" width="6" x="826.5" y="241.6484"/><text fill="#000000" font-family="sans-serif" font-size="14" lengthAdjust="spacing" textLength="130" x="838.5" y="247.9951">Optional[int] seed</text><rect fill="none" height="6" style="stroke:#C82930;stroke-width:1.0;" width="6" x="826.5" y="257.9453"/><text fill="#000000" font-family="sans-serif" font-size="14" lengthAdjust="spacing" textLength="92" x="838.5" y="264.292">int bit_width</text><rect fill="none" height="6" style="stroke:#C82930;stroke-width:1.0;" width="6" x="826.5" y="274.2422"/><text fill="#000000" font-family="sans-serif" font-size="14" lengthAdjust="spacing" textLength="99" x="838.5" y="280.5889">int length_bit</text><ellipse cx="829.5" cy="293.5391" fill="none" rx="3" ry="3" style="stroke:#038048;stroke-width:1.0;"/><text fill="#000000" font-family="sans-serif" font-size="14" lengthAdjust="spacing" textLength="148" x="838.5" y="296.8857">Optional[Code] code</text><line style="stroke:#181818;stroke-width:0.5;" x1="819.5" x2="1442.5" y1="304.1875" y2="304.1875"/><ellipse cx="829.5" cy="317.8359" fill="#84BE84" rx="3" ry="3" style="stroke:#038048;stroke-width:1.0;"/><text fill="#000000" font-family="sans-serif" font-size="14" lengthAdjust="spacing" textLength="599" x="838.5" y="321.1826">NoiseTaggingTagger(audio, stimuli_intervals, bits_per_second: int, length_bit, seed)</text><ellipse cx="829.5" cy="334.1328" fill="#84BE84" rx="3" ry="3" style="stroke:#038048;stroke-width:1.0;"/><text fill="#000000" font-family="sans-serif" font-size="14" lengthAdjust="spacing" textLength="101" x="838.5" y="337.4795">Audio create()</text><rect fill="#F24D5C" height="6" style="stroke:#C82930;stroke-width:1.0;" width="6" x="826.5" y="347.4297"/><text fill="#000000" font-family="sans-serif" font-size="14" lengthAdjust="spacing" textLength="166" x="838.5" y="353.7764">void __generate_code()</text><rect fill="#F24D5C" height="6" style="stroke:#C82930;stroke-width:1.0;" width="6" x="826.5" y="363.7266"/><text fill="#000000" font-family="sans-serif" font-size="14" lengthAdjust="spacing" textLength="201" x="838.5" y="370.0732">void __get_code(length: int)</text></g><!--class NoiseTaggingTaggerFactory--><g id="elem_NoiseTaggingTaggerFactory"><rect codeLine="148" fill="#F1F1F1" height="129.4844" id="NoiseTaggingTaggerFactory" rx="2.5" ry="2.5" style="stroke:#181818;stroke-width:0.5;" width="697" x="754.5" y="454"/><ellipse cx="998.75" cy="470" fill="#ADD1B2" rx="11" ry="11" style="stroke:#181818;stroke-width:1.0;"/><path d="M1001.0938,465.6719 C1000.1563,465.2344 999.5625,465.0938 998.6875,465.0938 C996.0625,465.0938 994.0625,467.1719 994.0625,469.8906 L994.0625,471.0156 C994.0625,473.5938 996.1719,475.4844 999.0625,475.4844 C1000.2813,475.4844 1001.4375,475.1875 1002.1875,474.6406 C1002.7656,474.2344 1003.0938,473.7813 1003.0938,473.3906 C1003.0938,472.9375 1002.7031,472.5469 1002.2344,472.5469 C1002.0156,472.5469 1001.8125,472.625 1001.625,472.8125 C1001.1719,473.2969 1001.1719,473.2969 1000.9844,473.3906 C1000.5625,473.6563 999.875,473.7813 999.1094,473.7813 C997.0625,473.7813 995.7656,472.6875 995.7656,470.9844 L995.7656,469.8906 C995.7656,468.1094 997.0156,466.7969 998.75,466.7969 C999.3281,466.7969 999.9375,466.9531 1000.4063,467.2031 C1000.8906,467.4844 1001.0625,467.7031 1001.1563,468.1094 C1001.2188,468.5156 1001.25,468.6406 1001.3906,468.7656 C1001.5313,468.9063 1001.7656,469.0156 1001.9844,469.0156 C1002.25,469.0156 1002.5156,468.875 1002.6875,468.6563 C1002.7969,468.5 1002.8281,468.3125 1002.8281,467.8906 L1002.8281,466.4688 C1002.8281,466.0313 1002.8125,465.9063 1002.7188,465.75 C1002.5625,465.4844 1002.2813,465.3438 1001.9844,465.3438 C1001.6875,465.3438 1001.4844,465.4375 1001.2656,465.75 L1001.0938,465.6719 Z " fill="#000000"/><text fill="#000000" font-family="sans-serif" font-size="14" lengthAdjust="spacing" textLength="200" x="1019.25" y="474.8467">NoiseTaggingTaggerFactory</text><line style="stroke:#181818;stroke-width:0.5;" x1="755.5" x2="1450.5" y1="486" y2="486"/><rect fill="none" height="6" style="stroke:#C82930;stroke-width:1.0;" width="6" x="762.5" y="496.6484"/><text fill="#000000" font-family="sans-serif" font-size="14" lengthAdjust="spacing" textLength="142" x="774.5" y="502.9951">int bits_per_second</text><rect fill="none" height="6" style="stroke:#C82930;stroke-width:1.0;" width="6" x="762.5" y="512.9453"/><text fill="#000000" font-family="sans-serif" font-size="14" lengthAdjust="spacing" textLength="99" x="774.5" y="519.292">int length_bit</text><rect fill="none" height="6" style="stroke:#C82930;stroke-width:1.0;" width="6" x="762.5" y="529.2422"/><text fill="#000000" font-family="sans-serif" font-size="14" lengthAdjust="spacing" textLength="130" x="774.5" y="535.5889">Optional[int] seed</text><line style="stroke:#181818;stroke-width:0.5;" x1="755.5" x2="1450.5" y1="542.8906" y2="542.8906"/><ellipse cx="765.5" cy="556.5391" fill="#84BE84" rx="3" ry="3" style="stroke:#038048;stroke-width:1.0;"/><text fill="#000000" font-family="sans-serif" font-size="14" lengthAdjust="spacing" textLength="453" x="774.5" y="559.8857">NoiseTaggingTaggerFactory(bits_per_second, length_bit, seed)</text><ellipse cx="765.5" cy="572.8359" fill="#84BE84" rx="3" ry="3" style="stroke:#038048;stroke-width:1.0;"/><text fill="#000000" font-family="sans-serif" font-size="14" lengthAdjust="spacing" textLength="671" x="774.5" y="576.1826">AAudioTagger create_auditory_stimulus(audio: Audio, stimuli_intervals: List[Tuple[float, float])</text></g><!--class RawTagger--><g id="elem_RawTagger"><rect codeLine="157" fill="#F1F1F1" height="64.2969" id="RawTagger" rx="2.5" ry="2.5" style="stroke:#181818;stroke-width:0.5;" width="127" x="561.5" y="256"/><ellipse cx="583.7" cy="272" fill="#ADD1B2" rx="11" ry="11" style="stroke:#181818;stroke-width:1.0;"/><path d="M586.0438,267.6719 C585.1063,267.2344 584.5125,267.0938 583.6375,267.0938 C581.0125,267.0938 579.0125,269.1719 579.0125,271.8906 L579.0125,273.0156 C579.0125,275.5938 581.1219,277.4844 584.0125,277.4844 C585.2313,277.4844 586.3875,277.1875 587.1375,276.6406 C587.7156,276.2344 588.0438,275.7813 588.0438,275.3906 C588.0438,274.9375 587.6531,274.5469 587.1844,274.5469 C586.9656,274.5469 586.7625,274.625 586.575,274.8125 C586.1219,275.2969 586.1219,275.2969 585.9344,275.3906 C585.5125,275.6563 584.825,275.7813 584.0594,275.7813 C582.0125,275.7813 580.7156,274.6875 580.7156,272.9844 L580.7156,271.8906 C580.7156,270.1094 581.9656,268.7969 583.7,268.7969 C584.2781,268.7969 584.8875,268.9531 585.3563,269.2031 C585.8406,269.4844 586.0125,269.7031 586.1063,270.1094 C586.1688,270.5156 586.2,270.6406 586.3406,270.7656 C586.4813,270.9063 586.7156,271.0156 586.9344,271.0156 C587.2,271.0156 587.4656,270.875 587.6375,270.6563 C587.7469,270.5 587.7781,270.3125 587.7781,269.8906 L587.7781,268.4688 C587.7781,268.0313 587.7625,267.9063 587.6688,267.75 C587.5125,267.4844 587.2313,267.3438 586.9344,267.3438 C586.6375,267.3438 586.4344,267.4375 586.2156,267.75 L586.0438,267.6719 Z " fill="#000000"/><text fill="#000000" font-family="sans-serif" font-size="14" lengthAdjust="spacing" textLength="79" x="599.3" y="276.8467">RawTagger</text><line style="stroke:#181818;stroke-width:0.5;" x1="562.5" x2="687.5" y1="288" y2="288"/><line style="stroke:#181818;stroke-width:0.5;" x1="562.5" x2="687.5" y1="296" y2="296"/><ellipse cx="572.5" cy="309.6484" fill="#84BE84" rx="3" ry="3" style="stroke:#038048;stroke-width:1.0;"/><text fill="#000000" font-family="sans-serif" font-size="14" lengthAdjust="spacing" textLength="101" x="581.5" y="312.9951">Audio create()</text></g><!--class RawTaggerFactory--><g id="elem_RawTaggerFactory"><rect codeLine="161" fill="#F1F1F1" height="64.2969" id="RawTaggerFactory" rx="2.5" ry="2.5" style="stroke:#181818;stroke-width:0.5;" width="697" x="22.5" y="486.5"/><ellipse cx="300.25" cy="502.5" fill="#ADD1B2" rx="11" ry="11" style="stroke:#181818;stroke-width:1.0;"/><path d="M302.5938,498.1719 C301.6563,497.7344 301.0625,497.5938 300.1875,497.5938 C297.5625,497.5938 295.5625,499.6719 295.5625,502.3906 L295.5625,503.5156 C295.5625,506.0938 297.6719,507.9844 300.5625,507.9844 C301.7813,507.9844 302.9375,507.6875 303.6875,507.1406 C304.2656,506.7344 304.5938,506.2813 304.5938,505.8906 C304.5938,505.4375 304.2031,505.0469 303.7344,505.0469 C303.5156,505.0469 303.3125,505.125 303.125,505.3125 C302.6719,505.7969 302.6719,505.7969 302.4844,505.8906 C302.0625,506.1563 301.375,506.2813 300.6094,506.2813 C298.5625,506.2813 297.2656,505.1875 297.2656,503.4844 L297.2656,502.3906 C297.2656,500.6094 298.5156,499.2969 300.25,499.2969 C300.8281,499.2969 301.4375,499.4531 301.9063,499.7031 C302.3906,499.9844 302.5625,500.2031 302.6563,500.6094 C302.7188,501.0156 302.75,501.1406 302.8906,501.2656 C303.0313,501.4063 303.2656,501.5156 303.4844,501.5156 C303.75,501.5156 304.0156,501.375 304.1875,501.1563 C304.2969,501 304.3281,500.8125 304.3281,500.3906 L304.3281,498.9688 C304.3281,498.5313 304.3125,498.4063 304.2188,498.25 C304.0625,497.9844 303.7813,497.8438 303.4844,497.8438 C303.1875,497.8438 302.9844,497.9375 302.7656,498.25 L302.5938,498.1719 Z " fill="#000000"/><text fill="#000000" font-family="sans-serif" font-size="14" lengthAdjust="spacing" textLength="133" x="320.75" y="507.3467">RawTaggerFactory</text><line style="stroke:#181818;stroke-width:0.5;" x1="23.5" x2="718.5" y1="518.5" y2="518.5"/><line style="stroke:#181818;stroke-width:0.5;" x1="23.5" x2="718.5" y1="526.5" y2="526.5"/><ellipse cx="33.5" cy="540.1484" fill="#84BE84" rx="3" ry="3" style="stroke:#038048;stroke-width:1.0;"/><text fill="#000000" font-family="sans-serif" font-size="14" lengthAdjust="spacing" textLength="671" x="42.5" y="543.4951">AAudioTagger create_auditory_stimulus(audio: Audio, stimuli_intervals: List[Tuple[float, float])</text></g><!--class AMTagger--><g id="elem_AMTagger"><rect codeLine="104" fill="#F1F1F1" height="113.1875" id="AMTagger" rx="2.5" ry="2.5" style="stroke:#181818;stroke-width:0.5;" width="478" x="1596" y="231.5"/><ellipse cx="1794.75" cy="247.5" fill="#ADD1B2" rx="11" ry="11" style="stroke:#181818;stroke-width:1.0;"/><path d="M1797.0938,243.1719 C1796.1563,242.7344 1795.5625,242.5938 1794.6875,242.5938 C1792.0625,242.5938 1790.0625,244.6719 1790.0625,247.3906 L1790.0625,248.5156 C1790.0625,251.0938 1792.1719,252.9844 1795.0625,252.9844 C1796.2813,252.9844 1797.4375,252.6875 1798.1875,252.1406 C1798.7656,251.7344 1799.0938,251.2813 1799.0938,250.8906 C1799.0938,250.4375 1798.7031,250.0469 1798.2344,250.0469 C1798.0156,250.0469 1797.8125,250.125 1797.625,250.3125 C1797.1719,250.7969 1797.1719,250.7969 1796.9844,250.8906 C1796.5625,251.1563 1795.875,251.2813 1795.1094,251.2813 C1793.0625,251.2813 1791.7656,250.1875 1791.7656,248.4844 L1791.7656,247.3906 C1791.7656,245.6094 1793.0156,244.2969 1794.75,244.2969 C1795.3281,244.2969 1795.9375,244.4531 1796.4063,244.7031 C1796.8906,244.9844 1797.0625,245.2031 1797.1563,245.6094 C1797.2188,246.0156 1797.25,246.1406 1797.3906,246.2656 C1797.5313,246.4063 1797.7656,246.5156 1797.9844,246.5156 C1798.25,246.5156 1798.5156,246.375 1798.6875,246.1563 C1798.7969,246 1798.8281,245.8125 1798.8281,245.3906 L1798.8281,243.9688 C1798.8281,243.5313 1798.8125,243.4063 1798.7188,243.25 C1798.5625,242.9844 1798.2813,242.8438 1797.9844,242.8438 C1797.6875,242.8438 1797.4844,242.9375 1797.2656,243.25 L1797.0938,243.1719 Z " fill="#000000"/><text fill="#000000" font-family="sans-serif" font-size="14" lengthAdjust="spacing" textLength="72" x="1815.25" y="252.3467">AMTagger</text><line style="stroke:#181818;stroke-width:0.5;" x1="1597" x2="2073" y1="263.5" y2="263.5"/><rect fill="none" height="6" style="stroke:#C82930;stroke-width:1.0;" width="6" x="1604" y="274.1484"/><text fill="#000000" font-family="sans-serif" font-size="14" lengthAdjust="spacing" textLength="96" x="1616" y="280.4951">int frequency</text><rect fill="none" height="6" style="stroke:#C82930;stroke-width:1.0;" width="6" x="1604" y="290.4453"/><text fill="#000000" font-family="sans-serif" font-size="14" lengthAdjust="spacing" textLength="366" x="1616" y="296.792">Callable[[int, int, int], NDArray[float] tag_generator</text><line style="stroke:#181818;stroke-width:0.5;" x1="1597" x2="2073" y1="304.0938" y2="304.0938"/><ellipse cx="1607" cy="317.7422" fill="#84BE84" rx="3" ry="3" style="stroke:#038048;stroke-width:1.0;"/><text fill="#000000" font-family="sans-serif" font-size="14" lengthAdjust="spacing" textLength="452" x="1616" y="321.0889">ASSRTagger(audio, stimuli_intervals, frequency, tag_generator)</text><ellipse cx="1607" cy="334.0391" fill="#84BE84" rx="3" ry="3" style="stroke:#038048;stroke-width:1.0;"/><text fill="#000000" font-family="sans-serif" font-size="14" lengthAdjust="spacing" textLength="101" x="1616" y="337.3857">Audio create()</text></g><!--class FMTagger--><g id="elem_FMTagger"><rect codeLine="112" fill="#F1F1F1" height="96.8906" id="FMTagger" rx="2.5" ry="2.5" style="stroke:#181818;stroke-width:0.5;" width="349" x="2250.5" y="239.5"/><ellipse cx="2385.75" cy="255.5" fill="#ADD1B2" rx="11" ry="11" style="stroke:#181818;stroke-width:1.0;"/><path d="M2388.0938,251.1719 C2387.1563,250.7344 2386.5625,250.5938 2385.6875,250.5938 C2383.0625,250.5938 2381.0625,252.6719 2381.0625,255.3906 L2381.0625,256.5156 C2381.0625,259.0938 2383.1719,260.9844 2386.0625,260.9844 C2387.2813,260.9844 2388.4375,260.6875 2389.1875,260.1406 C2389.7656,259.7344 2390.0938,259.2813 2390.0938,258.8906 C2390.0938,258.4375 2389.7031,258.0469 2389.2344,258.0469 C2389.0156,258.0469 2388.8125,258.125 2388.625,258.3125 C2388.1719,258.7969 2388.1719,258.7969 2387.9844,258.8906 C2387.5625,259.1563 2386.875,259.2813 2386.1094,259.2813 C2384.0625,259.2813 2382.7656,258.1875 2382.7656,256.4844 L2382.7656,255.3906 C2382.7656,253.6094 2384.0156,252.2969 2385.75,252.2969 C2386.3281,252.2969 2386.9375,252.4531 2387.4063,252.7031 C2387.8906,252.9844 2388.0625,253.2031 2388.1563,253.6094 C2388.2188,254.0156 2388.25,254.1406 2388.3906,254.2656 C2388.5313,254.4063 2388.7656,254.5156 2388.9844,254.5156 C2389.25,254.5156 2389.5156,254.375 2389.6875,254.1563 C2389.7969,254 2389.8281,253.8125 2389.8281,253.3906 L2389.8281,251.9688 C2389.8281,251.5313 2389.8125,251.4063 2389.7188,251.25 C2389.5625,250.9844 2389.2813,250.8438 2388.9844,250.8438 C2388.6875,250.8438 2388.4844,250.9375 2388.2656,251.25 L2388.0938,251.1719 Z " fill="#000000"/><text fill="#000000" font-family="sans-serif" font-size="14" lengthAdjust="spacing" textLength="70" x="2406.25" y="260.3467">FMTagger</text><line style="stroke:#181818;stroke-width:0.5;" x1="2251.5" x2="2598.5" y1="271.5" y2="271.5"/><rect fill="none" height="6" style="stroke:#C82930;stroke-width:1.0;" width="6" x="2258.5" y="282.1484"/><text fill="#000000" font-family="sans-serif" font-size="14" lengthAdjust="spacing" textLength="96" x="2270.5" y="288.4951">int frequency</text><line style="stroke:#181818;stroke-width:0.5;" x1="2251.5" x2="2598.5" y1="295.7969" y2="295.7969"/><ellipse cx="2261.5" cy="309.4453" fill="#84BE84" rx="3" ry="3" style="stroke:#038048;stroke-width:1.0;"/><text fill="#000000" font-family="sans-serif" font-size="14" lengthAdjust="spacing" textLength="323" x="2270.5" y="312.792">FMTagger(audio, stimuli_intervals, frequency)</text><ellipse cx="2261.5" cy="325.7422" fill="#84BE84" rx="3" ry="3" style="stroke:#038048;stroke-width:1.0;"/><text fill="#000000" font-family="sans-serif" font-size="14" lengthAdjust="spacing" textLength="101" x="2270.5" y="329.0889">Audio create()</text></g><!--class AMTaggerFactory--><g id="elem_AMTaggerFactory"><rect codeLine="120" fill="#F1F1F1" height="113.1875" id="AMTaggerFactory" rx="2.5" ry="2.5" style="stroke:#181818;stroke-width:0.5;" width="697" x="1486.5" y="462"/><ellipse cx="1767.75" cy="478" fill="#ADD1B2" rx="11" ry="11" style="stroke:#181818;stroke-width:1.0;"/><path d="M1770.0938,473.6719 C1769.1563,473.2344 1768.5625,473.0938 1767.6875,473.0938 C1765.0625,473.0938 1763.0625,475.1719 1763.0625,477.8906 L1763.0625,479.0156 C1763.0625,481.5938 1765.1719,483.4844 1768.0625,483.4844 C1769.2813,483.4844 1770.4375,483.1875 1771.1875,482.6406 C1771.7656,482.2344 1772.0938,481.7813 1772.0938,481.3906 C1772.0938,480.9375 1771.7031,480.5469 1771.2344,480.5469 C1771.0156,480.5469 1770.8125,480.625 1770.625,480.8125 C1770.1719,481.2969 1770.1719,481.2969 1769.9844,481.3906 C1769.5625,481.6563 1768.875,481.7813 1768.1094,481.7813 C1766.0625,481.7813 1764.7656,480.6875 1764.7656,478.9844 L1764.7656,477.8906 C1764.7656,476.1094 1766.0156,474.7969 1767.75,474.7969 C1768.3281,474.7969 1768.9375,474.9531 1769.4063,475.2031 C1769.8906,475.4844 1770.0625,475.7031 1770.1563,476.1094 C1770.2188,476.5156 1770.25,476.6406 1770.3906,476.7656 C1770.5313,476.9063 1770.7656,477.0156 1770.9844,477.0156 C1771.25,477.0156 1771.5156,476.875 1771.6875,476.6563 C1771.7969,476.5 1771.8281,476.3125 1771.8281,475.8906 L1771.8281,474.4688 C1771.8281,474.0313 1771.8125,473.9063 1771.7188,473.75 C1771.5625,473.4844 1771.2813,473.3438 1770.9844,473.3438 C1770.6875,473.3438 1770.4844,473.4375 1770.2656,473.75 L1770.0938,473.6719 Z " fill="#000000"/><text fill="#000000" font-family="sans-serif" font-size="14" lengthAdjust="spacing" textLength="126" x="1788.25" y="482.8467">AMTaggerFactory</text><line style="stroke:#181818;stroke-width:0.5;" x1="1487.5" x2="2182.5" y1="494" y2="494"/><rect fill="none" height="6" style="stroke:#C82930;stroke-width:1.0;" width="6" x="1494.5" y="504.6484"/><text fill="#000000" font-family="sans-serif" font-size="14" lengthAdjust="spacing" textLength="96" x="1506.5" y="510.9951">int frequency</text><rect fill="none" height="6" style="stroke:#C82930;stroke-width:1.0;" width="6" x="1494.5" y="520.9453"/><text fill="#000000" font-family="sans-serif" font-size="14" lengthAdjust="spacing" textLength="371" x="1506.5" y="527.292">Callable[[int, int, int], NDArray[float]] tag_generator</text><line style="stroke:#181818;stroke-width:0.5;" x1="1487.5" x2="2182.5" y1="534.5938" y2="534.5938"/><ellipse cx="1497.5" cy="548.2422" fill="#84BE84" rx="3" ry="3" style="stroke:#038048;stroke-width:1.0;"/><text fill="#000000" font-family="sans-serif" font-size="14" lengthAdjust="spacing" textLength="319" x="1506.5" y="551.5889">AMTaggerFactory(frequency, tag_generator)</text><ellipse cx="1497.5" cy="564.5391" fill="#84BE84" rx="3" ry="3" style="stroke:#038048;stroke-width:1.0;"/><text fill="#000000" font-family="sans-serif" font-size="14" lengthAdjust="spacing" textLength="671" x="1506.5" y="567.8857">AAudioTagger create_auditory_stimulus(audio: Audio, stimuli_intervals: List[Tuple[float, float])</text></g><!--class FMTaggerFactory--><g id="elem_FMTaggerFactory"><rect codeLine="128" fill="#F1F1F1" height="96.8906" id="FMTaggerFactory" rx="2.5" ry="2.5" style="stroke:#181818;stroke-width:0.5;" width="697" x="2218.5" y="470"/><ellipse cx="2500.75" cy="486" fill="#ADD1B2" rx="11" ry="11" style="stroke:#181818;stroke-width:1.0;"/><path d="M2503.0938,481.6719 C2502.1563,481.2344 2501.5625,481.0938 2500.6875,481.0938 C2498.0625,481.0938 2496.0625,483.1719 2496.0625,485.8906 L2496.0625,487.0156 C2496.0625,489.5938 2498.1719,491.4844 2501.0625,491.4844 C2502.2813,491.4844 2503.4375,491.1875 2504.1875,490.6406 C2504.7656,490.2344 2505.0938,489.7813 2505.0938,489.3906 C2505.0938,488.9375 2504.7031,488.5469 2504.2344,488.5469 C2504.0156,488.5469 2503.8125,488.625 2503.625,488.8125 C2503.1719,489.2969 2503.1719,489.2969 2502.9844,489.3906 C2502.5625,489.6563 2501.875,489.7813 2501.1094,489.7813 C2499.0625,489.7813 2497.7656,488.6875 2497.7656,486.9844 L2497.7656,485.8906 C2497.7656,484.1094 2499.0156,482.7969 2500.75,482.7969 C2501.3281,482.7969 2501.9375,482.9531 2502.4063,483.2031 C2502.8906,483.4844 2503.0625,483.7031 2503.1563,484.1094 C2503.2188,484.5156 2503.25,484.6406 2503.3906,484.7656 C2503.5313,484.9063 2503.7656,485.0156 2503.9844,485.0156 C2504.25,485.0156 2504.5156,484.875 2504.6875,484.6563 C2504.7969,484.5 2504.8281,484.3125 2504.8281,483.8906 L2504.8281,482.4688 C2504.8281,482.0313 2504.8125,481.9063 2504.7188,481.75 C2504.5625,481.4844 2504.2813,481.3438 2503.9844,481.3438 C2503.6875,481.3438 2503.4844,481.4375 2503.2656,481.75 L2503.0938,481.6719 Z " fill="#000000"/><text fill="#000000" font-family="sans-serif" font-size="14" lengthAdjust="spacing" textLength="124" x="2521.25" y="490.8467">FMTaggerFactory</text><line style="stroke:#181818;stroke-width:0.5;" x1="2219.5" x2="2914.5" y1="502" y2="502"/><rect fill="none" height="6" style="stroke:#C82930;stroke-width:1.0;" width="6" x="2226.5" y="512.6484"/><text fill="#000000" font-family="sans-serif" font-size="14" lengthAdjust="spacing" textLength="96" x="2238.5" y="518.9951">int frequency</text><line style="stroke:#181818;stroke-width:0.5;" x1="2219.5" x2="2914.5" y1="526.2969" y2="526.2969"/><ellipse cx="2229.5" cy="539.9453" fill="#84BE84" rx="3" ry="3" style="stroke:#038048;stroke-width:1.0;"/><text fill="#000000" font-family="sans-serif" font-size="14" lengthAdjust="spacing" textLength="206" x="2238.5" y="543.292">FMTaggerFactory(frequency)</text><ellipse cx="2229.5" cy="556.2422" fill="#84BE84" rx="3" ry="3" style="stroke:#038048;stroke-width:1.0;"/><text fill="#000000" font-family="sans-serif" font-size="14" lengthAdjust="spacing" textLength="671" x="2238.5" y="559.5889">AAudioTagger create_auditory_stimulus(audio: Audio, stimuli_intervals: List[Tuple[float, float])</text></g><g id="elem_n"><path d="M2972,62 L2972,117.3984 L3330,117.3984 L3330,72 L3320,62 L2972,62 " fill="#FEFFDD" style="stroke:#181818;stroke-width:0.5;"/><path d="M3320,62 L3320,72 L3330,72 L3320,62 " fill="#FEFFDD" style="stroke:#181818;stroke-width:1.0;"/><text fill="#000000" font-family="sans-serif" font-size="13" font-weight="bold" lengthAdjust="spacing" textLength="38" x="2978" y="79.0669">Note</text><text fill="#000000" font-family="sans-serif" font-size="13" lengthAdjust="spacing" textLength="299" x="3016" y="79.0669">: To save space, constructor parameter types,</text><text fill="#000000" font-family="sans-serif" font-size="13" lengthAdjust="spacing" textLength="308" x="2978" y="94.1997">which match the types of the class parameters,</text><text fill="#000000" font-family="sans-serif" font-size="13" lengthAdjust="spacing" textLength="107" x="2978" y="109.3325">are not specified</text></g><!--class Audio--><g id="elem_Audio"><rect codeLine="7" fill="#F1F1F1" height="80.5938" id="Audio" rx="2.5" ry="2.5" style="stroke:#181818;stroke-width:0.5;" width="194" x="2872" y="1069"/><ellipse cx="2944.75" cy="1085" fill="#ADD1B2" rx="11" ry="11" style="stroke:#181818;stroke-width:1.0;"/><path d="M2947.0938,1080.6719 C2946.1563,1080.2344 2945.5625,1080.0938 2944.6875,1080.0938 C2942.0625,1080.0938 2940.0625,1082.1719 2940.0625,1084.8906 L2940.0625,1086.0156 C2940.0625,1088.5938 2942.1719,1090.4844 2945.0625,1090.4844 C2946.2813,1090.4844 2947.4375,1090.1875 2948.1875,1089.6406 C2948.7656,1089.2344 2949.0938,1088.7813 2949.0938,1088.3906 C2949.0938,1087.9375 2948.7031,1087.5469 2948.2344,1087.5469 C2948.0156,1087.5469 2947.8125,1087.625 2947.625,1087.8125 C2947.1719,1088.2969 2947.1719,1088.2969 2946.9844,1088.3906 C2946.5625,1088.6563 2945.875,1088.7813 2945.1094,1088.7813 C2943.0625,1088.7813 2941.7656,1087.6875 2941.7656,1085.9844 L2941.7656,1084.8906 C2941.7656,1083.1094 2943.0156,1081.7969 2944.75,1081.7969 C2945.3281,1081.7969 2945.9375,1081.9531 2946.4063,1082.2031 C2946.8906,1082.4844 2947.0625,1082.7031 2947.1563,1083.1094 C2947.2188,1083.5156 2947.25,1083.6406 2947.3906,1083.7656 C2947.5313,1083.9063 2947.7656,1084.0156 2947.9844,1084.0156 C2948.25,1084.0156 2948.5156,1083.875 2948.6875,1083.6563 C2948.7969,1083.5 2948.8281,1083.3125 2948.8281,1082.8906 L2948.8281,1081.4688 C2948.8281,1081.0313 2948.8125,1080.9063 2948.7188,1080.75 C2948.5625,1080.4844 2948.2813,1080.3438 2947.9844,1080.3438 C2947.6875,1080.3438 2947.4844,1080.4375 2947.2656,1080.75 L2947.0938,1080.6719 Z " fill="#000000"/><text fill="#000000" font-family="sans-serif" font-size="14" lengthAdjust="spacing" textLength="40" x="2965.25" y="1089.8467">Audio</text><line style="stroke:#181818;stroke-width:0.5;" x1="2873" x2="3065" y1="1101" y2="1101"/><ellipse cx="2883" cy="1114.6484" fill="none" rx="3" ry="3" style="stroke:#038048;stroke-width:1.0;"/><text fill="#000000" font-family="sans-serif" font-size="14" lengthAdjust="spacing" textLength="143" x="2892" y="1117.9951">NDArray[float] array</text><ellipse cx="2883" cy="1130.9453" fill="none" rx="3" ry="3" style="stroke:#038048;stroke-width:1.0;"/><text fill="#000000" font-family="sans-serif" font-size="14" lengthAdjust="spacing" textLength="168" x="2892" y="1134.292">int sampling_frequency</text><line style="stroke:#181818;stroke-width:0.5;" x1="2873" x2="3065" y1="1141.5938" y2="1141.5938"/></g><!--class Experiment--><g id="elem_Experiment"><rect codeLine="186" fill="#F1F1F1" height="96.8906" id="Experiment" rx="2.5" ry="2.5" style="stroke:#181818;stroke-width:0.5;" width="876" x="1379" y="787"/><ellipse cx="1770.25" cy="803" fill="#ADD1B2" rx="11" ry="11" style="stroke:#181818;stroke-width:1.0;"/><path d="M1772.5938,798.6719 C1771.6563,798.2344 1771.0625,798.0938 1770.1875,798.0938 C1767.5625,798.0938 1765.5625,800.1719 1765.5625,802.8906 L1765.5625,804.0156 C1765.5625,806.5938 1767.6719,808.4844 1770.5625,808.4844 C1771.7813,808.4844 1772.9375,808.1875 1773.6875,807.6406 C1774.2656,807.2344 1774.5938,806.7813 1774.5938,806.3906 C1774.5938,805.9375 1774.2031,805.5469 1773.7344,805.5469 C1773.5156,805.5469 1773.3125,805.625 1773.125,805.8125 C1772.6719,806.2969 1772.6719,806.2969 1772.4844,806.3906 C1772.0625,806.6563 1771.375,806.7813 1770.6094,806.7813 C1768.5625,806.7813 1767.2656,805.6875 1767.2656,803.9844 L1767.2656,802.8906 C1767.2656,801.1094 1768.5156,799.7969 1770.25,799.7969 C1770.8281,799.7969 1771.4375,799.9531 1771.9063,800.2031 C1772.3906,800.4844 1772.5625,800.7031 1772.6563,801.1094 C1772.7188,801.5156 1772.75,801.6406 1772.8906,801.7656 C1773.0313,801.9063 1773.2656,802.0156 1773.4844,802.0156 C1773.75,802.0156 1774.0156,801.875 1774.1875,801.6563 C1774.2969,801.5 1774.3281,801.3125 1774.3281,800.8906 L1774.3281,799.4688 C1774.3281,799.0313 1774.3125,798.9063 1774.2188,798.75 C1774.0625,798.4844 1773.7813,798.3438 1773.4844,798.3438 C1773.1875,798.3438 1772.9844,798.4375 1772.7656,798.75 L1772.5938,798.6719 Z " fill="#000000"/><text fill="#000000" font-family="sans-serif" font-size="14" lengthAdjust="spacing" textLength="85" x="1790.75" y="807.8467">Experiment</text><line style="stroke:#181818;stroke-width:0.5;" x1="1380" x2="2254" y1="819" y2="819"/><line style="stroke:#181818;stroke-width:0.5;" x1="1380" x2="2254" y1="827" y2="827"/><ellipse cx="1390" cy="840.6484" fill="#84BE84" rx="3" ry="3" style="stroke:#038048;stroke-width:1.0;"/><text fill="#000000" font-family="sans-serif" font-size="14" lengthAdjust="spacing" textLength="850" x="1399" y="843.9951">Experiment(model: Model, view: AView, stimuli: List[Stimulus], auditory_stimulus_factories: List[AAudioTaggerFactory])</text><ellipse cx="1390" cy="856.9453" fill="#84BE84" rx="3" ry="3" style="stroke:#038048;stroke-width:1.0;"/><text fill="#000000" font-family="sans-serif" font-size="14" lengthAdjust="spacing" textLength="146" x="1399" y="860.292">void create_stimuli()</text><ellipse cx="1390" cy="873.2422" fill="#84BE84" rx="3" ry="3" style="stroke:#038048;stroke-width:1.0;"/><text fill="#000000" font-family="sans-serif" font-size="14" lengthAdjust="spacing" textLength="67" x="1399" y="876.5889">void run()</text></g><!--reverse link Stimulus to Audio--><g id="link_Stimulus_Audio"><path codeLine="70" d="M2666.879,1289.8368 C2742.059,1245.2108 2835.49,1189.754 2902.41,1150.026 " fill="none" id="Stimulus-backto-Audio" style="stroke:#181818;stroke-width:1.0;"/><polygon fill="#181818" points="2656.56,1295.962,2663.7612,1296.339,2666.879,1289.8368,2659.6777,1289.4597,2656.56,1295.962" style="stroke:#181818;stroke-width:1.0;"/><text fill="#000000" font-family="sans-serif" font-size="13" lengthAdjust="spacing" textLength="35" x="2731" y="1262.0669">audio</text><text fill="#000000" font-family="sans-serif" font-size="13" lengthAdjust="spacing" textLength="8" x="2660.0349" y="1284.8205">1</text><text fill="#000000" font-family="sans-serif" font-size="13" lengthAdjust="spacing" textLength="8" x="2883.1597" y="1169.79">1</text></g><!--link Audio to CreatedStimulus--><g id="link_Audio_CreatedStimulus"><path codeLine="75" d="M2871.95,1109.5 C2832.95,1109.5 2797.88,1109.5 2749.84,1109.5 " fill="none" id="Audio-to-CreatedStimulus" style="stroke:#181818;stroke-width:1.0;"/><polygon fill="#181818" points="2737.84,1109.5,2743.84,1113.5,2749.84,1109.5,2743.84,1105.5,2737.84,1109.5" style="stroke:#181818;stroke-width:1.0;"/><text fill="#000000" font-family="sans-serif" font-size="13" lengthAdjust="spacing" textLength="98" x="2755.75" y="1102.5669">modified_audio</text><text fill="#000000" font-family="sans-serif" font-size="13" lengthAdjust="spacing" textLength="8" x="2855.8976" y="1105.9907">1</text><text fill="#000000" font-family="sans-serif" font-size="13" lengthAdjust="spacing" textLength="8" x="2745.1404" y="1106.3655">1</text></g><!--link CreatedStimulus to Stimulus--><g id="link_CreatedStimulus_Stimulus"><path codeLine="78" d="M2479.35,1141.513 C2494.85,1180.415 2515.0383,1231.1011 2534.1383,1279.0451 " fill="none" id="CreatedStimulus-to-Stimulus" style="stroke:#181818;stroke-width:1.0;"/><polygon fill="none" points="2540.8,1295.767,2539.7123,1276.8245,2528.5643,1281.2657,2540.8,1295.767" style="stroke:#181818;stroke-width:1.0;"/></g><!--link AView to constants--><g id="link_AView_constants"><path codeLine="80" d="M1192.24,1219.241 C1163.73,1279.27 1145.13,1352.815 1183,1409 C1238.84,1491.8405 1342.6425,1534.3263 1433.0763,1556.1089 C1478.2931,1567.0002 1520.1678,1572.7157 1551.0339,1575.7119 C1566.467,1577.21 1579.1479,1578.0283 1588.1183,1578.4738 C1590.3609,1578.5852 1592.3716,1578.6732 1594.1355,1578.7428 C1594.3559,1578.7515 1588.5769,1578.5308 1588.7897,1578.539 " fill="none" id="AView-to-constants" style="stroke:#181818;stroke-width:1.0;stroke-dasharray:7.0,7.0;"/><polygon fill="#181818" points="1594.7853,1578.768,1585.9446,1574.4273,1589.7889,1578.5771,1585.6391,1582.4215,1594.7853,1578.768" style="stroke:#181818;stroke-width:1.0;"/><text fill="#000000" font-family="sans-serif" font-size="13" lengthAdjust="spacing" textLength="30" x="1184" y="1357.0669">uses</text></g><!--reverse link Model to CreatedStimulus--><g id="link_Model_CreatedStimulus"><path codeLine="82" d="M2067.35,1109.5 C2113.18,1109.5 2149.49,1109.5 2196.26,1109.5 " fill="none" id="Model-backto-CreatedStimulus" style="stroke:#181818;stroke-width:1.0;"/><polygon fill="#181818" points="2055.35,1109.5,2061.35,1113.5,2067.35,1109.5,2061.35,1105.5,2055.35,1109.5" style="stroke:#181818;stroke-width:1.0;"/><text fill="#000000" font-family="sans-serif" font-size="13" lengthAdjust="spacing" textLength="105" x="2073.25" y="1102.5669">stimulus_history</text><text fill="#000000" font-family="sans-serif" font-size="13" lengthAdjust="spacing" textLength="8" x="2063.3021" y="1106.3289">1</text><text fill="#000000" font-family="sans-serif" font-size="13" lengthAdjust="spacing" textLength="7" x="2181.1185" y="1106.3418">*</text></g><!--reverse link Model to EExperimentState--><g id="link_Model_EExperimentState"><path codeLine="83" d="M1862.9601,1214.0283 C1902.5701,1303.2293 1956.79,1425.37 1993.01,1506.942 " fill="none" id="Model-backto-EExperimentState" style="stroke:#181818;stroke-width:1.0;"/><polygon fill="none" points="1858.09,1203.061,1856.8693,1210.168,1862.9601,1214.0283,1864.1808,1206.9213,1858.09,1203.061" style="stroke:#181818;stroke-width:1.0;"/><text fill="#000000" font-family="sans-serif" font-size="13" lengthAdjust="spacing" textLength="114" x="1950" y="1357.0669">experiment_state</text><text fill="#000000" font-family="sans-serif" font-size="13" lengthAdjust="spacing" textLength="7" x="1853.8505" y="1222.5676">*</text><text fill="#000000" font-family="sans-serif" font-size="13" lengthAdjust="spacing" textLength="8" x="1981.2985" y="1495.7195">1</text></g><!--link AView to Model--><g id="link_AView_Model"><path codeLine="84" d="M1505.68,1109.5 C1530.01,1109.5 1542.68,1109.5 1566.94,1109.5 " fill="none" id="AView-to-Model" style="stroke:#181818;stroke-width:1.0;"/><polygon fill="none" points="1578.94,1109.5,1572.94,1105.5,1566.94,1109.5,1572.94,1113.5,1578.94,1109.5" style="stroke:#181818;stroke-width:1.0;"/><text fill="#000000" font-family="sans-serif" font-size="13" lengthAdjust="spacing" textLength="37" x="1523.75" y="1102.5669">views</text><text fill="#000000" font-family="sans-serif" font-size="13" lengthAdjust="spacing" textLength="7" x="1513.8234" y="1106.3191">*</text><text fill="#000000" font-family="sans-serif" font-size="13" lengthAdjust="spacing" textLength="8" x="1562.9974" y="1106.3289">1</text></g><!--link Model to EModelUpdateIdentifier--><g id="link_Model_EModelUpdateIdentifier"><path codeLine="85" d="M1804.75,1203.061 C1791.68,1301.862 1772.2573,1448.5819 1762.0873,1525.4209 " fill="none" id="Model-to-EModelUpdateIdentifier" style="stroke:#181818;stroke-width:1.0;stroke-dasharray:7.0,7.0;"/><polygon fill="#181818" points="1761.3,1531.369,1766.4463,1522.9717,1761.9561,1526.4122,1758.5155,1521.922,1761.3,1531.369" style="stroke:#181818;stroke-width:1.0;"/><text fill="#000000" font-family="sans-serif" font-size="13" lengthAdjust="spacing" textLength="30" x="1794" y="1357.0669">uses</text></g><!--reverse link AAuditoryTagger to Audio--><g id="link_AAuditoryTagger_Audio"><path codeLine="96" d="M1983.5228,95.0642 C2260.6028,104.6342 2857.1,131.52 2932,188.5 C2969.22,216.81 2969,240.24 2969,287 C2969,287 2969,287 2969,836.5 C2969,919.139 2969,1015.901 2969,1068.859 " fill="none" id="AAuditoryTagger-backto-Audio" style="stroke:#181818;stroke-width:1.0;"/><polygon fill="#181818" points="1971.53,94.65,1977.3884,98.8547,1983.5228,95.0642,1977.6645,90.8595,1971.53,94.65" style="stroke:#181818;stroke-width:1.0;"/><text fill="#000000" font-family="sans-serif" font-size="13" lengthAdjust="spacing" textLength="35" x="2970" y="626.0669">audio</text><text fill="#000000" font-family="sans-serif" font-size="13" lengthAdjust="spacing" textLength="8" x="1979.6544" y="91.588">1</text><text fill="#000000" font-family="sans-serif" font-size="13" lengthAdjust="spacing" textLength="8" x="2960.3375" y="1057.9972">1</text></g><!--reverse link AAuditoryTagger to RawTagger--><g id="link_AAuditoryTagger_RawTagger"><path codeLine="166" d="M1680.311,97.3082 C1438.851,108.9682 964.854,137.39 801,188.5 C752.698,203.57 702.85,233.01 668.59,255.79 " fill="none" id="AAuditoryTagger-backto-RawTagger" style="stroke:#181818;stroke-width:1.0;"/><polygon fill="none" points="1698.29,96.44,1680.0216,91.3152,1680.6004,103.3012,1698.29,96.44" style="stroke:#181818;stroke-width:1.0;"/></g><!--reverse link AAuditoryTagger to NoiseTaggingTagger--><g id="link_AAuditoryTagger_NoiseTaggingTagger"><path codeLine="167" d="M1680.9242,131.1147 C1612.3142,149.3547 1545.35,167.44 1470,188.5 C1457.9,191.88 1445.56,195.35 1433.11,198.88 " fill="none" id="AAuditoryTagger-backto-NoiseTaggingTagger" style="stroke:#181818;stroke-width:1.0;"/><polygon fill="none" points="1698.32,126.49,1679.3827,125.3161,1682.4658,136.9133,1698.32,126.49" style="stroke:#181818;stroke-width:1.0;"/></g><!--reverse link AAuditoryTagger to AMTagger--><g id="link_AAuditoryTagger_AMTagger"><path codeLine="168" d="M1835,156.07 C1835,184.12 1835,201.77 1835,231.16 " fill="none" id="AAuditoryTagger-backto-AMTagger" style="stroke:#181818;stroke-width:1.0;"/><polygon fill="none" points="1835,138.07,1829,156.07,1841,156.07,1835,138.07" style="stroke:#181818;stroke-width:1.0;"/></g><!--reverse link AAuditoryTagger to FMTagger--><g id="link_AAuditoryTagger_FMTagger"><path codeLine="169" d="M1988.9176,141.7582 C2082.0176,172.7682 2187.89,208.03 2282.22,239.45 " fill="none" id="AAuditoryTagger-backto-FMTagger" style="stroke:#181818;stroke-width:1.0;"/><polygon fill="none" points="1971.84,136.07,1987.0215,147.4508,1990.8137,136.0657,1971.84,136.07" style="stroke:#181818;stroke-width:1.0;"/></g><!--link AMTaggerFactory to AAudioTaggerFactory--><g id="link_AMTaggerFactory_AAudioTaggerFactory"><path codeLine="171" d="M1829.16,575.18 C1826.22,603.15 1824.6468,618.1081 1822.1768,641.6681 " fill="none" id="AMTaggerFactory-to-AAudioTaggerFactory" style="stroke:#181818;stroke-width:1.0;"/><polygon fill="none" points="1820.3,659.57,1828.1441,642.2937,1816.2095,641.0425,1820.3,659.57" style="stroke:#181818;stroke-width:1.0;"/></g><!--link FMTaggerFactory to AAudioTaggerFactory--><g id="link_FMTaggerFactory_AAudioTaggerFactory"><path codeLine="172" d="M2359.08,567.04 C2229.35,596.71 2083.6369,630.0266 1970.3569,655.9366 " fill="none" id="FMTaggerFactory-to-AAudioTaggerFactory" style="stroke:#181818;stroke-width:1.0;"/><polygon fill="none" points="1952.81,659.95,1971.6947,661.7855,1969.0191,650.0876,1952.81,659.95" style="stroke:#181818;stroke-width:1.0;"/></g><!--link NoiseTaggingTaggerFactory to AAudioTaggerFactory--><g id="link_NoiseTaggingTaggerFactory_AAudioTaggerFactory"><path codeLine="173" d="M1367.6,583.06 C1476.96,609.32 1581.2478,634.3762 1670.4278,655.7962 " fill="none" id="NoiseTaggingTaggerFactory-to-AAudioTaggerFactory" style="stroke:#181818;stroke-width:1.0;"/><polygon fill="none" points="1687.93,660,1671.8291,649.9621,1669.0265,661.6302,1687.93,660" style="stroke:#181818;stroke-width:1.0;"/></g><!--link RawTaggerFactory to AAudioTaggerFactory--><g id="link_RawTaggerFactory_AAudioTaggerFactory"><path codeLine="174" d="M494.775,550.55 C565.341,567.2 655.662,586.75 737,599 C980.767,635.7 1239.8986,657.7516 1452.3786,671.6916 " fill="none" id="RawTaggerFactory-to-AAudioTaggerFactory" style="stroke:#181818;stroke-width:1.0;"/><polygon fill="none" points="1470.34,672.87,1452.7714,665.7045,1451.9858,677.6788,1470.34,672.87" style="stroke:#181818;stroke-width:1.0;"/></g><!--reverse link AMTagger to AMTaggerFactory--><g id="link_AMTagger_AMTaggerFactory"><path codeLine="176" d="M1835,350.61 C1835,386.14 1835,426.06 1835,461.65 " fill="none" id="AMTagger-backto-AMTaggerFactory" style="stroke:#181818;stroke-width:1.0;stroke-dasharray:7.0,7.0;"/><polygon fill="#181818" points="1835,344.61,1831,353.61,1835,349.61,1839,353.61,1835,344.61" style="stroke:#181818;stroke-width:1.0;"/><text fill="#000000" font-family="sans-serif" font-size="13" lengthAdjust="spacing" textLength="48" x="1836" y="420.0669">creates</text></g><!--reverse link FMTagger to FMTaggerFactory--><g id="link_FMTagger_FMTaggerFactory"><path codeLine="177" d="M2457.7665,341.7164 C2482.0665,380.8264 2513.15,430.85 2537.44,469.94 " fill="none" id="FMTagger-backto-FMTaggerFactory" style="stroke:#181818;stroke-width:1.0;stroke-dasharray:7.0,7.0;"/><polygon fill="#181818" points="2454.6,336.62,2455.9522,346.3756,2457.2388,340.867,2462.7474,342.1536,2454.6,336.62" style="stroke:#181818;stroke-width:1.0;"/><text fill="#000000" font-family="sans-serif" font-size="13" lengthAdjust="spacing" textLength="48" x="2510" y="420.0669">creates</text></g><!--reverse link NoiseTaggingTagger to NoiseTaggingTaggerFactory--><g id="link_NoiseTaggingTagger_NoiseTaggingTaggerFactory"><path codeLine="178" d="M1119.4807,382.9755 C1116.3407,408.6155 1113.7,430.18 1110.78,453.99 " fill="none" id="NoiseTaggingTagger-backto-NoiseTaggingTaggerFactory" style="stroke:#181818;stroke-width:1.0;stroke-dasharray:7.0,7.0;"/><polygon fill="#181818" points="1120.21,377.02,1115.1457,385.467,1119.6022,381.9829,1123.0863,386.4395,1120.21,377.02" style="stroke:#181818;stroke-width:1.0;"/><text fill="#000000" font-family="sans-serif" font-size="13" lengthAdjust="spacing" textLength="48" x="1118" y="420.0669">creates</text></g><!--reverse link RawTagger to RawTaggerFactory--><g id="link_RawTagger_RawTaggerFactory"><path codeLine="179" d="M586.0197,324.0632 C537.5957,367.6332 454.454,442.42 405.852,486.15 " fill="none" id="RawTagger-backto-RawTaggerFactory" style="stroke:#181818;stroke-width:1.0;stroke-dasharray:7.0,7.0;"/><polygon fill="#181818" points="590.48,320.05,581.1141,323.0963,586.7631,323.3943,586.465,329.0433,590.48,320.05" style="stroke:#181818;stroke-width:1.0;"/><text fill="#000000" font-family="sans-serif" font-size="13" lengthAdjust="spacing" textLength="48" x="492" y="420.0669">creates</text></g><!--reverse link AView to PsychopyView--><g id="link_AView_PsychopyView"><path codeLine="181" d="M1343.9827,1233.953 C1371.5327,1274.932 1390.29,1302.841 1407.43,1328.344 " fill="none" id="AView-backto-PsychopyView" style="stroke:#181818;stroke-width:1.0;"/><polygon fill="none" points="1333.94,1219.015,1339.0034,1237.3006,1348.9621,1230.6054,1333.94,1219.015" style="stroke:#181818;stroke-width:1.0;"/></g><!--reverse link AView to CLIView--><g id="link_AView_CLIView"><path codeLine="182" d="M1269.3921,1236.9755 C1272.1121,1277.9545 1273.77,1302.841 1275.46,1328.344 " fill="none" id="AView-backto-CLIView" style="stroke:#181818;stroke-width:1.0;"/><polygon fill="none" points="1268.2,1219.015,1263.4053,1237.3729,1275.379,1236.5781,1268.2,1219.015" style="stroke:#181818;stroke-width:1.0;"/></g><!--reverse link Experiment to Model--><g id="link_Experiment_Model"><path codeLine="191" d="M1817,896.19 C1817,932.528 1817,971.685 1817,1015.97 " fill="none" id="Experiment-backto-Model" style="stroke:#181818;stroke-width:1.0;"/><polygon fill="#181818" points="1817,884.19,1813,890.19,1817,896.19,1821,890.19,1817,884.19" style="stroke:#181818;stroke-width:1.0;"/><text fill="#000000" font-family="sans-serif" font-size="13" lengthAdjust="spacing" textLength="8" x="1808.4625" y="903.8237">1</text><text fill="#000000" font-family="sans-serif" font-size="13" lengthAdjust="spacing" textLength="8" x="1808.6813" y="1005.0057">1</text></g><!--reverse link Experiment to AView--><g id="link_Experiment_AView"><path codeLine="192" d="M1704.5468,889.1924 C1657.9868,911.1544 1613.01,932.599 1563,957 C1534.8,970.762 1505.19,985.389 1476,999.918 " fill="none" id="Experiment-backto-AView" style="stroke:#181818;stroke-width:1.0;"/><polygon fill="#181818" points="1715.4,884.073,1708.2669,883.015,1704.5468,889.1924,1711.6799,890.2504,1715.4,884.073" style="stroke:#181818;stroke-width:1.0;"/><text fill="#000000" font-family="sans-serif" font-size="13" lengthAdjust="spacing" textLength="8" x="1692.55" y="904.0422">1</text><text fill="#000000" font-family="sans-serif" font-size="13" lengthAdjust="spacing" textLength="8" x="1482.1766" y="989.115">1</text></g><!--link AAudioTaggerFactory to Experiment--><g id="link_AAudioTaggerFactory_Experiment"><path codeLine="193" d="M1817,724.05 C1817,742.439 1817,754.113 1817,774.824 " fill="none" id="AAudioTaggerFactory-to-Experiment" style="stroke:#181818;stroke-width:1.0;"/><polygon fill="#181818" points="1817,786.824,1821,780.824,1817,774.824,1813,780.824,1817,786.824" style="stroke:#181818;stroke-width:1.0;"/><text fill="#000000" font-family="sans-serif" font-size="13" lengthAdjust="spacing" textLength="7" x="1809.2781" y="744.2572">*</text><text fill="#000000" font-family="sans-serif" font-size="13" lengthAdjust="spacing" textLength="8" x="1808.4375" y="776.0082">1</text></g><!--reverse link Experiment to CreatedStimulus--><g id="link_Experiment_CreatedStimulus"><path codeLine="194" d="M1941.6599,888.6663 C2074.4899,944.2503 2279.47,1030.028 2392.59,1077.361 " fill="none" id="Experiment-backto-CreatedStimulus" style="stroke:#181818;stroke-width:1.0;"/><polygon fill="#181818" points="1930.59,884.034,1934.5808,890.0401,1941.6599,888.6663,1937.669,882.6602,1930.59,884.034" style="stroke:#181818;stroke-width:1.0;"/><path d="M2089,919 L2089,944 L2347,944 L2347,929 L2337,919 L2089,919 " fill="#FEFFDD" style="stroke:#181818;stroke-width:0.5;"/><path d="M2337,919 L2337,929 L2347,929 L2337,919 " fill="#FEFFDD" style="stroke:#181818;stroke-width:0.5;"/><text fill="#000000" font-family="sans-serif" font-size="13" lengthAdjust="spacing" textLength="237" x="2095" y="936.0669">Created by calling  `create_stimuli()`</text><text fill="#000000" font-family="sans-serif" font-size="13" lengthAdjust="spacing" textLength="8" x="1938.0011" y="903.9977">1</text><text fill="#000000" font-family="sans-serif" font-size="13" lengthAdjust="spacing" textLength="7" x="2369.5211" y="1066.2354">*</text></g><!--SRC=[nLZVRzis47xNNq6uBqeZPzYh4HWm7AKpa3X1x7GR0aEb9TeMAekQI2KrslplFVwGI56ocmBhbeSuuHtllhlxU3mwfvmWp53k8NIv7i_XtylVrkCHMbB4y3D1hC0n2L1CSyRBAkQqH0KkyPvmKY9-A0WBOElBBertQ8yv_EOxeWI8RkG_SOOPCxla1bmIb5CEvacSRbAIU2HFn0hnFAK_gPAKeg-WgtxEvrUJiiI7fqr6CL-11VZ7IDCSZE5zaQNvDjgKv9-AvB6IlteU1F4PRmbwJicBjedN412EkOOt-GYYoykxDIFbCod7OylrkodEChpEoDEJHBKAq9pcP8KOhV8aAZ9y8ANHlafZ_XI6NmfIfdkIymN7759uL_2KvZXx0h-h5IADFEBa2sUUYKLYyMtZGKVzpEY_UwPfWhxM0RsYgaZ0OvIJbuZnT5zb5VFhFqPeMXAG9WkzSFOZEuaqL0ZdfQy-HWXKVhWniZ0paOCetk5yIn8Vf7Y4t1GPW-VIeBAYbIVv8K1f0hg2Be0WlAK9oHwbpgnPDoRMb6OsfYtX4R1uavP0KoY4xxgpT5zmodr6OiWMyEgiPf7uK6ovPuTuHul3HyEdbdnwCsk9B0hk1MmjKCeo45HpJ_1iF3Ra6zwaZ4lE89NyQ0SBj3nO6dIxXTEOoG_3Yw4qxAjb4-rGHWj7BTqSVYwvRiPAiWKem0fnh4P8HEog_2m7pIvDk3VlKTpgSCvN2E2lOuJJXQlh8piTpZdJDI9vjU_ij9h3R3wPBcSVGsjX-N1tzGYBT_DcyI5SB6Vp3z5YELc6KVXtk8ZkxiEJykdDtIAyQZJ2l-x3XzbjE5z6lHwCt8vAeU-jfXN3FFmJFCzk7syU5wt5Us7neG-30ZhzOpB_e46-Tez1NIkxZGEJWSXqNt1tJTJRh1dQKzaucIDQLWKqP7aP14ZT2Ii4_eYezhvW5gO6nk3t0Ne_7CfFsSb728kFrj5jqyo2xaes44KVkMk5G9nrURb5M3cJFiyiPAv91J1h8MmRyRpUZSFXjt7Z6DgDl4BGnSNOy7c41XKZRE1vgk4eNoNuUZzmxO5k7K_TRWRrDj2cGvr4zrp0FlS03Ynt549J_YI-aRoFcLOGOFkPQf0tNLJaGg2AEDvkuSe_SgbFjDeIomvPr_9T9XY4skn1S9_BcDC8chxen5bpAPyxbdnPYw3USDQegQ75t2InpAlVwZGkgkEiF1eJLLkliHZ83arSvxQm2oDgijQmrYPcq8r_X8wTjTxU2VXAMP5MTz6uRvUk0EuYCRQrfpKjC2CNg0Ie_YL6h_OS2EwYBSb9YI4opp9nFbai7dhBPU8BZFEWRUciPKcMjLLBAteJu_KROhJjrlflmNSAq754TTPTflmxoJ-P_RPd_ss9jldxgqXxidHlI5HV1JjH_bzXTUxWEKqPMQekwR1ps3n9H74H8_0Cio9UfpnwIHE-inSpac_vBW9PtNCQ8rFetIkuRnBIjCskynDK1viiWiiZWicRvib8ySuu32H2fzSwXr8Djr5DBtXo09mUALS2PVpObDz5xxAZpfED-sIs-b9-F5argnmFfvBoNp2jbQG7_EBGggyo_LjEtr-_3ZwWSI_Xoszm0pV0-iNT0lNhrQslNrgt38t1kSf1fHgwRVk4vlMRDO_IwyGUjrA0kRxYBYykN9WmfwcQmQXsRUjT7zVhQKzYnr6mzbv3FR75nMfhwdbOvjz-kzlh-iqEKvV-1ihCjfgWvsR5by_uaNgx1qWzWAMnXf2QXlL83PTdXydHHa9DIStPdafeqkf7hZeIseDlYyfAVANnwbcerM2PgCbI8krAIprtoj0xqafFwrrONTtUXuGdlj93D4TPcdzktl1eVK0np1XYS4UVtA0-VGS0]--></g></svg>