<?xml version="1.0" encoding="us-ascii" standalone="no"?><svg xmlns="http://www.w3.org/2000/svg" xmlns:xlink="http://www.w3.org/1999/xlink" contentStyleType="text/css" height="1636px" preserveAspectRatio="none" style="width:3337px;height:1636px;background:#FFFFFF;" version="1.1" viewBox="0 0 3337 1636" width="3337px" zoomAndPan="magnify"><defs/><g><!--cluster view--><g id="cluster_view"><path d="M526.5,773 L563.5,773 A3.75,3.75 0 0 1 566,775.5 L573,795.2969 L1043.5,795.2969 A2.5,2.5 0 0 1 1046,797.7969 L1046,1265.5 A2.5,2.5 0 0 1 1043.5,1268 L526.5,1268 A2.5,2.5 0 0 1 524,1265.5 L524,775.5 A2.5,2.5 0 0 1 526.5,773 " fill="none" style="stroke:#000000;stroke-width:1.5;"/><line style="stroke:#000000;stroke-width:1.5;" x1="524" x2="573" y1="795.2969" y2="795.2969"/><text fill="#000000" font-family="sans-serif" font-size="14" font-weight="bold" lengthAdjust="spacing" textLength="36" x="528" y="787.9951">view</text></g><!--cluster model--><g id="cluster_model"><path d="M1072.5,1108 L1122.5,1108 A3.75,3.75 0 0 1 1125,1110.5 L1132,1130.2969 L2751.5,1130.2969 A2.5,2.5 0 0 1 2754,1132.7969 L2754,1626.5 A2.5,2.5 0 0 1 2751.5,1629 L1072.5,1629 A2.5,2.5 0 0 1 1070,1626.5 L1070,1110.5 A2.5,2.5 0 0 1 1072.5,1108 " fill="none" style="stroke:#000000;stroke-width:1.5;"/><line style="stroke:#000000;stroke-width:1.5;" x1="1070" x2="1132" y1="1130.2969" y2="1130.2969"/><text fill="#000000" font-family="sans-serif" font-size="14" font-weight="bold" lengthAdjust="spacing" textLength="49" x="1074" y="1122.9951">model</text></g><!--cluster constants--><g id="cluster_constants"><path d="M1443.5,1384 L1527.5,1384 A3.75,3.75 0 0 1 1530,1386.5 L1537,1406.2969 L2010.5,1406.2969 A2.5,2.5 0 0 1 2013,1408.7969 L2013,1594.5 A2.5,2.5 0 0 1 2010.5,1597 L1443.5,1597 A2.5,2.5 0 0 1 1441,1594.5 L1441,1386.5 A2.5,2.5 0 0 1 1443.5,1384 " fill="none" style="stroke:#000000;stroke-width:1.5;"/><line style="stroke:#000000;stroke-width:1.5;" x1="1441" x2="1537" y1="1406.2969" y2="1406.2969"/><text fill="#000000" font-family="sans-serif" font-size="14" font-weight="bold" lengthAdjust="spacing" textLength="83" x="1445" y="1398.9951">constants</text></g><!--cluster auditory_tagging--><g id="cluster_auditory_tagging"><path d="M8.5,6 L148.5,6 A3.75,3.75 0 0 1 151,8.5 L158,28.2969 L2953.5,28.2969 A2.5,2.5 0 0 1 2956,30.7969 L2956,737.5 A2.5,2.5 0 0 1 2953.5,740 L8.5,740 A2.5,2.5 0 0 1 6,737.5 L6,8.5 A2.5,2.5 0 0 1 8.5,6 " fill="none" style="stroke:#000000;stroke-width:1.5;"/><line style="stroke:#000000;stroke-width:1.5;" x1="6" x2="158" y1="28.2969" y2="28.2969"/><text fill="#000000" font-family="sans-serif" font-size="14" font-weight="bold" lengthAdjust="spacing" textLength="139" x="10" y="20.9951">auditory_tagging</text></g><!--cluster assr_tagger--><g id="cluster_assr_tagger"><path d="M1472.5,196.5 L1569.5,196.5 A3.75,3.75 0 0 1 1572,199 L1579,218.7969 L2929.5,218.7969 A2.5,2.5 0 0 1 2932,221.2969 L2932,588.5 A2.5,2.5 0 0 1 2929.5,591 L1472.5,591 A2.5,2.5 0 0 1 1470,588.5 L1470,199 A2.5,2.5 0 0 1 1472.5,196.5 " fill="none" style="stroke:#000000;stroke-width:1.5;"/><line style="stroke:#000000;stroke-width:1.5;" x1="1470" x2="1579" y1="218.7969" y2="218.7969"/><text fill="#000000" font-family="sans-serif" font-size="14" font-weight="bold" lengthAdjust="spacing" textLength="96" x="1474" y="211.4951">assr_tagger</text></g><!--class AView--><g id="elem_AView"><rect codeLine="13" fill="#F1F1F1" height="219.2344" id="AView" rx="2.5" ry="2.5" style="stroke:#181818;stroke-width:0.5;" width="489" x="540.5" y="808"/><ellipse cx="748.75" cy="828.1328" fill="#A9DCDF" rx="11" ry="11" style="stroke:#181818;stroke-width:1.0;"/><path d="M750.8281,829.9453 L751.2188,830.9297 L750.8281,830.9297 C750.375,830.9297 750.2656,830.9453 750.1094,831.0547 C749.8594,831.2109 749.7031,831.4922 749.7031,831.7891 C749.7031,832.0547 749.8438,832.3047 750.0625,832.4609 C750.2031,832.5859 750.4063,832.6328 750.8281,832.6328 L753.1875,832.6328 C753.5469,832.6328 753.7656,832.6016 753.9063,832.5078 C754.1563,832.3672 754.3125,832.0703 754.3125,831.7891 C754.3125,831.5078 754.1719,831.2578 753.9531,831.1016 C753.7813,830.9609 753.625,830.9297 753.1563,830.9297 L749.7656,822.7266 L746.0938,822.7266 C745.6406,822.7266 745.5156,822.7422 745.3594,822.8359 C745.1094,823.0078 744.9531,823.2891 744.9531,823.5703 C744.9531,823.8516 745.0938,824.1016 745.3125,824.2734 C745.4844,824.3828 745.6563,824.4141 746.0938,824.4141 L747.1719,824.4141 L744.5313,830.9297 C744.1094,830.9297 743.9531,830.9453 743.7969,831.0547 C743.5469,831.2109 743.3906,831.4922 743.3906,831.7891 C743.3906,832.3516 743.7656,832.6328 744.5156,832.6328 L746.7813,832.6328 C747.1406,832.6328 747.3594,832.6016 747.4844,832.5078 C747.75,832.3672 747.8906,832.0703 747.8906,831.7891 C747.8906,831.5078 747.7656,831.2578 747.5469,831.0859 C747.375,830.9609 747.2344,830.9297 746.7813,830.9297 L746.3906,830.9297 L746.7813,829.9453 L750.8281,829.9453 Z M750.125,828.2422 L747.4531,828.2422 L748.7969,824.9766 L750.125,828.2422 Z " fill="#000000"/><text fill="#000000" font-family="sans-serif" font-size="12" font-style="italic" lengthAdjust="spacing" textLength="68" x="767.25" y="824.1387">&#171;Observer&#187;</text><text fill="#000000" font-family="sans-serif" font-size="14" font-style="italic" lengthAdjust="spacing" textLength="44" x="779.25" y="839.9639">AView</text><line style="stroke:#181818;stroke-width:0.5;" x1="541.5" x2="1028.5" y1="848.2656" y2="848.2656"/><polygon fill="none" points="551.5,856.9141,555.5,860.9141,551.5,864.9141,547.5,860.9141" style="stroke:#B38D22;stroke-width:1.0;"/><text fill="#000000" font-family="sans-serif" font-size="14" lengthAdjust="spacing" textLength="260" x="560.5" y="865.2607">Callable[[Audio], None] sound_player</text><polygon fill="none" points="551.5,873.2109,555.5,877.2109,551.5,881.2109,547.5,877.2109" style="stroke:#B38D22;stroke-width:1.0;"/><text fill="#000000" font-family="sans-serif" font-size="14" lengthAdjust="spacing" textLength="408" x="560.5" y="881.5576">Dict[EExperimentState, Optional[str]] experiment_texts</text><line style="stroke:#181818;stroke-width:0.5;" x1="541.5" x2="1028.5" y1="888.8594" y2="888.8594"/><ellipse cx="551.5" cy="902.5078" fill="#84BE84" rx="3" ry="3" style="stroke:#038048;stroke-width:1.0;"/><text fill="#000000" font-family="sans-serif" font-size="14" lengthAdjust="spacing" textLength="286" x="560.5" y="905.8545">AView(sound_player, experiment_texts)</text><text fill="#000000" font-family="sans-serif" font-size="14" lengthAdjust="spacing" textLength="4" x="560.5" y="922.1514">&#160;</text><polygon fill="#FFFF44" points="551.5,930.1016,555.5,934.1016,551.5,938.1016,547.5,934.1016" style="stroke:#B38D22;stroke-width:1.0;"/><text fill="#000000" font-family="sans-serif" font-size="14" font-style="italic" lengthAdjust="spacing" textLength="382" x="560.5" y="938.4482">void update_new_stimulus(stimulus: CreatedStimulus)</text><polygon fill="#FFFF44" points="551.5,946.3984,555.5,950.3984,551.5,954.3984,547.5,950.3984" style="stroke:#B38D22;stroke-width:1.0;"/><text fill="#000000" font-family="sans-serif" font-size="14" font-style="italic" lengthAdjust="spacing" textLength="269" x="560.5" y="954.7451">void updated_new_primer(primer: str)</text><polygon fill="#FFFF44" points="551.5,962.6953,555.5,966.6953,551.5,970.6953,547.5,966.6953" style="stroke:#B38D22;stroke-width:1.0;"/><text fill="#000000" font-family="sans-serif" font-size="14" font-style="italic" lengthAdjust="spacing" textLength="463" x="560.5" y="971.042">void update_experiment_state_changed(data: EExperimentState)</text><ellipse cx="551.5" cy="983.9922" fill="#84BE84" rx="3" ry="3" style="stroke:#038048;stroke-width:1.0;"/><text fill="#000000" font-family="sans-serif" font-size="14" lengthAdjust="spacing" textLength="413" x="560.5" y="987.3389">void update(data: Any, identifier: EModelUpdateIdentifier</text><ellipse cx="551.5" cy="1000.2891" fill="#84BE84" rx="3" ry="3" style="stroke:#038048;stroke-width:1.0;"/><text fill="#000000" font-family="sans-serif" font-size="14" font-style="italic" lengthAdjust="spacing" textLength="166" x="560.5" y="1003.6357">bool get_confirmation()</text><ellipse cx="551.5" cy="1016.5859" fill="#84BE84" rx="3" ry="3" style="stroke:#038048;stroke-width:1.0;"/><text fill="#000000" font-family="sans-serif" font-size="14" font-style="italic" lengthAdjust="spacing" textLength="131" x="560.5" y="1019.9326">void wait(secs: int)</text></g><!--class PsychopyView--><g id="elem_PsychopyView"><rect codeLine="27" fill="#F1F1F1" height="48" id="PsychopyView" rx="2.5" ry="2.5" style="stroke:#181818;stroke-width:0.5;" width="134" x="679" y="1204"/><ellipse cx="694" cy="1220" fill="#ADD1B2" rx="11" ry="11" style="stroke:#181818;stroke-width:1.0;"/><path d="M696.3438,1215.6719 C695.4063,1215.2344 694.8125,1215.0938 693.9375,1215.0938 C691.3125,1215.0938 689.3125,1217.1719 689.3125,1219.8906 L689.3125,1221.0156 C689.3125,1223.5938 691.4219,1225.4844 694.3125,1225.4844 C695.5313,1225.4844 696.6875,1225.1875 697.4375,1224.6406 C698.0156,1224.2344 698.3438,1223.7813 698.3438,1223.3906 C698.3438,1222.9375 697.9531,1222.5469 697.4844,1222.5469 C697.2656,1222.5469 697.0625,1222.625 696.875,1222.8125 C696.4219,1223.2969 696.4219,1223.2969 696.2344,1223.3906 C695.8125,1223.6563 695.125,1223.7813 694.3594,1223.7813 C692.3125,1223.7813 691.0156,1222.6875 691.0156,1220.9844 L691.0156,1219.8906 C691.0156,1218.1094 692.2656,1216.7969 694,1216.7969 C694.5781,1216.7969 695.1875,1216.9531 695.6563,1217.2031 C696.1406,1217.4844 696.3125,1217.7031 696.4063,1218.1094 C696.4688,1218.5156 696.5,1218.6406 696.6406,1218.7656 C696.7813,1218.9063 697.0156,1219.0156 697.2344,1219.0156 C697.5,1219.0156 697.7656,1218.875 697.9375,1218.6563 C698.0469,1218.5 698.0781,1218.3125 698.0781,1217.8906 L698.0781,1216.4688 C698.0781,1216.0313 698.0625,1215.9063 697.9688,1215.75 C697.8125,1215.4844 697.5313,1215.3438 697.2344,1215.3438 C696.9375,1215.3438 696.7344,1215.4375 696.5156,1215.75 L696.3438,1215.6719 Z " fill="#000000"/><text fill="#000000" font-family="sans-serif" font-size="14" lengthAdjust="spacing" textLength="102" x="708" y="1224.8467">PsychopyView</text><line style="stroke:#181818;stroke-width:0.5;" x1="680" x2="812" y1="1236" y2="1236"/><line style="stroke:#181818;stroke-width:0.5;" x1="680" x2="812" y1="1244" y2="1244"/></g><!--class CLIView--><g id="elem_CLIView"><rect codeLine="30" fill="#F1F1F1" height="48" id="CLIView" rx="2.5" ry="2.5" style="stroke:#181818;stroke-width:0.5;" width="88" x="848" y="1204"/><ellipse cx="863" cy="1220" fill="#ADD1B2" rx="11" ry="11" style="stroke:#181818;stroke-width:1.0;"/><path d="M865.3438,1215.6719 C864.4063,1215.2344 863.8125,1215.0938 862.9375,1215.0938 C860.3125,1215.0938 858.3125,1217.1719 858.3125,1219.8906 L858.3125,1221.0156 C858.3125,1223.5938 860.4219,1225.4844 863.3125,1225.4844 C864.5313,1225.4844 865.6875,1225.1875 866.4375,1224.6406 C867.0156,1224.2344 867.3438,1223.7813 867.3438,1223.3906 C867.3438,1222.9375 866.9531,1222.5469 866.4844,1222.5469 C866.2656,1222.5469 866.0625,1222.625 865.875,1222.8125 C865.4219,1223.2969 865.4219,1223.2969 865.2344,1223.3906 C864.8125,1223.6563 864.125,1223.7813 863.3594,1223.7813 C861.3125,1223.7813 860.0156,1222.6875 860.0156,1220.9844 L860.0156,1219.8906 C860.0156,1218.1094 861.2656,1216.7969 863,1216.7969 C863.5781,1216.7969 864.1875,1216.9531 864.6563,1217.2031 C865.1406,1217.4844 865.3125,1217.7031 865.4063,1218.1094 C865.4688,1218.5156 865.5,1218.6406 865.6406,1218.7656 C865.7813,1218.9063 866.0156,1219.0156 866.2344,1219.0156 C866.5,1219.0156 866.7656,1218.875 866.9375,1218.6563 C867.0469,1218.5 867.0781,1218.3125 867.0781,1217.8906 L867.0781,1216.4688 C867.0781,1216.0313 867.0625,1215.9063 866.9688,1215.75 C866.8125,1215.4844 866.5313,1215.3438 866.2344,1215.3438 C865.9375,1215.3438 865.7344,1215.4375 865.5156,1215.75 L865.3438,1215.6719 Z " fill="#000000"/><text fill="#000000" font-family="sans-serif" font-size="14" lengthAdjust="spacing" textLength="56" x="877" y="1224.8467">CLIView</text><line style="stroke:#181818;stroke-width:0.5;" x1="849" x2="935" y1="1236" y2="1236"/><line style="stroke:#181818;stroke-width:0.5;" x1="849" x2="935" y1="1244" y2="1244"/></g><!--class AObserver--><g id="elem_AObserver"><rect codeLine="35" fill="#F1F1F1" height="64.2969" id="AObserver" rx="2.5" ry="2.5" style="stroke:#181818;stroke-width:0.5;" width="444" x="1086" y="1196"/><ellipse cx="1266.25" cy="1212" fill="#A9DCDF" rx="11" ry="11" style="stroke:#181818;stroke-width:1.0;"/><path d="M1268.3281,1213.8125 L1268.7188,1214.7969 L1268.3281,1214.7969 C1267.875,1214.7969 1267.7656,1214.8125 1267.6094,1214.9219 C1267.3594,1215.0781 1267.2031,1215.3594 1267.2031,1215.6563 C1267.2031,1215.9219 1267.3438,1216.1719 1267.5625,1216.3281 C1267.7031,1216.4531 1267.9063,1216.5 1268.3281,1216.5 L1270.6875,1216.5 C1271.0469,1216.5 1271.2656,1216.4688 1271.4063,1216.375 C1271.6563,1216.2344 1271.8125,1215.9375 1271.8125,1215.6563 C1271.8125,1215.375 1271.6719,1215.125 1271.4531,1214.9688 C1271.2813,1214.8281 1271.125,1214.7969 1270.6563,1214.7969 L1267.2656,1206.5938 L1263.5938,1206.5938 C1263.1406,1206.5938 1263.0156,1206.6094 1262.8594,1206.7031 C1262.6094,1206.875 1262.4531,1207.1563 1262.4531,1207.4375 C1262.4531,1207.7188 1262.5938,1207.9688 1262.8125,1208.1406 C1262.9844,1208.25 1263.1563,1208.2813 1263.5938,1208.2813 L1264.6719,1208.2813 L1262.0313,1214.7969 C1261.6094,1214.7969 1261.4531,1214.8125 1261.2969,1214.9219 C1261.0469,1215.0781 1260.8906,1215.3594 1260.8906,1215.6563 C1260.8906,1216.2188 1261.2656,1216.5 1262.0156,1216.5 L1264.2813,1216.5 C1264.6406,1216.5 1264.8594,1216.4688 1264.9844,1216.375 C1265.25,1216.2344 1265.3906,1215.9375 1265.3906,1215.6563 C1265.3906,1215.375 1265.2656,1215.125 1265.0469,1214.9531 C1264.875,1214.8281 1264.7344,1214.7969 1264.2813,1214.7969 L1263.8906,1214.7969 L1264.2813,1213.8125 L1268.3281,1213.8125 Z M1267.625,1212.1094 L1264.9531,1212.1094 L1266.2969,1208.8438 L1267.625,1212.1094 Z " fill="#000000"/><text fill="#000000" font-family="sans-serif" font-size="14" font-style="italic" lengthAdjust="spacing" textLength="75" x="1286.75" y="1216.8467">AObserver</text><line style="stroke:#181818;stroke-width:0.5;" x1="1087" x2="1529" y1="1228" y2="1228"/><line style="stroke:#181818;stroke-width:0.5;" x1="1087" x2="1529" y1="1236" y2="1236"/><ellipse cx="1097" cy="1249.6484" fill="#84BE84" rx="3" ry="3" style="stroke:#038048;stroke-width:1.0;"/><text fill="#000000" font-family="sans-serif" font-size="14" lengthAdjust="spacing" textLength="418" x="1106" y="1252.9951">void update(data: Any, identifier: EModelUpdateIdentifier)</text></g><!--class Model--><g id="elem_Model"><rect codeLine="39" fill="#F1F1F1" height="170.3438" id="Model" rx="2.5" ry="2.5" style="stroke:#181818;stroke-width:0.5;" width="476" x="1565" y="1143"/><ellipse cx="1760.25" cy="1163.1328" fill="#ADD1B2" rx="11" ry="11" style="stroke:#181818;stroke-width:1.0;"/><path d="M1762.5938,1158.8047 C1761.6563,1158.3672 1761.0625,1158.2266 1760.1875,1158.2266 C1757.5625,1158.2266 1755.5625,1160.3047 1755.5625,1163.0234 L1755.5625,1164.1484 C1755.5625,1166.7266 1757.6719,1168.6172 1760.5625,1168.6172 C1761.7813,1168.6172 1762.9375,1168.3203 1763.6875,1167.7734 C1764.2656,1167.3672 1764.5938,1166.9141 1764.5938,1166.5234 C1764.5938,1166.0703 1764.2031,1165.6797 1763.7344,1165.6797 C1763.5156,1165.6797 1763.3125,1165.7578 1763.125,1165.9453 C1762.6719,1166.4297 1762.6719,1166.4297 1762.4844,1166.5234 C1762.0625,1166.7891 1761.375,1166.9141 1760.6094,1166.9141 C1758.5625,1166.9141 1757.2656,1165.8203 1757.2656,1164.1172 L1757.2656,1163.0234 C1757.2656,1161.2422 1758.5156,1159.9297 1760.25,1159.9297 C1760.8281,1159.9297 1761.4375,1160.0859 1761.9063,1160.3359 C1762.3906,1160.6172 1762.5625,1160.8359 1762.6563,1161.2422 C1762.7188,1161.6484 1762.75,1161.7734 1762.8906,1161.8984 C1763.0313,1162.0391 1763.2656,1162.1484 1763.4844,1162.1484 C1763.75,1162.1484 1764.0156,1162.0078 1764.1875,1161.7891 C1764.2969,1161.6328 1764.3281,1161.4453 1764.3281,1161.0234 L1764.3281,1159.6016 C1764.3281,1159.1641 1764.3125,1159.0391 1764.2188,1158.8828 C1764.0625,1158.6172 1763.7813,1158.4766 1763.4844,1158.4766 C1763.1875,1158.4766 1762.9844,1158.5703 1762.7656,1158.8828 L1762.5938,1158.8047 Z " fill="#000000"/><text fill="#000000" font-family="sans-serif" font-size="12" font-style="italic" lengthAdjust="spacing" textLength="81" x="1778.75" y="1159.1387">&#171;Observable&#187;</text><text fill="#000000" font-family="sans-serif" font-size="14" lengthAdjust="spacing" textLength="43" x="1797.75" y="1174.9639">Model</text><line style="stroke:#181818;stroke-width:0.5;" x1="1566" x2="2040" y1="1183.2656" y2="1183.2656"/><rect fill="none" height="6" style="stroke:#C82930;stroke-width:1.0;" width="6" x="1573" y="1193.9141"/><text fill="#000000" font-family="sans-serif" font-size="14" lengthAdjust="spacing" textLength="166" x="1585" y="1200.2607">List[str] primer_history</text><line style="stroke:#181818;stroke-width:0.5;" x1="1566" x2="2040" y1="1207.5625" y2="1207.5625"/><rect fill="#F24D5C" height="6" style="stroke:#C82930;stroke-width:1.0;" width="6" x="1573" y="1218.2109"/><text fill="#000000" font-family="sans-serif" font-size="14" lengthAdjust="spacing" textLength="53" x="1585" y="1224.5576">Model()</text><rect fill="#F24D5C" height="6" style="stroke:#C82930;stroke-width:1.0;" width="6" x="1573" y="1234.5078"/><text fill="#000000" font-family="sans-serif" font-size="14" lengthAdjust="spacing" textLength="410" x="1585" y="1240.8545">void notify(data: Any, identifier: EModelUpdateIdentifier)</text><ellipse cx="1576" cy="1253.8047" fill="#84BE84" rx="3" ry="3" style="stroke:#038048;stroke-width:1.0;"/><text fill="#000000" font-family="sans-serif" font-size="14" lengthAdjust="spacing" textLength="218" x="1585" y="1257.1514">void register(view: AObserver)</text><ellipse cx="1576" cy="1270.1016" fill="#84BE84" rx="3" ry="3" style="stroke:#038048;stroke-width:1.0;"/><text fill="#000000" font-family="sans-serif" font-size="14" lengthAdjust="spacing" textLength="326" x="1585" y="1273.4482">void new_stimulus(stimulus: CreatedStimulus)</text><ellipse cx="1576" cy="1286.3984" fill="#84BE84" rx="3" ry="3" style="stroke:#038048;stroke-width:1.0;"/><text fill="#000000" font-family="sans-serif" font-size="14" lengthAdjust="spacing" textLength="316" x="1585" y="1289.7451">void new_primer(stimulus: CreatedStimulus)</text><ellipse cx="1576" cy="1302.6953" fill="#84BE84" rx="3" ry="3" style="stroke:#038048;stroke-width:1.0;"/><text fill="#000000" font-family="sans-serif" font-size="14" lengthAdjust="spacing" textLength="450" x="1585" y="1306.042">void change_experiment_state(new_state: EExperimentState)</text></g><!--class Logger--><g id="elem_Logger"><rect codeLine="50" fill="#F1F1F1" height="88.8594" id="Logger" rx="2.5" ry="2.5" style="stroke:#181818;stroke-width:0.5;" width="284" x="1130" y="1455.5"/><ellipse cx="1235.75" cy="1475.6328" fill="#ADD1B2" rx="11" ry="11" style="stroke:#181818;stroke-width:1.0;"/><path d="M1238.0938,1471.3047 C1237.1563,1470.8672 1236.5625,1470.7266 1235.6875,1470.7266 C1233.0625,1470.7266 1231.0625,1472.8047 1231.0625,1475.5234 L1231.0625,1476.6484 C1231.0625,1479.2266 1233.1719,1481.1172 1236.0625,1481.1172 C1237.2813,1481.1172 1238.4375,1480.8203 1239.1875,1480.2734 C1239.7656,1479.8672 1240.0938,1479.4141 1240.0938,1479.0234 C1240.0938,1478.5703 1239.7031,1478.1797 1239.2344,1478.1797 C1239.0156,1478.1797 1238.8125,1478.2578 1238.625,1478.4453 C1238.1719,1478.9297 1238.1719,1478.9297 1237.9844,1479.0234 C1237.5625,1479.2891 1236.875,1479.4141 1236.1094,1479.4141 C1234.0625,1479.4141 1232.7656,1478.3203 1232.7656,1476.6172 L1232.7656,1475.5234 C1232.7656,1473.7422 1234.0156,1472.4297 1235.75,1472.4297 C1236.3281,1472.4297 1236.9375,1472.5859 1237.4063,1472.8359 C1237.8906,1473.1172 1238.0625,1473.3359 1238.1563,1473.7422 C1238.2188,1474.1484 1238.25,1474.2734 1238.3906,1474.3984 C1238.5313,1474.5391 1238.7656,1474.6484 1238.9844,1474.6484 C1239.25,1474.6484 1239.5156,1474.5078 1239.6875,1474.2891 C1239.7969,1474.1328 1239.8281,1473.9453 1239.8281,1473.5234 L1239.8281,1472.1016 C1239.8281,1471.6641 1239.8125,1471.5391 1239.7188,1471.3828 C1239.5625,1471.1172 1239.2813,1470.9766 1238.9844,1470.9766 C1238.6875,1470.9766 1238.4844,1471.0703 1238.2656,1471.3828 L1238.0938,1471.3047 Z " fill="#000000"/><text fill="#000000" font-family="sans-serif" font-size="12" font-style="italic" lengthAdjust="spacing" textLength="68" x="1254.25" y="1471.6387">&#171;Observer&#187;</text><text fill="#000000" font-family="sans-serif" font-size="14" lengthAdjust="spacing" textLength="50" x="1263.25" y="1487.4639">Logger</text><line style="stroke:#181818;stroke-width:0.5;" x1="1131" x2="1413" y1="1495.7656" y2="1495.7656"/><rect fill="none" height="6" style="stroke:#C82930;stroke-width:1.0;" width="6" x="1138" y="1506.4141"/><text fill="#000000" font-family="sans-serif" font-size="14" lengthAdjust="spacing" textLength="166" x="1150" y="1512.7607">Path exports_directory</text><line style="stroke:#181818;stroke-width:0.5;" x1="1131" x2="1413" y1="1520.0625" y2="1520.0625"/><ellipse cx="1141" cy="1533.7109" fill="#84BE84" rx="3" ry="3" style="stroke:#038048;stroke-width:1.0;"/><text fill="#000000" font-family="sans-serif" font-size="14" lengthAdjust="spacing" textLength="258" x="1150" y="1537.0576">Logger(logging_directory: PathLike)</text></g><!--class Stimulus--><g id="elem_Stimulus"><rect codeLine="73" fill="#F1F1F1" height="113.1875" id="Stimulus" rx="2.5" ry="2.5" style="stroke:#181818;stroke-width:0.5;" width="286" x="2418" y="1443.5"/><ellipse cx="2526.25" cy="1459.5" fill="#ADD1B2" rx="11" ry="11" style="stroke:#181818;stroke-width:1.0;"/><path d="M2528.5938,1455.1719 C2527.6563,1454.7344 2527.0625,1454.5938 2526.1875,1454.5938 C2523.5625,1454.5938 2521.5625,1456.6719 2521.5625,1459.3906 L2521.5625,1460.5156 C2521.5625,1463.0938 2523.6719,1464.9844 2526.5625,1464.9844 C2527.7813,1464.9844 2528.9375,1464.6875 2529.6875,1464.1406 C2530.2656,1463.7344 2530.5938,1463.2813 2530.5938,1462.8906 C2530.5938,1462.4375 2530.2031,1462.0469 2529.7344,1462.0469 C2529.5156,1462.0469 2529.3125,1462.125 2529.125,1462.3125 C2528.6719,1462.7969 2528.6719,1462.7969 2528.4844,1462.8906 C2528.0625,1463.1563 2527.375,1463.2813 2526.6094,1463.2813 C2524.5625,1463.2813 2523.2656,1462.1875 2523.2656,1460.4844 L2523.2656,1459.3906 C2523.2656,1457.6094 2524.5156,1456.2969 2526.25,1456.2969 C2526.8281,1456.2969 2527.4375,1456.4531 2527.9063,1456.7031 C2528.3906,1456.9844 2528.5625,1457.2031 2528.6563,1457.6094 C2528.7188,1458.0156 2528.75,1458.1406 2528.8906,1458.2656 C2529.0313,1458.4063 2529.2656,1458.5156 2529.4844,1458.5156 C2529.75,1458.5156 2530.0156,1458.375 2530.1875,1458.1563 C2530.2969,1458 2530.3281,1457.8125 2530.3281,1457.3906 L2530.3281,1455.9688 C2530.3281,1455.5313 2530.3125,1455.4063 2530.2188,1455.25 C2530.0625,1454.9844 2529.7813,1454.8438 2529.4844,1454.8438 C2529.1875,1454.8438 2528.9844,1454.9375 2528.7656,1455.25 L2528.5938,1455.1719 Z " fill="#000000"/><text fill="#000000" font-family="sans-serif" font-size="14" lengthAdjust="spacing" textLength="61" x="2546.75" y="1464.3467">Stimulus</text><line style="stroke:#181818;stroke-width:0.5;" x1="2419" x2="2703" y1="1475.5" y2="1475.5"/><ellipse cx="2429" cy="1489.1484" fill="none" rx="3" ry="3" style="stroke:#038048;stroke-width:1.0;"/><text fill="#000000" font-family="sans-serif" font-size="14" lengthAdjust="spacing" textLength="80" x="2438" y="1492.4951">str prompt</text><ellipse cx="2429" cy="1505.4453" fill="none" rx="3" ry="3" style="stroke:#038048;stroke-width:1.0;"/><text fill="#000000" font-family="sans-serif" font-size="14" lengthAdjust="spacing" textLength="73" x="2438" y="1508.792">str primer</text><ellipse cx="2429" cy="1521.7422" fill="none" rx="3" ry="3" style="stroke:#038048;stroke-width:1.0;"/><text fill="#000000" font-family="sans-serif" font-size="14" lengthAdjust="spacing" textLength="115" x="2438" y="1525.0889">List[str] options</text><ellipse cx="2429" cy="1538.0391" fill="none" rx="3" ry="3" style="stroke:#038048;stroke-width:1.0;"/><text fill="#000000" font-family="sans-serif" font-size="14" lengthAdjust="spacing" textLength="260" x="2438" y="1541.3857">List[Tuple[float, float]] time_stamps</text><line style="stroke:#181818;stroke-width:0.5;" x1="2419" x2="2703" y1="1548.6875" y2="1548.6875"/></g><!--class CreatedStimulus--><g id="elem_CreatedStimulus"><rect codeLine="81" fill="#F1F1F1" height="80.5938" id="CreatedStimulus" rx="2.5" ry="2.5" style="stroke:#181818;stroke-width:0.5;" width="555" x="2182.5" y="1187.5"/><ellipse cx="2396.25" cy="1203.5" fill="#ADD1B2" rx="11" ry="11" style="stroke:#181818;stroke-width:1.0;"/><path d="M2398.5938,1199.1719 C2397.6563,1198.7344 2397.0625,1198.5938 2396.1875,1198.5938 C2393.5625,1198.5938 2391.5625,1200.6719 2391.5625,1203.3906 L2391.5625,1204.5156 C2391.5625,1207.0938 2393.6719,1208.9844 2396.5625,1208.9844 C2397.7813,1208.9844 2398.9375,1208.6875 2399.6875,1208.1406 C2400.2656,1207.7344 2400.5938,1207.2813 2400.5938,1206.8906 C2400.5938,1206.4375 2400.2031,1206.0469 2399.7344,1206.0469 C2399.5156,1206.0469 2399.3125,1206.125 2399.125,1206.3125 C2398.6719,1206.7969 2398.6719,1206.7969 2398.4844,1206.8906 C2398.0625,1207.1563 2397.375,1207.2813 2396.6094,1207.2813 C2394.5625,1207.2813 2393.2656,1206.1875 2393.2656,1204.4844 L2393.2656,1203.3906 C2393.2656,1201.6094 2394.5156,1200.2969 2396.25,1200.2969 C2396.8281,1200.2969 2397.4375,1200.4531 2397.9063,1200.7031 C2398.3906,1200.9844 2398.5625,1201.2031 2398.6563,1201.6094 C2398.7188,1202.0156 2398.75,1202.1406 2398.8906,1202.2656 C2399.0313,1202.4063 2399.2656,1202.5156 2399.4844,1202.5156 C2399.75,1202.5156 2400.0156,1202.375 2400.1875,1202.1563 C2400.2969,1202 2400.3281,1201.8125 2400.3281,1201.3906 L2400.3281,1199.9688 C2400.3281,1199.5313 2400.3125,1199.4063 2400.2188,1199.25 C2400.0625,1198.9844 2399.7813,1198.8438 2399.4844,1198.8438 C2399.1875,1198.8438 2398.9844,1198.9375 2398.7656,1199.25 L2398.5938,1199.1719 Z " fill="#000000"/><text fill="#000000" font-family="sans-serif" font-size="14" lengthAdjust="spacing" textLength="119" x="2416.75" y="1208.3467">CreatedStimulus</text><line style="stroke:#181818;stroke-width:0.5;" x1="2183.5" x2="2736.5" y1="1219.5" y2="1219.5"/><ellipse cx="2193.5" cy="1233.1484" fill="none" rx="3" ry="3" style="stroke:#038048;stroke-width:1.0;"/><text fill="#000000" font-family="sans-serif" font-size="14" lengthAdjust="spacing" textLength="226" x="2202.5" y="1236.4951">Optional[str] used_tagger_label</text><line style="stroke:#181818;stroke-width:0.5;" x1="2183.5" x2="2736.5" y1="1243.7969" y2="1243.7969"/><ellipse cx="2193.5" cy="1257.4453" fill="#84BE84" rx="3" ry="3" style="stroke:#038048;stroke-width:1.0;"/><text fill="#000000" font-family="sans-serif" font-size="14" lengthAdjust="spacing" text-decoration="underline" textLength="529" x="2202.5" y="1260.792">CreatedStimulus from_stimulus(stimulus: Stimulus, modified_audio: Audio)</text></g><!--class EExperimentState--><g id="elem_EExperimentState"><rect codeLine="57" fill="#F1F1F1" height="145.7813" id="EExperimentState" rx="2.5" ry="2.5" style="stroke:#181818;stroke-width:0.5;" width="235" x="1484.5" y="1427"/><ellipse cx="1530.75" cy="1443" fill="#EB937F" rx="11" ry="11" style="stroke:#181818;stroke-width:1.0;"/><path d="M1529.5469,1443.875 L1531,1443.875 L1531,1443.9844 C1531,1444.3906 1531.0313,1444.5469 1531.1094,1444.7031 C1531.2656,1444.9531 1531.5469,1445.1094 1531.8438,1445.1094 C1532.0938,1445.1094 1532.3594,1444.9688 1532.5156,1444.75 C1532.6406,1444.5938 1532.6719,1444.4375 1532.6719,1443.9844 L1532.6719,1442.0625 C1532.6719,1441.9063 1532.6719,1441.8594 1532.6563,1441.7031 C1532.5938,1441.2344 1532.2813,1440.9219 1531.8281,1440.9219 C1531.5781,1440.9219 1531.3125,1441.0625 1531.1406,1441.2813 C1531.0313,1441.4531 1531,1441.6094 1531,1442.0625 L1531,1442.1875 L1529.5469,1442.1875 L1529.5469,1439.7813 L1533.5313,1439.7813 L1533.5313,1440.6406 C1533.5313,1441.0469 1533.5625,1441.2188 1533.6406,1441.375 C1533.8125,1441.625 1534.0938,1441.7813 1534.375,1441.7813 C1534.6406,1441.7813 1534.9063,1441.6406 1535.0781,1441.4219 C1535.1875,1441.25 1535.2188,1441.1094 1535.2188,1440.6406 L1535.2188,1438.0938 L1527.5938,1438.0938 C1527.1563,1438.0938 1527.0313,1438.1094 1526.875,1438.2031 C1526.625,1438.3594 1526.4688,1438.6563 1526.4688,1438.9375 C1526.4688,1439.2188 1526.6094,1439.4688 1526.8281,1439.6406 C1526.9844,1439.75 1527.1719,1439.7813 1527.5938,1439.7813 L1527.8438,1439.7813 L1527.8438,1446.2969 L1527.5938,1446.2969 C1527.1875,1446.2969 1527.0313,1446.3125 1526.875,1446.4219 C1526.625,1446.5938 1526.4688,1446.8594 1526.4688,1447.1563 C1526.4688,1447.4219 1526.6094,1447.6719 1526.8281,1447.8281 C1526.9688,1447.9531 1527.2031,1448 1527.5938,1448 L1535.5938,1448 L1535.5938,1445.4219 C1535.5938,1444.9844 1535.5625,1444.8438 1535.4844,1444.6875 C1535.3125,1444.4375 1535.0313,1444.2813 1534.75,1444.2813 C1534.4844,1444.2813 1534.2188,1444.3906 1534.0469,1444.6406 C1533.9375,1444.7969 1533.9063,1444.9375 1533.9063,1445.4219 L1533.9063,1446.2969 L1529.5469,1446.2969 L1529.5469,1443.875 Z " fill="#000000"/><text fill="#000000" font-family="sans-serif" font-size="14" lengthAdjust="spacing" textLength="134" x="1551.25" y="1447.8467">EExperimentState</text><line style="stroke:#181818;stroke-width:0.5;" x1="1485.5" x2="1718.5" y1="1459" y2="1459"/><text fill="#000000" font-family="sans-serif" font-size="14" lengthAdjust="spacing" textLength="66" x="1490.5" y="1475.9951">INACTIVE</text><text fill="#000000" font-family="sans-serif" font-size="14" lengthAdjust="spacing" textLength="108" x="1490.5" y="1492.292">INTRODUCTION</text><text fill="#000000" font-family="sans-serif" font-size="14" lengthAdjust="spacing" textLength="204" x="1490.5" y="1508.5889">RESTING_STATE_EYES_OPEN</text><text fill="#000000" font-family="sans-serif" font-size="14" lengthAdjust="spacing" textLength="223" x="1490.5" y="1524.8857">RESTING_STATE_EYES_CLOSED</text><text fill="#000000" font-family="sans-serif" font-size="14" lengthAdjust="spacing" textLength="206" x="1490.5" y="1541.1826">EXPERIMENT_INTRODUCTION</text><text fill="#000000" font-family="sans-serif" font-size="14" lengthAdjust="spacing" textLength="91" x="1490.5" y="1557.4795">EXPERIMENT</text><line style="stroke:#181818;stroke-width:0.5;" x1="1485.5" x2="1718.5" y1="1564.7813" y2="1564.7813"/></g><!--class EModelUpdateIdentifier--><g id="elem_EModelUpdateIdentifier"><rect codeLine="66" fill="#F1F1F1" height="96.8906" id="EModelUpdateIdentifier" rx="2.5" ry="2.5" style="stroke:#181818;stroke-width:0.5;" width="234" x="1755" y="1451.5"/><ellipse cx="1783.95" cy="1467.5" fill="#EB937F" rx="11" ry="11" style="stroke:#181818;stroke-width:1.0;"/><path d="M1782.7469,1468.375 L1784.2,1468.375 L1784.2,1468.4844 C1784.2,1468.8906 1784.2313,1469.0469 1784.3094,1469.2031 C1784.4656,1469.4531 1784.7469,1469.6094 1785.0438,1469.6094 C1785.2938,1469.6094 1785.5594,1469.4688 1785.7156,1469.25 C1785.8406,1469.0938 1785.8719,1468.9375 1785.8719,1468.4844 L1785.8719,1466.5625 C1785.8719,1466.4063 1785.8719,1466.3594 1785.8563,1466.2031 C1785.7938,1465.7344 1785.4813,1465.4219 1785.0281,1465.4219 C1784.7781,1465.4219 1784.5125,1465.5625 1784.3406,1465.7813 C1784.2313,1465.9531 1784.2,1466.1094 1784.2,1466.5625 L1784.2,1466.6875 L1782.7469,1466.6875 L1782.7469,1464.2813 L1786.7313,1464.2813 L1786.7313,1465.1406 C1786.7313,1465.5469 1786.7625,1465.7188 1786.8406,1465.875 C1787.0125,1466.125 1787.2938,1466.2813 1787.575,1466.2813 C1787.8406,1466.2813 1788.1063,1466.1406 1788.2781,1465.9219 C1788.3875,1465.75 1788.4188,1465.6094 1788.4188,1465.1406 L1788.4188,1462.5938 L1780.7938,1462.5938 C1780.3563,1462.5938 1780.2313,1462.6094 1780.075,1462.7031 C1779.825,1462.8594 1779.6688,1463.1563 1779.6688,1463.4375 C1779.6688,1463.7188 1779.8094,1463.9688 1780.0281,1464.1406 C1780.1844,1464.25 1780.3719,1464.2813 1780.7938,1464.2813 L1781.0438,1464.2813 L1781.0438,1470.7969 L1780.7938,1470.7969 C1780.3875,1470.7969 1780.2313,1470.8125 1780.075,1470.9219 C1779.825,1471.0938 1779.6688,1471.3594 1779.6688,1471.6563 C1779.6688,1471.9219 1779.8094,1472.1719 1780.0281,1472.3281 C1780.1688,1472.4531 1780.4031,1472.5 1780.7938,1472.5 L1788.7938,1472.5 L1788.7938,1469.9219 C1788.7938,1469.4844 1788.7625,1469.3438 1788.6844,1469.1875 C1788.5125,1468.9375 1788.2313,1468.7813 1787.95,1468.7813 C1787.6844,1468.7813 1787.4188,1468.8906 1787.2469,1469.1406 C1787.1375,1469.2969 1787.1063,1469.4375 1787.1063,1469.9219 L1787.1063,1470.7969 L1782.7469,1470.7969 L1782.7469,1468.375 Z " fill="#000000"/><text fill="#000000" font-family="sans-serif" font-size="14" lengthAdjust="spacing" textLength="171" x="1801.05" y="1472.3467">EModelUpdateIdentifier</text><line style="stroke:#181818;stroke-width:0.5;" x1="1756" x2="1988" y1="1483.5" y2="1483.5"/><text fill="#000000" font-family="sans-serif" font-size="14" lengthAdjust="spacing" textLength="109" x="1761" y="1500.4951">NEW_STIMULUS</text><text fill="#000000" font-family="sans-serif" font-size="14" lengthAdjust="spacing" textLength="94" x="1761" y="1516.792">NEW_PRIMER</text><text fill="#000000" font-family="sans-serif" font-size="14" lengthAdjust="spacing" textLength="222" x="1761" y="1533.0889">EXPERIMENT_STATE_CHANGED</text><line style="stroke:#181818;stroke-width:0.5;" x1="1756" x2="1988" y1="1540.3906" y2="1540.3906"/></g><!--class AAuditoryTagger--><g id="elem_AAuditoryTagger"><rect codeLine="102" fill="#F1F1F1" height="96.8906" id="AAuditoryTagger" rx="2.5" ry="2.5" style="stroke:#181818;stroke-width:0.5;" width="273" x="1698.5" y="41"/><ellipse cx="1770.25" cy="57" fill="#A9DCDF" rx="11" ry="11" style="stroke:#181818;stroke-width:1.0;"/><path d="M1772.3281,58.8125 L1772.7188,59.7969 L1772.3281,59.7969 C1771.875,59.7969 1771.7656,59.8125 1771.6094,59.9219 C1771.3594,60.0781 1771.2031,60.3594 1771.2031,60.6563 C1771.2031,60.9219 1771.3438,61.1719 1771.5625,61.3281 C1771.7031,61.4531 1771.9063,61.5 1772.3281,61.5 L1774.6875,61.5 C1775.0469,61.5 1775.2656,61.4688 1775.4063,61.375 C1775.6563,61.2344 1775.8125,60.9375 1775.8125,60.6563 C1775.8125,60.375 1775.6719,60.125 1775.4531,59.9688 C1775.2813,59.8281 1775.125,59.7969 1774.6563,59.7969 L1771.2656,51.5938 L1767.5938,51.5938 C1767.1406,51.5938 1767.0156,51.6094 1766.8594,51.7031 C1766.6094,51.875 1766.4531,52.1563 1766.4531,52.4375 C1766.4531,52.7188 1766.5938,52.9688 1766.8125,53.1406 C1766.9844,53.25 1767.1563,53.2813 1767.5938,53.2813 L1768.6719,53.2813 L1766.0313,59.7969 C1765.6094,59.7969 1765.4531,59.8125 1765.2969,59.9219 C1765.0469,60.0781 1764.8906,60.3594 1764.8906,60.6563 C1764.8906,61.2188 1765.2656,61.5 1766.0156,61.5 L1768.2813,61.5 C1768.6406,61.5 1768.8594,61.4688 1768.9844,61.375 C1769.25,61.2344 1769.3906,60.9375 1769.3906,60.6563 C1769.3906,60.375 1769.2656,60.125 1769.0469,59.9531 C1768.875,59.8281 1768.7344,59.7969 1768.2813,59.7969 L1767.8906,59.7969 L1768.2813,58.8125 L1772.3281,58.8125 Z M1771.625,57.1094 L1768.9531,57.1094 L1770.2969,53.8438 L1771.625,57.1094 Z " fill="#000000"/><text fill="#000000" font-family="sans-serif" font-size="14" font-style="italic" lengthAdjust="spacing" textLength="121" x="1790.75" y="61.8467">AAuditoryTagger</text><line style="stroke:#181818;stroke-width:0.5;" x1="1699.5" x2="1970.5" y1="73" y2="73"/><polygon fill="none" points="1709.5,81.6484,1713.5,85.6484,1709.5,89.6484,1705.5,85.6484" style="stroke:#B38D22;stroke-width:1.0;"/><text fill="#000000" font-family="sans-serif" font-size="14" lengthAdjust="spacing" textLength="247" x="1718.5" y="89.9951">list[ [float, float] ] stimuli_intervals</text><line style="stroke:#181818;stroke-width:0.5;" x1="1699.5" x2="1970.5" y1="97.2969" y2="97.2969"/><ellipse cx="1709.5" cy="110.9453" fill="#84BE84" rx="3" ry="3" style="stroke:#038048;stroke-width:1.0;"/><text fill="#000000" font-family="sans-serif" font-size="14" lengthAdjust="spacing" textLength="225" x="1718.5" y="114.292">AAuditoryTagger(audio, stimuli)</text><ellipse cx="1709.5" cy="127.2422" fill="#84BE84" rx="3" ry="3" style="stroke:#038048;stroke-width:1.0;"/><text fill="#000000" font-family="sans-serif" font-size="14" font-style="italic" lengthAdjust="spacing" textLength="101" x="1718.5" y="130.5889">Audio create()</text></g><!--class AAudioTaggerFactory--><g id="elem_AAudioTaggerFactory"><rect codeLine="112" fill="#F1F1F1" height="64.2969" id="AAudioTaggerFactory" rx="2.5" ry="2.5" style="stroke:#181818;stroke-width:0.5;" width="693" x="1456.5" y="660"/><ellipse cx="1721.25" cy="676" fill="#A9DCDF" rx="11" ry="11" style="stroke:#181818;stroke-width:1.0;"/><path d="M1723.3281,677.8125 L1723.7188,678.7969 L1723.3281,678.7969 C1722.875,678.7969 1722.7656,678.8125 1722.6094,678.9219 C1722.3594,679.0781 1722.2031,679.3594 1722.2031,679.6563 C1722.2031,679.9219 1722.3438,680.1719 1722.5625,680.3281 C1722.7031,680.4531 1722.9063,680.5 1723.3281,680.5 L1725.6875,680.5 C1726.0469,680.5 1726.2656,680.4688 1726.4063,680.375 C1726.6563,680.2344 1726.8125,679.9375 1726.8125,679.6563 C1726.8125,679.375 1726.6719,679.125 1726.4531,678.9688 C1726.2813,678.8281 1726.125,678.7969 1725.6563,678.7969 L1722.2656,670.5938 L1718.5938,670.5938 C1718.1406,670.5938 1718.0156,670.6094 1717.8594,670.7031 C1717.6094,670.875 1717.4531,671.1563 1717.4531,671.4375 C1717.4531,671.7188 1717.5938,671.9688 1717.8125,672.1406 C1717.9844,672.25 1718.1563,672.2813 1718.5938,672.2813 L1719.6719,672.2813 L1717.0313,678.7969 C1716.6094,678.7969 1716.4531,678.8125 1716.2969,678.9219 C1716.0469,679.0781 1715.8906,679.3594 1715.8906,679.6563 C1715.8906,680.2188 1716.2656,680.5 1717.0156,680.5 L1719.2813,680.5 C1719.6406,680.5 1719.8594,680.4688 1719.9844,680.375 C1720.25,680.2344 1720.3906,679.9375 1720.3906,679.6563 C1720.3906,679.375 1720.2656,679.125 1720.0469,678.9531 C1719.875,678.8281 1719.7344,678.7969 1719.2813,678.7969 L1718.8906,678.7969 L1719.2813,677.8125 L1723.3281,677.8125 Z M1722.625,676.1094 L1719.9531,676.1094 L1721.2969,672.8438 L1722.625,676.1094 Z " fill="#000000"/><text fill="#000000" font-family="sans-serif" font-size="14" font-style="italic" lengthAdjust="spacing" textLength="155" x="1741.75" y="680.8467">AAudioTaggerFactory</text><line style="stroke:#181818;stroke-width:0.5;" x1="1457.5" x2="2148.5" y1="692" y2="692"/><line style="stroke:#181818;stroke-width:0.5;" x1="1457.5" x2="2148.5" y1="700" y2="700"/><ellipse cx="1467.5" cy="713.6484" fill="#84BE84" rx="3" ry="3" style="stroke:#038048;stroke-width:1.0;"/><text fill="#000000" font-family="sans-serif" font-size="14" font-style="italic" lengthAdjust="spacing" textLength="667" x="1476.5" y="716.9951">AAudioTagger create_auditory_stimulus(audio: Audio, stimuli_intervals: List[Tuple[float, float])</text></g><!--class NoiseTaggingTagger--><g id="elem_NoiseTaggingTagger"><rect codeLine="149" fill="#F1F1F1" height="178.375" id="NoiseTaggingTagger" rx="2.5" ry="2.5" style="stroke:#181818;stroke-width:0.5;" width="625" x="406.5" y="199"/><ellipse cx="641.75" cy="215" fill="#ADD1B2" rx="11" ry="11" style="stroke:#181818;stroke-width:1.0;"/><path d="M644.0938,210.6719 C643.1563,210.2344 642.5625,210.0938 641.6875,210.0938 C639.0625,210.0938 637.0625,212.1719 637.0625,214.8906 L637.0625,216.0156 C637.0625,218.5938 639.1719,220.4844 642.0625,220.4844 C643.2813,220.4844 644.4375,220.1875 645.1875,219.6406 C645.7656,219.2344 646.0938,218.7813 646.0938,218.3906 C646.0938,217.9375 645.7031,217.5469 645.2344,217.5469 C645.0156,217.5469 644.8125,217.625 644.625,217.8125 C644.1719,218.2969 644.1719,218.2969 643.9844,218.3906 C643.5625,218.6563 642.875,218.7813 642.1094,218.7813 C640.0625,218.7813 638.7656,217.6875 638.7656,215.9844 L638.7656,214.8906 C638.7656,213.1094 640.0156,211.7969 641.75,211.7969 C642.3281,211.7969 642.9375,211.9531 643.4063,212.2031 C643.8906,212.4844 644.0625,212.7031 644.1563,213.1094 C644.2188,213.5156 644.25,213.6406 644.3906,213.7656 C644.5313,213.9063 644.7656,214.0156 644.9844,214.0156 C645.25,214.0156 645.5156,213.875 645.6875,213.6563 C645.7969,213.5 645.8281,213.3125 645.8281,212.8906 L645.8281,211.4688 C645.8281,211.0313 645.8125,210.9063 645.7188,210.75 C645.5625,210.4844 645.2813,210.3438 644.9844,210.3438 C644.6875,210.3438 644.4844,210.4375 644.2656,210.75 L644.0938,210.6719 Z " fill="#000000"/><text fill="#000000" font-family="sans-serif" font-size="14" lengthAdjust="spacing" textLength="146" x="662.25" y="219.8467">NoiseTaggingTagger</text><line style="stroke:#181818;stroke-width:0.5;" x1="407.5" x2="1030.5" y1="231" y2="231"/><rect fill="none" height="6" style="stroke:#C82930;stroke-width:1.0;" width="6" x="414.5" y="241.6484"/><text fill="#000000" font-family="sans-serif" font-size="14" lengthAdjust="spacing" textLength="130" x="426.5" y="247.9951">Optional[int] seed</text><rect fill="none" height="6" style="stroke:#C82930;stroke-width:1.0;" width="6" x="414.5" y="257.9453"/><text fill="#000000" font-family="sans-serif" font-size="14" lengthAdjust="spacing" textLength="92" x="426.5" y="264.292">int bit_width</text><rect fill="none" height="6" style="stroke:#C82930;stroke-width:1.0;" width="6" x="414.5" y="274.2422"/><text fill="#000000" font-family="sans-serif" font-size="14" lengthAdjust="spacing" textLength="99" x="426.5" y="280.5889">int length_bit</text><ellipse cx="417.5" cy="293.5391" fill="none" rx="3" ry="3" style="stroke:#038048;stroke-width:1.0;"/><text fill="#000000" font-family="sans-serif" font-size="14" lengthAdjust="spacing" textLength="148" x="426.5" y="296.8857">Optional[Code] code</text><line style="stroke:#181818;stroke-width:0.5;" x1="407.5" x2="1030.5" y1="304.1875" y2="304.1875"/><ellipse cx="417.5" cy="317.8359" fill="#84BE84" rx="3" ry="3" style="stroke:#038048;stroke-width:1.0;"/><text fill="#000000" font-family="sans-serif" font-size="14" lengthAdjust="spacing" textLength="599" x="426.5" y="321.1826">NoiseTaggingTagger(audio, stimuli_intervals, bits_per_second: int, length_bit, seed)</text><ellipse cx="417.5" cy="334.1328" fill="#84BE84" rx="3" ry="3" style="stroke:#038048;stroke-width:1.0;"/><text fill="#000000" font-family="sans-serif" font-size="14" lengthAdjust="spacing" textLength="101" x="426.5" y="337.4795">Audio create()</text><rect fill="#F24D5C" height="6" style="stroke:#C82930;stroke-width:1.0;" width="6" x="414.5" y="347.4297"/><text fill="#000000" font-family="sans-serif" font-size="14" lengthAdjust="spacing" textLength="166" x="426.5" y="353.7764">void __generate_code()</text><rect fill="#F24D5C" height="6" style="stroke:#C82930;stroke-width:1.0;" width="6" x="414.5" y="363.7266"/><text fill="#000000" font-family="sans-serif" font-size="14" lengthAdjust="spacing" textLength="201" x="426.5" y="370.0732">void __get_code(length: int)</text></g><!--class NoiseTaggingTaggerFactory--><g id="elem_NoiseTaggingTaggerFactory"><rect codeLine="161" fill="#F1F1F1" height="129.4844" id="NoiseTaggingTaggerFactory" rx="2.5" ry="2.5" style="stroke:#181818;stroke-width:0.5;" width="697" x="22.5" y="454"/><ellipse cx="266.75" cy="470" fill="#ADD1B2" rx="11" ry="11" style="stroke:#181818;stroke-width:1.0;"/><path d="M269.0938,465.6719 C268.1563,465.2344 267.5625,465.0938 266.6875,465.0938 C264.0625,465.0938 262.0625,467.1719 262.0625,469.8906 L262.0625,471.0156 C262.0625,473.5938 264.1719,475.4844 267.0625,475.4844 C268.2813,475.4844 269.4375,475.1875 270.1875,474.6406 C270.7656,474.2344 271.0938,473.7813 271.0938,473.3906 C271.0938,472.9375 270.7031,472.5469 270.2344,472.5469 C270.0156,472.5469 269.8125,472.625 269.625,472.8125 C269.1719,473.2969 269.1719,473.2969 268.9844,473.3906 C268.5625,473.6563 267.875,473.7813 267.1094,473.7813 C265.0625,473.7813 263.7656,472.6875 263.7656,470.9844 L263.7656,469.8906 C263.7656,468.1094 265.0156,466.7969 266.75,466.7969 C267.3281,466.7969 267.9375,466.9531 268.4063,467.2031 C268.8906,467.4844 269.0625,467.7031 269.1563,468.1094 C269.2188,468.5156 269.25,468.6406 269.3906,468.7656 C269.5313,468.9063 269.7656,469.0156 269.9844,469.0156 C270.25,469.0156 270.5156,468.875 270.6875,468.6563 C270.7969,468.5 270.8281,468.3125 270.8281,467.8906 L270.8281,466.4688 C270.8281,466.0313 270.8125,465.9063 270.7188,465.75 C270.5625,465.4844 270.2813,465.3438 269.9844,465.3438 C269.6875,465.3438 269.4844,465.4375 269.2656,465.75 L269.0938,465.6719 Z " fill="#000000"/><text fill="#000000" font-family="sans-serif" font-size="14" lengthAdjust="spacing" textLength="200" x="287.25" y="474.8467">NoiseTaggingTaggerFactory</text><line style="stroke:#181818;stroke-width:0.5;" x1="23.5" x2="718.5" y1="486" y2="486"/><rect fill="none" height="6" style="stroke:#C82930;stroke-width:1.0;" width="6" x="30.5" y="496.6484"/><text fill="#000000" font-family="sans-serif" font-size="14" lengthAdjust="spacing" textLength="142" x="42.5" y="502.9951">int bits_per_second</text><rect fill="none" height="6" style="stroke:#C82930;stroke-width:1.0;" width="6" x="30.5" y="512.9453"/><text fill="#000000" font-family="sans-serif" font-size="14" lengthAdjust="spacing" textLength="99" x="42.5" y="519.292">int length_bit</text><rect fill="none" height="6" style="stroke:#C82930;stroke-width:1.0;" width="6" x="30.5" y="529.2422"/><text fill="#000000" font-family="sans-serif" font-size="14" lengthAdjust="spacing" textLength="130" x="42.5" y="535.5889">Optional[int] seed</text><line style="stroke:#181818;stroke-width:0.5;" x1="23.5" x2="718.5" y1="542.8906" y2="542.8906"/><ellipse cx="33.5" cy="556.5391" fill="#84BE84" rx="3" ry="3" style="stroke:#038048;stroke-width:1.0;"/><text fill="#000000" font-family="sans-serif" font-size="14" lengthAdjust="spacing" textLength="453" x="42.5" y="559.8857">NoiseTaggingTaggerFactory(bits_per_second, length_bit, seed)</text><ellipse cx="33.5" cy="572.8359" fill="#84BE84" rx="3" ry="3" style="stroke:#038048;stroke-width:1.0;"/><text fill="#000000" font-family="sans-serif" font-size="14" lengthAdjust="spacing" textLength="671" x="42.5" y="576.1826">AAudioTagger create_auditory_stimulus(audio: Audio, stimuli_intervals: List[Tuple[float, float])</text></g><!--class RawTagger--><g id="elem_RawTagger"><rect codeLine="170" fill="#F1F1F1" height="64.2969" id="RawTagger" rx="2.5" ry="2.5" style="stroke:#181818;stroke-width:0.5;" width="127" x="1254.5" y="256"/><ellipse cx="1276.7" cy="272" fill="#ADD1B2" rx="11" ry="11" style="stroke:#181818;stroke-width:1.0;"/><path d="M1279.0438,267.6719 C1278.1063,267.2344 1277.5125,267.0938 1276.6375,267.0938 C1274.0125,267.0938 1272.0125,269.1719 1272.0125,271.8906 L1272.0125,273.0156 C1272.0125,275.5938 1274.1219,277.4844 1277.0125,277.4844 C1278.2313,277.4844 1279.3875,277.1875 1280.1375,276.6406 C1280.7156,276.2344 1281.0438,275.7813 1281.0438,275.3906 C1281.0438,274.9375 1280.6531,274.5469 1280.1844,274.5469 C1279.9656,274.5469 1279.7625,274.625 1279.575,274.8125 C1279.1219,275.2969 1279.1219,275.2969 1278.9344,275.3906 C1278.5125,275.6563 1277.825,275.7813 1277.0594,275.7813 C1275.0125,275.7813 1273.7156,274.6875 1273.7156,272.9844 L1273.7156,271.8906 C1273.7156,270.1094 1274.9656,268.7969 1276.7,268.7969 C1277.2781,268.7969 1277.8875,268.9531 1278.3563,269.2031 C1278.8406,269.4844 1279.0125,269.7031 1279.1063,270.1094 C1279.1688,270.5156 1279.2,270.6406 1279.3406,270.7656 C1279.4813,270.9063 1279.7156,271.0156 1279.9344,271.0156 C1280.2,271.0156 1280.4656,270.875 1280.6375,270.6563 C1280.7469,270.5 1280.7781,270.3125 1280.7781,269.8906 L1280.7781,268.4688 C1280.7781,268.0313 1280.7625,267.9063 1280.6688,267.75 C1280.5125,267.4844 1280.2313,267.3438 1279.9344,267.3438 C1279.6375,267.3438 1279.4344,267.4375 1279.2156,267.75 L1279.0438,267.6719 Z " fill="#000000"/><text fill="#000000" font-family="sans-serif" font-size="14" lengthAdjust="spacing" textLength="79" x="1292.3" y="276.8467">RawTagger</text><line style="stroke:#181818;stroke-width:0.5;" x1="1255.5" x2="1380.5" y1="288" y2="288"/><line style="stroke:#181818;stroke-width:0.5;" x1="1255.5" x2="1380.5" y1="296" y2="296"/><ellipse cx="1265.5" cy="309.6484" fill="#84BE84" rx="3" ry="3" style="stroke:#038048;stroke-width:1.0;"/><text fill="#000000" font-family="sans-serif" font-size="14" lengthAdjust="spacing" textLength="101" x="1274.5" y="312.9951">Audio create()</text></g><!--class RawTaggerFactory--><g id="elem_RawTaggerFactory"><rect codeLine="174" fill="#F1F1F1" height="64.2969" id="RawTaggerFactory" rx="2.5" ry="2.5" style="stroke:#181818;stroke-width:0.5;" width="697" x="754.5" y="486.5"/><ellipse cx="1032.25" cy="502.5" fill="#ADD1B2" rx="11" ry="11" style="stroke:#181818;stroke-width:1.0;"/><path d="M1034.5938,498.1719 C1033.6563,497.7344 1033.0625,497.5938 1032.1875,497.5938 C1029.5625,497.5938 1027.5625,499.6719 1027.5625,502.3906 L1027.5625,503.5156 C1027.5625,506.0938 1029.6719,507.9844 1032.5625,507.9844 C1033.7813,507.9844 1034.9375,507.6875 1035.6875,507.1406 C1036.2656,506.7344 1036.5938,506.2813 1036.5938,505.8906 C1036.5938,505.4375 1036.2031,505.0469 1035.7344,505.0469 C1035.5156,505.0469 1035.3125,505.125 1035.125,505.3125 C1034.6719,505.7969 1034.6719,505.7969 1034.4844,505.8906 C1034.0625,506.1563 1033.375,506.2813 1032.6094,506.2813 C1030.5625,506.2813 1029.2656,505.1875 1029.2656,503.4844 L1029.2656,502.3906 C1029.2656,500.6094 1030.5156,499.2969 1032.25,499.2969 C1032.8281,499.2969 1033.4375,499.4531 1033.9063,499.7031 C1034.3906,499.9844 1034.5625,500.2031 1034.6563,500.6094 C1034.7188,501.0156 1034.75,501.1406 1034.8906,501.2656 C1035.0313,501.4063 1035.2656,501.5156 1035.4844,501.5156 C1035.75,501.5156 1036.0156,501.375 1036.1875,501.1563 C1036.2969,501 1036.3281,500.8125 1036.3281,500.3906 L1036.3281,498.9688 C1036.3281,498.5313 1036.3125,498.4063 1036.2188,498.25 C1036.0625,497.9844 1035.7813,497.8438 1035.4844,497.8438 C1035.1875,497.8438 1034.9844,497.9375 1034.7656,498.25 L1034.5938,498.1719 Z " fill="#000000"/><text fill="#000000" font-family="sans-serif" font-size="14" lengthAdjust="spacing" textLength="133" x="1052.75" y="507.3467">RawTaggerFactory</text><line style="stroke:#181818;stroke-width:0.5;" x1="755.5" x2="1450.5" y1="518.5" y2="518.5"/><line style="stroke:#181818;stroke-width:0.5;" x1="755.5" x2="1450.5" y1="526.5" y2="526.5"/><ellipse cx="765.5" cy="540.1484" fill="#84BE84" rx="3" ry="3" style="stroke:#038048;stroke-width:1.0;"/><text fill="#000000" font-family="sans-serif" font-size="14" lengthAdjust="spacing" textLength="671" x="774.5" y="543.4951">AAudioTagger create_auditory_stimulus(audio: Audio, stimuli_intervals: List[Tuple[float, float])</text></g><!--class AMTagger--><g id="elem_AMTagger"><rect codeLine="117" fill="#F1F1F1" height="113.1875" id="AMTagger" rx="2.5" ry="2.5" style="stroke:#181818;stroke-width:0.5;" width="478" x="1596" y="231.5"/><ellipse cx="1794.75" cy="247.5" fill="#ADD1B2" rx="11" ry="11" style="stroke:#181818;stroke-width:1.0;"/><path d="M1797.0938,243.1719 C1796.1563,242.7344 1795.5625,242.5938 1794.6875,242.5938 C1792.0625,242.5938 1790.0625,244.6719 1790.0625,247.3906 L1790.0625,248.5156 C1790.0625,251.0938 1792.1719,252.9844 1795.0625,252.9844 C1796.2813,252.9844 1797.4375,252.6875 1798.1875,252.1406 C1798.7656,251.7344 1799.0938,251.2813 1799.0938,250.8906 C1799.0938,250.4375 1798.7031,250.0469 1798.2344,250.0469 C1798.0156,250.0469 1797.8125,250.125 1797.625,250.3125 C1797.1719,250.7969 1797.1719,250.7969 1796.9844,250.8906 C1796.5625,251.1563 1795.875,251.2813 1795.1094,251.2813 C1793.0625,251.2813 1791.7656,250.1875 1791.7656,248.4844 L1791.7656,247.3906 C1791.7656,245.6094 1793.0156,244.2969 1794.75,244.2969 C1795.3281,244.2969 1795.9375,244.4531 1796.4063,244.7031 C1796.8906,244.9844 1797.0625,245.2031 1797.1563,245.6094 C1797.2188,246.0156 1797.25,246.1406 1797.3906,246.2656 C1797.5313,246.4063 1797.7656,246.5156 1797.9844,246.5156 C1798.25,246.5156 1798.5156,246.375 1798.6875,246.1563 C1798.7969,246 1798.8281,245.8125 1798.8281,245.3906 L1798.8281,243.9688 C1798.8281,243.5313 1798.8125,243.4063 1798.7188,243.25 C1798.5625,242.9844 1798.2813,242.8438 1797.9844,242.8438 C1797.6875,242.8438 1797.4844,242.9375 1797.2656,243.25 L1797.0938,243.1719 Z " fill="#000000"/><text fill="#000000" font-family="sans-serif" font-size="14" lengthAdjust="spacing" textLength="72" x="1815.25" y="252.3467">AMTagger</text><line style="stroke:#181818;stroke-width:0.5;" x1="1597" x2="2073" y1="263.5" y2="263.5"/><rect fill="none" height="6" style="stroke:#C82930;stroke-width:1.0;" width="6" x="1604" y="274.1484"/><text fill="#000000" font-family="sans-serif" font-size="14" lengthAdjust="spacing" textLength="96" x="1616" y="280.4951">int frequency</text><rect fill="none" height="6" style="stroke:#C82930;stroke-width:1.0;" width="6" x="1604" y="290.4453"/><text fill="#000000" font-family="sans-serif" font-size="14" lengthAdjust="spacing" textLength="366" x="1616" y="296.792">Callable[[int, int, int], NDArray[float] tag_generator</text><line style="stroke:#181818;stroke-width:0.5;" x1="1597" x2="2073" y1="304.0938" y2="304.0938"/><ellipse cx="1607" cy="317.7422" fill="#84BE84" rx="3" ry="3" style="stroke:#038048;stroke-width:1.0;"/><text fill="#000000" font-family="sans-serif" font-size="14" lengthAdjust="spacing" textLength="452" x="1616" y="321.0889">ASSRTagger(audio, stimuli_intervals, frequency, tag_generator)</text><ellipse cx="1607" cy="334.0391" fill="#84BE84" rx="3" ry="3" style="stroke:#038048;stroke-width:1.0;"/><text fill="#000000" font-family="sans-serif" font-size="14" lengthAdjust="spacing" textLength="101" x="1616" y="337.3857">Audio create()</text></g><!--class FMTagger--><g id="elem_FMTagger"><rect codeLine="125" fill="#F1F1F1" height="96.8906" id="FMTagger" rx="2.5" ry="2.5" style="stroke:#181818;stroke-width:0.5;" width="349" x="2250.5" y="239.5"/><ellipse cx="2385.75" cy="255.5" fill="#ADD1B2" rx="11" ry="11" style="stroke:#181818;stroke-width:1.0;"/><path d="M2388.0938,251.1719 C2387.1563,250.7344 2386.5625,250.5938 2385.6875,250.5938 C2383.0625,250.5938 2381.0625,252.6719 2381.0625,255.3906 L2381.0625,256.5156 C2381.0625,259.0938 2383.1719,260.9844 2386.0625,260.9844 C2387.2813,260.9844 2388.4375,260.6875 2389.1875,260.1406 C2389.7656,259.7344 2390.0938,259.2813 2390.0938,258.8906 C2390.0938,258.4375 2389.7031,258.0469 2389.2344,258.0469 C2389.0156,258.0469 2388.8125,258.125 2388.625,258.3125 C2388.1719,258.7969 2388.1719,258.7969 2387.9844,258.8906 C2387.5625,259.1563 2386.875,259.2813 2386.1094,259.2813 C2384.0625,259.2813 2382.7656,258.1875 2382.7656,256.4844 L2382.7656,255.3906 C2382.7656,253.6094 2384.0156,252.2969 2385.75,252.2969 C2386.3281,252.2969 2386.9375,252.4531 2387.4063,252.7031 C2387.8906,252.9844 2388.0625,253.2031 2388.1563,253.6094 C2388.2188,254.0156 2388.25,254.1406 2388.3906,254.2656 C2388.5313,254.4063 2388.7656,254.5156 2388.9844,254.5156 C2389.25,254.5156 2389.5156,254.375 2389.6875,254.1563 C2389.7969,254 2389.8281,253.8125 2389.8281,253.3906 L2389.8281,251.9688 C2389.8281,251.5313 2389.8125,251.4063 2389.7188,251.25 C2389.5625,250.9844 2389.2813,250.8438 2388.9844,250.8438 C2388.6875,250.8438 2388.4844,250.9375 2388.2656,251.25 L2388.0938,251.1719 Z " fill="#000000"/><text fill="#000000" font-family="sans-serif" font-size="14" lengthAdjust="spacing" textLength="70" x="2406.25" y="260.3467">FMTagger</text><line style="stroke:#181818;stroke-width:0.5;" x1="2251.5" x2="2598.5" y1="271.5" y2="271.5"/><rect fill="none" height="6" style="stroke:#C82930;stroke-width:1.0;" width="6" x="2258.5" y="282.1484"/><text fill="#000000" font-family="sans-serif" font-size="14" lengthAdjust="spacing" textLength="96" x="2270.5" y="288.4951">int frequency</text><line style="stroke:#181818;stroke-width:0.5;" x1="2251.5" x2="2598.5" y1="295.7969" y2="295.7969"/><ellipse cx="2261.5" cy="309.4453" fill="#84BE84" rx="3" ry="3" style="stroke:#038048;stroke-width:1.0;"/><text fill="#000000" font-family="sans-serif" font-size="14" lengthAdjust="spacing" textLength="323" x="2270.5" y="312.792">FMTagger(audio, stimuli_intervals, frequency)</text><ellipse cx="2261.5" cy="325.7422" fill="#84BE84" rx="3" ry="3" style="stroke:#038048;stroke-width:1.0;"/><text fill="#000000" font-family="sans-serif" font-size="14" lengthAdjust="spacing" textLength="101" x="2270.5" y="329.0889">Audio create()</text></g><!--class AMTaggerFactory--><g id="elem_AMTaggerFactory"><rect codeLine="133" fill="#F1F1F1" height="113.1875" id="AMTaggerFactory" rx="2.5" ry="2.5" style="stroke:#181818;stroke-width:0.5;" width="697" x="1486.5" y="462"/><ellipse cx="1767.75" cy="478" fill="#ADD1B2" rx="11" ry="11" style="stroke:#181818;stroke-width:1.0;"/><path d="M1770.0938,473.6719 C1769.1563,473.2344 1768.5625,473.0938 1767.6875,473.0938 C1765.0625,473.0938 1763.0625,475.1719 1763.0625,477.8906 L1763.0625,479.0156 C1763.0625,481.5938 1765.1719,483.4844 1768.0625,483.4844 C1769.2813,483.4844 1770.4375,483.1875 1771.1875,482.6406 C1771.7656,482.2344 1772.0938,481.7813 1772.0938,481.3906 C1772.0938,480.9375 1771.7031,480.5469 1771.2344,480.5469 C1771.0156,480.5469 1770.8125,480.625 1770.625,480.8125 C1770.1719,481.2969 1770.1719,481.2969 1769.9844,481.3906 C1769.5625,481.6563 1768.875,481.7813 1768.1094,481.7813 C1766.0625,481.7813 1764.7656,480.6875 1764.7656,478.9844 L1764.7656,477.8906 C1764.7656,476.1094 1766.0156,474.7969 1767.75,474.7969 C1768.3281,474.7969 1768.9375,474.9531 1769.4063,475.2031 C1769.8906,475.4844 1770.0625,475.7031 1770.1563,476.1094 C1770.2188,476.5156 1770.25,476.6406 1770.3906,476.7656 C1770.5313,476.9063 1770.7656,477.0156 1770.9844,477.0156 C1771.25,477.0156 1771.5156,476.875 1771.6875,476.6563 C1771.7969,476.5 1771.8281,476.3125 1771.8281,475.8906 L1771.8281,474.4688 C1771.8281,474.0313 1771.8125,473.9063 1771.7188,473.75 C1771.5625,473.4844 1771.2813,473.3438 1770.9844,473.3438 C1770.6875,473.3438 1770.4844,473.4375 1770.2656,473.75 L1770.0938,473.6719 Z " fill="#000000"/><text fill="#000000" font-family="sans-serif" font-size="14" lengthAdjust="spacing" textLength="126" x="1788.25" y="482.8467">AMTaggerFactory</text><line style="stroke:#181818;stroke-width:0.5;" x1="1487.5" x2="2182.5" y1="494" y2="494"/><rect fill="none" height="6" style="stroke:#C82930;stroke-width:1.0;" width="6" x="1494.5" y="504.6484"/><text fill="#000000" font-family="sans-serif" font-size="14" lengthAdjust="spacing" textLength="96" x="1506.5" y="510.9951">int frequency</text><rect fill="none" height="6" style="stroke:#C82930;stroke-width:1.0;" width="6" x="1494.5" y="520.9453"/><text fill="#000000" font-family="sans-serif" font-size="14" lengthAdjust="spacing" textLength="371" x="1506.5" y="527.292">Callable[[int, int, int], NDArray[float]] tag_generator</text><line style="stroke:#181818;stroke-width:0.5;" x1="1487.5" x2="2182.5" y1="534.5938" y2="534.5938"/><ellipse cx="1497.5" cy="548.2422" fill="#84BE84" rx="3" ry="3" style="stroke:#038048;stroke-width:1.0;"/><text fill="#000000" font-family="sans-serif" font-size="14" lengthAdjust="spacing" textLength="319" x="1506.5" y="551.5889">AMTaggerFactory(frequency, tag_generator)</text><ellipse cx="1497.5" cy="564.5391" fill="#84BE84" rx="3" ry="3" style="stroke:#038048;stroke-width:1.0;"/><text fill="#000000" font-family="sans-serif" font-size="14" lengthAdjust="spacing" textLength="671" x="1506.5" y="567.8857">AAudioTagger create_auditory_stimulus(audio: Audio, stimuli_intervals: List[Tuple[float, float])</text></g><!--class FMTaggerFactory--><g id="elem_FMTaggerFactory"><rect codeLine="141" fill="#F1F1F1" height="96.8906" id="FMTaggerFactory" rx="2.5" ry="2.5" style="stroke:#181818;stroke-width:0.5;" width="697" x="2218.5" y="470"/><ellipse cx="2500.75" cy="486" fill="#ADD1B2" rx="11" ry="11" style="stroke:#181818;stroke-width:1.0;"/><path d="M2503.0938,481.6719 C2502.1563,481.2344 2501.5625,481.0938 2500.6875,481.0938 C2498.0625,481.0938 2496.0625,483.1719 2496.0625,485.8906 L2496.0625,487.0156 C2496.0625,489.5938 2498.1719,491.4844 2501.0625,491.4844 C2502.2813,491.4844 2503.4375,491.1875 2504.1875,490.6406 C2504.7656,490.2344 2505.0938,489.7813 2505.0938,489.3906 C2505.0938,488.9375 2504.7031,488.5469 2504.2344,488.5469 C2504.0156,488.5469 2503.8125,488.625 2503.625,488.8125 C2503.1719,489.2969 2503.1719,489.2969 2502.9844,489.3906 C2502.5625,489.6563 2501.875,489.7813 2501.1094,489.7813 C2499.0625,489.7813 2497.7656,488.6875 2497.7656,486.9844 L2497.7656,485.8906 C2497.7656,484.1094 2499.0156,482.7969 2500.75,482.7969 C2501.3281,482.7969 2501.9375,482.9531 2502.4063,483.2031 C2502.8906,483.4844 2503.0625,483.7031 2503.1563,484.1094 C2503.2188,484.5156 2503.25,484.6406 2503.3906,484.7656 C2503.5313,484.9063 2503.7656,485.0156 2503.9844,485.0156 C2504.25,485.0156 2504.5156,484.875 2504.6875,484.6563 C2504.7969,484.5 2504.8281,484.3125 2504.8281,483.8906 L2504.8281,482.4688 C2504.8281,482.0313 2504.8125,481.9063 2504.7188,481.75 C2504.5625,481.4844 2504.2813,481.3438 2503.9844,481.3438 C2503.6875,481.3438 2503.4844,481.4375 2503.2656,481.75 L2503.0938,481.6719 Z " fill="#000000"/><text fill="#000000" font-family="sans-serif" font-size="14" lengthAdjust="spacing" textLength="124" x="2521.25" y="490.8467">FMTaggerFactory</text><line style="stroke:#181818;stroke-width:0.5;" x1="2219.5" x2="2914.5" y1="502" y2="502"/><rect fill="none" height="6" style="stroke:#C82930;stroke-width:1.0;" width="6" x="2226.5" y="512.6484"/><text fill="#000000" font-family="sans-serif" font-size="14" lengthAdjust="spacing" textLength="96" x="2238.5" y="518.9951">int frequency</text><line style="stroke:#181818;stroke-width:0.5;" x1="2219.5" x2="2914.5" y1="526.2969" y2="526.2969"/><ellipse cx="2229.5" cy="539.9453" fill="#84BE84" rx="3" ry="3" style="stroke:#038048;stroke-width:1.0;"/><text fill="#000000" font-family="sans-serif" font-size="14" lengthAdjust="spacing" textLength="206" x="2238.5" y="543.292">FMTaggerFactory(frequency)</text><ellipse cx="2229.5" cy="556.2422" fill="#84BE84" rx="3" ry="3" style="stroke:#038048;stroke-width:1.0;"/><text fill="#000000" font-family="sans-serif" font-size="14" lengthAdjust="spacing" textLength="671" x="2238.5" y="559.5889">AAudioTagger create_auditory_stimulus(audio: Audio, stimuli_intervals: List[Tuple[float, float])</text></g><g id="elem_n"><path d="M2972,62 L2972,117.3984 L3330,117.3984 L3330,72 L3320,62 L2972,62 " fill="#FEFFDD" style="stroke:#181818;stroke-width:0.5;"/><path d="M3320,62 L3320,72 L3330,72 L3320,62 " fill="#FEFFDD" style="stroke:#181818;stroke-width:1.0;"/><text fill="#000000" font-family="sans-serif" font-size="13" font-weight="bold" lengthAdjust="spacing" textLength="38" x="2978" y="79.0669">Note</text><text fill="#000000" font-family="sans-serif" font-size="13" lengthAdjust="spacing" textLength="299" x="3016" y="79.0669">: To save space, constructor parameter types,</text><text fill="#000000" font-family="sans-serif" font-size="13" lengthAdjust="spacing" textLength="308" x="2978" y="94.1997">which match the types of the class parameters,</text><text fill="#000000" font-family="sans-serif" font-size="13" lengthAdjust="spacing" textLength="107" x="2978" y="109.3325">are not specified</text></g><!--class Audio--><g id="elem_Audio"><rect codeLine="7" fill="#F1F1F1" height="80.5938" id="Audio" rx="2.5" ry="2.5" style="stroke:#181818;stroke-width:0.5;" width="194" x="2872" y="1187.5"/><ellipse cx="2944.75" cy="1203.5" fill="#ADD1B2" rx="11" ry="11" style="stroke:#181818;stroke-width:1.0;"/><path d="M2947.0938,1199.1719 C2946.1563,1198.7344 2945.5625,1198.5938 2944.6875,1198.5938 C2942.0625,1198.5938 2940.0625,1200.6719 2940.0625,1203.3906 L2940.0625,1204.5156 C2940.0625,1207.0938 2942.1719,1208.9844 2945.0625,1208.9844 C2946.2813,1208.9844 2947.4375,1208.6875 2948.1875,1208.1406 C2948.7656,1207.7344 2949.0938,1207.2813 2949.0938,1206.8906 C2949.0938,1206.4375 2948.7031,1206.0469 2948.2344,1206.0469 C2948.0156,1206.0469 2947.8125,1206.125 2947.625,1206.3125 C2947.1719,1206.7969 2947.1719,1206.7969 2946.9844,1206.8906 C2946.5625,1207.1563 2945.875,1207.2813 2945.1094,1207.2813 C2943.0625,1207.2813 2941.7656,1206.1875 2941.7656,1204.4844 L2941.7656,1203.3906 C2941.7656,1201.6094 2943.0156,1200.2969 2944.75,1200.2969 C2945.3281,1200.2969 2945.9375,1200.4531 2946.4063,1200.7031 C2946.8906,1200.9844 2947.0625,1201.2031 2947.1563,1201.6094 C2947.2188,1202.0156 2947.25,1202.1406 2947.3906,1202.2656 C2947.5313,1202.4063 2947.7656,1202.5156 2947.9844,1202.5156 C2948.25,1202.5156 2948.5156,1202.375 2948.6875,1202.1563 C2948.7969,1202 2948.8281,1201.8125 2948.8281,1201.3906 L2948.8281,1199.9688 C2948.8281,1199.5313 2948.8125,1199.4063 2948.7188,1199.25 C2948.5625,1198.9844 2948.2813,1198.8438 2947.9844,1198.8438 C2947.6875,1198.8438 2947.4844,1198.9375 2947.2656,1199.25 L2947.0938,1199.1719 Z " fill="#000000"/><text fill="#000000" font-family="sans-serif" font-size="14" lengthAdjust="spacing" textLength="40" x="2965.25" y="1208.3467">Audio</text><line style="stroke:#181818;stroke-width:0.5;" x1="2873" x2="3065" y1="1219.5" y2="1219.5"/><ellipse cx="2883" cy="1233.1484" fill="none" rx="3" ry="3" style="stroke:#038048;stroke-width:1.0;"/><text fill="#000000" font-family="sans-serif" font-size="14" lengthAdjust="spacing" textLength="143" x="2892" y="1236.4951">NDArray[float] array</text><ellipse cx="2883" cy="1249.4453" fill="none" rx="3" ry="3" style="stroke:#038048;stroke-width:1.0;"/><text fill="#000000" font-family="sans-serif" font-size="14" lengthAdjust="spacing" textLength="168" x="2892" y="1252.792">int sampling_frequency</text><line style="stroke:#181818;stroke-width:0.5;" x1="2873" x2="3065" y1="1260.0938" y2="1260.0938"/></g><!--class Experiment--><g id="elem_Experiment"><rect codeLine="199" fill="#F1F1F1" height="96.8906" id="Experiment" rx="2.5" ry="2.5" style="stroke:#181818;stroke-width:0.5;" width="876" x="1365" y="869"/><ellipse cx="1756.25" cy="885" fill="#ADD1B2" rx="11" ry="11" style="stroke:#181818;stroke-width:1.0;"/><path d="M1758.5938,880.6719 C1757.6563,880.2344 1757.0625,880.0938 1756.1875,880.0938 C1753.5625,880.0938 1751.5625,882.1719 1751.5625,884.8906 L1751.5625,886.0156 C1751.5625,888.5938 1753.6719,890.4844 1756.5625,890.4844 C1757.7813,890.4844 1758.9375,890.1875 1759.6875,889.6406 C1760.2656,889.2344 1760.5938,888.7813 1760.5938,888.3906 C1760.5938,887.9375 1760.2031,887.5469 1759.7344,887.5469 C1759.5156,887.5469 1759.3125,887.625 1759.125,887.8125 C1758.6719,888.2969 1758.6719,888.2969 1758.4844,888.3906 C1758.0625,888.6563 1757.375,888.7813 1756.6094,888.7813 C1754.5625,888.7813 1753.2656,887.6875 1753.2656,885.9844 L1753.2656,884.8906 C1753.2656,883.1094 1754.5156,881.7969 1756.25,881.7969 C1756.8281,881.7969 1757.4375,881.9531 1757.9063,882.2031 C1758.3906,882.4844 1758.5625,882.7031 1758.6563,883.1094 C1758.7188,883.5156 1758.75,883.6406 1758.8906,883.7656 C1759.0313,883.9063 1759.2656,884.0156 1759.4844,884.0156 C1759.75,884.0156 1760.0156,883.875 1760.1875,883.6563 C1760.2969,883.5 1760.3281,883.3125 1760.3281,882.8906 L1760.3281,881.4688 C1760.3281,881.0313 1760.3125,880.9063 1760.2188,880.75 C1760.0625,880.4844 1759.7813,880.3438 1759.4844,880.3438 C1759.1875,880.3438 1758.9844,880.4375 1758.7656,880.75 L1758.5938,880.6719 Z " fill="#000000"/><text fill="#000000" font-family="sans-serif" font-size="14" lengthAdjust="spacing" textLength="85" x="1776.75" y="889.8467">Experiment</text><line style="stroke:#181818;stroke-width:0.5;" x1="1366" x2="2240" y1="901" y2="901"/><line style="stroke:#181818;stroke-width:0.5;" x1="1366" x2="2240" y1="909" y2="909"/><ellipse cx="1376" cy="922.6484" fill="#84BE84" rx="3" ry="3" style="stroke:#038048;stroke-width:1.0;"/><text fill="#000000" font-family="sans-serif" font-size="14" lengthAdjust="spacing" textLength="850" x="1385" y="925.9951">Experiment(model: Model, view: AView, stimuli: List[Stimulus], auditory_stimulus_factories: List[AAudioTaggerFactory])</text><ellipse cx="1376" cy="938.9453" fill="#84BE84" rx="3" ry="3" style="stroke:#038048;stroke-width:1.0;"/><text fill="#000000" font-family="sans-serif" font-size="14" lengthAdjust="spacing" textLength="146" x="1385" y="942.292">void create_stimuli()</text><ellipse cx="1376" cy="955.2422" fill="#84BE84" rx="3" ry="3" style="stroke:#038048;stroke-width:1.0;"/><text fill="#000000" font-family="sans-serif" font-size="14" lengthAdjust="spacing" textLength="67" x="1385" y="958.5889">void run()</text></g><!--reverse link AObserver to Logger--><g id="link_AObserver_Logger"><path codeLine="54" d="M1301.4589,1278.0778 C1295.0489,1326.1078 1285.14,1400.419 1277.85,1455.126 " fill="none" id="AObserver-backto-Logger" style="stroke:#181818;stroke-width:1.0;"/><polygon fill="none" points="1303.84,1260.236,1295.5116,1277.2841,1307.4061,1278.8715,1303.84,1260.236" style="stroke:#181818;stroke-width:1.0;"/></g><!--reverse link Stimulus to Audio--><g id="link_Stimulus_Audio"><path codeLine="79" d="M2655.0274,1436.7729 C2733.7774,1384.6619 2839.51,1314.689 2909.24,1268.549 " fill="none" id="Stimulus-backto-Audio" style="stroke:#181818;stroke-width:1.0;"/><polygon fill="#181818" points="2645.02,1443.395,2652.2311,1443.4197,2655.0274,1436.7729,2647.8163,1436.7481,2645.02,1443.395" style="stroke:#181818;stroke-width:1.0;"/><text fill="#000000" font-family="sans-serif" font-size="13" lengthAdjust="spacing" textLength="35" x="2791" y="1356.0669">audio</text><text fill="#000000" font-family="sans-serif" font-size="13" lengthAdjust="spacing" textLength="8" x="2647.2726" y="1432.2449">1</text><text fill="#000000" font-family="sans-serif" font-size="13" lengthAdjust="spacing" textLength="8" x="2891.4768" y="1288.0147">1</text></g><!--link Audio to CreatedStimulus--><g id="link_Audio_CreatedStimulus"><path codeLine="85" d="M2871.74,1228 C2832.78,1228 2797.74,1228 2749.59,1228 " fill="none" id="Audio-to-CreatedStimulus" style="stroke:#181818;stroke-width:1.0;"/><polygon fill="#181818" points="2737.59,1228,2743.59,1232,2749.59,1228,2743.59,1224,2737.59,1228" style="stroke:#181818;stroke-width:1.0;"/><text fill="#000000" font-family="sans-serif" font-size="13" lengthAdjust="spacing" textLength="98" x="2755.75" y="1221.0669">modified_audio</text><text fill="#000000" font-family="sans-serif" font-size="13" lengthAdjust="spacing" textLength="8" x="2855.9873" y="1224.5133">1</text><text fill="#000000" font-family="sans-serif" font-size="13" lengthAdjust="spacing" textLength="8" x="2745.0697" y="1224.8748">1</text></g><!--link CreatedStimulus to Stimulus--><g id="link_CreatedStimulus_Stimulus"><path codeLine="88" d="M2474.79,1268.549 C2492.05,1314.689 2514.4044,1374.4246 2533.8944,1426.5356 " fill="none" id="CreatedStimulus-to-Stimulus" style="stroke:#181818;stroke-width:1.0;"/><polygon fill="none" points="2540.2,1443.395,2539.5142,1424.4337,2528.2746,1428.6374,2540.2,1443.395" style="stroke:#181818;stroke-width:1.0;"/></g><!--reverse link Model to CreatedStimulus--><g id="link_Model_CreatedStimulus"><path codeLine="91" d="M2053.12,1228 C2098.93,1228 2135.29,1228 2182.23,1228 " fill="none" id="Model-backto-CreatedStimulus" style="stroke:#181818;stroke-width:1.0;"/><polygon fill="#181818" points="2041.12,1228,2047.12,1232,2053.12,1228,2047.12,1224,2041.12,1228" style="stroke:#181818;stroke-width:1.0;"/><text fill="#000000" font-family="sans-serif" font-size="13" lengthAdjust="spacing" textLength="105" x="2059.25" y="1221.0669">stimulus_history</text><text fill="#000000" font-family="sans-serif" font-size="13" lengthAdjust="spacing" textLength="8" x="2049.0646" y="1224.8173">1</text><text fill="#000000" font-family="sans-serif" font-size="13" lengthAdjust="spacing" textLength="7" x="2167.7588" y="1224.8748">*</text></g><!--reverse link Model to EExperimentState--><g id="link_Model_EExperimentState"><path codeLine="92" d="M1725.722,1322.476 C1717.792,1332.472 1717.37,1333.202 1710,1343 C1689.8,1369.851 1668.55,1400.07 1650.3,1426.711 " fill="none" id="Model-backto-EExperimentState" style="stroke:#181818;stroke-width:1.0;"/><polygon fill="none" points="1733.18,1313.075,1726.3174,1315.2895,1725.722,1322.476,1732.5847,1320.2615,1733.18,1313.075" style="stroke:#181818;stroke-width:1.0;"/><text fill="#000000" font-family="sans-serif" font-size="13" lengthAdjust="spacing" textLength="114" x="1711" y="1356.0669">experiment_state</text><text fill="#000000" font-family="sans-serif" font-size="13" lengthAdjust="spacing" textLength="7" x="1719.6499" y="1333.3775">*</text><text fill="#000000" font-family="sans-serif" font-size="13" lengthAdjust="spacing" textLength="8" x="1646.6608" y="1415.8425">1</text></g><!--link AObserver to Model--><g id="link_AObserver_Model"><path codeLine="93" d="M1530.36,1228 C1541.9,1228 1541.44,1228 1552.98,1228 " fill="none" id="AObserver-to-Model" style="stroke:#181818;stroke-width:1.0;"/><polygon fill="none" points="1564.98,1228,1558.98,1224,1552.98,1228,1558.98,1232,1564.98,1228" style="stroke:#181818;stroke-width:1.0;"/><text fill="#000000" font-family="sans-serif" font-size="13" lengthAdjust="spacing" textLength="7" x="1537.771" y="1224.8181">*</text><text fill="#000000" font-family="sans-serif" font-size="13" lengthAdjust="spacing" textLength="8" x="1549.0387" y="1224.8173">1</text></g><!--link Model to EModelUpdateIdentifier--><g id="link_Model_EModelUpdateIdentifier"><path codeLine="94" d="M1824.55,1313.319 C1836.17,1358.809 1848.6039,1407.4679 1858.3539,1445.6069 " fill="none" id="Model-to-EModelUpdateIdentifier" style="stroke:#181818;stroke-width:1.0;stroke-dasharray:7.0,7.0;"/><polygon fill="#181818" points="1859.84,1451.42,1861.4863,1441.7097,1858.6016,1446.5758,1853.7355,1443.6911,1859.84,1451.42" style="stroke:#181818;stroke-width:1.0;"/><text fill="#000000" font-family="sans-serif" font-size="13" lengthAdjust="spacing" textLength="30" x="1837" y="1356.0669">uses</text></g><!--reverse link constants to AObserver--><g id="link_constants_AObserver"><path codeLine="96" d="M1448.7318,1377.5723 C1447.6244,1374.1202 1446.41,1371.2948 1445,1368 C1425.87,1323.299 1385.14,1285.036 1353.04,1260.04 " fill="none" id="constants-backto-AObserver" style="stroke:#181818;stroke-width:1.0;stroke-dasharray:7.0,7.0;"/><polygon fill="#181818" points="1450.3238,1383.3572,1451.7925,1373.6185,1448.9972,1378.5364,1444.0792,1375.7411,1450.3238,1383.3572" style="stroke:#181818;stroke-width:1.0;"/><text fill="#000000" font-family="sans-serif" font-size="13" lengthAdjust="spacing" textLength="30" x="1442" y="1356.0669">uses</text></g><!--link AView to AObserver--><g id="link_AView_AObserver"><path codeLine="98" d="M969.022,1027.049 C1070.38,1086.835 1173.2962,1147.545 1239.9362,1186.853 " fill="none" id="AView-to-AObserver" style="stroke:#181818;stroke-width:1.0;"/><polygon fill="none" points="1255.44,1195.998,1242.9845,1181.685,1236.8878,1192.0209,1255.44,1195.998" style="stroke:#181818;stroke-width:1.0;"/></g><!--reverse link AAuditoryTagger to Audio--><g id="link_AAuditoryTagger_Audio"><path codeLine="109" d="M1983.5228,95.0642 C2260.6028,104.6342 2857.1,131.52 2932,188.5 C2969.22,216.81 2969,240.24 2969,287 C2969,287 2969,287 2969,918.5 C2969,1014.906 2969,1128.259 2969,1187.065 " fill="none" id="AAuditoryTagger-backto-Audio" style="stroke:#181818;stroke-width:1.0;"/><polygon fill="#181818" points="1971.53,94.65,1977.3884,98.8547,1983.5228,95.0642,1977.6645,90.8595,1971.53,94.65" style="stroke:#181818;stroke-width:1.0;"/><text fill="#000000" font-family="sans-serif" font-size="13" lengthAdjust="spacing" textLength="35" x="2970" y="626.0669">audio</text><text fill="#000000" font-family="sans-serif" font-size="13" lengthAdjust="spacing" textLength="8" x="1979.6544" y="91.588">1</text><text fill="#000000" font-family="sans-serif" font-size="13" lengthAdjust="spacing" textLength="8" x="2960.3625" y="1176.4555">1</text></g><!--reverse link AAuditoryTagger to RawTagger--><g id="link_AAuditoryTagger_RawTagger"><path codeLine="179" d="M1680.9403,120.4912 C1610.8503,136.4712 1542.68,156.16 1470,188.5 C1429.63,206.46 1387.79,234.38 1358.25,255.91 " fill="none" id="AAuditoryTagger-backto-RawTagger" style="stroke:#181818;stroke-width:1.0;"/><polygon fill="none" points="1698.49,116.49,1679.6066,114.6413,1682.2741,126.3411,1698.49,116.49" style="stroke:#181818;stroke-width:1.0;"/></g><!--reverse link AAuditoryTagger to NoiseTaggingTagger--><g id="link_AAuditoryTagger_NoiseTaggingTagger"><path codeLine="180" d="M1680.4917,114.7065 C1559.1717,133.9265 1394.98,160.54 1237,188.5 C1170.52,200.27 1099.35,213.43 1031.72,226.2 " fill="none" id="AAuditoryTagger-backto-NoiseTaggingTagger" style="stroke:#181818;stroke-width:1.0;"/><polygon fill="none" points="1698.27,111.89,1679.5529,108.7804,1681.4306,120.6326,1698.27,111.89" style="stroke:#181818;stroke-width:1.0;"/></g><!--reverse link AAuditoryTagger to AMTagger--><g id="link_AAuditoryTagger_AMTagger"><path codeLine="181" d="M1835,156.07 C1835,184.12 1835,201.77 1835,231.16 " fill="none" id="AAuditoryTagger-backto-AMTagger" style="stroke:#181818;stroke-width:1.0;"/><polygon fill="none" points="1835,138.07,1829,156.07,1841,156.07,1835,138.07" style="stroke:#181818;stroke-width:1.0;"/></g><!--reverse link AAuditoryTagger to FMTagger--><g id="link_AAuditoryTagger_FMTagger"><path codeLine="182" d="M1988.9176,141.7582 C2082.0176,172.7682 2187.89,208.03 2282.22,239.45 " fill="none" id="AAuditoryTagger-backto-FMTagger" style="stroke:#181818;stroke-width:1.0;"/><polygon fill="none" points="1971.84,136.07,1987.0215,147.4508,1990.8137,136.0657,1971.84,136.07" style="stroke:#181818;stroke-width:1.0;"/></g><!--link AMTaggerFactory to AAudioTaggerFactory--><g id="link_AMTaggerFactory_AAudioTaggerFactory"><path codeLine="184" d="M1824.61,575.18 C1819.39,603.15 1816.564,618.3158 1812.164,641.8798 " fill="none" id="AMTaggerFactory-to-AAudioTaggerFactory" style="stroke:#181818;stroke-width:1.0;"/><polygon fill="none" points="1808.86,659.574,1818.062,642.9811,1806.2659,640.7785,1808.86,659.574" style="stroke:#181818;stroke-width:1.0;"/></g><!--link FMTaggerFactory to AAudioTaggerFactory--><g id="link_FMTaggerFactory_AAudioTaggerFactory"><path codeLine="185" d="M2355.2,567.04 C2223.05,596.71 2074.3029,630.0975 1958.9029,656.0025 " fill="none" id="FMTaggerFactory-to-AAudioTaggerFactory" style="stroke:#181818;stroke-width:1.0;"/><polygon fill="none" points="1941.34,659.945,1960.2171,661.8568,1957.5888,650.1482,1941.34,659.945" style="stroke:#181818;stroke-width:1.0;"/></g><!--link NoiseTaggingTaggerFactory to AAudioTaggerFactory--><g id="link_NoiseTaggingTaggerFactory_AAudioTaggerFactory"><path codeLine="186" d="M645.094,583.01 C675.992,588.98 707.104,594.48 737,599 C975.888,635.1 1229.2405,657.0609 1438.3605,671.1159 " fill="none" id="NoiseTaggingTaggerFactory-to-AAudioTaggerFactory" style="stroke:#181818;stroke-width:1.0;"/><polygon fill="none" points="1456.32,672.323,1438.7629,665.1294,1437.9582,677.1024,1456.32,672.323" style="stroke:#181818;stroke-width:1.0;"/></g><!--link RawTaggerFactory to AAudioTaggerFactory--><g id="link_RawTaggerFactory_AAudioTaggerFactory"><path codeLine="187" d="M1229.76,550.56 C1356.33,581.57 1532.2672,624.6661 1658.8072,655.6731 " fill="none" id="RawTaggerFactory-to-AAudioTaggerFactory" style="stroke:#181818;stroke-width:1.0;"/><polygon fill="none" points="1676.29,659.957,1660.2352,649.8455,1657.3792,661.5007,1676.29,659.957" style="stroke:#181818;stroke-width:1.0;"/></g><!--reverse link AMTagger to AMTaggerFactory--><g id="link_AMTagger_AMTaggerFactory"><path codeLine="189" d="M1835,350.61 C1835,386.14 1835,426.06 1835,461.65 " fill="none" id="AMTagger-backto-AMTaggerFactory" style="stroke:#181818;stroke-width:1.0;stroke-dasharray:7.0,7.0;"/><polygon fill="#181818" points="1835,344.61,1831,353.61,1835,349.61,1839,353.61,1835,344.61" style="stroke:#181818;stroke-width:1.0;"/><text fill="#000000" font-family="sans-serif" font-size="13" lengthAdjust="spacing" textLength="48" x="1836" y="420.0669">creates</text></g><!--reverse link FMTagger to FMTaggerFactory--><g id="link_FMTagger_FMTaggerFactory"><path codeLine="190" d="M2457.7665,341.7164 C2482.0665,380.8264 2513.15,430.85 2537.44,469.94 " fill="none" id="FMTagger-backto-FMTaggerFactory" style="stroke:#181818;stroke-width:1.0;stroke-dasharray:7.0,7.0;"/><polygon fill="#181818" points="2454.6,336.62,2455.9522,346.3756,2457.2388,340.867,2462.7474,342.1536,2454.6,336.62" style="stroke:#181818;stroke-width:1.0;"/><text fill="#000000" font-family="sans-serif" font-size="13" lengthAdjust="spacing" textLength="48" x="2510" y="420.0669">creates</text></g><!--reverse link NoiseTaggingTagger to NoiseTaggingTaggerFactory--><g id="link_NoiseTaggingTagger_NoiseTaggingTaggerFactory"><path codeLine="191" d="M579.9361,380.3126 C540.8761,405.9526 503.992,430.18 467.717,453.99 " fill="none" id="NoiseTaggingTagger-backto-NoiseTaggingTaggerFactory" style="stroke:#181818;stroke-width:1.0;stroke-dasharray:7.0,7.0;"/><polygon fill="#181818" points="584.952,377.02,575.2331,378.6149,580.7721,379.7638,579.6232,385.3028,584.952,377.02" style="stroke:#181818;stroke-width:1.0;"/><text fill="#000000" font-family="sans-serif" font-size="13" lengthAdjust="spacing" textLength="48" x="536" y="420.0669">creates</text></g><!--reverse link RawTagger to RawTaggerFactory--><g id="link_RawTagger_RawTaggerFactory"><path codeLine="192" d="M1284.4485,324.6598 C1243.3885,368.2998 1173.48,442.59 1132.43,486.22 " fill="none" id="RawTagger-backto-RawTaggerFactory" style="stroke:#181818;stroke-width:1.0;stroke-dasharray:7.0,7.0;"/><polygon fill="#181818" points="1288.56,320.29,1279.4795,324.1038,1285.1337,323.9315,1285.306,329.5858,1288.56,320.29" style="stroke:#181818;stroke-width:1.0;"/><text fill="#000000" font-family="sans-serif" font-size="13" lengthAdjust="spacing" textLength="48" x="1206" y="420.0669">creates</text></g><!--reverse link AView to PsychopyView--><g id="link_AView_PsychopyView"><path codeLine="194" d="M768.9925,1045.1239 C760.9005,1109.1359 753.615,1166.767 748.915,1203.941 " fill="none" id="AView-backto-PsychopyView" style="stroke:#181818;stroke-width:1.0;"/><polygon fill="none" points="771.25,1027.266,763.0399,1044.3714,774.9451,1045.8764,771.25,1027.266" style="stroke:#181818;stroke-width:1.0;"/></g><!--reverse link AView to CLIView--><g id="link_AView_CLIView"><path codeLine="195" d="M828.6224,1044.2721 C850.8244,1108.2841 871.109,1166.767 884.002,1203.941 " fill="none" id="AView-backto-CLIView" style="stroke:#181818;stroke-width:1.0;"/><polygon fill="none" points="822.724,1027.266,822.9537,1046.2383,834.2911,1042.306,822.724,1027.266" style="stroke:#181818;stroke-width:1.0;"/></g><!--reverse link Experiment to Model--><g id="link_Experiment_Model"><path codeLine="204" d="M1803,978.027 C1803,1025.014 1803,1085.915 1803,1142.736 " fill="none" id="Experiment-backto-Model" style="stroke:#181818;stroke-width:1.0;"/><polygon fill="#181818" points="1803,966.027,1799,972.027,1803,978.027,1807,972.027,1803,966.027" style="stroke:#181818;stroke-width:1.0;"/><text fill="#000000" font-family="sans-serif" font-size="13" lengthAdjust="spacing" textLength="8" x="1794.4375" y="985.9897">1</text><text fill="#000000" font-family="sans-serif" font-size="13" lengthAdjust="spacing" textLength="8" x="1794.6563" y="1131.8219">1</text></g><!--link AView to Experiment--><g id="link_AView_Experiment"><path codeLine="205" d="M1029.56,917.5 C1141.35,917.5 1241.13,917.5 1352.92,917.5 " fill="none" id="AView-to-Experiment" style="stroke:#181818;stroke-width:1.0;"/><polygon fill="#181818" points="1364.92,917.5,1358.92,913.5,1352.92,917.5,1358.92,921.5,1364.92,917.5" style="stroke:#181818;stroke-width:1.0;"/><text fill="#000000" font-family="sans-serif" font-size="13" lengthAdjust="spacing" textLength="8" x="1037.7159" y="914.3191">1</text><text fill="#000000" font-family="sans-serif" font-size="13" lengthAdjust="spacing" textLength="8" x="1349.3218" y="914.4401">1</text></g><!--link AAudioTaggerFactory to Experiment--><g id="link_AAudioTaggerFactory_Experiment"><path codeLine="206" d="M1803,724.077 C1803,761.619 1803,813.173 1803,856.905 " fill="none" id="AAudioTaggerFactory-to-Experiment" style="stroke:#181818;stroke-width:1.0;"/><polygon fill="#181818" points="1803,868.905,1807,862.905,1803,856.905,1799,862.905,1803,868.905" style="stroke:#181818;stroke-width:1.0;"/><text fill="#000000" font-family="sans-serif" font-size="13" lengthAdjust="spacing" textLength="7" x="1795.2781" y="744.2897">*</text><text fill="#000000" font-family="sans-serif" font-size="13" lengthAdjust="spacing" textLength="8" x="1794.4375" y="858.1006">1</text></g><!--reverse link Experiment to CreatedStimulus--><g id="link_Experiment_CreatedStimulus"><path codeLine="207" d="M1915.0821,971.1274 C2044.3921,1031.8464 2255,1130.741 2375.64,1187.388 " fill="none" id="Experiment-backto-CreatedStimulus" style="stroke:#181818;stroke-width:1.0;"/><polygon fill="#181818" points="1904.22,966.027,1907.9509,972.1979,1915.0821,971.1274,1911.3512,964.9565,1904.22,966.027" style="stroke:#181818;stroke-width:1.0;"/><path d="M2176,1062 L2176,1087 L2434,1087 L2434,1072 L2424,1062 L2176,1062 " fill="#FEFFDD" style="stroke:#181818;stroke-width:0.5;"/><path d="M2424,1062 L2424,1072 L2434,1072 L2424,1062 " fill="#FEFFDD" style="stroke:#181818;stroke-width:0.5;"/><text fill="#000000" font-family="sans-serif" font-size="13" lengthAdjust="spacing" textLength="237" x="2182" y="1079.0669">Created by calling  `create_stimuli()`</text><text fill="#000000" font-family="sans-serif" font-size="13" lengthAdjust="spacing" textLength="8" x="1909.8916" y="985.9897">1</text><text fill="#000000" font-family="sans-serif" font-size="13" lengthAdjust="spacing" textLength="7" x="2354.0882" y="1176.531">*</text></g><!--SRC=[nLXHRzis47xNho3S5wMHCkpL20mOZj8PI9mWTheDWQ7I4cqBbKLDf98QRVxxZgGaKfJaPiMwvS6EUSUxx-u-tb7AA2S8CvGv25rk9WluUVdBPZ96AueOVYQ8vJWY7efendXHHfmMACS5FX1E2iIFEM4UR7tP9z4U7J27JxudIe3eLlw8KioOtYKtu8AWZ78mJw9acv3O8LaiLeZZAFrf6ISKVGLTzNU-k9eM1Ju-RLEA-Heim0yjJJ8mXWzvccIxS5kGlqgIHKh-wZWGn6Uy8-Wv8I-LJRo1W734AtZJZo2wlBpRC58yas8oCLo_c-4qnPkKF3r9L6iFBMX6reZHCel3FCL7KcZjgoJYJq7m9IT5SY0PNtBC8OLtEKzeXjCdyBjU8zB8Gqw-SEReM2GMrpJkTTJFjFwxPvh4w6iTq2igynWyXXbv2HbF3cLQChV-Punc1G5flAmMphvd9vQ6Sk6ySDNN687ATpU61cOcSX16UvpjIEo258-HdI9jy5mQL5OgvMbsz50IWwwW2o08RcbCqaUfCs_MjOaDfQc9QKTu22pU9WNG50hXskuCtHUSS9UH2B85l3ghMII-55lksJ7Qq_puKVEf9P_Tp5iYWu870Nk0WpNxJDh_S2fwO4izLBDSC7eoqQxycuHnoKwaoXpkOO4MHqqrNremKkTBU71ka-tnH-3f40ko0sz0CN56npeNjju_PRNULL7upNiKMpiiTXK2-6-8mgsStz3TZXG3dSM_ntmlpZOjE0lZf22HJ7W3HErsK_WIZQtH62EnyoRvtBWKdqeR-QN_RQ8pgD3K_9ET76USLJ18LXuwSHWGvulfR3N_61WBguUxgqTOl5iqYm_1SZLVV0YNg-ag28C_WsLuTn-SbCzkxfR1LQCH_74VFCnlWyKgxFMWvMQE5VfUWXanB8BVmVFyzl7cSTbQl1SM7_emAA2ptwQB3nN8rsvjQ-QOvnNE3nmVUiYvlIROPrIsEMnK3WPcYLPb3WD73ZiFgPctHk2F2EuTScPWQc2CVXsXzxull-Ma6YCilbgjgKrw4tfhGg6IGUldM30gXEb7KgtOiI6EGnAzeYq4tdSwQqrFj3yvxqEiy4cO9eTjsogcj1LKsuZZz6xqnI6eVuaEhBgVibU0lVSZUyyOZMhCTUyRrTj0c_fLRktZ0lliBZ4ot560h_pfCwca5nUJ0VQ2IIW06pcEdWeNAQWtvzVGaBF6jmvzCt54aaGeifZGHGQ6pxHIMycIDxnubmeseZOJ4TnzPAAI40Qac2LfSu4vjooviaXUlU6iKLCNF3rr8raCjzL3RLJ331-CYQgjrrWspYQkSrFOXH4sMMleR3BMwyO_HaFdjXLHKnN6Ykfu6MUmmdsxiWKmAyGLjtsphGJwUWeg7ge_n3MrVMS6T-6EPAJ049bZc3YVBfSFlUNIyNdQkTUsTDQo9ClQggKHlOxn-WqncdPh_RVWEmLe656TTPif_qxoJsQ_xTbzMw9D_luiqfuitHiIrLV1JfJ_LrYTURwW2IChrIKjTlhDS1J5HOp08wiHyIRXuKiIyxsvc99in_SXo1nxmiwWvw-XbyUaQPjTvoUe3ZPP21CdXASKciLZnJljq9C8hLvh7KfrTmzhUi7Z6S3faN8bKCQ7deYww6rsr7aoSP_CLb_AXvDLiyhoS2ef_mNJMabwm2yMhVegqx_bzFpwUV01ZJs4Bx_116w0zOkx1UhNgrjVlxHk6HK6QvI3IkdRRVk4vlMRDGVfTMAFNId0N8-uouiB6oRStbJDu09tRUfT3-lrj2UnOn2ikLTJJsoniPgQrNLIvjzyps6kL-ytuDPLlQtJ5-AAeETwnPMlFCRgxOE7gkTxiRyXP4N3-XuEmxF3v70heIQavcnF9IhILe_lwaXK7bnJL9JYzS-hOw1M5yjOtImbqgwqVWYHeNUaPNN5xyBgwlO-VJZYzIUY6KgJx7FpTW9jZYY2EuQukADFTb2V_WO0]--></g></svg>