<?xml version="1.0" encoding="us-ascii" standalone="no"?><svg xmlns="http://www.w3.org/2000/svg" xmlns:xlink="http://www.w3.org/1999/xlink" contentStyleType="text/css" height="1514px" preserveAspectRatio="none" style="width:4737px;height:1514px;background:#FFFFFF;" version="1.1" viewBox="0 0 4737 1514" width="4737px" zoomAndPan="magnify"><defs/><g><!--cluster view--><g id="cluster_view"><path d="M650.5,193 L687.5,193 A3.75,3.75 0 0 1 690,195.5 L697,215.2969 L1167.5,215.2969 A2.5,2.5 0 0 1 1170,217.7969 L1170,626 A2.5,2.5 0 0 1 1167.5,628.5 L650.5,628.5 A2.5,2.5 0 0 1 648,626 L648,195.5 A2.5,2.5 0 0 1 650.5,193 " fill="none" style="stroke:#000000;stroke-width:1.5;"/><line style="stroke:#000000;stroke-width:1.5;" x1="648" x2="697" y1="215.2969" y2="215.2969"/><text fill="#000000" font-family="sans-serif" font-size="14" font-weight="bold" lengthAdjust="spacing" textLength="36" x="652" y="207.9951">view</text></g><!--cluster model--><g id="cluster_model"><path d="M793.5,843 L843.5,843 A3.75,3.75 0 0 1 846,845.5 L853,865.2969 L2720.5,865.2969 A2.5,2.5 0 0 1 2723,867.7969 L2723,1361.5 A2.5,2.5 0 0 1 2720.5,1364 L793.5,1364 A2.5,2.5 0 0 1 791,1361.5 L791,845.5 A2.5,2.5 0 0 1 793.5,843 " fill="none" style="stroke:#000000;stroke-width:1.5;"/><line style="stroke:#000000;stroke-width:1.5;" x1="791" x2="853" y1="865.2969" y2="865.2969"/><text fill="#000000" font-family="sans-serif" font-size="14" font-weight="bold" lengthAdjust="spacing" textLength="49" x="795" y="857.9951">model</text></g><!--cluster constants--><g id="cluster_constants"><path d="M1195.5,1119 L1279.5,1119 A3.75,3.75 0 0 1 1282,1121.5 L1289,1141.2969 L1762.5,1141.2969 A2.5,2.5 0 0 1 1765,1143.7969 L1765,1329.5 A2.5,2.5 0 0 1 1762.5,1332 L1195.5,1332 A2.5,2.5 0 0 1 1193,1329.5 L1193,1121.5 A2.5,2.5 0 0 1 1195.5,1119 " fill="none" style="stroke:#000000;stroke-width:1.5;"/><line style="stroke:#000000;stroke-width:1.5;" x1="1193" x2="1289" y1="1141.2969" y2="1141.2969"/><text fill="#000000" font-family="sans-serif" font-size="14" font-weight="bold" lengthAdjust="spacing" textLength="83" x="1197" y="1133.9951">constants</text></g><!--cluster auditory_tagging--><g id="cluster_auditory_tagging"><path d="M1376.5,6 L1516.5,6 A3.75,3.75 0 0 1 1519,8.5 L1526,28.2969 L4345.5,28.2969 A2.5,2.5 0 0 1 4348,30.7969 L4348,799.5 A2.5,2.5 0 0 1 4345.5,802 L1376.5,802 A2.5,2.5 0 0 1 1374,799.5 L1374,8.5 A2.5,2.5 0 0 1 1376.5,6 " fill="none" style="stroke:#000000;stroke-width:1.5;"/><line style="stroke:#000000;stroke-width:1.5;" x1="1374" x2="1526" y1="28.2969" y2="28.2969"/><text fill="#000000" font-family="sans-serif" font-size="14" font-weight="bold" lengthAdjust="spacing" textLength="139" x="1378" y="20.9951">auditory_tagging</text></g><!--cluster assr_tagger--><g id="cluster_assr_tagger"><path d="M2856.5,246 L2953.5,246 A3.75,3.75 0 0 1 2956,248.5 L2963,268.2969 L4313.5,268.2969 A2.5,2.5 0 0 1 4316,270.7969 L4316,658.5 A2.5,2.5 0 0 1 4313.5,661 L2856.5,661 A2.5,2.5 0 0 1 2854,658.5 L2854,248.5 A2.5,2.5 0 0 1 2856.5,246 " fill="none" style="stroke:#000000;stroke-width:1.5;"/><line style="stroke:#000000;stroke-width:1.5;" x1="2854" x2="2963" y1="268.2969" y2="268.2969"/><text fill="#000000" font-family="sans-serif" font-size="14" font-weight="bold" lengthAdjust="spacing" textLength="96" x="2858" y="260.9951">assr_tagger</text></g><!--cluster eeg--><g id="cluster_eeg"><path d="M8.5,1147.5 L37.5,1147.5 A3.75,3.75 0 0 1 40,1150 L47,1169.7969 L764.5,1169.7969 A2.5,2.5 0 0 1 767,1172.2969 L767,1504.5 A2.5,2.5 0 0 1 764.5,1507 L8.5,1507 A2.5,2.5 0 0 1 6,1504.5 L6,1150 A2.5,2.5 0 0 1 8.5,1147.5 " fill="none" style="stroke:#000000;stroke-width:1.5;"/><line style="stroke:#000000;stroke-width:1.5;" x1="6" x2="47" y1="1169.7969" y2="1169.7969"/><text fill="#000000" font-family="sans-serif" font-size="14" font-weight="bold" lengthAdjust="spacing" textLength="28" x="10" y="1162.4951">eeg</text></g><!--class AView--><g id="elem_AView"><rect codeLine="13" fill="#F1F1F1" height="219.2344" id="AView" rx="2.5" ry="2.5" style="stroke:#181818;stroke-width:0.5;" width="489" x="664.5" y="228"/><ellipse cx="872.75" cy="248.1328" fill="#A9DCDF" rx="11" ry="11" style="stroke:#181818;stroke-width:1.0;"/><path d="M874.8281,249.9453 L875.2188,250.9297 L874.8281,250.9297 C874.375,250.9297 874.2656,250.9453 874.1094,251.0547 C873.8594,251.2109 873.7031,251.4922 873.7031,251.7891 C873.7031,252.0547 873.8438,252.3047 874.0625,252.4609 C874.2031,252.5859 874.4063,252.6328 874.8281,252.6328 L877.1875,252.6328 C877.5469,252.6328 877.7656,252.6016 877.9063,252.5078 C878.1563,252.3672 878.3125,252.0703 878.3125,251.7891 C878.3125,251.5078 878.1719,251.2578 877.9531,251.1016 C877.7813,250.9609 877.625,250.9297 877.1563,250.9297 L873.7656,242.7266 L870.0938,242.7266 C869.6406,242.7266 869.5156,242.7422 869.3594,242.8359 C869.1094,243.0078 868.9531,243.2891 868.9531,243.5703 C868.9531,243.8516 869.0938,244.1016 869.3125,244.2734 C869.4844,244.3828 869.6563,244.4141 870.0938,244.4141 L871.1719,244.4141 L868.5313,250.9297 C868.1094,250.9297 867.9531,250.9453 867.7969,251.0547 C867.5469,251.2109 867.3906,251.4922 867.3906,251.7891 C867.3906,252.3516 867.7656,252.6328 868.5156,252.6328 L870.7813,252.6328 C871.1406,252.6328 871.3594,252.6016 871.4844,252.5078 C871.75,252.3672 871.8906,252.0703 871.8906,251.7891 C871.8906,251.5078 871.7656,251.2578 871.5469,251.0859 C871.375,250.9609 871.2344,250.9297 870.7813,250.9297 L870.3906,250.9297 L870.7813,249.9453 L874.8281,249.9453 Z M874.125,248.2422 L871.4531,248.2422 L872.7969,244.9766 L874.125,248.2422 Z " fill="#000000"/><text fill="#000000" font-family="sans-serif" font-size="12" font-style="italic" lengthAdjust="spacing" textLength="68" x="891.25" y="244.1387">&#171;Observer&#187;</text><text fill="#000000" font-family="sans-serif" font-size="14" font-style="italic" lengthAdjust="spacing" textLength="44" x="903.25" y="259.9639">AView</text><line style="stroke:#181818;stroke-width:0.5;" x1="665.5" x2="1152.5" y1="268.2656" y2="268.2656"/><polygon fill="none" points="675.5,276.9141,679.5,280.9141,675.5,284.9141,671.5,280.9141" style="stroke:#B38D22;stroke-width:1.0;"/><text fill="#000000" font-family="sans-serif" font-size="14" lengthAdjust="spacing" textLength="260" x="684.5" y="285.2607">Callable[[Audio], None] sound_player</text><polygon fill="none" points="675.5,293.2109,679.5,297.2109,675.5,301.2109,671.5,297.2109" style="stroke:#B38D22;stroke-width:1.0;"/><text fill="#000000" font-family="sans-serif" font-size="14" lengthAdjust="spacing" textLength="408" x="684.5" y="301.5576">Dict[EExperimentState, Optional[str]] experiment_texts</text><line style="stroke:#181818;stroke-width:0.5;" x1="665.5" x2="1152.5" y1="308.8594" y2="308.8594"/><ellipse cx="675.5" cy="322.5078" fill="#84BE84" rx="3" ry="3" style="stroke:#038048;stroke-width:1.0;"/><text fill="#000000" font-family="sans-serif" font-size="14" lengthAdjust="spacing" textLength="286" x="684.5" y="325.8545">AView(sound_player, experiment_texts)</text><text fill="#000000" font-family="sans-serif" font-size="14" lengthAdjust="spacing" textLength="4" x="684.5" y="342.1514">&#160;</text><polygon fill="#FFFF44" points="675.5,350.1016,679.5,354.1016,675.5,358.1016,671.5,354.1016" style="stroke:#B38D22;stroke-width:1.0;"/><text fill="#000000" font-family="sans-serif" font-size="14" font-style="italic" lengthAdjust="spacing" textLength="382" x="684.5" y="358.4482">void update_new_stimulus(stimulus: CreatedStimulus)</text><polygon fill="#FFFF44" points="675.5,366.3984,679.5,370.3984,675.5,374.3984,671.5,370.3984" style="stroke:#B38D22;stroke-width:1.0;"/><text fill="#000000" font-family="sans-serif" font-size="14" font-style="italic" lengthAdjust="spacing" textLength="269" x="684.5" y="374.7451">void updated_new_primer(primer: str)</text><polygon fill="#FFFF44" points="675.5,382.6953,679.5,386.6953,675.5,390.6953,671.5,386.6953" style="stroke:#B38D22;stroke-width:1.0;"/><text fill="#000000" font-family="sans-serif" font-size="14" font-style="italic" lengthAdjust="spacing" textLength="463" x="684.5" y="391.042">void update_experiment_state_changed(data: EExperimentState)</text><ellipse cx="675.5" cy="403.9922" fill="#84BE84" rx="3" ry="3" style="stroke:#038048;stroke-width:1.0;"/><text fill="#000000" font-family="sans-serif" font-size="14" lengthAdjust="spacing" textLength="413" x="684.5" y="407.3389">void update(data: Any, identifier: EModelUpdateIdentifier</text><ellipse cx="675.5" cy="420.2891" fill="#84BE84" rx="3" ry="3" style="stroke:#038048;stroke-width:1.0;"/><text fill="#000000" font-family="sans-serif" font-size="14" font-style="italic" lengthAdjust="spacing" textLength="166" x="684.5" y="423.6357">bool get_confirmation()</text><ellipse cx="675.5" cy="436.5859" fill="#84BE84" rx="3" ry="3" style="stroke:#038048;stroke-width:1.0;"/><text fill="#000000" font-family="sans-serif" font-size="14" font-style="italic" lengthAdjust="spacing" textLength="131" x="684.5" y="439.9326">void wait(secs: int)</text></g><!--class PsychopyView--><g id="elem_PsychopyView"><rect codeLine="27" fill="#F1F1F1" height="48" id="PsychopyView" rx="2.5" ry="2.5" style="stroke:#181818;stroke-width:0.5;" width="134" x="842" y="564.5"/><ellipse cx="857" cy="580.5" fill="#ADD1B2" rx="11" ry="11" style="stroke:#181818;stroke-width:1.0;"/><path d="M859.3438,576.1719 C858.4063,575.7344 857.8125,575.5938 856.9375,575.5938 C854.3125,575.5938 852.3125,577.6719 852.3125,580.3906 L852.3125,581.5156 C852.3125,584.0938 854.4219,585.9844 857.3125,585.9844 C858.5313,585.9844 859.6875,585.6875 860.4375,585.1406 C861.0156,584.7344 861.3438,584.2813 861.3438,583.8906 C861.3438,583.4375 860.9531,583.0469 860.4844,583.0469 C860.2656,583.0469 860.0625,583.125 859.875,583.3125 C859.4219,583.7969 859.4219,583.7969 859.2344,583.8906 C858.8125,584.1563 858.125,584.2813 857.3594,584.2813 C855.3125,584.2813 854.0156,583.1875 854.0156,581.4844 L854.0156,580.3906 C854.0156,578.6094 855.2656,577.2969 857,577.2969 C857.5781,577.2969 858.1875,577.4531 858.6563,577.7031 C859.1406,577.9844 859.3125,578.2031 859.4063,578.6094 C859.4688,579.0156 859.5,579.1406 859.6406,579.2656 C859.7813,579.4063 860.0156,579.5156 860.2344,579.5156 C860.5,579.5156 860.7656,579.375 860.9375,579.1563 C861.0469,579 861.0781,578.8125 861.0781,578.3906 L861.0781,576.9688 C861.0781,576.5313 861.0625,576.4063 860.9688,576.25 C860.8125,575.9844 860.5313,575.8438 860.2344,575.8438 C859.9375,575.8438 859.7344,575.9375 859.5156,576.25 L859.3438,576.1719 Z " fill="#000000"/><text fill="#000000" font-family="sans-serif" font-size="14" lengthAdjust="spacing" textLength="102" x="871" y="585.3467">PsychopyView</text><line style="stroke:#181818;stroke-width:0.5;" x1="843" x2="975" y1="596.5" y2="596.5"/><line style="stroke:#181818;stroke-width:0.5;" x1="843" x2="975" y1="604.5" y2="604.5"/></g><!--class CLIView--><g id="elem_CLIView"><rect codeLine="30" fill="#F1F1F1" height="48" id="CLIView" rx="2.5" ry="2.5" style="stroke:#181818;stroke-width:0.5;" width="88" x="719" y="564.5"/><ellipse cx="734" cy="580.5" fill="#ADD1B2" rx="11" ry="11" style="stroke:#181818;stroke-width:1.0;"/><path d="M736.3438,576.1719 C735.4063,575.7344 734.8125,575.5938 733.9375,575.5938 C731.3125,575.5938 729.3125,577.6719 729.3125,580.3906 L729.3125,581.5156 C729.3125,584.0938 731.4219,585.9844 734.3125,585.9844 C735.5313,585.9844 736.6875,585.6875 737.4375,585.1406 C738.0156,584.7344 738.3438,584.2813 738.3438,583.8906 C738.3438,583.4375 737.9531,583.0469 737.4844,583.0469 C737.2656,583.0469 737.0625,583.125 736.875,583.3125 C736.4219,583.7969 736.4219,583.7969 736.2344,583.8906 C735.8125,584.1563 735.125,584.2813 734.3594,584.2813 C732.3125,584.2813 731.0156,583.1875 731.0156,581.4844 L731.0156,580.3906 C731.0156,578.6094 732.2656,577.2969 734,577.2969 C734.5781,577.2969 735.1875,577.4531 735.6563,577.7031 C736.1406,577.9844 736.3125,578.2031 736.4063,578.6094 C736.4688,579.0156 736.5,579.1406 736.6406,579.2656 C736.7813,579.4063 737.0156,579.5156 737.2344,579.5156 C737.5,579.5156 737.7656,579.375 737.9375,579.1563 C738.0469,579 738.0781,578.8125 738.0781,578.3906 L738.0781,576.9688 C738.0781,576.5313 738.0625,576.4063 737.9688,576.25 C737.8125,575.9844 737.5313,575.8438 737.2344,575.8438 C736.9375,575.8438 736.7344,575.9375 736.5156,576.25 L736.3438,576.1719 Z " fill="#000000"/><text fill="#000000" font-family="sans-serif" font-size="14" lengthAdjust="spacing" textLength="56" x="748" y="585.3467">CLIView</text><line style="stroke:#181818;stroke-width:0.5;" x1="720" x2="806" y1="596.5" y2="596.5"/><line style="stroke:#181818;stroke-width:0.5;" x1="720" x2="806" y1="604.5" y2="604.5"/></g><!--class AObserver--><g id="elem_AObserver"><rect codeLine="35" fill="#F1F1F1" height="64.2969" id="AObserver" rx="2.5" ry="2.5" style="stroke:#181818;stroke-width:0.5;" width="444" x="807" y="931"/><ellipse cx="987.25" cy="947" fill="#A9DCDF" rx="11" ry="11" style="stroke:#181818;stroke-width:1.0;"/><path d="M989.3281,948.8125 L989.7188,949.7969 L989.3281,949.7969 C988.875,949.7969 988.7656,949.8125 988.6094,949.9219 C988.3594,950.0781 988.2031,950.3594 988.2031,950.6563 C988.2031,950.9219 988.3438,951.1719 988.5625,951.3281 C988.7031,951.4531 988.9063,951.5 989.3281,951.5 L991.6875,951.5 C992.0469,951.5 992.2656,951.4688 992.4063,951.375 C992.6563,951.2344 992.8125,950.9375 992.8125,950.6563 C992.8125,950.375 992.6719,950.125 992.4531,949.9688 C992.2813,949.8281 992.125,949.7969 991.6563,949.7969 L988.2656,941.5938 L984.5938,941.5938 C984.1406,941.5938 984.0156,941.6094 983.8594,941.7031 C983.6094,941.875 983.4531,942.1563 983.4531,942.4375 C983.4531,942.7188 983.5938,942.9688 983.8125,943.1406 C983.9844,943.25 984.1563,943.2813 984.5938,943.2813 L985.6719,943.2813 L983.0313,949.7969 C982.6094,949.7969 982.4531,949.8125 982.2969,949.9219 C982.0469,950.0781 981.8906,950.3594 981.8906,950.6563 C981.8906,951.2188 982.2656,951.5 983.0156,951.5 L985.2813,951.5 C985.6406,951.5 985.8594,951.4688 985.9844,951.375 C986.25,951.2344 986.3906,950.9375 986.3906,950.6563 C986.3906,950.375 986.2656,950.125 986.0469,949.9531 C985.875,949.8281 985.7344,949.7969 985.2813,949.7969 L984.8906,949.7969 L985.2813,948.8125 L989.3281,948.8125 Z M988.625,947.1094 L985.9531,947.1094 L987.2969,943.8438 L988.625,947.1094 Z " fill="#000000"/><text fill="#000000" font-family="sans-serif" font-size="14" font-style="italic" lengthAdjust="spacing" textLength="75" x="1007.75" y="951.8467">AObserver</text><line style="stroke:#181818;stroke-width:0.5;" x1="808" x2="1250" y1="963" y2="963"/><line style="stroke:#181818;stroke-width:0.5;" x1="808" x2="1250" y1="971" y2="971"/><ellipse cx="818" cy="984.6484" fill="#84BE84" rx="3" ry="3" style="stroke:#038048;stroke-width:1.0;"/><text fill="#000000" font-family="sans-serif" font-size="14" lengthAdjust="spacing" textLength="418" x="827" y="987.9951">void update(data: Any, identifier: EModelUpdateIdentifier)</text></g><!--class Model--><g id="elem_Model"><rect codeLine="39" fill="#F1F1F1" height="170.3438" id="Model" rx="2.5" ry="2.5" style="stroke:#181818;stroke-width:0.5;" width="668" x="1286" y="878"/><ellipse cx="1577.25" cy="898.1328" fill="#ADD1B2" rx="11" ry="11" style="stroke:#181818;stroke-width:1.0;"/><path d="M1579.5938,893.8047 C1578.6563,893.3672 1578.0625,893.2266 1577.1875,893.2266 C1574.5625,893.2266 1572.5625,895.3047 1572.5625,898.0234 L1572.5625,899.1484 C1572.5625,901.7266 1574.6719,903.6172 1577.5625,903.6172 C1578.7813,903.6172 1579.9375,903.3203 1580.6875,902.7734 C1581.2656,902.3672 1581.5938,901.9141 1581.5938,901.5234 C1581.5938,901.0703 1581.2031,900.6797 1580.7344,900.6797 C1580.5156,900.6797 1580.3125,900.7578 1580.125,900.9453 C1579.6719,901.4297 1579.6719,901.4297 1579.4844,901.5234 C1579.0625,901.7891 1578.375,901.9141 1577.6094,901.9141 C1575.5625,901.9141 1574.2656,900.8203 1574.2656,899.1172 L1574.2656,898.0234 C1574.2656,896.2422 1575.5156,894.9297 1577.25,894.9297 C1577.8281,894.9297 1578.4375,895.0859 1578.9063,895.3359 C1579.3906,895.6172 1579.5625,895.8359 1579.6563,896.2422 C1579.7188,896.6484 1579.75,896.7734 1579.8906,896.8984 C1580.0313,897.0391 1580.2656,897.1484 1580.4844,897.1484 C1580.75,897.1484 1581.0156,897.0078 1581.1875,896.7891 C1581.2969,896.6328 1581.3281,896.4453 1581.3281,896.0234 L1581.3281,894.6016 C1581.3281,894.1641 1581.3125,894.0391 1581.2188,893.8828 C1581.0625,893.6172 1580.7813,893.4766 1580.4844,893.4766 C1580.1875,893.4766 1579.9844,893.5703 1579.7656,893.8828 L1579.5938,893.8047 Z " fill="#000000"/><text fill="#000000" font-family="sans-serif" font-size="12" font-style="italic" lengthAdjust="spacing" textLength="81" x="1595.75" y="894.1387">&#171;Observable&#187;</text><text fill="#000000" font-family="sans-serif" font-size="14" lengthAdjust="spacing" textLength="43" x="1614.75" y="909.9639">Model</text><line style="stroke:#181818;stroke-width:0.5;" x1="1287" x2="1953" y1="918.2656" y2="918.2656"/><rect fill="none" height="6" style="stroke:#C82930;stroke-width:1.0;" width="6" x="1294" y="928.9141"/><text fill="#000000" font-family="sans-serif" font-size="14" lengthAdjust="spacing" textLength="166" x="1306" y="935.2607">List[str] primer_history</text><line style="stroke:#181818;stroke-width:0.5;" x1="1287" x2="1953" y1="942.5625" y2="942.5625"/><rect fill="#F24D5C" height="6" style="stroke:#C82930;stroke-width:1.0;" width="6" x="1294" y="953.2109"/><text fill="#000000" font-family="sans-serif" font-size="14" lengthAdjust="spacing" textLength="642" x="1306" y="959.5576">Model(raw_stimuli: List[Stimulus], auditory_stimulus_factories: List[AAudioTaggerFactory])</text><rect fill="#F24D5C" height="6" style="stroke:#C82930;stroke-width:1.0;" width="6" x="1294" y="969.5078"/><text fill="#000000" font-family="sans-serif" font-size="14" lengthAdjust="spacing" textLength="410" x="1306" y="975.8545">void notify(data: Any, identifier: EModelUpdateIdentifier)</text><ellipse cx="1297" cy="988.8047" fill="#84BE84" rx="3" ry="3" style="stroke:#038048;stroke-width:1.0;"/><text fill="#000000" font-family="sans-serif" font-size="14" lengthAdjust="spacing" textLength="218" x="1306" y="992.1514">void register(view: AObserver)</text><ellipse cx="1297" cy="1005.1016" fill="#84BE84" rx="3" ry="3" style="stroke:#038048;stroke-width:1.0;"/><text fill="#000000" font-family="sans-serif" font-size="14" lengthAdjust="spacing" textLength="326" x="1306" y="1008.4482">void new_stimulus(stimulus: CreatedStimulus)</text><ellipse cx="1297" cy="1021.3984" fill="#84BE84" rx="3" ry="3" style="stroke:#038048;stroke-width:1.0;"/><text fill="#000000" font-family="sans-serif" font-size="14" lengthAdjust="spacing" textLength="316" x="1306" y="1024.7451">void new_primer(stimulus: CreatedStimulus)</text><ellipse cx="1297" cy="1037.6953" fill="#84BE84" rx="3" ry="3" style="stroke:#038048;stroke-width:1.0;"/><text fill="#000000" font-family="sans-serif" font-size="14" lengthAdjust="spacing" textLength="450" x="1306" y="1041.042">void change_experiment_state(new_state: EExperimentState)</text></g><!--class Logger--><g id="elem_Logger"><rect codeLine="50" fill="#F1F1F1" height="88.8594" id="Logger" rx="2.5" ry="2.5" style="stroke:#181818;stroke-width:0.5;" width="284" x="882" y="1190.5"/><ellipse cx="987.75" cy="1210.6328" fill="#ADD1B2" rx="11" ry="11" style="stroke:#181818;stroke-width:1.0;"/><path d="M990.0938,1206.3047 C989.1563,1205.8672 988.5625,1205.7266 987.6875,1205.7266 C985.0625,1205.7266 983.0625,1207.8047 983.0625,1210.5234 L983.0625,1211.6484 C983.0625,1214.2266 985.1719,1216.1172 988.0625,1216.1172 C989.2813,1216.1172 990.4375,1215.8203 991.1875,1215.2734 C991.7656,1214.8672 992.0938,1214.4141 992.0938,1214.0234 C992.0938,1213.5703 991.7031,1213.1797 991.2344,1213.1797 C991.0156,1213.1797 990.8125,1213.2578 990.625,1213.4453 C990.1719,1213.9297 990.1719,1213.9297 989.9844,1214.0234 C989.5625,1214.2891 988.875,1214.4141 988.1094,1214.4141 C986.0625,1214.4141 984.7656,1213.3203 984.7656,1211.6172 L984.7656,1210.5234 C984.7656,1208.7422 986.0156,1207.4297 987.75,1207.4297 C988.3281,1207.4297 988.9375,1207.5859 989.4063,1207.8359 C989.8906,1208.1172 990.0625,1208.3359 990.1563,1208.7422 C990.2188,1209.1484 990.25,1209.2734 990.3906,1209.3984 C990.5313,1209.5391 990.7656,1209.6484 990.9844,1209.6484 C991.25,1209.6484 991.5156,1209.5078 991.6875,1209.2891 C991.7969,1209.1328 991.8281,1208.9453 991.8281,1208.5234 L991.8281,1207.1016 C991.8281,1206.6641 991.8125,1206.5391 991.7188,1206.3828 C991.5625,1206.1172 991.2813,1205.9766 990.9844,1205.9766 C990.6875,1205.9766 990.4844,1206.0703 990.2656,1206.3828 L990.0938,1206.3047 Z " fill="#000000"/><text fill="#000000" font-family="sans-serif" font-size="12" font-style="italic" lengthAdjust="spacing" textLength="68" x="1006.25" y="1206.6387">&#171;Observer&#187;</text><text fill="#000000" font-family="sans-serif" font-size="14" lengthAdjust="spacing" textLength="50" x="1015.25" y="1222.4639">Logger</text><line style="stroke:#181818;stroke-width:0.5;" x1="883" x2="1165" y1="1230.7656" y2="1230.7656"/><rect fill="none" height="6" style="stroke:#C82930;stroke-width:1.0;" width="6" x="890" y="1241.4141"/><text fill="#000000" font-family="sans-serif" font-size="14" lengthAdjust="spacing" textLength="166" x="902" y="1247.7607">Path exports_directory</text><line style="stroke:#181818;stroke-width:0.5;" x1="883" x2="1165" y1="1255.0625" y2="1255.0625"/><ellipse cx="893" cy="1268.7109" fill="#84BE84" rx="3" ry="3" style="stroke:#038048;stroke-width:1.0;"/><text fill="#000000" font-family="sans-serif" font-size="14" lengthAdjust="spacing" textLength="258" x="902" y="1272.0576">Logger(logging_directory: PathLike)</text></g><!--class Stimulus--><g id="elem_Stimulus"><rect codeLine="73" fill="#F1F1F1" height="113.1875" id="Stimulus" rx="2.5" ry="2.5" style="stroke:#181818;stroke-width:0.5;" width="286" x="2339" y="1178.5"/><ellipse cx="2447.25" cy="1194.5" fill="#ADD1B2" rx="11" ry="11" style="stroke:#181818;stroke-width:1.0;"/><path d="M2449.5938,1190.1719 C2448.6563,1189.7344 2448.0625,1189.5938 2447.1875,1189.5938 C2444.5625,1189.5938 2442.5625,1191.6719 2442.5625,1194.3906 L2442.5625,1195.5156 C2442.5625,1198.0938 2444.6719,1199.9844 2447.5625,1199.9844 C2448.7813,1199.9844 2449.9375,1199.6875 2450.6875,1199.1406 C2451.2656,1198.7344 2451.5938,1198.2813 2451.5938,1197.8906 C2451.5938,1197.4375 2451.2031,1197.0469 2450.7344,1197.0469 C2450.5156,1197.0469 2450.3125,1197.125 2450.125,1197.3125 C2449.6719,1197.7969 2449.6719,1197.7969 2449.4844,1197.8906 C2449.0625,1198.1563 2448.375,1198.2813 2447.6094,1198.2813 C2445.5625,1198.2813 2444.2656,1197.1875 2444.2656,1195.4844 L2444.2656,1194.3906 C2444.2656,1192.6094 2445.5156,1191.2969 2447.25,1191.2969 C2447.8281,1191.2969 2448.4375,1191.4531 2448.9063,1191.7031 C2449.3906,1191.9844 2449.5625,1192.2031 2449.6563,1192.6094 C2449.7188,1193.0156 2449.75,1193.1406 2449.8906,1193.2656 C2450.0313,1193.4063 2450.2656,1193.5156 2450.4844,1193.5156 C2450.75,1193.5156 2451.0156,1193.375 2451.1875,1193.1563 C2451.2969,1193 2451.3281,1192.8125 2451.3281,1192.3906 L2451.3281,1190.9688 C2451.3281,1190.5313 2451.3125,1190.4063 2451.2188,1190.25 C2451.0625,1189.9844 2450.7813,1189.8438 2450.4844,1189.8438 C2450.1875,1189.8438 2449.9844,1189.9375 2449.7656,1190.25 L2449.5938,1190.1719 Z " fill="#000000"/><text fill="#000000" font-family="sans-serif" font-size="14" lengthAdjust="spacing" textLength="61" x="2467.75" y="1199.3467">Stimulus</text><line style="stroke:#181818;stroke-width:0.5;" x1="2340" x2="2624" y1="1210.5" y2="1210.5"/><ellipse cx="2350" cy="1224.1484" fill="none" rx="3" ry="3" style="stroke:#038048;stroke-width:1.0;"/><text fill="#000000" font-family="sans-serif" font-size="14" lengthAdjust="spacing" textLength="80" x="2359" y="1227.4951">str prompt</text><ellipse cx="2350" cy="1240.4453" fill="none" rx="3" ry="3" style="stroke:#038048;stroke-width:1.0;"/><text fill="#000000" font-family="sans-serif" font-size="14" lengthAdjust="spacing" textLength="73" x="2359" y="1243.792">str primer</text><ellipse cx="2350" cy="1256.7422" fill="none" rx="3" ry="3" style="stroke:#038048;stroke-width:1.0;"/><text fill="#000000" font-family="sans-serif" font-size="14" lengthAdjust="spacing" textLength="115" x="2359" y="1260.0889">List[str] options</text><ellipse cx="2350" cy="1273.0391" fill="none" rx="3" ry="3" style="stroke:#038048;stroke-width:1.0;"/><text fill="#000000" font-family="sans-serif" font-size="14" lengthAdjust="spacing" textLength="260" x="2359" y="1276.3857">List[Tuple[float, float]] time_stamps</text><line style="stroke:#181818;stroke-width:0.5;" x1="2340" x2="2624" y1="1283.6875" y2="1283.6875"/></g><!--class CreatedStimulus--><g id="elem_CreatedStimulus"><rect codeLine="81" fill="#F1F1F1" height="162.0781" id="CreatedStimulus" rx="2.5" ry="2.5" style="stroke:#181818;stroke-width:0.5;" width="450" x="2257" y="882"/><ellipse cx="2418.25" cy="898" fill="#ADD1B2" rx="11" ry="11" style="stroke:#181818;stroke-width:1.0;"/><path d="M2420.5938,893.6719 C2419.6563,893.2344 2419.0625,893.0938 2418.1875,893.0938 C2415.5625,893.0938 2413.5625,895.1719 2413.5625,897.8906 L2413.5625,899.0156 C2413.5625,901.5938 2415.6719,903.4844 2418.5625,903.4844 C2419.7813,903.4844 2420.9375,903.1875 2421.6875,902.6406 C2422.2656,902.2344 2422.5938,901.7813 2422.5938,901.3906 C2422.5938,900.9375 2422.2031,900.5469 2421.7344,900.5469 C2421.5156,900.5469 2421.3125,900.625 2421.125,900.8125 C2420.6719,901.2969 2420.6719,901.2969 2420.4844,901.3906 C2420.0625,901.6563 2419.375,901.7813 2418.6094,901.7813 C2416.5625,901.7813 2415.2656,900.6875 2415.2656,898.9844 L2415.2656,897.8906 C2415.2656,896.1094 2416.5156,894.7969 2418.25,894.7969 C2418.8281,894.7969 2419.4375,894.9531 2419.9063,895.2031 C2420.3906,895.4844 2420.5625,895.7031 2420.6563,896.1094 C2420.7188,896.5156 2420.75,896.6406 2420.8906,896.7656 C2421.0313,896.9063 2421.2656,897.0156 2421.4844,897.0156 C2421.75,897.0156 2422.0156,896.875 2422.1875,896.6563 C2422.2969,896.5 2422.3281,896.3125 2422.3281,895.8906 L2422.3281,894.4688 C2422.3281,894.0313 2422.3125,893.9063 2422.2188,893.75 C2422.0625,893.4844 2421.7813,893.3438 2421.4844,893.3438 C2421.1875,893.3438 2420.9844,893.4375 2420.7656,893.75 L2420.5938,893.6719 Z " fill="#000000"/><text fill="#000000" font-family="sans-serif" font-size="14" lengthAdjust="spacing" textLength="119" x="2438.75" y="902.8467">CreatedStimulus</text><line style="stroke:#181818;stroke-width:0.5;" x1="2258" x2="2706" y1="914" y2="914"/><rect fill="none" height="6" style="stroke:#C82930;stroke-width:1.0;" width="6" x="2265" y="924.6484"/><text fill="#000000" font-family="sans-serif" font-size="14" lengthAdjust="spacing" textLength="124" x="2277" y="930.9951">Stimulus stimulus</text><ellipse cx="2268" cy="943.9453" fill="none" rx="3" ry="3" style="stroke:#038048;stroke-width:1.0;"/><text fill="#000000" font-family="sans-serif" font-size="14" lengthAdjust="spacing" textLength="226" x="2277" y="947.292">Optional[str] used_tagger_label</text><line style="stroke:#181818;stroke-width:0.5;" x1="2258" x2="2706" y1="954.5938" y2="954.5938"/><ellipse cx="2268" cy="968.2422" fill="#84BE84" rx="3" ry="3" style="stroke:#038048;stroke-width:1.0;"/><text fill="#000000" font-family="sans-serif" font-size="14" lengthAdjust="spacing" textLength="424" x="2277" y="971.5889">CreatedStimulus(stimulus: Stimulus, modified_audio: Audio)</text><ellipse cx="2268" cy="984.5391" fill="#84BE84" rx="3" ry="3" style="stroke:#038048;stroke-width:1.0;"/><text fill="#000000" font-family="sans-serif" font-size="14" lengthAdjust="spacing" textLength="90" x="2277" y="987.8857">str prompt()</text><ellipse cx="2268" cy="1000.8359" fill="#84BE84" rx="3" ry="3" style="stroke:#038048;stroke-width:1.0;"/><text fill="#000000" font-family="sans-serif" font-size="14" lengthAdjust="spacing" textLength="83" x="2277" y="1004.1826">str primer()</text><ellipse cx="2268" cy="1017.1328" fill="#84BE84" rx="3" ry="3" style="stroke:#038048;stroke-width:1.0;"/><text fill="#000000" font-family="sans-serif" font-size="14" lengthAdjust="spacing" textLength="125" x="2277" y="1020.4795">List[str] options()</text><ellipse cx="2268" cy="1033.4297" fill="#84BE84" rx="3" ry="3" style="stroke:#038048;stroke-width:1.0;"/><text fill="#000000" font-family="sans-serif" font-size="14" lengthAdjust="spacing" textLength="270" x="2277" y="1036.7764">List[Tuple[float, float]] time_stamps()</text></g><!--class EExperimentState--><g id="elem_EExperimentState"><rect codeLine="57" fill="#F1F1F1" height="145.7813" id="EExperimentState" rx="2.5" ry="2.5" style="stroke:#181818;stroke-width:0.5;" width="235" x="1236.5" y="1162"/><ellipse cx="1282.75" cy="1178" fill="#EB937F" rx="11" ry="11" style="stroke:#181818;stroke-width:1.0;"/><path d="M1281.5469,1178.875 L1283,1178.875 L1283,1178.9844 C1283,1179.3906 1283.0313,1179.5469 1283.1094,1179.7031 C1283.2656,1179.9531 1283.5469,1180.1094 1283.8438,1180.1094 C1284.0938,1180.1094 1284.3594,1179.9688 1284.5156,1179.75 C1284.6406,1179.5938 1284.6719,1179.4375 1284.6719,1178.9844 L1284.6719,1177.0625 C1284.6719,1176.9063 1284.6719,1176.8594 1284.6563,1176.7031 C1284.5938,1176.2344 1284.2813,1175.9219 1283.8281,1175.9219 C1283.5781,1175.9219 1283.3125,1176.0625 1283.1406,1176.2813 C1283.0313,1176.4531 1283,1176.6094 1283,1177.0625 L1283,1177.1875 L1281.5469,1177.1875 L1281.5469,1174.7813 L1285.5313,1174.7813 L1285.5313,1175.6406 C1285.5313,1176.0469 1285.5625,1176.2188 1285.6406,1176.375 C1285.8125,1176.625 1286.0938,1176.7813 1286.375,1176.7813 C1286.6406,1176.7813 1286.9063,1176.6406 1287.0781,1176.4219 C1287.1875,1176.25 1287.2188,1176.1094 1287.2188,1175.6406 L1287.2188,1173.0938 L1279.5938,1173.0938 C1279.1563,1173.0938 1279.0313,1173.1094 1278.875,1173.2031 C1278.625,1173.3594 1278.4688,1173.6563 1278.4688,1173.9375 C1278.4688,1174.2188 1278.6094,1174.4688 1278.8281,1174.6406 C1278.9844,1174.75 1279.1719,1174.7813 1279.5938,1174.7813 L1279.8438,1174.7813 L1279.8438,1181.2969 L1279.5938,1181.2969 C1279.1875,1181.2969 1279.0313,1181.3125 1278.875,1181.4219 C1278.625,1181.5938 1278.4688,1181.8594 1278.4688,1182.1563 C1278.4688,1182.4219 1278.6094,1182.6719 1278.8281,1182.8281 C1278.9688,1182.9531 1279.2031,1183 1279.5938,1183 L1287.5938,1183 L1287.5938,1180.4219 C1287.5938,1179.9844 1287.5625,1179.8438 1287.4844,1179.6875 C1287.3125,1179.4375 1287.0313,1179.2813 1286.75,1179.2813 C1286.4844,1179.2813 1286.2188,1179.3906 1286.0469,1179.6406 C1285.9375,1179.7969 1285.9063,1179.9375 1285.9063,1180.4219 L1285.9063,1181.2969 L1281.5469,1181.2969 L1281.5469,1178.875 Z " fill="#000000"/><text fill="#000000" font-family="sans-serif" font-size="14" lengthAdjust="spacing" textLength="134" x="1303.25" y="1182.8467">EExperimentState</text><line style="stroke:#181818;stroke-width:0.5;" x1="1237.5" x2="1470.5" y1="1194" y2="1194"/><text fill="#000000" font-family="sans-serif" font-size="14" lengthAdjust="spacing" textLength="66" x="1242.5" y="1210.9951">INACTIVE</text><text fill="#000000" font-family="sans-serif" font-size="14" lengthAdjust="spacing" textLength="108" x="1242.5" y="1227.292">INTRODUCTION</text><text fill="#000000" font-family="sans-serif" font-size="14" lengthAdjust="spacing" textLength="204" x="1242.5" y="1243.5889">RESTING_STATE_EYES_OPEN</text><text fill="#000000" font-family="sans-serif" font-size="14" lengthAdjust="spacing" textLength="223" x="1242.5" y="1259.8857">RESTING_STATE_EYES_CLOSED</text><text fill="#000000" font-family="sans-serif" font-size="14" lengthAdjust="spacing" textLength="206" x="1242.5" y="1276.1826">EXPERIMENT_INTRODUCTION</text><text fill="#000000" font-family="sans-serif" font-size="14" lengthAdjust="spacing" textLength="91" x="1242.5" y="1292.4795">EXPERIMENT</text><line style="stroke:#181818;stroke-width:0.5;" x1="1237.5" x2="1470.5" y1="1299.7813" y2="1299.7813"/></g><!--class EModelUpdateIdentifier--><g id="elem_EModelUpdateIdentifier"><rect codeLine="66" fill="#F1F1F1" height="96.8906" id="EModelUpdateIdentifier" rx="2.5" ry="2.5" style="stroke:#181818;stroke-width:0.5;" width="234" x="1507" y="1186.5"/><ellipse cx="1535.95" cy="1202.5" fill="#EB937F" rx="11" ry="11" style="stroke:#181818;stroke-width:1.0;"/><path d="M1534.7469,1203.375 L1536.2,1203.375 L1536.2,1203.4844 C1536.2,1203.8906 1536.2313,1204.0469 1536.3094,1204.2031 C1536.4656,1204.4531 1536.7469,1204.6094 1537.0438,1204.6094 C1537.2938,1204.6094 1537.5594,1204.4688 1537.7156,1204.25 C1537.8406,1204.0938 1537.8719,1203.9375 1537.8719,1203.4844 L1537.8719,1201.5625 C1537.8719,1201.4063 1537.8719,1201.3594 1537.8563,1201.2031 C1537.7938,1200.7344 1537.4813,1200.4219 1537.0281,1200.4219 C1536.7781,1200.4219 1536.5125,1200.5625 1536.3406,1200.7813 C1536.2313,1200.9531 1536.2,1201.1094 1536.2,1201.5625 L1536.2,1201.6875 L1534.7469,1201.6875 L1534.7469,1199.2813 L1538.7313,1199.2813 L1538.7313,1200.1406 C1538.7313,1200.5469 1538.7625,1200.7188 1538.8406,1200.875 C1539.0125,1201.125 1539.2938,1201.2813 1539.575,1201.2813 C1539.8406,1201.2813 1540.1063,1201.1406 1540.2781,1200.9219 C1540.3875,1200.75 1540.4188,1200.6094 1540.4188,1200.1406 L1540.4188,1197.5938 L1532.7938,1197.5938 C1532.3563,1197.5938 1532.2313,1197.6094 1532.075,1197.7031 C1531.825,1197.8594 1531.6688,1198.1563 1531.6688,1198.4375 C1531.6688,1198.7188 1531.8094,1198.9688 1532.0281,1199.1406 C1532.1844,1199.25 1532.3719,1199.2813 1532.7938,1199.2813 L1533.0438,1199.2813 L1533.0438,1205.7969 L1532.7938,1205.7969 C1532.3875,1205.7969 1532.2313,1205.8125 1532.075,1205.9219 C1531.825,1206.0938 1531.6688,1206.3594 1531.6688,1206.6563 C1531.6688,1206.9219 1531.8094,1207.1719 1532.0281,1207.3281 C1532.1688,1207.4531 1532.4031,1207.5 1532.7938,1207.5 L1540.7938,1207.5 L1540.7938,1204.9219 C1540.7938,1204.4844 1540.7625,1204.3438 1540.6844,1204.1875 C1540.5125,1203.9375 1540.2313,1203.7813 1539.95,1203.7813 C1539.6844,1203.7813 1539.4188,1203.8906 1539.2469,1204.1406 C1539.1375,1204.2969 1539.1063,1204.4375 1539.1063,1204.9219 L1539.1063,1205.7969 L1534.7469,1205.7969 L1534.7469,1203.375 Z " fill="#000000"/><text fill="#000000" font-family="sans-serif" font-size="14" lengthAdjust="spacing" textLength="171" x="1553.05" y="1207.3467">EModelUpdateIdentifier</text><line style="stroke:#181818;stroke-width:0.5;" x1="1508" x2="1740" y1="1218.5" y2="1218.5"/><text fill="#000000" font-family="sans-serif" font-size="14" lengthAdjust="spacing" textLength="109" x="1513" y="1235.4951">NEW_STIMULUS</text><text fill="#000000" font-family="sans-serif" font-size="14" lengthAdjust="spacing" textLength="94" x="1513" y="1251.792">NEW_PRIMER</text><text fill="#000000" font-family="sans-serif" font-size="14" lengthAdjust="spacing" textLength="222" x="1513" y="1268.0889">EXPERIMENT_STATE_CHANGED</text><line style="stroke:#181818;stroke-width:0.5;" x1="1508" x2="1740" y1="1275.3906" y2="1275.3906"/></g><!--class AAuditoryTagger--><g id="elem_AAuditoryTagger"><rect codeLine="108" fill="#F1F1F1" height="96.8906" id="AAuditoryTagger" rx="2.5" ry="2.5" style="stroke:#181818;stroke-width:0.5;" width="273" x="2792.5" y="49"/><ellipse cx="2864.25" cy="65" fill="#A9DCDF" rx="11" ry="11" style="stroke:#181818;stroke-width:1.0;"/><path d="M2866.3281,66.8125 L2866.7188,67.7969 L2866.3281,67.7969 C2865.875,67.7969 2865.7656,67.8125 2865.6094,67.9219 C2865.3594,68.0781 2865.2031,68.3594 2865.2031,68.6563 C2865.2031,68.9219 2865.3438,69.1719 2865.5625,69.3281 C2865.7031,69.4531 2865.9063,69.5 2866.3281,69.5 L2868.6875,69.5 C2869.0469,69.5 2869.2656,69.4688 2869.4063,69.375 C2869.6563,69.2344 2869.8125,68.9375 2869.8125,68.6563 C2869.8125,68.375 2869.6719,68.125 2869.4531,67.9688 C2869.2813,67.8281 2869.125,67.7969 2868.6563,67.7969 L2865.2656,59.5938 L2861.5938,59.5938 C2861.1406,59.5938 2861.0156,59.6094 2860.8594,59.7031 C2860.6094,59.875 2860.4531,60.1563 2860.4531,60.4375 C2860.4531,60.7188 2860.5938,60.9688 2860.8125,61.1406 C2860.9844,61.25 2861.1563,61.2813 2861.5938,61.2813 L2862.6719,61.2813 L2860.0313,67.7969 C2859.6094,67.7969 2859.4531,67.8125 2859.2969,67.9219 C2859.0469,68.0781 2858.8906,68.3594 2858.8906,68.6563 C2858.8906,69.2188 2859.2656,69.5 2860.0156,69.5 L2862.2813,69.5 C2862.6406,69.5 2862.8594,69.4688 2862.9844,69.375 C2863.25,69.2344 2863.3906,68.9375 2863.3906,68.6563 C2863.3906,68.375 2863.2656,68.125 2863.0469,67.9531 C2862.875,67.8281 2862.7344,67.7969 2862.2813,67.7969 L2861.8906,67.7969 L2862.2813,66.8125 L2866.3281,66.8125 Z M2865.625,65.1094 L2862.9531,65.1094 L2864.2969,61.8438 L2865.625,65.1094 Z " fill="#000000"/><text fill="#000000" font-family="sans-serif" font-size="14" font-style="italic" lengthAdjust="spacing" textLength="121" x="2884.75" y="69.8467">AAuditoryTagger</text><line style="stroke:#181818;stroke-width:0.5;" x1="2793.5" x2="3064.5" y1="81" y2="81"/><polygon fill="none" points="2803.5,89.6484,2807.5,93.6484,2803.5,97.6484,2799.5,93.6484" style="stroke:#B38D22;stroke-width:1.0;"/><text fill="#000000" font-family="sans-serif" font-size="14" lengthAdjust="spacing" textLength="247" x="2812.5" y="97.9951">list[ [float, float] ] stimuli_intervals</text><line style="stroke:#181818;stroke-width:0.5;" x1="2793.5" x2="3064.5" y1="105.2969" y2="105.2969"/><ellipse cx="2803.5" cy="118.9453" fill="#84BE84" rx="3" ry="3" style="stroke:#038048;stroke-width:1.0;"/><text fill="#000000" font-family="sans-serif" font-size="14" lengthAdjust="spacing" textLength="225" x="2812.5" y="122.292">AAuditoryTagger(audio, stimuli)</text><ellipse cx="2803.5" cy="135.2422" fill="#84BE84" rx="3" ry="3" style="stroke:#038048;stroke-width:1.0;"/><text fill="#000000" font-family="sans-serif" font-size="14" font-style="italic" lengthAdjust="spacing" textLength="101" x="2812.5" y="138.5889">Audio create()</text></g><!--class AAudioTaggerFactory--><g id="elem_AAudioTaggerFactory"><rect codeLine="118" fill="#F1F1F1" height="64.2969" id="AAudioTaggerFactory" rx="2.5" ry="2.5" style="stroke:#181818;stroke-width:0.5;" width="693" x="2140.5" y="714"/><ellipse cx="2405.25" cy="730" fill="#A9DCDF" rx="11" ry="11" style="stroke:#181818;stroke-width:1.0;"/><path d="M2407.3281,731.8125 L2407.7188,732.7969 L2407.3281,732.7969 C2406.875,732.7969 2406.7656,732.8125 2406.6094,732.9219 C2406.3594,733.0781 2406.2031,733.3594 2406.2031,733.6563 C2406.2031,733.9219 2406.3438,734.1719 2406.5625,734.3281 C2406.7031,734.4531 2406.9063,734.5 2407.3281,734.5 L2409.6875,734.5 C2410.0469,734.5 2410.2656,734.4688 2410.4063,734.375 C2410.6563,734.2344 2410.8125,733.9375 2410.8125,733.6563 C2410.8125,733.375 2410.6719,733.125 2410.4531,732.9688 C2410.2813,732.8281 2410.125,732.7969 2409.6563,732.7969 L2406.2656,724.5938 L2402.5938,724.5938 C2402.1406,724.5938 2402.0156,724.6094 2401.8594,724.7031 C2401.6094,724.875 2401.4531,725.1563 2401.4531,725.4375 C2401.4531,725.7188 2401.5938,725.9688 2401.8125,726.1406 C2401.9844,726.25 2402.1563,726.2813 2402.5938,726.2813 L2403.6719,726.2813 L2401.0313,732.7969 C2400.6094,732.7969 2400.4531,732.8125 2400.2969,732.9219 C2400.0469,733.0781 2399.8906,733.3594 2399.8906,733.6563 C2399.8906,734.2188 2400.2656,734.5 2401.0156,734.5 L2403.2813,734.5 C2403.6406,734.5 2403.8594,734.4688 2403.9844,734.375 C2404.25,734.2344 2404.3906,733.9375 2404.3906,733.6563 C2404.3906,733.375 2404.2656,733.125 2404.0469,732.9531 C2403.875,732.8281 2403.7344,732.7969 2403.2813,732.7969 L2402.8906,732.7969 L2403.2813,731.8125 L2407.3281,731.8125 Z M2406.625,730.1094 L2403.9531,730.1094 L2405.2969,726.8438 L2406.625,730.1094 Z " fill="#000000"/><text fill="#000000" font-family="sans-serif" font-size="14" font-style="italic" lengthAdjust="spacing" textLength="155" x="2425.75" y="734.8467">AAudioTaggerFactory</text><line style="stroke:#181818;stroke-width:0.5;" x1="2141.5" x2="2832.5" y1="746" y2="746"/><line style="stroke:#181818;stroke-width:0.5;" x1="2141.5" x2="2832.5" y1="754" y2="754"/><ellipse cx="2151.5" cy="767.6484" fill="#84BE84" rx="3" ry="3" style="stroke:#038048;stroke-width:1.0;"/><text fill="#000000" font-family="sans-serif" font-size="14" font-style="italic" lengthAdjust="spacing" textLength="667" x="2160.5" y="770.9951">AAudioTagger create_auditory_stimulus(audio: Audio, stimuli_intervals: List[Tuple[float, float])</text></g><!--class NoiseTaggingTagger--><g id="elem_NoiseTaggingTagger"><rect codeLine="155" fill="#F1F1F1" height="178.375" id="NoiseTaggingTagger" rx="2.5" ry="2.5" style="stroke:#181818;stroke-width:0.5;" width="625" x="1742.5" y="248.5"/><ellipse cx="1977.75" cy="264.5" fill="#ADD1B2" rx="11" ry="11" style="stroke:#181818;stroke-width:1.0;"/><path d="M1980.0938,260.1719 C1979.1563,259.7344 1978.5625,259.5938 1977.6875,259.5938 C1975.0625,259.5938 1973.0625,261.6719 1973.0625,264.3906 L1973.0625,265.5156 C1973.0625,268.0938 1975.1719,269.9844 1978.0625,269.9844 C1979.2813,269.9844 1980.4375,269.6875 1981.1875,269.1406 C1981.7656,268.7344 1982.0938,268.2813 1982.0938,267.8906 C1982.0938,267.4375 1981.7031,267.0469 1981.2344,267.0469 C1981.0156,267.0469 1980.8125,267.125 1980.625,267.3125 C1980.1719,267.7969 1980.1719,267.7969 1979.9844,267.8906 C1979.5625,268.1563 1978.875,268.2813 1978.1094,268.2813 C1976.0625,268.2813 1974.7656,267.1875 1974.7656,265.4844 L1974.7656,264.3906 C1974.7656,262.6094 1976.0156,261.2969 1977.75,261.2969 C1978.3281,261.2969 1978.9375,261.4531 1979.4063,261.7031 C1979.8906,261.9844 1980.0625,262.2031 1980.1563,262.6094 C1980.2188,263.0156 1980.25,263.1406 1980.3906,263.2656 C1980.5313,263.4063 1980.7656,263.5156 1980.9844,263.5156 C1981.25,263.5156 1981.5156,263.375 1981.6875,263.1563 C1981.7969,263 1981.8281,262.8125 1981.8281,262.3906 L1981.8281,260.9688 C1981.8281,260.5313 1981.8125,260.4063 1981.7188,260.25 C1981.5625,259.9844 1981.2813,259.8438 1980.9844,259.8438 C1980.6875,259.8438 1980.4844,259.9375 1980.2656,260.25 L1980.0938,260.1719 Z " fill="#000000"/><text fill="#000000" font-family="sans-serif" font-size="14" lengthAdjust="spacing" textLength="146" x="1998.25" y="269.3467">NoiseTaggingTagger</text><line style="stroke:#181818;stroke-width:0.5;" x1="1743.5" x2="2366.5" y1="280.5" y2="280.5"/><rect fill="none" height="6" style="stroke:#C82930;stroke-width:1.0;" width="6" x="1750.5" y="291.1484"/><text fill="#000000" font-family="sans-serif" font-size="14" lengthAdjust="spacing" textLength="130" x="1762.5" y="297.4951">Optional[int] seed</text><rect fill="none" height="6" style="stroke:#C82930;stroke-width:1.0;" width="6" x="1750.5" y="307.4453"/><text fill="#000000" font-family="sans-serif" font-size="14" lengthAdjust="spacing" textLength="92" x="1762.5" y="313.792">int bit_width</text><rect fill="none" height="6" style="stroke:#C82930;stroke-width:1.0;" width="6" x="1750.5" y="323.7422"/><text fill="#000000" font-family="sans-serif" font-size="14" lengthAdjust="spacing" textLength="99" x="1762.5" y="330.0889">int length_bit</text><ellipse cx="1753.5" cy="343.0391" fill="none" rx="3" ry="3" style="stroke:#038048;stroke-width:1.0;"/><text fill="#000000" font-family="sans-serif" font-size="14" lengthAdjust="spacing" textLength="148" x="1762.5" y="346.3857">Optional[Code] code</text><line style="stroke:#181818;stroke-width:0.5;" x1="1743.5" x2="2366.5" y1="353.6875" y2="353.6875"/><ellipse cx="1753.5" cy="367.3359" fill="#84BE84" rx="3" ry="3" style="stroke:#038048;stroke-width:1.0;"/><text fill="#000000" font-family="sans-serif" font-size="14" lengthAdjust="spacing" textLength="599" x="1762.5" y="370.6826">NoiseTaggingTagger(audio, stimuli_intervals, bits_per_second: int, length_bit, seed)</text><ellipse cx="1753.5" cy="383.6328" fill="#84BE84" rx="3" ry="3" style="stroke:#038048;stroke-width:1.0;"/><text fill="#000000" font-family="sans-serif" font-size="14" lengthAdjust="spacing" textLength="101" x="1762.5" y="386.9795">Audio create()</text><rect fill="#F24D5C" height="6" style="stroke:#C82930;stroke-width:1.0;" width="6" x="1750.5" y="396.9297"/><text fill="#000000" font-family="sans-serif" font-size="14" lengthAdjust="spacing" textLength="166" x="1762.5" y="403.2764">void __generate_code()</text><rect fill="#F24D5C" height="6" style="stroke:#C82930;stroke-width:1.0;" width="6" x="1750.5" y="413.2266"/><text fill="#000000" font-family="sans-serif" font-size="14" lengthAdjust="spacing" textLength="201" x="1762.5" y="419.5732">void __get_code(length: int)</text></g><!--class NoiseTaggingTaggerFactory--><g id="elem_NoiseTaggingTaggerFactory"><rect codeLine="167" fill="#F1F1F1" height="129.4844" id="NoiseTaggingTaggerFactory" rx="2.5" ry="2.5" style="stroke:#181818;stroke-width:0.5;" width="697" x="1406.5" y="524"/><ellipse cx="1650.75" cy="540" fill="#ADD1B2" rx="11" ry="11" style="stroke:#181818;stroke-width:1.0;"/><path d="M1653.0938,535.6719 C1652.1563,535.2344 1651.5625,535.0938 1650.6875,535.0938 C1648.0625,535.0938 1646.0625,537.1719 1646.0625,539.8906 L1646.0625,541.0156 C1646.0625,543.5938 1648.1719,545.4844 1651.0625,545.4844 C1652.2813,545.4844 1653.4375,545.1875 1654.1875,544.6406 C1654.7656,544.2344 1655.0938,543.7813 1655.0938,543.3906 C1655.0938,542.9375 1654.7031,542.5469 1654.2344,542.5469 C1654.0156,542.5469 1653.8125,542.625 1653.625,542.8125 C1653.1719,543.2969 1653.1719,543.2969 1652.9844,543.3906 C1652.5625,543.6563 1651.875,543.7813 1651.1094,543.7813 C1649.0625,543.7813 1647.7656,542.6875 1647.7656,540.9844 L1647.7656,539.8906 C1647.7656,538.1094 1649.0156,536.7969 1650.75,536.7969 C1651.3281,536.7969 1651.9375,536.9531 1652.4063,537.2031 C1652.8906,537.4844 1653.0625,537.7031 1653.1563,538.1094 C1653.2188,538.5156 1653.25,538.6406 1653.3906,538.7656 C1653.5313,538.9063 1653.7656,539.0156 1653.9844,539.0156 C1654.25,539.0156 1654.5156,538.875 1654.6875,538.6563 C1654.7969,538.5 1654.8281,538.3125 1654.8281,537.8906 L1654.8281,536.4688 C1654.8281,536.0313 1654.8125,535.9063 1654.7188,535.75 C1654.5625,535.4844 1654.2813,535.3438 1653.9844,535.3438 C1653.6875,535.3438 1653.4844,535.4375 1653.2656,535.75 L1653.0938,535.6719 Z " fill="#000000"/><text fill="#000000" font-family="sans-serif" font-size="14" lengthAdjust="spacing" textLength="200" x="1671.25" y="544.8467">NoiseTaggingTaggerFactory</text><line style="stroke:#181818;stroke-width:0.5;" x1="1407.5" x2="2102.5" y1="556" y2="556"/><rect fill="none" height="6" style="stroke:#C82930;stroke-width:1.0;" width="6" x="1414.5" y="566.6484"/><text fill="#000000" font-family="sans-serif" font-size="14" lengthAdjust="spacing" textLength="142" x="1426.5" y="572.9951">int bits_per_second</text><rect fill="none" height="6" style="stroke:#C82930;stroke-width:1.0;" width="6" x="1414.5" y="582.9453"/><text fill="#000000" font-family="sans-serif" font-size="14" lengthAdjust="spacing" textLength="99" x="1426.5" y="589.292">int length_bit</text><rect fill="none" height="6" style="stroke:#C82930;stroke-width:1.0;" width="6" x="1414.5" y="599.2422"/><text fill="#000000" font-family="sans-serif" font-size="14" lengthAdjust="spacing" textLength="130" x="1426.5" y="605.5889">Optional[int] seed</text><line style="stroke:#181818;stroke-width:0.5;" x1="1407.5" x2="2102.5" y1="612.8906" y2="612.8906"/><ellipse cx="1417.5" cy="626.5391" fill="#84BE84" rx="3" ry="3" style="stroke:#038048;stroke-width:1.0;"/><text fill="#000000" font-family="sans-serif" font-size="14" lengthAdjust="spacing" textLength="453" x="1426.5" y="629.8857">NoiseTaggingTaggerFactory(bits_per_second, length_bit, seed)</text><ellipse cx="1417.5" cy="642.8359" fill="#84BE84" rx="3" ry="3" style="stroke:#038048;stroke-width:1.0;"/><text fill="#000000" font-family="sans-serif" font-size="14" lengthAdjust="spacing" textLength="671" x="1426.5" y="646.1826">AAudioTagger create_auditory_stimulus(audio: Audio, stimuli_intervals: List[Tuple[float, float])</text></g><!--class RawTagger--><g id="elem_RawTagger"><rect codeLine="176" fill="#F1F1F1" height="64.2969" id="RawTagger" rx="2.5" ry="2.5" style="stroke:#181818;stroke-width:0.5;" width="127" x="2543.5" y="305.5"/><ellipse cx="2565.7" cy="321.5" fill="#ADD1B2" rx="11" ry="11" style="stroke:#181818;stroke-width:1.0;"/><path d="M2568.0438,317.1719 C2567.1063,316.7344 2566.5125,316.5938 2565.6375,316.5938 C2563.0125,316.5938 2561.0125,318.6719 2561.0125,321.3906 L2561.0125,322.5156 C2561.0125,325.0938 2563.1219,326.9844 2566.0125,326.9844 C2567.2313,326.9844 2568.3875,326.6875 2569.1375,326.1406 C2569.7156,325.7344 2570.0438,325.2813 2570.0438,324.8906 C2570.0438,324.4375 2569.6531,324.0469 2569.1844,324.0469 C2568.9656,324.0469 2568.7625,324.125 2568.575,324.3125 C2568.1219,324.7969 2568.1219,324.7969 2567.9344,324.8906 C2567.5125,325.1563 2566.825,325.2813 2566.0594,325.2813 C2564.0125,325.2813 2562.7156,324.1875 2562.7156,322.4844 L2562.7156,321.3906 C2562.7156,319.6094 2563.9656,318.2969 2565.7,318.2969 C2566.2781,318.2969 2566.8875,318.4531 2567.3563,318.7031 C2567.8406,318.9844 2568.0125,319.2031 2568.1063,319.6094 C2568.1688,320.0156 2568.2,320.1406 2568.3406,320.2656 C2568.4813,320.4063 2568.7156,320.5156 2568.9344,320.5156 C2569.2,320.5156 2569.4656,320.375 2569.6375,320.1563 C2569.7469,320 2569.7781,319.8125 2569.7781,319.3906 L2569.7781,317.9688 C2569.7781,317.5313 2569.7625,317.4063 2569.6688,317.25 C2569.5125,316.9844 2569.2313,316.8438 2568.9344,316.8438 C2568.6375,316.8438 2568.4344,316.9375 2568.2156,317.25 L2568.0438,317.1719 Z " fill="#000000"/><text fill="#000000" font-family="sans-serif" font-size="14" lengthAdjust="spacing" textLength="79" x="2581.3" y="326.3467">RawTagger</text><line style="stroke:#181818;stroke-width:0.5;" x1="2544.5" x2="2669.5" y1="337.5" y2="337.5"/><line style="stroke:#181818;stroke-width:0.5;" x1="2544.5" x2="2669.5" y1="345.5" y2="345.5"/><ellipse cx="2554.5" cy="359.1484" fill="#84BE84" rx="3" ry="3" style="stroke:#038048;stroke-width:1.0;"/><text fill="#000000" font-family="sans-serif" font-size="14" lengthAdjust="spacing" textLength="101" x="2563.5" y="362.4951">Audio create()</text></g><!--class RawTaggerFactory--><g id="elem_RawTaggerFactory"><rect codeLine="180" fill="#F1F1F1" height="64.2969" id="RawTaggerFactory" rx="2.5" ry="2.5" style="stroke:#181818;stroke-width:0.5;" width="697" x="2138.5" y="556.5"/><ellipse cx="2416.25" cy="572.5" fill="#ADD1B2" rx="11" ry="11" style="stroke:#181818;stroke-width:1.0;"/><path d="M2418.5938,568.1719 C2417.6563,567.7344 2417.0625,567.5938 2416.1875,567.5938 C2413.5625,567.5938 2411.5625,569.6719 2411.5625,572.3906 L2411.5625,573.5156 C2411.5625,576.0938 2413.6719,577.9844 2416.5625,577.9844 C2417.7813,577.9844 2418.9375,577.6875 2419.6875,577.1406 C2420.2656,576.7344 2420.5938,576.2813 2420.5938,575.8906 C2420.5938,575.4375 2420.2031,575.0469 2419.7344,575.0469 C2419.5156,575.0469 2419.3125,575.125 2419.125,575.3125 C2418.6719,575.7969 2418.6719,575.7969 2418.4844,575.8906 C2418.0625,576.1563 2417.375,576.2813 2416.6094,576.2813 C2414.5625,576.2813 2413.2656,575.1875 2413.2656,573.4844 L2413.2656,572.3906 C2413.2656,570.6094 2414.5156,569.2969 2416.25,569.2969 C2416.8281,569.2969 2417.4375,569.4531 2417.9063,569.7031 C2418.3906,569.9844 2418.5625,570.2031 2418.6563,570.6094 C2418.7188,571.0156 2418.75,571.1406 2418.8906,571.2656 C2419.0313,571.4063 2419.2656,571.5156 2419.4844,571.5156 C2419.75,571.5156 2420.0156,571.375 2420.1875,571.1563 C2420.2969,571 2420.3281,570.8125 2420.3281,570.3906 L2420.3281,568.9688 C2420.3281,568.5313 2420.3125,568.4063 2420.2188,568.25 C2420.0625,567.9844 2419.7813,567.8438 2419.4844,567.8438 C2419.1875,567.8438 2418.9844,567.9375 2418.7656,568.25 L2418.5938,568.1719 Z " fill="#000000"/><text fill="#000000" font-family="sans-serif" font-size="14" lengthAdjust="spacing" textLength="133" x="2436.75" y="577.3467">RawTaggerFactory</text><line style="stroke:#181818;stroke-width:0.5;" x1="2139.5" x2="2834.5" y1="588.5" y2="588.5"/><line style="stroke:#181818;stroke-width:0.5;" x1="2139.5" x2="2834.5" y1="596.5" y2="596.5"/><ellipse cx="2149.5" cy="610.1484" fill="#84BE84" rx="3" ry="3" style="stroke:#038048;stroke-width:1.0;"/><text fill="#000000" font-family="sans-serif" font-size="14" lengthAdjust="spacing" textLength="671" x="2158.5" y="613.4951">AAudioTagger create_auditory_stimulus(audio: Audio, stimuli_intervals: List[Tuple[float, float])</text></g><!--class AMTagger--><g id="elem_AMTagger"><rect codeLine="123" fill="#F1F1F1" height="113.1875" id="AMTagger" rx="2.5" ry="2.5" style="stroke:#181818;stroke-width:0.5;" width="478" x="3527" y="281"/><ellipse cx="3725.75" cy="297" fill="#ADD1B2" rx="11" ry="11" style="stroke:#181818;stroke-width:1.0;"/><path d="M3728.0938,292.6719 C3727.1563,292.2344 3726.5625,292.0938 3725.6875,292.0938 C3723.0625,292.0938 3721.0625,294.1719 3721.0625,296.8906 L3721.0625,298.0156 C3721.0625,300.5938 3723.1719,302.4844 3726.0625,302.4844 C3727.2813,302.4844 3728.4375,302.1875 3729.1875,301.6406 C3729.7656,301.2344 3730.0938,300.7813 3730.0938,300.3906 C3730.0938,299.9375 3729.7031,299.5469 3729.2344,299.5469 C3729.0156,299.5469 3728.8125,299.625 3728.625,299.8125 C3728.1719,300.2969 3728.1719,300.2969 3727.9844,300.3906 C3727.5625,300.6563 3726.875,300.7813 3726.1094,300.7813 C3724.0625,300.7813 3722.7656,299.6875 3722.7656,297.9844 L3722.7656,296.8906 C3722.7656,295.1094 3724.0156,293.7969 3725.75,293.7969 C3726.3281,293.7969 3726.9375,293.9531 3727.4063,294.2031 C3727.8906,294.4844 3728.0625,294.7031 3728.1563,295.1094 C3728.2188,295.5156 3728.25,295.6406 3728.3906,295.7656 C3728.5313,295.9063 3728.7656,296.0156 3728.9844,296.0156 C3729.25,296.0156 3729.5156,295.875 3729.6875,295.6563 C3729.7969,295.5 3729.8281,295.3125 3729.8281,294.8906 L3729.8281,293.4688 C3729.8281,293.0313 3729.8125,292.9063 3729.7188,292.75 C3729.5625,292.4844 3729.2813,292.3438 3728.9844,292.3438 C3728.6875,292.3438 3728.4844,292.4375 3728.2656,292.75 L3728.0938,292.6719 Z " fill="#000000"/><text fill="#000000" font-family="sans-serif" font-size="14" lengthAdjust="spacing" textLength="72" x="3746.25" y="301.8467">AMTagger</text><line style="stroke:#181818;stroke-width:0.5;" x1="3528" x2="4004" y1="313" y2="313"/><rect fill="none" height="6" style="stroke:#C82930;stroke-width:1.0;" width="6" x="3535" y="323.6484"/><text fill="#000000" font-family="sans-serif" font-size="14" lengthAdjust="spacing" textLength="96" x="3547" y="329.9951">int frequency</text><rect fill="none" height="6" style="stroke:#C82930;stroke-width:1.0;" width="6" x="3535" y="339.9453"/><text fill="#000000" font-family="sans-serif" font-size="14" lengthAdjust="spacing" textLength="366" x="3547" y="346.292">Callable[[int, int, int], NDArray[float] tag_generator</text><line style="stroke:#181818;stroke-width:0.5;" x1="3528" x2="4004" y1="353.5938" y2="353.5938"/><ellipse cx="3538" cy="367.2422" fill="#84BE84" rx="3" ry="3" style="stroke:#038048;stroke-width:1.0;"/><text fill="#000000" font-family="sans-serif" font-size="14" lengthAdjust="spacing" textLength="452" x="3547" y="370.5889">ASSRTagger(audio, stimuli_intervals, frequency, tag_generator)</text><ellipse cx="3538" cy="383.5391" fill="#84BE84" rx="3" ry="3" style="stroke:#038048;stroke-width:1.0;"/><text fill="#000000" font-family="sans-serif" font-size="14" lengthAdjust="spacing" textLength="101" x="3547" y="386.8857">Audio create()</text></g><!--class FMTagger--><g id="elem_FMTagger"><rect codeLine="131" fill="#F1F1F1" height="96.8906" id="FMTagger" rx="2.5" ry="2.5" style="stroke:#181818;stroke-width:0.5;" width="349" x="2957.5" y="289"/><ellipse cx="3092.75" cy="305" fill="#ADD1B2" rx="11" ry="11" style="stroke:#181818;stroke-width:1.0;"/><path d="M3095.0938,300.6719 C3094.1563,300.2344 3093.5625,300.0938 3092.6875,300.0938 C3090.0625,300.0938 3088.0625,302.1719 3088.0625,304.8906 L3088.0625,306.0156 C3088.0625,308.5938 3090.1719,310.4844 3093.0625,310.4844 C3094.2813,310.4844 3095.4375,310.1875 3096.1875,309.6406 C3096.7656,309.2344 3097.0938,308.7813 3097.0938,308.3906 C3097.0938,307.9375 3096.7031,307.5469 3096.2344,307.5469 C3096.0156,307.5469 3095.8125,307.625 3095.625,307.8125 C3095.1719,308.2969 3095.1719,308.2969 3094.9844,308.3906 C3094.5625,308.6563 3093.875,308.7813 3093.1094,308.7813 C3091.0625,308.7813 3089.7656,307.6875 3089.7656,305.9844 L3089.7656,304.8906 C3089.7656,303.1094 3091.0156,301.7969 3092.75,301.7969 C3093.3281,301.7969 3093.9375,301.9531 3094.4063,302.2031 C3094.8906,302.4844 3095.0625,302.7031 3095.1563,303.1094 C3095.2188,303.5156 3095.25,303.6406 3095.3906,303.7656 C3095.5313,303.9063 3095.7656,304.0156 3095.9844,304.0156 C3096.25,304.0156 3096.5156,303.875 3096.6875,303.6563 C3096.7969,303.5 3096.8281,303.3125 3096.8281,302.8906 L3096.8281,301.4688 C3096.8281,301.0313 3096.8125,300.9063 3096.7188,300.75 C3096.5625,300.4844 3096.2813,300.3438 3095.9844,300.3438 C3095.6875,300.3438 3095.4844,300.4375 3095.2656,300.75 L3095.0938,300.6719 Z " fill="#000000"/><text fill="#000000" font-family="sans-serif" font-size="14" lengthAdjust="spacing" textLength="70" x="3113.25" y="309.8467">FMTagger</text><line style="stroke:#181818;stroke-width:0.5;" x1="2958.5" x2="3305.5" y1="321" y2="321"/><rect fill="none" height="6" style="stroke:#C82930;stroke-width:1.0;" width="6" x="2965.5" y="331.6484"/><text fill="#000000" font-family="sans-serif" font-size="14" lengthAdjust="spacing" textLength="96" x="2977.5" y="337.9951">int frequency</text><line style="stroke:#181818;stroke-width:0.5;" x1="2958.5" x2="3305.5" y1="345.2969" y2="345.2969"/><ellipse cx="2968.5" cy="358.9453" fill="#84BE84" rx="3" ry="3" style="stroke:#038048;stroke-width:1.0;"/><text fill="#000000" font-family="sans-serif" font-size="14" lengthAdjust="spacing" textLength="323" x="2977.5" y="362.292">FMTagger(audio, stimuli_intervals, frequency)</text><ellipse cx="2968.5" cy="375.2422" fill="#84BE84" rx="3" ry="3" style="stroke:#038048;stroke-width:1.0;"/><text fill="#000000" font-family="sans-serif" font-size="14" lengthAdjust="spacing" textLength="101" x="2977.5" y="378.5889">Audio create()</text></g><!--class AMTaggerFactory--><g id="elem_AMTaggerFactory"><rect codeLine="139" fill="#F1F1F1" height="113.1875" id="AMTaggerFactory" rx="2.5" ry="2.5" style="stroke:#181818;stroke-width:0.5;" width="697" x="3602.5" y="532"/><ellipse cx="3883.75" cy="548" fill="#ADD1B2" rx="11" ry="11" style="stroke:#181818;stroke-width:1.0;"/><path d="M3886.0938,543.6719 C3885.1563,543.2344 3884.5625,543.0938 3883.6875,543.0938 C3881.0625,543.0938 3879.0625,545.1719 3879.0625,547.8906 L3879.0625,549.0156 C3879.0625,551.5938 3881.1719,553.4844 3884.0625,553.4844 C3885.2813,553.4844 3886.4375,553.1875 3887.1875,552.6406 C3887.7656,552.2344 3888.0938,551.7813 3888.0938,551.3906 C3888.0938,550.9375 3887.7031,550.5469 3887.2344,550.5469 C3887.0156,550.5469 3886.8125,550.625 3886.625,550.8125 C3886.1719,551.2969 3886.1719,551.2969 3885.9844,551.3906 C3885.5625,551.6563 3884.875,551.7813 3884.1094,551.7813 C3882.0625,551.7813 3880.7656,550.6875 3880.7656,548.9844 L3880.7656,547.8906 C3880.7656,546.1094 3882.0156,544.7969 3883.75,544.7969 C3884.3281,544.7969 3884.9375,544.9531 3885.4063,545.2031 C3885.8906,545.4844 3886.0625,545.7031 3886.1563,546.1094 C3886.2188,546.5156 3886.25,546.6406 3886.3906,546.7656 C3886.5313,546.9063 3886.7656,547.0156 3886.9844,547.0156 C3887.25,547.0156 3887.5156,546.875 3887.6875,546.6563 C3887.7969,546.5 3887.8281,546.3125 3887.8281,545.8906 L3887.8281,544.4688 C3887.8281,544.0313 3887.8125,543.9063 3887.7188,543.75 C3887.5625,543.4844 3887.2813,543.3438 3886.9844,543.3438 C3886.6875,543.3438 3886.4844,543.4375 3886.2656,543.75 L3886.0938,543.6719 Z " fill="#000000"/><text fill="#000000" font-family="sans-serif" font-size="14" lengthAdjust="spacing" textLength="126" x="3904.25" y="552.8467">AMTaggerFactory</text><line style="stroke:#181818;stroke-width:0.5;" x1="3603.5" x2="4298.5" y1="564" y2="564"/><rect fill="none" height="6" style="stroke:#C82930;stroke-width:1.0;" width="6" x="3610.5" y="574.6484"/><text fill="#000000" font-family="sans-serif" font-size="14" lengthAdjust="spacing" textLength="96" x="3622.5" y="580.9951">int frequency</text><rect fill="none" height="6" style="stroke:#C82930;stroke-width:1.0;" width="6" x="3610.5" y="590.9453"/><text fill="#000000" font-family="sans-serif" font-size="14" lengthAdjust="spacing" textLength="371" x="3622.5" y="597.292">Callable[[int, int, int], NDArray[float]] tag_generator</text><line style="stroke:#181818;stroke-width:0.5;" x1="3603.5" x2="4298.5" y1="604.5938" y2="604.5938"/><ellipse cx="3613.5" cy="618.2422" fill="#84BE84" rx="3" ry="3" style="stroke:#038048;stroke-width:1.0;"/><text fill="#000000" font-family="sans-serif" font-size="14" lengthAdjust="spacing" textLength="319" x="3622.5" y="621.5889">AMTaggerFactory(frequency, tag_generator)</text><ellipse cx="3613.5" cy="634.5391" fill="#84BE84" rx="3" ry="3" style="stroke:#038048;stroke-width:1.0;"/><text fill="#000000" font-family="sans-serif" font-size="14" lengthAdjust="spacing" textLength="671" x="3622.5" y="637.8857">AAudioTagger create_auditory_stimulus(audio: Audio, stimuli_intervals: List[Tuple[float, float])</text></g><!--class FMTaggerFactory--><g id="elem_FMTaggerFactory"><rect codeLine="147" fill="#F1F1F1" height="96.8906" id="FMTaggerFactory" rx="2.5" ry="2.5" style="stroke:#181818;stroke-width:0.5;" width="697" x="2870.5" y="540"/><ellipse cx="3152.75" cy="556" fill="#ADD1B2" rx="11" ry="11" style="stroke:#181818;stroke-width:1.0;"/><path d="M3155.0938,551.6719 C3154.1563,551.2344 3153.5625,551.0938 3152.6875,551.0938 C3150.0625,551.0938 3148.0625,553.1719 3148.0625,555.8906 L3148.0625,557.0156 C3148.0625,559.5938 3150.1719,561.4844 3153.0625,561.4844 C3154.2813,561.4844 3155.4375,561.1875 3156.1875,560.6406 C3156.7656,560.2344 3157.0938,559.7813 3157.0938,559.3906 C3157.0938,558.9375 3156.7031,558.5469 3156.2344,558.5469 C3156.0156,558.5469 3155.8125,558.625 3155.625,558.8125 C3155.1719,559.2969 3155.1719,559.2969 3154.9844,559.3906 C3154.5625,559.6563 3153.875,559.7813 3153.1094,559.7813 C3151.0625,559.7813 3149.7656,558.6875 3149.7656,556.9844 L3149.7656,555.8906 C3149.7656,554.1094 3151.0156,552.7969 3152.75,552.7969 C3153.3281,552.7969 3153.9375,552.9531 3154.4063,553.2031 C3154.8906,553.4844 3155.0625,553.7031 3155.1563,554.1094 C3155.2188,554.5156 3155.25,554.6406 3155.3906,554.7656 C3155.5313,554.9063 3155.7656,555.0156 3155.9844,555.0156 C3156.25,555.0156 3156.5156,554.875 3156.6875,554.6563 C3156.7969,554.5 3156.8281,554.3125 3156.8281,553.8906 L3156.8281,552.4688 C3156.8281,552.0313 3156.8125,551.9063 3156.7188,551.75 C3156.5625,551.4844 3156.2813,551.3438 3155.9844,551.3438 C3155.6875,551.3438 3155.4844,551.4375 3155.2656,551.75 L3155.0938,551.6719 Z " fill="#000000"/><text fill="#000000" font-family="sans-serif" font-size="14" lengthAdjust="spacing" textLength="124" x="3173.25" y="560.8467">FMTaggerFactory</text><line style="stroke:#181818;stroke-width:0.5;" x1="2871.5" x2="3566.5" y1="572" y2="572"/><rect fill="none" height="6" style="stroke:#C82930;stroke-width:1.0;" width="6" x="2878.5" y="582.6484"/><text fill="#000000" font-family="sans-serif" font-size="14" lengthAdjust="spacing" textLength="96" x="2890.5" y="588.9951">int frequency</text><line style="stroke:#181818;stroke-width:0.5;" x1="2871.5" x2="3566.5" y1="596.2969" y2="596.2969"/><ellipse cx="2881.5" cy="609.9453" fill="#84BE84" rx="3" ry="3" style="stroke:#038048;stroke-width:1.0;"/><text fill="#000000" font-family="sans-serif" font-size="14" lengthAdjust="spacing" textLength="206" x="2890.5" y="613.292">FMTaggerFactory(frequency)</text><ellipse cx="2881.5" cy="626.2422" fill="#84BE84" rx="3" ry="3" style="stroke:#038048;stroke-width:1.0;"/><text fill="#000000" font-family="sans-serif" font-size="14" lengthAdjust="spacing" textLength="671" x="2890.5" y="629.5889">AAudioTagger create_auditory_stimulus(audio: Audio, stimuli_intervals: List[Tuple[float, float])</text></g><!--class ETrigger--><g id="elem_ETrigger"><rect codeLine="186" fill="#F1F1F1" height="64.2969" id="ETrigger" rx="2.5" ry="2.5" style="stroke:#181818;stroke-width:0.5;" width="501" x="22.5" y="1427"/><ellipse cx="238.25" cy="1443" fill="#EB937F" rx="11" ry="11" style="stroke:#181818;stroke-width:1.0;"/><path d="M237.0469,1443.875 L238.5,1443.875 L238.5,1443.9844 C238.5,1444.3906 238.5313,1444.5469 238.6094,1444.7031 C238.7656,1444.9531 239.0469,1445.1094 239.3438,1445.1094 C239.5938,1445.1094 239.8594,1444.9688 240.0156,1444.75 C240.1406,1444.5938 240.1719,1444.4375 240.1719,1443.9844 L240.1719,1442.0625 C240.1719,1441.9063 240.1719,1441.8594 240.1563,1441.7031 C240.0938,1441.2344 239.7813,1440.9219 239.3281,1440.9219 C239.0781,1440.9219 238.8125,1441.0625 238.6406,1441.2813 C238.5313,1441.4531 238.5,1441.6094 238.5,1442.0625 L238.5,1442.1875 L237.0469,1442.1875 L237.0469,1439.7813 L241.0313,1439.7813 L241.0313,1440.6406 C241.0313,1441.0469 241.0625,1441.2188 241.1406,1441.375 C241.3125,1441.625 241.5938,1441.7813 241.875,1441.7813 C242.1406,1441.7813 242.4063,1441.6406 242.5781,1441.4219 C242.6875,1441.25 242.7188,1441.1094 242.7188,1440.6406 L242.7188,1438.0938 L235.0938,1438.0938 C234.6563,1438.0938 234.5313,1438.1094 234.375,1438.2031 C234.125,1438.3594 233.9688,1438.6563 233.9688,1438.9375 C233.9688,1439.2188 234.1094,1439.4688 234.3281,1439.6406 C234.4844,1439.75 234.6719,1439.7813 235.0938,1439.7813 L235.3438,1439.7813 L235.3438,1446.2969 L235.0938,1446.2969 C234.6875,1446.2969 234.5313,1446.3125 234.375,1446.4219 C234.125,1446.5938 233.9688,1446.8594 233.9688,1447.1563 C233.9688,1447.4219 234.1094,1447.6719 234.3281,1447.8281 C234.4688,1447.9531 234.7031,1448 235.0938,1448 L243.0938,1448 L243.0938,1445.4219 C243.0938,1444.9844 243.0625,1444.8438 242.9844,1444.6875 C242.8125,1444.4375 242.5313,1444.2813 242.25,1444.2813 C241.9844,1444.2813 241.7188,1444.3906 241.5469,1444.6406 C241.4375,1444.7969 241.4063,1444.9375 241.4063,1445.4219 L241.4063,1446.2969 L237.0469,1446.2969 L237.0469,1443.875 Z " fill="#000000"/><text fill="#000000" font-family="sans-serif" font-size="14" lengthAdjust="spacing" textLength="61" x="258.75" y="1447.8467">ETrigger</text><line style="stroke:#181818;stroke-width:0.5;" x1="23.5" x2="522.5" y1="1459" y2="1459"/><line style="stroke:#181818;stroke-width:0.5;" x1="23.5" x2="522.5" y1="1467" y2="1467"/><ellipse cx="33.5" cy="1480.6484" fill="#84BE84" rx="3" ry="3" style="stroke:#038048;stroke-width:1.0;"/><text fill="#000000" font-family="sans-serif" font-size="14" lengthAdjust="spacing" text-decoration="underline" textLength="475" x="42.5" y="1483.9951">ETrigger get_trigger(data: Any, identifier: EModelUpdateIdentifier</text></g><g id="elem_GMN46"><path d="M559,1431.5 L559,1455 L523.688,1459 L559,1463 L559,1486.8984 A0,0 0 0 0 559,1486.8984 L751,1486.8984 A0,0 0 0 0 751,1486.8984 L751,1441.5 L741,1431.5 L559,1431.5 A0,0 0 0 0 559,1431.5 " fill="#FEFFDD" style="stroke:#181818;stroke-width:0.5;"/><path d="M741,1431.5 L741,1441.5 L751,1441.5 L741,1431.5 " fill="#FEFFDD" style="stroke:#181818;stroke-width:0.5;"/><text fill="#000000" font-family="sans-serif" font-size="13" lengthAdjust="spacing" textLength="165" x="565" y="1448.5669">Contains tha mappings to</text><text fill="#000000" font-family="sans-serif" font-size="13" lengthAdjust="spacing" textLength="171" x="565" y="1463.6997">the actual trigger numbers</text><text fill="#000000" font-family="sans-serif" font-size="13" lengthAdjust="spacing" textLength="28" x="565" y="1478.8325">sent</text></g><!--class BittiumTriggerSender--><g id="elem_BittiumTriggerSender"><rect codeLine="191" fill="#F1F1F1" height="105.1563" id="BittiumTriggerSender" rx="2.5" ry="2.5" style="stroke:#181818;stroke-width:0.5;" width="424" x="260" y="1182.5"/><ellipse cx="389.25" cy="1202.6328" fill="#ADD1B2" rx="11" ry="11" style="stroke:#181818;stroke-width:1.0;"/><path d="M391.5938,1198.3047 C390.6563,1197.8672 390.0625,1197.7266 389.1875,1197.7266 C386.5625,1197.7266 384.5625,1199.8047 384.5625,1202.5234 L384.5625,1203.6484 C384.5625,1206.2266 386.6719,1208.1172 389.5625,1208.1172 C390.7813,1208.1172 391.9375,1207.8203 392.6875,1207.2734 C393.2656,1206.8672 393.5938,1206.4141 393.5938,1206.0234 C393.5938,1205.5703 393.2031,1205.1797 392.7344,1205.1797 C392.5156,1205.1797 392.3125,1205.2578 392.125,1205.4453 C391.6719,1205.9297 391.6719,1205.9297 391.4844,1206.0234 C391.0625,1206.2891 390.375,1206.4141 389.6094,1206.4141 C387.5625,1206.4141 386.2656,1205.3203 386.2656,1203.6172 L386.2656,1202.5234 C386.2656,1200.7422 387.5156,1199.4297 389.25,1199.4297 C389.8281,1199.4297 390.4375,1199.5859 390.9063,1199.8359 C391.3906,1200.1172 391.5625,1200.3359 391.6563,1200.7422 C391.7188,1201.1484 391.75,1201.2734 391.8906,1201.3984 C392.0313,1201.5391 392.2656,1201.6484 392.4844,1201.6484 C392.75,1201.6484 393.0156,1201.5078 393.1875,1201.2891 C393.2969,1201.1328 393.3281,1200.9453 393.3281,1200.5234 L393.3281,1199.1016 C393.3281,1198.6641 393.3125,1198.5391 393.2188,1198.3828 C393.0625,1198.1172 392.7813,1197.9766 392.4844,1197.9766 C392.1875,1197.9766 391.9844,1198.0703 391.7656,1198.3828 L391.5938,1198.3047 Z " fill="#000000"/><text fill="#000000" font-family="sans-serif" font-size="12" font-style="italic" lengthAdjust="spacing" textLength="68" x="454.25" y="1198.6387">&#171;Observer&#187;</text><text fill="#000000" font-family="sans-serif" font-size="14" lengthAdjust="spacing" textLength="157" x="409.75" y="1214.4639">BittiumTriggerSender</text><line style="stroke:#181818;stroke-width:0.5;" x1="261" x2="683" y1="1222.7656" y2="1222.7656"/><rect fill="none" height="6" style="stroke:#C82930;stroke-width:1.0;" width="6" x="268" y="1233.4141"/><text fill="#000000" font-family="sans-serif" font-size="14" lengthAdjust="spacing" textLength="183" x="280" y="1239.7607">IParallelPort parallel_port</text><rect fill="none" height="6" style="stroke:#C82930;stroke-width:1.0;" width="6" x="268" y="1249.7109"/><text fill="#000000" font-family="sans-serif" font-size="14" lengthAdjust="spacing" textLength="155" x="280" y="1256.0576">int trigger_duration_s</text><line style="stroke:#181818;stroke-width:0.5;" x1="261" x2="683" y1="1263.3594" y2="1263.3594"/><ellipse cx="271" cy="1277.0078" fill="#84BE84" rx="3" ry="3" style="stroke:#038048;stroke-width:1.0;"/><text fill="#000000" font-family="sans-serif" font-size="14" lengthAdjust="spacing" textLength="398" x="280" y="1280.3545">BittiumTriggerSender(parallel_port, trigger_duration_s)</text></g><g id="elem_n"><path d="M4372,70 L4372,125.3984 L4730,125.3984 L4730,80 L4720,70 L4372,70 " fill="#FEFFDD" style="stroke:#181818;stroke-width:0.5;"/><path d="M4720,70 L4720,80 L4730,80 L4720,70 " fill="#FEFFDD" style="stroke:#181818;stroke-width:1.0;"/><text fill="#000000" font-family="sans-serif" font-size="13" font-weight="bold" lengthAdjust="spacing" textLength="38" x="4378" y="87.0669">Note</text><text fill="#000000" font-family="sans-serif" font-size="13" lengthAdjust="spacing" textLength="299" x="4416" y="87.0669">: To save space, constructor parameter types,</text><text fill="#000000" font-family="sans-serif" font-size="13" lengthAdjust="spacing" textLength="308" x="4378" y="102.1997">which match the types of the class parameters,</text><text fill="#000000" font-family="sans-serif" font-size="13" lengthAdjust="spacing" textLength="107" x="4378" y="117.3325">are not specified</text></g><!--class Audio--><g id="elem_Audio"><rect codeLine="7" fill="#F1F1F1" height="80.5938" id="Audio" rx="2.5" ry="2.5" style="stroke:#181818;stroke-width:0.5;" width="194" x="2842" y="922.5"/><ellipse cx="2914.75" cy="938.5" fill="#ADD1B2" rx="11" ry="11" style="stroke:#181818;stroke-width:1.0;"/><path d="M2917.0938,934.1719 C2916.1563,933.7344 2915.5625,933.5938 2914.6875,933.5938 C2912.0625,933.5938 2910.0625,935.6719 2910.0625,938.3906 L2910.0625,939.5156 C2910.0625,942.0938 2912.1719,943.9844 2915.0625,943.9844 C2916.2813,943.9844 2917.4375,943.6875 2918.1875,943.1406 C2918.7656,942.7344 2919.0938,942.2813 2919.0938,941.8906 C2919.0938,941.4375 2918.7031,941.0469 2918.2344,941.0469 C2918.0156,941.0469 2917.8125,941.125 2917.625,941.3125 C2917.1719,941.7969 2917.1719,941.7969 2916.9844,941.8906 C2916.5625,942.1563 2915.875,942.2813 2915.1094,942.2813 C2913.0625,942.2813 2911.7656,941.1875 2911.7656,939.4844 L2911.7656,938.3906 C2911.7656,936.6094 2913.0156,935.2969 2914.75,935.2969 C2915.3281,935.2969 2915.9375,935.4531 2916.4063,935.7031 C2916.8906,935.9844 2917.0625,936.2031 2917.1563,936.6094 C2917.2188,937.0156 2917.25,937.1406 2917.3906,937.2656 C2917.5313,937.4063 2917.7656,937.5156 2917.9844,937.5156 C2918.25,937.5156 2918.5156,937.375 2918.6875,937.1563 C2918.7969,937 2918.8281,936.8125 2918.8281,936.3906 L2918.8281,934.9688 C2918.8281,934.5313 2918.8125,934.4063 2918.7188,934.25 C2918.5625,933.9844 2918.2813,933.8438 2917.9844,933.8438 C2917.6875,933.8438 2917.4844,933.9375 2917.2656,934.25 L2917.0938,934.1719 Z " fill="#000000"/><text fill="#000000" font-family="sans-serif" font-size="14" lengthAdjust="spacing" textLength="40" x="2935.25" y="943.3467">Audio</text><line style="stroke:#181818;stroke-width:0.5;" x1="2843" x2="3035" y1="954.5" y2="954.5"/><ellipse cx="2853" cy="968.1484" fill="none" rx="3" ry="3" style="stroke:#038048;stroke-width:1.0;"/><text fill="#000000" font-family="sans-serif" font-size="14" lengthAdjust="spacing" textLength="143" x="2862" y="971.4951">NDArray[float] array</text><ellipse cx="2853" cy="984.4453" fill="none" rx="3" ry="3" style="stroke:#038048;stroke-width:1.0;"/><text fill="#000000" font-family="sans-serif" font-size="14" lengthAdjust="spacing" textLength="168" x="2862" y="987.792">int sampling_frequency</text><line style="stroke:#181818;stroke-width:0.5;" x1="2843" x2="3035" y1="995.0938" y2="995.0938"/></g><!--class Experiment--><g id="elem_Experiment"><rect codeLine="221" fill="#F1F1F1" height="96.8906" id="Experiment" rx="2.5" ry="2.5" style="stroke:#181818;stroke-width:0.5;" width="876" x="471" y="49"/><ellipse cx="862.25" cy="65" fill="#ADD1B2" rx="11" ry="11" style="stroke:#181818;stroke-width:1.0;"/><path d="M864.5938,60.6719 C863.6563,60.2344 863.0625,60.0938 862.1875,60.0938 C859.5625,60.0938 857.5625,62.1719 857.5625,64.8906 L857.5625,66.0156 C857.5625,68.5938 859.6719,70.4844 862.5625,70.4844 C863.7813,70.4844 864.9375,70.1875 865.6875,69.6406 C866.2656,69.2344 866.5938,68.7813 866.5938,68.3906 C866.5938,67.9375 866.2031,67.5469 865.7344,67.5469 C865.5156,67.5469 865.3125,67.625 865.125,67.8125 C864.6719,68.2969 864.6719,68.2969 864.4844,68.3906 C864.0625,68.6563 863.375,68.7813 862.6094,68.7813 C860.5625,68.7813 859.2656,67.6875 859.2656,65.9844 L859.2656,64.8906 C859.2656,63.1094 860.5156,61.7969 862.25,61.7969 C862.8281,61.7969 863.4375,61.9531 863.9063,62.2031 C864.3906,62.4844 864.5625,62.7031 864.6563,63.1094 C864.7188,63.5156 864.75,63.6406 864.8906,63.7656 C865.0313,63.9063 865.2656,64.0156 865.4844,64.0156 C865.75,64.0156 866.0156,63.875 866.1875,63.6563 C866.2969,63.5 866.3281,63.3125 866.3281,62.8906 L866.3281,61.4688 C866.3281,61.0313 866.3125,60.9063 866.2188,60.75 C866.0625,60.4844 865.7813,60.3438 865.4844,60.3438 C865.1875,60.3438 864.9844,60.4375 864.7656,60.75 L864.5938,60.6719 Z " fill="#000000"/><text fill="#000000" font-family="sans-serif" font-size="14" lengthAdjust="spacing" textLength="85" x="882.75" y="69.8467">Experiment</text><line style="stroke:#181818;stroke-width:0.5;" x1="472" x2="1346" y1="81" y2="81"/><line style="stroke:#181818;stroke-width:0.5;" x1="472" x2="1346" y1="89" y2="89"/><ellipse cx="482" cy="102.6484" fill="#84BE84" rx="3" ry="3" style="stroke:#038048;stroke-width:1.0;"/><text fill="#000000" font-family="sans-serif" font-size="14" lengthAdjust="spacing" textLength="850" x="491" y="105.9951">Experiment(model: Model, view: AView, stimuli: List[Stimulus], auditory_stimulus_factories: List[AAudioTaggerFactory])</text><ellipse cx="482" cy="118.9453" fill="#84BE84" rx="3" ry="3" style="stroke:#038048;stroke-width:1.0;"/><text fill="#000000" font-family="sans-serif" font-size="14" lengthAdjust="spacing" textLength="146" x="491" y="122.292">void create_stimuli()</text><ellipse cx="482" cy="135.2422" fill="#84BE84" rx="3" ry="3" style="stroke:#038048;stroke-width:1.0;"/><text fill="#000000" font-family="sans-serif" font-size="14" lengthAdjust="spacing" textLength="67" x="491" y="138.5889">void run()</text></g><!--reverse link AObserver to Logger--><g id="link_AObserver_Logger"><path codeLine="54" d="M1028.0865,1013.2329 C1027.1965,1061.2629 1025.83,1135.419 1024.81,1190.126 " fill="none" id="AObserver-backto-Logger" style="stroke:#181818;stroke-width:1.0;"/><polygon fill="none" points="1028.42,995.236,1022.0875,1013.1217,1034.0855,1013.3441,1028.42,995.236" style="stroke:#181818;stroke-width:1.0;"/></g><!--reverse link Stimulus to Audio--><g id="link_Stimulus_Audio"><path codeLine="79" d="M2586.4515,1172.2909 C2674.6515,1120.1799 2793.96,1049.689 2872.06,1003.549 " fill="none" id="Stimulus-backto-Audio" style="stroke:#181818;stroke-width:1.0;"/><polygon fill="#181818" points="2576.12,1178.395,2583.3205,1178.7868,2586.4515,1172.2909,2579.251,1171.8991,2576.12,1178.395" style="stroke:#181818;stroke-width:1.0;"/><text fill="#000000" font-family="sans-serif" font-size="13" lengthAdjust="spacing" textLength="35" x="2739" y="1091.0669">audio</text><text fill="#000000" font-family="sans-serif" font-size="13" lengthAdjust="spacing" textLength="8" x="2579.6666" y="1167.2449">1</text><text fill="#000000" font-family="sans-serif" font-size="13" lengthAdjust="spacing" textLength="8" x="2853.1973" y="1023.0147">1</text></g><!--link Audio to CreatedStimulus--><g id="link_Audio_CreatedStimulus"><path codeLine="91" d="M2841.83,963 C2802.2,963 2766.58,963 2719.15,963 " fill="none" id="Audio-to-CreatedStimulus" style="stroke:#181818;stroke-width:1.0;"/><polygon fill="#181818" points="2707.15,963,2713.15,967,2719.15,963,2713.15,959,2707.15,963" style="stroke:#181818;stroke-width:1.0;"/><text fill="#000000" font-family="sans-serif" font-size="13" lengthAdjust="spacing" textLength="98" x="2725.5" y="956.0669">modified_audio</text><text fill="#000000" font-family="sans-serif" font-size="13" lengthAdjust="spacing" textLength="8" x="2826.0842" y="959.5133">1</text><text fill="#000000" font-family="sans-serif" font-size="13" lengthAdjust="spacing" textLength="8" x="2714.669" y="959.8217">1</text></g><!--reverse link CreatedStimulus to Stimulus--><g id="link_CreatedStimulus_Stimulus"><path codeLine="94" d="M2482,1056.278 C2482,1099.492 2482,1139.711 2482,1178.416 " fill="none" id="CreatedStimulus-backto-Stimulus" style="stroke:#181818;stroke-width:1.0;"/><polygon fill="#181818" points="2482,1044.278,2478,1050.278,2482,1056.278,2486,1050.278,2482,1044.278" style="stroke:#181818;stroke-width:1.0;"/><text fill="#000000" font-family="sans-serif" font-size="13" lengthAdjust="spacing" textLength="7" x="2474.6883" y="1064.2541">*</text><text fill="#000000" font-family="sans-serif" font-size="13" lengthAdjust="spacing" textLength="8" x="2473.4875" y="1167.2686">1</text></g><!--reverse link Model to CreatedStimulus--><g id="link_Model_CreatedStimulus"><path codeLine="97" d="M1966.215,982.8255 C2033.995,984.7835 2092.78,985.048 2159,983 C2190.59,982.023 2223.89,980.51 2256.63,978.743 " fill="none" id="Model-backto-CreatedStimulus" style="stroke:#181818;stroke-width:1.0;"/><polygon fill="#181818" points="1954.22,982.479,1960.102,986.6506,1966.215,982.8255,1960.333,978.6539,1954.22,982.479" style="stroke:#181818;stroke-width:1.0;"/><text fill="#000000" font-family="sans-serif" font-size="13" lengthAdjust="spacing" textLength="105" x="2053" y="979.0669">stimulus_history</text><text fill="#000000" font-family="sans-serif" font-size="13" lengthAdjust="spacing" textLength="8" x="1962.147" y="979.8242">1</text><text fill="#000000" font-family="sans-serif" font-size="13" lengthAdjust="spacing" textLength="7" x="2242.1202" y="976.0813">*</text></g><!--reverse link Model to CreatedStimulus--><g id="link_Model_CreatedStimulus"><path codeLine="231" d="M1966.2,963 C2067.5,963 2164.33,963 2256.69,963 " fill="none" id="Model-backto-CreatedStimulus-1" style="stroke:#181818;stroke-width:1.0;"/><polygon fill="#181818" points="1954.2,963,1960.2,967,1966.2,963,1960.2,959,1954.2,963" style="stroke:#181818;stroke-width:1.0;"/><text fill="#000000" font-family="sans-serif" font-size="13" lengthAdjust="spacing" textLength="98" x="2056.5" y="921.0669">created_stimuli</text><path d="M1976.5,930.1328 L1976.5,955.1328 L2234.5,955.1328 L2234.5,940.1328 L2224.5,930.1328 L1976.5,930.1328 " fill="#FEFFDD" style="stroke:#181818;stroke-width:0.5;"/><path d="M2224.5,930.1328 L2224.5,940.1328 L2234.5,940.1328 L2224.5,930.1328 " fill="#FEFFDD" style="stroke:#181818;stroke-width:0.5;"/><text fill="#000000" font-family="sans-serif" font-size="13" lengthAdjust="spacing" textLength="237" x="1982.5" y="947.1997">Created by calling  `create_stimuli()`</text><text fill="#000000" font-family="sans-serif" font-size="13" lengthAdjust="spacing" textLength="8" x="1962.1266" y="959.8886">1</text><text fill="#000000" font-family="sans-serif" font-size="13" lengthAdjust="spacing" textLength="7" x="2242.1822" y="959.8217">*</text></g><!--reverse link Model to EExperimentState--><g id="link_Model_EExperimentState"><path codeLine="98" d="M1519.6962,1056.551 C1509.3462,1066.47 1507.71,1068.234 1498,1078 C1471.37,1104.795 1442.98,1135.142 1418.51,1161.901 " fill="none" id="Model-backto-EExperimentState" style="stroke:#181818;stroke-width:1.0;"/><polygon fill="none" points="1528.36,1048.248,1521.2605,1049.5116,1519.6962,1056.551,1526.7958,1055.2874,1528.36,1048.248" style="stroke:#181818;stroke-width:1.0;"/><text fill="#000000" font-family="sans-serif" font-size="13" lengthAdjust="spacing" textLength="114" x="1499" y="1091.0669">experiment_state</text><text fill="#000000" font-family="sans-serif" font-size="13" lengthAdjust="spacing" textLength="7" x="1513.1839" y="1068.2764">*</text><text fill="#000000" font-family="sans-serif" font-size="13" lengthAdjust="spacing" textLength="8" x="1416.4665" y="1151.0512">1</text></g><!--link AObserver to Model--><g id="link_AObserver_Model"><path codeLine="99" d="M1251.2,963 C1262.73,963 1262.25,963 1273.78,963 " fill="none" id="AObserver-to-Model" style="stroke:#181818;stroke-width:1.0;"/><polygon fill="none" points="1285.78,963,1279.78,959,1273.78,963,1279.78,967,1285.78,963" style="stroke:#181818;stroke-width:1.0;"/><text fill="#000000" font-family="sans-serif" font-size="13" lengthAdjust="spacing" textLength="7" x="1259.3111" y="959.7944">*</text><text fill="#000000" font-family="sans-serif" font-size="13" lengthAdjust="spacing" textLength="8" x="1269.853" y="959.8886">1</text></g><!--link Model to EModelUpdateIdentifier--><g id="link_Model_EModelUpdateIdentifier"><path codeLine="100" d="M1621.25,1048.319 C1621.92,1093.809 1622.6403,1142.2817 1623.2103,1180.4207 " fill="none" id="Model-to-EModelUpdateIdentifier" style="stroke:#181818;stroke-width:1.0;stroke-dasharray:7.0,7.0;"/><polygon fill="#181818" points="1623.3,1186.42,1627.1651,1177.3612,1623.2253,1181.4206,1619.166,1177.4808,1623.3,1186.42" style="stroke:#181818;stroke-width:1.0;"/><text fill="#000000" font-family="sans-serif" font-size="13" lengthAdjust="spacing" textLength="30" x="1623" y="1091.0669">uses</text></g><!--reverse link constants to AObserver--><g id="link_constants_AObserver"><path codeLine="102" d="M1201.3893,1112.9861 C1200.8518,1111.2545 1201.8219,1114.6289 1201.205,1112.9318 C1199.9713,1109.5378 1198.575,1106.219 1197,1103 C1173.96,1055.905 1126.67,1019.084 1088.12,995.204 " fill="none" id="constants-backto-AObserver" style="stroke:#181818;stroke-width:1.0;stroke-dasharray:7.0,7.0;"/><polygon fill="#181818" points="1203.1353,1118.7265,1204.3432,1108.9519,1201.6803,1113.9428,1196.6894,1111.28,1203.1353,1118.7265" style="stroke:#181818;stroke-width:1.0;"/><text fill="#000000" font-family="sans-serif" font-size="13" lengthAdjust="spacing" textLength="30" x="1193" y="1091.0669">uses</text></g><!--link AView to AObserver--><g id="link_AView_AObserver"><path codeLine="104" d="M965.619,447.07 C976.383,471.78 986.348,498.33 993,524 C1031.53,672.638 1032.1464,840.2688 1030.4664,912.8688 " fill="none" id="AView-to-AObserver" style="stroke:#181818;stroke-width:1.0;"/><polygon fill="none" points="1030.05,930.864,1036.4648,913.0076,1024.468,912.73,1030.05,930.864" style="stroke:#181818;stroke-width:1.0;"/></g><!--reverse link AAuditoryTagger to Audio--><g id="link_AAuditoryTagger_Audio"><path codeLine="115" d="M3077.6054,102.3527 C3419.0754,111.8227 4273.6,139.87 4316,185 C4463.3,341.77 4451.36,501.81 4316,669 C4153.65,869.529 3322.53,938.584 3036.14,956.632 " fill="none" id="AAuditoryTagger-backto-Audio" style="stroke:#181818;stroke-width:1.0;"/><polygon fill="#181818" points="3065.61,102.02,3071.4968,106.1848,3077.6054,102.3527,3071.7186,98.1879,3065.61,102.02" style="stroke:#181818;stroke-width:1.0;"/><text fill="#000000" font-family="sans-serif" font-size="13" lengthAdjust="spacing" textLength="35" x="4402" y="593.0669">audio</text><text fill="#000000" font-family="sans-serif" font-size="13" lengthAdjust="spacing" textLength="8" x="3073.2996" y="98.9305">1</text><text fill="#000000" font-family="sans-serif" font-size="13" lengthAdjust="spacing" textLength="8" x="3043.8835" y="952.6578">1</text></g><!--reverse link AObserver to BittiumTriggerSender--><g id="link_AObserver_BittiumTriggerSender"><path codeLine="197" d="M948.6357,1002.9555 C854.0927,1048.7845 692.45,1127.139 578.244,1182.499 " fill="none" id="AObserver-backto-BittiumTriggerSender" style="stroke:#181818;stroke-width:1.0;"/><polygon fill="none" points="964.833,995.104,946.0185,997.5564,951.2528,1008.3546,964.833,995.104" style="stroke:#181818;stroke-width:1.0;"/></g><!--link BittiumTriggerSender to ETrigger--><g id="link_BittiumTriggerSender_ETrigger"><path codeLine="198" d="M425.594,1287.769 C387.005,1330.818 337.3519,1386.2103 305.0219,1422.2766 " fill="none" id="BittiumTriggerSender-to-ETrigger" style="stroke:#181818;stroke-width:1.0;stroke-dasharray:7.0,7.0;"/><polygon fill="#181818" points="301.017,1426.7443,310.0029,1422.7126,304.3544,1423.0212,304.0459,1417.3727,301.017,1426.7443" style="stroke:#181818;stroke-width:1.0;"/><text fill="#000000" font-family="sans-serif" font-size="13" lengthAdjust="spacing" textLength="30" x="339" y="1393.0669">uses</text></g><!--reverse link AAuditoryTagger to RawTagger--><g id="link_AAuditoryTagger_RawTagger"><path codeLine="201" d="M2850.1347,156.7888 C2786.0847,204.1288 2704.13,264.71 2649.23,305.29 " fill="none" id="AAuditoryTagger-backto-RawTagger" style="stroke:#181818;stroke-width:1.0;"/><polygon fill="none" points="2864.61,146.09,2846.5684,151.9637,2853.701,161.614,2864.61,146.09" style="stroke:#181818;stroke-width:1.0;"/></g><!--reverse link AAuditoryTagger to NoiseTaggingTagger--><g id="link_AAuditoryTagger_NoiseTaggingTagger"><path codeLine="202" d="M2774.7048,149.3752 C2660.2548,176.9452 2640.64,158.22 2526,185 C2452.6,202.15 2374.18,225.34 2302.81,248.42 " fill="none" id="AAuditoryTagger-backto-NoiseTaggingTagger" style="stroke:#181818;stroke-width:1.0;"/><polygon fill="none" points="2792.16,144.98,2773.2398,143.5568,2776.1699,155.1936,2792.16,144.98" style="stroke:#181818;stroke-width:1.0;"/></g><!--reverse link AAuditoryTagger to AMTagger--><g id="link_AAuditoryTagger_AMTagger"><path codeLine="203" d="M3083.3311,127.9866 C3159.8311,143.4966 3238.99,161.21 3324,185 C3423.11,212.74 3532.55,250.2 3617.73,280.92 " fill="none" id="AAuditoryTagger-backto-AMTagger" style="stroke:#181818;stroke-width:1.0;"/><polygon fill="none" points="3065.69,124.41,3082.1389,133.867,3084.5233,122.1063,3065.69,124.41" style="stroke:#181818;stroke-width:1.0;"/></g><!--reverse link AAuditoryTagger to FMTagger--><g id="link_AAuditoryTagger_FMTagger"><path codeLine="204" d="M2981.2719,159.7843 C3016.6819,201.2943 3056.09,247.51 3091.48,288.99 " fill="none" id="AAuditoryTagger-backto-FMTagger" style="stroke:#181818;stroke-width:1.0;"/><polygon fill="none" points="2969.59,146.09,2976.7071,163.6783,2985.8366,155.8903,2969.59,146.09" style="stroke:#181818;stroke-width:1.0;"/></g><!--link AMTaggerFactory to AAudioTaggerFactory--><g id="link_AMTaggerFactory_AAudioTaggerFactory"><path codeLine="206" d="M3728.61,645.07 C3681.48,654.799 3631.82,663.542 3585,669 C3415.01,688.814 2985.24,665.489 2815,683 C2751.44,689.538 2699.4249,698.3358 2640.7249,710.3428 " fill="none" id="AMTaggerFactory-to-AAudioTaggerFactory" style="stroke:#181818;stroke-width:1.0;"/><polygon fill="none" points="2623.09,713.95,2641.9273,716.2211,2639.5225,704.4645,2623.09,713.95" style="stroke:#181818;stroke-width:1.0;"/></g><!--link FMTaggerFactory to AAudioTaggerFactory--><g id="link_FMTaggerFactory_AAudioTaggerFactory"><path codeLine="207" d="M3021.71,637.093 C2971.13,648.424 2916.7,659.864 2866,669 C2820.53,677.194 2808.47,674.819 2763,683 C2714.18,691.784 2678.4625,699.2557 2631.8725,709.9647 " fill="none" id="FMTaggerFactory-to-AAudioTaggerFactory" style="stroke:#181818;stroke-width:1.0;"/><polygon fill="none" points="2614.33,713.997,2633.2166,715.8123,2630.5285,704.1172,2614.33,713.997" style="stroke:#181818;stroke-width:1.0;"/></g><!--link NoiseTaggingTaggerFactory to AAudioTaggerFactory--><g id="link_NoiseTaggingTaggerFactory_AAudioTaggerFactory"><path codeLine="208" d="M2046.62,653.096 C2071.77,658.504 2096.83,663.866 2121,669 C2191.62,684.002 2252.3529,696.6733 2318.3929,710.3283 " fill="none" id="NoiseTaggingTaggerFactory-to-AAudioTaggerFactory" style="stroke:#181818;stroke-width:1.0;"/><polygon fill="none" points="2336.02,713.973,2319.6078,704.4525,2317.178,716.204,2336.02,713.973" style="stroke:#181818;stroke-width:1.0;"/></g><!--link RawTaggerFactory to AAudioTaggerFactory--><g id="link_RawTaggerFactory_AAudioTaggerFactory"><path codeLine="209" d="M2487,620.594 C2487,647.715 2487,668.855 2487,695.96 " fill="none" id="RawTaggerFactory-to-AAudioTaggerFactory" style="stroke:#181818;stroke-width:1.0;"/><polygon fill="none" points="2487,713.96,2493,695.96,2481,695.96,2487,713.96" style="stroke:#181818;stroke-width:1.0;"/></g><!--reverse link AMTagger to AMTaggerFactory--><g id="link_AMTagger_AMTaggerFactory"><path codeLine="211" d="M3810.868,398.8864 C3841.318,439.8764 3879.02,490.61 3909.52,531.669 " fill="none" id="AMTagger-backto-AMTaggerFactory" style="stroke:#181818;stroke-width:1.0;stroke-dasharray:7.0,7.0;"/><polygon fill="#181818" points="3807.29,394.07,3809.446,403.68,3810.2716,398.0837,3815.8679,398.9094,3807.29,394.07" style="stroke:#181818;stroke-width:1.0;"/><text fill="#000000" font-family="sans-serif" font-size="13" lengthAdjust="spacing" textLength="48" x="3882" y="490.0669">creates</text></g><!--reverse link FMTagger to FMTaggerFactory--><g id="link_FMTagger_FMTaggerFactory"><path codeLine="212" d="M3150.6491,391.8842 C3166.0891,436.0742 3186.96,495.8 3202.38,539.946 " fill="none" id="FMTagger-backto-FMTaggerFactory" style="stroke:#181818;stroke-width:1.0;stroke-dasharray:7.0,7.0;"/><polygon fill="#181818" points="3148.67,386.22,3147.8625,396.0357,3150.3192,390.9402,3155.4148,393.3969,3148.67,386.22" style="stroke:#181818;stroke-width:1.0;"/><text fill="#000000" font-family="sans-serif" font-size="13" lengthAdjust="spacing" textLength="48" x="3187" y="490.0669">creates</text></g><!--reverse link NoiseTaggingTagger to NoiseTaggingTaggerFactory--><g id="link_NoiseTaggingTagger_NoiseTaggingTaggerFactory"><path codeLine="213" d="M1944.1932,430.4722 C1905.5932,462.5122 1867.37,494.23 1831.8,523.756 " fill="none" id="NoiseTaggingTagger-backto-NoiseTaggingTaggerFactory" style="stroke:#181818;stroke-width:1.0;stroke-dasharray:7.0,7.0;"/><polygon fill="#181818" points="1948.81,426.64,1939.3301,429.3104,1944.9627,429.8335,1944.4396,435.4661,1948.81,426.64" style="stroke:#181818;stroke-width:1.0;"/><text fill="#000000" font-family="sans-serif" font-size="13" lengthAdjust="spacing" textLength="48" x="1889" y="490.0669">creates</text></g><!--reverse link RawTagger to RawTaggerFactory--><g id="link_RawTagger_RawTaggerFactory"><path codeLine="214" d="M2589.4361,374.9355 C2566.3861,422.7855 2525.01,508.62 2501.95,556.468 " fill="none" id="RawTagger-backto-RawTaggerFactory" style="stroke:#181818;stroke-width:1.0;stroke-dasharray:7.0,7.0;"/><polygon fill="#181818" points="2592.04,369.53,2584.5305,375.9023,2589.8701,374.0346,2591.7378,379.3742,2592.04,369.53" style="stroke:#181818;stroke-width:1.0;"/><text fill="#000000" font-family="sans-serif" font-size="13" lengthAdjust="spacing" textLength="48" x="2541" y="490.0669">creates</text></g><!--reverse link AView to PsychopyView--><g id="link_AView_PsychopyView"><path codeLine="216" d="M909,465.35 C909,509.06 909,537.384 909,564.31 " fill="none" id="AView-backto-PsychopyView" style="stroke:#181818;stroke-width:1.0;"/><polygon fill="none" points="909,447.35,903,465.35,915,465.35,909,447.35" style="stroke:#181818;stroke-width:1.0;"/></g><!--reverse link AView to CLIView--><g id="link_AView_CLIView"><path codeLine="217" d="M836.0705,462.8776 C810.4415,506.5876 792.385,537.384 776.598,564.31 " fill="none" id="AView-backto-CLIView" style="stroke:#181818;stroke-width:1.0;"/><polygon fill="none" points="845.175,447.35,830.8946,459.8428,841.2464,465.9125,845.175,447.35" style="stroke:#181818;stroke-width:1.0;"/></g><!--reverse link Experiment to Model--><g id="link_Experiment_Model"><path codeLine="226" d="M1113.4953,150.9195 C1137.5153,161.4795 1149.73,169.47 1170,185 C1234.05,234.06 1270,255.82 1270,336.5 C1270,336.5 1270,336.5 1270,747 C1270,804.05 1304.18,846.44 1351.18,877.761 " fill="none" id="Experiment-backto-Model" style="stroke:#181818;stroke-width:1.0;"/><polygon fill="#181818" points="1102.51,146.09,1106.3928,152.1665,1113.4953,150.9195,1109.6125,144.843,1102.51,146.09" style="stroke:#181818;stroke-width:1.0;"/><text fill="#000000" font-family="sans-serif" font-size="13" lengthAdjust="spacing" textLength="8" x="1121.1598" y="166.0616">1</text><text fill="#000000" font-family="sans-serif" font-size="13" lengthAdjust="spacing" textLength="8" x="1319.7345" y="866.8491">1</text></g><!--reverse link Experiment to AView--><g id="link_Experiment_AView"><path codeLine="227" d="M909,158.09 C909,181.69 909,199.25 909,227.98 " fill="none" id="Experiment-backto-AView" style="stroke:#181818;stroke-width:1.0;"/><polygon fill="#181818" points="909,146.09,905,152.09,909,158.09,913,152.09,909,146.09" style="stroke:#181818;stroke-width:1.0;"/><text fill="#000000" font-family="sans-serif" font-size="13" lengthAdjust="spacing" textLength="8" x="900.4375" y="166.0616">1</text><text fill="#000000" font-family="sans-serif" font-size="13" lengthAdjust="spacing" textLength="8" x="900.7188" y="216.8154">1</text></g><!--link AAudioTaggerFactory to Model--><g id="link_AAudioTaggerFactory_Model"><path codeLine="229" d="M2361.86,778.033 C2255.29,804.46 2108.8272,840.7807 1965.9172,876.2197 " fill="none" id="AAudioTaggerFactory-to-Model" style="stroke:#181818;stroke-width:1.0;"/><polygon fill="#181818" points="1954.27,879.108,1961.0564,881.5463,1965.9172,876.2197,1959.1308,873.7814,1954.27,879.108" style="stroke:#181818;stroke-width:1.0;"/><text fill="#000000" font-family="sans-serif" font-size="13" lengthAdjust="spacing" textLength="7" x="2328.328" y="798.2367">*</text><text fill="#000000" font-family="sans-serif" font-size="13" lengthAdjust="spacing" textLength="8" x="1962.1982" y="874.0304">1</text></g><!--reverse link Model to Stimulus--><g id="link_Model_Stimulus"><path codeLine="230" d="M1899.7614,1051.6288 C2048.6314,1098.2578 2216.39,1150.806 2338.71,1189.118 " fill="none" id="Model-backto-Stimulus" style="stroke:#181818;stroke-width:1.0;"/><polygon fill="#181818" points="1888.31,1048.042,1892.8401,1053.6525,1899.7614,1051.6288,1895.2313,1046.0183,1888.31,1048.042" style="stroke:#181818;stroke-width:1.0;"/><text fill="#000000" font-family="sans-serif" font-size="13" lengthAdjust="spacing" textLength="73" x="2027" y="1091.0669">raw_stimuli</text><text fill="#000000" font-family="sans-serif" font-size="13" lengthAdjust="spacing" textLength="8" x="1903.8501" y="1068.3415">1</text><text fill="#000000" font-family="sans-serif" font-size="13" lengthAdjust="spacing" textLength="7" x="2324.1411" y="1183.431">*</text></g><!--link Experiment to auditory_tagging--><!--SRC=[nLXRRzis57xNho3I5tcMCkpL20nuYTCPI9qWTheDgQ7I4cCJaIMDf98QRVxx3YyIgOlTj6YtFDWnp_tmE-UGp7914EOeyn0wMu_dyFFir_LuX9OvulY985xWc0GepZCkM1cBdA42CxmZWZ0azWNX0OW-RscyHJiiu5DiYIQW_47zY5FCkPLI0fWHbEK2r9EOFb2IU2HBv0hnFCq_AHEQey_0g_-6yui9OtX__v3cMAn00_omL9g1ChmhKffjeWT6_Yb95clwY-T148zuGz0J9Sz69rv3G3WMnht9Uo2TdLslEM5FX8t7ZkatvpXDyJebz_VAgrM0vdb6LeZdPPP4HOhtX5dk2ngB- -dqKq4OtP5CB0GMaCBhGj0ym-azs5sj4AdfaI2V1FTiBCeNtrKUTDW7bl_DKquJzBaAw0MLHG8MeumyHrpGNPcMtA_-6Q5pHe2QBCp2u6jw4gMeaCQPhxz625Y-AXWvFdEPWoZUucn34X-eU8JQAR8AXqgXrcAO9za-G3G1NWaNy63wBaz8UgTuPlMwLR7EyzJrQKD412X-e0nW2XlXjyqvlC-O2f-J6B85k1fKA99V6YqtV1zlysB_tkAfGJ-_cZL83WHtqkq36ApGvyB-krFHuxRYGnNA9QB7OsiglA9SA7GYlStH5XPojhTG2vK6d-4AMNI4b5I59YWD32KYfMhiHGzOzWrAk66Ug2fQuis6i4j5sw_iReGgOcW5z67_FH7Rh36o0NE0Mbds8vlUDj-t5egLCbNnQXbT09t2yBK7yD-XgcXiurKkCtUWMOKtM6nbkyYPu5526L49jeveQJ-5BzahQuuHaf9NzB4sAJyrDmhByClOPb1xKq5Q3GUS2MxS85cvwyJXk3YRJywNi_TJPs5vUtrn1ulNythnThfOpkPleyLoifn6qx-dY-ZwPdgKVdvrlPXUr1pJlswcjxDtq_aowhLWwMwEjVUz07DYc4__1CkpTtTNTul6uetKUDldWtRq_8_9_ArnygMxjnLot1O09GaLcUyAqLwJw7DsjgxVNCqQtY8jom9cc9gV0T9ZT8N07f7OsnNSyQbsu-It4_HB6AflLROZLU1vezirGU-2iLwhIiIwr9Y7gEGmQ8Hg2H7CMf8wyx2btoctQYcGRLMT8oAidLI-3lfow0_wikYkTlBO8NujaxvRGktqw9IcZPmstVUyVi5Vx5vKYtAqwBQkrR9GiRL4H-YaxiQcgPzKOi2TXqPhksX1hjshJXnpEKIXxTdEeAcdf-C3DGGgOQ_vYUVPSNUQ0dlTHHmEDKJ3LkkfHsazQIHke9STcAeJmwO7JetEDwdSITJSHRGoIAKHJ7uv9DFwP3PiQVBLNWMLmA1cqoTNUvo8rMRuZKxUzahltdsMCvmzhlhgxM1ipKbQnpTqYLrteiwSzjtI2RfvCDEx1_kDoEhTuPoPYdOwWl7xtR9DW6OXp_3DexiXsFCti0Ie-f3dyEQb0Cn56v8HXY4opr4nd2mMjxtRPkCBhF6WgMdGqAIsjx6dJlGsnijNnEZghVXVuzynXmvxL6MzZPGVa_oZsMzQzb-NQ1U_FmkqHxVk5Odgsy5EbFzNM9tJnJodd2nrjsoXCwpdiTnSn0dSoPs8rrH4ppGHMtSn9Tb6R2EWUUsXVWwzVmKzFI5r- -mQFm9rqCaZc3mHNCFoB1bft5c3WVAmrNDRHQbl4b45BxX_WZizLA49MlcXAr_N-pOwgZovVX_DLb_A3oUhGbNBmh6a_1T8QoJf5Z-tODMtC_qYn-VNptFVkPiJOiuG-WwmP5JQDWuDgz_eipm8qLY_AGYz-EtF5AeyvOiN0WrR8L_BAWjmZympWMd6aTXYjCD50J207_c7JBweGQPAd29Z6e6pQyBuXuo3VfLRdThVgH2qt1cb2v8b_RV6S7Q36NHvajx0fL6zrCaVaRn2UXQ_nboKb4oze4JcC3_ii-Ctj0GzmWFFfBzFl7FXx6LIfymwPzMfqMkVhSw-m2crnba_kLjl_NpL9EkdLXF0-D0wcG5B6RQdy17EorTp7kmMHsJQXGS-LoUMizFJjfkGNbs2aE5Bb-_oC5_Fj94I1vrrPMqdaI9jNrrESqjG-NVVvTnrynu7s32lo_QUOufWQ5TyzKGtqgzb0JAFHrA-xYy_zjNBl0tf3cSi-2w9bVAvyiLpl7RlvShHGyI93joz8vRcpjPrgC6ckUmLqddrw-7ht3XrF4ajebfTdg6KPe_rGnbQxr4CVKBUtj37TWe-UcvKuVsM9j12LvsBtxy0]--></g></svg>