<?xml version="1.0" encoding="us-ascii" standalone="no"?><svg xmlns="http://www.w3.org/2000/svg" xmlns:xlink="http://www.w3.org/1999/xlink" contentStyleType="text/css" height="1716px" preserveAspectRatio="none" style="width:2581px;height:1716px;background:#FFFFFF;" version="1.1" viewBox="0 0 2581 1716" width="2581px" zoomAndPan="magnify"><defs/><g><!--cluster view--><g id="cluster_view"><path d="M280.5,965 L317.5,965 A3.75,3.75 0 0 1 320,967.5 L327,987.2969 L797.5,987.2969 A2.5,2.5 0 0 1 800,989.7969 L800,1390 A2.5,2.5 0 0 1 797.5,1392.5 L280.5,1392.5 A2.5,2.5 0 0 1 278,1390 L278,967.5 A2.5,2.5 0 0 1 280.5,965 " fill="none" style="stroke:#000000;stroke-width:1.5;"/><line style="stroke:#000000;stroke-width:1.5;" x1="278" x2="327" y1="987.2969" y2="987.2969"/><text fill="#000000" font-family="sans-serif" font-size="14" font-weight="bold" lengthAdjust="spacing" textLength="36" x="282" y="979.9951">view</text></g><!--cluster model--><g id="cluster_model"><path d="M843.5,981 L893.5,981 A3.75,3.75 0 0 1 896,983.5 L903,1003.2969 L2029.5,1003.2969 A2.5,2.5 0 0 1 2032,1005.7969 L2032,1706.5 A2.5,2.5 0 0 1 2029.5,1709 L843.5,1709 A2.5,2.5 0 0 1 841,1706.5 L841,983.5 A2.5,2.5 0 0 1 843.5,981 " fill="none" style="stroke:#000000;stroke-width:1.5;"/><line style="stroke:#000000;stroke-width:1.5;" x1="841" x2="903" y1="1003.2969" y2="1003.2969"/><text fill="#000000" font-family="sans-serif" font-size="14" font-weight="bold" lengthAdjust="spacing" textLength="49" x="845" y="995.9951">model</text></g><!--cluster constants--><g id="cluster_constants"><path d="M875.5,1464 L959.5,1464 A3.75,3.75 0 0 1 962,1466.5 L969,1486.2969 L1442.5,1486.2969 A2.5,2.5 0 0 1 1445,1488.7969 L1445,1674.5 A2.5,2.5 0 0 1 1442.5,1677 L875.5,1677 A2.5,2.5 0 0 1 873,1674.5 L873,1466.5 A2.5,2.5 0 0 1 875.5,1464 " fill="none" style="stroke:#000000;stroke-width:1.5;"/><line style="stroke:#000000;stroke-width:1.5;" x1="873" x2="969" y1="1486.2969" y2="1486.2969"/><text fill="#000000" font-family="sans-serif" font-size="14" font-weight="bold" lengthAdjust="spacing" textLength="83" x="877" y="1478.9951">constants</text></g><!--cluster auditory_tagging--><g id="cluster_auditory_tagging"><path d="M8.5,6 L148.5,6 A3.75,3.75 0 0 1 151,8.5 L158,28.2969 L2197.5,28.2969 A2.5,2.5 0 0 1 2200,30.7969 L2200,737.5 A2.5,2.5 0 0 1 2197.5,740 L8.5,740 A2.5,2.5 0 0 1 6,737.5 L6,8.5 A2.5,2.5 0 0 1 8.5,6 " fill="none" style="stroke:#000000;stroke-width:1.5;"/><line style="stroke:#000000;stroke-width:1.5;" x1="6" x2="158" y1="28.2969" y2="28.2969"/><text fill="#000000" font-family="sans-serif" font-size="14" font-weight="bold" lengthAdjust="spacing" textLength="139" x="10" y="20.9951">auditory_tagging</text></g><!--class AView--><g id="elem_AView"><rect codeLine="13" fill="#F1F1F1" height="219.2344" id="AView" rx="2.5" ry="2.5" style="stroke:#181818;stroke-width:0.5;" width="489" x="294.5" y="1000"/><ellipse cx="502.75" cy="1020.1328" fill="#A9DCDF" rx="11" ry="11" style="stroke:#181818;stroke-width:1.0;"/><path d="M504.8281,1021.9453 L505.2188,1022.9297 L504.8281,1022.9297 C504.375,1022.9297 504.2656,1022.9453 504.1094,1023.0547 C503.8594,1023.2109 503.7031,1023.4922 503.7031,1023.7891 C503.7031,1024.0547 503.8438,1024.3047 504.0625,1024.4609 C504.2031,1024.5859 504.4063,1024.6328 504.8281,1024.6328 L507.1875,1024.6328 C507.5469,1024.6328 507.7656,1024.6016 507.9063,1024.5078 C508.1563,1024.3672 508.3125,1024.0703 508.3125,1023.7891 C508.3125,1023.5078 508.1719,1023.2578 507.9531,1023.1016 C507.7813,1022.9609 507.625,1022.9297 507.1563,1022.9297 L503.7656,1014.7266 L500.0938,1014.7266 C499.6406,1014.7266 499.5156,1014.7422 499.3594,1014.8359 C499.1094,1015.0078 498.9531,1015.2891 498.9531,1015.5703 C498.9531,1015.8516 499.0938,1016.1016 499.3125,1016.2734 C499.4844,1016.3828 499.6563,1016.4141 500.0938,1016.4141 L501.1719,1016.4141 L498.5313,1022.9297 C498.1094,1022.9297 497.9531,1022.9453 497.7969,1023.0547 C497.5469,1023.2109 497.3906,1023.4922 497.3906,1023.7891 C497.3906,1024.3516 497.7656,1024.6328 498.5156,1024.6328 L500.7813,1024.6328 C501.1406,1024.6328 501.3594,1024.6016 501.4844,1024.5078 C501.75,1024.3672 501.8906,1024.0703 501.8906,1023.7891 C501.8906,1023.5078 501.7656,1023.2578 501.5469,1023.0859 C501.375,1022.9609 501.2344,1022.9297 500.7813,1022.9297 L500.3906,1022.9297 L500.7813,1021.9453 L504.8281,1021.9453 Z M504.125,1020.2422 L501.4531,1020.2422 L502.7969,1016.9766 L504.125,1020.2422 Z " fill="#000000"/><text fill="#000000" font-family="sans-serif" font-size="12" font-style="italic" lengthAdjust="spacing" textLength="68" x="521.25" y="1016.1387">&#171;Observer&#187;</text><text fill="#000000" font-family="sans-serif" font-size="14" font-style="italic" lengthAdjust="spacing" textLength="44" x="533.25" y="1031.9639">AView</text><line style="stroke:#181818;stroke-width:0.5;" x1="295.5" x2="782.5" y1="1040.2656" y2="1040.2656"/><polygon fill="none" points="305.5,1048.9141,309.5,1052.9141,305.5,1056.9141,301.5,1052.9141" style="stroke:#B38D22;stroke-width:1.0;"/><text fill="#000000" font-family="sans-serif" font-size="14" lengthAdjust="spacing" textLength="260" x="314.5" y="1057.2607">Callable[[Audio], None] sound_player</text><polygon fill="none" points="305.5,1065.2109,309.5,1069.2109,305.5,1073.2109,301.5,1069.2109" style="stroke:#B38D22;stroke-width:1.0;"/><text fill="#000000" font-family="sans-serif" font-size="14" lengthAdjust="spacing" textLength="408" x="314.5" y="1073.5576">Dict[EExperimentState, Optional[str]] experiment_texts</text><line style="stroke:#181818;stroke-width:0.5;" x1="295.5" x2="782.5" y1="1080.8594" y2="1080.8594"/><ellipse cx="305.5" cy="1094.5078" fill="#84BE84" rx="3" ry="3" style="stroke:#038048;stroke-width:1.0;"/><text fill="#000000" font-family="sans-serif" font-size="14" lengthAdjust="spacing" textLength="286" x="314.5" y="1097.8545">AView(sound_player, experiment_texts)</text><text fill="#000000" font-family="sans-serif" font-size="14" lengthAdjust="spacing" textLength="4" x="314.5" y="1114.1514">&#160;</text><polygon fill="#FFFF44" points="305.5,1122.1016,309.5,1126.1016,305.5,1130.1016,301.5,1126.1016" style="stroke:#B38D22;stroke-width:1.0;"/><text fill="#000000" font-family="sans-serif" font-size="14" font-style="italic" lengthAdjust="spacing" textLength="382" x="314.5" y="1130.4482">void update_new_stimulus(stimulus: CreatedStimulus)</text><polygon fill="#FFFF44" points="305.5,1138.3984,309.5,1142.3984,305.5,1146.3984,301.5,1142.3984" style="stroke:#B38D22;stroke-width:1.0;"/><text fill="#000000" font-family="sans-serif" font-size="14" font-style="italic" lengthAdjust="spacing" textLength="269" x="314.5" y="1146.7451">void updated_new_primer(primer: str)</text><polygon fill="#FFFF44" points="305.5,1154.6953,309.5,1158.6953,305.5,1162.6953,301.5,1158.6953" style="stroke:#B38D22;stroke-width:1.0;"/><text fill="#000000" font-family="sans-serif" font-size="14" font-style="italic" lengthAdjust="spacing" textLength="463" x="314.5" y="1163.042">void update_experiment_state_changed(data: EExperimentState)</text><ellipse cx="305.5" cy="1175.9922" fill="#84BE84" rx="3" ry="3" style="stroke:#038048;stroke-width:1.0;"/><text fill="#000000" font-family="sans-serif" font-size="14" lengthAdjust="spacing" textLength="413" x="314.5" y="1179.3389">void update(data: Any, identifier: EModelUpdateIdentifier</text><ellipse cx="305.5" cy="1192.2891" fill="#84BE84" rx="3" ry="3" style="stroke:#038048;stroke-width:1.0;"/><text fill="#000000" font-family="sans-serif" font-size="14" font-style="italic" lengthAdjust="spacing" textLength="166" x="314.5" y="1195.6357">bool get_confirmation()</text><ellipse cx="305.5" cy="1208.5859" fill="#84BE84" rx="3" ry="3" style="stroke:#038048;stroke-width:1.0;"/><text fill="#000000" font-family="sans-serif" font-size="14" font-style="italic" lengthAdjust="spacing" textLength="131" x="314.5" y="1211.9326">void wait(secs: int)</text></g><!--class PsychopyView--><g id="elem_PsychopyView"><rect codeLine="27" fill="#F1F1F1" height="48" id="PsychopyView" rx="2.5" ry="2.5" style="stroke:#181818;stroke-width:0.5;" width="134" x="500" y="1328.5"/><ellipse cx="515" cy="1344.5" fill="#ADD1B2" rx="11" ry="11" style="stroke:#181818;stroke-width:1.0;"/><path d="M517.3438,1340.1719 C516.4063,1339.7344 515.8125,1339.5938 514.9375,1339.5938 C512.3125,1339.5938 510.3125,1341.6719 510.3125,1344.3906 L510.3125,1345.5156 C510.3125,1348.0938 512.4219,1349.9844 515.3125,1349.9844 C516.5313,1349.9844 517.6875,1349.6875 518.4375,1349.1406 C519.0156,1348.7344 519.3438,1348.2813 519.3438,1347.8906 C519.3438,1347.4375 518.9531,1347.0469 518.4844,1347.0469 C518.2656,1347.0469 518.0625,1347.125 517.875,1347.3125 C517.4219,1347.7969 517.4219,1347.7969 517.2344,1347.8906 C516.8125,1348.1563 516.125,1348.2813 515.3594,1348.2813 C513.3125,1348.2813 512.0156,1347.1875 512.0156,1345.4844 L512.0156,1344.3906 C512.0156,1342.6094 513.2656,1341.2969 515,1341.2969 C515.5781,1341.2969 516.1875,1341.4531 516.6563,1341.7031 C517.1406,1341.9844 517.3125,1342.2031 517.4063,1342.6094 C517.4688,1343.0156 517.5,1343.1406 517.6406,1343.2656 C517.7813,1343.4063 518.0156,1343.5156 518.2344,1343.5156 C518.5,1343.5156 518.7656,1343.375 518.9375,1343.1563 C519.0469,1343 519.0781,1342.8125 519.0781,1342.3906 L519.0781,1340.9688 C519.0781,1340.5313 519.0625,1340.4063 518.9688,1340.25 C518.8125,1339.9844 518.5313,1339.8438 518.2344,1339.8438 C517.9375,1339.8438 517.7344,1339.9375 517.5156,1340.25 L517.3438,1340.1719 Z " fill="#000000"/><text fill="#000000" font-family="sans-serif" font-size="14" lengthAdjust="spacing" textLength="102" x="529" y="1349.3467">PsychopyView</text><line style="stroke:#181818;stroke-width:0.5;" x1="501" x2="633" y1="1360.5" y2="1360.5"/><line style="stroke:#181818;stroke-width:0.5;" x1="501" x2="633" y1="1368.5" y2="1368.5"/></g><!--class CLIView--><g id="elem_CLIView"><rect codeLine="30" fill="#F1F1F1" height="48" id="CLIView" rx="2.5" ry="2.5" style="stroke:#181818;stroke-width:0.5;" width="88" x="669" y="1328.5"/><ellipse cx="684" cy="1344.5" fill="#ADD1B2" rx="11" ry="11" style="stroke:#181818;stroke-width:1.0;"/><path d="M686.3438,1340.1719 C685.4063,1339.7344 684.8125,1339.5938 683.9375,1339.5938 C681.3125,1339.5938 679.3125,1341.6719 679.3125,1344.3906 L679.3125,1345.5156 C679.3125,1348.0938 681.4219,1349.9844 684.3125,1349.9844 C685.5313,1349.9844 686.6875,1349.6875 687.4375,1349.1406 C688.0156,1348.7344 688.3438,1348.2813 688.3438,1347.8906 C688.3438,1347.4375 687.9531,1347.0469 687.4844,1347.0469 C687.2656,1347.0469 687.0625,1347.125 686.875,1347.3125 C686.4219,1347.7969 686.4219,1347.7969 686.2344,1347.8906 C685.8125,1348.1563 685.125,1348.2813 684.3594,1348.2813 C682.3125,1348.2813 681.0156,1347.1875 681.0156,1345.4844 L681.0156,1344.3906 C681.0156,1342.6094 682.2656,1341.2969 684,1341.2969 C684.5781,1341.2969 685.1875,1341.4531 685.6563,1341.7031 C686.1406,1341.9844 686.3125,1342.2031 686.4063,1342.6094 C686.4688,1343.0156 686.5,1343.1406 686.6406,1343.2656 C686.7813,1343.4063 687.0156,1343.5156 687.2344,1343.5156 C687.5,1343.5156 687.7656,1343.375 687.9375,1343.1563 C688.0469,1343 688.0781,1342.8125 688.0781,1342.3906 L688.0781,1340.9688 C688.0781,1340.5313 688.0625,1340.4063 687.9688,1340.25 C687.8125,1339.9844 687.5313,1339.8438 687.2344,1339.8438 C686.9375,1339.8438 686.7344,1339.9375 686.5156,1340.25 L686.3438,1340.1719 Z " fill="#000000"/><text fill="#000000" font-family="sans-serif" font-size="14" lengthAdjust="spacing" textLength="56" x="698" y="1349.3467">CLIView</text><line style="stroke:#181818;stroke-width:0.5;" x1="670" x2="756" y1="1360.5" y2="1360.5"/><line style="stroke:#181818;stroke-width:0.5;" x1="670" x2="756" y1="1368.5" y2="1368.5"/></g><!--class Model--><g id="elem_Model"><rect codeLine="35" fill="#F1F1F1" height="186.6406" id="Model" rx="2.5" ry="2.5" style="stroke:#181818;stroke-width:0.5;" width="476" x="857" y="1016"/><ellipse cx="1052.25" cy="1036.1328" fill="#ADD1B2" rx="11" ry="11" style="stroke:#181818;stroke-width:1.0;"/><path d="M1054.5938,1031.8047 C1053.6563,1031.3672 1053.0625,1031.2266 1052.1875,1031.2266 C1049.5625,1031.2266 1047.5625,1033.3047 1047.5625,1036.0234 L1047.5625,1037.1484 C1047.5625,1039.7266 1049.6719,1041.6172 1052.5625,1041.6172 C1053.7813,1041.6172 1054.9375,1041.3203 1055.6875,1040.7734 C1056.2656,1040.3672 1056.5938,1039.9141 1056.5938,1039.5234 C1056.5938,1039.0703 1056.2031,1038.6797 1055.7344,1038.6797 C1055.5156,1038.6797 1055.3125,1038.7578 1055.125,1038.9453 C1054.6719,1039.4297 1054.6719,1039.4297 1054.4844,1039.5234 C1054.0625,1039.7891 1053.375,1039.9141 1052.6094,1039.9141 C1050.5625,1039.9141 1049.2656,1038.8203 1049.2656,1037.1172 L1049.2656,1036.0234 C1049.2656,1034.2422 1050.5156,1032.9297 1052.25,1032.9297 C1052.8281,1032.9297 1053.4375,1033.0859 1053.9063,1033.3359 C1054.3906,1033.6172 1054.5625,1033.8359 1054.6563,1034.2422 C1054.7188,1034.6484 1054.75,1034.7734 1054.8906,1034.8984 C1055.0313,1035.0391 1055.2656,1035.1484 1055.4844,1035.1484 C1055.75,1035.1484 1056.0156,1035.0078 1056.1875,1034.7891 C1056.2969,1034.6328 1056.3281,1034.4453 1056.3281,1034.0234 L1056.3281,1032.6016 C1056.3281,1032.1641 1056.3125,1032.0391 1056.2188,1031.8828 C1056.0625,1031.6172 1055.7813,1031.4766 1055.4844,1031.4766 C1055.1875,1031.4766 1054.9844,1031.5703 1054.7656,1031.8828 L1054.5938,1031.8047 Z " fill="#000000"/><text fill="#000000" font-family="sans-serif" font-size="12" font-style="italic" lengthAdjust="spacing" textLength="81" x="1070.75" y="1032.1387">&#171;Observable&#187;</text><text fill="#000000" font-family="sans-serif" font-size="14" lengthAdjust="spacing" textLength="43" x="1089.75" y="1047.9639">Model</text><line style="stroke:#181818;stroke-width:0.5;" x1="858" x2="1332" y1="1056.2656" y2="1056.2656"/><rect fill="none" height="6" style="stroke:#C82930;stroke-width:1.0;" width="6" x="865" y="1066.9141"/><text fill="#000000" font-family="sans-serif" font-size="14" lengthAdjust="spacing" textLength="166" x="877" y="1073.2607">List[str] primer_history</text><rect fill="none" height="6" style="stroke:#C82930;stroke-width:1.0;" width="6" x="865" y="1083.2109"/><text fill="#000000" font-family="sans-serif" font-size="14" lengthAdjust="spacing" textLength="100" x="877" y="1089.5576">Logger logger</text><line style="stroke:#181818;stroke-width:0.5;" x1="858" x2="1332" y1="1096.8594" y2="1096.8594"/><rect fill="#F24D5C" height="6" style="stroke:#C82930;stroke-width:1.0;" width="6" x="865" y="1107.5078"/><text fill="#000000" font-family="sans-serif" font-size="14" lengthAdjust="spacing" textLength="99" x="877" y="1113.8545">Model(logger)</text><rect fill="#F24D5C" height="6" style="stroke:#C82930;stroke-width:1.0;" width="6" x="865" y="1123.8047"/><text fill="#000000" font-family="sans-serif" font-size="14" lengthAdjust="spacing" textLength="410" x="877" y="1130.1514">void notify(data: Any, identifier: EModelUpdateIdentifier)</text><ellipse cx="868" cy="1143.1016" fill="#84BE84" rx="3" ry="3" style="stroke:#038048;stroke-width:1.0;"/><text fill="#000000" font-family="sans-serif" font-size="14" lengthAdjust="spacing" textLength="176" x="877" y="1146.4482">void register(view: View)</text><ellipse cx="868" cy="1159.3984" fill="#84BE84" rx="3" ry="3" style="stroke:#038048;stroke-width:1.0;"/><text fill="#000000" font-family="sans-serif" font-size="14" lengthAdjust="spacing" textLength="326" x="877" y="1162.7451">void new_stimulus(stimulus: CreatedStimulus)</text><ellipse cx="868" cy="1175.6953" fill="#84BE84" rx="3" ry="3" style="stroke:#038048;stroke-width:1.0;"/><text fill="#000000" font-family="sans-serif" font-size="14" lengthAdjust="spacing" textLength="316" x="877" y="1179.042">void new_primer(stimulus: CreatedStimulus)</text><ellipse cx="868" cy="1191.9922" fill="#84BE84" rx="3" ry="3" style="stroke:#038048;stroke-width:1.0;"/><text fill="#000000" font-family="sans-serif" font-size="14" lengthAdjust="spacing" textLength="450" x="877" y="1195.3389">void change_experiment_state(new_state: EExperimentState)</text></g><!--class Stimulus--><g id="elem_Stimulus"><rect codeLine="64" fill="#F1F1F1" height="113.1875" id="Stimulus" rx="2.5" ry="2.5" style="stroke:#181818;stroke-width:0.5;" width="286" x="1698" y="1296"/><ellipse cx="1806.25" cy="1312" fill="#ADD1B2" rx="11" ry="11" style="stroke:#181818;stroke-width:1.0;"/><path d="M1808.5938,1307.6719 C1807.6563,1307.2344 1807.0625,1307.0938 1806.1875,1307.0938 C1803.5625,1307.0938 1801.5625,1309.1719 1801.5625,1311.8906 L1801.5625,1313.0156 C1801.5625,1315.5938 1803.6719,1317.4844 1806.5625,1317.4844 C1807.7813,1317.4844 1808.9375,1317.1875 1809.6875,1316.6406 C1810.2656,1316.2344 1810.5938,1315.7813 1810.5938,1315.3906 C1810.5938,1314.9375 1810.2031,1314.5469 1809.7344,1314.5469 C1809.5156,1314.5469 1809.3125,1314.625 1809.125,1314.8125 C1808.6719,1315.2969 1808.6719,1315.2969 1808.4844,1315.3906 C1808.0625,1315.6563 1807.375,1315.7813 1806.6094,1315.7813 C1804.5625,1315.7813 1803.2656,1314.6875 1803.2656,1312.9844 L1803.2656,1311.8906 C1803.2656,1310.1094 1804.5156,1308.7969 1806.25,1308.7969 C1806.8281,1308.7969 1807.4375,1308.9531 1807.9063,1309.2031 C1808.3906,1309.4844 1808.5625,1309.7031 1808.6563,1310.1094 C1808.7188,1310.5156 1808.75,1310.6406 1808.8906,1310.7656 C1809.0313,1310.9063 1809.2656,1311.0156 1809.4844,1311.0156 C1809.75,1311.0156 1810.0156,1310.875 1810.1875,1310.6563 C1810.2969,1310.5 1810.3281,1310.3125 1810.3281,1309.8906 L1810.3281,1308.4688 C1810.3281,1308.0313 1810.3125,1307.9063 1810.2188,1307.75 C1810.0625,1307.4844 1809.7813,1307.3438 1809.4844,1307.3438 C1809.1875,1307.3438 1808.9844,1307.4375 1808.7656,1307.75 L1808.5938,1307.6719 Z " fill="#000000"/><text fill="#000000" font-family="sans-serif" font-size="14" lengthAdjust="spacing" textLength="61" x="1826.75" y="1316.8467">Stimulus</text><line style="stroke:#181818;stroke-width:0.5;" x1="1699" x2="1983" y1="1328" y2="1328"/><ellipse cx="1709" cy="1341.6484" fill="none" rx="3" ry="3" style="stroke:#038048;stroke-width:1.0;"/><text fill="#000000" font-family="sans-serif" font-size="14" lengthAdjust="spacing" textLength="80" x="1718" y="1344.9951">str prompt</text><ellipse cx="1709" cy="1357.9453" fill="none" rx="3" ry="3" style="stroke:#038048;stroke-width:1.0;"/><text fill="#000000" font-family="sans-serif" font-size="14" lengthAdjust="spacing" textLength="73" x="1718" y="1361.292">str primer</text><ellipse cx="1709" cy="1374.2422" fill="none" rx="3" ry="3" style="stroke:#038048;stroke-width:1.0;"/><text fill="#000000" font-family="sans-serif" font-size="14" lengthAdjust="spacing" textLength="115" x="1718" y="1377.5889">List[str] options</text><ellipse cx="1709" cy="1390.5391" fill="none" rx="3" ry="3" style="stroke:#038048;stroke-width:1.0;"/><text fill="#000000" font-family="sans-serif" font-size="14" lengthAdjust="spacing" textLength="260" x="1718" y="1393.8857">List[Tuple[float, float]] time_stamps</text><line style="stroke:#181818;stroke-width:0.5;" x1="1699" x2="1983" y1="1401.1875" y2="1401.1875"/></g><!--class CreatedStimulus--><g id="elem_CreatedStimulus"><rect codeLine="72" fill="#F1F1F1" height="64.2969" id="CreatedStimulus" rx="2.5" ry="2.5" style="stroke:#181818;stroke-width:0.5;" width="541" x="1474.5" y="1077.5"/><ellipse cx="1681.25" cy="1093.5" fill="#ADD1B2" rx="11" ry="11" style="stroke:#181818;stroke-width:1.0;"/><path d="M1683.5938,1089.1719 C1682.6563,1088.7344 1682.0625,1088.5938 1681.1875,1088.5938 C1678.5625,1088.5938 1676.5625,1090.6719 1676.5625,1093.3906 L1676.5625,1094.5156 C1676.5625,1097.0938 1678.6719,1098.9844 1681.5625,1098.9844 C1682.7813,1098.9844 1683.9375,1098.6875 1684.6875,1098.1406 C1685.2656,1097.7344 1685.5938,1097.2813 1685.5938,1096.8906 C1685.5938,1096.4375 1685.2031,1096.0469 1684.7344,1096.0469 C1684.5156,1096.0469 1684.3125,1096.125 1684.125,1096.3125 C1683.6719,1096.7969 1683.6719,1096.7969 1683.4844,1096.8906 C1683.0625,1097.1563 1682.375,1097.2813 1681.6094,1097.2813 C1679.5625,1097.2813 1678.2656,1096.1875 1678.2656,1094.4844 L1678.2656,1093.3906 C1678.2656,1091.6094 1679.5156,1090.2969 1681.25,1090.2969 C1681.8281,1090.2969 1682.4375,1090.4531 1682.9063,1090.7031 C1683.3906,1090.9844 1683.5625,1091.2031 1683.6563,1091.6094 C1683.7188,1092.0156 1683.75,1092.1406 1683.8906,1092.2656 C1684.0313,1092.4063 1684.2656,1092.5156 1684.4844,1092.5156 C1684.75,1092.5156 1685.0156,1092.375 1685.1875,1092.1563 C1685.2969,1092 1685.3281,1091.8125 1685.3281,1091.3906 L1685.3281,1089.9688 C1685.3281,1089.5313 1685.3125,1089.4063 1685.2188,1089.25 C1685.0625,1088.9844 1684.7813,1088.8438 1684.4844,1088.8438 C1684.1875,1088.8438 1683.9844,1088.9375 1683.7656,1089.25 L1683.5938,1089.1719 Z " fill="#000000"/><text fill="#000000" font-family="sans-serif" font-size="14" lengthAdjust="spacing" textLength="119" x="1701.75" y="1098.3467">CreatedStimulus</text><line style="stroke:#181818;stroke-width:0.5;" x1="1475.5" x2="2014.5" y1="1109.5" y2="1109.5"/><line style="stroke:#181818;stroke-width:0.5;" x1="1475.5" x2="2014.5" y1="1117.5" y2="1117.5"/><text fill="#000000" font-family="sans-serif" font-size="14" lengthAdjust="spacing" textLength="529" x="1480.5" y="1134.4951">CreatedStimulus from_stimulus(stimulus: Stimulus, modified_audio: Audio)</text></g><!--class EExperimentState--><g id="elem_EExperimentState"><rect codeLine="48" fill="#F1F1F1" height="145.7813" id="EExperimentState" rx="2.5" ry="2.5" style="stroke:#181818;stroke-width:0.5;" width="235" x="916.5" y="1507"/><ellipse cx="962.75" cy="1523" fill="#EB937F" rx="11" ry="11" style="stroke:#181818;stroke-width:1.0;"/><path d="M961.5469,1523.875 L963,1523.875 L963,1523.9844 C963,1524.3906 963.0313,1524.5469 963.1094,1524.7031 C963.2656,1524.9531 963.5469,1525.1094 963.8438,1525.1094 C964.0938,1525.1094 964.3594,1524.9688 964.5156,1524.75 C964.6406,1524.5938 964.6719,1524.4375 964.6719,1523.9844 L964.6719,1522.0625 C964.6719,1521.9063 964.6719,1521.8594 964.6563,1521.7031 C964.5938,1521.2344 964.2813,1520.9219 963.8281,1520.9219 C963.5781,1520.9219 963.3125,1521.0625 963.1406,1521.2813 C963.0313,1521.4531 963,1521.6094 963,1522.0625 L963,1522.1875 L961.5469,1522.1875 L961.5469,1519.7813 L965.5313,1519.7813 L965.5313,1520.6406 C965.5313,1521.0469 965.5625,1521.2188 965.6406,1521.375 C965.8125,1521.625 966.0938,1521.7813 966.375,1521.7813 C966.6406,1521.7813 966.9063,1521.6406 967.0781,1521.4219 C967.1875,1521.25 967.2188,1521.1094 967.2188,1520.6406 L967.2188,1518.0938 L959.5938,1518.0938 C959.1563,1518.0938 959.0313,1518.1094 958.875,1518.2031 C958.625,1518.3594 958.4688,1518.6563 958.4688,1518.9375 C958.4688,1519.2188 958.6094,1519.4688 958.8281,1519.6406 C958.9844,1519.75 959.1719,1519.7813 959.5938,1519.7813 L959.8438,1519.7813 L959.8438,1526.2969 L959.5938,1526.2969 C959.1875,1526.2969 959.0313,1526.3125 958.875,1526.4219 C958.625,1526.5938 958.4688,1526.8594 958.4688,1527.1563 C958.4688,1527.4219 958.6094,1527.6719 958.8281,1527.8281 C958.9688,1527.9531 959.2031,1528 959.5938,1528 L967.5938,1528 L967.5938,1525.4219 C967.5938,1524.9844 967.5625,1524.8438 967.4844,1524.6875 C967.3125,1524.4375 967.0313,1524.2813 966.75,1524.2813 C966.4844,1524.2813 966.2188,1524.3906 966.0469,1524.6406 C965.9375,1524.7969 965.9063,1524.9375 965.9063,1525.4219 L965.9063,1526.2969 L961.5469,1526.2969 L961.5469,1523.875 Z " fill="#000000"/><text fill="#000000" font-family="sans-serif" font-size="14" lengthAdjust="spacing" textLength="134" x="983.25" y="1527.8467">EExperimentState</text><line style="stroke:#181818;stroke-width:0.5;" x1="917.5" x2="1150.5" y1="1539" y2="1539"/><text fill="#000000" font-family="sans-serif" font-size="14" lengthAdjust="spacing" textLength="66" x="922.5" y="1555.9951">INACTIVE</text><text fill="#000000" font-family="sans-serif" font-size="14" lengthAdjust="spacing" textLength="108" x="922.5" y="1572.292">INTRODUCTION</text><text fill="#000000" font-family="sans-serif" font-size="14" lengthAdjust="spacing" textLength="204" x="922.5" y="1588.5889">RESTING_STATE_EYES_OPEN</text><text fill="#000000" font-family="sans-serif" font-size="14" lengthAdjust="spacing" textLength="223" x="922.5" y="1604.8857">RESTING_STATE_EYES_CLOSED</text><text fill="#000000" font-family="sans-serif" font-size="14" lengthAdjust="spacing" textLength="206" x="922.5" y="1621.1826">EXPERIMENT_INTRODUCTION</text><text fill="#000000" font-family="sans-serif" font-size="14" lengthAdjust="spacing" textLength="91" x="922.5" y="1637.4795">EXPERIMENT</text><line style="stroke:#181818;stroke-width:0.5;" x1="917.5" x2="1150.5" y1="1644.7813" y2="1644.7813"/></g><!--class EModelUpdateIdentifier--><g id="elem_EModelUpdateIdentifier"><rect codeLine="57" fill="#F1F1F1" height="96.8906" id="EModelUpdateIdentifier" rx="2.5" ry="2.5" style="stroke:#181818;stroke-width:0.5;" width="234" x="1187" y="1531.5"/><ellipse cx="1215.95" cy="1547.5" fill="#EB937F" rx="11" ry="11" style="stroke:#181818;stroke-width:1.0;"/><path d="M1214.7469,1548.375 L1216.2,1548.375 L1216.2,1548.4844 C1216.2,1548.8906 1216.2313,1549.0469 1216.3094,1549.2031 C1216.4656,1549.4531 1216.7469,1549.6094 1217.0438,1549.6094 C1217.2938,1549.6094 1217.5594,1549.4688 1217.7156,1549.25 C1217.8406,1549.0938 1217.8719,1548.9375 1217.8719,1548.4844 L1217.8719,1546.5625 C1217.8719,1546.4063 1217.8719,1546.3594 1217.8563,1546.2031 C1217.7938,1545.7344 1217.4813,1545.4219 1217.0281,1545.4219 C1216.7781,1545.4219 1216.5125,1545.5625 1216.3406,1545.7813 C1216.2313,1545.9531 1216.2,1546.1094 1216.2,1546.5625 L1216.2,1546.6875 L1214.7469,1546.6875 L1214.7469,1544.2813 L1218.7313,1544.2813 L1218.7313,1545.1406 C1218.7313,1545.5469 1218.7625,1545.7188 1218.8406,1545.875 C1219.0125,1546.125 1219.2938,1546.2813 1219.575,1546.2813 C1219.8406,1546.2813 1220.1063,1546.1406 1220.2781,1545.9219 C1220.3875,1545.75 1220.4188,1545.6094 1220.4188,1545.1406 L1220.4188,1542.5938 L1212.7938,1542.5938 C1212.3563,1542.5938 1212.2313,1542.6094 1212.075,1542.7031 C1211.825,1542.8594 1211.6688,1543.1563 1211.6688,1543.4375 C1211.6688,1543.7188 1211.8094,1543.9688 1212.0281,1544.1406 C1212.1844,1544.25 1212.3719,1544.2813 1212.7938,1544.2813 L1213.0438,1544.2813 L1213.0438,1550.7969 L1212.7938,1550.7969 C1212.3875,1550.7969 1212.2313,1550.8125 1212.075,1550.9219 C1211.825,1551.0938 1211.6688,1551.3594 1211.6688,1551.6563 C1211.6688,1551.9219 1211.8094,1552.1719 1212.0281,1552.3281 C1212.1688,1552.4531 1212.4031,1552.5 1212.7938,1552.5 L1220.7938,1552.5 L1220.7938,1549.9219 C1220.7938,1549.4844 1220.7625,1549.3438 1220.6844,1549.1875 C1220.5125,1548.9375 1220.2313,1548.7813 1219.95,1548.7813 C1219.6844,1548.7813 1219.4188,1548.8906 1219.2469,1549.1406 C1219.1375,1549.2969 1219.1063,1549.4375 1219.1063,1549.9219 L1219.1063,1550.7969 L1214.7469,1550.7969 L1214.7469,1548.375 Z " fill="#000000"/><text fill="#000000" font-family="sans-serif" font-size="14" lengthAdjust="spacing" textLength="171" x="1233.05" y="1552.3467">EModelUpdateIdentifier</text><line style="stroke:#181818;stroke-width:0.5;" x1="1188" x2="1420" y1="1563.5" y2="1563.5"/><text fill="#000000" font-family="sans-serif" font-size="14" lengthAdjust="spacing" textLength="109" x="1193" y="1580.4951">NEW_STIMULUS</text><text fill="#000000" font-family="sans-serif" font-size="14" lengthAdjust="spacing" textLength="94" x="1193" y="1596.792">NEW_PRIMER</text><text fill="#000000" font-family="sans-serif" font-size="14" lengthAdjust="spacing" textLength="222" x="1193" y="1613.0889">EXPERIMENT_STATE_CHANGED</text><line style="stroke:#181818;stroke-width:0.5;" x1="1188" x2="1420" y1="1620.3906" y2="1620.3906"/></g><!--class AAuditoryTagger--><g id="elem_AAuditoryTagger"><rect codeLine="89" fill="#F1F1F1" height="96.8906" id="AAuditoryTagger" rx="2.5" ry="2.5" style="stroke:#181818;stroke-width:0.5;" width="273" x="1093.5" y="41"/><ellipse cx="1165.25" cy="57" fill="#A9DCDF" rx="11" ry="11" style="stroke:#181818;stroke-width:1.0;"/><path d="M1167.3281,58.8125 L1167.7188,59.7969 L1167.3281,59.7969 C1166.875,59.7969 1166.7656,59.8125 1166.6094,59.9219 C1166.3594,60.0781 1166.2031,60.3594 1166.2031,60.6563 C1166.2031,60.9219 1166.3438,61.1719 1166.5625,61.3281 C1166.7031,61.4531 1166.9063,61.5 1167.3281,61.5 L1169.6875,61.5 C1170.0469,61.5 1170.2656,61.4688 1170.4063,61.375 C1170.6563,61.2344 1170.8125,60.9375 1170.8125,60.6563 C1170.8125,60.375 1170.6719,60.125 1170.4531,59.9688 C1170.2813,59.8281 1170.125,59.7969 1169.6563,59.7969 L1166.2656,51.5938 L1162.5938,51.5938 C1162.1406,51.5938 1162.0156,51.6094 1161.8594,51.7031 C1161.6094,51.875 1161.4531,52.1563 1161.4531,52.4375 C1161.4531,52.7188 1161.5938,52.9688 1161.8125,53.1406 C1161.9844,53.25 1162.1563,53.2813 1162.5938,53.2813 L1163.6719,53.2813 L1161.0313,59.7969 C1160.6094,59.7969 1160.4531,59.8125 1160.2969,59.9219 C1160.0469,60.0781 1159.8906,60.3594 1159.8906,60.6563 C1159.8906,61.2188 1160.2656,61.5 1161.0156,61.5 L1163.2813,61.5 C1163.6406,61.5 1163.8594,61.4688 1163.9844,61.375 C1164.25,61.2344 1164.3906,60.9375 1164.3906,60.6563 C1164.3906,60.375 1164.2656,60.125 1164.0469,59.9531 C1163.875,59.8281 1163.7344,59.7969 1163.2813,59.7969 L1162.8906,59.7969 L1163.2813,58.8125 L1167.3281,58.8125 Z M1166.625,57.1094 L1163.9531,57.1094 L1165.2969,53.8438 L1166.625,57.1094 Z " fill="#000000"/><text fill="#000000" font-family="sans-serif" font-size="14" font-style="italic" lengthAdjust="spacing" textLength="121" x="1185.75" y="61.8467">AAuditoryTagger</text><line style="stroke:#181818;stroke-width:0.5;" x1="1094.5" x2="1365.5" y1="73" y2="73"/><polygon fill="none" points="1104.5,81.6484,1108.5,85.6484,1104.5,89.6484,1100.5,85.6484" style="stroke:#B38D22;stroke-width:1.0;"/><text fill="#000000" font-family="sans-serif" font-size="14" lengthAdjust="spacing" textLength="247" x="1113.5" y="89.9951">list[ [float, float] ] stimuli_intervals</text><line style="stroke:#181818;stroke-width:0.5;" x1="1094.5" x2="1365.5" y1="97.2969" y2="97.2969"/><ellipse cx="1104.5" cy="110.9453" fill="#84BE84" rx="3" ry="3" style="stroke:#038048;stroke-width:1.0;"/><text fill="#000000" font-family="sans-serif" font-size="14" lengthAdjust="spacing" textLength="225" x="1113.5" y="114.292">AAuditoryTagger(audio, stimuli)</text><ellipse cx="1104.5" cy="127.2422" fill="#84BE84" rx="3" ry="3" style="stroke:#038048;stroke-width:1.0;"/><text fill="#000000" font-family="sans-serif" font-size="14" font-style="italic" lengthAdjust="spacing" textLength="90" x="1113.5" y="130.5889">void create()</text></g><!--class AAudioTaggerFactory--><g id="elem_AAudioTaggerFactory"><rect codeLine="99" fill="#F1F1F1" height="64.2969" id="AAudioTaggerFactory" rx="2.5" ry="2.5" style="stroke:#181818;stroke-width:0.5;" width="693" x="751.5" y="660"/><ellipse cx="1016.25" cy="676" fill="#A9DCDF" rx="11" ry="11" style="stroke:#181818;stroke-width:1.0;"/><path d="M1018.3281,677.8125 L1018.7188,678.7969 L1018.3281,678.7969 C1017.875,678.7969 1017.7656,678.8125 1017.6094,678.9219 C1017.3594,679.0781 1017.2031,679.3594 1017.2031,679.6563 C1017.2031,679.9219 1017.3438,680.1719 1017.5625,680.3281 C1017.7031,680.4531 1017.9063,680.5 1018.3281,680.5 L1020.6875,680.5 C1021.0469,680.5 1021.2656,680.4688 1021.4063,680.375 C1021.6563,680.2344 1021.8125,679.9375 1021.8125,679.6563 C1021.8125,679.375 1021.6719,679.125 1021.4531,678.9688 C1021.2813,678.8281 1021.125,678.7969 1020.6563,678.7969 L1017.2656,670.5938 L1013.5938,670.5938 C1013.1406,670.5938 1013.0156,670.6094 1012.8594,670.7031 C1012.6094,670.875 1012.4531,671.1563 1012.4531,671.4375 C1012.4531,671.7188 1012.5938,671.9688 1012.8125,672.1406 C1012.9844,672.25 1013.1563,672.2813 1013.5938,672.2813 L1014.6719,672.2813 L1012.0313,678.7969 C1011.6094,678.7969 1011.4531,678.8125 1011.2969,678.9219 C1011.0469,679.0781 1010.8906,679.3594 1010.8906,679.6563 C1010.8906,680.2188 1011.2656,680.5 1012.0156,680.5 L1014.2813,680.5 C1014.6406,680.5 1014.8594,680.4688 1014.9844,680.375 C1015.25,680.2344 1015.3906,679.9375 1015.3906,679.6563 C1015.3906,679.375 1015.2656,679.125 1015.0469,678.9531 C1014.875,678.8281 1014.7344,678.7969 1014.2813,678.7969 L1013.8906,678.7969 L1014.2813,677.8125 L1018.3281,677.8125 Z M1017.625,676.1094 L1014.9531,676.1094 L1016.2969,672.8438 L1017.625,676.1094 Z " fill="#000000"/><text fill="#000000" font-family="sans-serif" font-size="14" font-style="italic" lengthAdjust="spacing" textLength="155" x="1036.75" y="680.8467">AAudioTaggerFactory</text><line style="stroke:#181818;stroke-width:0.5;" x1="752.5" x2="1443.5" y1="692" y2="692"/><line style="stroke:#181818;stroke-width:0.5;" x1="752.5" x2="1443.5" y1="700" y2="700"/><ellipse cx="762.5" cy="713.6484" fill="#84BE84" rx="3" ry="3" style="stroke:#038048;stroke-width:1.0;"/><text fill="#000000" font-family="sans-serif" font-size="14" font-style="italic" lengthAdjust="spacing" textLength="667" x="771.5" y="716.9951">AAudioTagger create_auditory_stimulus(audio: Audio, stimuli_intervals: List[Tuple[float, float])</text></g><!--class ASSRTagger--><g id="elem_ASSRTagger"><rect codeLine="104" fill="#F1F1F1" height="129.4844" id="ASSRTagger" rx="2.5" ry="2.5" style="stroke:#181818;stroke-width:0.5;" width="602" x="146" y="223.5"/><ellipse cx="398.75" cy="239.5" fill="#ADD1B2" rx="11" ry="11" style="stroke:#181818;stroke-width:1.0;"/><path d="M401.0938,235.1719 C400.1563,234.7344 399.5625,234.5938 398.6875,234.5938 C396.0625,234.5938 394.0625,236.6719 394.0625,239.3906 L394.0625,240.5156 C394.0625,243.0938 396.1719,244.9844 399.0625,244.9844 C400.2813,244.9844 401.4375,244.6875 402.1875,244.1406 C402.7656,243.7344 403.0938,243.2813 403.0938,242.8906 C403.0938,242.4375 402.7031,242.0469 402.2344,242.0469 C402.0156,242.0469 401.8125,242.125 401.625,242.3125 C401.1719,242.7969 401.1719,242.7969 400.9844,242.8906 C400.5625,243.1563 399.875,243.2813 399.1094,243.2813 C397.0625,243.2813 395.7656,242.1875 395.7656,240.4844 L395.7656,239.3906 C395.7656,237.6094 397.0156,236.2969 398.75,236.2969 C399.3281,236.2969 399.9375,236.4531 400.4063,236.7031 C400.8906,236.9844 401.0625,237.2031 401.1563,237.6094 C401.2188,238.0156 401.25,238.1406 401.3906,238.2656 C401.5313,238.4063 401.7656,238.5156 401.9844,238.5156 C402.25,238.5156 402.5156,238.375 402.6875,238.1563 C402.7969,238 402.8281,237.8125 402.8281,237.3906 L402.8281,235.9688 C402.8281,235.5313 402.8125,235.4063 402.7188,235.25 C402.5625,234.9844 402.2813,234.8438 401.9844,234.8438 C401.6875,234.8438 401.4844,234.9375 401.2656,235.25 L401.0938,235.1719 Z " fill="#000000"/><text fill="#000000" font-family="sans-serif" font-size="14" lengthAdjust="spacing" textLength="88" x="419.25" y="244.3467">ASSRTagger</text><line style="stroke:#181818;stroke-width:0.5;" x1="147" x2="747" y1="255.5" y2="255.5"/><rect fill="none" height="6" style="stroke:#C82930;stroke-width:1.0;" width="6" x="154" y="266.1484"/><text fill="#000000" font-family="sans-serif" font-size="14" lengthAdjust="spacing" textLength="96" x="166" y="272.4951">int frequency</text><rect fill="none" height="6" style="stroke:#C82930;stroke-width:1.0;" width="6" x="154" y="282.4453"/><text fill="#000000" font-family="sans-serif" font-size="14" lengthAdjust="spacing" textLength="408" x="166" y="288.792">Callable[[int, int, int], NDArray[float] stimulus_generation</text><rect fill="none" height="6" style="stroke:#C82930;stroke-width:1.0;" width="6" x="154" y="298.7422"/><text fill="#000000" font-family="sans-serif" font-size="14" lengthAdjust="spacing" textLength="503" x="166" y="305.0889">Callable[[NDArray[float], NDArray[Number]], NDArray[float]] modulator</text><line style="stroke:#181818;stroke-width:0.5;" x1="147" x2="747" y1="312.3906" y2="312.3906"/><ellipse cx="157" cy="326.0391" fill="#84BE84" rx="3" ry="3" style="stroke:#038048;stroke-width:1.0;"/><text fill="#000000" font-family="sans-serif" font-size="14" lengthAdjust="spacing" textLength="576" x="166" y="329.3857">ASSRTagger(audio, stimuli_intervals, frequency, stimulus_generation, modulator)</text><ellipse cx="157" cy="342.3359" fill="#84BE84" rx="3" ry="3" style="stroke:#038048;stroke-width:1.0;"/><text fill="#000000" font-family="sans-serif" font-size="14" lengthAdjust="spacing" textLength="91" x="166" y="345.6826">void create()</text></g><!--class ASSRTaggerFactory--><g id="elem_ASSRTaggerFactory"><rect codeLine="113" fill="#F1F1F1" height="129.4844" id="ASSRTaggerFactory" rx="2.5" ry="2.5" style="stroke:#181818;stroke-width:0.5;" width="697" x="22.5" y="454"/><ellipse cx="295.75" cy="470" fill="#ADD1B2" rx="11" ry="11" style="stroke:#181818;stroke-width:1.0;"/><path d="M298.0938,465.6719 C297.1563,465.2344 296.5625,465.0938 295.6875,465.0938 C293.0625,465.0938 291.0625,467.1719 291.0625,469.8906 L291.0625,471.0156 C291.0625,473.5938 293.1719,475.4844 296.0625,475.4844 C297.2813,475.4844 298.4375,475.1875 299.1875,474.6406 C299.7656,474.2344 300.0938,473.7813 300.0938,473.3906 C300.0938,472.9375 299.7031,472.5469 299.2344,472.5469 C299.0156,472.5469 298.8125,472.625 298.625,472.8125 C298.1719,473.2969 298.1719,473.2969 297.9844,473.3906 C297.5625,473.6563 296.875,473.7813 296.1094,473.7813 C294.0625,473.7813 292.7656,472.6875 292.7656,470.9844 L292.7656,469.8906 C292.7656,468.1094 294.0156,466.7969 295.75,466.7969 C296.3281,466.7969 296.9375,466.9531 297.4063,467.2031 C297.8906,467.4844 298.0625,467.7031 298.1563,468.1094 C298.2188,468.5156 298.25,468.6406 298.3906,468.7656 C298.5313,468.9063 298.7656,469.0156 298.9844,469.0156 C299.25,469.0156 299.5156,468.875 299.6875,468.6563 C299.7969,468.5 299.8281,468.3125 299.8281,467.8906 L299.8281,466.4688 C299.8281,466.0313 299.8125,465.9063 299.7188,465.75 C299.5625,465.4844 299.2813,465.3438 298.9844,465.3438 C298.6875,465.3438 298.4844,465.4375 298.2656,465.75 L298.0938,465.6719 Z " fill="#000000"/><text fill="#000000" font-family="sans-serif" font-size="14" lengthAdjust="spacing" textLength="142" x="316.25" y="474.8467">ASSRTaggerFactory</text><line style="stroke:#181818;stroke-width:0.5;" x1="23.5" x2="718.5" y1="486" y2="486"/><rect fill="none" height="6" style="stroke:#C82930;stroke-width:1.0;" width="6" x="30.5" y="496.6484"/><text fill="#000000" font-family="sans-serif" font-size="14" lengthAdjust="spacing" textLength="96" x="42.5" y="502.9951">int frequency</text><rect fill="none" height="6" style="stroke:#C82930;stroke-width:1.0;" width="6" x="30.5" y="512.9453"/><text fill="#000000" font-family="sans-serif" font-size="14" lengthAdjust="spacing" textLength="406" x="42.5" y="519.292">Callable[[int, int, int], NDArray[float]] stimulus_generator</text><rect fill="none" height="6" style="stroke:#C82930;stroke-width:1.0;" width="6" x="30.5" y="529.2422"/><text fill="#000000" font-family="sans-serif" font-size="14" lengthAdjust="spacing" textLength="503" x="42.5" y="535.5889">Callable[[NDArray[float], NDArray[Number]], NDArray[float]] modulator</text><line style="stroke:#181818;stroke-width:0.5;" x1="23.5" x2="718.5" y1="542.8906" y2="542.8906"/><ellipse cx="33.5" cy="556.5391" fill="#84BE84" rx="3" ry="3" style="stroke:#038048;stroke-width:1.0;"/><text fill="#000000" font-family="sans-serif" font-size="14" lengthAdjust="spacing" textLength="459" x="42.5" y="559.8857">ASSRTaggerFactory(frequency, stimulus_generation, modulator)</text><ellipse cx="33.5" cy="572.8359" fill="#84BE84" rx="3" ry="3" style="stroke:#038048;stroke-width:1.0;"/><text fill="#000000" font-family="sans-serif" font-size="14" lengthAdjust="spacing" textLength="671" x="42.5" y="576.1826">AAudioTagger create_auditory_stimulus(audio: Audio, stimuli_intervals: List[Tuple[float, float])</text></g><!--class NoiseTaggingTagger--><g id="elem_NoiseTaggingTagger"><rect codeLine="121" fill="#F1F1F1" height="178.375" id="NoiseTaggingTagger" rx="2.5" ry="2.5" style="stroke:#181818;stroke-width:0.5;" width="625" x="819.5" y="199"/><ellipse cx="1054.75" cy="215" fill="#ADD1B2" rx="11" ry="11" style="stroke:#181818;stroke-width:1.0;"/><path d="M1057.0938,210.6719 C1056.1563,210.2344 1055.5625,210.0938 1054.6875,210.0938 C1052.0625,210.0938 1050.0625,212.1719 1050.0625,214.8906 L1050.0625,216.0156 C1050.0625,218.5938 1052.1719,220.4844 1055.0625,220.4844 C1056.2813,220.4844 1057.4375,220.1875 1058.1875,219.6406 C1058.7656,219.2344 1059.0938,218.7813 1059.0938,218.3906 C1059.0938,217.9375 1058.7031,217.5469 1058.2344,217.5469 C1058.0156,217.5469 1057.8125,217.625 1057.625,217.8125 C1057.1719,218.2969 1057.1719,218.2969 1056.9844,218.3906 C1056.5625,218.6563 1055.875,218.7813 1055.1094,218.7813 C1053.0625,218.7813 1051.7656,217.6875 1051.7656,215.9844 L1051.7656,214.8906 C1051.7656,213.1094 1053.0156,211.7969 1054.75,211.7969 C1055.3281,211.7969 1055.9375,211.9531 1056.4063,212.2031 C1056.8906,212.4844 1057.0625,212.7031 1057.1563,213.1094 C1057.2188,213.5156 1057.25,213.6406 1057.3906,213.7656 C1057.5313,213.9063 1057.7656,214.0156 1057.9844,214.0156 C1058.25,214.0156 1058.5156,213.875 1058.6875,213.6563 C1058.7969,213.5 1058.8281,213.3125 1058.8281,212.8906 L1058.8281,211.4688 C1058.8281,211.0313 1058.8125,210.9063 1058.7188,210.75 C1058.5625,210.4844 1058.2813,210.3438 1057.9844,210.3438 C1057.6875,210.3438 1057.4844,210.4375 1057.2656,210.75 L1057.0938,210.6719 Z " fill="#000000"/><text fill="#000000" font-family="sans-serif" font-size="14" lengthAdjust="spacing" textLength="146" x="1075.25" y="219.8467">NoiseTaggingTagger</text><line style="stroke:#181818;stroke-width:0.5;" x1="820.5" x2="1443.5" y1="231" y2="231"/><rect fill="none" height="6" style="stroke:#C82930;stroke-width:1.0;" width="6" x="827.5" y="241.6484"/><text fill="#000000" font-family="sans-serif" font-size="14" lengthAdjust="spacing" textLength="130" x="839.5" y="247.9951">Optional[int] seed</text><rect fill="none" height="6" style="stroke:#C82930;stroke-width:1.0;" width="6" x="827.5" y="257.9453"/><text fill="#000000" font-family="sans-serif" font-size="14" lengthAdjust="spacing" textLength="92" x="839.5" y="264.292">int bit_width</text><rect fill="none" height="6" style="stroke:#C82930;stroke-width:1.0;" width="6" x="827.5" y="274.2422"/><text fill="#000000" font-family="sans-serif" font-size="14" lengthAdjust="spacing" textLength="99" x="839.5" y="280.5889">int length_bit</text><ellipse cx="830.5" cy="293.5391" fill="none" rx="3" ry="3" style="stroke:#038048;stroke-width:1.0;"/><text fill="#000000" font-family="sans-serif" font-size="14" lengthAdjust="spacing" textLength="148" x="839.5" y="296.8857">Optional[Code] code</text><line style="stroke:#181818;stroke-width:0.5;" x1="820.5" x2="1443.5" y1="304.1875" y2="304.1875"/><ellipse cx="830.5" cy="317.8359" fill="#84BE84" rx="3" ry="3" style="stroke:#038048;stroke-width:1.0;"/><text fill="#000000" font-family="sans-serif" font-size="14" lengthAdjust="spacing" textLength="599" x="839.5" y="321.1826">NoiseTaggingTagger(audio, stimuli_intervals, bits_per_second: int, length_bit, seed)</text><ellipse cx="830.5" cy="334.1328" fill="#84BE84" rx="3" ry="3" style="stroke:#038048;stroke-width:1.0;"/><text fill="#000000" font-family="sans-serif" font-size="14" lengthAdjust="spacing" textLength="91" x="839.5" y="337.4795">void create()</text><rect fill="#F24D5C" height="6" style="stroke:#C82930;stroke-width:1.0;" width="6" x="827.5" y="347.4297"/><text fill="#000000" font-family="sans-serif" font-size="14" lengthAdjust="spacing" textLength="166" x="839.5" y="353.7764">void __generate_code()</text><rect fill="#F24D5C" height="6" style="stroke:#C82930;stroke-width:1.0;" width="6" x="827.5" y="363.7266"/><text fill="#000000" font-family="sans-serif" font-size="14" lengthAdjust="spacing" textLength="201" x="839.5" y="370.0732">void __get_code(length: int)</text></g><!--class NoiseTaggingTaggerFactory--><g id="elem_NoiseTaggingTaggerFactory"><rect codeLine="133" fill="#F1F1F1" height="129.4844" id="NoiseTaggingTaggerFactory" rx="2.5" ry="2.5" style="stroke:#181818;stroke-width:0.5;" width="697" x="754.5" y="454"/><ellipse cx="998.75" cy="470" fill="#ADD1B2" rx="11" ry="11" style="stroke:#181818;stroke-width:1.0;"/><path d="M1001.0938,465.6719 C1000.1563,465.2344 999.5625,465.0938 998.6875,465.0938 C996.0625,465.0938 994.0625,467.1719 994.0625,469.8906 L994.0625,471.0156 C994.0625,473.5938 996.1719,475.4844 999.0625,475.4844 C1000.2813,475.4844 1001.4375,475.1875 1002.1875,474.6406 C1002.7656,474.2344 1003.0938,473.7813 1003.0938,473.3906 C1003.0938,472.9375 1002.7031,472.5469 1002.2344,472.5469 C1002.0156,472.5469 1001.8125,472.625 1001.625,472.8125 C1001.1719,473.2969 1001.1719,473.2969 1000.9844,473.3906 C1000.5625,473.6563 999.875,473.7813 999.1094,473.7813 C997.0625,473.7813 995.7656,472.6875 995.7656,470.9844 L995.7656,469.8906 C995.7656,468.1094 997.0156,466.7969 998.75,466.7969 C999.3281,466.7969 999.9375,466.9531 1000.4063,467.2031 C1000.8906,467.4844 1001.0625,467.7031 1001.1563,468.1094 C1001.2188,468.5156 1001.25,468.6406 1001.3906,468.7656 C1001.5313,468.9063 1001.7656,469.0156 1001.9844,469.0156 C1002.25,469.0156 1002.5156,468.875 1002.6875,468.6563 C1002.7969,468.5 1002.8281,468.3125 1002.8281,467.8906 L1002.8281,466.4688 C1002.8281,466.0313 1002.8125,465.9063 1002.7188,465.75 C1002.5625,465.4844 1002.2813,465.3438 1001.9844,465.3438 C1001.6875,465.3438 1001.4844,465.4375 1001.2656,465.75 L1001.0938,465.6719 Z " fill="#000000"/><text fill="#000000" font-family="sans-serif" font-size="14" lengthAdjust="spacing" textLength="200" x="1019.25" y="474.8467">NoiseTaggingTaggerFactory</text><line style="stroke:#181818;stroke-width:0.5;" x1="755.5" x2="1450.5" y1="486" y2="486"/><rect fill="none" height="6" style="stroke:#C82930;stroke-width:1.0;" width="6" x="762.5" y="496.6484"/><text fill="#000000" font-family="sans-serif" font-size="14" lengthAdjust="spacing" textLength="142" x="774.5" y="502.9951">int bits_per_second</text><rect fill="none" height="6" style="stroke:#C82930;stroke-width:1.0;" width="6" x="762.5" y="512.9453"/><text fill="#000000" font-family="sans-serif" font-size="14" lengthAdjust="spacing" textLength="99" x="774.5" y="519.292">int length_bit</text><rect fill="none" height="6" style="stroke:#C82930;stroke-width:1.0;" width="6" x="762.5" y="529.2422"/><text fill="#000000" font-family="sans-serif" font-size="14" lengthAdjust="spacing" textLength="130" x="774.5" y="535.5889">Optional[int] seed</text><line style="stroke:#181818;stroke-width:0.5;" x1="755.5" x2="1450.5" y1="542.8906" y2="542.8906"/><ellipse cx="765.5" cy="556.5391" fill="#84BE84" rx="3" ry="3" style="stroke:#038048;stroke-width:1.0;"/><text fill="#000000" font-family="sans-serif" font-size="14" lengthAdjust="spacing" textLength="453" x="774.5" y="559.8857">NoiseTaggingTaggerFactory(bits_per_second, length_bit, seed)</text><ellipse cx="765.5" cy="572.8359" fill="#84BE84" rx="3" ry="3" style="stroke:#038048;stroke-width:1.0;"/><text fill="#000000" font-family="sans-serif" font-size="14" lengthAdjust="spacing" textLength="671" x="774.5" y="576.1826">AAudioTagger create_auditory_stimulus(audio: Audio, stimuli_intervals: List[Tuple[float, float])</text></g><!--class RawTagger--><g id="elem_RawTagger"><rect codeLine="142" fill="#F1F1F1" height="64.2969" id="RawTagger" rx="2.5" ry="2.5" style="stroke:#181818;stroke-width:0.5;" width="117" x="1718.5" y="256"/><ellipse cx="1736.2" cy="272" fill="#ADD1B2" rx="11" ry="11" style="stroke:#181818;stroke-width:1.0;"/><path d="M1738.5438,267.6719 C1737.6063,267.2344 1737.0125,267.0938 1736.1375,267.0938 C1733.5125,267.0938 1731.5125,269.1719 1731.5125,271.8906 L1731.5125,273.0156 C1731.5125,275.5938 1733.6219,277.4844 1736.5125,277.4844 C1737.7313,277.4844 1738.8875,277.1875 1739.6375,276.6406 C1740.2156,276.2344 1740.5438,275.7813 1740.5438,275.3906 C1740.5438,274.9375 1740.1531,274.5469 1739.6844,274.5469 C1739.4656,274.5469 1739.2625,274.625 1739.075,274.8125 C1738.6219,275.2969 1738.6219,275.2969 1738.4344,275.3906 C1738.0125,275.6563 1737.325,275.7813 1736.5594,275.7813 C1734.5125,275.7813 1733.2156,274.6875 1733.2156,272.9844 L1733.2156,271.8906 C1733.2156,270.1094 1734.4656,268.7969 1736.2,268.7969 C1736.7781,268.7969 1737.3875,268.9531 1737.8563,269.2031 C1738.3406,269.4844 1738.5125,269.7031 1738.6063,270.1094 C1738.6688,270.5156 1738.7,270.6406 1738.8406,270.7656 C1738.9813,270.9063 1739.2156,271.0156 1739.4344,271.0156 C1739.7,271.0156 1739.9656,270.875 1740.1375,270.6563 C1740.2469,270.5 1740.2781,270.3125 1740.2781,269.8906 L1740.2781,268.4688 C1740.2781,268.0313 1740.2625,267.9063 1740.1688,267.75 C1740.0125,267.4844 1739.7313,267.3438 1739.4344,267.3438 C1739.1375,267.3438 1738.9344,267.4375 1738.7156,267.75 L1738.5438,267.6719 Z " fill="#000000"/><text fill="#000000" font-family="sans-serif" font-size="14" lengthAdjust="spacing" textLength="79" x="1750.8" y="276.8467">RawTagger</text><line style="stroke:#181818;stroke-width:0.5;" x1="1719.5" x2="1834.5" y1="288" y2="288"/><line style="stroke:#181818;stroke-width:0.5;" x1="1719.5" x2="1834.5" y1="296" y2="296"/><ellipse cx="1729.5" cy="309.6484" fill="#84BE84" rx="3" ry="3" style="stroke:#038048;stroke-width:1.0;"/><text fill="#000000" font-family="sans-serif" font-size="14" lengthAdjust="spacing" textLength="91" x="1738.5" y="312.9951">void create()</text></g><!--class RawTaggerFactory--><g id="elem_RawTaggerFactory"><rect codeLine="146" fill="#F1F1F1" height="64.2969" id="RawTaggerFactory" rx="2.5" ry="2.5" style="stroke:#181818;stroke-width:0.5;" width="697" x="1486.5" y="486.5"/><ellipse cx="1764.25" cy="502.5" fill="#ADD1B2" rx="11" ry="11" style="stroke:#181818;stroke-width:1.0;"/><path d="M1766.5938,498.1719 C1765.6563,497.7344 1765.0625,497.5938 1764.1875,497.5938 C1761.5625,497.5938 1759.5625,499.6719 1759.5625,502.3906 L1759.5625,503.5156 C1759.5625,506.0938 1761.6719,507.9844 1764.5625,507.9844 C1765.7813,507.9844 1766.9375,507.6875 1767.6875,507.1406 C1768.2656,506.7344 1768.5938,506.2813 1768.5938,505.8906 C1768.5938,505.4375 1768.2031,505.0469 1767.7344,505.0469 C1767.5156,505.0469 1767.3125,505.125 1767.125,505.3125 C1766.6719,505.7969 1766.6719,505.7969 1766.4844,505.8906 C1766.0625,506.1563 1765.375,506.2813 1764.6094,506.2813 C1762.5625,506.2813 1761.2656,505.1875 1761.2656,503.4844 L1761.2656,502.3906 C1761.2656,500.6094 1762.5156,499.2969 1764.25,499.2969 C1764.8281,499.2969 1765.4375,499.4531 1765.9063,499.7031 C1766.3906,499.9844 1766.5625,500.2031 1766.6563,500.6094 C1766.7188,501.0156 1766.75,501.1406 1766.8906,501.2656 C1767.0313,501.4063 1767.2656,501.5156 1767.4844,501.5156 C1767.75,501.5156 1768.0156,501.375 1768.1875,501.1563 C1768.2969,501 1768.3281,500.8125 1768.3281,500.3906 L1768.3281,498.9688 C1768.3281,498.5313 1768.3125,498.4063 1768.2188,498.25 C1768.0625,497.9844 1767.7813,497.8438 1767.4844,497.8438 C1767.1875,497.8438 1766.9844,497.9375 1766.7656,498.25 L1766.5938,498.1719 Z " fill="#000000"/><text fill="#000000" font-family="sans-serif" font-size="14" lengthAdjust="spacing" textLength="133" x="1784.75" y="507.3467">RawTaggerFactory</text><line style="stroke:#181818;stroke-width:0.5;" x1="1487.5" x2="2182.5" y1="518.5" y2="518.5"/><line style="stroke:#181818;stroke-width:0.5;" x1="1487.5" x2="2182.5" y1="526.5" y2="526.5"/><ellipse cx="1497.5" cy="540.1484" fill="#84BE84" rx="3" ry="3" style="stroke:#038048;stroke-width:1.0;"/><text fill="#000000" font-family="sans-serif" font-size="14" lengthAdjust="spacing" textLength="671" x="1506.5" y="543.4951">AAudioTagger create_auditory_stimulus(audio: Audio, stimuli_intervals: List[Tuple[float, float])</text></g><g id="elem_n"><path d="M2216,62 L2216,117.3984 L2574,117.3984 L2574,72 L2564,62 L2216,62 " fill="#FEFFDD" style="stroke:#181818;stroke-width:0.5;"/><path d="M2564,62 L2564,72 L2574,72 L2564,62 " fill="#FEFFDD" style="stroke:#181818;stroke-width:1.0;"/><text fill="#000000" font-family="sans-serif" font-size="13" font-weight="bold" lengthAdjust="spacing" textLength="38" x="2222" y="79.0669">Note</text><text fill="#000000" font-family="sans-serif" font-size="13" lengthAdjust="spacing" textLength="299" x="2260" y="79.0669">: To save space, constructor parameter types,</text><text fill="#000000" font-family="sans-serif" font-size="13" lengthAdjust="spacing" textLength="308" x="2222" y="94.1997">which match the types of the class parameters,</text><text fill="#000000" font-family="sans-serif" font-size="13" lengthAdjust="spacing" textLength="107" x="2222" y="109.3325">are not specified</text></g><!--class Audio--><g id="elem_Audio"><rect codeLine="7" fill="#F1F1F1" height="80.5938" id="Audio" rx="2.5" ry="2.5" style="stroke:#181818;stroke-width:0.5;" width="194" x="2150" y="1069"/><ellipse cx="2222.75" cy="1085" fill="#ADD1B2" rx="11" ry="11" style="stroke:#181818;stroke-width:1.0;"/><path d="M2225.0938,1080.6719 C2224.1563,1080.2344 2223.5625,1080.0938 2222.6875,1080.0938 C2220.0625,1080.0938 2218.0625,1082.1719 2218.0625,1084.8906 L2218.0625,1086.0156 C2218.0625,1088.5938 2220.1719,1090.4844 2223.0625,1090.4844 C2224.2813,1090.4844 2225.4375,1090.1875 2226.1875,1089.6406 C2226.7656,1089.2344 2227.0938,1088.7813 2227.0938,1088.3906 C2227.0938,1087.9375 2226.7031,1087.5469 2226.2344,1087.5469 C2226.0156,1087.5469 2225.8125,1087.625 2225.625,1087.8125 C2225.1719,1088.2969 2225.1719,1088.2969 2224.9844,1088.3906 C2224.5625,1088.6563 2223.875,1088.7813 2223.1094,1088.7813 C2221.0625,1088.7813 2219.7656,1087.6875 2219.7656,1085.9844 L2219.7656,1084.8906 C2219.7656,1083.1094 2221.0156,1081.7969 2222.75,1081.7969 C2223.3281,1081.7969 2223.9375,1081.9531 2224.4063,1082.2031 C2224.8906,1082.4844 2225.0625,1082.7031 2225.1563,1083.1094 C2225.2188,1083.5156 2225.25,1083.6406 2225.3906,1083.7656 C2225.5313,1083.9063 2225.7656,1084.0156 2225.9844,1084.0156 C2226.25,1084.0156 2226.5156,1083.875 2226.6875,1083.6563 C2226.7969,1083.5 2226.8281,1083.3125 2226.8281,1082.8906 L2226.8281,1081.4688 C2226.8281,1081.0313 2226.8125,1080.9063 2226.7188,1080.75 C2226.5625,1080.4844 2226.2813,1080.3438 2225.9844,1080.3438 C2225.6875,1080.3438 2225.4844,1080.4375 2225.2656,1080.75 L2225.0938,1080.6719 Z " fill="#000000"/><text fill="#000000" font-family="sans-serif" font-size="14" lengthAdjust="spacing" textLength="40" x="2243.25" y="1089.8467">Audio</text><line style="stroke:#181818;stroke-width:0.5;" x1="2151" x2="2343" y1="1101" y2="1101"/><ellipse cx="2161" cy="1114.6484" fill="none" rx="3" ry="3" style="stroke:#038048;stroke-width:1.0;"/><text fill="#000000" font-family="sans-serif" font-size="14" lengthAdjust="spacing" textLength="145" x="2170" y="1117.9951">NDArray[float] audio</text><ellipse cx="2161" cy="1130.9453" fill="none" rx="3" ry="3" style="stroke:#038048;stroke-width:1.0;"/><text fill="#000000" font-family="sans-serif" font-size="14" lengthAdjust="spacing" textLength="168" x="2170" y="1134.292">int sampling_frequency</text><line style="stroke:#181818;stroke-width:0.5;" x1="2151" x2="2343" y1="1141.5938" y2="1141.5938"/></g><!--class Experiment--><g id="elem_Experiment"><rect codeLine="168" fill="#F1F1F1" height="96.8906" id="Experiment" rx="2.5" ry="2.5" style="stroke:#181818;stroke-width:0.5;" width="876" x="658" y="787"/><ellipse cx="1049.25" cy="803" fill="#ADD1B2" rx="11" ry="11" style="stroke:#181818;stroke-width:1.0;"/><path d="M1051.5938,798.6719 C1050.6563,798.2344 1050.0625,798.0938 1049.1875,798.0938 C1046.5625,798.0938 1044.5625,800.1719 1044.5625,802.8906 L1044.5625,804.0156 C1044.5625,806.5938 1046.6719,808.4844 1049.5625,808.4844 C1050.7813,808.4844 1051.9375,808.1875 1052.6875,807.6406 C1053.2656,807.2344 1053.5938,806.7813 1053.5938,806.3906 C1053.5938,805.9375 1053.2031,805.5469 1052.7344,805.5469 C1052.5156,805.5469 1052.3125,805.625 1052.125,805.8125 C1051.6719,806.2969 1051.6719,806.2969 1051.4844,806.3906 C1051.0625,806.6563 1050.375,806.7813 1049.6094,806.7813 C1047.5625,806.7813 1046.2656,805.6875 1046.2656,803.9844 L1046.2656,802.8906 C1046.2656,801.1094 1047.5156,799.7969 1049.25,799.7969 C1049.8281,799.7969 1050.4375,799.9531 1050.9063,800.2031 C1051.3906,800.4844 1051.5625,800.7031 1051.6563,801.1094 C1051.7188,801.5156 1051.75,801.6406 1051.8906,801.7656 C1052.0313,801.9063 1052.2656,802.0156 1052.4844,802.0156 C1052.75,802.0156 1053.0156,801.875 1053.1875,801.6563 C1053.2969,801.5 1053.3281,801.3125 1053.3281,800.8906 L1053.3281,799.4688 C1053.3281,799.0313 1053.3125,798.9063 1053.2188,798.75 C1053.0625,798.4844 1052.7813,798.3438 1052.4844,798.3438 C1052.1875,798.3438 1051.9844,798.4375 1051.7656,798.75 L1051.5938,798.6719 Z " fill="#000000"/><text fill="#000000" font-family="sans-serif" font-size="14" lengthAdjust="spacing" textLength="85" x="1069.75" y="807.8467">Experiment</text><line style="stroke:#181818;stroke-width:0.5;" x1="659" x2="1533" y1="819" y2="819"/><line style="stroke:#181818;stroke-width:0.5;" x1="659" x2="1533" y1="827" y2="827"/><ellipse cx="669" cy="840.6484" fill="#84BE84" rx="3" ry="3" style="stroke:#038048;stroke-width:1.0;"/><text fill="#000000" font-family="sans-serif" font-size="14" lengthAdjust="spacing" textLength="850" x="678" y="843.9951">Experiment(model: Model, view: AView, stimuli: List[Stimulus], auditory_stimulus_factories: List[AAudioTaggerFactory])</text><ellipse cx="669" cy="856.9453" fill="#84BE84" rx="3" ry="3" style="stroke:#038048;stroke-width:1.0;"/><text fill="#000000" font-family="sans-serif" font-size="14" lengthAdjust="spacing" textLength="146" x="678" y="860.292">void create_stimuli()</text><ellipse cx="669" cy="873.2422" fill="#84BE84" rx="3" ry="3" style="stroke:#038048;stroke-width:1.0;"/><text fill="#000000" font-family="sans-serif" font-size="14" lengthAdjust="spacing" textLength="67" x="678" y="876.5889">void run()</text></g><!--reverse link Stimulus to Audio--><g id="link_Stimulus_Audio"><path codeLine="70" d="M1944.879,1289.8368 C2020.059,1245.2108 2113.49,1189.754 2180.41,1150.026 " fill="none" id="Stimulus-backto-Audio" style="stroke:#181818;stroke-width:1.0;"/><polygon fill="#181818" points="1934.56,1295.962,1941.7612,1296.339,1944.879,1289.8368,1937.6777,1289.4597,1934.56,1295.962" style="stroke:#181818;stroke-width:1.0;"/><text fill="#000000" font-family="sans-serif" font-size="13" lengthAdjust="spacing" textLength="35" x="2008" y="1262.0669">audio</text><text fill="#000000" font-family="sans-serif" font-size="13" lengthAdjust="spacing" textLength="8" x="1938.0349" y="1284.8205">1</text><text fill="#000000" font-family="sans-serif" font-size="13" lengthAdjust="spacing" textLength="8" x="2161.1597" y="1169.79">1</text></g><!--link Audio to CreatedStimulus--><g id="link_Audio_CreatedStimulus"><path codeLine="75" d="M2149.95,1109.5 C2110.95,1109.5 2075.88,1109.5 2027.84,1109.5 " fill="none" id="Audio-to-CreatedStimulus" style="stroke:#181818;stroke-width:1.0;"/><polygon fill="#181818" points="2015.84,1109.5,2021.84,1113.5,2027.84,1109.5,2021.84,1105.5,2015.84,1109.5" style="stroke:#181818;stroke-width:1.0;"/><text fill="#000000" font-family="sans-serif" font-size="13" lengthAdjust="spacing" textLength="98" x="2033.75" y="1102.5669">modified_audio</text><text fill="#000000" font-family="sans-serif" font-size="13" lengthAdjust="spacing" textLength="8" x="2133.8976" y="1105.9907">1</text><text fill="#000000" font-family="sans-serif" font-size="13" lengthAdjust="spacing" textLength="8" x="2023.1404" y="1106.3655">1</text></g><!--link CreatedStimulus to Stimulus--><g id="link_CreatedStimulus_Stimulus"><path codeLine="78" d="M1757.35,1141.513 C1772.85,1180.415 1793.0383,1231.1011 1812.1383,1279.0451 " fill="none" id="CreatedStimulus-to-Stimulus" style="stroke:#181818;stroke-width:1.0;"/><polygon fill="none" points="1818.8,1295.767,1817.7123,1276.8245,1806.5643,1281.2657,1818.8,1295.767" style="stroke:#181818;stroke-width:1.0;"/></g><!--link AView to constants--><g id="link_AView_constants"><path codeLine="80" d="M463.986,1219.314 C432.709,1279.188 411.589,1352.558 450,1409 C507.474,1493.453 613.996,1535.9513 706.7564,1557.3371 C753.1366,1568.0301 796.0763,1573.4449 827.7245,1576.187 C843.5486,1577.558 856.5498,1578.2608 865.7467,1578.6211 C868.0459,1578.7112 870.1073,1578.7798 871.9157,1578.8322 C872.1417,1578.8387 866.3661,1578.6788 866.5842,1578.6849 " fill="none" id="AView-to-constants" style="stroke:#181818;stroke-width:1.0;stroke-dasharray:7.0,7.0;"/><polygon fill="#181818" points="872.5819,1578.851,863.6962,1574.6033,867.5838,1578.7126,863.4746,1582.6002,872.5819,1578.851" style="stroke:#181818;stroke-width:1.0;"/><text fill="#000000" font-family="sans-serif" font-size="13" lengthAdjust="spacing" textLength="30" x="451" y="1357.0669">uses</text></g><!--reverse link Model to CreatedStimulus--><g id="link_Model_CreatedStimulus"><path codeLine="82" d="M1345.35,1109.5 C1391.18,1109.5 1427.49,1109.5 1474.26,1109.5 " fill="none" id="Model-backto-CreatedStimulus" style="stroke:#181818;stroke-width:1.0;"/><polygon fill="#181818" points="1333.35,1109.5,1339.35,1113.5,1345.35,1109.5,1339.35,1105.5,1333.35,1109.5" style="stroke:#181818;stroke-width:1.0;"/><text fill="#000000" font-family="sans-serif" font-size="13" lengthAdjust="spacing" textLength="105" x="1351.25" y="1102.5669">stimulus_history</text><text fill="#000000" font-family="sans-serif" font-size="13" lengthAdjust="spacing" textLength="8" x="1341.3021" y="1106.3289">1</text><text fill="#000000" font-family="sans-serif" font-size="13" lengthAdjust="spacing" textLength="7" x="1459.1185" y="1106.3418">*</text></g><!--reverse link Model to EExperimentState--><g id="link_Model_EExperimentState"><path codeLine="83" d="M1081.3999,1214.9605 C1069.7799,1304.1615 1054,1425.37 1043.38,1506.942 " fill="none" id="Model-backto-EExperimentState" style="stroke:#181818;stroke-width:1.0;"/><polygon fill="none" points="1082.95,1203.061,1078.2085,1208.494,1081.3999,1214.9605,1086.1414,1209.5274,1082.95,1203.061" style="stroke:#181818;stroke-width:1.0;"/><text fill="#000000" font-family="sans-serif" font-size="13" lengthAdjust="spacing" textLength="114" x="1071" y="1357.0669">experiment_state</text><text fill="#000000" font-family="sans-serif" font-size="13" lengthAdjust="spacing" textLength="7" x="1074.808" y="1222.5676">*</text><text fill="#000000" font-family="sans-serif" font-size="13" lengthAdjust="spacing" textLength="8" x="1035.9348" y="1495.7195">1</text></g><!--link AView to Model--><g id="link_AView_Model"><path codeLine="84" d="M783.679,1109.5 C808.006,1109.5 820.679,1109.5 844.937,1109.5 " fill="none" id="AView-to-Model" style="stroke:#181818;stroke-width:1.0;"/><polygon fill="none" points="856.937,1109.5,850.937,1105.5,844.937,1109.5,850.937,1113.5,856.937,1109.5" style="stroke:#181818;stroke-width:1.0;"/><text fill="#000000" font-family="sans-serif" font-size="13" lengthAdjust="spacing" textLength="37" x="801.75" y="1102.5669">views</text><text fill="#000000" font-family="sans-serif" font-size="13" lengthAdjust="spacing" textLength="7" x="791.8224" y="1106.3191">*</text><text fill="#000000" font-family="sans-serif" font-size="13" lengthAdjust="spacing" textLength="8" x="840.9943" y="1106.3289">1</text></g><!--link Model to EModelUpdateIdentifier--><g id="link_Model_EModelUpdateIdentifier"><path codeLine="85" d="M1147.32,1203.296 C1163.08,1232.585 1179.91,1265.314 1194,1296 C1231.23,1377.077 1265.3018,1468.993 1285.4818,1525.809 " fill="none" id="Model-to-EModelUpdateIdentifier" style="stroke:#181818;stroke-width:1.0;stroke-dasharray:7.0,7.0;"/><polygon fill="#181818" points="1287.49,1531.463,1288.247,1521.6433,1285.8165,1526.7514,1280.7084,1524.3209,1287.49,1531.463" style="stroke:#181818;stroke-width:1.0;"/><text fill="#000000" font-family="sans-serif" font-size="13" lengthAdjust="spacing" textLength="30" x="1242" y="1357.0669">uses</text></g><!--reverse link AAuditoryTagger to Audio--><g id="link_AAuditoryTagger_Audio"><path codeLine="96" d="M1378.7038,104.0403 C1655.9038,130.9703 2246,198.49 2246,287 C2246,287 2246,287 2246,836.5 C2246,919.139 2246.47,1015.901 2246.76,1068.86 " fill="none" id="AAuditoryTagger-backto-Audio" style="stroke:#181818;stroke-width:1.0;"/><polygon fill="#181818" points="1366.76,102.88,1372.3451,107.4414,1378.7038,104.0403,1373.1187,99.4789,1366.76,102.88" style="stroke:#181818;stroke-width:1.0;"/><text fill="#000000" font-family="sans-serif" font-size="13" lengthAdjust="spacing" textLength="35" x="2247" y="626.0669">audio</text><text fill="#000000" font-family="sans-serif" font-size="13" lengthAdjust="spacing" textLength="8" x="1374.4578" y="100.2751">1</text><text fill="#000000" font-family="sans-serif" font-size="13" lengthAdjust="spacing" textLength="8" x="2238.0578" y="1057.9983">1</text></g><!--reverse link AAuditoryTagger to RawTagger--><g id="link_AAuditoryTagger_RawTagger"><path codeLine="151" d="M1379.3504,144.1546 C1492.8604,184.9246 1634.08,235.66 1718.47,265.97 " fill="none" id="AAuditoryTagger-backto-RawTagger" style="stroke:#181818;stroke-width:1.0;"/><polygon fill="none" points="1362.41,138.07,1377.3222,149.8014,1381.3786,138.5078,1362.41,138.07" style="stroke:#181818;stroke-width:1.0;"/></g><!--reverse link AAuditoryTagger to ASSRTagger--><g id="link_AAuditoryTagger_ASSRTagger"><path codeLine="152" d="M1075.7013,129.221 C967.4263,156.391 830.696,190.71 700.093,223.48 " fill="none" id="AAuditoryTagger-backto-ASSRTagger" style="stroke:#181818;stroke-width:1.0;"/><polygon fill="none" points="1093.16,124.84,1074.2409,123.4014,1077.1616,135.0406,1093.16,124.84" style="stroke:#181818;stroke-width:1.0;"/></g><!--reverse link AAuditoryTagger to NoiseTaggingTagger--><g id="link_AAuditoryTagger_NoiseTaggingTagger"><path codeLine="153" d="M1198.2443,154.1767 C1189.1243,172.4567 1186.43,177.87 1176,198.77 " fill="none" id="AAuditoryTagger-backto-NoiseTaggingTagger" style="stroke:#181818;stroke-width:1.0;"/><polygon fill="none" points="1206.28,138.07,1192.8753,151.4982,1203.6132,156.8553,1206.28,138.07" style="stroke:#181818;stroke-width:1.0;"/></g><!--link ASSRTaggerFactory to AAudioTaggerFactory--><g id="link_ASSRTaggerFactory_AAudioTaggerFactory"><path codeLine="155" d="M640.417,583.06 C751.772,609.32 858.2579,634.4472 949.0579,655.8672 " fill="none" id="ASSRTaggerFactory-to-AAudioTaggerFactory" style="stroke:#181818;stroke-width:1.0;"/><polygon fill="none" points="966.577,660,950.4355,650.0275,947.6803,661.7069,966.577,660" style="stroke:#181818;stroke-width:1.0;"/></g><!--link NoiseTaggingTaggerFactory to AAudioTaggerFactory--><g id="link_NoiseTaggingTaggerFactory_AAudioTaggerFactory"><path codeLine="156" d="M1101.14,583.36 C1100.38,609.45 1100.0535,620.4576 1099.4335,641.7676 " fill="none" id="NoiseTaggingTaggerFactory-to-AAudioTaggerFactory" style="stroke:#181818;stroke-width:1.0;"/><polygon fill="none" points="1098.91,659.76,1105.4309,641.9421,1093.436,641.5931,1098.91,659.76" style="stroke:#181818;stroke-width:1.0;"/></g><!--link RawTaggerFactory to AAudioTaggerFactory--><g id="link_RawTaggerFactory_AAudioTaggerFactory"><path codeLine="157" d="M1701.53,550.56 C1568.28,581.57 1382.1714,624.8698 1248.9314,655.8798 " fill="none" id="RawTaggerFactory-to-AAudioTaggerFactory" style="stroke:#181818;stroke-width:1.0;"/><polygon fill="none" points="1231.4,659.96,1250.2915,661.7236,1247.5714,650.036,1231.4,659.96" style="stroke:#181818;stroke-width:1.0;"/></g><!--reverse link ASSRTagger to ASSRTaggerFactory--><g id="link_ASSRTagger_ASSRTaggerFactory"><path codeLine="159" d="M423.9364,358.3433 C413.4394,389.9033 402.688,422.23 392.188,453.8 " fill="none" id="ASSRTagger-backto-ASSRTaggerFactory" style="stroke:#181818;stroke-width:1.0;stroke-dasharray:7.0,7.0;"/><polygon fill="#181818" points="425.83,352.65,419.194,359.9276,424.252,357.3945,426.7851,362.4524,425.83,352.65" style="stroke:#181818;stroke-width:1.0;"/><text fill="#000000" font-family="sans-serif" font-size="13" lengthAdjust="spacing" textLength="48" x="408" y="420.0669">creates</text></g><!--reverse link NoiseTaggingTagger to NoiseTaggingTaggerFactory--><g id="link_NoiseTaggingTagger_NoiseTaggingTaggerFactory"><path codeLine="160" d="M1120.0732,382.9721 C1116.8132,408.6121 1114.08,430.18 1111.06,453.99 " fill="none" id="NoiseTaggingTagger-backto-NoiseTaggingTaggerFactory" style="stroke:#181818;stroke-width:1.0;stroke-dasharray:7.0,7.0;"/><polygon fill="#181818" points="1120.83,377.02,1115.7268,385.4436,1120.1994,381.9801,1123.6629,386.4526,1120.83,377.02" style="stroke:#181818;stroke-width:1.0;"/><text fill="#000000" font-family="sans-serif" font-size="13" lengthAdjust="spacing" textLength="48" x="1117" y="420.0669">creates</text></g><!--reverse link RawTagger to RawTaggerFactory--><g id="link_RawTagger_RawTaggerFactory"><path codeLine="161" d="M1786.4165,326.1055 C1797.4965,369.7455 1815.99,442.59 1827.06,486.22 " fill="none" id="RawTagger-backto-RawTaggerFactory" style="stroke:#181818;stroke-width:1.0;stroke-dasharray:7.0,7.0;"/><polygon fill="#181818" points="1784.94,320.29,1783.2778,329.9976,1786.1704,325.1362,1791.0318,328.0289,1784.94,320.29" style="stroke:#181818;stroke-width:1.0;"/><text fill="#000000" font-family="sans-serif" font-size="13" lengthAdjust="spacing" textLength="48" x="1812" y="420.0669">creates</text></g><!--reverse link AView to PsychopyView--><g id="link_AView_PsychopyView"><path codeLine="163" d="M553.6853,1236.8947 C558.4463,1277.8737 561.347,1302.841 564.31,1328.344 " fill="none" id="AView-backto-PsychopyView" style="stroke:#181818;stroke-width:1.0;"/><polygon fill="none" points="551.608,1219.015,547.7254,1237.5872,559.6452,1236.2023,551.608,1219.015" style="stroke:#181818;stroke-width:1.0;"/></g><!--reverse link AView to CLIView--><g id="link_AView_CLIView"><path codeLine="164" d="M627.8835,1233.6089 C657.4695,1274.5879 677.868,1302.841 696.282,1328.344 " fill="none" id="AView-backto-CLIView" style="stroke:#181818;stroke-width:1.0;"/><polygon fill="none" points="617.347,1219.015,623.0189,1237.1211,632.7481,1230.0967,617.347,1219.015" style="stroke:#181818;stroke-width:1.0;"/></g><!--reverse link Experiment to Model--><g id="link_Experiment_Model"><path codeLine="173" d="M1095.7771,896.1899 C1095.6471,932.5279 1095.5,971.685 1095.34,1015.97 " fill="none" id="Experiment-backto-Model" style="stroke:#181818;stroke-width:1.0;"/><polygon fill="#181818" points="1095.82,884.19,1091.7986,890.1757,1095.7771,896.1899,1099.7985,890.2043,1095.82,884.19" style="stroke:#181818;stroke-width:1.0;"/><text fill="#000000" font-family="sans-serif" font-size="13" lengthAdjust="spacing" textLength="8" x="1087.2583" y="903.8237">1</text><text fill="#000000" font-family="sans-serif" font-size="13" lengthAdjust="spacing" textLength="8" x="1087.0483" y="1005.0057">1</text></g><!--reverse link Experiment to AView--><g id="link_Experiment_AView"><path codeLine="174" d="M983.1281,889.1369 C936.3791,911.0909 891.185,932.559 841,957 C812.786,970.741 783.175,985.355 753.983,999.877 " fill="none" id="Experiment-backto-AView" style="stroke:#181818;stroke-width:1.0;"/><polygon fill="#181818" points="993.99,884.036,986.8588,882.9658,983.1281,889.1369,990.2594,890.2071,993.99,884.036" style="stroke:#181818;stroke-width:1.0;"/><text fill="#000000" font-family="sans-serif" font-size="13" lengthAdjust="spacing" textLength="8" x="971.0801" y="904">1</text><text fill="#000000" font-family="sans-serif" font-size="13" lengthAdjust="spacing" textLength="8" x="760.1584" y="989.0713">1</text></g><!--link AAudioTaggerFactory to Experiment--><g id="link_AAudioTaggerFactory_Experiment"><path codeLine="175" d="M1097.56,724.05 C1097.3,742.439 1097.1438,754.1143 1096.8438,774.8253 " fill="none" id="AAudioTaggerFactory-to-Experiment" style="stroke:#181818;stroke-width:1.0;"/><polygon fill="#181818" points="1096.67,786.824,1100.7565,780.8826,1096.8438,774.8253,1092.7573,780.7667,1096.67,786.824" style="stroke:#181818;stroke-width:1.0;"/><text fill="#000000" font-family="sans-serif" font-size="13" lengthAdjust="spacing" textLength="7" x="1089.7474" y="744.2572">*</text><text fill="#000000" font-family="sans-serif" font-size="13" lengthAdjust="spacing" textLength="8" x="1088.2017" y="776.0082">1</text></g><!--reverse link Experiment to CreatedStimulus--><g id="link_Experiment_CreatedStimulus"><path codeLine="176" d="M1220.4873,888.6725 C1353.1073,944.2565 1557.76,1030.028 1670.7,1077.361 " fill="none" id="Experiment-backto-CreatedStimulus" style="stroke:#181818;stroke-width:1.0;"/><polygon fill="#181818" points="1209.42,884.034,1213.4074,890.0423,1220.4873,888.6725,1216.4998,882.6642,1209.42,884.034" style="stroke:#181818;stroke-width:1.0;"/><path d="M1367,919 L1367,944 L1625,944 L1625,929 L1615,919 L1367,919 " fill="#FEFFDD" style="stroke:#181818;stroke-width:0.5;"/><path d="M1615,919 L1615,929 L1625,929 L1615,919 " fill="#FEFFDD" style="stroke:#181818;stroke-width:0.5;"/><text fill="#000000" font-family="sans-serif" font-size="13" lengthAdjust="spacing" textLength="237" x="1373" y="936.0669">Created by calling  `create_stimuli()`</text><text fill="#000000" font-family="sans-serif" font-size="13" lengthAdjust="spacing" textLength="8" x="1216.8072" y="903.9977">1</text><text fill="#000000" font-family="sans-serif" font-size="13" lengthAdjust="spacing" textLength="7" x="1647.6538" y="1066.2354">*</text></g><!--SRC=[lLZVR-8u47xFNs7HbtGRUhfNX90GpUqXTQ42shjJXR8cCH1jY7EnKnRjzd_ViPt4ZXFeLNTxVMZ0y-kRyUVnX9HoWZ13gOFGS3EQmTVXBvlH0AqeOlY589RXa7Wef2dZUH5ocgCCv_X0ECaHFsM4UM1wtCVX7XqmX_zyJvG0qQty4YQOCMqb3N1EK4evk2TXl8r9v90q4Yl4SPJ-k8XYYhw1hlgxcTsDynoVdhS9nNoDi91hQPo2Ctp8aZZT1TkS_5sGD3n9-QlZG19Vy8wWbvWSIvzu0mdXa9VmnayW6Wxd6qRo5vAFHaRegmbE4hn9oFEpHBNsq8ocP8qOBT8eo19y8hdMlej3_kpxNpEInmUIyYN774euptXCKvmyGzpr6f5Q7d3obJD7voAnkAPphwL-hVMlNcWSeMzLGg-eo2A86AJa630U7ugaO6xrOO0cEG5fj2mNhj_o4qb7cGYUk-enGA3ofc5WO6QY1a6un-cEH2v8yG3P9T8ERwH3vQLK7gSd3yKHw0gw00B_4ur8yYXrflMwTh6XD34nxGWFWCNRE0UQmaQuTZX3zuXZxZ8IGhM0LzSLYyH3iUM1dS8zpKvFcayD-UH-sX0P53m8sAL0ASj4KCKzmRFHI9ElVnypBZc3LF63FIpG_6HeqDqEJcCY7veNVUdOLSiwsxxC5evQl3szhxXsnNAo0oZ02d6i1aXaRAkybuFQgYJSFxPHt6fnpbK8uDCvmfKRL-sFx7GuvQpS8v8MXvQbqHoci_5aDNtoZONLOdxt28lpMRsuy9UhwUnZi5oDLtxW_-KlW_c3Vr4-kPyl_RjQm__pmLzCF_cpLT0PGSlDh1JwpjqqSfZvVq3awQV7-yTbO_51U5nqOL109x-FPnzBaA_jOr3jbTd6WSb0P7h8kBqczbklQTfJsJYP9LeL6JHaUHbuIDq9QmJnYDZjGyOCJ3MCtgyzzA7Vbq_PoGVbDM8UtIRD3EYsP0jPT96xKl34MPUNMu1LC1dpsa1ckrG0amR2fXF7wJJizx-Fwi3GRkGLWcvlHvhF0zGh664znr4DHyNA8TQ7dkqFTAjygdRJgyn0c_RB8jhd0kpi0zWpmb58JSMJ-0RoFcQbWW3RpLIDlEwYeXO2LS3nRWTN_fbBVLoghR3iaDLUNYM2GQZ97WJtkSmv3g3fYqwSr9VoZUN9bNlXLGPLBsfT9A4igzjeD3QeywGycn9LfhzXCO-TwhHkJ64RHb0NhIQjoKkldVu0dJjgTKR6oHalbmkhq7qnbZMdCLZKunI8FLJz4sDLSyQhERWZASdbjTtsqRJHFcR5OKDWqhAzhiM9AX8CbT3RMqEtTbRNmjDvU5t0FEssIOSk3jW5itVotzMjNJYQ_xTrQvMjJC1zVuqQdFs9HDLbdz6OaPNg6pPVwo5Tr1Kn0YycneviOXuSuuZlpSM4f3k-3q1MfLGxcK0tMqC7ZaZDj7Rm2um3doo0TXh0B4hJQA2sN0Vq9C8BTAkclQ3Q19Z10Ks7b2k1ydrkx6s3xoIk1VjYiRegVhvM5Ssi21Tgyl_JQu6F5glUwWErnUM6_lFG0nhxLXf-Xokf1jOjriU_MzxUlpAETN-1Sj5lTyCBkcUPSS76hZ9WqHVMyFQs3G3c3bLp63qwceQmEGl4jDMC42Os3bEpdDjazSntJ7EzVBU4gxVyfKJFO2LnRlIAAryt1-eTqqFgHKqwgubIqgCQ_Q3ljnWMR2NKc5HSwgXoIIQJwwLzx9gYl12ltg-EWLfDG94QWIJIjZGl1oIPUajQb5Db6rPRjtFWTSHFJuYcA8dJB_Mx9jgSK0WNfXWmqMSxgSy_0000]--></g></svg>