<?xml version="1.0" encoding="us-ascii" standalone="no"?><svg xmlns="http://www.w3.org/2000/svg" xmlns:xlink="http://www.w3.org/1999/xlink" contentStyleType="text/css" height="1514px" preserveAspectRatio="none" style="width:4273px;height:1514px;background:#FFFFFF;" version="1.1" viewBox="0 0 4273 1514" width="4273px" zoomAndPan="magnify"><defs/><g><!--cluster view--><g id="cluster_view"><path d="M233.5,193 L270.5,193 A3.75,3.75 0 0 1 273,195.5 L280,215.2969 L750.5,215.2969 A2.5,2.5 0 0 1 753,217.7969 L753,626 A2.5,2.5 0 0 1 750.5,628.5 L233.5,628.5 A2.5,2.5 0 0 1 231,626 L231,195.5 A2.5,2.5 0 0 1 233.5,193 " fill="none" style="stroke:#000000;stroke-width:1.5;"/><line style="stroke:#000000;stroke-width:1.5;" x1="231" x2="280" y1="215.2969" y2="215.2969"/><text fill="#000000" font-family="sans-serif" font-size="14" font-weight="bold" lengthAdjust="spacing" textLength="36" x="235" y="207.9951">view</text></g><!--cluster model--><g id="cluster_model"><path d="M929.5,843 L979.5,843 A3.75,3.75 0 0 1 982,845.5 L989,865.2969 L2856.5,865.2969 A2.5,2.5 0 0 1 2859,867.7969 L2859,1361.5 A2.5,2.5 0 0 1 2856.5,1364 L929.5,1364 A2.5,2.5 0 0 1 927,1361.5 L927,845.5 A2.5,2.5 0 0 1 929.5,843 " fill="none" style="stroke:#000000;stroke-width:1.5;"/><line style="stroke:#000000;stroke-width:1.5;" x1="927" x2="989" y1="865.2969" y2="865.2969"/><text fill="#000000" font-family="sans-serif" font-size="14" font-weight="bold" lengthAdjust="spacing" textLength="49" x="931" y="857.9951">model</text></g><!--cluster constants--><g id="cluster_constants"><path d="M1331.5,1119 L1415.5,1119 A3.75,3.75 0 0 1 1418,1121.5 L1425,1141.2969 L1898.5,1141.2969 A2.5,2.5 0 0 1 1901,1143.7969 L1901,1329.5 A2.5,2.5 0 0 1 1898.5,1332 L1331.5,1332 A2.5,2.5 0 0 1 1329,1329.5 L1329,1121.5 A2.5,2.5 0 0 1 1331.5,1119 " fill="none" style="stroke:#000000;stroke-width:1.5;"/><line style="stroke:#000000;stroke-width:1.5;" x1="1329" x2="1425" y1="1141.2969" y2="1141.2969"/><text fill="#000000" font-family="sans-serif" font-size="14" font-weight="bold" lengthAdjust="spacing" textLength="83" x="1333" y="1133.9951">constants</text></g><!--cluster auditory_tagging--><g id="cluster_auditory_tagging"><path d="M912.5,6 L1052.5,6 A3.75,3.75 0 0 1 1055,8.5 L1062,28.2969 L3881.5,28.2969 A2.5,2.5 0 0 1 3884,30.7969 L3884,799.5 A2.5,2.5 0 0 1 3881.5,802 L912.5,802 A2.5,2.5 0 0 1 910,799.5 L910,8.5 A2.5,2.5 0 0 1 912.5,6 " fill="none" style="stroke:#000000;stroke-width:1.5;"/><line style="stroke:#000000;stroke-width:1.5;" x1="910" x2="1062" y1="28.2969" y2="28.2969"/><text fill="#000000" font-family="sans-serif" font-size="14" font-weight="bold" lengthAdjust="spacing" textLength="139" x="914" y="20.9951">auditory_tagging</text></g><!--cluster assr_tagger--><g id="cluster_assr_tagger"><path d="M2392.5,246 L2489.5,246 A3.75,3.75 0 0 1 2492,248.5 L2499,268.2969 L3849.5,268.2969 A2.5,2.5 0 0 1 3852,270.7969 L3852,658.5 A2.5,2.5 0 0 1 3849.5,661 L2392.5,661 A2.5,2.5 0 0 1 2390,658.5 L2390,248.5 A2.5,2.5 0 0 1 2392.5,246 " fill="none" style="stroke:#000000;stroke-width:1.5;"/><line style="stroke:#000000;stroke-width:1.5;" x1="2390" x2="2499" y1="268.2969" y2="268.2969"/><text fill="#000000" font-family="sans-serif" font-size="14" font-weight="bold" lengthAdjust="spacing" textLength="96" x="2394" y="260.9951">assr_tagger</text></g><!--cluster eeg--><g id="cluster_eeg"><path d="M144.5,1147.5 L173.5,1147.5 A3.75,3.75 0 0 1 176,1150 L183,1169.7969 L900.5,1169.7969 A2.5,2.5 0 0 1 903,1172.2969 L903,1504.5 A2.5,2.5 0 0 1 900.5,1507 L144.5,1507 A2.5,2.5 0 0 1 142,1504.5 L142,1150 A2.5,2.5 0 0 1 144.5,1147.5 " fill="none" style="stroke:#000000;stroke-width:1.5;"/><line style="stroke:#000000;stroke-width:1.5;" x1="142" x2="183" y1="1169.7969" y2="1169.7969"/><text fill="#000000" font-family="sans-serif" font-size="14" font-weight="bold" lengthAdjust="spacing" textLength="28" x="146" y="1162.4951">eeg</text></g><!--class AView--><g id="elem_AView"><rect codeLine="13" fill="#F1F1F1" height="219.2344" id="AView" rx="2.5" ry="2.5" style="stroke:#181818;stroke-width:0.5;" width="489" x="247.5" y="228"/><ellipse cx="455.75" cy="248.1328" fill="#A9DCDF" rx="11" ry="11" style="stroke:#181818;stroke-width:1.0;"/><path d="M457.8281,249.9453 L458.2188,250.9297 L457.8281,250.9297 C457.375,250.9297 457.2656,250.9453 457.1094,251.0547 C456.8594,251.2109 456.7031,251.4922 456.7031,251.7891 C456.7031,252.0547 456.8438,252.3047 457.0625,252.4609 C457.2031,252.5859 457.4063,252.6328 457.8281,252.6328 L460.1875,252.6328 C460.5469,252.6328 460.7656,252.6016 460.9063,252.5078 C461.1563,252.3672 461.3125,252.0703 461.3125,251.7891 C461.3125,251.5078 461.1719,251.2578 460.9531,251.1016 C460.7813,250.9609 460.625,250.9297 460.1563,250.9297 L456.7656,242.7266 L453.0938,242.7266 C452.6406,242.7266 452.5156,242.7422 452.3594,242.8359 C452.1094,243.0078 451.9531,243.2891 451.9531,243.5703 C451.9531,243.8516 452.0938,244.1016 452.3125,244.2734 C452.4844,244.3828 452.6563,244.4141 453.0938,244.4141 L454.1719,244.4141 L451.5313,250.9297 C451.1094,250.9297 450.9531,250.9453 450.7969,251.0547 C450.5469,251.2109 450.3906,251.4922 450.3906,251.7891 C450.3906,252.3516 450.7656,252.6328 451.5156,252.6328 L453.7813,252.6328 C454.1406,252.6328 454.3594,252.6016 454.4844,252.5078 C454.75,252.3672 454.8906,252.0703 454.8906,251.7891 C454.8906,251.5078 454.7656,251.2578 454.5469,251.0859 C454.375,250.9609 454.2344,250.9297 453.7813,250.9297 L453.3906,250.9297 L453.7813,249.9453 L457.8281,249.9453 Z M457.125,248.2422 L454.4531,248.2422 L455.7969,244.9766 L457.125,248.2422 Z " fill="#000000"/><text fill="#000000" font-family="sans-serif" font-size="12" font-style="italic" lengthAdjust="spacing" textLength="68" x="474.25" y="244.1387">&#171;Observer&#187;</text><text fill="#000000" font-family="sans-serif" font-size="14" font-style="italic" lengthAdjust="spacing" textLength="44" x="486.25" y="259.9639">AView</text><line style="stroke:#181818;stroke-width:0.5;" x1="248.5" x2="735.5" y1="268.2656" y2="268.2656"/><polygon fill="none" points="258.5,276.9141,262.5,280.9141,258.5,284.9141,254.5,280.9141" style="stroke:#B38D22;stroke-width:1.0;"/><text fill="#000000" font-family="sans-serif" font-size="14" lengthAdjust="spacing" textLength="260" x="267.5" y="285.2607">Callable[[Audio], None] sound_player</text><polygon fill="none" points="258.5,293.2109,262.5,297.2109,258.5,301.2109,254.5,297.2109" style="stroke:#B38D22;stroke-width:1.0;"/><text fill="#000000" font-family="sans-serif" font-size="14" lengthAdjust="spacing" textLength="408" x="267.5" y="301.5576">Dict[EExperimentState, Optional[str]] experiment_texts</text><line style="stroke:#181818;stroke-width:0.5;" x1="248.5" x2="735.5" y1="308.8594" y2="308.8594"/><ellipse cx="258.5" cy="322.5078" fill="#84BE84" rx="3" ry="3" style="stroke:#038048;stroke-width:1.0;"/><text fill="#000000" font-family="sans-serif" font-size="14" lengthAdjust="spacing" textLength="286" x="267.5" y="325.8545">AView(sound_player, experiment_texts)</text><text fill="#000000" font-family="sans-serif" font-size="14" lengthAdjust="spacing" textLength="4" x="267.5" y="342.1514">&#160;</text><polygon fill="#FFFF44" points="258.5,350.1016,262.5,354.1016,258.5,358.1016,254.5,354.1016" style="stroke:#B38D22;stroke-width:1.0;"/><text fill="#000000" font-family="sans-serif" font-size="14" font-style="italic" lengthAdjust="spacing" textLength="382" x="267.5" y="358.4482">void update_new_stimulus(stimulus: CreatedStimulus)</text><polygon fill="#FFFF44" points="258.5,366.3984,262.5,370.3984,258.5,374.3984,254.5,370.3984" style="stroke:#B38D22;stroke-width:1.0;"/><text fill="#000000" font-family="sans-serif" font-size="14" font-style="italic" lengthAdjust="spacing" textLength="269" x="267.5" y="374.7451">void updated_new_primer(primer: str)</text><polygon fill="#FFFF44" points="258.5,382.6953,262.5,386.6953,258.5,390.6953,254.5,386.6953" style="stroke:#B38D22;stroke-width:1.0;"/><text fill="#000000" font-family="sans-serif" font-size="14" font-style="italic" lengthAdjust="spacing" textLength="463" x="267.5" y="391.042">void update_experiment_state_changed(data: EExperimentState)</text><ellipse cx="258.5" cy="403.9922" fill="#84BE84" rx="3" ry="3" style="stroke:#038048;stroke-width:1.0;"/><text fill="#000000" font-family="sans-serif" font-size="14" lengthAdjust="spacing" textLength="413" x="267.5" y="407.3389">void update(data: Any, identifier: EModelUpdateIdentifier</text><ellipse cx="258.5" cy="420.2891" fill="#84BE84" rx="3" ry="3" style="stroke:#038048;stroke-width:1.0;"/><text fill="#000000" font-family="sans-serif" font-size="14" font-style="italic" lengthAdjust="spacing" textLength="166" x="267.5" y="423.6357">bool get_confirmation()</text><ellipse cx="258.5" cy="436.5859" fill="#84BE84" rx="3" ry="3" style="stroke:#038048;stroke-width:1.0;"/><text fill="#000000" font-family="sans-serif" font-size="14" font-style="italic" lengthAdjust="spacing" textLength="131" x="267.5" y="439.9326">void wait(secs: int)</text></g><!--class PsychopyView--><g id="elem_PsychopyView"><rect codeLine="27" fill="#F1F1F1" height="48" id="PsychopyView" rx="2.5" ry="2.5" style="stroke:#181818;stroke-width:0.5;" width="134" x="502" y="564.5"/><ellipse cx="517" cy="580.5" fill="#ADD1B2" rx="11" ry="11" style="stroke:#181818;stroke-width:1.0;"/><path d="M519.3438,576.1719 C518.4063,575.7344 517.8125,575.5938 516.9375,575.5938 C514.3125,575.5938 512.3125,577.6719 512.3125,580.3906 L512.3125,581.5156 C512.3125,584.0938 514.4219,585.9844 517.3125,585.9844 C518.5313,585.9844 519.6875,585.6875 520.4375,585.1406 C521.0156,584.7344 521.3438,584.2813 521.3438,583.8906 C521.3438,583.4375 520.9531,583.0469 520.4844,583.0469 C520.2656,583.0469 520.0625,583.125 519.875,583.3125 C519.4219,583.7969 519.4219,583.7969 519.2344,583.8906 C518.8125,584.1563 518.125,584.2813 517.3594,584.2813 C515.3125,584.2813 514.0156,583.1875 514.0156,581.4844 L514.0156,580.3906 C514.0156,578.6094 515.2656,577.2969 517,577.2969 C517.5781,577.2969 518.1875,577.4531 518.6563,577.7031 C519.1406,577.9844 519.3125,578.2031 519.4063,578.6094 C519.4688,579.0156 519.5,579.1406 519.6406,579.2656 C519.7813,579.4063 520.0156,579.5156 520.2344,579.5156 C520.5,579.5156 520.7656,579.375 520.9375,579.1563 C521.0469,579 521.0781,578.8125 521.0781,578.3906 L521.0781,576.9688 C521.0781,576.5313 521.0625,576.4063 520.9688,576.25 C520.8125,575.9844 520.5313,575.8438 520.2344,575.8438 C519.9375,575.8438 519.7344,575.9375 519.5156,576.25 L519.3438,576.1719 Z " fill="#000000"/><text fill="#000000" font-family="sans-serif" font-size="14" lengthAdjust="spacing" textLength="102" x="531" y="585.3467">PsychopyView</text><line style="stroke:#181818;stroke-width:0.5;" x1="503" x2="635" y1="596.5" y2="596.5"/><line style="stroke:#181818;stroke-width:0.5;" x1="503" x2="635" y1="604.5" y2="604.5"/></g><!--class CLIView--><g id="elem_CLIView"><rect codeLine="30" fill="#F1F1F1" height="48" id="CLIView" rx="2.5" ry="2.5" style="stroke:#181818;stroke-width:0.5;" width="88" x="379" y="564.5"/><ellipse cx="394" cy="580.5" fill="#ADD1B2" rx="11" ry="11" style="stroke:#181818;stroke-width:1.0;"/><path d="M396.3438,576.1719 C395.4063,575.7344 394.8125,575.5938 393.9375,575.5938 C391.3125,575.5938 389.3125,577.6719 389.3125,580.3906 L389.3125,581.5156 C389.3125,584.0938 391.4219,585.9844 394.3125,585.9844 C395.5313,585.9844 396.6875,585.6875 397.4375,585.1406 C398.0156,584.7344 398.3438,584.2813 398.3438,583.8906 C398.3438,583.4375 397.9531,583.0469 397.4844,583.0469 C397.2656,583.0469 397.0625,583.125 396.875,583.3125 C396.4219,583.7969 396.4219,583.7969 396.2344,583.8906 C395.8125,584.1563 395.125,584.2813 394.3594,584.2813 C392.3125,584.2813 391.0156,583.1875 391.0156,581.4844 L391.0156,580.3906 C391.0156,578.6094 392.2656,577.2969 394,577.2969 C394.5781,577.2969 395.1875,577.4531 395.6563,577.7031 C396.1406,577.9844 396.3125,578.2031 396.4063,578.6094 C396.4688,579.0156 396.5,579.1406 396.6406,579.2656 C396.7813,579.4063 397.0156,579.5156 397.2344,579.5156 C397.5,579.5156 397.7656,579.375 397.9375,579.1563 C398.0469,579 398.0781,578.8125 398.0781,578.3906 L398.0781,576.9688 C398.0781,576.5313 398.0625,576.4063 397.9688,576.25 C397.8125,575.9844 397.5313,575.8438 397.2344,575.8438 C396.9375,575.8438 396.7344,575.9375 396.5156,576.25 L396.3438,576.1719 Z " fill="#000000"/><text fill="#000000" font-family="sans-serif" font-size="14" lengthAdjust="spacing" textLength="56" x="408" y="585.3467">CLIView</text><line style="stroke:#181818;stroke-width:0.5;" x1="380" x2="466" y1="596.5" y2="596.5"/><line style="stroke:#181818;stroke-width:0.5;" x1="380" x2="466" y1="604.5" y2="604.5"/></g><!--class AObserver--><g id="elem_AObserver"><rect codeLine="35" fill="#F1F1F1" height="64.2969" id="AObserver" rx="2.5" ry="2.5" style="stroke:#181818;stroke-width:0.5;" width="444" x="943" y="931"/><ellipse cx="1123.25" cy="947" fill="#A9DCDF" rx="11" ry="11" style="stroke:#181818;stroke-width:1.0;"/><path d="M1125.3281,948.8125 L1125.7188,949.7969 L1125.3281,949.7969 C1124.875,949.7969 1124.7656,949.8125 1124.6094,949.9219 C1124.3594,950.0781 1124.2031,950.3594 1124.2031,950.6563 C1124.2031,950.9219 1124.3438,951.1719 1124.5625,951.3281 C1124.7031,951.4531 1124.9063,951.5 1125.3281,951.5 L1127.6875,951.5 C1128.0469,951.5 1128.2656,951.4688 1128.4063,951.375 C1128.6563,951.2344 1128.8125,950.9375 1128.8125,950.6563 C1128.8125,950.375 1128.6719,950.125 1128.4531,949.9688 C1128.2813,949.8281 1128.125,949.7969 1127.6563,949.7969 L1124.2656,941.5938 L1120.5938,941.5938 C1120.1406,941.5938 1120.0156,941.6094 1119.8594,941.7031 C1119.6094,941.875 1119.4531,942.1563 1119.4531,942.4375 C1119.4531,942.7188 1119.5938,942.9688 1119.8125,943.1406 C1119.9844,943.25 1120.1563,943.2813 1120.5938,943.2813 L1121.6719,943.2813 L1119.0313,949.7969 C1118.6094,949.7969 1118.4531,949.8125 1118.2969,949.9219 C1118.0469,950.0781 1117.8906,950.3594 1117.8906,950.6563 C1117.8906,951.2188 1118.2656,951.5 1119.0156,951.5 L1121.2813,951.5 C1121.6406,951.5 1121.8594,951.4688 1121.9844,951.375 C1122.25,951.2344 1122.3906,950.9375 1122.3906,950.6563 C1122.3906,950.375 1122.2656,950.125 1122.0469,949.9531 C1121.875,949.8281 1121.7344,949.7969 1121.2813,949.7969 L1120.8906,949.7969 L1121.2813,948.8125 L1125.3281,948.8125 Z M1124.625,947.1094 L1121.9531,947.1094 L1123.2969,943.8438 L1124.625,947.1094 Z " fill="#000000"/><text fill="#000000" font-family="sans-serif" font-size="14" font-style="italic" lengthAdjust="spacing" textLength="75" x="1143.75" y="951.8467">AObserver</text><line style="stroke:#181818;stroke-width:0.5;" x1="944" x2="1386" y1="963" y2="963"/><line style="stroke:#181818;stroke-width:0.5;" x1="944" x2="1386" y1="971" y2="971"/><ellipse cx="954" cy="984.6484" fill="#84BE84" rx="3" ry="3" style="stroke:#038048;stroke-width:1.0;"/><text fill="#000000" font-family="sans-serif" font-size="14" lengthAdjust="spacing" textLength="418" x="963" y="987.9951">void update(data: Any, identifier: EModelUpdateIdentifier)</text></g><!--class Model--><g id="elem_Model"><rect codeLine="39" fill="#F1F1F1" height="170.3438" id="Model" rx="2.5" ry="2.5" style="stroke:#181818;stroke-width:0.5;" width="668" x="1422" y="878"/><ellipse cx="1713.25" cy="898.1328" fill="#ADD1B2" rx="11" ry="11" style="stroke:#181818;stroke-width:1.0;"/><path d="M1715.5938,893.8047 C1714.6563,893.3672 1714.0625,893.2266 1713.1875,893.2266 C1710.5625,893.2266 1708.5625,895.3047 1708.5625,898.0234 L1708.5625,899.1484 C1708.5625,901.7266 1710.6719,903.6172 1713.5625,903.6172 C1714.7813,903.6172 1715.9375,903.3203 1716.6875,902.7734 C1717.2656,902.3672 1717.5938,901.9141 1717.5938,901.5234 C1717.5938,901.0703 1717.2031,900.6797 1716.7344,900.6797 C1716.5156,900.6797 1716.3125,900.7578 1716.125,900.9453 C1715.6719,901.4297 1715.6719,901.4297 1715.4844,901.5234 C1715.0625,901.7891 1714.375,901.9141 1713.6094,901.9141 C1711.5625,901.9141 1710.2656,900.8203 1710.2656,899.1172 L1710.2656,898.0234 C1710.2656,896.2422 1711.5156,894.9297 1713.25,894.9297 C1713.8281,894.9297 1714.4375,895.0859 1714.9063,895.3359 C1715.3906,895.6172 1715.5625,895.8359 1715.6563,896.2422 C1715.7188,896.6484 1715.75,896.7734 1715.8906,896.8984 C1716.0313,897.0391 1716.2656,897.1484 1716.4844,897.1484 C1716.75,897.1484 1717.0156,897.0078 1717.1875,896.7891 C1717.2969,896.6328 1717.3281,896.4453 1717.3281,896.0234 L1717.3281,894.6016 C1717.3281,894.1641 1717.3125,894.0391 1717.2188,893.8828 C1717.0625,893.6172 1716.7813,893.4766 1716.4844,893.4766 C1716.1875,893.4766 1715.9844,893.5703 1715.7656,893.8828 L1715.5938,893.8047 Z " fill="#000000"/><text fill="#000000" font-family="sans-serif" font-size="12" font-style="italic" lengthAdjust="spacing" textLength="81" x="1731.75" y="894.1387">&#171;Observable&#187;</text><text fill="#000000" font-family="sans-serif" font-size="14" lengthAdjust="spacing" textLength="43" x="1750.75" y="909.9639">Model</text><line style="stroke:#181818;stroke-width:0.5;" x1="1423" x2="2089" y1="918.2656" y2="918.2656"/><rect fill="none" height="6" style="stroke:#C82930;stroke-width:1.0;" width="6" x="1430" y="928.9141"/><text fill="#000000" font-family="sans-serif" font-size="14" lengthAdjust="spacing" textLength="166" x="1442" y="935.2607">List[str] primer_history</text><line style="stroke:#181818;stroke-width:0.5;" x1="1423" x2="2089" y1="942.5625" y2="942.5625"/><rect fill="#F24D5C" height="6" style="stroke:#C82930;stroke-width:1.0;" width="6" x="1430" y="953.2109"/><text fill="#000000" font-family="sans-serif" font-size="14" lengthAdjust="spacing" textLength="642" x="1442" y="959.5576">Model(raw_stimuli: List[Stimulus], auditory_stimulus_factories: List[AAudioTaggerFactory])</text><rect fill="#F24D5C" height="6" style="stroke:#C82930;stroke-width:1.0;" width="6" x="1430" y="969.5078"/><text fill="#000000" font-family="sans-serif" font-size="14" lengthAdjust="spacing" textLength="410" x="1442" y="975.8545">void notify(data: Any, identifier: EModelUpdateIdentifier)</text><ellipse cx="1433" cy="988.8047" fill="#84BE84" rx="3" ry="3" style="stroke:#038048;stroke-width:1.0;"/><text fill="#000000" font-family="sans-serif" font-size="14" lengthAdjust="spacing" textLength="218" x="1442" y="992.1514">void register(view: AObserver)</text><ellipse cx="1433" cy="1005.1016" fill="#84BE84" rx="3" ry="3" style="stroke:#038048;stroke-width:1.0;"/><text fill="#000000" font-family="sans-serif" font-size="14" lengthAdjust="spacing" textLength="326" x="1442" y="1008.4482">void new_stimulus(stimulus: CreatedStimulus)</text><ellipse cx="1433" cy="1021.3984" fill="#84BE84" rx="3" ry="3" style="stroke:#038048;stroke-width:1.0;"/><text fill="#000000" font-family="sans-serif" font-size="14" lengthAdjust="spacing" textLength="316" x="1442" y="1024.7451">void new_primer(stimulus: CreatedStimulus)</text><ellipse cx="1433" cy="1037.6953" fill="#84BE84" rx="3" ry="3" style="stroke:#038048;stroke-width:1.0;"/><text fill="#000000" font-family="sans-serif" font-size="14" lengthAdjust="spacing" textLength="450" x="1442" y="1041.042">void change_experiment_state(new_state: EExperimentState)</text></g><!--class Logger--><g id="elem_Logger"><rect codeLine="50" fill="#F1F1F1" height="88.8594" id="Logger" rx="2.5" ry="2.5" style="stroke:#181818;stroke-width:0.5;" width="284" x="1018" y="1190.5"/><ellipse cx="1123.75" cy="1210.6328" fill="#ADD1B2" rx="11" ry="11" style="stroke:#181818;stroke-width:1.0;"/><path d="M1126.0938,1206.3047 C1125.1563,1205.8672 1124.5625,1205.7266 1123.6875,1205.7266 C1121.0625,1205.7266 1119.0625,1207.8047 1119.0625,1210.5234 L1119.0625,1211.6484 C1119.0625,1214.2266 1121.1719,1216.1172 1124.0625,1216.1172 C1125.2813,1216.1172 1126.4375,1215.8203 1127.1875,1215.2734 C1127.7656,1214.8672 1128.0938,1214.4141 1128.0938,1214.0234 C1128.0938,1213.5703 1127.7031,1213.1797 1127.2344,1213.1797 C1127.0156,1213.1797 1126.8125,1213.2578 1126.625,1213.4453 C1126.1719,1213.9297 1126.1719,1213.9297 1125.9844,1214.0234 C1125.5625,1214.2891 1124.875,1214.4141 1124.1094,1214.4141 C1122.0625,1214.4141 1120.7656,1213.3203 1120.7656,1211.6172 L1120.7656,1210.5234 C1120.7656,1208.7422 1122.0156,1207.4297 1123.75,1207.4297 C1124.3281,1207.4297 1124.9375,1207.5859 1125.4063,1207.8359 C1125.8906,1208.1172 1126.0625,1208.3359 1126.1563,1208.7422 C1126.2188,1209.1484 1126.25,1209.2734 1126.3906,1209.3984 C1126.5313,1209.5391 1126.7656,1209.6484 1126.9844,1209.6484 C1127.25,1209.6484 1127.5156,1209.5078 1127.6875,1209.2891 C1127.7969,1209.1328 1127.8281,1208.9453 1127.8281,1208.5234 L1127.8281,1207.1016 C1127.8281,1206.6641 1127.8125,1206.5391 1127.7188,1206.3828 C1127.5625,1206.1172 1127.2813,1205.9766 1126.9844,1205.9766 C1126.6875,1205.9766 1126.4844,1206.0703 1126.2656,1206.3828 L1126.0938,1206.3047 Z " fill="#000000"/><text fill="#000000" font-family="sans-serif" font-size="12" font-style="italic" lengthAdjust="spacing" textLength="68" x="1142.25" y="1206.6387">&#171;Observer&#187;</text><text fill="#000000" font-family="sans-serif" font-size="14" lengthAdjust="spacing" textLength="50" x="1151.25" y="1222.4639">Logger</text><line style="stroke:#181818;stroke-width:0.5;" x1="1019" x2="1301" y1="1230.7656" y2="1230.7656"/><rect fill="none" height="6" style="stroke:#C82930;stroke-width:1.0;" width="6" x="1026" y="1241.4141"/><text fill="#000000" font-family="sans-serif" font-size="14" lengthAdjust="spacing" textLength="166" x="1038" y="1247.7607">Path exports_directory</text><line style="stroke:#181818;stroke-width:0.5;" x1="1019" x2="1301" y1="1255.0625" y2="1255.0625"/><ellipse cx="1029" cy="1268.7109" fill="#84BE84" rx="3" ry="3" style="stroke:#038048;stroke-width:1.0;"/><text fill="#000000" font-family="sans-serif" font-size="14" lengthAdjust="spacing" textLength="258" x="1038" y="1272.0576">Logger(logging_directory: PathLike)</text></g><!--class Stimulus--><g id="elem_Stimulus"><rect codeLine="73" fill="#F1F1F1" height="113.1875" id="Stimulus" rx="2.5" ry="2.5" style="stroke:#181818;stroke-width:0.5;" width="286" x="2475" y="1178.5"/><ellipse cx="2583.25" cy="1194.5" fill="#ADD1B2" rx="11" ry="11" style="stroke:#181818;stroke-width:1.0;"/><path d="M2585.5938,1190.1719 C2584.6563,1189.7344 2584.0625,1189.5938 2583.1875,1189.5938 C2580.5625,1189.5938 2578.5625,1191.6719 2578.5625,1194.3906 L2578.5625,1195.5156 C2578.5625,1198.0938 2580.6719,1199.9844 2583.5625,1199.9844 C2584.7813,1199.9844 2585.9375,1199.6875 2586.6875,1199.1406 C2587.2656,1198.7344 2587.5938,1198.2813 2587.5938,1197.8906 C2587.5938,1197.4375 2587.2031,1197.0469 2586.7344,1197.0469 C2586.5156,1197.0469 2586.3125,1197.125 2586.125,1197.3125 C2585.6719,1197.7969 2585.6719,1197.7969 2585.4844,1197.8906 C2585.0625,1198.1563 2584.375,1198.2813 2583.6094,1198.2813 C2581.5625,1198.2813 2580.2656,1197.1875 2580.2656,1195.4844 L2580.2656,1194.3906 C2580.2656,1192.6094 2581.5156,1191.2969 2583.25,1191.2969 C2583.8281,1191.2969 2584.4375,1191.4531 2584.9063,1191.7031 C2585.3906,1191.9844 2585.5625,1192.2031 2585.6563,1192.6094 C2585.7188,1193.0156 2585.75,1193.1406 2585.8906,1193.2656 C2586.0313,1193.4063 2586.2656,1193.5156 2586.4844,1193.5156 C2586.75,1193.5156 2587.0156,1193.375 2587.1875,1193.1563 C2587.2969,1193 2587.3281,1192.8125 2587.3281,1192.3906 L2587.3281,1190.9688 C2587.3281,1190.5313 2587.3125,1190.4063 2587.2188,1190.25 C2587.0625,1189.9844 2586.7813,1189.8438 2586.4844,1189.8438 C2586.1875,1189.8438 2585.9844,1189.9375 2585.7656,1190.25 L2585.5938,1190.1719 Z " fill="#000000"/><text fill="#000000" font-family="sans-serif" font-size="14" lengthAdjust="spacing" textLength="61" x="2603.75" y="1199.3467">Stimulus</text><line style="stroke:#181818;stroke-width:0.5;" x1="2476" x2="2760" y1="1210.5" y2="1210.5"/><ellipse cx="2486" cy="1224.1484" fill="none" rx="3" ry="3" style="stroke:#038048;stroke-width:1.0;"/><text fill="#000000" font-family="sans-serif" font-size="14" lengthAdjust="spacing" textLength="80" x="2495" y="1227.4951">str prompt</text><ellipse cx="2486" cy="1240.4453" fill="none" rx="3" ry="3" style="stroke:#038048;stroke-width:1.0;"/><text fill="#000000" font-family="sans-serif" font-size="14" lengthAdjust="spacing" textLength="73" x="2495" y="1243.792">str primer</text><ellipse cx="2486" cy="1256.7422" fill="none" rx="3" ry="3" style="stroke:#038048;stroke-width:1.0;"/><text fill="#000000" font-family="sans-serif" font-size="14" lengthAdjust="spacing" textLength="115" x="2495" y="1260.0889">List[str] options</text><ellipse cx="2486" cy="1273.0391" fill="none" rx="3" ry="3" style="stroke:#038048;stroke-width:1.0;"/><text fill="#000000" font-family="sans-serif" font-size="14" lengthAdjust="spacing" textLength="260" x="2495" y="1276.3857">List[Tuple[float, float]] time_stamps</text><line style="stroke:#181818;stroke-width:0.5;" x1="2476" x2="2760" y1="1283.6875" y2="1283.6875"/></g><!--class CreatedStimulus--><g id="elem_CreatedStimulus"><rect codeLine="81" fill="#F1F1F1" height="162.0781" id="CreatedStimulus" rx="2.5" ry="2.5" style="stroke:#181818;stroke-width:0.5;" width="450" x="2393" y="882"/><ellipse cx="2554.25" cy="898" fill="#ADD1B2" rx="11" ry="11" style="stroke:#181818;stroke-width:1.0;"/><path d="M2556.5938,893.6719 C2555.6563,893.2344 2555.0625,893.0938 2554.1875,893.0938 C2551.5625,893.0938 2549.5625,895.1719 2549.5625,897.8906 L2549.5625,899.0156 C2549.5625,901.5938 2551.6719,903.4844 2554.5625,903.4844 C2555.7813,903.4844 2556.9375,903.1875 2557.6875,902.6406 C2558.2656,902.2344 2558.5938,901.7813 2558.5938,901.3906 C2558.5938,900.9375 2558.2031,900.5469 2557.7344,900.5469 C2557.5156,900.5469 2557.3125,900.625 2557.125,900.8125 C2556.6719,901.2969 2556.6719,901.2969 2556.4844,901.3906 C2556.0625,901.6563 2555.375,901.7813 2554.6094,901.7813 C2552.5625,901.7813 2551.2656,900.6875 2551.2656,898.9844 L2551.2656,897.8906 C2551.2656,896.1094 2552.5156,894.7969 2554.25,894.7969 C2554.8281,894.7969 2555.4375,894.9531 2555.9063,895.2031 C2556.3906,895.4844 2556.5625,895.7031 2556.6563,896.1094 C2556.7188,896.5156 2556.75,896.6406 2556.8906,896.7656 C2557.0313,896.9063 2557.2656,897.0156 2557.4844,897.0156 C2557.75,897.0156 2558.0156,896.875 2558.1875,896.6563 C2558.2969,896.5 2558.3281,896.3125 2558.3281,895.8906 L2558.3281,894.4688 C2558.3281,894.0313 2558.3125,893.9063 2558.2188,893.75 C2558.0625,893.4844 2557.7813,893.3438 2557.4844,893.3438 C2557.1875,893.3438 2556.9844,893.4375 2556.7656,893.75 L2556.5938,893.6719 Z " fill="#000000"/><text fill="#000000" font-family="sans-serif" font-size="14" lengthAdjust="spacing" textLength="119" x="2574.75" y="902.8467">CreatedStimulus</text><line style="stroke:#181818;stroke-width:0.5;" x1="2394" x2="2842" y1="914" y2="914"/><rect fill="none" height="6" style="stroke:#C82930;stroke-width:1.0;" width="6" x="2401" y="924.6484"/><text fill="#000000" font-family="sans-serif" font-size="14" lengthAdjust="spacing" textLength="124" x="2413" y="930.9951">Stimulus stimulus</text><ellipse cx="2404" cy="943.9453" fill="none" rx="3" ry="3" style="stroke:#038048;stroke-width:1.0;"/><text fill="#000000" font-family="sans-serif" font-size="14" lengthAdjust="spacing" textLength="226" x="2413" y="947.292">Optional[str] used_tagger_label</text><line style="stroke:#181818;stroke-width:0.5;" x1="2394" x2="2842" y1="954.5938" y2="954.5938"/><ellipse cx="2404" cy="968.2422" fill="#84BE84" rx="3" ry="3" style="stroke:#038048;stroke-width:1.0;"/><text fill="#000000" font-family="sans-serif" font-size="14" lengthAdjust="spacing" textLength="424" x="2413" y="971.5889">CreatedStimulus(stimulus: Stimulus, modified_audio: Audio)</text><ellipse cx="2404" cy="984.5391" fill="#84BE84" rx="3" ry="3" style="stroke:#038048;stroke-width:1.0;"/><text fill="#000000" font-family="sans-serif" font-size="14" lengthAdjust="spacing" textLength="90" x="2413" y="987.8857">str prompt()</text><ellipse cx="2404" cy="1000.8359" fill="#84BE84" rx="3" ry="3" style="stroke:#038048;stroke-width:1.0;"/><text fill="#000000" font-family="sans-serif" font-size="14" lengthAdjust="spacing" textLength="83" x="2413" y="1004.1826">str primer()</text><ellipse cx="2404" cy="1017.1328" fill="#84BE84" rx="3" ry="3" style="stroke:#038048;stroke-width:1.0;"/><text fill="#000000" font-family="sans-serif" font-size="14" lengthAdjust="spacing" textLength="125" x="2413" y="1020.4795">List[str] options()</text><ellipse cx="2404" cy="1033.4297" fill="#84BE84" rx="3" ry="3" style="stroke:#038048;stroke-width:1.0;"/><text fill="#000000" font-family="sans-serif" font-size="14" lengthAdjust="spacing" textLength="270" x="2413" y="1036.7764">List[Tuple[float, float]] time_stamps()</text></g><!--class EExperimentState--><g id="elem_EExperimentState"><rect codeLine="57" fill="#F1F1F1" height="145.7813" id="EExperimentState" rx="2.5" ry="2.5" style="stroke:#181818;stroke-width:0.5;" width="235" x="1372.5" y="1162"/><ellipse cx="1418.75" cy="1178" fill="#EB937F" rx="11" ry="11" style="stroke:#181818;stroke-width:1.0;"/><path d="M1417.5469,1178.875 L1419,1178.875 L1419,1178.9844 C1419,1179.3906 1419.0313,1179.5469 1419.1094,1179.7031 C1419.2656,1179.9531 1419.5469,1180.1094 1419.8438,1180.1094 C1420.0938,1180.1094 1420.3594,1179.9688 1420.5156,1179.75 C1420.6406,1179.5938 1420.6719,1179.4375 1420.6719,1178.9844 L1420.6719,1177.0625 C1420.6719,1176.9063 1420.6719,1176.8594 1420.6563,1176.7031 C1420.5938,1176.2344 1420.2813,1175.9219 1419.8281,1175.9219 C1419.5781,1175.9219 1419.3125,1176.0625 1419.1406,1176.2813 C1419.0313,1176.4531 1419,1176.6094 1419,1177.0625 L1419,1177.1875 L1417.5469,1177.1875 L1417.5469,1174.7813 L1421.5313,1174.7813 L1421.5313,1175.6406 C1421.5313,1176.0469 1421.5625,1176.2188 1421.6406,1176.375 C1421.8125,1176.625 1422.0938,1176.7813 1422.375,1176.7813 C1422.6406,1176.7813 1422.9063,1176.6406 1423.0781,1176.4219 C1423.1875,1176.25 1423.2188,1176.1094 1423.2188,1175.6406 L1423.2188,1173.0938 L1415.5938,1173.0938 C1415.1563,1173.0938 1415.0313,1173.1094 1414.875,1173.2031 C1414.625,1173.3594 1414.4688,1173.6563 1414.4688,1173.9375 C1414.4688,1174.2188 1414.6094,1174.4688 1414.8281,1174.6406 C1414.9844,1174.75 1415.1719,1174.7813 1415.5938,1174.7813 L1415.8438,1174.7813 L1415.8438,1181.2969 L1415.5938,1181.2969 C1415.1875,1181.2969 1415.0313,1181.3125 1414.875,1181.4219 C1414.625,1181.5938 1414.4688,1181.8594 1414.4688,1182.1563 C1414.4688,1182.4219 1414.6094,1182.6719 1414.8281,1182.8281 C1414.9688,1182.9531 1415.2031,1183 1415.5938,1183 L1423.5938,1183 L1423.5938,1180.4219 C1423.5938,1179.9844 1423.5625,1179.8438 1423.4844,1179.6875 C1423.3125,1179.4375 1423.0313,1179.2813 1422.75,1179.2813 C1422.4844,1179.2813 1422.2188,1179.3906 1422.0469,1179.6406 C1421.9375,1179.7969 1421.9063,1179.9375 1421.9063,1180.4219 L1421.9063,1181.2969 L1417.5469,1181.2969 L1417.5469,1178.875 Z " fill="#000000"/><text fill="#000000" font-family="sans-serif" font-size="14" lengthAdjust="spacing" textLength="134" x="1439.25" y="1182.8467">EExperimentState</text><line style="stroke:#181818;stroke-width:0.5;" x1="1373.5" x2="1606.5" y1="1194" y2="1194"/><text fill="#000000" font-family="sans-serif" font-size="14" lengthAdjust="spacing" textLength="66" x="1378.5" y="1210.9951">INACTIVE</text><text fill="#000000" font-family="sans-serif" font-size="14" lengthAdjust="spacing" textLength="108" x="1378.5" y="1227.292">INTRODUCTION</text><text fill="#000000" font-family="sans-serif" font-size="14" lengthAdjust="spacing" textLength="204" x="1378.5" y="1243.5889">RESTING_STATE_EYES_OPEN</text><text fill="#000000" font-family="sans-serif" font-size="14" lengthAdjust="spacing" textLength="223" x="1378.5" y="1259.8857">RESTING_STATE_EYES_CLOSED</text><text fill="#000000" font-family="sans-serif" font-size="14" lengthAdjust="spacing" textLength="206" x="1378.5" y="1276.1826">EXPERIMENT_INTRODUCTION</text><text fill="#000000" font-family="sans-serif" font-size="14" lengthAdjust="spacing" textLength="91" x="1378.5" y="1292.4795">EXPERIMENT</text><line style="stroke:#181818;stroke-width:0.5;" x1="1373.5" x2="1606.5" y1="1299.7813" y2="1299.7813"/></g><!--class EModelUpdateIdentifier--><g id="elem_EModelUpdateIdentifier"><rect codeLine="66" fill="#F1F1F1" height="96.8906" id="EModelUpdateIdentifier" rx="2.5" ry="2.5" style="stroke:#181818;stroke-width:0.5;" width="234" x="1643" y="1186.5"/><ellipse cx="1671.95" cy="1202.5" fill="#EB937F" rx="11" ry="11" style="stroke:#181818;stroke-width:1.0;"/><path d="M1670.7469,1203.375 L1672.2,1203.375 L1672.2,1203.4844 C1672.2,1203.8906 1672.2313,1204.0469 1672.3094,1204.2031 C1672.4656,1204.4531 1672.7469,1204.6094 1673.0438,1204.6094 C1673.2938,1204.6094 1673.5594,1204.4688 1673.7156,1204.25 C1673.8406,1204.0938 1673.8719,1203.9375 1673.8719,1203.4844 L1673.8719,1201.5625 C1673.8719,1201.4063 1673.8719,1201.3594 1673.8563,1201.2031 C1673.7938,1200.7344 1673.4813,1200.4219 1673.0281,1200.4219 C1672.7781,1200.4219 1672.5125,1200.5625 1672.3406,1200.7813 C1672.2313,1200.9531 1672.2,1201.1094 1672.2,1201.5625 L1672.2,1201.6875 L1670.7469,1201.6875 L1670.7469,1199.2813 L1674.7313,1199.2813 L1674.7313,1200.1406 C1674.7313,1200.5469 1674.7625,1200.7188 1674.8406,1200.875 C1675.0125,1201.125 1675.2938,1201.2813 1675.575,1201.2813 C1675.8406,1201.2813 1676.1063,1201.1406 1676.2781,1200.9219 C1676.3875,1200.75 1676.4188,1200.6094 1676.4188,1200.1406 L1676.4188,1197.5938 L1668.7938,1197.5938 C1668.3563,1197.5938 1668.2313,1197.6094 1668.075,1197.7031 C1667.825,1197.8594 1667.6688,1198.1563 1667.6688,1198.4375 C1667.6688,1198.7188 1667.8094,1198.9688 1668.0281,1199.1406 C1668.1844,1199.25 1668.3719,1199.2813 1668.7938,1199.2813 L1669.0438,1199.2813 L1669.0438,1205.7969 L1668.7938,1205.7969 C1668.3875,1205.7969 1668.2313,1205.8125 1668.075,1205.9219 C1667.825,1206.0938 1667.6688,1206.3594 1667.6688,1206.6563 C1667.6688,1206.9219 1667.8094,1207.1719 1668.0281,1207.3281 C1668.1688,1207.4531 1668.4031,1207.5 1668.7938,1207.5 L1676.7938,1207.5 L1676.7938,1204.9219 C1676.7938,1204.4844 1676.7625,1204.3438 1676.6844,1204.1875 C1676.5125,1203.9375 1676.2313,1203.7813 1675.95,1203.7813 C1675.6844,1203.7813 1675.4188,1203.8906 1675.2469,1204.1406 C1675.1375,1204.2969 1675.1063,1204.4375 1675.1063,1204.9219 L1675.1063,1205.7969 L1670.7469,1205.7969 L1670.7469,1203.375 Z " fill="#000000"/><text fill="#000000" font-family="sans-serif" font-size="14" lengthAdjust="spacing" textLength="171" x="1689.05" y="1207.3467">EModelUpdateIdentifier</text><line style="stroke:#181818;stroke-width:0.5;" x1="1644" x2="1876" y1="1218.5" y2="1218.5"/><text fill="#000000" font-family="sans-serif" font-size="14" lengthAdjust="spacing" textLength="109" x="1649" y="1235.4951">NEW_STIMULUS</text><text fill="#000000" font-family="sans-serif" font-size="14" lengthAdjust="spacing" textLength="94" x="1649" y="1251.792">NEW_PRIMER</text><text fill="#000000" font-family="sans-serif" font-size="14" lengthAdjust="spacing" textLength="222" x="1649" y="1268.0889">EXPERIMENT_STATE_CHANGED</text><line style="stroke:#181818;stroke-width:0.5;" x1="1644" x2="1876" y1="1275.3906" y2="1275.3906"/></g><!--class AAuditoryTagger--><g id="elem_AAuditoryTagger"><rect codeLine="108" fill="#F1F1F1" height="96.8906" id="AAuditoryTagger" rx="2.5" ry="2.5" style="stroke:#181818;stroke-width:0.5;" width="273" x="2618.5" y="49"/><ellipse cx="2690.25" cy="65" fill="#A9DCDF" rx="11" ry="11" style="stroke:#181818;stroke-width:1.0;"/><path d="M2692.3281,66.8125 L2692.7188,67.7969 L2692.3281,67.7969 C2691.875,67.7969 2691.7656,67.8125 2691.6094,67.9219 C2691.3594,68.0781 2691.2031,68.3594 2691.2031,68.6563 C2691.2031,68.9219 2691.3438,69.1719 2691.5625,69.3281 C2691.7031,69.4531 2691.9063,69.5 2692.3281,69.5 L2694.6875,69.5 C2695.0469,69.5 2695.2656,69.4688 2695.4063,69.375 C2695.6563,69.2344 2695.8125,68.9375 2695.8125,68.6563 C2695.8125,68.375 2695.6719,68.125 2695.4531,67.9688 C2695.2813,67.8281 2695.125,67.7969 2694.6563,67.7969 L2691.2656,59.5938 L2687.5938,59.5938 C2687.1406,59.5938 2687.0156,59.6094 2686.8594,59.7031 C2686.6094,59.875 2686.4531,60.1563 2686.4531,60.4375 C2686.4531,60.7188 2686.5938,60.9688 2686.8125,61.1406 C2686.9844,61.25 2687.1563,61.2813 2687.5938,61.2813 L2688.6719,61.2813 L2686.0313,67.7969 C2685.6094,67.7969 2685.4531,67.8125 2685.2969,67.9219 C2685.0469,68.0781 2684.8906,68.3594 2684.8906,68.6563 C2684.8906,69.2188 2685.2656,69.5 2686.0156,69.5 L2688.2813,69.5 C2688.6406,69.5 2688.8594,69.4688 2688.9844,69.375 C2689.25,69.2344 2689.3906,68.9375 2689.3906,68.6563 C2689.3906,68.375 2689.2656,68.125 2689.0469,67.9531 C2688.875,67.8281 2688.7344,67.7969 2688.2813,67.7969 L2687.8906,67.7969 L2688.2813,66.8125 L2692.3281,66.8125 Z M2691.625,65.1094 L2688.9531,65.1094 L2690.2969,61.8438 L2691.625,65.1094 Z " fill="#000000"/><text fill="#000000" font-family="sans-serif" font-size="14" font-style="italic" lengthAdjust="spacing" textLength="121" x="2710.75" y="69.8467">AAuditoryTagger</text><line style="stroke:#181818;stroke-width:0.5;" x1="2619.5" x2="2890.5" y1="81" y2="81"/><polygon fill="none" points="2629.5,89.6484,2633.5,93.6484,2629.5,97.6484,2625.5,93.6484" style="stroke:#B38D22;stroke-width:1.0;"/><text fill="#000000" font-family="sans-serif" font-size="14" lengthAdjust="spacing" textLength="247" x="2638.5" y="97.9951">list[ [float, float] ] stimuli_intervals</text><line style="stroke:#181818;stroke-width:0.5;" x1="2619.5" x2="2890.5" y1="105.2969" y2="105.2969"/><ellipse cx="2629.5" cy="118.9453" fill="#84BE84" rx="3" ry="3" style="stroke:#038048;stroke-width:1.0;"/><text fill="#000000" font-family="sans-serif" font-size="14" lengthAdjust="spacing" textLength="225" x="2638.5" y="122.292">AAuditoryTagger(audio, stimuli)</text><ellipse cx="2629.5" cy="135.2422" fill="#84BE84" rx="3" ry="3" style="stroke:#038048;stroke-width:1.0;"/><text fill="#000000" font-family="sans-serif" font-size="14" font-style="italic" lengthAdjust="spacing" textLength="101" x="2638.5" y="138.5889">Audio create()</text></g><!--class AAudioTaggerFactory--><g id="elem_AAudioTaggerFactory"><rect codeLine="118" fill="#F1F1F1" height="64.2969" id="AAudioTaggerFactory" rx="2.5" ry="2.5" style="stroke:#181818;stroke-width:0.5;" width="693" x="1676.5" y="714"/><ellipse cx="1941.25" cy="730" fill="#A9DCDF" rx="11" ry="11" style="stroke:#181818;stroke-width:1.0;"/><path d="M1943.3281,731.8125 L1943.7188,732.7969 L1943.3281,732.7969 C1942.875,732.7969 1942.7656,732.8125 1942.6094,732.9219 C1942.3594,733.0781 1942.2031,733.3594 1942.2031,733.6563 C1942.2031,733.9219 1942.3438,734.1719 1942.5625,734.3281 C1942.7031,734.4531 1942.9063,734.5 1943.3281,734.5 L1945.6875,734.5 C1946.0469,734.5 1946.2656,734.4688 1946.4063,734.375 C1946.6563,734.2344 1946.8125,733.9375 1946.8125,733.6563 C1946.8125,733.375 1946.6719,733.125 1946.4531,732.9688 C1946.2813,732.8281 1946.125,732.7969 1945.6563,732.7969 L1942.2656,724.5938 L1938.5938,724.5938 C1938.1406,724.5938 1938.0156,724.6094 1937.8594,724.7031 C1937.6094,724.875 1937.4531,725.1563 1937.4531,725.4375 C1937.4531,725.7188 1937.5938,725.9688 1937.8125,726.1406 C1937.9844,726.25 1938.1563,726.2813 1938.5938,726.2813 L1939.6719,726.2813 L1937.0313,732.7969 C1936.6094,732.7969 1936.4531,732.8125 1936.2969,732.9219 C1936.0469,733.0781 1935.8906,733.3594 1935.8906,733.6563 C1935.8906,734.2188 1936.2656,734.5 1937.0156,734.5 L1939.2813,734.5 C1939.6406,734.5 1939.8594,734.4688 1939.9844,734.375 C1940.25,734.2344 1940.3906,733.9375 1940.3906,733.6563 C1940.3906,733.375 1940.2656,733.125 1940.0469,732.9531 C1939.875,732.8281 1939.7344,732.7969 1939.2813,732.7969 L1938.8906,732.7969 L1939.2813,731.8125 L1943.3281,731.8125 Z M1942.625,730.1094 L1939.9531,730.1094 L1941.2969,726.8438 L1942.625,730.1094 Z " fill="#000000"/><text fill="#000000" font-family="sans-serif" font-size="14" font-style="italic" lengthAdjust="spacing" textLength="155" x="1961.75" y="734.8467">AAudioTaggerFactory</text><line style="stroke:#181818;stroke-width:0.5;" x1="1677.5" x2="2368.5" y1="746" y2="746"/><line style="stroke:#181818;stroke-width:0.5;" x1="1677.5" x2="2368.5" y1="754" y2="754"/><ellipse cx="1687.5" cy="767.6484" fill="#84BE84" rx="3" ry="3" style="stroke:#038048;stroke-width:1.0;"/><text fill="#000000" font-family="sans-serif" font-size="14" font-style="italic" lengthAdjust="spacing" textLength="667" x="1696.5" y="770.9951">AAudioTagger create_auditory_stimulus(audio: Audio, stimuli_intervals: List[Tuple[float, float])</text></g><!--class NoiseTaggingTagger--><g id="elem_NoiseTaggingTagger"><rect codeLine="155" fill="#F1F1F1" height="178.375" id="NoiseTaggingTagger" rx="2.5" ry="2.5" style="stroke:#181818;stroke-width:0.5;" width="625" x="1326.5" y="248.5"/><ellipse cx="1561.75" cy="264.5" fill="#ADD1B2" rx="11" ry="11" style="stroke:#181818;stroke-width:1.0;"/><path d="M1564.0938,260.1719 C1563.1563,259.7344 1562.5625,259.5938 1561.6875,259.5938 C1559.0625,259.5938 1557.0625,261.6719 1557.0625,264.3906 L1557.0625,265.5156 C1557.0625,268.0938 1559.1719,269.9844 1562.0625,269.9844 C1563.2813,269.9844 1564.4375,269.6875 1565.1875,269.1406 C1565.7656,268.7344 1566.0938,268.2813 1566.0938,267.8906 C1566.0938,267.4375 1565.7031,267.0469 1565.2344,267.0469 C1565.0156,267.0469 1564.8125,267.125 1564.625,267.3125 C1564.1719,267.7969 1564.1719,267.7969 1563.9844,267.8906 C1563.5625,268.1563 1562.875,268.2813 1562.1094,268.2813 C1560.0625,268.2813 1558.7656,267.1875 1558.7656,265.4844 L1558.7656,264.3906 C1558.7656,262.6094 1560.0156,261.2969 1561.75,261.2969 C1562.3281,261.2969 1562.9375,261.4531 1563.4063,261.7031 C1563.8906,261.9844 1564.0625,262.2031 1564.1563,262.6094 C1564.2188,263.0156 1564.25,263.1406 1564.3906,263.2656 C1564.5313,263.4063 1564.7656,263.5156 1564.9844,263.5156 C1565.25,263.5156 1565.5156,263.375 1565.6875,263.1563 C1565.7969,263 1565.8281,262.8125 1565.8281,262.3906 L1565.8281,260.9688 C1565.8281,260.5313 1565.8125,260.4063 1565.7188,260.25 C1565.5625,259.9844 1565.2813,259.8438 1564.9844,259.8438 C1564.6875,259.8438 1564.4844,259.9375 1564.2656,260.25 L1564.0938,260.1719 Z " fill="#000000"/><text fill="#000000" font-family="sans-serif" font-size="14" lengthAdjust="spacing" textLength="146" x="1582.25" y="269.3467">NoiseTaggingTagger</text><line style="stroke:#181818;stroke-width:0.5;" x1="1327.5" x2="1950.5" y1="280.5" y2="280.5"/><rect fill="none" height="6" style="stroke:#C82930;stroke-width:1.0;" width="6" x="1334.5" y="291.1484"/><text fill="#000000" font-family="sans-serif" font-size="14" lengthAdjust="spacing" textLength="130" x="1346.5" y="297.4951">Optional[int] seed</text><rect fill="none" height="6" style="stroke:#C82930;stroke-width:1.0;" width="6" x="1334.5" y="307.4453"/><text fill="#000000" font-family="sans-serif" font-size="14" lengthAdjust="spacing" textLength="92" x="1346.5" y="313.792">int bit_width</text><rect fill="none" height="6" style="stroke:#C82930;stroke-width:1.0;" width="6" x="1334.5" y="323.7422"/><text fill="#000000" font-family="sans-serif" font-size="14" lengthAdjust="spacing" textLength="99" x="1346.5" y="330.0889">int length_bit</text><ellipse cx="1337.5" cy="343.0391" fill="none" rx="3" ry="3" style="stroke:#038048;stroke-width:1.0;"/><text fill="#000000" font-family="sans-serif" font-size="14" lengthAdjust="spacing" textLength="148" x="1346.5" y="346.3857">Optional[Code] code</text><line style="stroke:#181818;stroke-width:0.5;" x1="1327.5" x2="1950.5" y1="353.6875" y2="353.6875"/><ellipse cx="1337.5" cy="367.3359" fill="#84BE84" rx="3" ry="3" style="stroke:#038048;stroke-width:1.0;"/><text fill="#000000" font-family="sans-serif" font-size="14" lengthAdjust="spacing" textLength="599" x="1346.5" y="370.6826">NoiseTaggingTagger(audio, stimuli_intervals, bits_per_second: int, length_bit, seed)</text><ellipse cx="1337.5" cy="383.6328" fill="#84BE84" rx="3" ry="3" style="stroke:#038048;stroke-width:1.0;"/><text fill="#000000" font-family="sans-serif" font-size="14" lengthAdjust="spacing" textLength="101" x="1346.5" y="386.9795">Audio create()</text><rect fill="#F24D5C" height="6" style="stroke:#C82930;stroke-width:1.0;" width="6" x="1334.5" y="396.9297"/><text fill="#000000" font-family="sans-serif" font-size="14" lengthAdjust="spacing" textLength="166" x="1346.5" y="403.2764">void __generate_code()</text><rect fill="#F24D5C" height="6" style="stroke:#C82930;stroke-width:1.0;" width="6" x="1334.5" y="413.2266"/><text fill="#000000" font-family="sans-serif" font-size="14" lengthAdjust="spacing" textLength="201" x="1346.5" y="419.5732">void __get_code(length: int)</text></g><!--class NoiseTaggingTaggerFactory--><g id="elem_NoiseTaggingTaggerFactory"><rect codeLine="167" fill="#F1F1F1" height="129.4844" id="NoiseTaggingTaggerFactory" rx="2.5" ry="2.5" style="stroke:#181818;stroke-width:0.5;" width="697" x="942.5" y="524"/><ellipse cx="1186.75" cy="540" fill="#ADD1B2" rx="11" ry="11" style="stroke:#181818;stroke-width:1.0;"/><path d="M1189.0938,535.6719 C1188.1563,535.2344 1187.5625,535.0938 1186.6875,535.0938 C1184.0625,535.0938 1182.0625,537.1719 1182.0625,539.8906 L1182.0625,541.0156 C1182.0625,543.5938 1184.1719,545.4844 1187.0625,545.4844 C1188.2813,545.4844 1189.4375,545.1875 1190.1875,544.6406 C1190.7656,544.2344 1191.0938,543.7813 1191.0938,543.3906 C1191.0938,542.9375 1190.7031,542.5469 1190.2344,542.5469 C1190.0156,542.5469 1189.8125,542.625 1189.625,542.8125 C1189.1719,543.2969 1189.1719,543.2969 1188.9844,543.3906 C1188.5625,543.6563 1187.875,543.7813 1187.1094,543.7813 C1185.0625,543.7813 1183.7656,542.6875 1183.7656,540.9844 L1183.7656,539.8906 C1183.7656,538.1094 1185.0156,536.7969 1186.75,536.7969 C1187.3281,536.7969 1187.9375,536.9531 1188.4063,537.2031 C1188.8906,537.4844 1189.0625,537.7031 1189.1563,538.1094 C1189.2188,538.5156 1189.25,538.6406 1189.3906,538.7656 C1189.5313,538.9063 1189.7656,539.0156 1189.9844,539.0156 C1190.25,539.0156 1190.5156,538.875 1190.6875,538.6563 C1190.7969,538.5 1190.8281,538.3125 1190.8281,537.8906 L1190.8281,536.4688 C1190.8281,536.0313 1190.8125,535.9063 1190.7188,535.75 C1190.5625,535.4844 1190.2813,535.3438 1189.9844,535.3438 C1189.6875,535.3438 1189.4844,535.4375 1189.2656,535.75 L1189.0938,535.6719 Z " fill="#000000"/><text fill="#000000" font-family="sans-serif" font-size="14" lengthAdjust="spacing" textLength="200" x="1207.25" y="544.8467">NoiseTaggingTaggerFactory</text><line style="stroke:#181818;stroke-width:0.5;" x1="943.5" x2="1638.5" y1="556" y2="556"/><rect fill="none" height="6" style="stroke:#C82930;stroke-width:1.0;" width="6" x="950.5" y="566.6484"/><text fill="#000000" font-family="sans-serif" font-size="14" lengthAdjust="spacing" textLength="142" x="962.5" y="572.9951">int bits_per_second</text><rect fill="none" height="6" style="stroke:#C82930;stroke-width:1.0;" width="6" x="950.5" y="582.9453"/><text fill="#000000" font-family="sans-serif" font-size="14" lengthAdjust="spacing" textLength="99" x="962.5" y="589.292">int length_bit</text><rect fill="none" height="6" style="stroke:#C82930;stroke-width:1.0;" width="6" x="950.5" y="599.2422"/><text fill="#000000" font-family="sans-serif" font-size="14" lengthAdjust="spacing" textLength="130" x="962.5" y="605.5889">Optional[int] seed</text><line style="stroke:#181818;stroke-width:0.5;" x1="943.5" x2="1638.5" y1="612.8906" y2="612.8906"/><ellipse cx="953.5" cy="626.5391" fill="#84BE84" rx="3" ry="3" style="stroke:#038048;stroke-width:1.0;"/><text fill="#000000" font-family="sans-serif" font-size="14" lengthAdjust="spacing" textLength="453" x="962.5" y="629.8857">NoiseTaggingTaggerFactory(bits_per_second, length_bit, seed)</text><ellipse cx="953.5" cy="642.8359" fill="#84BE84" rx="3" ry="3" style="stroke:#038048;stroke-width:1.0;"/><text fill="#000000" font-family="sans-serif" font-size="14" lengthAdjust="spacing" textLength="671" x="962.5" y="646.1826">AAudioTagger create_auditory_stimulus(audio: Audio, stimuli_intervals: List[Tuple[float, float])</text></g><!--class RawTagger--><g id="elem_RawTagger"><rect codeLine="176" fill="#F1F1F1" height="64.2969" id="RawTagger" rx="2.5" ry="2.5" style="stroke:#181818;stroke-width:0.5;" width="127" x="2174.5" y="305.5"/><ellipse cx="2196.7" cy="321.5" fill="#ADD1B2" rx="11" ry="11" style="stroke:#181818;stroke-width:1.0;"/><path d="M2199.0438,317.1719 C2198.1063,316.7344 2197.5125,316.5938 2196.6375,316.5938 C2194.0125,316.5938 2192.0125,318.6719 2192.0125,321.3906 L2192.0125,322.5156 C2192.0125,325.0938 2194.1219,326.9844 2197.0125,326.9844 C2198.2313,326.9844 2199.3875,326.6875 2200.1375,326.1406 C2200.7156,325.7344 2201.0438,325.2813 2201.0438,324.8906 C2201.0438,324.4375 2200.6531,324.0469 2200.1844,324.0469 C2199.9656,324.0469 2199.7625,324.125 2199.575,324.3125 C2199.1219,324.7969 2199.1219,324.7969 2198.9344,324.8906 C2198.5125,325.1563 2197.825,325.2813 2197.0594,325.2813 C2195.0125,325.2813 2193.7156,324.1875 2193.7156,322.4844 L2193.7156,321.3906 C2193.7156,319.6094 2194.9656,318.2969 2196.7,318.2969 C2197.2781,318.2969 2197.8875,318.4531 2198.3563,318.7031 C2198.8406,318.9844 2199.0125,319.2031 2199.1063,319.6094 C2199.1688,320.0156 2199.2,320.1406 2199.3406,320.2656 C2199.4813,320.4063 2199.7156,320.5156 2199.9344,320.5156 C2200.2,320.5156 2200.4656,320.375 2200.6375,320.1563 C2200.7469,320 2200.7781,319.8125 2200.7781,319.3906 L2200.7781,317.9688 C2200.7781,317.5313 2200.7625,317.4063 2200.6688,317.25 C2200.5125,316.9844 2200.2313,316.8438 2199.9344,316.8438 C2199.6375,316.8438 2199.4344,316.9375 2199.2156,317.25 L2199.0438,317.1719 Z " fill="#000000"/><text fill="#000000" font-family="sans-serif" font-size="14" lengthAdjust="spacing" textLength="79" x="2212.3" y="326.3467">RawTagger</text><line style="stroke:#181818;stroke-width:0.5;" x1="2175.5" x2="2300.5" y1="337.5" y2="337.5"/><line style="stroke:#181818;stroke-width:0.5;" x1="2175.5" x2="2300.5" y1="345.5" y2="345.5"/><ellipse cx="2185.5" cy="359.1484" fill="#84BE84" rx="3" ry="3" style="stroke:#038048;stroke-width:1.0;"/><text fill="#000000" font-family="sans-serif" font-size="14" lengthAdjust="spacing" textLength="101" x="2194.5" y="362.4951">Audio create()</text></g><!--class RawTaggerFactory--><g id="elem_RawTaggerFactory"><rect codeLine="180" fill="#F1F1F1" height="64.2969" id="RawTaggerFactory" rx="2.5" ry="2.5" style="stroke:#181818;stroke-width:0.5;" width="697" x="1674.5" y="556.5"/><ellipse cx="1952.25" cy="572.5" fill="#ADD1B2" rx="11" ry="11" style="stroke:#181818;stroke-width:1.0;"/><path d="M1954.5938,568.1719 C1953.6563,567.7344 1953.0625,567.5938 1952.1875,567.5938 C1949.5625,567.5938 1947.5625,569.6719 1947.5625,572.3906 L1947.5625,573.5156 C1947.5625,576.0938 1949.6719,577.9844 1952.5625,577.9844 C1953.7813,577.9844 1954.9375,577.6875 1955.6875,577.1406 C1956.2656,576.7344 1956.5938,576.2813 1956.5938,575.8906 C1956.5938,575.4375 1956.2031,575.0469 1955.7344,575.0469 C1955.5156,575.0469 1955.3125,575.125 1955.125,575.3125 C1954.6719,575.7969 1954.6719,575.7969 1954.4844,575.8906 C1954.0625,576.1563 1953.375,576.2813 1952.6094,576.2813 C1950.5625,576.2813 1949.2656,575.1875 1949.2656,573.4844 L1949.2656,572.3906 C1949.2656,570.6094 1950.5156,569.2969 1952.25,569.2969 C1952.8281,569.2969 1953.4375,569.4531 1953.9063,569.7031 C1954.3906,569.9844 1954.5625,570.2031 1954.6563,570.6094 C1954.7188,571.0156 1954.75,571.1406 1954.8906,571.2656 C1955.0313,571.4063 1955.2656,571.5156 1955.4844,571.5156 C1955.75,571.5156 1956.0156,571.375 1956.1875,571.1563 C1956.2969,571 1956.3281,570.8125 1956.3281,570.3906 L1956.3281,568.9688 C1956.3281,568.5313 1956.3125,568.4063 1956.2188,568.25 C1956.0625,567.9844 1955.7813,567.8438 1955.4844,567.8438 C1955.1875,567.8438 1954.9844,567.9375 1954.7656,568.25 L1954.5938,568.1719 Z " fill="#000000"/><text fill="#000000" font-family="sans-serif" font-size="14" lengthAdjust="spacing" textLength="133" x="1972.75" y="577.3467">RawTaggerFactory</text><line style="stroke:#181818;stroke-width:0.5;" x1="1675.5" x2="2370.5" y1="588.5" y2="588.5"/><line style="stroke:#181818;stroke-width:0.5;" x1="1675.5" x2="2370.5" y1="596.5" y2="596.5"/><ellipse cx="1685.5" cy="610.1484" fill="#84BE84" rx="3" ry="3" style="stroke:#038048;stroke-width:1.0;"/><text fill="#000000" font-family="sans-serif" font-size="14" lengthAdjust="spacing" textLength="671" x="1694.5" y="613.4951">AAudioTagger create_auditory_stimulus(audio: Audio, stimuli_intervals: List[Tuple[float, float])</text></g><!--class AMTagger--><g id="elem_AMTagger"><rect codeLine="123" fill="#F1F1F1" height="113.1875" id="AMTagger" rx="2.5" ry="2.5" style="stroke:#181818;stroke-width:0.5;" width="478" x="3106" y="281"/><ellipse cx="3304.75" cy="297" fill="#ADD1B2" rx="11" ry="11" style="stroke:#181818;stroke-width:1.0;"/><path d="M3307.0938,292.6719 C3306.1563,292.2344 3305.5625,292.0938 3304.6875,292.0938 C3302.0625,292.0938 3300.0625,294.1719 3300.0625,296.8906 L3300.0625,298.0156 C3300.0625,300.5938 3302.1719,302.4844 3305.0625,302.4844 C3306.2813,302.4844 3307.4375,302.1875 3308.1875,301.6406 C3308.7656,301.2344 3309.0938,300.7813 3309.0938,300.3906 C3309.0938,299.9375 3308.7031,299.5469 3308.2344,299.5469 C3308.0156,299.5469 3307.8125,299.625 3307.625,299.8125 C3307.1719,300.2969 3307.1719,300.2969 3306.9844,300.3906 C3306.5625,300.6563 3305.875,300.7813 3305.1094,300.7813 C3303.0625,300.7813 3301.7656,299.6875 3301.7656,297.9844 L3301.7656,296.8906 C3301.7656,295.1094 3303.0156,293.7969 3304.75,293.7969 C3305.3281,293.7969 3305.9375,293.9531 3306.4063,294.2031 C3306.8906,294.4844 3307.0625,294.7031 3307.1563,295.1094 C3307.2188,295.5156 3307.25,295.6406 3307.3906,295.7656 C3307.5313,295.9063 3307.7656,296.0156 3307.9844,296.0156 C3308.25,296.0156 3308.5156,295.875 3308.6875,295.6563 C3308.7969,295.5 3308.8281,295.3125 3308.8281,294.8906 L3308.8281,293.4688 C3308.8281,293.0313 3308.8125,292.9063 3308.7188,292.75 C3308.5625,292.4844 3308.2813,292.3438 3307.9844,292.3438 C3307.6875,292.3438 3307.4844,292.4375 3307.2656,292.75 L3307.0938,292.6719 Z " fill="#000000"/><text fill="#000000" font-family="sans-serif" font-size="14" lengthAdjust="spacing" textLength="72" x="3325.25" y="301.8467">AMTagger</text><line style="stroke:#181818;stroke-width:0.5;" x1="3107" x2="3583" y1="313" y2="313"/><rect fill="none" height="6" style="stroke:#C82930;stroke-width:1.0;" width="6" x="3114" y="323.6484"/><text fill="#000000" font-family="sans-serif" font-size="14" lengthAdjust="spacing" textLength="96" x="3126" y="329.9951">int frequency</text><rect fill="none" height="6" style="stroke:#C82930;stroke-width:1.0;" width="6" x="3114" y="339.9453"/><text fill="#000000" font-family="sans-serif" font-size="14" lengthAdjust="spacing" textLength="366" x="3126" y="346.292">Callable[[int, int, int], NDArray[float] tag_generator</text><line style="stroke:#181818;stroke-width:0.5;" x1="3107" x2="3583" y1="353.5938" y2="353.5938"/><ellipse cx="3117" cy="367.2422" fill="#84BE84" rx="3" ry="3" style="stroke:#038048;stroke-width:1.0;"/><text fill="#000000" font-family="sans-serif" font-size="14" lengthAdjust="spacing" textLength="452" x="3126" y="370.5889">ASSRTagger(audio, stimuli_intervals, frequency, tag_generator)</text><ellipse cx="3117" cy="383.5391" fill="#84BE84" rx="3" ry="3" style="stroke:#038048;stroke-width:1.0;"/><text fill="#000000" font-family="sans-serif" font-size="14" lengthAdjust="spacing" textLength="101" x="3126" y="386.8857">Audio create()</text></g><!--class FMTagger--><g id="elem_FMTagger"><rect codeLine="131" fill="#F1F1F1" height="96.8906" id="FMTagger" rx="2.5" ry="2.5" style="stroke:#181818;stroke-width:0.5;" width="349" x="2580.5" y="289"/><ellipse cx="2715.75" cy="305" fill="#ADD1B2" rx="11" ry="11" style="stroke:#181818;stroke-width:1.0;"/><path d="M2718.0938,300.6719 C2717.1563,300.2344 2716.5625,300.0938 2715.6875,300.0938 C2713.0625,300.0938 2711.0625,302.1719 2711.0625,304.8906 L2711.0625,306.0156 C2711.0625,308.5938 2713.1719,310.4844 2716.0625,310.4844 C2717.2813,310.4844 2718.4375,310.1875 2719.1875,309.6406 C2719.7656,309.2344 2720.0938,308.7813 2720.0938,308.3906 C2720.0938,307.9375 2719.7031,307.5469 2719.2344,307.5469 C2719.0156,307.5469 2718.8125,307.625 2718.625,307.8125 C2718.1719,308.2969 2718.1719,308.2969 2717.9844,308.3906 C2717.5625,308.6563 2716.875,308.7813 2716.1094,308.7813 C2714.0625,308.7813 2712.7656,307.6875 2712.7656,305.9844 L2712.7656,304.8906 C2712.7656,303.1094 2714.0156,301.7969 2715.75,301.7969 C2716.3281,301.7969 2716.9375,301.9531 2717.4063,302.2031 C2717.8906,302.4844 2718.0625,302.7031 2718.1563,303.1094 C2718.2188,303.5156 2718.25,303.6406 2718.3906,303.7656 C2718.5313,303.9063 2718.7656,304.0156 2718.9844,304.0156 C2719.25,304.0156 2719.5156,303.875 2719.6875,303.6563 C2719.7969,303.5 2719.8281,303.3125 2719.8281,302.8906 L2719.8281,301.4688 C2719.8281,301.0313 2719.8125,300.9063 2719.7188,300.75 C2719.5625,300.4844 2719.2813,300.3438 2718.9844,300.3438 C2718.6875,300.3438 2718.4844,300.4375 2718.2656,300.75 L2718.0938,300.6719 Z " fill="#000000"/><text fill="#000000" font-family="sans-serif" font-size="14" lengthAdjust="spacing" textLength="70" x="2736.25" y="309.8467">FMTagger</text><line style="stroke:#181818;stroke-width:0.5;" x1="2581.5" x2="2928.5" y1="321" y2="321"/><rect fill="none" height="6" style="stroke:#C82930;stroke-width:1.0;" width="6" x="2588.5" y="331.6484"/><text fill="#000000" font-family="sans-serif" font-size="14" lengthAdjust="spacing" textLength="96" x="2600.5" y="337.9951">int frequency</text><line style="stroke:#181818;stroke-width:0.5;" x1="2581.5" x2="2928.5" y1="345.2969" y2="345.2969"/><ellipse cx="2591.5" cy="358.9453" fill="#84BE84" rx="3" ry="3" style="stroke:#038048;stroke-width:1.0;"/><text fill="#000000" font-family="sans-serif" font-size="14" lengthAdjust="spacing" textLength="323" x="2600.5" y="362.292">FMTagger(audio, stimuli_intervals, frequency)</text><ellipse cx="2591.5" cy="375.2422" fill="#84BE84" rx="3" ry="3" style="stroke:#038048;stroke-width:1.0;"/><text fill="#000000" font-family="sans-serif" font-size="14" lengthAdjust="spacing" textLength="101" x="2600.5" y="378.5889">Audio create()</text></g><!--class AMTaggerFactory--><g id="elem_AMTaggerFactory"><rect codeLine="139" fill="#F1F1F1" height="113.1875" id="AMTaggerFactory" rx="2.5" ry="2.5" style="stroke:#181818;stroke-width:0.5;" width="697" x="3138.5" y="532"/><ellipse cx="3419.75" cy="548" fill="#ADD1B2" rx="11" ry="11" style="stroke:#181818;stroke-width:1.0;"/><path d="M3422.0938,543.6719 C3421.1563,543.2344 3420.5625,543.0938 3419.6875,543.0938 C3417.0625,543.0938 3415.0625,545.1719 3415.0625,547.8906 L3415.0625,549.0156 C3415.0625,551.5938 3417.1719,553.4844 3420.0625,553.4844 C3421.2813,553.4844 3422.4375,553.1875 3423.1875,552.6406 C3423.7656,552.2344 3424.0938,551.7813 3424.0938,551.3906 C3424.0938,550.9375 3423.7031,550.5469 3423.2344,550.5469 C3423.0156,550.5469 3422.8125,550.625 3422.625,550.8125 C3422.1719,551.2969 3422.1719,551.2969 3421.9844,551.3906 C3421.5625,551.6563 3420.875,551.7813 3420.1094,551.7813 C3418.0625,551.7813 3416.7656,550.6875 3416.7656,548.9844 L3416.7656,547.8906 C3416.7656,546.1094 3418.0156,544.7969 3419.75,544.7969 C3420.3281,544.7969 3420.9375,544.9531 3421.4063,545.2031 C3421.8906,545.4844 3422.0625,545.7031 3422.1563,546.1094 C3422.2188,546.5156 3422.25,546.6406 3422.3906,546.7656 C3422.5313,546.9063 3422.7656,547.0156 3422.9844,547.0156 C3423.25,547.0156 3423.5156,546.875 3423.6875,546.6563 C3423.7969,546.5 3423.8281,546.3125 3423.8281,545.8906 L3423.8281,544.4688 C3423.8281,544.0313 3423.8125,543.9063 3423.7188,543.75 C3423.5625,543.4844 3423.2813,543.3438 3422.9844,543.3438 C3422.6875,543.3438 3422.4844,543.4375 3422.2656,543.75 L3422.0938,543.6719 Z " fill="#000000"/><text fill="#000000" font-family="sans-serif" font-size="14" lengthAdjust="spacing" textLength="126" x="3440.25" y="552.8467">AMTaggerFactory</text><line style="stroke:#181818;stroke-width:0.5;" x1="3139.5" x2="3834.5" y1="564" y2="564"/><rect fill="none" height="6" style="stroke:#C82930;stroke-width:1.0;" width="6" x="3146.5" y="574.6484"/><text fill="#000000" font-family="sans-serif" font-size="14" lengthAdjust="spacing" textLength="96" x="3158.5" y="580.9951">int frequency</text><rect fill="none" height="6" style="stroke:#C82930;stroke-width:1.0;" width="6" x="3146.5" y="590.9453"/><text fill="#000000" font-family="sans-serif" font-size="14" lengthAdjust="spacing" textLength="371" x="3158.5" y="597.292">Callable[[int, int, int], NDArray[float]] tag_generator</text><line style="stroke:#181818;stroke-width:0.5;" x1="3139.5" x2="3834.5" y1="604.5938" y2="604.5938"/><ellipse cx="3149.5" cy="618.2422" fill="#84BE84" rx="3" ry="3" style="stroke:#038048;stroke-width:1.0;"/><text fill="#000000" font-family="sans-serif" font-size="14" lengthAdjust="spacing" textLength="319" x="3158.5" y="621.5889">AMTaggerFactory(frequency, tag_generator)</text><ellipse cx="3149.5" cy="634.5391" fill="#84BE84" rx="3" ry="3" style="stroke:#038048;stroke-width:1.0;"/><text fill="#000000" font-family="sans-serif" font-size="14" lengthAdjust="spacing" textLength="671" x="3158.5" y="637.8857">AAudioTagger create_auditory_stimulus(audio: Audio, stimuli_intervals: List[Tuple[float, float])</text></g><!--class FMTaggerFactory--><g id="elem_FMTaggerFactory"><rect codeLine="147" fill="#F1F1F1" height="96.8906" id="FMTaggerFactory" rx="2.5" ry="2.5" style="stroke:#181818;stroke-width:0.5;" width="697" x="2406.5" y="540"/><ellipse cx="2688.75" cy="556" fill="#ADD1B2" rx="11" ry="11" style="stroke:#181818;stroke-width:1.0;"/><path d="M2691.0938,551.6719 C2690.1563,551.2344 2689.5625,551.0938 2688.6875,551.0938 C2686.0625,551.0938 2684.0625,553.1719 2684.0625,555.8906 L2684.0625,557.0156 C2684.0625,559.5938 2686.1719,561.4844 2689.0625,561.4844 C2690.2813,561.4844 2691.4375,561.1875 2692.1875,560.6406 C2692.7656,560.2344 2693.0938,559.7813 2693.0938,559.3906 C2693.0938,558.9375 2692.7031,558.5469 2692.2344,558.5469 C2692.0156,558.5469 2691.8125,558.625 2691.625,558.8125 C2691.1719,559.2969 2691.1719,559.2969 2690.9844,559.3906 C2690.5625,559.6563 2689.875,559.7813 2689.1094,559.7813 C2687.0625,559.7813 2685.7656,558.6875 2685.7656,556.9844 L2685.7656,555.8906 C2685.7656,554.1094 2687.0156,552.7969 2688.75,552.7969 C2689.3281,552.7969 2689.9375,552.9531 2690.4063,553.2031 C2690.8906,553.4844 2691.0625,553.7031 2691.1563,554.1094 C2691.2188,554.5156 2691.25,554.6406 2691.3906,554.7656 C2691.5313,554.9063 2691.7656,555.0156 2691.9844,555.0156 C2692.25,555.0156 2692.5156,554.875 2692.6875,554.6563 C2692.7969,554.5 2692.8281,554.3125 2692.8281,553.8906 L2692.8281,552.4688 C2692.8281,552.0313 2692.8125,551.9063 2692.7188,551.75 C2692.5625,551.4844 2692.2813,551.3438 2691.9844,551.3438 C2691.6875,551.3438 2691.4844,551.4375 2691.2656,551.75 L2691.0938,551.6719 Z " fill="#000000"/><text fill="#000000" font-family="sans-serif" font-size="14" lengthAdjust="spacing" textLength="124" x="2709.25" y="560.8467">FMTaggerFactory</text><line style="stroke:#181818;stroke-width:0.5;" x1="2407.5" x2="3102.5" y1="572" y2="572"/><rect fill="none" height="6" style="stroke:#C82930;stroke-width:1.0;" width="6" x="2414.5" y="582.6484"/><text fill="#000000" font-family="sans-serif" font-size="14" lengthAdjust="spacing" textLength="96" x="2426.5" y="588.9951">int frequency</text><line style="stroke:#181818;stroke-width:0.5;" x1="2407.5" x2="3102.5" y1="596.2969" y2="596.2969"/><ellipse cx="2417.5" cy="609.9453" fill="#84BE84" rx="3" ry="3" style="stroke:#038048;stroke-width:1.0;"/><text fill="#000000" font-family="sans-serif" font-size="14" lengthAdjust="spacing" textLength="206" x="2426.5" y="613.292">FMTaggerFactory(frequency)</text><ellipse cx="2417.5" cy="626.2422" fill="#84BE84" rx="3" ry="3" style="stroke:#038048;stroke-width:1.0;"/><text fill="#000000" font-family="sans-serif" font-size="14" lengthAdjust="spacing" textLength="671" x="2426.5" y="629.5889">AAudioTagger create_auditory_stimulus(audio: Audio, stimuli_intervals: List[Tuple[float, float])</text></g><!--class ETrigger--><g id="elem_ETrigger"><rect codeLine="186" fill="#F1F1F1" height="64.2969" id="ETrigger" rx="2.5" ry="2.5" style="stroke:#181818;stroke-width:0.5;" width="501" x="158.5" y="1427"/><ellipse cx="374.25" cy="1443" fill="#EB937F" rx="11" ry="11" style="stroke:#181818;stroke-width:1.0;"/><path d="M373.0469,1443.875 L374.5,1443.875 L374.5,1443.9844 C374.5,1444.3906 374.5313,1444.5469 374.6094,1444.7031 C374.7656,1444.9531 375.0469,1445.1094 375.3438,1445.1094 C375.5938,1445.1094 375.8594,1444.9688 376.0156,1444.75 C376.1406,1444.5938 376.1719,1444.4375 376.1719,1443.9844 L376.1719,1442.0625 C376.1719,1441.9063 376.1719,1441.8594 376.1563,1441.7031 C376.0938,1441.2344 375.7813,1440.9219 375.3281,1440.9219 C375.0781,1440.9219 374.8125,1441.0625 374.6406,1441.2813 C374.5313,1441.4531 374.5,1441.6094 374.5,1442.0625 L374.5,1442.1875 L373.0469,1442.1875 L373.0469,1439.7813 L377.0313,1439.7813 L377.0313,1440.6406 C377.0313,1441.0469 377.0625,1441.2188 377.1406,1441.375 C377.3125,1441.625 377.5938,1441.7813 377.875,1441.7813 C378.1406,1441.7813 378.4063,1441.6406 378.5781,1441.4219 C378.6875,1441.25 378.7188,1441.1094 378.7188,1440.6406 L378.7188,1438.0938 L371.0938,1438.0938 C370.6563,1438.0938 370.5313,1438.1094 370.375,1438.2031 C370.125,1438.3594 369.9688,1438.6563 369.9688,1438.9375 C369.9688,1439.2188 370.1094,1439.4688 370.3281,1439.6406 C370.4844,1439.75 370.6719,1439.7813 371.0938,1439.7813 L371.3438,1439.7813 L371.3438,1446.2969 L371.0938,1446.2969 C370.6875,1446.2969 370.5313,1446.3125 370.375,1446.4219 C370.125,1446.5938 369.9688,1446.8594 369.9688,1447.1563 C369.9688,1447.4219 370.1094,1447.6719 370.3281,1447.8281 C370.4688,1447.9531 370.7031,1448 371.0938,1448 L379.0938,1448 L379.0938,1445.4219 C379.0938,1444.9844 379.0625,1444.8438 378.9844,1444.6875 C378.8125,1444.4375 378.5313,1444.2813 378.25,1444.2813 C377.9844,1444.2813 377.7188,1444.3906 377.5469,1444.6406 C377.4375,1444.7969 377.4063,1444.9375 377.4063,1445.4219 L377.4063,1446.2969 L373.0469,1446.2969 L373.0469,1443.875 Z " fill="#000000"/><text fill="#000000" font-family="sans-serif" font-size="14" lengthAdjust="spacing" textLength="61" x="394.75" y="1447.8467">ETrigger</text><line style="stroke:#181818;stroke-width:0.5;" x1="159.5" x2="658.5" y1="1459" y2="1459"/><line style="stroke:#181818;stroke-width:0.5;" x1="159.5" x2="658.5" y1="1467" y2="1467"/><ellipse cx="169.5" cy="1480.6484" fill="#84BE84" rx="3" ry="3" style="stroke:#038048;stroke-width:1.0;"/><text fill="#000000" font-family="sans-serif" font-size="14" lengthAdjust="spacing" text-decoration="underline" textLength="475" x="178.5" y="1483.9951">ETrigger get_trigger(data: Any, identifier: EModelUpdateIdentifier</text></g><g id="elem_GMN46"><path d="M695,1431.5 L695,1455 L659.688,1459 L695,1463 L695,1486.8984 A0,0 0 0 0 695,1486.8984 L887,1486.8984 A0,0 0 0 0 887,1486.8984 L887,1441.5 L877,1431.5 L695,1431.5 A0,0 0 0 0 695,1431.5 " fill="#FEFFDD" style="stroke:#181818;stroke-width:0.5;"/><path d="M877,1431.5 L877,1441.5 L887,1441.5 L877,1431.5 " fill="#FEFFDD" style="stroke:#181818;stroke-width:0.5;"/><text fill="#000000" font-family="sans-serif" font-size="13" lengthAdjust="spacing" textLength="165" x="701" y="1448.5669">Contains tha mappings to</text><text fill="#000000" font-family="sans-serif" font-size="13" lengthAdjust="spacing" textLength="171" x="701" y="1463.6997">the actual trigger numbers</text><text fill="#000000" font-family="sans-serif" font-size="13" lengthAdjust="spacing" textLength="28" x="701" y="1478.8325">sent</text></g><!--class BittiumTriggerSender--><g id="elem_BittiumTriggerSender"><rect codeLine="191" fill="#F1F1F1" height="105.1563" id="BittiumTriggerSender" rx="2.5" ry="2.5" style="stroke:#181818;stroke-width:0.5;" width="424" x="396" y="1182.5"/><ellipse cx="525.25" cy="1202.6328" fill="#ADD1B2" rx="11" ry="11" style="stroke:#181818;stroke-width:1.0;"/><path d="M527.5938,1198.3047 C526.6563,1197.8672 526.0625,1197.7266 525.1875,1197.7266 C522.5625,1197.7266 520.5625,1199.8047 520.5625,1202.5234 L520.5625,1203.6484 C520.5625,1206.2266 522.6719,1208.1172 525.5625,1208.1172 C526.7813,1208.1172 527.9375,1207.8203 528.6875,1207.2734 C529.2656,1206.8672 529.5938,1206.4141 529.5938,1206.0234 C529.5938,1205.5703 529.2031,1205.1797 528.7344,1205.1797 C528.5156,1205.1797 528.3125,1205.2578 528.125,1205.4453 C527.6719,1205.9297 527.6719,1205.9297 527.4844,1206.0234 C527.0625,1206.2891 526.375,1206.4141 525.6094,1206.4141 C523.5625,1206.4141 522.2656,1205.3203 522.2656,1203.6172 L522.2656,1202.5234 C522.2656,1200.7422 523.5156,1199.4297 525.25,1199.4297 C525.8281,1199.4297 526.4375,1199.5859 526.9063,1199.8359 C527.3906,1200.1172 527.5625,1200.3359 527.6563,1200.7422 C527.7188,1201.1484 527.75,1201.2734 527.8906,1201.3984 C528.0313,1201.5391 528.2656,1201.6484 528.4844,1201.6484 C528.75,1201.6484 529.0156,1201.5078 529.1875,1201.2891 C529.2969,1201.1328 529.3281,1200.9453 529.3281,1200.5234 L529.3281,1199.1016 C529.3281,1198.6641 529.3125,1198.5391 529.2188,1198.3828 C529.0625,1198.1172 528.7813,1197.9766 528.4844,1197.9766 C528.1875,1197.9766 527.9844,1198.0703 527.7656,1198.3828 L527.5938,1198.3047 Z " fill="#000000"/><text fill="#000000" font-family="sans-serif" font-size="12" font-style="italic" lengthAdjust="spacing" textLength="68" x="590.25" y="1198.6387">&#171;Observer&#187;</text><text fill="#000000" font-family="sans-serif" font-size="14" lengthAdjust="spacing" textLength="157" x="545.75" y="1214.4639">BittiumTriggerSender</text><line style="stroke:#181818;stroke-width:0.5;" x1="397" x2="819" y1="1222.7656" y2="1222.7656"/><rect fill="none" height="6" style="stroke:#C82930;stroke-width:1.0;" width="6" x="404" y="1233.4141"/><text fill="#000000" font-family="sans-serif" font-size="14" lengthAdjust="spacing" textLength="183" x="416" y="1239.7607">IParallelPort parallel_port</text><rect fill="none" height="6" style="stroke:#C82930;stroke-width:1.0;" width="6" x="404" y="1249.7109"/><text fill="#000000" font-family="sans-serif" font-size="14" lengthAdjust="spacing" textLength="155" x="416" y="1256.0576">int trigger_duration_s</text><line style="stroke:#181818;stroke-width:0.5;" x1="397" x2="819" y1="1263.3594" y2="1263.3594"/><ellipse cx="407" cy="1277.0078" fill="#84BE84" rx="3" ry="3" style="stroke:#038048;stroke-width:1.0;"/><text fill="#000000" font-family="sans-serif" font-size="14" lengthAdjust="spacing" textLength="398" x="416" y="1280.3545">BittiumTriggerSender(parallel_port, trigger_duration_s)</text></g><g id="elem_n"><path d="M3908,70 L3908,125.3984 L4266,125.3984 L4266,80 L4256,70 L3908,70 " fill="#FEFFDD" style="stroke:#181818;stroke-width:0.5;"/><path d="M4256,70 L4256,80 L4266,80 L4256,70 " fill="#FEFFDD" style="stroke:#181818;stroke-width:1.0;"/><text fill="#000000" font-family="sans-serif" font-size="13" font-weight="bold" lengthAdjust="spacing" textLength="38" x="3914" y="87.0669">Note</text><text fill="#000000" font-family="sans-serif" font-size="13" lengthAdjust="spacing" textLength="299" x="3952" y="87.0669">: To save space, constructor parameter types,</text><text fill="#000000" font-family="sans-serif" font-size="13" lengthAdjust="spacing" textLength="308" x="3914" y="102.1997">which match the types of the class parameters,</text><text fill="#000000" font-family="sans-serif" font-size="13" lengthAdjust="spacing" textLength="107" x="3914" y="117.3325">are not specified</text></g><!--class Audio--><g id="elem_Audio"><rect codeLine="7" fill="#F1F1F1" height="80.5938" id="Audio" rx="2.5" ry="2.5" style="stroke:#181818;stroke-width:0.5;" width="194" x="2978" y="922.5"/><ellipse cx="3050.75" cy="938.5" fill="#ADD1B2" rx="11" ry="11" style="stroke:#181818;stroke-width:1.0;"/><path d="M3053.0938,934.1719 C3052.1563,933.7344 3051.5625,933.5938 3050.6875,933.5938 C3048.0625,933.5938 3046.0625,935.6719 3046.0625,938.3906 L3046.0625,939.5156 C3046.0625,942.0938 3048.1719,943.9844 3051.0625,943.9844 C3052.2813,943.9844 3053.4375,943.6875 3054.1875,943.1406 C3054.7656,942.7344 3055.0938,942.2813 3055.0938,941.8906 C3055.0938,941.4375 3054.7031,941.0469 3054.2344,941.0469 C3054.0156,941.0469 3053.8125,941.125 3053.625,941.3125 C3053.1719,941.7969 3053.1719,941.7969 3052.9844,941.8906 C3052.5625,942.1563 3051.875,942.2813 3051.1094,942.2813 C3049.0625,942.2813 3047.7656,941.1875 3047.7656,939.4844 L3047.7656,938.3906 C3047.7656,936.6094 3049.0156,935.2969 3050.75,935.2969 C3051.3281,935.2969 3051.9375,935.4531 3052.4063,935.7031 C3052.8906,935.9844 3053.0625,936.2031 3053.1563,936.6094 C3053.2188,937.0156 3053.25,937.1406 3053.3906,937.2656 C3053.5313,937.4063 3053.7656,937.5156 3053.9844,937.5156 C3054.25,937.5156 3054.5156,937.375 3054.6875,937.1563 C3054.7969,937 3054.8281,936.8125 3054.8281,936.3906 L3054.8281,934.9688 C3054.8281,934.5313 3054.8125,934.4063 3054.7188,934.25 C3054.5625,933.9844 3054.2813,933.8438 3053.9844,933.8438 C3053.6875,933.8438 3053.4844,933.9375 3053.2656,934.25 L3053.0938,934.1719 Z " fill="#000000"/><text fill="#000000" font-family="sans-serif" font-size="14" lengthAdjust="spacing" textLength="40" x="3071.25" y="943.3467">Audio</text><line style="stroke:#181818;stroke-width:0.5;" x1="2979" x2="3171" y1="954.5" y2="954.5"/><ellipse cx="2989" cy="968.1484" fill="none" rx="3" ry="3" style="stroke:#038048;stroke-width:1.0;"/><text fill="#000000" font-family="sans-serif" font-size="14" lengthAdjust="spacing" textLength="143" x="2998" y="971.4951">NDArray[float] array</text><ellipse cx="2989" cy="984.4453" fill="none" rx="3" ry="3" style="stroke:#038048;stroke-width:1.0;"/><text fill="#000000" font-family="sans-serif" font-size="14" lengthAdjust="spacing" textLength="168" x="2998" y="987.792">int sampling_frequency</text><line style="stroke:#181818;stroke-width:0.5;" x1="2979" x2="3171" y1="995.0938" y2="995.0938"/></g><!--class Experiment--><g id="elem_Experiment"><rect codeLine="221" fill="#F1F1F1" height="96.8906" id="Experiment" rx="2.5" ry="2.5" style="stroke:#181818;stroke-width:0.5;" width="876" x="7" y="49"/><ellipse cx="398.25" cy="65" fill="#ADD1B2" rx="11" ry="11" style="stroke:#181818;stroke-width:1.0;"/><path d="M400.5938,60.6719 C399.6563,60.2344 399.0625,60.0938 398.1875,60.0938 C395.5625,60.0938 393.5625,62.1719 393.5625,64.8906 L393.5625,66.0156 C393.5625,68.5938 395.6719,70.4844 398.5625,70.4844 C399.7813,70.4844 400.9375,70.1875 401.6875,69.6406 C402.2656,69.2344 402.5938,68.7813 402.5938,68.3906 C402.5938,67.9375 402.2031,67.5469 401.7344,67.5469 C401.5156,67.5469 401.3125,67.625 401.125,67.8125 C400.6719,68.2969 400.6719,68.2969 400.4844,68.3906 C400.0625,68.6563 399.375,68.7813 398.6094,68.7813 C396.5625,68.7813 395.2656,67.6875 395.2656,65.9844 L395.2656,64.8906 C395.2656,63.1094 396.5156,61.7969 398.25,61.7969 C398.8281,61.7969 399.4375,61.9531 399.9063,62.2031 C400.3906,62.4844 400.5625,62.7031 400.6563,63.1094 C400.7188,63.5156 400.75,63.6406 400.8906,63.7656 C401.0313,63.9063 401.2656,64.0156 401.4844,64.0156 C401.75,64.0156 402.0156,63.875 402.1875,63.6563 C402.2969,63.5 402.3281,63.3125 402.3281,62.8906 L402.3281,61.4688 C402.3281,61.0313 402.3125,60.9063 402.2188,60.75 C402.0625,60.4844 401.7813,60.3438 401.4844,60.3438 C401.1875,60.3438 400.9844,60.4375 400.7656,60.75 L400.5938,60.6719 Z " fill="#000000"/><text fill="#000000" font-family="sans-serif" font-size="14" lengthAdjust="spacing" textLength="85" x="418.75" y="69.8467">Experiment</text><line style="stroke:#181818;stroke-width:0.5;" x1="8" x2="882" y1="81" y2="81"/><line style="stroke:#181818;stroke-width:0.5;" x1="8" x2="882" y1="89" y2="89"/><ellipse cx="18" cy="102.6484" fill="#84BE84" rx="3" ry="3" style="stroke:#038048;stroke-width:1.0;"/><text fill="#000000" font-family="sans-serif" font-size="14" lengthAdjust="spacing" textLength="850" x="27" y="105.9951">Experiment(model: Model, view: AView, stimuli: List[Stimulus], auditory_stimulus_factories: List[AAudioTaggerFactory])</text><ellipse cx="18" cy="118.9453" fill="#84BE84" rx="3" ry="3" style="stroke:#038048;stroke-width:1.0;"/><text fill="#000000" font-family="sans-serif" font-size="14" lengthAdjust="spacing" textLength="146" x="27" y="122.292">void create_stimuli()</text><ellipse cx="18" cy="135.2422" fill="#84BE84" rx="3" ry="3" style="stroke:#038048;stroke-width:1.0;"/><text fill="#000000" font-family="sans-serif" font-size="14" lengthAdjust="spacing" textLength="67" x="27" y="138.5889">void run()</text></g><!--reverse link AObserver to Logger--><g id="link_AObserver_Logger"><path codeLine="54" d="M1164.0865,1013.2329 C1163.1965,1061.2629 1161.83,1135.419 1160.81,1190.126 " fill="none" id="AObserver-backto-Logger" style="stroke:#181818;stroke-width:1.0;"/><polygon fill="none" points="1164.42,995.236,1158.0875,1013.1217,1170.0855,1013.3441,1164.42,995.236" style="stroke:#181818;stroke-width:1.0;"/></g><!--reverse link Stimulus to Audio--><g id="link_Stimulus_Audio"><path codeLine="79" d="M2722.4515,1172.2909 C2810.6515,1120.1799 2929.96,1049.689 3008.06,1003.549 " fill="none" id="Stimulus-backto-Audio" style="stroke:#181818;stroke-width:1.0;"/><polygon fill="#181818" points="2712.12,1178.395,2719.3205,1178.7868,2722.4515,1172.2909,2715.251,1171.8991,2712.12,1178.395" style="stroke:#181818;stroke-width:1.0;"/><text fill="#000000" font-family="sans-serif" font-size="13" lengthAdjust="spacing" textLength="35" x="2875" y="1091.0669">audio</text><text fill="#000000" font-family="sans-serif" font-size="13" lengthAdjust="spacing" textLength="8" x="2715.6666" y="1167.2449">1</text><text fill="#000000" font-family="sans-serif" font-size="13" lengthAdjust="spacing" textLength="8" x="2989.1973" y="1023.0147">1</text></g><!--link Audio to CreatedStimulus--><g id="link_Audio_CreatedStimulus"><path codeLine="91" d="M2977.83,963 C2938.2,963 2902.58,963 2855.15,963 " fill="none" id="Audio-to-CreatedStimulus" style="stroke:#181818;stroke-width:1.0;"/><polygon fill="#181818" points="2843.15,963,2849.15,967,2855.15,963,2849.15,959,2843.15,963" style="stroke:#181818;stroke-width:1.0;"/><text fill="#000000" font-family="sans-serif" font-size="13" lengthAdjust="spacing" textLength="98" x="2861.5" y="956.0669">modified_audio</text><text fill="#000000" font-family="sans-serif" font-size="13" lengthAdjust="spacing" textLength="8" x="2962.0842" y="959.5133">1</text><text fill="#000000" font-family="sans-serif" font-size="13" lengthAdjust="spacing" textLength="8" x="2850.669" y="959.8217">1</text></g><!--reverse link CreatedStimulus to Stimulus--><g id="link_CreatedStimulus_Stimulus"><path codeLine="94" d="M2618,1056.278 C2618,1099.492 2618,1139.711 2618,1178.416 " fill="none" id="CreatedStimulus-backto-Stimulus" style="stroke:#181818;stroke-width:1.0;"/><polygon fill="#181818" points="2618,1044.278,2614,1050.278,2618,1056.278,2622,1050.278,2618,1044.278" style="stroke:#181818;stroke-width:1.0;"/><text fill="#000000" font-family="sans-serif" font-size="13" lengthAdjust="spacing" textLength="7" x="2610.6883" y="1064.2541">*</text><text fill="#000000" font-family="sans-serif" font-size="13" lengthAdjust="spacing" textLength="8" x="2609.4875" y="1167.2686">1</text></g><!--reverse link Model to CreatedStimulus--><g id="link_Model_CreatedStimulus"><path codeLine="97" d="M2102.215,982.8255 C2169.995,984.7835 2228.78,985.048 2295,983 C2326.59,982.023 2359.89,980.51 2392.63,978.743 " fill="none" id="Model-backto-CreatedStimulus" style="stroke:#181818;stroke-width:1.0;"/><polygon fill="#181818" points="2090.22,982.479,2096.102,986.6506,2102.215,982.8255,2096.333,978.6539,2090.22,982.479" style="stroke:#181818;stroke-width:1.0;"/><text fill="#000000" font-family="sans-serif" font-size="13" lengthAdjust="spacing" textLength="105" x="2189" y="979.0669">stimulus_history</text><text fill="#000000" font-family="sans-serif" font-size="13" lengthAdjust="spacing" textLength="8" x="2098.147" y="979.8242">1</text><text fill="#000000" font-family="sans-serif" font-size="13" lengthAdjust="spacing" textLength="7" x="2378.1202" y="976.0813">*</text></g><!--reverse link Model to CreatedStimulus--><g id="link_Model_CreatedStimulus"><path codeLine="231" d="M2102.2,963 C2203.5,963 2300.33,963 2392.69,963 " fill="none" id="Model-backto-CreatedStimulus-1" style="stroke:#181818;stroke-width:1.0;"/><polygon fill="#181818" points="2090.2,963,2096.2,967,2102.2,963,2096.2,959,2090.2,963" style="stroke:#181818;stroke-width:1.0;"/><text fill="#000000" font-family="sans-serif" font-size="13" lengthAdjust="spacing" textLength="98" x="2192.5" y="921.0669">created_stimuli</text><path d="M2112.5,930.1328 L2112.5,955.1328 L2370.5,955.1328 L2370.5,940.1328 L2360.5,930.1328 L2112.5,930.1328 " fill="#FEFFDD" style="stroke:#181818;stroke-width:0.5;"/><path d="M2360.5,930.1328 L2360.5,940.1328 L2370.5,940.1328 L2360.5,930.1328 " fill="#FEFFDD" style="stroke:#181818;stroke-width:0.5;"/><text fill="#000000" font-family="sans-serif" font-size="13" lengthAdjust="spacing" textLength="237" x="2118.5" y="947.1997">Created by calling  `create_stimuli()`</text><text fill="#000000" font-family="sans-serif" font-size="13" lengthAdjust="spacing" textLength="8" x="2098.1266" y="959.8886">1</text><text fill="#000000" font-family="sans-serif" font-size="13" lengthAdjust="spacing" textLength="7" x="2378.1822" y="959.8217">*</text></g><!--reverse link Model to EExperimentState--><g id="link_Model_EExperimentState"><path codeLine="98" d="M1655.6962,1056.551 C1645.3462,1066.47 1643.71,1068.234 1634,1078 C1607.37,1104.795 1578.98,1135.142 1554.51,1161.901 " fill="none" id="Model-backto-EExperimentState" style="stroke:#181818;stroke-width:1.0;"/><polygon fill="none" points="1664.36,1048.248,1657.2605,1049.5116,1655.6962,1056.551,1662.7958,1055.2874,1664.36,1048.248" style="stroke:#181818;stroke-width:1.0;"/><text fill="#000000" font-family="sans-serif" font-size="13" lengthAdjust="spacing" textLength="114" x="1635" y="1091.0669">experiment_state</text><text fill="#000000" font-family="sans-serif" font-size="13" lengthAdjust="spacing" textLength="7" x="1649.1839" y="1068.2764">*</text><text fill="#000000" font-family="sans-serif" font-size="13" lengthAdjust="spacing" textLength="8" x="1552.4665" y="1151.0512">1</text></g><!--link AObserver to Model--><g id="link_AObserver_Model"><path codeLine="99" d="M1387.2,963 C1398.73,963 1398.25,963 1409.78,963 " fill="none" id="AObserver-to-Model" style="stroke:#181818;stroke-width:1.0;"/><polygon fill="none" points="1421.78,963,1415.78,959,1409.78,963,1415.78,967,1421.78,963" style="stroke:#181818;stroke-width:1.0;"/><text fill="#000000" font-family="sans-serif" font-size="13" lengthAdjust="spacing" textLength="7" x="1395.3111" y="959.7944">*</text><text fill="#000000" font-family="sans-serif" font-size="13" lengthAdjust="spacing" textLength="8" x="1405.853" y="959.8886">1</text></g><!--link Model to EModelUpdateIdentifier--><g id="link_Model_EModelUpdateIdentifier"><path codeLine="100" d="M1757.25,1048.319 C1757.92,1093.809 1758.6403,1142.2817 1759.2103,1180.4207 " fill="none" id="Model-to-EModelUpdateIdentifier" style="stroke:#181818;stroke-width:1.0;stroke-dasharray:7.0,7.0;"/><polygon fill="#181818" points="1759.3,1186.42,1763.1651,1177.3612,1759.2253,1181.4206,1755.166,1177.4808,1759.3,1186.42" style="stroke:#181818;stroke-width:1.0;"/><text fill="#000000" font-family="sans-serif" font-size="13" lengthAdjust="spacing" textLength="30" x="1759" y="1091.0669">uses</text></g><!--reverse link constants to AObserver--><g id="link_constants_AObserver"><path codeLine="102" d="M1337.3893,1112.9861 C1336.8518,1111.2545 1337.8219,1114.6289 1337.205,1112.9318 C1335.9713,1109.5378 1334.575,1106.219 1333,1103 C1309.96,1055.905 1262.67,1019.084 1224.12,995.204 " fill="none" id="constants-backto-AObserver" style="stroke:#181818;stroke-width:1.0;stroke-dasharray:7.0,7.0;"/><polygon fill="#181818" points="1339.1353,1118.7265,1340.3432,1108.9519,1337.6803,1113.9428,1332.6894,1111.28,1339.1353,1118.7265" style="stroke:#181818;stroke-width:1.0;"/><text fill="#000000" font-family="sans-serif" font-size="13" lengthAdjust="spacing" textLength="30" x="1329" y="1091.0669">uses</text></g><!--link AView to AObserver--><g id="link_AView_AObserver"><path codeLine="104" d="M596.43,447.31 C616.7,471.47 636.686,497.74 653,524 C730.049,648.035 673.717,726.875 780,827 C835.294,879.09 894.5031,906.3562 964.7781,926.1182 " fill="none" id="AView-to-AObserver" style="stroke:#181818;stroke-width:1.0;"/><polygon fill="none" points="982.106,930.991,966.4024,920.3423,963.1538,931.8942,982.106,930.991" style="stroke:#181818;stroke-width:1.0;"/></g><!--reverse link AAuditoryTagger to Audio--><g id="link_AAuditoryTagger_Audio"><path codeLine="115" d="M2903.5668,101.3357 C3180.7168,107.7057 3777.35,127.83 3852,185 C3908.75,228.46 3906,265.02 3906,336.5 C3906,336.5 3906,336.5 3906,747 C3906,897.046 3391.8,944.069 3172.36,957.305 " fill="none" id="AAuditoryTagger-backto-Audio" style="stroke:#181818;stroke-width:1.0;"/><polygon fill="#181818" points="2891.57,101.06,2897.4765,105.1968,2903.5668,101.3357,2897.6603,97.1989,2891.57,101.06" style="stroke:#181818;stroke-width:1.0;"/><text fill="#000000" font-family="sans-serif" font-size="13" lengthAdjust="spacing" textLength="35" x="3907" y="593.0669">audio</text><text fill="#000000" font-family="sans-serif" font-size="13" lengthAdjust="spacing" textLength="8" x="2899.6967" y="97.9061">1</text><text fill="#000000" font-family="sans-serif" font-size="13" lengthAdjust="spacing" textLength="8" x="3180.1204" y="953.3823">1</text></g><!--reverse link AObserver to BittiumTriggerSender--><g id="link_AObserver_BittiumTriggerSender"><path codeLine="197" d="M1084.6328,1002.9557 C990.0928,1048.7847 828.45,1127.139 714.244,1182.499 " fill="none" id="AObserver-backto-BittiumTriggerSender" style="stroke:#181818;stroke-width:1.0;"/><polygon fill="none" points="1100.83,995.104,1082.0155,997.5567,1087.25,1008.3548,1100.83,995.104" style="stroke:#181818;stroke-width:1.0;"/></g><!--link BittiumTriggerSender to ETrigger--><g id="link_BittiumTriggerSender_ETrigger"><path codeLine="198" d="M561.594,1287.769 C523.005,1330.818 473.3519,1386.2103 441.0219,1422.2766 " fill="none" id="BittiumTriggerSender-to-ETrigger" style="stroke:#181818;stroke-width:1.0;stroke-dasharray:7.0,7.0;"/><polygon fill="#181818" points="437.017,1426.7443,446.0029,1422.7126,440.3544,1423.0212,440.0459,1417.3727,437.017,1426.7443" style="stroke:#181818;stroke-width:1.0;"/><text fill="#000000" font-family="sans-serif" font-size="13" lengthAdjust="spacing" textLength="30" x="475" y="1393.0669">uses</text></g><!--reverse link AAuditoryTagger to RawTagger--><g id="link_AAuditoryTagger_RawTagger"><path codeLine="201" d="M2600.7249,149.443 C2502.7749,174.313 2479.72,138.51 2390,185 C2334.42,213.8 2286.33,270.04 2259.83,305.31 " fill="none" id="AAuditoryTagger-backto-RawTagger" style="stroke:#181818;stroke-width:1.0;"/><polygon fill="none" points="2618.15,144.93,2599.2206,143.6346,2602.2293,155.2513,2618.15,144.93" style="stroke:#181818;stroke-width:1.0;"/></g><!--reverse link AAuditoryTagger to NoiseTaggingTagger--><g id="link_AAuditoryTagger_NoiseTaggingTagger"><path codeLine="202" d="M2600.6157,148.9915 C2401.0357,190.4915 2357.38,147.54 2157,185 C2073.07,200.69 1983.26,224.41 1902.39,248.45 " fill="none" id="AAuditoryTagger-backto-NoiseTaggingTagger" style="stroke:#181818;stroke-width:1.0;"/><polygon fill="none" points="2618.19,145.1,2599.3185,143.1334,2601.9128,154.8496,2618.19,145.1" style="stroke:#181818;stroke-width:1.0;"/></g><!--reverse link AAuditoryTagger to AMTagger--><g id="link_AAuditoryTagger_AMTagger"><path codeLine="203" d="M2889.6729,152.824 C2986.1029,191.724 3105.88,240.04 3207.3,280.95 " fill="none" id="AAuditoryTagger-backto-AMTagger" style="stroke:#181818;stroke-width:1.0;"/><polygon fill="none" points="2872.98,146.09,2887.4283,158.3883,2891.9176,147.2596,2872.98,146.09" style="stroke:#181818;stroke-width:1.0;"/></g><!--reverse link AAuditoryTagger to FMTagger--><g id="link_AAuditoryTagger_FMTagger"><path codeLine="204" d="M2755,164.09 C2755,205.6 2755,247.51 2755,288.99 " fill="none" id="AAuditoryTagger-backto-FMTagger" style="stroke:#181818;stroke-width:1.0;"/><polygon fill="none" points="2755,146.09,2749,164.09,2761,164.09,2755,146.09" style="stroke:#181818;stroke-width:1.0;"/></g><!--link AMTaggerFactory to AAudioTaggerFactory--><g id="link_AMTaggerFactory_AAudioTaggerFactory"><path codeLine="206" d="M3255.58,645.063 C3211.12,654.232 3164.77,662.764 3121,669 C2870.94,704.621 2604.3503,722.8778 2387.5703,733.0198 " fill="none" id="AMTaggerFactory-to-AAudioTaggerFactory" style="stroke:#181818;stroke-width:1.0;"/><polygon fill="none" points="2369.59,733.861,2387.8507,739.0132,2387.2899,727.0264,2369.59,733.861" style="stroke:#181818;stroke-width:1.0;"/></g><!--link FMTaggerFactory to AAudioTaggerFactory--><g id="link_FMTaggerFactory_AAudioTaggerFactory"><path codeLine="207" d="M2547.52,637.085 C2499.77,647.799 2449.16,658.963 2402,669 C2329.96,684.332 2267.6859,696.9842 2199.8759,710.4372 " fill="none" id="FMTaggerFactory-to-AAudioTaggerFactory" style="stroke:#181818;stroke-width:1.0;"/><polygon fill="none" points="2182.22,713.94,2201.0435,716.3225,2198.7083,704.5519,2182.22,713.94" style="stroke:#181818;stroke-width:1.0;"/></g><!--link NoiseTaggingTaggerFactory to AAudioTaggerFactory--><g id="link_NoiseTaggingTaggerFactory_AAudioTaggerFactory"><path codeLine="208" d="M1582.62,653.096 C1607.77,658.504 1632.83,663.866 1657,669 C1727.62,684.002 1788.3529,696.6733 1854.3929,710.3283 " fill="none" id="NoiseTaggingTaggerFactory-to-AAudioTaggerFactory" style="stroke:#181818;stroke-width:1.0;"/><polygon fill="none" points="1872.02,713.973,1855.6078,704.4525,1853.178,716.204,1872.02,713.973" style="stroke:#181818;stroke-width:1.0;"/></g><!--link RawTaggerFactory to AAudioTaggerFactory--><g id="link_RawTaggerFactory_AAudioTaggerFactory"><path codeLine="209" d="M2023,620.594 C2023,647.715 2023,668.855 2023,695.96 " fill="none" id="RawTaggerFactory-to-AAudioTaggerFactory" style="stroke:#181818;stroke-width:1.0;"/><polygon fill="none" points="2023,713.96,2029,695.96,2017,695.96,2023,713.96" style="stroke:#181818;stroke-width:1.0;"/></g><!--reverse link AMTagger to AMTaggerFactory--><g id="link_AMTagger_AMTaggerFactory"><path codeLine="211" d="M3379.6627,399.2818 C3403.0427,440.2718 3431.75,490.61 3455.16,531.669 " fill="none" id="AMTagger-backto-AMTaggerFactory" style="stroke:#181818;stroke-width:1.0;stroke-dasharray:7.0,7.0;"/><polygon fill="#181818" points="3376.69,394.07,3377.6746,403.8695,3379.1673,398.4132,3384.6236,399.9059,3376.69,394.07" style="stroke:#181818;stroke-width:1.0;"/><text fill="#000000" font-family="sans-serif" font-size="13" lengthAdjust="spacing" textLength="48" x="3434" y="490.0669">creates</text></g><!--reverse link FMTagger to FMTaggerFactory--><g id="link_FMTagger_FMTaggerFactory"><path codeLine="212" d="M2755,392.22 C2755,436.41 2755,495.8 2755,539.946 " fill="none" id="FMTagger-backto-FMTaggerFactory" style="stroke:#181818;stroke-width:1.0;stroke-dasharray:7.0,7.0;"/><polygon fill="#181818" points="2755,386.22,2751,395.22,2755,391.22,2759,395.22,2755,386.22" style="stroke:#181818;stroke-width:1.0;"/><text fill="#000000" font-family="sans-serif" font-size="13" lengthAdjust="spacing" textLength="48" x="2756" y="490.0669">creates</text></g><!--reverse link NoiseTaggingTagger to NoiseTaggingTaggerFactory--><g id="link_NoiseTaggingTagger_NoiseTaggingTaggerFactory"><path codeLine="213" d="M1510.9407,430.1317 C1466.0707,462.2417 1421.13,494.39 1379.82,523.949 " fill="none" id="NoiseTaggingTagger-backto-NoiseTaggingTaggerFactory" style="stroke:#181818;stroke-width:1.0;stroke-dasharray:7.0,7.0;"/><polygon fill="#181818" points="1515.82,426.64,1506.1732,428.6247,1511.7539,429.5498,1510.8289,435.1305,1515.82,426.64" style="stroke:#181818;stroke-width:1.0;"/><text fill="#000000" font-family="sans-serif" font-size="13" lengthAdjust="spacing" textLength="48" x="1446" y="490.0669">creates</text></g><!--reverse link RawTagger to RawTaggerFactory--><g id="link_RawTagger_RawTaggerFactory"><path codeLine="214" d="M2207.2791,374.0716 C2165.9691,421.9216 2091.11,508.62 2049.79,556.468 " fill="none" id="RawTagger-backto-RawTaggerFactory" style="stroke:#181818;stroke-width:1.0;stroke-dasharray:7.0,7.0;"/><polygon fill="#181818" points="2211.2,369.53,2202.2909,373.7285,2207.9326,373.3147,2208.3464,378.9564,2211.2,369.53" style="stroke:#181818;stroke-width:1.0;"/><text fill="#000000" font-family="sans-serif" font-size="13" lengthAdjust="spacing" textLength="48" x="2119" y="490.0669">creates</text></g><!--reverse link AView to PsychopyView--><g id="link_AView_PsychopyView"><path codeLine="216" d="M530.9789,464.5465 C544.4959,508.2565 553.502,537.384 561.829,564.31 " fill="none" id="AView-backto-PsychopyView" style="stroke:#181818;stroke-width:1.0;"/><polygon fill="none" points="525.661,447.35,525.2467,466.3191,536.7111,462.7739,525.661,447.35" style="stroke:#181818;stroke-width:1.0;"/></g><!--reverse link AView to CLIView--><g id="link_AView_CLIView"><path codeLine="217" d="M457.0293,464.6964 C444.9173,508.4064 436.888,537.384 429.426,564.31 " fill="none" id="AView-backto-CLIView" style="stroke:#181818;stroke-width:1.0;"/><polygon fill="none" points="461.836,447.35,451.2472,463.0941,462.8115,466.2986,461.836,447.35" style="stroke:#181818;stroke-width:1.0;"/></g><!--reverse link Experiment to Model--><g id="link_Experiment_Model"><path codeLine="226" d="M707.3815,151.5503 C727.8935,162.0803 736.401,169.41 753,185 C804.998,233.83 806,265.17 806,336.5 C806,336.5 806,336.5 806,747 C806,808.969 866.529,800.582 926,818 C1028,847.875 1299.64,814.832 1404,835 C1454.55,844.769 1507.54,860.661 1556.61,877.948 " fill="none" id="Experiment-backto-Model" style="stroke:#181818;stroke-width:1.0;"/><polygon fill="#181818" points="696.706,146.07,700.217,152.3687,707.3815,151.5503,703.8705,145.2517,696.706,146.07" style="stroke:#181818;stroke-width:1.0;"/><text fill="#000000" font-family="sans-serif" font-size="13" lengthAdjust="spacing" textLength="8" x="723.5397" y="166.0388">1</text><text fill="#000000" font-family="sans-serif" font-size="13" lengthAdjust="spacing" textLength="8" x="1531.1312" y="867.0521">1</text></g><!--reverse link Experiment to AView--><g id="link_Experiment_AView"><path codeLine="227" d="M456.7231,157.8626 C461.3841,181.4626 464.895,199.25 470.569,227.98 " fill="none" id="Experiment-backto-AView" style="stroke:#181818;stroke-width:1.0;"/><polygon fill="#181818" points="454.398,146.09,451.6363,152.7513,456.7231,157.8626,459.4847,151.2013,454.398,146.09" style="stroke:#181818;stroke-width:1.0;"/><text fill="#000000" font-family="sans-serif" font-size="13" lengthAdjust="spacing" textLength="8" x="447.1571" y="166.0616">1</text><text fill="#000000" font-family="sans-serif" font-size="13" lengthAdjust="spacing" textLength="8" x="460.7809" y="216.8154">1</text></g><!--link AAudioTaggerFactory to Model--><g id="link_AAudioTaggerFactory_Model"><path codeLine="229" d="M1984.46,778.033 C1952.04,804.14 1913.4767,835.1961 1869.8867,870.2941 " fill="none" id="AAudioTaggerFactory-to-Model" style="stroke:#181818;stroke-width:1.0;"/><polygon fill="#181818" points="1860.54,877.82,1867.722,877.1727,1869.8867,870.2941,1862.7048,870.9415,1860.54,877.82" style="stroke:#181818;stroke-width:1.0;"/><text fill="#000000" font-family="sans-serif" font-size="13" lengthAdjust="spacing" textLength="7" x="1968.7893" y="798.2367">*</text><text fill="#000000" font-family="sans-serif" font-size="13" lengthAdjust="spacing" textLength="8" x="1861.1802" y="866.9131">1</text></g><!--reverse link Model to Stimulus--><g id="link_Model_Stimulus"><path codeLine="230" d="M2035.7614,1051.6288 C2184.6314,1098.2578 2352.39,1150.806 2474.71,1189.118 " fill="none" id="Model-backto-Stimulus" style="stroke:#181818;stroke-width:1.0;"/><polygon fill="#181818" points="2024.31,1048.042,2028.8401,1053.6525,2035.7614,1051.6288,2031.2313,1046.0183,2024.31,1048.042" style="stroke:#181818;stroke-width:1.0;"/><text fill="#000000" font-family="sans-serif" font-size="13" lengthAdjust="spacing" textLength="73" x="2163" y="1091.0669">raw_stimuli</text><text fill="#000000" font-family="sans-serif" font-size="13" lengthAdjust="spacing" textLength="8" x="2039.8501" y="1068.3415">1</text><text fill="#000000" font-family="sans-serif" font-size="13" lengthAdjust="spacing" textLength="7" x="2460.1411" y="1183.431">*</text></g><!--link Experiment to auditory_tagging--><!--SRC=[nLXRRzis57xNho3I5tcMCkpL20nuYTCPI9mWTheDgQ7I4cCJbKLDf98QRVxx3YyIgOlTj6YtFDWnp_tmE-UGp9WW27EKUGYThSTp-7dswteyGak6E7uYYESu9W6AMSP5KSQ25IZ71TuHGGeazZdX0OW-RscyHJiiu5DiYIOWzgX-n2dct4ef0LmGb341wabC7ob9F98bSeLudkQVb0bbw3Fmwh_X_69I57Z_y9WoB5QW0NvOAir06TxbASqsqMD1_Yb95clwY-T141_nXg0dIfwDJho6W70iZ7kJTq0wExjPSr8yaM8yTao_ESTfYjSfUNXGNgq2D6SPMI7EoYo9yXJlIM6vBsWi7gRJJpafw8vaOY6mW1JUv8Ao3ASFO7UrGgIcHu9y4jopiIXVV5Tvq64VMFutJumcw7CLq0igymGiHXbvZhYWkp8jkL_zCqBd1G5giZ0BWw_fIPIYN1elVFqrGi3oLS78yPdB74Jn5cSRalX0nIFKJf5LE5GAjHR3FCds0Q89y4guW0VJQvQGz5xnpEfrgsBDMEhwj24Y0XG_qW9W2XlXjyqvlC-O2f-J6B85k1fKA99V6YstV1zlMRv_P_7Ke9zVpHea1u8xwVO135ReSs7_tQdeSLlneGhb4j7ZiJKLNb4k53gHtkPe2mkis5keXKg3N-0AMNI4b5I59YWD32KYfMhiHOzOzWrAk66Ug2fQuis659UAjb_PtGXLnD0AwEF-UoAsMIl81im1QcNPZsnwstpVMYXMobJ5gsLq0NGAmzSUm7-7ggAnZLTCPkv0imfliTZATi4AmQE45aGbs3gYfVqKlcIlh3b6I4fUqO-rIVcfkL5OXb_6DeFQcmhIQZZWJ73Z1idANISEnyNPV7A-dBsREWlBkvkBUrYycTUBTzF5SZP_6osMa-KqcluzNKGtjzEZzFEhcyNqekQO_dKxlPjTJ-VBgDU2fRivrjxt0io9OJxz4opFhk-lxXUDnLkfyQxF1-te-H-J-LlZv4jtRolak2q0IX8gakroqLwJw7DsjgvVfcODRv6MPGupJCtF0Eanka9WZqZixNBk-5IxSVBR2Veb3DMtAjkHAd3Mw7PDqBjWhDUg4h4kDUOXAZaC6g5QGWIpbgJEF6pfTygjMWfaMrNdY0Xh9vMlWxuS-eE-BBghdJnsY5_BfE-MK3izEgLf8wTDzpslN_0NknVLeXmjkgrhjKMes5gY8tHITsFJr4ygCU1ceT7QBbgGQ_Ug4ySSWoYqFTiPDFNqT7oWXa0bx3K_yJmxxavJOA-xYCEXXcZOQZtrAAqdZSGDzB83KtLYsFJ0gT7v9fKxYPgxY5O6gJI2oI-7P5gVp8OjJRxQgw0I6DHi-kHgZnEnsWo_qSdRNXskiuCnDITe7TVG9NRTY3hpsNTB9kZ6RwPs3-OR4TMxmdbXAjdf1CRlwsMR04r2djsRHtP3iETkO0bGzI7FtytB09YBDYGZ1OR8F4V5SB9OtFLkbuqliCQ3fgP1GvFQriPUEj7R62zV4QEhj-9_ZN_773hiKPNrDb9-JFAFPhzfsNzTebty_YpG7jswLoIgRmSxKVvVONLE5ND6ELdgBjb2PrZFORcvY1EuYpiHhwc8dcaYjkvYIhADs4P0yzh3_1nw_WfwUKBgjjarVWJge9D7C74Yk7wnB1bft5c3WVAmrMjRHQbl4545BxXtWZizLA49MlcXgrxN-pOwgZovVX_DLb_A3oUhGbNBmh6a_1T8QoJf3Z-tODMtC_qYn-VNptFVkPCJOiuE-ko_BAYqRHmQLh_HPta0eh5-In1wyTkV9rHvofSk11gsGhwILHRW_iWoWMd6aTXYjCDv3Z207-nz9b_I85CbJf4nZS3PDIdu-uo3VfLRdThVgH2qt1cb2v8b_RV5S7QB2-Zo9Bs5ow9wePC_8dbrz2n-ZRaeAGlrSXAPG_ompuxVq1Bq20yya_u-ySv5ivT9dIxhd5MdHQzzfZhx0WUg6cVzv6wzzVDLawoVMaq0uqFhP0OiPTYUmaSuBr_DUR1R795f5nxuN9rOpavFssv2UdK9GeOlNRxBmtmzqqPA77JMbRMTH8gqVNKvpUr0vTzzZtFNpJiSOCEyAjlxZIc2eLtnrTFSIB-I1SWy6advkh_ysDSkyoQaEvonuBkaefJFb2-UuxM-9oJweg0yxLBDBK97xbuEItDPwthKODDSzkxeFFVry7MkcZgWf1PHlOvbAANPn_g53AttA8P68Qzjw4Cx1nyyDwhmOKiJwA6hpetlNm00]--></g></svg>