<?xml version="1.0" encoding="us-ascii" standalone="no"?><svg xmlns="http://www.w3.org/2000/svg" xmlns:xlink="http://www.w3.org/1999/xlink" contentStyleType="text/css" height="828px" preserveAspectRatio="none" style="width:3066px;height:828px;background:#FFFFFF;" version="1.1" viewBox="0 0 3066 828" width="3066px" zoomAndPan="magnify"><defs/><g><!--class Experiment--><g id="elem_Experiment"><rect codeLine="1" fill="#F1F1F1" height="80.5938" id="Experiment" rx="2.5" ry="2.5" style="stroke:#181818;stroke-width:0.5;" width="311" x="420.5" y="55.5"/><ellipse cx="529.25" cy="71.5" fill="#ADD1B2" rx="11" ry="11" style="stroke:#181818;stroke-width:1.0;"/><path d="M531.5938,67.1719 C530.6563,66.7344 530.0625,66.5938 529.1875,66.5938 C526.5625,66.5938 524.5625,68.6719 524.5625,71.3906 L524.5625,72.5156 C524.5625,75.0938 526.6719,76.9844 529.5625,76.9844 C530.7813,76.9844 531.9375,76.6875 532.6875,76.1406 C533.2656,75.7344 533.5938,75.2813 533.5938,74.8906 C533.5938,74.4375 533.2031,74.0469 532.7344,74.0469 C532.5156,74.0469 532.3125,74.125 532.125,74.3125 C531.6719,74.7969 531.6719,74.7969 531.4844,74.8906 C531.0625,75.1563 530.375,75.2813 529.6094,75.2813 C527.5625,75.2813 526.2656,74.1875 526.2656,72.4844 L526.2656,71.3906 C526.2656,69.6094 527.5156,68.2969 529.25,68.2969 C529.8281,68.2969 530.4375,68.4531 530.9063,68.7031 C531.3906,68.9844 531.5625,69.2031 531.6563,69.6094 C531.7188,70.0156 531.75,70.1406 531.8906,70.2656 C532.0313,70.4063 532.2656,70.5156 532.4844,70.5156 C532.75,70.5156 533.0156,70.375 533.1875,70.1563 C533.2969,70 533.3281,69.8125 533.3281,69.3906 L533.3281,67.9688 C533.3281,67.5313 533.3125,67.4063 533.2188,67.25 C533.0625,66.9844 532.7813,66.8438 532.4844,66.8438 C532.1875,66.8438 531.9844,66.9375 531.7656,67.25 L531.5938,67.1719 Z " fill="#000000"/><text fill="#000000" font-family="sans-serif" font-size="14" lengthAdjust="spacing" textLength="85" x="549.75" y="76.3467">Experiment</text><line style="stroke:#181818;stroke-width:0.5;" x1="421.5" x2="730.5" y1="87.5" y2="87.5"/><line style="stroke:#181818;stroke-width:0.5;" x1="421.5" x2="730.5" y1="95.5" y2="95.5"/><ellipse cx="431.5" cy="109.1484" fill="#84BE84" rx="3" ry="3" style="stroke:#038048;stroke-width:1.0;"/><text fill="#000000" font-family="sans-serif" font-size="14" lengthAdjust="spacing" textLength="285" x="440.5" y="112.4951">Experiment(model: Model, view: AView)</text><ellipse cx="431.5" cy="125.4453" fill="#84BE84" rx="3" ry="3" style="stroke:#038048;stroke-width:1.0;"/><text fill="#000000" font-family="sans-serif" font-size="14" lengthAdjust="spacing" textLength="67" x="440.5" y="128.792">void run()</text></g><!--class Model--><g id="elem_Model"><rect codeLine="6" fill="#F1F1F1" height="154.0469" id="Model" rx="2.5" ry="2.5" style="stroke:#181818;stroke-width:0.5;" width="476" x="92" y="371"/><ellipse cx="287.25" cy="391.1328" fill="#ADD1B2" rx="11" ry="11" style="stroke:#181818;stroke-width:1.0;"/><path d="M289.5938,386.8047 C288.6563,386.3672 288.0625,386.2266 287.1875,386.2266 C284.5625,386.2266 282.5625,388.3047 282.5625,391.0234 L282.5625,392.1484 C282.5625,394.7266 284.6719,396.6172 287.5625,396.6172 C288.7813,396.6172 289.9375,396.3203 290.6875,395.7734 C291.2656,395.3672 291.5938,394.9141 291.5938,394.5234 C291.5938,394.0703 291.2031,393.6797 290.7344,393.6797 C290.5156,393.6797 290.3125,393.7578 290.125,393.9453 C289.6719,394.4297 289.6719,394.4297 289.4844,394.5234 C289.0625,394.7891 288.375,394.9141 287.6094,394.9141 C285.5625,394.9141 284.2656,393.8203 284.2656,392.1172 L284.2656,391.0234 C284.2656,389.2422 285.5156,387.9297 287.25,387.9297 C287.8281,387.9297 288.4375,388.0859 288.9063,388.3359 C289.3906,388.6172 289.5625,388.8359 289.6563,389.2422 C289.7188,389.6484 289.75,389.7734 289.8906,389.8984 C290.0313,390.0391 290.2656,390.1484 290.4844,390.1484 C290.75,390.1484 291.0156,390.0078 291.1875,389.7891 C291.2969,389.6328 291.3281,389.4453 291.3281,389.0234 L291.3281,387.6016 C291.3281,387.1641 291.3125,387.0391 291.2188,386.8828 C291.0625,386.6172 290.7813,386.4766 290.4844,386.4766 C290.1875,386.4766 289.9844,386.5703 289.7656,386.8828 L289.5938,386.8047 Z " fill="#000000"/><text fill="#000000" font-family="sans-serif" font-size="12" font-style="italic" lengthAdjust="spacing" textLength="81" x="305.75" y="387.1387">&#171;Observable&#187;</text><text fill="#000000" font-family="sans-serif" font-size="14" lengthAdjust="spacing" textLength="43" x="324.75" y="402.9639">Model</text><line style="stroke:#181818;stroke-width:0.5;" x1="93" x2="567" y1="411.2656" y2="411.2656"/><rect fill="none" height="6" style="stroke:#C82930;stroke-width:1.0;" width="6" x="100" y="421.9141"/><text fill="#000000" font-family="sans-serif" font-size="14" lengthAdjust="spacing" textLength="163" x="112" y="428.2607">list[str] promptHistory</text><rect fill="none" height="6" style="stroke:#C82930;stroke-width:1.0;" width="6" x="100" y="438.2109"/><text fill="#000000" font-family="sans-serif" font-size="14" lengthAdjust="spacing" textLength="132" x="112" y="444.5576">str currentPrompt</text><line style="stroke:#181818;stroke-width:0.5;" x1="93" x2="567" y1="451.8594" y2="451.8594"/><rect fill="#F24D5C" height="6" style="stroke:#C82930;stroke-width:1.0;" width="6" x="100" y="462.5078"/><text fill="#000000" font-family="sans-serif" font-size="14" lengthAdjust="spacing" textLength="410" x="112" y="468.8545">void notify(data: Any, identifier: EModelUpdateIdentifier)</text><ellipse cx="103" cy="481.8047" fill="#84BE84" rx="3" ry="3" style="stroke:#038048;stroke-width:1.0;"/><text fill="#000000" font-family="sans-serif" font-size="14" lengthAdjust="spacing" textLength="176" x="112" y="485.1514">void register(view: View)</text><ellipse cx="103" cy="498.1016" fill="#84BE84" rx="3" ry="3" style="stroke:#038048;stroke-width:1.0;"/><text fill="#000000" font-family="sans-serif" font-size="14" lengthAdjust="spacing" textLength="221" x="112" y="501.4482">void new_prompt(prompt: str)</text><ellipse cx="103" cy="514.3984" fill="#84BE84" rx="3" ry="3" style="stroke:#038048;stroke-width:1.0;"/><text fill="#000000" font-family="sans-serif" font-size="14" lengthAdjust="spacing" textLength="450" x="112" y="517.7451">void change_experiment_state(new_state: EExperimentState)</text></g><!--class EExperimentState--><g id="elem_EExperimentState"><rect codeLine="16" fill="#F1F1F1" height="80.5938" id="EExperimentState" rx="2.5" ry="2.5" style="stroke:#181818;stroke-width:0.5;" width="166" x="861" y="55.5"/><ellipse cx="876" cy="71.5" fill="#EB937F" rx="11" ry="11" style="stroke:#181818;stroke-width:1.0;"/><path d="M874.7969,72.375 L876.25,72.375 L876.25,72.4844 C876.25,72.8906 876.2813,73.0469 876.3594,73.2031 C876.5156,73.4531 876.7969,73.6094 877.0938,73.6094 C877.3438,73.6094 877.6094,73.4688 877.7656,73.25 C877.8906,73.0938 877.9219,72.9375 877.9219,72.4844 L877.9219,70.5625 C877.9219,70.4063 877.9219,70.3594 877.9063,70.2031 C877.8438,69.7344 877.5313,69.4219 877.0781,69.4219 C876.8281,69.4219 876.5625,69.5625 876.3906,69.7813 C876.2813,69.9531 876.25,70.1094 876.25,70.5625 L876.25,70.6875 L874.7969,70.6875 L874.7969,68.2813 L878.7813,68.2813 L878.7813,69.1406 C878.7813,69.5469 878.8125,69.7188 878.8906,69.875 C879.0625,70.125 879.3438,70.2813 879.625,70.2813 C879.8906,70.2813 880.1563,70.1406 880.3281,69.9219 C880.4375,69.75 880.4688,69.6094 880.4688,69.1406 L880.4688,66.5938 L872.8438,66.5938 C872.4063,66.5938 872.2813,66.6094 872.125,66.7031 C871.875,66.8594 871.7188,67.1563 871.7188,67.4375 C871.7188,67.7188 871.8594,67.9688 872.0781,68.1406 C872.2344,68.25 872.4219,68.2813 872.8438,68.2813 L873.0938,68.2813 L873.0938,74.7969 L872.8438,74.7969 C872.4375,74.7969 872.2813,74.8125 872.125,74.9219 C871.875,75.0938 871.7188,75.3594 871.7188,75.6563 C871.7188,75.9219 871.8594,76.1719 872.0781,76.3281 C872.2188,76.4531 872.4531,76.5 872.8438,76.5 L880.8438,76.5 L880.8438,73.9219 C880.8438,73.4844 880.8125,73.3438 880.7344,73.1875 C880.5625,72.9375 880.2813,72.7813 880,72.7813 C879.7344,72.7813 879.4688,72.8906 879.2969,73.1406 C879.1875,73.2969 879.1563,73.4375 879.1563,73.9219 L879.1563,74.7969 L874.7969,74.7969 L874.7969,72.375 Z " fill="#000000"/><text fill="#000000" font-family="sans-serif" font-size="14" lengthAdjust="spacing" textLength="134" x="890" y="76.3467">EExperimentState</text><line style="stroke:#181818;stroke-width:0.5;" x1="862" x2="1026" y1="87.5" y2="87.5"/><text fill="#000000" font-family="sans-serif" font-size="14" lengthAdjust="spacing" textLength="115" x="867" y="104.4951">RESTING_STATE</text><text fill="#000000" font-family="sans-serif" font-size="14" lengthAdjust="spacing" textLength="91" x="867" y="120.792">EXPERIMENT</text><line style="stroke:#181818;stroke-width:0.5;" x1="862" x2="1026" y1="128.0938" y2="128.0938"/></g><!--class AView--><g id="elem_AView"><rect codeLine="21" fill="#F1F1F1" height="88.8594" id="AView" rx="2.5" ry="2.5" style="stroke:#181818;stroke-width:0.5;" width="436" x="603" y="403.5"/><ellipse cx="785.75" cy="423.6328" fill="#A9DCDF" rx="11" ry="11" style="stroke:#181818;stroke-width:1.0;"/><path d="M787.8281,425.4453 L788.2188,426.4297 L787.8281,426.4297 C787.375,426.4297 787.2656,426.4453 787.1094,426.5547 C786.8594,426.7109 786.7031,426.9922 786.7031,427.2891 C786.7031,427.5547 786.8438,427.8047 787.0625,427.9609 C787.2031,428.0859 787.4063,428.1328 787.8281,428.1328 L790.1875,428.1328 C790.5469,428.1328 790.7656,428.1016 790.9063,428.0078 C791.1563,427.8672 791.3125,427.5703 791.3125,427.2891 C791.3125,427.0078 791.1719,426.7578 790.9531,426.6016 C790.7813,426.4609 790.625,426.4297 790.1563,426.4297 L786.7656,418.2266 L783.0938,418.2266 C782.6406,418.2266 782.5156,418.2422 782.3594,418.3359 C782.1094,418.5078 781.9531,418.7891 781.9531,419.0703 C781.9531,419.3516 782.0938,419.6016 782.3125,419.7734 C782.4844,419.8828 782.6563,419.9141 783.0938,419.9141 L784.1719,419.9141 L781.5313,426.4297 C781.1094,426.4297 780.9531,426.4453 780.7969,426.5547 C780.5469,426.7109 780.3906,426.9922 780.3906,427.2891 C780.3906,427.8516 780.7656,428.1328 781.5156,428.1328 L783.7813,428.1328 C784.1406,428.1328 784.3594,428.1016 784.4844,428.0078 C784.75,427.8672 784.8906,427.5703 784.8906,427.2891 C784.8906,427.0078 784.7656,426.7578 784.5469,426.5859 C784.375,426.4609 784.2344,426.4297 783.7813,426.4297 L783.3906,426.4297 L783.7813,425.4453 L787.8281,425.4453 Z M787.125,423.7422 L784.4531,423.7422 L785.7969,420.4766 L787.125,423.7422 Z " fill="#000000"/><text fill="#000000" font-family="sans-serif" font-size="12" font-style="italic" lengthAdjust="spacing" textLength="66" x="804.25" y="419.6387">&#171;observer&#187;</text><text fill="#000000" font-family="sans-serif" font-size="14" font-style="italic" lengthAdjust="spacing" textLength="44" x="815.25" y="435.4639">AView</text><line style="stroke:#181818;stroke-width:0.5;" x1="604" x2="1038" y1="443.7656" y2="443.7656"/><line style="stroke:#181818;stroke-width:0.5;" x1="604" x2="1038" y1="451.7656" y2="451.7656"/><ellipse cx="614" cy="465.4141" fill="#84BE84" rx="3" ry="3" style="stroke:#038048;stroke-width:1.0;"/><text fill="#000000" font-family="sans-serif" font-size="14" font-style="italic" lengthAdjust="spacing" textLength="410" x="623" y="468.7607">void update(data: Any, identifier: EModelUpdateIdentifier)</text><ellipse cx="614" cy="481.7109" fill="#84BE84" rx="3" ry="3" style="stroke:#038048;stroke-width:1.0;"/><text fill="#000000" font-family="sans-serif" font-size="14" font-style="italic" lengthAdjust="spacing" textLength="166" x="623" y="485.0576">bool get_confirmation()</text></g><!--class PsychopyView--><g id="elem_PsychopyView"><rect codeLine="26" fill="#F1F1F1" height="48" id="PsychopyView" rx="2.5" ry="2.5" style="stroke:#181818;stroke-width:0.5;" width="134" x="7" y="773"/><ellipse cx="22" cy="789" fill="#ADD1B2" rx="11" ry="11" style="stroke:#181818;stroke-width:1.0;"/><path d="M24.3438,784.6719 C23.4063,784.2344 22.8125,784.0938 21.9375,784.0938 C19.3125,784.0938 17.3125,786.1719 17.3125,788.8906 L17.3125,790.0156 C17.3125,792.5938 19.4219,794.4844 22.3125,794.4844 C23.5313,794.4844 24.6875,794.1875 25.4375,793.6406 C26.0156,793.2344 26.3438,792.7813 26.3438,792.3906 C26.3438,791.9375 25.9531,791.5469 25.4844,791.5469 C25.2656,791.5469 25.0625,791.625 24.875,791.8125 C24.4219,792.2969 24.4219,792.2969 24.2344,792.3906 C23.8125,792.6563 23.125,792.7813 22.3594,792.7813 C20.3125,792.7813 19.0156,791.6875 19.0156,789.9844 L19.0156,788.8906 C19.0156,787.1094 20.2656,785.7969 22,785.7969 C22.5781,785.7969 23.1875,785.9531 23.6563,786.2031 C24.1406,786.4844 24.3125,786.7031 24.4063,787.1094 C24.4688,787.5156 24.5,787.6406 24.6406,787.7656 C24.7813,787.9063 25.0156,788.0156 25.2344,788.0156 C25.5,788.0156 25.7656,787.875 25.9375,787.6563 C26.0469,787.5 26.0781,787.3125 26.0781,786.8906 L26.0781,785.4688 C26.0781,785.0313 26.0625,784.9063 25.9688,784.75 C25.8125,784.4844 25.5313,784.3438 25.2344,784.3438 C24.9375,784.3438 24.7344,784.4375 24.5156,784.75 L24.3438,784.6719 Z " fill="#000000"/><text fill="#000000" font-family="sans-serif" font-size="14" lengthAdjust="spacing" textLength="102" x="36" y="793.8467">PsychopyView</text><line style="stroke:#181818;stroke-width:0.5;" x1="8" x2="140" y1="805" y2="805"/><line style="stroke:#181818;stroke-width:0.5;" x1="8" x2="140" y1="813" y2="813"/></g><!--class CLIView--><g id="elem_CLIView"><rect codeLine="29" fill="#F1F1F1" height="48" id="CLIView" rx="2.5" ry="2.5" style="stroke:#181818;stroke-width:0.5;" width="88" x="176" y="773"/><ellipse cx="191" cy="789" fill="#ADD1B2" rx="11" ry="11" style="stroke:#181818;stroke-width:1.0;"/><path d="M193.3438,784.6719 C192.4063,784.2344 191.8125,784.0938 190.9375,784.0938 C188.3125,784.0938 186.3125,786.1719 186.3125,788.8906 L186.3125,790.0156 C186.3125,792.5938 188.4219,794.4844 191.3125,794.4844 C192.5313,794.4844 193.6875,794.1875 194.4375,793.6406 C195.0156,793.2344 195.3438,792.7813 195.3438,792.3906 C195.3438,791.9375 194.9531,791.5469 194.4844,791.5469 C194.2656,791.5469 194.0625,791.625 193.875,791.8125 C193.4219,792.2969 193.4219,792.2969 193.2344,792.3906 C192.8125,792.6563 192.125,792.7813 191.3594,792.7813 C189.3125,792.7813 188.0156,791.6875 188.0156,789.9844 L188.0156,788.8906 C188.0156,787.1094 189.2656,785.7969 191,785.7969 C191.5781,785.7969 192.1875,785.9531 192.6563,786.2031 C193.1406,786.4844 193.3125,786.7031 193.4063,787.1094 C193.4688,787.5156 193.5,787.6406 193.6406,787.7656 C193.7813,787.9063 194.0156,788.0156 194.2344,788.0156 C194.5,788.0156 194.7656,787.875 194.9375,787.6563 C195.0469,787.5 195.0781,787.3125 195.0781,786.8906 L195.0781,785.4688 C195.0781,785.0313 195.0625,784.9063 194.9688,784.75 C194.8125,784.4844 194.5313,784.3438 194.2344,784.3438 C193.9375,784.3438 193.7344,784.4375 193.5156,784.75 L193.3438,784.6719 Z " fill="#000000"/><text fill="#000000" font-family="sans-serif" font-size="14" lengthAdjust="spacing" textLength="56" x="205" y="793.8467">CLIView</text><line style="stroke:#181818;stroke-width:0.5;" x1="177" x2="263" y1="805" y2="805"/><line style="stroke:#181818;stroke-width:0.5;" x1="177" x2="263" y1="813" y2="813"/></g><!--class EModelUpdateIdentifier--><g id="elem_EModelUpdateIdentifier"><rect codeLine="32" fill="#F1F1F1" height="80.5938" id="EModelUpdateIdentifier" rx="2.5" ry="2.5" style="stroke:#181818;stroke-width:0.5;" width="234" x="1436" y="55.5"/><ellipse cx="1464.95" cy="71.5" fill="#EB937F" rx="11" ry="11" style="stroke:#181818;stroke-width:1.0;"/><path d="M1463.7469,72.375 L1465.2,72.375 L1465.2,72.4844 C1465.2,72.8906 1465.2313,73.0469 1465.3094,73.2031 C1465.4656,73.4531 1465.7469,73.6094 1466.0438,73.6094 C1466.2938,73.6094 1466.5594,73.4688 1466.7156,73.25 C1466.8406,73.0938 1466.8719,72.9375 1466.8719,72.4844 L1466.8719,70.5625 C1466.8719,70.4063 1466.8719,70.3594 1466.8563,70.2031 C1466.7938,69.7344 1466.4813,69.4219 1466.0281,69.4219 C1465.7781,69.4219 1465.5125,69.5625 1465.3406,69.7813 C1465.2313,69.9531 1465.2,70.1094 1465.2,70.5625 L1465.2,70.6875 L1463.7469,70.6875 L1463.7469,68.2813 L1467.7313,68.2813 L1467.7313,69.1406 C1467.7313,69.5469 1467.7625,69.7188 1467.8406,69.875 C1468.0125,70.125 1468.2938,70.2813 1468.575,70.2813 C1468.8406,70.2813 1469.1063,70.1406 1469.2781,69.9219 C1469.3875,69.75 1469.4188,69.6094 1469.4188,69.1406 L1469.4188,66.5938 L1461.7938,66.5938 C1461.3563,66.5938 1461.2313,66.6094 1461.075,66.7031 C1460.825,66.8594 1460.6688,67.1563 1460.6688,67.4375 C1460.6688,67.7188 1460.8094,67.9688 1461.0281,68.1406 C1461.1844,68.25 1461.3719,68.2813 1461.7938,68.2813 L1462.0438,68.2813 L1462.0438,74.7969 L1461.7938,74.7969 C1461.3875,74.7969 1461.2313,74.8125 1461.075,74.9219 C1460.825,75.0938 1460.6688,75.3594 1460.6688,75.6563 C1460.6688,75.9219 1460.8094,76.1719 1461.0281,76.3281 C1461.1688,76.4531 1461.4031,76.5 1461.7938,76.5 L1469.7938,76.5 L1469.7938,73.9219 C1469.7938,73.4844 1469.7625,73.3438 1469.6844,73.1875 C1469.5125,72.9375 1469.2313,72.7813 1468.95,72.7813 C1468.6844,72.7813 1468.4188,72.8906 1468.2469,73.1406 C1468.1375,73.2969 1468.1063,73.4375 1468.1063,73.9219 L1468.1063,74.7969 L1463.7469,74.7969 L1463.7469,72.375 Z " fill="#000000"/><text fill="#000000" font-family="sans-serif" font-size="14" lengthAdjust="spacing" textLength="171" x="1482.05" y="76.3467">EModelUpdateIdentifier</text><line style="stroke:#181818;stroke-width:0.5;" x1="1437" x2="1669" y1="87.5" y2="87.5"/><text fill="#000000" font-family="sans-serif" font-size="14" lengthAdjust="spacing" textLength="100" x="1442" y="104.4951">NEW_PROMPT</text><text fill="#000000" font-family="sans-serif" font-size="14" lengthAdjust="spacing" textLength="222" x="1442" y="120.792">EXPERIMENT_STATE_CHANGED</text><line style="stroke:#181818;stroke-width:0.5;" x1="1437" x2="1669" y1="128.0938" y2="128.0938"/></g><!--class AAuditoryStimulus--><g id="elem_AAuditoryStimulus"><rect codeLine="37" fill="#F1F1F1" height="178.375" id="AAuditoryStimulus" rx="2.5" ry="2.5" style="stroke:#181818;stroke-width:0.5;" width="517" x="1892.5" y="7"/><ellipse cx="2081.25" cy="23" fill="#A9DCDF" rx="11" ry="11" style="stroke:#181818;stroke-width:1.0;"/><path d="M2083.3281,24.8125 L2083.7188,25.7969 L2083.3281,25.7969 C2082.875,25.7969 2082.7656,25.8125 2082.6094,25.9219 C2082.3594,26.0781 2082.2031,26.3594 2082.2031,26.6563 C2082.2031,26.9219 2082.3438,27.1719 2082.5625,27.3281 C2082.7031,27.4531 2082.9063,27.5 2083.3281,27.5 L2085.6875,27.5 C2086.0469,27.5 2086.2656,27.4688 2086.4063,27.375 C2086.6563,27.2344 2086.8125,26.9375 2086.8125,26.6563 C2086.8125,26.375 2086.6719,26.125 2086.4531,25.9688 C2086.2813,25.8281 2086.125,25.7969 2085.6563,25.7969 L2082.2656,17.5938 L2078.5938,17.5938 C2078.1406,17.5938 2078.0156,17.6094 2077.8594,17.7031 C2077.6094,17.875 2077.4531,18.1563 2077.4531,18.4375 C2077.4531,18.7188 2077.5938,18.9688 2077.8125,19.1406 C2077.9844,19.25 2078.1563,19.2813 2078.5938,19.2813 L2079.6719,19.2813 L2077.0313,25.7969 C2076.6094,25.7969 2076.4531,25.8125 2076.2969,25.9219 C2076.0469,26.0781 2075.8906,26.3594 2075.8906,26.6563 C2075.8906,27.2188 2076.2656,27.5 2077.0156,27.5 L2079.2813,27.5 C2079.6406,27.5 2079.8594,27.4688 2079.9844,27.375 C2080.25,27.2344 2080.3906,26.9375 2080.3906,26.6563 C2080.3906,26.375 2080.2656,26.125 2080.0469,25.9531 C2079.875,25.8281 2079.7344,25.7969 2079.2813,25.7969 L2078.8906,25.7969 L2079.2813,24.8125 L2083.3281,24.8125 Z M2082.625,23.1094 L2079.9531,23.1094 L2081.2969,19.8438 L2082.625,23.1094 Z " fill="#000000"/><text fill="#000000" font-family="sans-serif" font-size="14" font-style="italic" lengthAdjust="spacing" textLength="131" x="2101.75" y="27.8467">AAuditoryStimulus</text><line style="stroke:#181818;stroke-width:0.5;" x1="1893.5" x2="2408.5" y1="39" y2="39"/><rect fill="none" height="6" style="stroke:#C82930;stroke-width:1.0;" width="6" x="1900.5" y="49.6484"/><text fill="#000000" font-family="sans-serif" font-size="14" lengthAdjust="spacing" textLength="96" x="1912.5" y="55.9951">Audio __audio</text><rect fill="none" height="6" style="stroke:#C82930;stroke-width:1.0;" width="6" x="1900.5" y="65.9453"/><text fill="#000000" font-family="sans-serif" font-size="14" lengthAdjust="spacing" textLength="261" x="1912.5" y="72.292">list[ [float, float] ] __stimuli_intervals</text><rect fill="none" height="6" style="stroke:#C82930;stroke-width:1.0;" width="6" x="1900.5" y="82.2422"/><text fill="#000000" font-family="sans-serif" font-size="14" lengthAdjust="spacing" textLength="272" x="1912.5" y="88.5889">Optional[Audio] __audio_with_stimulus</text><line style="stroke:#181818;stroke-width:0.5;" x1="1893.5" x2="2408.5" y1="95.8906" y2="95.8906"/><ellipse cx="1903.5" cy="109.5391" fill="#84BE84" rx="3" ry="3" style="stroke:#038048;stroke-width:1.0;"/><text fill="#000000" font-family="sans-serif" font-size="14" lengthAdjust="spacing" textLength="366" x="1912.5" y="112.8857">void __init__(audio: Audio, stimuli: list[(float, float)])</text><ellipse cx="1903.5" cy="125.8359" fill="#84BE84" rx="3" ry="3" style="stroke:#038048;stroke-width:1.0;"/><text fill="#000000" font-family="sans-serif" font-size="14" lengthAdjust="spacing" textLength="91" x="1912.5" y="129.1826">void create()</text><ellipse cx="1903.5" cy="142.1328" fill="#84BE84" rx="3" ry="3" style="stroke:#038048;stroke-width:1.0;"/><text fill="#000000" font-family="sans-serif" font-size="14" lengthAdjust="spacing" textLength="101" x="1912.5" y="145.4795">void present()</text><text fill="#000000" font-family="sans-serif" font-size="14" lengthAdjust="spacing" textLength="4" x="1912.5" y="161.7764">&#160;</text><polygon fill="#FFFF44" points="1903.5,169.7266,1907.5,173.7266,1903.5,177.7266,1899.5,173.7266" style="stroke:#B38D22;stroke-width:1.0;"/><text fill="#000000" font-family="sans-serif" font-size="14" font-style="italic" lengthAdjust="spacing" textLength="491" x="1912.5" y="178.0732">Audio _create_modified_audio(audio: Audio, stimuli: list[(float, float)])</text></g><!--class N400Stimulus--><g id="elem_N400Stimulus"><rect codeLine="51" fill="#F1F1F1" height="64.2969" id="N400Stimulus" rx="2.5" ry="2.5" style="stroke:#181818;stroke-width:0.5;" width="520" x="874" y="246"/><ellipse cx="1081.25" cy="262" fill="#ADD1B2" rx="11" ry="11" style="stroke:#181818;stroke-width:1.0;"/><path d="M1083.5938,257.6719 C1082.6563,257.2344 1082.0625,257.0938 1081.1875,257.0938 C1078.5625,257.0938 1076.5625,259.1719 1076.5625,261.8906 L1076.5625,263.0156 C1076.5625,265.5938 1078.6719,267.4844 1081.5625,267.4844 C1082.7813,267.4844 1083.9375,267.1875 1084.6875,266.6406 C1085.2656,266.2344 1085.5938,265.7813 1085.5938,265.3906 C1085.5938,264.9375 1085.2031,264.5469 1084.7344,264.5469 C1084.5156,264.5469 1084.3125,264.625 1084.125,264.8125 C1083.6719,265.2969 1083.6719,265.2969 1083.4844,265.3906 C1083.0625,265.6563 1082.375,265.7813 1081.6094,265.7813 C1079.5625,265.7813 1078.2656,264.6875 1078.2656,262.9844 L1078.2656,261.8906 C1078.2656,260.1094 1079.5156,258.7969 1081.25,258.7969 C1081.8281,258.7969 1082.4375,258.9531 1082.9063,259.2031 C1083.3906,259.4844 1083.5625,259.7031 1083.6563,260.1094 C1083.7188,260.5156 1083.75,260.6406 1083.8906,260.7656 C1084.0313,260.9063 1084.2656,261.0156 1084.4844,261.0156 C1084.75,261.0156 1085.0156,260.875 1085.1875,260.6563 C1085.2969,260.5 1085.3281,260.3125 1085.3281,259.8906 L1085.3281,258.4688 C1085.3281,258.0313 1085.3125,257.9063 1085.2188,257.75 C1085.0625,257.4844 1084.7813,257.3438 1084.4844,257.3438 C1084.1875,257.3438 1083.9844,257.4375 1083.7656,257.75 L1083.5938,257.6719 Z " fill="#000000"/><text fill="#000000" font-family="sans-serif" font-size="14" lengthAdjust="spacing" textLength="97" x="1101.75" y="266.8467">N400Stimulus</text><line style="stroke:#181818;stroke-width:0.5;" x1="875" x2="1393" y1="278" y2="278"/><line style="stroke:#181818;stroke-width:0.5;" x1="875" x2="1393" y1="286" y2="286"/><polygon fill="#FFFF44" points="885,294.6484,889,298.6484,885,302.6484,881,298.6484" style="stroke:#B38D22;stroke-width:1.0;"/><text fill="#000000" font-family="sans-serif" font-size="14" lengthAdjust="spacing" textLength="494" x="894" y="302.9951">Audio _create_modified_audio(audio: Audio, stimuli: list[(float, float)])</text></g><!--class ASSRStimulus--><g id="elem_ASSRStimulus"><rect codeLine="55" fill="#F1F1F1" height="64.2969" id="ASSRStimulus" rx="2.5" ry="2.5" style="stroke:#181818;stroke-width:0.5;" width="520" x="1429" y="246"/><ellipse cx="1635.25" cy="262" fill="#ADD1B2" rx="11" ry="11" style="stroke:#181818;stroke-width:1.0;"/><path d="M1637.5938,257.6719 C1636.6563,257.2344 1636.0625,257.0938 1635.1875,257.0938 C1632.5625,257.0938 1630.5625,259.1719 1630.5625,261.8906 L1630.5625,263.0156 C1630.5625,265.5938 1632.6719,267.4844 1635.5625,267.4844 C1636.7813,267.4844 1637.9375,267.1875 1638.6875,266.6406 C1639.2656,266.2344 1639.5938,265.7813 1639.5938,265.3906 C1639.5938,264.9375 1639.2031,264.5469 1638.7344,264.5469 C1638.5156,264.5469 1638.3125,264.625 1638.125,264.8125 C1637.6719,265.2969 1637.6719,265.2969 1637.4844,265.3906 C1637.0625,265.6563 1636.375,265.7813 1635.6094,265.7813 C1633.5625,265.7813 1632.2656,264.6875 1632.2656,262.9844 L1632.2656,261.8906 C1632.2656,260.1094 1633.5156,258.7969 1635.25,258.7969 C1635.8281,258.7969 1636.4375,258.9531 1636.9063,259.2031 C1637.3906,259.4844 1637.5625,259.7031 1637.6563,260.1094 C1637.7188,260.5156 1637.75,260.6406 1637.8906,260.7656 C1638.0313,260.9063 1638.2656,261.0156 1638.4844,261.0156 C1638.75,261.0156 1639.0156,260.875 1639.1875,260.6563 C1639.2969,260.5 1639.3281,260.3125 1639.3281,259.8906 L1639.3281,258.4688 C1639.3281,258.0313 1639.3125,257.9063 1639.2188,257.75 C1639.0625,257.4844 1638.7813,257.3438 1638.4844,257.3438 C1638.1875,257.3438 1637.9844,257.4375 1637.7656,257.75 L1637.5938,257.6719 Z " fill="#000000"/><text fill="#000000" font-family="sans-serif" font-size="14" lengthAdjust="spacing" textLength="99" x="1655.75" y="266.8467">ASSRStimulus</text><line style="stroke:#181818;stroke-width:0.5;" x1="1430" x2="1948" y1="278" y2="278"/><line style="stroke:#181818;stroke-width:0.5;" x1="1430" x2="1948" y1="286" y2="286"/><polygon fill="#FFFF44" points="1440,294.6484,1444,298.6484,1440,302.6484,1436,298.6484" style="stroke:#B38D22;stroke-width:1.0;"/><text fill="#000000" font-family="sans-serif" font-size="14" lengthAdjust="spacing" textLength="494" x="1449" y="302.9951">Audio _create_modified_audio(audio: Audio, stimuli: list[(float, float)])</text></g><!--class NoiseTaggingStimulus--><g id="elem_NoiseTaggingStimulus"><rect codeLine="59" fill="#F1F1F1" height="64.2969" id="NoiseTaggingStimulus" rx="2.5" ry="2.5" style="stroke:#181818;stroke-width:0.5;" width="520" x="1984" y="246"/><ellipse cx="2161.25" cy="262" fill="#ADD1B2" rx="11" ry="11" style="stroke:#181818;stroke-width:1.0;"/><path d="M2163.5938,257.6719 C2162.6563,257.2344 2162.0625,257.0938 2161.1875,257.0938 C2158.5625,257.0938 2156.5625,259.1719 2156.5625,261.8906 L2156.5625,263.0156 C2156.5625,265.5938 2158.6719,267.4844 2161.5625,267.4844 C2162.7813,267.4844 2163.9375,267.1875 2164.6875,266.6406 C2165.2656,266.2344 2165.5938,265.7813 2165.5938,265.3906 C2165.5938,264.9375 2165.2031,264.5469 2164.7344,264.5469 C2164.5156,264.5469 2164.3125,264.625 2164.125,264.8125 C2163.6719,265.2969 2163.6719,265.2969 2163.4844,265.3906 C2163.0625,265.6563 2162.375,265.7813 2161.6094,265.7813 C2159.5625,265.7813 2158.2656,264.6875 2158.2656,262.9844 L2158.2656,261.8906 C2158.2656,260.1094 2159.5156,258.7969 2161.25,258.7969 C2161.8281,258.7969 2162.4375,258.9531 2162.9063,259.2031 C2163.3906,259.4844 2163.5625,259.7031 2163.6563,260.1094 C2163.7188,260.5156 2163.75,260.6406 2163.8906,260.7656 C2164.0313,260.9063 2164.2656,261.0156 2164.4844,261.0156 C2164.75,261.0156 2165.0156,260.875 2165.1875,260.6563 C2165.2969,260.5 2165.3281,260.3125 2165.3281,259.8906 L2165.3281,258.4688 C2165.3281,258.0313 2165.3125,257.9063 2165.2188,257.75 C2165.0625,257.4844 2164.7813,257.3438 2164.4844,257.3438 C2164.1875,257.3438 2163.9844,257.4375 2163.7656,257.75 L2163.5938,257.6719 Z " fill="#000000"/><text fill="#000000" font-family="sans-serif" font-size="14" lengthAdjust="spacing" textLength="157" x="2181.75" y="266.8467">NoiseTaggingStimulus</text><line style="stroke:#181818;stroke-width:0.5;" x1="1985" x2="2503" y1="278" y2="278"/><line style="stroke:#181818;stroke-width:0.5;" x1="1985" x2="2503" y1="286" y2="286"/><polygon fill="#FFFF44" points="1995,294.6484,1999,298.6484,1995,302.6484,1991,298.6484" style="stroke:#B38D22;stroke-width:1.0;"/><text fill="#000000" font-family="sans-serif" font-size="14" lengthAdjust="spacing" textLength="494" x="2004" y="302.9951">Audio _create_modified_audio(audio: Audio, stimuli: list[(float, float)])</text></g><!--class MockStimulus--><g id="elem_MockStimulus"><rect codeLine="64" fill="#F1F1F1" height="64.2969" id="MockStimulus" rx="2.5" ry="2.5" style="stroke:#181818;stroke-width:0.5;" width="520" x="2539" y="246"/><ellipse cx="2745.25" cy="262" fill="#ADD1B2" rx="11" ry="11" style="stroke:#181818;stroke-width:1.0;"/><path d="M2747.5938,257.6719 C2746.6563,257.2344 2746.0625,257.0938 2745.1875,257.0938 C2742.5625,257.0938 2740.5625,259.1719 2740.5625,261.8906 L2740.5625,263.0156 C2740.5625,265.5938 2742.6719,267.4844 2745.5625,267.4844 C2746.7813,267.4844 2747.9375,267.1875 2748.6875,266.6406 C2749.2656,266.2344 2749.5938,265.7813 2749.5938,265.3906 C2749.5938,264.9375 2749.2031,264.5469 2748.7344,264.5469 C2748.5156,264.5469 2748.3125,264.625 2748.125,264.8125 C2747.6719,265.2969 2747.6719,265.2969 2747.4844,265.3906 C2747.0625,265.6563 2746.375,265.7813 2745.6094,265.7813 C2743.5625,265.7813 2742.2656,264.6875 2742.2656,262.9844 L2742.2656,261.8906 C2742.2656,260.1094 2743.5156,258.7969 2745.25,258.7969 C2745.8281,258.7969 2746.4375,258.9531 2746.9063,259.2031 C2747.3906,259.4844 2747.5625,259.7031 2747.6563,260.1094 C2747.7188,260.5156 2747.75,260.6406 2747.8906,260.7656 C2748.0313,260.9063 2748.2656,261.0156 2748.4844,261.0156 C2748.75,261.0156 2749.0156,260.875 2749.1875,260.6563 C2749.2969,260.5 2749.3281,260.3125 2749.3281,259.8906 L2749.3281,258.4688 C2749.3281,258.0313 2749.3125,257.9063 2749.2188,257.75 C2749.0625,257.4844 2748.7813,257.3438 2748.4844,257.3438 C2748.1875,257.3438 2747.9844,257.4375 2747.7656,257.75 L2747.5938,257.6719 Z " fill="#000000"/><text fill="#000000" font-family="sans-serif" font-size="14" lengthAdjust="spacing" textLength="99" x="2765.75" y="266.8467">MockStimulus</text><line style="stroke:#181818;stroke-width:0.5;" x1="2540" x2="3058" y1="278" y2="278"/><line style="stroke:#181818;stroke-width:0.5;" x1="2540" x2="3058" y1="286" y2="286"/><polygon fill="#FFFF44" points="2550,294.6484,2554,298.6484,2550,302.6484,2546,298.6484" style="stroke:#B38D22;stroke-width:1.0;"/><text fill="#000000" font-family="sans-serif" font-size="14" lengthAdjust="spacing" textLength="494" x="2559" y="302.9951">Audio _create_modified_audio(audio: Audio, stimuli: list[(float, float)])</text></g><!--class View--><g id="elem_View"><rect fill="#F1F1F1" height="48" id="View" rx="2.5" ry="2.5" style="stroke:#181818;stroke-width:0.5;" width="66" x="187" y="648"/><ellipse cx="202" cy="664" fill="#ADD1B2" rx="11" ry="11" style="stroke:#181818;stroke-width:1.0;"/><path d="M204.3438,659.6719 C203.4063,659.2344 202.8125,659.0938 201.9375,659.0938 C199.3125,659.0938 197.3125,661.1719 197.3125,663.8906 L197.3125,665.0156 C197.3125,667.5938 199.4219,669.4844 202.3125,669.4844 C203.5313,669.4844 204.6875,669.1875 205.4375,668.6406 C206.0156,668.2344 206.3438,667.7813 206.3438,667.3906 C206.3438,666.9375 205.9531,666.5469 205.4844,666.5469 C205.2656,666.5469 205.0625,666.625 204.875,666.8125 C204.4219,667.2969 204.4219,667.2969 204.2344,667.3906 C203.8125,667.6563 203.125,667.7813 202.3594,667.7813 C200.3125,667.7813 199.0156,666.6875 199.0156,664.9844 L199.0156,663.8906 C199.0156,662.1094 200.2656,660.7969 202,660.7969 C202.5781,660.7969 203.1875,660.9531 203.6563,661.2031 C204.1406,661.4844 204.3125,661.7031 204.4063,662.1094 C204.4688,662.5156 204.5,662.6406 204.6406,662.7656 C204.7813,662.9063 205.0156,663.0156 205.2344,663.0156 C205.5,663.0156 205.7656,662.875 205.9375,662.6563 C206.0469,662.5 206.0781,662.3125 206.0781,661.8906 L206.0781,660.4688 C206.0781,660.0313 206.0625,659.9063 205.9688,659.75 C205.8125,659.4844 205.5313,659.3438 205.2344,659.3438 C204.9375,659.3438 204.7344,659.4375 204.5156,659.75 L204.3438,659.6719 Z " fill="#000000"/><text fill="#000000" font-family="sans-serif" font-size="14" lengthAdjust="spacing" textLength="34" x="216" y="668.8467">View</text><line style="stroke:#181818;stroke-width:0.5;" x1="188" x2="252" y1="680" y2="680"/><line style="stroke:#181818;stroke-width:0.5;" x1="188" x2="252" y1="688" y2="688"/></g><!--class ModelUpdateIdentifier--><g id="elem_ModelUpdateIdentifier"><rect fill="#F1F1F1" height="48" id="ModelUpdateIdentifier" rx="2.5" ry="2.5" style="stroke:#181818;stroke-width:0.5;" width="194" x="299" y="773"/><ellipse cx="314" cy="789" fill="#ADD1B2" rx="11" ry="11" style="stroke:#181818;stroke-width:1.0;"/><path d="M316.3438,784.6719 C315.4063,784.2344 314.8125,784.0938 313.9375,784.0938 C311.3125,784.0938 309.3125,786.1719 309.3125,788.8906 L309.3125,790.0156 C309.3125,792.5938 311.4219,794.4844 314.3125,794.4844 C315.5313,794.4844 316.6875,794.1875 317.4375,793.6406 C318.0156,793.2344 318.3438,792.7813 318.3438,792.3906 C318.3438,791.9375 317.9531,791.5469 317.4844,791.5469 C317.2656,791.5469 317.0625,791.625 316.875,791.8125 C316.4219,792.2969 316.4219,792.2969 316.2344,792.3906 C315.8125,792.6563 315.125,792.7813 314.3594,792.7813 C312.3125,792.7813 311.0156,791.6875 311.0156,789.9844 L311.0156,788.8906 C311.0156,787.1094 312.2656,785.7969 314,785.7969 C314.5781,785.7969 315.1875,785.9531 315.6563,786.2031 C316.1406,786.4844 316.3125,786.7031 316.4063,787.1094 C316.4688,787.5156 316.5,787.6406 316.6406,787.7656 C316.7813,787.9063 317.0156,788.0156 317.2344,788.0156 C317.5,788.0156 317.7656,787.875 317.9375,787.6563 C318.0469,787.5 318.0781,787.3125 318.0781,786.8906 L318.0781,785.4688 C318.0781,785.0313 318.0625,784.9063 317.9688,784.75 C317.8125,784.4844 317.5313,784.3438 317.2344,784.3438 C316.9375,784.3438 316.7344,784.4375 316.5156,784.75 L316.3438,784.6719 Z " fill="#000000"/><text fill="#000000" font-family="sans-serif" font-size="14" lengthAdjust="spacing" textLength="162" x="328" y="793.8467">ModelUpdateIdentifier</text><line style="stroke:#181818;stroke-width:0.5;" x1="300" x2="492" y1="805" y2="805"/><line style="stroke:#181818;stroke-width:0.5;" x1="300" x2="492" y1="813" y2="813"/></g><!--class ExperimentState--><g id="elem_ExperimentState"><rect fill="#F1F1F1" height="48" id="ExperimentState" rx="2.5" ry="2.5" style="stroke:#181818;stroke-width:0.5;" width="157" x="288.5" y="648"/><ellipse cx="303.5" cy="664" fill="#ADD1B2" rx="11" ry="11" style="stroke:#181818;stroke-width:1.0;"/><path d="M305.8438,659.6719 C304.9063,659.2344 304.3125,659.0938 303.4375,659.0938 C300.8125,659.0938 298.8125,661.1719 298.8125,663.8906 L298.8125,665.0156 C298.8125,667.5938 300.9219,669.4844 303.8125,669.4844 C305.0313,669.4844 306.1875,669.1875 306.9375,668.6406 C307.5156,668.2344 307.8438,667.7813 307.8438,667.3906 C307.8438,666.9375 307.4531,666.5469 306.9844,666.5469 C306.7656,666.5469 306.5625,666.625 306.375,666.8125 C305.9219,667.2969 305.9219,667.2969 305.7344,667.3906 C305.3125,667.6563 304.625,667.7813 303.8594,667.7813 C301.8125,667.7813 300.5156,666.6875 300.5156,664.9844 L300.5156,663.8906 C300.5156,662.1094 301.7656,660.7969 303.5,660.7969 C304.0781,660.7969 304.6875,660.9531 305.1563,661.2031 C305.6406,661.4844 305.8125,661.7031 305.9063,662.1094 C305.9688,662.5156 306,662.6406 306.1406,662.7656 C306.2813,662.9063 306.5156,663.0156 306.7344,663.0156 C307,663.0156 307.2656,662.875 307.4375,662.6563 C307.5469,662.5 307.5781,662.3125 307.5781,661.8906 L307.5781,660.4688 C307.5781,660.0313 307.5625,659.9063 307.4688,659.75 C307.3125,659.4844 307.0313,659.3438 306.7344,659.3438 C306.4375,659.3438 306.2344,659.4375 306.0156,659.75 L305.8438,659.6719 Z " fill="#000000"/><text fill="#000000" font-family="sans-serif" font-size="14" lengthAdjust="spacing" textLength="125" x="317.5" y="668.8467">ExperimentState</text><line style="stroke:#181818;stroke-width:0.5;" x1="289.5" x2="444.5" y1="680" y2="680"/><line style="stroke:#181818;stroke-width:0.5;" x1="289.5" x2="444.5" y1="688" y2="688"/></g><!--reverse link AAuditoryStimulus to N400Stimulus--><g id="link_AAuditoryStimulus_N400Stimulus"><path codeLine="68" d="M1874.5944,150.4885 C1807.7744,163.1435 1753.6,173.147 1687,185 C1567.58,206.255 1433.38,228.618 1327.09,245.974 " fill="none" id="AAuditoryStimulus-backto-N400Stimulus" style="stroke:#181818;stroke-width:1.0;"/><polygon fill="none" points="1892.28,147.139,1873.4779,144.5933,1875.7109,156.3837,1892.28,147.139" style="stroke:#181818;stroke-width:1.0;"/></g><!--reverse link AAuditoryStimulus to ASSRStimulus--><g id="link_AAuditoryStimulus_ASSRStimulus"><path codeLine="69" d="M1908.3076,191.5565 C1852.1176,213.4445 1812.31,228.956 1768.63,245.974 " fill="none" id="AAuditoryStimulus-backto-ASSRStimulus" style="stroke:#181818;stroke-width:1.0;"/><polygon fill="none" points="1925.08,185.023,1906.1298,185.9656,1910.4854,197.1473,1925.08,185.023" style="stroke:#181818;stroke-width:1.0;"/></g><!--reverse link AAuditoryStimulus to NoiseTaggingStimulus--><g id="link_AAuditoryStimulus_NoiseTaggingStimulus"><path codeLine="70" d="M2204.8125,201.1456 C2216.0425,222.8806 2219.08,228.767 2227.84,245.715 " fill="none" id="AAuditoryStimulus-backto-NoiseTaggingStimulus" style="stroke:#181818;stroke-width:1.0;"/><polygon fill="none" points="2196.55,185.154,2199.482,203.8998,2210.143,198.3914,2196.55,185.154" style="stroke:#181818;stroke-width:1.0;"/></g><!--reverse link AAuditoryStimulus to MockStimulus--><g id="link_AAuditoryStimulus_MockStimulus"><path codeLine="71" d="M2427.2434,173.7344 C2523.6634,200.5164 2610.75,224.709 2687.13,245.925 " fill="none" id="AAuditoryStimulus-backto-MockStimulus" style="stroke:#181818;stroke-width:1.0;"/><polygon fill="none" points="2409.9,168.917,2425.6376,179.5155,2428.8492,167.9532,2409.9,168.917" style="stroke:#181818;stroke-width:1.0;"/></g><!--reverse link View to PsychopyView--><g id="link_View_PsychopyView"><path codeLine="73" d="M178.7731,707.7324 C152.6701,729.7234 127.4,751.0123 101.3383,772.9684 " fill="none" id="View-backto-PsychopyView" style="stroke:#181818;stroke-width:1.0;"/><polygon fill="none" points="192.539,696.135,174.9073,703.1437,182.6389,712.321,192.539,696.135" style="stroke:#181818;stroke-width:1.0;"/></g><!--reverse link View to CLIView--><g id="link_View_CLIView"><path codeLine="74" d="M220,714.135 C220,736.126 220,751.0123 220,772.9684 " fill="none" id="View-backto-CLIView" style="stroke:#181818;stroke-width:1.0;"/><polygon fill="none" points="220,696.135,214,714.135,226,714.135,220,696.135" style="stroke:#181818;stroke-width:1.0;"/></g><!--link View to ModelUpdateIdentifier--><g id="link_View_ModelUpdateIdentifier"><path codeLine="76" d="M253.104,696.135 C284.57,718.126 326.709,747.5753 358.126,769.5314 " fill="none" id="View-to-ModelUpdateIdentifier" style="stroke:#181818;stroke-width:1.0;stroke-dasharray:7.0,7.0;"/><polygon fill="#181818" points="363.044,772.9684,357.9583,764.5342,358.9456,770.1042,353.3756,771.0916,363.044,772.9684" style="stroke:#181818;stroke-width:1.0;"/><text fill="#000000" font-family="sans-serif" font-size="13" lengthAdjust="spacing" textLength="30" x="320" y="739.0669">uses</text></g><!--reverse link Model to ExperimentState--><g id="link_Model_ExperimentState"><path codeLine="78" d="M344.6547,536.9257 C351.8297,579.9777 358.332,618.994 363.146,647.875 " fill="none" id="Model-backto-ExperimentState" style="stroke:#181818;stroke-width:1.0;"/><polygon fill="none" points="342.682,525.089,339.7228,531.6649,344.6547,536.9257,347.6139,530.3498,342.682,525.089" style="stroke:#181818;stroke-width:1.0;"/><text fill="#000000" font-family="sans-serif" font-size="13" lengthAdjust="spacing" textLength="7" x="336.5572" y="545.2224">*</text><text fill="#000000" font-family="sans-serif" font-size="13" lengthAdjust="spacing" textLength="8" x="353.1334" y="636.855">1</text></g><!--reverse link Experiment to Model--><g id="link_Experiment_Model"><path codeLine="79" d="M541.1196,146.6266 C501.2626,203.3336 434.271,298.647 383.653,370.664 " fill="none" id="Experiment-backto-Model" style="stroke:#181818;stroke-width:1.0;"/><polygon fill="#181818" points="548.02,136.809,541.2973,139.4177,541.1196,146.6266,547.8423,144.0179,548.02,136.809" style="stroke:#181818;stroke-width:1.0;"/><text fill="#000000" font-family="sans-serif" font-size="13" lengthAdjust="spacing" textLength="8" x="535.3229" y="156.0109">1</text><text fill="#000000" font-family="sans-serif" font-size="13" lengthAdjust="spacing" textLength="8" x="380.2304" y="359.914">1</text></g><!--reverse link Experiment to AView--><g id="link_Experiment_AView"><path codeLine="80" d="M610.7476,146.6397 C657.0276,212.7527 742.5,334.857 790.478,403.397 " fill="none" id="Experiment-backto-AView" style="stroke:#181818;stroke-width:1.0;"/><polygon fill="#181818" points="603.866,136.809,604.0299,144.0182,610.7476,146.6397,610.5837,139.4305,603.866,136.809" style="stroke:#181818;stroke-width:1.0;"/><text fill="#000000" font-family="sans-serif" font-size="13" lengthAdjust="spacing" textLength="8" x="599.3713" y="156.0109">1</text><text fill="#000000" font-family="sans-serif" font-size="13" lengthAdjust="spacing" textLength="8" x="777.1918" y="392.5066">1</text></g><!--link Model to View--><g id="link_Model_View"><path codeLine="82" d="M292.298,525.089 C270.966,568.141 245.769,618.994 231.458,647.875 " fill="none" id="Model-View" style="stroke:#181818;stroke-width:1.0;"/><text fill="#000000" font-family="sans-serif" font-size="13" lengthAdjust="spacing" textLength="8" x="280.3233" y="545.2224">1</text><text fill="#000000" font-family="sans-serif" font-size="13" lengthAdjust="spacing" textLength="7" x="226.4972" y="636.855">*</text></g><!--SRC=[jLLRRzem67tFh_YKlOGEgaxQ4q98KHUrI2CWabqaX2oJc60jYIFReKDj__jy2I6qyB1fy69oliivFlQN93aM0eBV5U6q8AM4PmVKx-CHyGgMadm8KxtqOKV9qn3yxshfsLJOCPe2hqklvxmwJc8wccmOZMPhGVWEhtCo7jlMWvmAkHIIhw3YhAZaetfcV6-32eUavbmHpqtKiRZXA9cacxsNOecLX7BV1vggHBgXX0yXC9pVAXKcanPlH5gD95DSX7js4vqzsFRa2Lb9dbs6eEHqCv8jBZE2I6iE4bAnURhI_5CgZiv56Z6UaB8ktaKQgnT154_21nJ5VXmO9FWv3nQJQH36kXQlbGYSIB366kT78sPy9NmyFfoO4VXyo7w5sXZnJsQj6SkxhJ8YKSBA3UK5bfIT7FHSx9Cjg_PQbfBIulTV9qV8xlyiPIC_37wW-M8sdSTlBB2-eFj7Ftm8lfmpnAzJgYzG96bHvxKm7GSQPO0Grgjpk7QmtEGCopwOPGKhbI5C7KMqbFggva9dpogzKPmlJP_LeH5wedBRLDH2tqthErBLL2BacIpbjrxwqBGUWY7tkjozLQ-jJZZHHtK4Aaw47hsUPlXWjz8v3sGBa9fCxM5gjVqTjtQoEQhmyztTYNaDu_-WQU-37qMBgvE4Z0eIuooZPNP5ilOTb_ow8ilxYprw6GnEJkjIJjViYttEU7KfjxjJnp5pRV3ky7VWPlQRpDlRCPmT_I6ujI32THpxjN1lN603LUz-Sk7DozBfVA9q-EQGPqelHdshe-cl01DGF1h_0m00]--></g></svg>