<?xml version="1.0" encoding="us-ascii" standalone="no"?><svg xmlns="http://www.w3.org/2000/svg" xmlns:xlink="http://www.w3.org/1999/xlink" contentStyleType="text/css" height="316px" preserveAspectRatio="none" style="width:2201px;height:316px;background:#FFFFFF;" version="1.1" viewBox="0 0 2201 316" width="2201px" zoomAndPan="magnify"><defs/><g><!--class AAuditoryStimulus--><g id="elem_AAuditoryStimulus"><rect codeLine="1" fill="#F1F1F1" height="178.375" id="AAuditoryStimulus" rx="2.5" ry="2.5" style="stroke:#181818;stroke-width:0.5;" width="517" x="842.5" y="7"/><ellipse cx="1031.25" cy="23" fill="#A9DCDF" rx="11" ry="11" style="stroke:#181818;stroke-width:1.0;"/><path d="M1033.3281,24.8125 L1033.7188,25.7969 L1033.3281,25.7969 C1032.875,25.7969 1032.7656,25.8125 1032.6094,25.9219 C1032.3594,26.0781 1032.2031,26.3594 1032.2031,26.6563 C1032.2031,26.9219 1032.3438,27.1719 1032.5625,27.3281 C1032.7031,27.4531 1032.9063,27.5 1033.3281,27.5 L1035.6875,27.5 C1036.0469,27.5 1036.2656,27.4688 1036.4063,27.375 C1036.6563,27.2344 1036.8125,26.9375 1036.8125,26.6563 C1036.8125,26.375 1036.6719,26.125 1036.4531,25.9688 C1036.2813,25.8281 1036.125,25.7969 1035.6563,25.7969 L1032.2656,17.5938 L1028.5938,17.5938 C1028.1406,17.5938 1028.0156,17.6094 1027.8594,17.7031 C1027.6094,17.875 1027.4531,18.1563 1027.4531,18.4375 C1027.4531,18.7188 1027.5938,18.9688 1027.8125,19.1406 C1027.9844,19.25 1028.1563,19.2813 1028.5938,19.2813 L1029.6719,19.2813 L1027.0313,25.7969 C1026.6094,25.7969 1026.4531,25.8125 1026.2969,25.9219 C1026.0469,26.0781 1025.8906,26.3594 1025.8906,26.6563 C1025.8906,27.2188 1026.2656,27.5 1027.0156,27.5 L1029.2813,27.5 C1029.6406,27.5 1029.8594,27.4688 1029.9844,27.375 C1030.25,27.2344 1030.3906,26.9375 1030.3906,26.6563 C1030.3906,26.375 1030.2656,26.125 1030.0469,25.9531 C1029.875,25.8281 1029.7344,25.7969 1029.2813,25.7969 L1028.8906,25.7969 L1029.2813,24.8125 L1033.3281,24.8125 Z M1032.625,23.1094 L1029.9531,23.1094 L1031.2969,19.8438 L1032.625,23.1094 Z " fill="#000000"/><text fill="#000000" font-family="sans-serif" font-size="14" font-style="italic" lengthAdjust="spacing" textLength="131" x="1051.75" y="27.8467">AAuditoryStimulus</text><line style="stroke:#181818;stroke-width:0.5;" x1="843.5" x2="1358.5" y1="39" y2="39"/><rect fill="none" height="6" style="stroke:#C82930;stroke-width:1.0;" width="6" x="850.5" y="49.6484"/><text fill="#000000" font-family="sans-serif" font-size="14" lengthAdjust="spacing" textLength="96" x="862.5" y="55.9951">Audio __audio</text><rect fill="none" height="6" style="stroke:#C82930;stroke-width:1.0;" width="6" x="850.5" y="65.9453"/><text fill="#000000" font-family="sans-serif" font-size="14" lengthAdjust="spacing" textLength="261" x="862.5" y="72.292">list[ [float, float] ] __stimuli_intervals</text><rect fill="none" height="6" style="stroke:#C82930;stroke-width:1.0;" width="6" x="850.5" y="82.2422"/><text fill="#000000" font-family="sans-serif" font-size="14" lengthAdjust="spacing" textLength="272" x="862.5" y="88.5889">Optional[Audio] __audio_with_stimulus</text><line style="stroke:#181818;stroke-width:0.5;" x1="843.5" x2="1358.5" y1="95.8906" y2="95.8906"/><ellipse cx="853.5" cy="109.5391" fill="#84BE84" rx="3" ry="3" style="stroke:#038048;stroke-width:1.0;"/><text fill="#000000" font-family="sans-serif" font-size="14" lengthAdjust="spacing" textLength="366" x="862.5" y="112.8857">void __init__(audio: Audio, stimuli: list[(float, float)])</text><ellipse cx="853.5" cy="125.8359" fill="#84BE84" rx="3" ry="3" style="stroke:#038048;stroke-width:1.0;"/><text fill="#000000" font-family="sans-serif" font-size="14" lengthAdjust="spacing" textLength="91" x="862.5" y="129.1826">void create()</text><ellipse cx="853.5" cy="142.1328" fill="#84BE84" rx="3" ry="3" style="stroke:#038048;stroke-width:1.0;"/><text fill="#000000" font-family="sans-serif" font-size="14" lengthAdjust="spacing" textLength="101" x="862.5" y="145.4795">void present()</text><text fill="#000000" font-family="sans-serif" font-size="14" lengthAdjust="spacing" textLength="4" x="862.5" y="161.7764">&#160;</text><polygon fill="#FFFF44" points="853.5,169.7266,857.5,173.7266,853.5,177.7266,849.5,173.7266" style="stroke:#B38D22;stroke-width:1.0;"/><text fill="#000000" font-family="sans-serif" font-size="14" font-style="italic" lengthAdjust="spacing" textLength="491" x="862.5" y="178.0732">Audio _create_modified_audio(audio: Audio, stimuli: list[(float, float)])</text></g><!--class N400Stimulus--><g id="elem_N400Stimulus"><rect codeLine="15" fill="#F1F1F1" height="64.2969" id="N400Stimulus" rx="2.5" ry="2.5" style="stroke:#181818;stroke-width:0.5;" width="520" x="9" y="245"/><ellipse cx="216.25" cy="261" fill="#ADD1B2" rx="11" ry="11" style="stroke:#181818;stroke-width:1.0;"/><path d="M218.5938,256.6719 C217.6563,256.2344 217.0625,256.0938 216.1875,256.0938 C213.5625,256.0938 211.5625,258.1719 211.5625,260.8906 L211.5625,262.0156 C211.5625,264.5938 213.6719,266.4844 216.5625,266.4844 C217.7813,266.4844 218.9375,266.1875 219.6875,265.6406 C220.2656,265.2344 220.5938,264.7813 220.5938,264.3906 C220.5938,263.9375 220.2031,263.5469 219.7344,263.5469 C219.5156,263.5469 219.3125,263.625 219.125,263.8125 C218.6719,264.2969 218.6719,264.2969 218.4844,264.3906 C218.0625,264.6563 217.375,264.7813 216.6094,264.7813 C214.5625,264.7813 213.2656,263.6875 213.2656,261.9844 L213.2656,260.8906 C213.2656,259.1094 214.5156,257.7969 216.25,257.7969 C216.8281,257.7969 217.4375,257.9531 217.9063,258.2031 C218.3906,258.4844 218.5625,258.7031 218.6563,259.1094 C218.7188,259.5156 218.75,259.6406 218.8906,259.7656 C219.0313,259.9063 219.2656,260.0156 219.4844,260.0156 C219.75,260.0156 220.0156,259.875 220.1875,259.6563 C220.2969,259.5 220.3281,259.3125 220.3281,258.8906 L220.3281,257.4688 C220.3281,257.0313 220.3125,256.9063 220.2188,256.75 C220.0625,256.4844 219.7813,256.3438 219.4844,256.3438 C219.1875,256.3438 218.9844,256.4375 218.7656,256.75 L218.5938,256.6719 Z " fill="#000000"/><text fill="#000000" font-family="sans-serif" font-size="14" lengthAdjust="spacing" textLength="97" x="236.75" y="265.8467">N400Stimulus</text><line style="stroke:#181818;stroke-width:0.5;" x1="10" x2="528" y1="277" y2="277"/><line style="stroke:#181818;stroke-width:0.5;" x1="10" x2="528" y1="285" y2="285"/><polygon fill="#FFFF44" points="20,293.6484,24,297.6484,20,301.6484,16,297.6484" style="stroke:#B38D22;stroke-width:1.0;"/><text fill="#000000" font-family="sans-serif" font-size="14" lengthAdjust="spacing" textLength="494" x="29" y="301.9951">Audio _create_modified_audio(audio: Audio, stimuli: list[(float, float)])</text></g><!--class ASSRStimulus--><g id="elem_ASSRStimulus"><rect codeLine="19" fill="#F1F1F1" height="64.2969" id="ASSRStimulus" rx="2.5" ry="2.5" style="stroke:#181818;stroke-width:0.5;" width="520" x="564" y="245"/><ellipse cx="770.25" cy="261" fill="#ADD1B2" rx="11" ry="11" style="stroke:#181818;stroke-width:1.0;"/><path d="M772.5938,256.6719 C771.6563,256.2344 771.0625,256.0938 770.1875,256.0938 C767.5625,256.0938 765.5625,258.1719 765.5625,260.8906 L765.5625,262.0156 C765.5625,264.5938 767.6719,266.4844 770.5625,266.4844 C771.7813,266.4844 772.9375,266.1875 773.6875,265.6406 C774.2656,265.2344 774.5938,264.7813 774.5938,264.3906 C774.5938,263.9375 774.2031,263.5469 773.7344,263.5469 C773.5156,263.5469 773.3125,263.625 773.125,263.8125 C772.6719,264.2969 772.6719,264.2969 772.4844,264.3906 C772.0625,264.6563 771.375,264.7813 770.6094,264.7813 C768.5625,264.7813 767.2656,263.6875 767.2656,261.9844 L767.2656,260.8906 C767.2656,259.1094 768.5156,257.7969 770.25,257.7969 C770.8281,257.7969 771.4375,257.9531 771.9063,258.2031 C772.3906,258.4844 772.5625,258.7031 772.6563,259.1094 C772.7188,259.5156 772.75,259.6406 772.8906,259.7656 C773.0313,259.9063 773.2656,260.0156 773.4844,260.0156 C773.75,260.0156 774.0156,259.875 774.1875,259.6563 C774.2969,259.5 774.3281,259.3125 774.3281,258.8906 L774.3281,257.4688 C774.3281,257.0313 774.3125,256.9063 774.2188,256.75 C774.0625,256.4844 773.7813,256.3438 773.4844,256.3438 C773.1875,256.3438 772.9844,256.4375 772.7656,256.75 L772.5938,256.6719 Z " fill="#000000"/><text fill="#000000" font-family="sans-serif" font-size="14" lengthAdjust="spacing" textLength="99" x="790.75" y="265.8467">ASSRStimulus</text><line style="stroke:#181818;stroke-width:0.5;" x1="565" x2="1083" y1="277" y2="277"/><line style="stroke:#181818;stroke-width:0.5;" x1="565" x2="1083" y1="285" y2="285"/><polygon fill="#FFFF44" points="575,293.6484,579,297.6484,575,301.6484,571,297.6484" style="stroke:#B38D22;stroke-width:1.0;"/><text fill="#000000" font-family="sans-serif" font-size="14" lengthAdjust="spacing" textLength="494" x="584" y="301.9951">Audio _create_modified_audio(audio: Audio, stimuli: list[(float, float)])</text></g><!--class NoiseTaggingStimulus--><g id="elem_NoiseTaggingStimulus"><rect codeLine="23" fill="#F1F1F1" height="64.2969" id="NoiseTaggingStimulus" rx="2.5" ry="2.5" style="stroke:#181818;stroke-width:0.5;" width="520" x="1119" y="245"/><ellipse cx="1296.25" cy="261" fill="#ADD1B2" rx="11" ry="11" style="stroke:#181818;stroke-width:1.0;"/><path d="M1298.5938,256.6719 C1297.6563,256.2344 1297.0625,256.0938 1296.1875,256.0938 C1293.5625,256.0938 1291.5625,258.1719 1291.5625,260.8906 L1291.5625,262.0156 C1291.5625,264.5938 1293.6719,266.4844 1296.5625,266.4844 C1297.7813,266.4844 1298.9375,266.1875 1299.6875,265.6406 C1300.2656,265.2344 1300.5938,264.7813 1300.5938,264.3906 C1300.5938,263.9375 1300.2031,263.5469 1299.7344,263.5469 C1299.5156,263.5469 1299.3125,263.625 1299.125,263.8125 C1298.6719,264.2969 1298.6719,264.2969 1298.4844,264.3906 C1298.0625,264.6563 1297.375,264.7813 1296.6094,264.7813 C1294.5625,264.7813 1293.2656,263.6875 1293.2656,261.9844 L1293.2656,260.8906 C1293.2656,259.1094 1294.5156,257.7969 1296.25,257.7969 C1296.8281,257.7969 1297.4375,257.9531 1297.9063,258.2031 C1298.3906,258.4844 1298.5625,258.7031 1298.6563,259.1094 C1298.7188,259.5156 1298.75,259.6406 1298.8906,259.7656 C1299.0313,259.9063 1299.2656,260.0156 1299.4844,260.0156 C1299.75,260.0156 1300.0156,259.875 1300.1875,259.6563 C1300.2969,259.5 1300.3281,259.3125 1300.3281,258.8906 L1300.3281,257.4688 C1300.3281,257.0313 1300.3125,256.9063 1300.2188,256.75 C1300.0625,256.4844 1299.7813,256.3438 1299.4844,256.3438 C1299.1875,256.3438 1298.9844,256.4375 1298.7656,256.75 L1298.5938,256.6719 Z " fill="#000000"/><text fill="#000000" font-family="sans-serif" font-size="14" lengthAdjust="spacing" textLength="157" x="1316.75" y="265.8467">NoiseTaggingStimulus</text><line style="stroke:#181818;stroke-width:0.5;" x1="1120" x2="1638" y1="277" y2="277"/><line style="stroke:#181818;stroke-width:0.5;" x1="1120" x2="1638" y1="285" y2="285"/><polygon fill="#FFFF44" points="1130,293.6484,1134,297.6484,1130,301.6484,1126,297.6484" style="stroke:#B38D22;stroke-width:1.0;"/><text fill="#000000" font-family="sans-serif" font-size="14" lengthAdjust="spacing" textLength="494" x="1139" y="301.9951">Audio _create_modified_audio(audio: Audio, stimuli: list[(float, float)])</text></g><!--class MockStimulus--><g id="elem_MockStimulus"><rect codeLine="28" fill="#F1F1F1" height="64.2969" id="MockStimulus" rx="2.5" ry="2.5" style="stroke:#181818;stroke-width:0.5;" width="520" x="1674" y="245"/><ellipse cx="1880.25" cy="261" fill="#ADD1B2" rx="11" ry="11" style="stroke:#181818;stroke-width:1.0;"/><path d="M1882.5938,256.6719 C1881.6563,256.2344 1881.0625,256.0938 1880.1875,256.0938 C1877.5625,256.0938 1875.5625,258.1719 1875.5625,260.8906 L1875.5625,262.0156 C1875.5625,264.5938 1877.6719,266.4844 1880.5625,266.4844 C1881.7813,266.4844 1882.9375,266.1875 1883.6875,265.6406 C1884.2656,265.2344 1884.5938,264.7813 1884.5938,264.3906 C1884.5938,263.9375 1884.2031,263.5469 1883.7344,263.5469 C1883.5156,263.5469 1883.3125,263.625 1883.125,263.8125 C1882.6719,264.2969 1882.6719,264.2969 1882.4844,264.3906 C1882.0625,264.6563 1881.375,264.7813 1880.6094,264.7813 C1878.5625,264.7813 1877.2656,263.6875 1877.2656,261.9844 L1877.2656,260.8906 C1877.2656,259.1094 1878.5156,257.7969 1880.25,257.7969 C1880.8281,257.7969 1881.4375,257.9531 1881.9063,258.2031 C1882.3906,258.4844 1882.5625,258.7031 1882.6563,259.1094 C1882.7188,259.5156 1882.75,259.6406 1882.8906,259.7656 C1883.0313,259.9063 1883.2656,260.0156 1883.4844,260.0156 C1883.75,260.0156 1884.0156,259.875 1884.1875,259.6563 C1884.2969,259.5 1884.3281,259.3125 1884.3281,258.8906 L1884.3281,257.4688 C1884.3281,257.0313 1884.3125,256.9063 1884.2188,256.75 C1884.0625,256.4844 1883.7813,256.3438 1883.4844,256.3438 C1883.1875,256.3438 1882.9844,256.4375 1882.7656,256.75 L1882.5938,256.6719 Z " fill="#000000"/><text fill="#000000" font-family="sans-serif" font-size="14" lengthAdjust="spacing" textLength="99" x="1900.75" y="265.8467">MockStimulus</text><line style="stroke:#181818;stroke-width:0.5;" x1="1675" x2="2193" y1="277" y2="277"/><line style="stroke:#181818;stroke-width:0.5;" x1="1675" x2="2193" y1="285" y2="285"/><polygon fill="#FFFF44" points="1685,293.6484,1689,297.6484,1685,301.6484,1681,297.6484" style="stroke:#B38D22;stroke-width:1.0;"/><text fill="#000000" font-family="sans-serif" font-size="14" lengthAdjust="spacing" textLength="494" x="1694" y="301.9951">Audio _create_modified_audio(audio: Audio, stimuli: list[(float, float)])</text></g><!--reverse link AAuditoryStimulus to N400Stimulus--><g id="link_AAuditoryStimulus_N400Stimulus"><path codeLine="32" d="M824.7136,156.4419 C683.3956,186.8449 531.271,219.5739 413.328,244.9488 " fill="none" id="AAuditoryStimulus-backto-N400Stimulus" style="stroke:#181818;stroke-width:1.0;"/><polygon fill="none" points="842.311,152.656,823.4517,150.5761,825.9756,162.3077,842.311,152.656" style="stroke:#181818;stroke-width:1.0;"/></g><!--reverse link AAuditoryStimulus to ASSRStimulus--><g id="link_AAuditoryStimulus_ASSRStimulus"><path codeLine="33" d="M949.4108,194.9583 C916.2258,216.4023 898.004,228.1776 872.132,244.8969 " fill="none" id="AAuditoryStimulus-backto-ASSRStimulus" style="stroke:#181818;stroke-width:1.0;"/><polygon fill="none" points="964.529,185.189,946.1543,189.9189,952.6672,199.9977,964.529,185.189" style="stroke:#181818;stroke-width:1.0;"/></g><!--reverse link AAuditoryStimulus to NoiseTaggingStimulus--><g id="link_AAuditoryStimulus_NoiseTaggingStimulus"><path codeLine="34" d="M1253.0949,194.9324 C1286.4049,216.3764 1304.73,228.1776 1330.69,244.8969 " fill="none" id="AAuditoryStimulus-backto-NoiseTaggingStimulus" style="stroke:#181818;stroke-width:1.0;"/><polygon fill="none" points="1237.96,185.189,1249.8471,199.9774,1256.3427,189.8874,1237.96,185.189" style="stroke:#181818;stroke-width:1.0;"/></g><!--reverse link AAuditoryStimulus to MockStimulus--><g id="link_AAuditoryStimulus_MockStimulus"><path codeLine="35" d="M1377.3183,156.3757 C1518.9383,186.8087 1671.53,219.5979 1789.7,244.9915 " fill="none" id="AAuditoryStimulus-backto-MockStimulus" style="stroke:#181818;stroke-width:1.0;"/><polygon fill="none" points="1359.72,152.594,1376.0577,162.2418,1378.5788,150.5096,1359.72,152.594" style="stroke:#181818;stroke-width:1.0;"/></g><!--SRC=[jPAnQiCm48PtFSL15uV6a25JwE87Q0frDsE4QYlk4KKAqZabf7xtohBIEhGU2lLqyEl_xzET95uTML4HL4eu1rdMraZ6ddF2GwjQ1nS6aFQg0Sv5Ntj1eQC2YfqoWfOGIWcbTxYGGuwQf3q9vNhtqv7GQA6AqAUyDkBlI6ynqJhcdVSdWxK_Het4UH9S6mYf9SJM6mZmPCnUb8klT6Mb89by2qShdTJa5I_T3QDSH9ox0pu4-C7Kk4DP3tVx6vjrZB5XWzlrQdMpl4Zy3qntXMHv_ZmxP6lGoHVHDAYR6M6HzcYg_OoKdn_xuIDDRrvhoZDUzcIVNtOrvHrF-Wa0]--></g></svg>