<?xml version="1.0" encoding="us-ascii" standalone="no"?><svg xmlns="http://www.w3.org/2000/svg" xmlns:xlink="http://www.w3.org/1999/xlink" contentStyleType="text/css" height="1358px" preserveAspectRatio="none" style="width:4576px;height:1358px;background:#FFFFFF;" version="1.1" viewBox="0 0 4576 1358" width="4576px" zoomAndPan="magnify"><defs/><g><!--cluster view--><g id="cluster_view"><path d="M195.5,327 L232.5,327 A3.75,3.75 0 0 1 235,329.5 L242,349.2969 L747.5,349.2969 A2.5,2.5 0 0 1 750,351.7969 L750,801.5 A2.5,2.5 0 0 1 747.5,804 L195.5,804 A2.5,2.5 0 0 1 193,801.5 L193,329.5 A2.5,2.5 0 0 1 195.5,327 " fill="none" style="stroke:#000000;stroke-width:1.5;"/><line style="stroke:#000000;stroke-width:1.5;" x1="193" x2="242" y1="349.2969" y2="349.2969"/><text fill="#000000" font-family="sans-serif" font-size="14" font-weight="bold" lengthAdjust="spacing" textLength="36" x="197" y="341.9951">view</text></g><!--cluster model--><g id="cluster_model"><path d="M844.5,636 L894.5,636 A3.75,3.75 0 0 1 897,638.5 L904,658.2969 L2549.5,658.2969 A2.5,2.5 0 0 1 2552,660.7969 L2552,1189.5 A2.5,2.5 0 0 1 2549.5,1192 L844.5,1192 A2.5,2.5 0 0 1 842,1189.5 L842,638.5 A2.5,2.5 0 0 1 844.5,636 " fill="none" style="stroke:#000000;stroke-width:1.5;"/><line style="stroke:#000000;stroke-width:1.5;" x1="842" x2="904" y1="658.2969" y2="658.2969"/><text fill="#000000" font-family="sans-serif" font-size="14" font-weight="bold" lengthAdjust="spacing" textLength="49" x="846" y="650.9951">model</text></g><!--cluster constants--><g id="cluster_constants"><path d="M1171.5,947 L1255.5,947 A3.75,3.75 0 0 1 1258,949.5 L1265,969.2969 L1738.5,969.2969 A2.5,2.5 0 0 1 1741,971.7969 L1741,1157.5 A2.5,2.5 0 0 1 1738.5,1160 L1171.5,1160 A2.5,2.5 0 0 1 1169,1157.5 L1169,949.5 A2.5,2.5 0 0 1 1171.5,947 " fill="none" style="stroke:#000000;stroke-width:1.5;"/><line style="stroke:#000000;stroke-width:1.5;" x1="1169" x2="1265" y1="969.2969" y2="969.2969"/><text fill="#000000" font-family="sans-serif" font-size="14" font-weight="bold" lengthAdjust="spacing" textLength="83" x="1173" y="961.9951">constants</text></g><!--cluster auditory_tagging--><g id="cluster_auditory_tagging"><path d="M948.5,6 L1088.5,6 A3.75,3.75 0 0 1 1091,8.5 L1098,28.2969 L4184.5,28.2969 A2.5,2.5 0 0 1 4187,30.7969 L4187,541.5 A2.5,2.5 0 0 1 4184.5,544 L948.5,544 A2.5,2.5 0 0 1 946,541.5 L946,8.5 A2.5,2.5 0 0 1 948.5,6 " fill="none" style="stroke:#000000;stroke-width:1.5;"/><line style="stroke:#000000;stroke-width:1.5;" x1="946" x2="1098" y1="28.2969" y2="28.2969"/><text fill="#000000" font-family="sans-serif" font-size="14" font-weight="bold" lengthAdjust="spacing" textLength="139" x="950" y="20.9951">auditory_tagging</text></g><!--cluster assr_tagger--><g id="cluster_assr_tagger"><path d="M2445.5,57 L2542.5,57 A3.75,3.75 0 0 1 2545,59.5 L2552,79.2969 L4152.5,79.2969 A2.5,2.5 0 0 1 4155,81.7969 L4155,283.5 A2.5,2.5 0 0 1 4152.5,286 L2445.5,286 A2.5,2.5 0 0 1 2443,283.5 L2443,59.5 A2.5,2.5 0 0 1 2445.5,57 " fill="none" style="stroke:#000000;stroke-width:1.5;"/><line style="stroke:#000000;stroke-width:1.5;" x1="2443" x2="2552" y1="79.2969" y2="79.2969"/><text fill="#000000" font-family="sans-serif" font-size="14" font-weight="bold" lengthAdjust="spacing" textLength="96" x="2447" y="71.9951">assr_tagger</text></g><!--cluster shift_taggers--><g id="cluster_shift_taggers"><path d="M1657.5,105.5 L1767.5,105.5 A3.75,3.75 0 0 1 1770,108 L1777,127.7969 L2416.5,127.7969 A2.5,2.5 0 0 1 2419,130.2969 L2419,235 A2.5,2.5 0 0 1 2416.5,237.5 L1657.5,237.5 A2.5,2.5 0 0 1 1655,235 L1655,108 A2.5,2.5 0 0 1 1657.5,105.5 " fill="none" style="stroke:#000000;stroke-width:1.5;"/><line style="stroke:#000000;stroke-width:1.5;" x1="1655" x2="1777" y1="127.7969" y2="127.7969"/><text fill="#000000" font-family="sans-serif" font-size="14" font-weight="bold" lengthAdjust="spacing" textLength="109" x="1659" y="120.4951">shift_taggers</text></g><!--cluster eeg--><g id="cluster_eeg"><path d="M8.5,959.5 L37.5,959.5 A3.75,3.75 0 0 1 40,962 L47,981.7969 L807.5,981.7969 A2.5,2.5 0 0 1 810,984.2969 L810,1349 A2.5,2.5 0 0 1 807.5,1351.5 L8.5,1351.5 A2.5,2.5 0 0 1 6,1349 L6,962 A2.5,2.5 0 0 1 8.5,959.5 " fill="none" style="stroke:#000000;stroke-width:1.5;"/><line style="stroke:#000000;stroke-width:1.5;" x1="6" x2="47" y1="981.7969" y2="981.7969"/><text fill="#000000" font-family="sans-serif" font-size="14" font-weight="bold" lengthAdjust="spacing" textLength="28" x="10" y="974.4951">eeg</text></g><!--class AView--><g id="elem_AView"><rect codeLine="13" fill="#F1F1F1" height="219.2344" id="AView" rx="2.5" ry="2.5" style="stroke:#181818;stroke-width:0.5;" width="489" x="236.5" y="370"/><ellipse cx="444.75" cy="390.1328" fill="#A9DCDF" rx="11" ry="11" style="stroke:#181818;stroke-width:1.0;"/><path d="M446.8281,391.9453 L447.2188,392.9297 L446.8281,392.9297 C446.375,392.9297 446.2656,392.9453 446.1094,393.0547 C445.8594,393.2109 445.7031,393.4922 445.7031,393.7891 C445.7031,394.0547 445.8438,394.3047 446.0625,394.4609 C446.2031,394.5859 446.4063,394.6328 446.8281,394.6328 L449.1875,394.6328 C449.5469,394.6328 449.7656,394.6016 449.9063,394.5078 C450.1563,394.3672 450.3125,394.0703 450.3125,393.7891 C450.3125,393.5078 450.1719,393.2578 449.9531,393.1016 C449.7813,392.9609 449.625,392.9297 449.1563,392.9297 L445.7656,384.7266 L442.0938,384.7266 C441.6406,384.7266 441.5156,384.7422 441.3594,384.8359 C441.1094,385.0078 440.9531,385.2891 440.9531,385.5703 C440.9531,385.8516 441.0938,386.1016 441.3125,386.2734 C441.4844,386.3828 441.6563,386.4141 442.0938,386.4141 L443.1719,386.4141 L440.5313,392.9297 C440.1094,392.9297 439.9531,392.9453 439.7969,393.0547 C439.5469,393.2109 439.3906,393.4922 439.3906,393.7891 C439.3906,394.3516 439.7656,394.6328 440.5156,394.6328 L442.7813,394.6328 C443.1406,394.6328 443.3594,394.6016 443.4844,394.5078 C443.75,394.3672 443.8906,394.0703 443.8906,393.7891 C443.8906,393.5078 443.7656,393.2578 443.5469,393.0859 C443.375,392.9609 443.2344,392.9297 442.7813,392.9297 L442.3906,392.9297 L442.7813,391.9453 L446.8281,391.9453 Z M446.125,390.2422 L443.4531,390.2422 L444.7969,386.9766 L446.125,390.2422 Z " fill="#000000"/><text fill="#000000" font-family="sans-serif" font-size="12" font-style="italic" lengthAdjust="spacing" textLength="68" x="463.25" y="386.1387">&#171;Observer&#187;</text><text fill="#000000" font-family="sans-serif" font-size="14" font-style="italic" lengthAdjust="spacing" textLength="44" x="475.25" y="401.9639">AView</text><line style="stroke:#181818;stroke-width:0.5;" x1="237.5" x2="724.5" y1="410.2656" y2="410.2656"/><polygon fill="none" points="247.5,418.9141,251.5,422.9141,247.5,426.9141,243.5,422.9141" style="stroke:#B38D22;stroke-width:1.0;"/><text fill="#000000" font-family="sans-serif" font-size="14" lengthAdjust="spacing" textLength="260" x="256.5" y="427.2607">Callable[[Audio], None] sound_player</text><polygon fill="none" points="247.5,435.2109,251.5,439.2109,247.5,443.2109,243.5,439.2109" style="stroke:#B38D22;stroke-width:1.0;"/><text fill="#000000" font-family="sans-serif" font-size="14" lengthAdjust="spacing" textLength="408" x="256.5" y="443.5576">Dict[EExperimentState, Optional[str]] experiment_texts</text><line style="stroke:#181818;stroke-width:0.5;" x1="237.5" x2="724.5" y1="450.8594" y2="450.8594"/><ellipse cx="247.5" cy="464.5078" fill="#84BE84" rx="3" ry="3" style="stroke:#038048;stroke-width:1.0;"/><text fill="#000000" font-family="sans-serif" font-size="14" lengthAdjust="spacing" textLength="286" x="256.5" y="467.8545">AView(sound_player, experiment_texts)</text><text fill="#000000" font-family="sans-serif" font-size="14" lengthAdjust="spacing" textLength="4" x="256.5" y="484.1514">&#160;</text><polygon fill="#FFFF44" points="247.5,492.1016,251.5,496.1016,247.5,500.1016,243.5,496.1016" style="stroke:#B38D22;stroke-width:1.0;"/><text fill="#000000" font-family="sans-serif" font-size="14" font-style="italic" lengthAdjust="spacing" textLength="382" x="256.5" y="500.4482">void update_new_stimulus(stimulus: CreatedStimulus)</text><polygon fill="#FFFF44" points="247.5,508.3984,251.5,512.3984,247.5,516.3984,243.5,512.3984" style="stroke:#B38D22;stroke-width:1.0;"/><text fill="#000000" font-family="sans-serif" font-size="14" font-style="italic" lengthAdjust="spacing" textLength="269" x="256.5" y="516.7451">void updated_new_primer(primer: str)</text><polygon fill="#FFFF44" points="247.5,524.6953,251.5,528.6953,247.5,532.6953,243.5,528.6953" style="stroke:#B38D22;stroke-width:1.0;"/><text fill="#000000" font-family="sans-serif" font-size="14" font-style="italic" lengthAdjust="spacing" textLength="463" x="256.5" y="533.042">void update_experiment_state_changed(data: EExperimentState)</text><ellipse cx="247.5" cy="545.9922" fill="#84BE84" rx="3" ry="3" style="stroke:#038048;stroke-width:1.0;"/><text fill="#000000" font-family="sans-serif" font-size="14" lengthAdjust="spacing" textLength="413" x="256.5" y="549.3389">void update(data: Any, identifier: EModelUpdateIdentifier</text><ellipse cx="247.5" cy="562.2891" fill="#84BE84" rx="3" ry="3" style="stroke:#038048;stroke-width:1.0;"/><text fill="#000000" font-family="sans-serif" font-size="14" font-style="italic" lengthAdjust="spacing" textLength="166" x="256.5" y="565.6357">bool get_confirmation()</text><ellipse cx="247.5" cy="578.5859" fill="#84BE84" rx="3" ry="3" style="stroke:#038048;stroke-width:1.0;"/><text fill="#000000" font-family="sans-serif" font-size="14" font-style="italic" lengthAdjust="spacing" textLength="131" x="256.5" y="581.9326">void wait(secs: int)</text></g><!--class PsychopyView--><g id="elem_PsychopyView"><rect codeLine="27" fill="#F1F1F1" height="48" id="PsychopyView" rx="2.5" ry="2.5" style="stroke:#181818;stroke-width:0.5;" width="134" x="375" y="732"/><ellipse cx="390" cy="748" fill="#ADD1B2" rx="11" ry="11" style="stroke:#181818;stroke-width:1.0;"/><path d="M392.3438,743.6719 C391.4063,743.2344 390.8125,743.0938 389.9375,743.0938 C387.3125,743.0938 385.3125,745.1719 385.3125,747.8906 L385.3125,749.0156 C385.3125,751.5938 387.4219,753.4844 390.3125,753.4844 C391.5313,753.4844 392.6875,753.1875 393.4375,752.6406 C394.0156,752.2344 394.3438,751.7813 394.3438,751.3906 C394.3438,750.9375 393.9531,750.5469 393.4844,750.5469 C393.2656,750.5469 393.0625,750.625 392.875,750.8125 C392.4219,751.2969 392.4219,751.2969 392.2344,751.3906 C391.8125,751.6563 391.125,751.7813 390.3594,751.7813 C388.3125,751.7813 387.0156,750.6875 387.0156,748.9844 L387.0156,747.8906 C387.0156,746.1094 388.2656,744.7969 390,744.7969 C390.5781,744.7969 391.1875,744.9531 391.6563,745.2031 C392.1406,745.4844 392.3125,745.7031 392.4063,746.1094 C392.4688,746.5156 392.5,746.6406 392.6406,746.7656 C392.7813,746.9063 393.0156,747.0156 393.2344,747.0156 C393.5,747.0156 393.7656,746.875 393.9375,746.6563 C394.0469,746.5 394.0781,746.3125 394.0781,745.8906 L394.0781,744.4688 C394.0781,744.0313 394.0625,743.9063 393.9688,743.75 C393.8125,743.4844 393.5313,743.3438 393.2344,743.3438 C392.9375,743.3438 392.7344,743.4375 392.5156,743.75 L392.3438,743.6719 Z " fill="#000000"/><text fill="#000000" font-family="sans-serif" font-size="14" lengthAdjust="spacing" textLength="102" x="404" y="752.8467">PsychopyView</text><line style="stroke:#181818;stroke-width:0.5;" x1="376" x2="508" y1="764" y2="764"/><line style="stroke:#181818;stroke-width:0.5;" x1="376" x2="508" y1="772" y2="772"/></g><!--class CLIView--><g id="elem_CLIView"><rect codeLine="30" fill="#F1F1F1" height="48" id="CLIView" rx="2.5" ry="2.5" style="stroke:#181818;stroke-width:0.5;" width="88" x="544" y="732"/><ellipse cx="559" cy="748" fill="#ADD1B2" rx="11" ry="11" style="stroke:#181818;stroke-width:1.0;"/><path d="M561.3438,743.6719 C560.4063,743.2344 559.8125,743.0938 558.9375,743.0938 C556.3125,743.0938 554.3125,745.1719 554.3125,747.8906 L554.3125,749.0156 C554.3125,751.5938 556.4219,753.4844 559.3125,753.4844 C560.5313,753.4844 561.6875,753.1875 562.4375,752.6406 C563.0156,752.2344 563.3438,751.7813 563.3438,751.3906 C563.3438,750.9375 562.9531,750.5469 562.4844,750.5469 C562.2656,750.5469 562.0625,750.625 561.875,750.8125 C561.4219,751.2969 561.4219,751.2969 561.2344,751.3906 C560.8125,751.6563 560.125,751.7813 559.3594,751.7813 C557.3125,751.7813 556.0156,750.6875 556.0156,748.9844 L556.0156,747.8906 C556.0156,746.1094 557.2656,744.7969 559,744.7969 C559.5781,744.7969 560.1875,744.9531 560.6563,745.2031 C561.1406,745.4844 561.3125,745.7031 561.4063,746.1094 C561.4688,746.5156 561.5,746.6406 561.6406,746.7656 C561.7813,746.9063 562.0156,747.0156 562.2344,747.0156 C562.5,747.0156 562.7656,746.875 562.9375,746.6563 C563.0469,746.5 563.0781,746.3125 563.0781,745.8906 L563.0781,744.4688 C563.0781,744.0313 563.0625,743.9063 562.9688,743.75 C562.8125,743.4844 562.5313,743.3438 562.2344,743.3438 C561.9375,743.3438 561.7344,743.4375 561.5156,743.75 L561.3438,743.6719 Z " fill="#000000"/><text fill="#000000" font-family="sans-serif" font-size="14" lengthAdjust="spacing" textLength="56" x="573" y="752.8467">CLIView</text><line style="stroke:#181818;stroke-width:0.5;" x1="545" x2="631" y1="764" y2="764"/><line style="stroke:#181818;stroke-width:0.5;" x1="545" x2="631" y1="772" y2="772"/></g><!--class AObserver--><g id="elem_AObserver"><rect codeLine="35" fill="#F1F1F1" height="64.2969" id="AObserver" rx="2.5" ry="2.5" style="stroke:#181818;stroke-width:0.5;" width="444" x="858" y="724"/><ellipse cx="1038.25" cy="740" fill="#A9DCDF" rx="11" ry="11" style="stroke:#181818;stroke-width:1.0;"/><path d="M1040.3281,741.8125 L1040.7188,742.7969 L1040.3281,742.7969 C1039.875,742.7969 1039.7656,742.8125 1039.6094,742.9219 C1039.3594,743.0781 1039.2031,743.3594 1039.2031,743.6563 C1039.2031,743.9219 1039.3438,744.1719 1039.5625,744.3281 C1039.7031,744.4531 1039.9063,744.5 1040.3281,744.5 L1042.6875,744.5 C1043.0469,744.5 1043.2656,744.4688 1043.4063,744.375 C1043.6563,744.2344 1043.8125,743.9375 1043.8125,743.6563 C1043.8125,743.375 1043.6719,743.125 1043.4531,742.9688 C1043.2813,742.8281 1043.125,742.7969 1042.6563,742.7969 L1039.2656,734.5938 L1035.5938,734.5938 C1035.1406,734.5938 1035.0156,734.6094 1034.8594,734.7031 C1034.6094,734.875 1034.4531,735.1563 1034.4531,735.4375 C1034.4531,735.7188 1034.5938,735.9688 1034.8125,736.1406 C1034.9844,736.25 1035.1563,736.2813 1035.5938,736.2813 L1036.6719,736.2813 L1034.0313,742.7969 C1033.6094,742.7969 1033.4531,742.8125 1033.2969,742.9219 C1033.0469,743.0781 1032.8906,743.3594 1032.8906,743.6563 C1032.8906,744.2188 1033.2656,744.5 1034.0156,744.5 L1036.2813,744.5 C1036.6406,744.5 1036.8594,744.4688 1036.9844,744.375 C1037.25,744.2344 1037.3906,743.9375 1037.3906,743.6563 C1037.3906,743.375 1037.2656,743.125 1037.0469,742.9531 C1036.875,742.8281 1036.7344,742.7969 1036.2813,742.7969 L1035.8906,742.7969 L1036.2813,741.8125 L1040.3281,741.8125 Z M1039.625,740.1094 L1036.9531,740.1094 L1038.2969,736.8438 L1039.625,740.1094 Z " fill="#000000"/><text fill="#000000" font-family="sans-serif" font-size="14" font-style="italic" lengthAdjust="spacing" textLength="75" x="1058.75" y="744.8467">AObserver</text><line style="stroke:#181818;stroke-width:0.5;" x1="859" x2="1301" y1="756" y2="756"/><line style="stroke:#181818;stroke-width:0.5;" x1="859" x2="1301" y1="764" y2="764"/><ellipse cx="869" cy="777.6484" fill="#84BE84" rx="3" ry="3" style="stroke:#038048;stroke-width:1.0;"/><text fill="#000000" font-family="sans-serif" font-size="14" lengthAdjust="spacing" textLength="418" x="878" y="780.9951">void update(data: Any, identifier: EModelUpdateIdentifier)</text></g><!--class Model--><g id="elem_Model"><rect codeLine="39" fill="#F1F1F1" height="170.3438" id="Model" rx="2.5" ry="2.5" style="stroke:#181818;stroke-width:0.5;" width="668" x="1393" y="671"/><ellipse cx="1684.25" cy="691.1328" fill="#ADD1B2" rx="11" ry="11" style="stroke:#181818;stroke-width:1.0;"/><path d="M1686.5938,686.8047 C1685.6563,686.3672 1685.0625,686.2266 1684.1875,686.2266 C1681.5625,686.2266 1679.5625,688.3047 1679.5625,691.0234 L1679.5625,692.1484 C1679.5625,694.7266 1681.6719,696.6172 1684.5625,696.6172 C1685.7813,696.6172 1686.9375,696.3203 1687.6875,695.7734 C1688.2656,695.3672 1688.5938,694.9141 1688.5938,694.5234 C1688.5938,694.0703 1688.2031,693.6797 1687.7344,693.6797 C1687.5156,693.6797 1687.3125,693.7578 1687.125,693.9453 C1686.6719,694.4297 1686.6719,694.4297 1686.4844,694.5234 C1686.0625,694.7891 1685.375,694.9141 1684.6094,694.9141 C1682.5625,694.9141 1681.2656,693.8203 1681.2656,692.1172 L1681.2656,691.0234 C1681.2656,689.2422 1682.5156,687.9297 1684.25,687.9297 C1684.8281,687.9297 1685.4375,688.0859 1685.9063,688.3359 C1686.3906,688.6172 1686.5625,688.8359 1686.6563,689.2422 C1686.7188,689.6484 1686.75,689.7734 1686.8906,689.8984 C1687.0313,690.0391 1687.2656,690.1484 1687.4844,690.1484 C1687.75,690.1484 1688.0156,690.0078 1688.1875,689.7891 C1688.2969,689.6328 1688.3281,689.4453 1688.3281,689.0234 L1688.3281,687.6016 C1688.3281,687.1641 1688.3125,687.0391 1688.2188,686.8828 C1688.0625,686.6172 1687.7813,686.4766 1687.4844,686.4766 C1687.1875,686.4766 1686.9844,686.5703 1686.7656,686.8828 L1686.5938,686.8047 Z " fill="#000000"/><text fill="#000000" font-family="sans-serif" font-size="12" font-style="italic" lengthAdjust="spacing" textLength="81" x="1702.75" y="687.1387">&#171;Observable&#187;</text><text fill="#000000" font-family="sans-serif" font-size="14" lengthAdjust="spacing" textLength="43" x="1721.75" y="702.9639">Model</text><line style="stroke:#181818;stroke-width:0.5;" x1="1394" x2="2060" y1="711.2656" y2="711.2656"/><rect fill="none" height="6" style="stroke:#C82930;stroke-width:1.0;" width="6" x="1401" y="721.9141"/><text fill="#000000" font-family="sans-serif" font-size="14" lengthAdjust="spacing" textLength="166" x="1413" y="728.2607">List[str] primer_history</text><line style="stroke:#181818;stroke-width:0.5;" x1="1394" x2="2060" y1="735.5625" y2="735.5625"/><rect fill="#F24D5C" height="6" style="stroke:#C82930;stroke-width:1.0;" width="6" x="1401" y="746.2109"/><text fill="#000000" font-family="sans-serif" font-size="14" lengthAdjust="spacing" textLength="642" x="1413" y="752.5576">Model(raw_stimuli: List[Stimulus], auditory_stimulus_factories: List[AAudioTaggerFactory])</text><rect fill="#F24D5C" height="6" style="stroke:#C82930;stroke-width:1.0;" width="6" x="1401" y="762.5078"/><text fill="#000000" font-family="sans-serif" font-size="14" lengthAdjust="spacing" textLength="410" x="1413" y="768.8545">void notify(data: Any, identifier: EModelUpdateIdentifier)</text><ellipse cx="1404" cy="781.8047" fill="#84BE84" rx="3" ry="3" style="stroke:#038048;stroke-width:1.0;"/><text fill="#000000" font-family="sans-serif" font-size="14" lengthAdjust="spacing" textLength="218" x="1413" y="785.1514">void register(view: AObserver)</text><ellipse cx="1404" cy="798.1016" fill="#84BE84" rx="3" ry="3" style="stroke:#038048;stroke-width:1.0;"/><text fill="#000000" font-family="sans-serif" font-size="14" lengthAdjust="spacing" textLength="326" x="1413" y="801.4482">void new_stimulus(stimulus: CreatedStimulus)</text><ellipse cx="1404" cy="814.3984" fill="#84BE84" rx="3" ry="3" style="stroke:#038048;stroke-width:1.0;"/><text fill="#000000" font-family="sans-serif" font-size="14" lengthAdjust="spacing" textLength="316" x="1413" y="817.7451">void new_primer(stimulus: CreatedStimulus)</text><ellipse cx="1404" cy="830.6953" fill="#84BE84" rx="3" ry="3" style="stroke:#038048;stroke-width:1.0;"/><text fill="#000000" font-family="sans-serif" font-size="14" lengthAdjust="spacing" textLength="450" x="1413" y="834.042">void change_experiment_state(new_state: EExperimentState)</text></g><!--class Logger--><g id="elem_Logger"><rect codeLine="50" fill="#F1F1F1" height="88.8594" id="Logger" rx="2.5" ry="2.5" style="stroke:#181818;stroke-width:0.5;" width="284" x="858" y="1018.5"/><ellipse cx="963.75" cy="1038.6328" fill="#ADD1B2" rx="11" ry="11" style="stroke:#181818;stroke-width:1.0;"/><path d="M966.0938,1034.3047 C965.1563,1033.8672 964.5625,1033.7266 963.6875,1033.7266 C961.0625,1033.7266 959.0625,1035.8047 959.0625,1038.5234 L959.0625,1039.6484 C959.0625,1042.2266 961.1719,1044.1172 964.0625,1044.1172 C965.2813,1044.1172 966.4375,1043.8203 967.1875,1043.2734 C967.7656,1042.8672 968.0938,1042.4141 968.0938,1042.0234 C968.0938,1041.5703 967.7031,1041.1797 967.2344,1041.1797 C967.0156,1041.1797 966.8125,1041.2578 966.625,1041.4453 C966.1719,1041.9297 966.1719,1041.9297 965.9844,1042.0234 C965.5625,1042.2891 964.875,1042.4141 964.1094,1042.4141 C962.0625,1042.4141 960.7656,1041.3203 960.7656,1039.6172 L960.7656,1038.5234 C960.7656,1036.7422 962.0156,1035.4297 963.75,1035.4297 C964.3281,1035.4297 964.9375,1035.5859 965.4063,1035.8359 C965.8906,1036.1172 966.0625,1036.3359 966.1563,1036.7422 C966.2188,1037.1484 966.25,1037.2734 966.3906,1037.3984 C966.5313,1037.5391 966.7656,1037.6484 966.9844,1037.6484 C967.25,1037.6484 967.5156,1037.5078 967.6875,1037.2891 C967.7969,1037.1328 967.8281,1036.9453 967.8281,1036.5234 L967.8281,1035.1016 C967.8281,1034.6641 967.8125,1034.5391 967.7188,1034.3828 C967.5625,1034.1172 967.2813,1033.9766 966.9844,1033.9766 C966.6875,1033.9766 966.4844,1034.0703 966.2656,1034.3828 L966.0938,1034.3047 Z " fill="#000000"/><text fill="#000000" font-family="sans-serif" font-size="12" font-style="italic" lengthAdjust="spacing" textLength="68" x="982.25" y="1034.6387">&#171;Observer&#187;</text><text fill="#000000" font-family="sans-serif" font-size="14" lengthAdjust="spacing" textLength="50" x="991.25" y="1050.4639">Logger</text><line style="stroke:#181818;stroke-width:0.5;" x1="859" x2="1141" y1="1058.7656" y2="1058.7656"/><rect fill="none" height="6" style="stroke:#C82930;stroke-width:1.0;" width="6" x="866" y="1069.4141"/><text fill="#000000" font-family="sans-serif" font-size="14" lengthAdjust="spacing" textLength="166" x="878" y="1075.7607">Path exports_directory</text><line style="stroke:#181818;stroke-width:0.5;" x1="859" x2="1141" y1="1083.0625" y2="1083.0625"/><ellipse cx="869" cy="1096.7109" fill="#84BE84" rx="3" ry="3" style="stroke:#038048;stroke-width:1.0;"/><text fill="#000000" font-family="sans-serif" font-size="14" lengthAdjust="spacing" textLength="258" x="878" y="1100.0576">Logger(logging_directory: PathLike)</text></g><!--class Stimulus--><g id="elem_Stimulus"><rect codeLine="73" fill="#F1F1F1" height="129.4844" id="Stimulus" rx="2.5" ry="2.5" style="stroke:#181818;stroke-width:0.5;" width="286" x="1765" y="998.5"/><ellipse cx="1873.25" cy="1014.5" fill="#ADD1B2" rx="11" ry="11" style="stroke:#181818;stroke-width:1.0;"/><path d="M1875.5938,1010.1719 C1874.6563,1009.7344 1874.0625,1009.5938 1873.1875,1009.5938 C1870.5625,1009.5938 1868.5625,1011.6719 1868.5625,1014.3906 L1868.5625,1015.5156 C1868.5625,1018.0938 1870.6719,1019.9844 1873.5625,1019.9844 C1874.7813,1019.9844 1875.9375,1019.6875 1876.6875,1019.1406 C1877.2656,1018.7344 1877.5938,1018.2813 1877.5938,1017.8906 C1877.5938,1017.4375 1877.2031,1017.0469 1876.7344,1017.0469 C1876.5156,1017.0469 1876.3125,1017.125 1876.125,1017.3125 C1875.6719,1017.7969 1875.6719,1017.7969 1875.4844,1017.8906 C1875.0625,1018.1563 1874.375,1018.2813 1873.6094,1018.2813 C1871.5625,1018.2813 1870.2656,1017.1875 1870.2656,1015.4844 L1870.2656,1014.3906 C1870.2656,1012.6094 1871.5156,1011.2969 1873.25,1011.2969 C1873.8281,1011.2969 1874.4375,1011.4531 1874.9063,1011.7031 C1875.3906,1011.9844 1875.5625,1012.2031 1875.6563,1012.6094 C1875.7188,1013.0156 1875.75,1013.1406 1875.8906,1013.2656 C1876.0313,1013.4063 1876.2656,1013.5156 1876.4844,1013.5156 C1876.75,1013.5156 1877.0156,1013.375 1877.1875,1013.1563 C1877.2969,1013 1877.3281,1012.8125 1877.3281,1012.3906 L1877.3281,1010.9688 C1877.3281,1010.5313 1877.3125,1010.4063 1877.2188,1010.25 C1877.0625,1009.9844 1876.7813,1009.8438 1876.4844,1009.8438 C1876.1875,1009.8438 1875.9844,1009.9375 1875.7656,1010.25 L1875.5938,1010.1719 Z " fill="#000000"/><text fill="#000000" font-family="sans-serif" font-size="14" lengthAdjust="spacing" textLength="61" x="1893.75" y="1019.3467">Stimulus</text><line style="stroke:#181818;stroke-width:0.5;" x1="1766" x2="2050" y1="1030.5" y2="1030.5"/><ellipse cx="1776" cy="1044.1484" fill="none" rx="3" ry="3" style="stroke:#038048;stroke-width:1.0;"/><text fill="#000000" font-family="sans-serif" font-size="14" lengthAdjust="spacing" textLength="80" x="1785" y="1047.4951">str prompt</text><ellipse cx="1776" cy="1060.4453" fill="none" rx="3" ry="3" style="stroke:#038048;stroke-width:1.0;"/><text fill="#000000" font-family="sans-serif" font-size="14" lengthAdjust="spacing" textLength="73" x="1785" y="1063.792">str primer</text><ellipse cx="1776" cy="1076.7422" fill="none" rx="3" ry="3" style="stroke:#038048;stroke-width:1.0;"/><text fill="#000000" font-family="sans-serif" font-size="14" lengthAdjust="spacing" textLength="115" x="1785" y="1080.0889">List[str] options</text><ellipse cx="1776" cy="1093.0391" fill="none" rx="3" ry="3" style="stroke:#038048;stroke-width:1.0;"/><text fill="#000000" font-family="sans-serif" font-size="14" lengthAdjust="spacing" textLength="260" x="1785" y="1096.3857">List[Tuple[float, float]] time_stamps</text><ellipse cx="1776" cy="1109.3359" fill="none" rx="3" ry="3" style="stroke:#038048;stroke-width:1.0;"/><text fill="#000000" font-family="sans-serif" font-size="14" lengthAdjust="spacing" textLength="70" x="1785" y="1112.6826">int target</text><line style="stroke:#181818;stroke-width:0.5;" x1="1766" x2="2050" y1="1119.9844" y2="1119.9844"/></g><!--class CreatedStimulus--><g id="elem_CreatedStimulus"><rect codeLine="82" fill="#F1F1F1" height="178.375" id="CreatedStimulus" rx="2.5" ry="2.5" style="stroke:#181818;stroke-width:0.5;" width="450" x="2086" y="974"/><ellipse cx="2247.25" cy="990" fill="#ADD1B2" rx="11" ry="11" style="stroke:#181818;stroke-width:1.0;"/><path d="M2249.5938,985.6719 C2248.6563,985.2344 2248.0625,985.0938 2247.1875,985.0938 C2244.5625,985.0938 2242.5625,987.1719 2242.5625,989.8906 L2242.5625,991.0156 C2242.5625,993.5938 2244.6719,995.4844 2247.5625,995.4844 C2248.7813,995.4844 2249.9375,995.1875 2250.6875,994.6406 C2251.2656,994.2344 2251.5938,993.7813 2251.5938,993.3906 C2251.5938,992.9375 2251.2031,992.5469 2250.7344,992.5469 C2250.5156,992.5469 2250.3125,992.625 2250.125,992.8125 C2249.6719,993.2969 2249.6719,993.2969 2249.4844,993.3906 C2249.0625,993.6563 2248.375,993.7813 2247.6094,993.7813 C2245.5625,993.7813 2244.2656,992.6875 2244.2656,990.9844 L2244.2656,989.8906 C2244.2656,988.1094 2245.5156,986.7969 2247.25,986.7969 C2247.8281,986.7969 2248.4375,986.9531 2248.9063,987.2031 C2249.3906,987.4844 2249.5625,987.7031 2249.6563,988.1094 C2249.7188,988.5156 2249.75,988.6406 2249.8906,988.7656 C2250.0313,988.9063 2250.2656,989.0156 2250.4844,989.0156 C2250.75,989.0156 2251.0156,988.875 2251.1875,988.6563 C2251.2969,988.5 2251.3281,988.3125 2251.3281,987.8906 L2251.3281,986.4688 C2251.3281,986.0313 2251.3125,985.9063 2251.2188,985.75 C2251.0625,985.4844 2250.7813,985.3438 2250.4844,985.3438 C2250.1875,985.3438 2249.9844,985.4375 2249.7656,985.75 L2249.5938,985.6719 Z " fill="#000000"/><text fill="#000000" font-family="sans-serif" font-size="14" lengthAdjust="spacing" textLength="119" x="2267.75" y="994.8467">CreatedStimulus</text><line style="stroke:#181818;stroke-width:0.5;" x1="2087" x2="2535" y1="1006" y2="1006"/><rect fill="none" height="6" style="stroke:#C82930;stroke-width:1.0;" width="6" x="2094" y="1016.6484"/><text fill="#000000" font-family="sans-serif" font-size="14" lengthAdjust="spacing" textLength="124" x="2106" y="1022.9951">Stimulus stimulus</text><ellipse cx="2097" cy="1035.9453" fill="none" rx="3" ry="3" style="stroke:#038048;stroke-width:1.0;"/><text fill="#000000" font-family="sans-serif" font-size="14" lengthAdjust="spacing" textLength="226" x="2106" y="1039.292">Optional[str] used_tagger_label</text><line style="stroke:#181818;stroke-width:0.5;" x1="2087" x2="2535" y1="1046.5938" y2="1046.5938"/><ellipse cx="2097" cy="1060.2422" fill="#84BE84" rx="3" ry="3" style="stroke:#038048;stroke-width:1.0;"/><text fill="#000000" font-family="sans-serif" font-size="14" lengthAdjust="spacing" textLength="424" x="2106" y="1063.5889">CreatedStimulus(stimulus: Stimulus, modified_audio: Audio)</text><ellipse cx="2097" cy="1076.5391" fill="#84BE84" rx="3" ry="3" style="stroke:#038048;stroke-width:1.0;"/><text fill="#000000" font-family="sans-serif" font-size="14" lengthAdjust="spacing" textLength="90" x="2106" y="1079.8857">str prompt()</text><ellipse cx="2097" cy="1092.8359" fill="#84BE84" rx="3" ry="3" style="stroke:#038048;stroke-width:1.0;"/><text fill="#000000" font-family="sans-serif" font-size="14" lengthAdjust="spacing" textLength="83" x="2106" y="1096.1826">str primer()</text><ellipse cx="2097" cy="1109.1328" fill="#84BE84" rx="3" ry="3" style="stroke:#038048;stroke-width:1.0;"/><text fill="#000000" font-family="sans-serif" font-size="14" lengthAdjust="spacing" textLength="125" x="2106" y="1112.4795">List[str] options()</text><ellipse cx="2097" cy="1125.4297" fill="#84BE84" rx="3" ry="3" style="stroke:#038048;stroke-width:1.0;"/><text fill="#000000" font-family="sans-serif" font-size="14" lengthAdjust="spacing" textLength="270" x="2106" y="1128.7764">List[Tuple[float, float]] time_stamps()</text><ellipse cx="2097" cy="1141.7266" fill="#84BE84" rx="3" ry="3" style="stroke:#038048;stroke-width:1.0;"/><text fill="#000000" font-family="sans-serif" font-size="14" lengthAdjust="spacing" textLength="80" x="2106" y="1145.0732">int target()</text></g><!--class EExperimentState--><g id="elem_EExperimentState"><rect codeLine="57" fill="#F1F1F1" height="145.7813" id="EExperimentState" rx="2.5" ry="2.5" style="stroke:#181818;stroke-width:0.5;" width="235" x="1212.5" y="990"/><ellipse cx="1258.75" cy="1006" fill="#EB937F" rx="11" ry="11" style="stroke:#181818;stroke-width:1.0;"/><path d="M1257.5469,1006.875 L1259,1006.875 L1259,1006.9844 C1259,1007.3906 1259.0313,1007.5469 1259.1094,1007.7031 C1259.2656,1007.9531 1259.5469,1008.1094 1259.8438,1008.1094 C1260.0938,1008.1094 1260.3594,1007.9688 1260.5156,1007.75 C1260.6406,1007.5938 1260.6719,1007.4375 1260.6719,1006.9844 L1260.6719,1005.0625 C1260.6719,1004.9063 1260.6719,1004.8594 1260.6563,1004.7031 C1260.5938,1004.2344 1260.2813,1003.9219 1259.8281,1003.9219 C1259.5781,1003.9219 1259.3125,1004.0625 1259.1406,1004.2813 C1259.0313,1004.4531 1259,1004.6094 1259,1005.0625 L1259,1005.1875 L1257.5469,1005.1875 L1257.5469,1002.7813 L1261.5313,1002.7813 L1261.5313,1003.6406 C1261.5313,1004.0469 1261.5625,1004.2188 1261.6406,1004.375 C1261.8125,1004.625 1262.0938,1004.7813 1262.375,1004.7813 C1262.6406,1004.7813 1262.9063,1004.6406 1263.0781,1004.4219 C1263.1875,1004.25 1263.2188,1004.1094 1263.2188,1003.6406 L1263.2188,1001.0938 L1255.5938,1001.0938 C1255.1563,1001.0938 1255.0313,1001.1094 1254.875,1001.2031 C1254.625,1001.3594 1254.4688,1001.6563 1254.4688,1001.9375 C1254.4688,1002.2188 1254.6094,1002.4688 1254.8281,1002.6406 C1254.9844,1002.75 1255.1719,1002.7813 1255.5938,1002.7813 L1255.8438,1002.7813 L1255.8438,1009.2969 L1255.5938,1009.2969 C1255.1875,1009.2969 1255.0313,1009.3125 1254.875,1009.4219 C1254.625,1009.5938 1254.4688,1009.8594 1254.4688,1010.1563 C1254.4688,1010.4219 1254.6094,1010.6719 1254.8281,1010.8281 C1254.9688,1010.9531 1255.2031,1011 1255.5938,1011 L1263.5938,1011 L1263.5938,1008.4219 C1263.5938,1007.9844 1263.5625,1007.8438 1263.4844,1007.6875 C1263.3125,1007.4375 1263.0313,1007.2813 1262.75,1007.2813 C1262.4844,1007.2813 1262.2188,1007.3906 1262.0469,1007.6406 C1261.9375,1007.7969 1261.9063,1007.9375 1261.9063,1008.4219 L1261.9063,1009.2969 L1257.5469,1009.2969 L1257.5469,1006.875 Z " fill="#000000"/><text fill="#000000" font-family="sans-serif" font-size="14" lengthAdjust="spacing" textLength="134" x="1279.25" y="1010.8467">EExperimentState</text><line style="stroke:#181818;stroke-width:0.5;" x1="1213.5" x2="1446.5" y1="1022" y2="1022"/><text fill="#000000" font-family="sans-serif" font-size="14" lengthAdjust="spacing" textLength="66" x="1218.5" y="1038.9951">INACTIVE</text><text fill="#000000" font-family="sans-serif" font-size="14" lengthAdjust="spacing" textLength="108" x="1218.5" y="1055.292">INTRODUCTION</text><text fill="#000000" font-family="sans-serif" font-size="14" lengthAdjust="spacing" textLength="204" x="1218.5" y="1071.5889">RESTING_STATE_EYES_OPEN</text><text fill="#000000" font-family="sans-serif" font-size="14" lengthAdjust="spacing" textLength="223" x="1218.5" y="1087.8857">RESTING_STATE_EYES_CLOSED</text><text fill="#000000" font-family="sans-serif" font-size="14" lengthAdjust="spacing" textLength="206" x="1218.5" y="1104.1826">EXPERIMENT_INTRODUCTION</text><text fill="#000000" font-family="sans-serif" font-size="14" lengthAdjust="spacing" textLength="91" x="1218.5" y="1120.4795">EXPERIMENT</text><line style="stroke:#181818;stroke-width:0.5;" x1="1213.5" x2="1446.5" y1="1127.7813" y2="1127.7813"/></g><!--class EModelUpdateIdentifier--><g id="elem_EModelUpdateIdentifier"><rect codeLine="66" fill="#F1F1F1" height="96.8906" id="EModelUpdateIdentifier" rx="2.5" ry="2.5" style="stroke:#181818;stroke-width:0.5;" width="234" x="1483" y="1014.5"/><ellipse cx="1511.95" cy="1030.5" fill="#EB937F" rx="11" ry="11" style="stroke:#181818;stroke-width:1.0;"/><path d="M1510.7469,1031.375 L1512.2,1031.375 L1512.2,1031.4844 C1512.2,1031.8906 1512.2313,1032.0469 1512.3094,1032.2031 C1512.4656,1032.4531 1512.7469,1032.6094 1513.0438,1032.6094 C1513.2938,1032.6094 1513.5594,1032.4688 1513.7156,1032.25 C1513.8406,1032.0938 1513.8719,1031.9375 1513.8719,1031.4844 L1513.8719,1029.5625 C1513.8719,1029.4063 1513.8719,1029.3594 1513.8563,1029.2031 C1513.7938,1028.7344 1513.4813,1028.4219 1513.0281,1028.4219 C1512.7781,1028.4219 1512.5125,1028.5625 1512.3406,1028.7813 C1512.2313,1028.9531 1512.2,1029.1094 1512.2,1029.5625 L1512.2,1029.6875 L1510.7469,1029.6875 L1510.7469,1027.2813 L1514.7313,1027.2813 L1514.7313,1028.1406 C1514.7313,1028.5469 1514.7625,1028.7188 1514.8406,1028.875 C1515.0125,1029.125 1515.2938,1029.2813 1515.575,1029.2813 C1515.8406,1029.2813 1516.1063,1029.1406 1516.2781,1028.9219 C1516.3875,1028.75 1516.4188,1028.6094 1516.4188,1028.1406 L1516.4188,1025.5938 L1508.7938,1025.5938 C1508.3563,1025.5938 1508.2313,1025.6094 1508.075,1025.7031 C1507.825,1025.8594 1507.6688,1026.1563 1507.6688,1026.4375 C1507.6688,1026.7188 1507.8094,1026.9688 1508.0281,1027.1406 C1508.1844,1027.25 1508.3719,1027.2813 1508.7938,1027.2813 L1509.0438,1027.2813 L1509.0438,1033.7969 L1508.7938,1033.7969 C1508.3875,1033.7969 1508.2313,1033.8125 1508.075,1033.9219 C1507.825,1034.0938 1507.6688,1034.3594 1507.6688,1034.6563 C1507.6688,1034.9219 1507.8094,1035.1719 1508.0281,1035.3281 C1508.1688,1035.4531 1508.4031,1035.5 1508.7938,1035.5 L1516.7938,1035.5 L1516.7938,1032.9219 C1516.7938,1032.4844 1516.7625,1032.3438 1516.6844,1032.1875 C1516.5125,1031.9375 1516.2313,1031.7813 1515.95,1031.7813 C1515.6844,1031.7813 1515.4188,1031.8906 1515.2469,1032.1406 C1515.1375,1032.2969 1515.1063,1032.4375 1515.1063,1032.9219 L1515.1063,1033.7969 L1510.7469,1033.7969 L1510.7469,1031.375 Z " fill="#000000"/><text fill="#000000" font-family="sans-serif" font-size="14" lengthAdjust="spacing" textLength="171" x="1529.05" y="1035.3467">EModelUpdateIdentifier</text><line style="stroke:#181818;stroke-width:0.5;" x1="1484" x2="1716" y1="1046.5" y2="1046.5"/><text fill="#000000" font-family="sans-serif" font-size="14" lengthAdjust="spacing" textLength="109" x="1489" y="1063.4951">NEW_STIMULUS</text><text fill="#000000" font-family="sans-serif" font-size="14" lengthAdjust="spacing" textLength="94" x="1489" y="1079.792">NEW_PRIMER</text><text fill="#000000" font-family="sans-serif" font-size="14" lengthAdjust="spacing" textLength="222" x="1489" y="1096.0889">EXPERIMENT_STATE_CHANGED</text><line style="stroke:#181818;stroke-width:0.5;" x1="1484" x2="1716" y1="1103.3906" y2="1103.3906"/></g><!--class AAudioTagger--><g id="elem_AAudioTagger"><rect codeLine="110" fill="#F1F1F1" height="80.5938" id="AAudioTagger" rx="2.5" ry="2.5" style="stroke:#181818;stroke-width:0.5;" width="539" x="1771.5" y="439"/><ellipse cx="1985.75" cy="455" fill="#A9DCDF" rx="11" ry="11" style="stroke:#181818;stroke-width:1.0;"/><path d="M1987.8281,456.8125 L1988.2188,457.7969 L1987.8281,457.7969 C1987.375,457.7969 1987.2656,457.8125 1987.1094,457.9219 C1986.8594,458.0781 1986.7031,458.3594 1986.7031,458.6563 C1986.7031,458.9219 1986.8438,459.1719 1987.0625,459.3281 C1987.2031,459.4531 1987.4063,459.5 1987.8281,459.5 L1990.1875,459.5 C1990.5469,459.5 1990.7656,459.4688 1990.9063,459.375 C1991.1563,459.2344 1991.3125,458.9375 1991.3125,458.6563 C1991.3125,458.375 1991.1719,458.125 1990.9531,457.9688 C1990.7813,457.8281 1990.625,457.7969 1990.1563,457.7969 L1986.7656,449.5938 L1983.0938,449.5938 C1982.6406,449.5938 1982.5156,449.6094 1982.3594,449.7031 C1982.1094,449.875 1981.9531,450.1563 1981.9531,450.4375 C1981.9531,450.7188 1982.0938,450.9688 1982.3125,451.1406 C1982.4844,451.25 1982.6563,451.2813 1983.0938,451.2813 L1984.1719,451.2813 L1981.5313,457.7969 C1981.1094,457.7969 1980.9531,457.8125 1980.7969,457.9219 C1980.5469,458.0781 1980.3906,458.3594 1980.3906,458.6563 C1980.3906,459.2188 1980.7656,459.5 1981.5156,459.5 L1983.7813,459.5 C1984.1406,459.5 1984.3594,459.4688 1984.4844,459.375 C1984.75,459.2344 1984.8906,458.9375 1984.8906,458.6563 C1984.8906,458.375 1984.7656,458.125 1984.5469,457.9531 C1984.375,457.8281 1984.2344,457.7969 1983.7813,457.7969 L1983.3906,457.7969 L1983.7813,456.8125 L1987.8281,456.8125 Z M1987.125,455.1094 L1984.4531,455.1094 L1985.7969,451.8438 L1987.125,455.1094 Z " fill="#000000"/><text fill="#000000" font-family="sans-serif" font-size="14" font-style="italic" lengthAdjust="spacing" textLength="102" x="2006.25" y="459.8467">AAudioTagger</text><line style="stroke:#181818;stroke-width:0.5;" x1="1772.5" x2="2309.5" y1="471" y2="471"/><line style="stroke:#181818;stroke-width:0.5;" x1="1772.5" x2="2309.5" y1="479" y2="479"/><polygon fill="#FFFF44" points="1782.5,487.6484,1786.5,491.6484,1782.5,495.6484,1778.5,491.6484" style="stroke:#B38D22;stroke-width:1.0;"/><text fill="#000000" font-family="sans-serif" font-size="14" font-style="italic" lengthAdjust="spacing" textLength="513" x="1791.5" y="495.9951">NDArray[float] modify_chunk(audio_array_chunk: NDArray[float], fs: int))</text><ellipse cx="1782.5" cy="508.9453" fill="#84BE84" rx="3" ry="3" style="stroke:#038048;stroke-width:1.0;"/><text fill="#000000" font-family="sans-serif" font-size="14" lengthAdjust="spacing" textLength="195" x="1791.5" y="512.292">Audio create(audio, stimuli)</text></g><!--class NoiseTaggingTagger--><g id="elem_NoiseTaggingTagger"><rect codeLine="145" fill="#F1F1F1" height="178.375" id="NoiseTaggingTagger" rx="2.5" ry="2.5" style="stroke:#181818;stroke-width:0.5;" width="500" x="1136" y="92"/><ellipse cx="1308.75" cy="108" fill="#ADD1B2" rx="11" ry="11" style="stroke:#181818;stroke-width:1.0;"/><path d="M1311.0938,103.6719 C1310.1563,103.2344 1309.5625,103.0938 1308.6875,103.0938 C1306.0625,103.0938 1304.0625,105.1719 1304.0625,107.8906 L1304.0625,109.0156 C1304.0625,111.5938 1306.1719,113.4844 1309.0625,113.4844 C1310.2813,113.4844 1311.4375,113.1875 1312.1875,112.6406 C1312.7656,112.2344 1313.0938,111.7813 1313.0938,111.3906 C1313.0938,110.9375 1312.7031,110.5469 1312.2344,110.5469 C1312.0156,110.5469 1311.8125,110.625 1311.625,110.8125 C1311.1719,111.2969 1311.1719,111.2969 1310.9844,111.3906 C1310.5625,111.6563 1309.875,111.7813 1309.1094,111.7813 C1307.0625,111.7813 1305.7656,110.6875 1305.7656,108.9844 L1305.7656,107.8906 C1305.7656,106.1094 1307.0156,104.7969 1308.75,104.7969 C1309.3281,104.7969 1309.9375,104.9531 1310.4063,105.2031 C1310.8906,105.4844 1311.0625,105.7031 1311.1563,106.1094 C1311.2188,106.5156 1311.25,106.6406 1311.3906,106.7656 C1311.5313,106.9063 1311.7656,107.0156 1311.9844,107.0156 C1312.25,107.0156 1312.5156,106.875 1312.6875,106.6563 C1312.7969,106.5 1312.8281,106.3125 1312.8281,105.8906 L1312.8281,104.4688 C1312.8281,104.0313 1312.8125,103.9063 1312.7188,103.75 C1312.5625,103.4844 1312.2813,103.3438 1311.9844,103.3438 C1311.6875,103.3438 1311.4844,103.4375 1311.2656,103.75 L1311.0938,103.6719 Z " fill="#000000"/><text fill="#000000" font-family="sans-serif" font-size="14" lengthAdjust="spacing" textLength="146" x="1329.25" y="112.8467">NoiseTaggingTagger</text><line style="stroke:#181818;stroke-width:0.5;" x1="1137" x2="1635" y1="124" y2="124"/><rect fill="none" height="6" style="stroke:#C82930;stroke-width:1.0;" width="6" x="1144" y="134.6484"/><text fill="#000000" font-family="sans-serif" font-size="14" lengthAdjust="spacing" textLength="130" x="1156" y="140.9951">Optional[int] seed</text><rect fill="none" height="6" style="stroke:#C82930;stroke-width:1.0;" width="6" x="1144" y="150.9453"/><text fill="#000000" font-family="sans-serif" font-size="14" lengthAdjust="spacing" textLength="110" x="1156" y="157.292">int specified_fs</text><rect fill="none" height="6" style="stroke:#C82930;stroke-width:1.0;" width="6" x="1144" y="167.2422"/><text fill="#000000" font-family="sans-serif" font-size="14" lengthAdjust="spacing" textLength="92" x="1156" y="173.5889">int bit_width</text><rect fill="none" height="6" style="stroke:#C82930;stroke-width:1.0;" width="6" x="1144" y="183.5391"/><text fill="#000000" font-family="sans-serif" font-size="14" lengthAdjust="spacing" textLength="99" x="1156" y="189.8857">int length_bit</text><ellipse cx="1147" cy="202.8359" fill="none" rx="3" ry="3" style="stroke:#038048;stroke-width:1.0;"/><text fill="#000000" font-family="sans-serif" font-size="14" lengthAdjust="spacing" textLength="148" x="1156" y="206.1826">Optional[Code] code</text><line style="stroke:#181818;stroke-width:0.5;" x1="1137" x2="1635" y1="213.4844" y2="213.4844"/><ellipse cx="1147" cy="227.1328" fill="#84BE84" rx="3" ry="3" style="stroke:#038048;stroke-width:1.0;"/><text fill="#000000" font-family="sans-serif" font-size="14" lengthAdjust="spacing" textLength="474" x="1156" y="230.4795">NoiseTaggingTagger(fs:int, bits_per_second: int, length_bit, seed)</text><rect fill="#F24D5C" height="6" style="stroke:#C82930;stroke-width:1.0;" width="6" x="1144" y="240.4297"/><text fill="#000000" font-family="sans-serif" font-size="14" lengthAdjust="spacing" textLength="166" x="1156" y="246.7764">void __generate_code()</text><rect fill="#F24D5C" height="6" style="stroke:#C82930;stroke-width:1.0;" width="6" x="1144" y="256.7266"/><text fill="#000000" font-family="sans-serif" font-size="14" lengthAdjust="spacing" textLength="201" x="1156" y="263.0732">void __get_code(length: int)</text></g><!--class RawTagger--><g id="elem_RawTagger"><rect codeLine="157" fill="#F1F1F1" height="48" id="RawTagger" rx="2.5" ry="2.5" style="stroke:#181818;stroke-width:0.5;" width="111" x="989.5" y="157"/><ellipse cx="1004.5" cy="173" fill="#ADD1B2" rx="11" ry="11" style="stroke:#181818;stroke-width:1.0;"/><path d="M1006.8438,168.6719 C1005.9063,168.2344 1005.3125,168.0938 1004.4375,168.0938 C1001.8125,168.0938 999.8125,170.1719 999.8125,172.8906 L999.8125,174.0156 C999.8125,176.5938 1001.9219,178.4844 1004.8125,178.4844 C1006.0313,178.4844 1007.1875,178.1875 1007.9375,177.6406 C1008.5156,177.2344 1008.8438,176.7813 1008.8438,176.3906 C1008.8438,175.9375 1008.4531,175.5469 1007.9844,175.5469 C1007.7656,175.5469 1007.5625,175.625 1007.375,175.8125 C1006.9219,176.2969 1006.9219,176.2969 1006.7344,176.3906 C1006.3125,176.6563 1005.625,176.7813 1004.8594,176.7813 C1002.8125,176.7813 1001.5156,175.6875 1001.5156,173.9844 L1001.5156,172.8906 C1001.5156,171.1094 1002.7656,169.7969 1004.5,169.7969 C1005.0781,169.7969 1005.6875,169.9531 1006.1563,170.2031 C1006.6406,170.4844 1006.8125,170.7031 1006.9063,171.1094 C1006.9688,171.5156 1007,171.6406 1007.1406,171.7656 C1007.2813,171.9063 1007.5156,172.0156 1007.7344,172.0156 C1008,172.0156 1008.2656,171.875 1008.4375,171.6563 C1008.5469,171.5 1008.5781,171.3125 1008.5781,170.8906 L1008.5781,169.4688 C1008.5781,169.0313 1008.5625,168.9063 1008.4688,168.75 C1008.3125,168.4844 1008.0313,168.3438 1007.7344,168.3438 C1007.4375,168.3438 1007.2344,168.4375 1007.0156,168.75 L1006.8438,168.6719 Z " fill="#000000"/><text fill="#000000" font-family="sans-serif" font-size="14" lengthAdjust="spacing" textLength="79" x="1018.5" y="177.8467">RawTagger</text><line style="stroke:#181818;stroke-width:0.5;" x1="990.5" x2="1099.5" y1="189" y2="189"/><line style="stroke:#181818;stroke-width:0.5;" x1="990.5" x2="1099.5" y1="197" y2="197"/></g><!--class AMTagger--><g id="elem_AMTagger"><rect codeLine="117" fill="#F1F1F1" height="113.1875" id="AMTagger" rx="2.5" ry="2.5" style="stroke:#181818;stroke-width:0.5;" width="418" x="3721" y="124.5"/><ellipse cx="3889.75" cy="140.5" fill="#ADD1B2" rx="11" ry="11" style="stroke:#181818;stroke-width:1.0;"/><path d="M3892.0938,136.1719 C3891.1563,135.7344 3890.5625,135.5938 3889.6875,135.5938 C3887.0625,135.5938 3885.0625,137.6719 3885.0625,140.3906 L3885.0625,141.5156 C3885.0625,144.0938 3887.1719,145.9844 3890.0625,145.9844 C3891.2813,145.9844 3892.4375,145.6875 3893.1875,145.1406 C3893.7656,144.7344 3894.0938,144.2813 3894.0938,143.8906 C3894.0938,143.4375 3893.7031,143.0469 3893.2344,143.0469 C3893.0156,143.0469 3892.8125,143.125 3892.625,143.3125 C3892.1719,143.7969 3892.1719,143.7969 3891.9844,143.8906 C3891.5625,144.1563 3890.875,144.2813 3890.1094,144.2813 C3888.0625,144.2813 3886.7656,143.1875 3886.7656,141.4844 L3886.7656,140.3906 C3886.7656,138.6094 3888.0156,137.2969 3889.75,137.2969 C3890.3281,137.2969 3890.9375,137.4531 3891.4063,137.7031 C3891.8906,137.9844 3892.0625,138.2031 3892.1563,138.6094 C3892.2188,139.0156 3892.25,139.1406 3892.3906,139.2656 C3892.5313,139.4063 3892.7656,139.5156 3892.9844,139.5156 C3893.25,139.5156 3893.5156,139.375 3893.6875,139.1563 C3893.7969,139 3893.8281,138.8125 3893.8281,138.3906 L3893.8281,136.9688 C3893.8281,136.5313 3893.8125,136.4063 3893.7188,136.25 C3893.5625,135.9844 3893.2813,135.8438 3892.9844,135.8438 C3892.6875,135.8438 3892.4844,135.9375 3892.2656,136.25 L3892.0938,136.1719 Z " fill="#000000"/><text fill="#000000" font-family="sans-serif" font-size="14" lengthAdjust="spacing" textLength="72" x="3910.25" y="145.3467">AMTagger</text><line style="stroke:#181818;stroke-width:0.5;" x1="3722" x2="4138" y1="156.5" y2="156.5"/><rect fill="none" height="6" style="stroke:#C82930;stroke-width:1.0;" width="6" x="3729" y="167.1484"/><text fill="#000000" font-family="sans-serif" font-size="14" lengthAdjust="spacing" textLength="96" x="3741" y="173.4951">int frequency</text><rect fill="none" height="6" style="stroke:#C82930;stroke-width:1.0;" width="6" x="3729" y="183.4453"/><text fill="#000000" font-family="sans-serif" font-size="14" lengthAdjust="spacing" textLength="366" x="3741" y="189.792">Callable[[int, int, int], NDArray[float] tag_generator</text><rect fill="none" height="6" style="stroke:#C82930;stroke-width:1.0;" width="6" x="3729" y="199.7422"/><text fill="#000000" font-family="sans-serif" font-size="14" lengthAdjust="spacing" textLength="193" x="3741" y="206.0889">[float, float] signal_interval</text><line style="stroke:#181818;stroke-width:0.5;" x1="3722" x2="4138" y1="213.3906" y2="213.3906"/><ellipse cx="3732" cy="227.0391" fill="#84BE84" rx="3" ry="3" style="stroke:#038048;stroke-width:1.0;"/><text fill="#000000" font-family="sans-serif" font-size="14" lengthAdjust="spacing" textLength="392" x="3741" y="230.3857">ASSRTagger(frequency, tag_generator, signal_interval)</text></g><!--class FMTagger--><g id="elem_FMTagger"><rect codeLine="125" fill="#F1F1F1" height="178.375" id="FMTagger" rx="2.5" ry="2.5" style="stroke:#181818;stroke-width:0.5;" width="960" x="2726" y="92"/><ellipse cx="3166.75" cy="108" fill="#ADD1B2" rx="11" ry="11" style="stroke:#181818;stroke-width:1.0;"/><path d="M3169.0938,103.6719 C3168.1563,103.2344 3167.5625,103.0938 3166.6875,103.0938 C3164.0625,103.0938 3162.0625,105.1719 3162.0625,107.8906 L3162.0625,109.0156 C3162.0625,111.5938 3164.1719,113.4844 3167.0625,113.4844 C3168.2813,113.4844 3169.4375,113.1875 3170.1875,112.6406 C3170.7656,112.2344 3171.0938,111.7813 3171.0938,111.3906 C3171.0938,110.9375 3170.7031,110.5469 3170.2344,110.5469 C3170.0156,110.5469 3169.8125,110.625 3169.625,110.8125 C3169.1719,111.2969 3169.1719,111.2969 3168.9844,111.3906 C3168.5625,111.6563 3167.875,111.7813 3167.1094,111.7813 C3165.0625,111.7813 3163.7656,110.6875 3163.7656,108.9844 L3163.7656,107.8906 C3163.7656,106.1094 3165.0156,104.7969 3166.75,104.7969 C3167.3281,104.7969 3167.9375,104.9531 3168.4063,105.2031 C3168.8906,105.4844 3169.0625,105.7031 3169.1563,106.1094 C3169.2188,106.5156 3169.25,106.6406 3169.3906,106.7656 C3169.5313,106.9063 3169.7656,107.0156 3169.9844,107.0156 C3170.25,107.0156 3170.5156,106.875 3170.6875,106.6563 C3170.7969,106.5 3170.8281,106.3125 3170.8281,105.8906 L3170.8281,104.4688 C3170.8281,104.0313 3170.8125,103.9063 3170.7188,103.75 C3170.5625,103.4844 3170.2813,103.3438 3169.9844,103.3438 C3169.6875,103.3438 3169.4844,103.4375 3169.2656,103.75 L3169.0938,103.6719 Z " fill="#000000"/><text fill="#000000" font-family="sans-serif" font-size="14" lengthAdjust="spacing" textLength="70" x="3187.25" y="112.8467">FMTagger</text><line style="stroke:#181818;stroke-width:0.5;" x1="2727" x2="3685" y1="124" y2="124"/><rect fill="none" height="6" style="stroke:#C82930;stroke-width:1.0;" width="6" x="2734" y="134.6484"/><text fill="#000000" font-family="sans-serif" font-size="14" lengthAdjust="spacing" textLength="96" x="2746" y="140.9951">int frequency</text><rect fill="none" height="6" style="stroke:#C82930;stroke-width:1.0;" width="6" x="2734" y="150.9453"/><text fill="#000000" font-family="sans-serif" font-size="14" lengthAdjust="spacing" textLength="170" x="2746" y="157.292">float modulation_factor</text><line style="stroke:#181818;stroke-width:0.5;" x1="2727" x2="3685" y1="164.5938" y2="164.5938"/><ellipse cx="2737" cy="178.2422" fill="#84BE84" rx="3" ry="3" style="stroke:#038048;stroke-width:1.0;"/><text fill="#000000" font-family="sans-serif" font-size="14" lengthAdjust="spacing" textLength="292" x="2746" y="181.5889">FMTagger(frequency, modulation_factor)</text><rect fill="#F24D5C" height="6" style="stroke:#C82930;stroke-width:1.0;" width="6" x="2734" y="191.5391"/><text fill="#000000" font-family="sans-serif" font-size="14" lengthAdjust="spacing" text-decoration="underline" textLength="634" x="2746" y="197.8857">(NDArray[Real], NDArray[Real]) extract_amplitudes_phases(numbers: NDArray[Complex])</text><rect fill="#F24D5C" height="6" style="stroke:#C82930;stroke-width:1.0;" width="6" x="2734" y="207.8359"/><text fill="#000000" font-family="sans-serif" font-size="14" lengthAdjust="spacing" text-decoration="underline" textLength="660" x="2746" y="214.1826">NDArray[Complex] get_complex_number(amplitudes: NDArray[Real], phases: NDArray[Real])</text><rect fill="#F24D5C" height="6" style="stroke:#C82930;stroke-width:1.0;" width="6" x="2734" y="224.1328"/><text fill="#000000" font-family="sans-serif" font-size="14" lengthAdjust="spacing" textLength="595" x="2746" y="230.4795">NDArray[Real] phases_to_instantaneous_frequencies(phases: NDArray[Real], fs: int)</text><rect fill="#F24D5C" height="6" style="stroke:#C82930;stroke-width:1.0;" width="6" x="2734" y="240.4297"/><text fill="#000000" font-family="sans-serif" font-size="14" lengthAdjust="spacing" textLength="934" x="2746" y="246.7764">NDArray[Real] instantaneous_frequencies_to_phases(instantaneous_frequencies: NDArray[Real], first_phase: NDArray[Real], fs: int)</text><rect fill="#F24D5C" height="6" style="stroke:#C82930;stroke-width:1.0;" width="6" x="2734" y="256.7266"/><text fill="#000000" font-family="sans-serif" font-size="14" lengthAdjust="spacing" textLength="372" x="2746" y="263.0732">NDArray[float32] modulate(signal: NDArray[float32])</text></g><!--class FlippedFMTagger--><g id="elem_FlippedFMTagger"><rect codeLine="138" fill="#F1F1F1" height="80.5938" id="FlippedFMTagger" rx="2.5" ry="2.5" style="stroke:#181818;stroke-width:0.5;" width="232" x="2459" y="140.5"/><ellipse cx="2508.75" cy="156.5" fill="#ADD1B2" rx="11" ry="11" style="stroke:#181818;stroke-width:1.0;"/><path d="M2511.0938,152.1719 C2510.1563,151.7344 2509.5625,151.5938 2508.6875,151.5938 C2506.0625,151.5938 2504.0625,153.6719 2504.0625,156.3906 L2504.0625,157.5156 C2504.0625,160.0938 2506.1719,161.9844 2509.0625,161.9844 C2510.2813,161.9844 2511.4375,161.6875 2512.1875,161.1406 C2512.7656,160.7344 2513.0938,160.2813 2513.0938,159.8906 C2513.0938,159.4375 2512.7031,159.0469 2512.2344,159.0469 C2512.0156,159.0469 2511.8125,159.125 2511.625,159.3125 C2511.1719,159.7969 2511.1719,159.7969 2510.9844,159.8906 C2510.5625,160.1563 2509.875,160.2813 2509.1094,160.2813 C2507.0625,160.2813 2505.7656,159.1875 2505.7656,157.4844 L2505.7656,156.3906 C2505.7656,154.6094 2507.0156,153.2969 2508.75,153.2969 C2509.3281,153.2969 2509.9375,153.4531 2510.4063,153.7031 C2510.8906,153.9844 2511.0625,154.2031 2511.1563,154.6094 C2511.2188,155.0156 2511.25,155.1406 2511.3906,155.2656 C2511.5313,155.4063 2511.7656,155.5156 2511.9844,155.5156 C2512.25,155.5156 2512.5156,155.375 2512.6875,155.1563 C2512.7969,155 2512.8281,154.8125 2512.8281,154.3906 L2512.8281,152.9688 C2512.8281,152.5313 2512.8125,152.4063 2512.7188,152.25 C2512.5625,151.9844 2512.2813,151.8438 2511.9844,151.8438 C2511.6875,151.8438 2511.4844,151.9375 2511.2656,152.25 L2511.0938,152.1719 Z " fill="#000000"/><text fill="#000000" font-family="sans-serif" font-size="14" lengthAdjust="spacing" textLength="124" x="2529.25" y="161.3467">FlippedFMTagger</text><line style="stroke:#181818;stroke-width:0.5;" x1="2460" x2="2690" y1="172.5" y2="172.5"/><rect fill="none" height="6" style="stroke:#C82930;stroke-width:1.0;" width="6" x="2467" y="183.1484"/><text fill="#000000" font-family="sans-serif" font-size="14" lengthAdjust="spacing" textLength="96" x="2479" y="189.4951">int frequency</text><line style="stroke:#181818;stroke-width:0.5;" x1="2460" x2="2690" y1="196.7969" y2="196.7969"/><ellipse cx="2470" cy="210.4453" fill="#84BE84" rx="3" ry="3" style="stroke:#038048;stroke-width:1.0;"/><text fill="#000000" font-family="sans-serif" font-size="14" lengthAdjust="spacing" textLength="206" x="2479" y="213.792">FlippedFMTagger(frequency)</text></g><!--class ShiftSumTagger--><g id="elem_ShiftSumTagger"><rect codeLine="161" fill="#F1F1F1" height="80.5938" id="ShiftSumTagger" rx="2.5" ry="2.5" style="stroke:#181818;stroke-width:0.5;" width="210" x="1671" y="140.5"/><ellipse cx="1713.9" cy="156.5" fill="#ADD1B2" rx="11" ry="11" style="stroke:#181818;stroke-width:1.0;"/><path d="M1716.2438,152.1719 C1715.3063,151.7344 1714.7125,151.5938 1713.8375,151.5938 C1711.2125,151.5938 1709.2125,153.6719 1709.2125,156.3906 L1709.2125,157.5156 C1709.2125,160.0938 1711.3219,161.9844 1714.2125,161.9844 C1715.4313,161.9844 1716.5875,161.6875 1717.3375,161.1406 C1717.9156,160.7344 1718.2438,160.2813 1718.2438,159.8906 C1718.2438,159.4375 1717.8531,159.0469 1717.3844,159.0469 C1717.1656,159.0469 1716.9625,159.125 1716.775,159.3125 C1716.3219,159.7969 1716.3219,159.7969 1716.1344,159.8906 C1715.7125,160.1563 1715.025,160.2813 1714.2594,160.2813 C1712.2125,160.2813 1710.9156,159.1875 1710.9156,157.4844 L1710.9156,156.3906 C1710.9156,154.6094 1712.1656,153.2969 1713.9,153.2969 C1714.4781,153.2969 1715.0875,153.4531 1715.5563,153.7031 C1716.0406,153.9844 1716.2125,154.2031 1716.3063,154.6094 C1716.3688,155.0156 1716.4,155.1406 1716.5406,155.2656 C1716.6813,155.4063 1716.9156,155.5156 1717.1344,155.5156 C1717.4,155.5156 1717.6656,155.375 1717.8375,155.1563 C1717.9469,155 1717.9781,154.8125 1717.9781,154.3906 L1717.9781,152.9688 C1717.9781,152.5313 1717.9625,152.4063 1717.8688,152.25 C1717.7125,151.9844 1717.4313,151.8438 1717.1344,151.8438 C1716.8375,151.8438 1716.6344,151.9375 1716.4156,152.25 L1716.2438,152.1719 Z " fill="#000000"/><text fill="#000000" font-family="sans-serif" font-size="14" lengthAdjust="spacing" textLength="116" x="1734.1" y="161.3467">ShiftSumTagger</text><line style="stroke:#181818;stroke-width:0.5;" x1="1672" x2="1880" y1="172.5" y2="172.5"/><rect fill="none" height="6" style="stroke:#C82930;stroke-width:1.0;" width="6" x="1679" y="183.1484"/><text fill="#000000" font-family="sans-serif" font-size="14" lengthAdjust="spacing" textLength="82" x="1691" y="189.4951">int shift_by</text><line style="stroke:#181818;stroke-width:0.5;" x1="1672" x2="1880" y1="196.7969" y2="196.7969"/><ellipse cx="1682" cy="210.4453" fill="#84BE84" rx="3" ry="3" style="stroke:#038048;stroke-width:1.0;"/><text fill="#000000" font-family="sans-serif" font-size="14" lengthAdjust="spacing" textLength="184" x="1691" y="213.792">ShiftSumTagger(shift_by)</text></g><!--class SpectrumShiftTagger--><g id="elem_SpectrumShiftTagger"><rect codeLine="167" fill="#F1F1F1" height="80.5938" id="SpectrumShiftTagger" rx="2.5" ry="2.5" style="stroke:#181818;stroke-width:0.5;" width="250" x="1916" y="140.5"/><ellipse cx="1958.9" cy="156.5" fill="#ADD1B2" rx="11" ry="11" style="stroke:#181818;stroke-width:1.0;"/><path d="M1961.2438,152.1719 C1960.3063,151.7344 1959.7125,151.5938 1958.8375,151.5938 C1956.2125,151.5938 1954.2125,153.6719 1954.2125,156.3906 L1954.2125,157.5156 C1954.2125,160.0938 1956.3219,161.9844 1959.2125,161.9844 C1960.4313,161.9844 1961.5875,161.6875 1962.3375,161.1406 C1962.9156,160.7344 1963.2438,160.2813 1963.2438,159.8906 C1963.2438,159.4375 1962.8531,159.0469 1962.3844,159.0469 C1962.1656,159.0469 1961.9625,159.125 1961.775,159.3125 C1961.3219,159.7969 1961.3219,159.7969 1961.1344,159.8906 C1960.7125,160.1563 1960.025,160.2813 1959.2594,160.2813 C1957.2125,160.2813 1955.9156,159.1875 1955.9156,157.4844 L1955.9156,156.3906 C1955.9156,154.6094 1957.1656,153.2969 1958.9,153.2969 C1959.4781,153.2969 1960.0875,153.4531 1960.5563,153.7031 C1961.0406,153.9844 1961.2125,154.2031 1961.3063,154.6094 C1961.3688,155.0156 1961.4,155.1406 1961.5406,155.2656 C1961.6813,155.4063 1961.9156,155.5156 1962.1344,155.5156 C1962.4,155.5156 1962.6656,155.375 1962.8375,155.1563 C1962.9469,155 1962.9781,154.8125 1962.9781,154.3906 L1962.9781,152.9688 C1962.9781,152.5313 1962.9625,152.4063 1962.8688,152.25 C1962.7125,151.9844 1962.4313,151.8438 1962.1344,151.8438 C1961.8375,151.8438 1961.6344,151.9375 1961.4156,152.25 L1961.2438,152.1719 Z " fill="#000000"/><text fill="#000000" font-family="sans-serif" font-size="14" lengthAdjust="spacing" textLength="156" x="1979.1" y="161.3467">SpectrumShiftTagger</text><line style="stroke:#181818;stroke-width:0.5;" x1="1917" x2="2165" y1="172.5" y2="172.5"/><rect fill="none" height="6" style="stroke:#C82930;stroke-width:1.0;" width="6" x="1924" y="183.1484"/><text fill="#000000" font-family="sans-serif" font-size="14" lengthAdjust="spacing" textLength="82" x="1936" y="189.4951">int shift_by</text><line style="stroke:#181818;stroke-width:0.5;" x1="1917" x2="2165" y1="196.7969" y2="196.7969"/><ellipse cx="1927" cy="210.4453" fill="#84BE84" rx="3" ry="3" style="stroke:#038048;stroke-width:1.0;"/><text fill="#000000" font-family="sans-serif" font-size="14" lengthAdjust="spacing" textLength="224" x="1936" y="213.792">SpectrumShiftTagger(shift_by)</text></g><!--class BinauralTagger--><g id="elem_BinauralTagger"><rect codeLine="173" fill="#F1F1F1" height="80.5938" id="BinauralTagger" rx="2.5" ry="2.5" style="stroke:#181818;stroke-width:0.5;" width="201" x="2201.5" y="140.5"/><ellipse cx="2244.4" cy="156.5" fill="#ADD1B2" rx="11" ry="11" style="stroke:#181818;stroke-width:1.0;"/><path d="M2246.7438,152.1719 C2245.8063,151.7344 2245.2125,151.5938 2244.3375,151.5938 C2241.7125,151.5938 2239.7125,153.6719 2239.7125,156.3906 L2239.7125,157.5156 C2239.7125,160.0938 2241.8219,161.9844 2244.7125,161.9844 C2245.9313,161.9844 2247.0875,161.6875 2247.8375,161.1406 C2248.4156,160.7344 2248.7438,160.2813 2248.7438,159.8906 C2248.7438,159.4375 2248.3531,159.0469 2247.8844,159.0469 C2247.6656,159.0469 2247.4625,159.125 2247.275,159.3125 C2246.8219,159.7969 2246.8219,159.7969 2246.6344,159.8906 C2246.2125,160.1563 2245.525,160.2813 2244.7594,160.2813 C2242.7125,160.2813 2241.4156,159.1875 2241.4156,157.4844 L2241.4156,156.3906 C2241.4156,154.6094 2242.6656,153.2969 2244.4,153.2969 C2244.9781,153.2969 2245.5875,153.4531 2246.0563,153.7031 C2246.5406,153.9844 2246.7125,154.2031 2246.8063,154.6094 C2246.8688,155.0156 2246.9,155.1406 2247.0406,155.2656 C2247.1813,155.4063 2247.4156,155.5156 2247.6344,155.5156 C2247.9,155.5156 2248.1656,155.375 2248.3375,155.1563 C2248.4469,155 2248.4781,154.8125 2248.4781,154.3906 L2248.4781,152.9688 C2248.4781,152.5313 2248.4625,152.4063 2248.3688,152.25 C2248.2125,151.9844 2247.9313,151.8438 2247.6344,151.8438 C2247.3375,151.8438 2247.1344,151.9375 2246.9156,152.25 L2246.7438,152.1719 Z " fill="#000000"/><text fill="#000000" font-family="sans-serif" font-size="14" lengthAdjust="spacing" textLength="107" x="2264.6" y="161.3467">BinauralTagger</text><line style="stroke:#181818;stroke-width:0.5;" x1="2202.5" x2="2401.5" y1="172.5" y2="172.5"/><rect fill="none" height="6" style="stroke:#C82930;stroke-width:1.0;" width="6" x="2209.5" y="183.1484"/><text fill="#000000" font-family="sans-serif" font-size="14" lengthAdjust="spacing" textLength="82" x="2221.5" y="189.4951">int shift_by</text><line style="stroke:#181818;stroke-width:0.5;" x1="2202.5" x2="2401.5" y1="196.7969" y2="196.7969"/><ellipse cx="2212.5" cy="210.4453" fill="#84BE84" rx="3" ry="3" style="stroke:#038048;stroke-width:1.0;"/><text fill="#000000" font-family="sans-serif" font-size="14" lengthAdjust="spacing" textLength="175" x="2221.5" y="213.792">BinauralTagger(shift_by)</text></g><!--class ETrigger--><g id="elem_ETrigger"><rect codeLine="182" fill="#F1F1F1" height="64.2969" id="ETrigger" rx="2.5" ry="2.5" style="stroke:#181818;stroke-width:0.5;" width="501" x="49.5" y="1263.5"/><ellipse cx="265.25" cy="1279.5" fill="#EB937F" rx="11" ry="11" style="stroke:#181818;stroke-width:1.0;"/><path d="M264.0469,1280.375 L265.5,1280.375 L265.5,1280.4844 C265.5,1280.8906 265.5313,1281.0469 265.6094,1281.2031 C265.7656,1281.4531 266.0469,1281.6094 266.3438,1281.6094 C266.5938,1281.6094 266.8594,1281.4688 267.0156,1281.25 C267.1406,1281.0938 267.1719,1280.9375 267.1719,1280.4844 L267.1719,1278.5625 C267.1719,1278.4063 267.1719,1278.3594 267.1563,1278.2031 C267.0938,1277.7344 266.7813,1277.4219 266.3281,1277.4219 C266.0781,1277.4219 265.8125,1277.5625 265.6406,1277.7813 C265.5313,1277.9531 265.5,1278.1094 265.5,1278.5625 L265.5,1278.6875 L264.0469,1278.6875 L264.0469,1276.2813 L268.0313,1276.2813 L268.0313,1277.1406 C268.0313,1277.5469 268.0625,1277.7188 268.1406,1277.875 C268.3125,1278.125 268.5938,1278.2813 268.875,1278.2813 C269.1406,1278.2813 269.4063,1278.1406 269.5781,1277.9219 C269.6875,1277.75 269.7188,1277.6094 269.7188,1277.1406 L269.7188,1274.5938 L262.0938,1274.5938 C261.6563,1274.5938 261.5313,1274.6094 261.375,1274.7031 C261.125,1274.8594 260.9688,1275.1563 260.9688,1275.4375 C260.9688,1275.7188 261.1094,1275.9688 261.3281,1276.1406 C261.4844,1276.25 261.6719,1276.2813 262.0938,1276.2813 L262.3438,1276.2813 L262.3438,1282.7969 L262.0938,1282.7969 C261.6875,1282.7969 261.5313,1282.8125 261.375,1282.9219 C261.125,1283.0938 260.9688,1283.3594 260.9688,1283.6563 C260.9688,1283.9219 261.1094,1284.1719 261.3281,1284.3281 C261.4688,1284.4531 261.7031,1284.5 262.0938,1284.5 L270.0938,1284.5 L270.0938,1281.9219 C270.0938,1281.4844 270.0625,1281.3438 269.9844,1281.1875 C269.8125,1280.9375 269.5313,1280.7813 269.25,1280.7813 C268.9844,1280.7813 268.7188,1280.8906 268.5469,1281.1406 C268.4375,1281.2969 268.4063,1281.4375 268.4063,1281.9219 L268.4063,1282.7969 L264.0469,1282.7969 L264.0469,1280.375 Z " fill="#000000"/><text fill="#000000" font-family="sans-serif" font-size="14" lengthAdjust="spacing" textLength="61" x="285.75" y="1284.3467">ETrigger</text><line style="stroke:#181818;stroke-width:0.5;" x1="50.5" x2="549.5" y1="1295.5" y2="1295.5"/><line style="stroke:#181818;stroke-width:0.5;" x1="50.5" x2="549.5" y1="1303.5" y2="1303.5"/><ellipse cx="60.5" cy="1317.1484" fill="#84BE84" rx="3" ry="3" style="stroke:#038048;stroke-width:1.0;"/><text fill="#000000" font-family="sans-serif" font-size="14" lengthAdjust="spacing" text-decoration="underline" textLength="475" x="69.5" y="1320.4951">ETrigger get_trigger(data: Any, identifier: EModelUpdateIdentifier</text></g><g id="elem_GMN45"><path d="M586,1268 L586,1291.5 L550.688,1295.5 L586,1299.5 L586,1323.3984 A0,0 0 0 0 586,1323.3984 L778,1323.3984 A0,0 0 0 0 778,1323.3984 L778,1278 L768,1268 L586,1268 A0,0 0 0 0 586,1268 " fill="#FEFFDD" style="stroke:#181818;stroke-width:0.5;"/><path d="M768,1268 L768,1278 L778,1278 L768,1268 " fill="#FEFFDD" style="stroke:#181818;stroke-width:0.5;"/><text fill="#000000" font-family="sans-serif" font-size="13" lengthAdjust="spacing" textLength="165" x="592" y="1285.0669">Contains tha mappings to</text><text fill="#000000" font-family="sans-serif" font-size="13" lengthAdjust="spacing" textLength="171" x="592" y="1300.1997">the actual trigger numbers</text><text fill="#000000" font-family="sans-serif" font-size="13" lengthAdjust="spacing" textLength="28" x="592" y="1315.3325">sent</text></g><!--class TriggerSender--><g id="elem_TriggerSender"><rect codeLine="187" fill="#F1F1F1" height="64.2969" id="TriggerSender" rx="2.5" ry="2.5" style="stroke:#181818;stroke-width:0.5;" width="277" x="508.5" y="1031"/><ellipse cx="591.25" cy="1047" fill="#A9DCDF" rx="11" ry="11" style="stroke:#181818;stroke-width:1.0;"/><path d="M593.3281,1048.8125 L593.7188,1049.7969 L593.3281,1049.7969 C592.875,1049.7969 592.7656,1049.8125 592.6094,1049.9219 C592.3594,1050.0781 592.2031,1050.3594 592.2031,1050.6563 C592.2031,1050.9219 592.3438,1051.1719 592.5625,1051.3281 C592.7031,1051.4531 592.9063,1051.5 593.3281,1051.5 L595.6875,1051.5 C596.0469,1051.5 596.2656,1051.4688 596.4063,1051.375 C596.6563,1051.2344 596.8125,1050.9375 596.8125,1050.6563 C596.8125,1050.375 596.6719,1050.125 596.4531,1049.9688 C596.2813,1049.8281 596.125,1049.7969 595.6563,1049.7969 L592.2656,1041.5938 L588.5938,1041.5938 C588.1406,1041.5938 588.0156,1041.6094 587.8594,1041.7031 C587.6094,1041.875 587.4531,1042.1563 587.4531,1042.4375 C587.4531,1042.7188 587.5938,1042.9688 587.8125,1043.1406 C587.9844,1043.25 588.1563,1043.2813 588.5938,1043.2813 L589.6719,1043.2813 L587.0313,1049.7969 C586.6094,1049.7969 586.4531,1049.8125 586.2969,1049.9219 C586.0469,1050.0781 585.8906,1050.3594 585.8906,1050.6563 C585.8906,1051.2188 586.2656,1051.5 587.0156,1051.5 L589.2813,1051.5 C589.6406,1051.5 589.8594,1051.4688 589.9844,1051.375 C590.25,1051.2344 590.3906,1050.9375 590.3906,1050.6563 C590.3906,1050.375 590.2656,1050.125 590.0469,1049.9531 C589.875,1049.8281 589.7344,1049.7969 589.2813,1049.7969 L588.8906,1049.7969 L589.2813,1048.8125 L593.3281,1048.8125 Z M592.625,1047.1094 L589.9531,1047.1094 L591.2969,1043.8438 L592.625,1047.1094 Z " fill="#000000"/><text fill="#000000" font-family="sans-serif" font-size="14" font-style="italic" lengthAdjust="spacing" textLength="103" x="611.75" y="1051.8467">TriggerSender</text><line style="stroke:#181818;stroke-width:0.5;" x1="509.5" x2="784.5" y1="1063" y2="1063"/><line style="stroke:#181818;stroke-width:0.5;" x1="509.5" x2="784.5" y1="1071" y2="1071"/><polygon fill="#FFFF44" points="519.5,1079.6484,523.5,1083.6484,519.5,1087.6484,515.5,1083.6484" style="stroke:#B38D22;stroke-width:1.0;"/><text fill="#000000" font-family="sans-serif" font-size="14" font-style="italic" lengthAdjust="spacing" textLength="251" x="528.5" y="1087.9951">void send_trigger(trigger: ETrigger)</text></g><!--class BittiumTriggerSender--><g id="elem_BittiumTriggerSender"><rect codeLine="191" fill="#F1F1F1" height="121.4531" id="BittiumTriggerSender" rx="2.5" ry="2.5" style="stroke:#181818;stroke-width:0.5;" width="424" x="49" y="1002.5"/><ellipse cx="178.25" cy="1022.6328" fill="#ADD1B2" rx="11" ry="11" style="stroke:#181818;stroke-width:1.0;"/><path d="M180.5938,1018.3047 C179.6563,1017.8672 179.0625,1017.7266 178.1875,1017.7266 C175.5625,1017.7266 173.5625,1019.8047 173.5625,1022.5234 L173.5625,1023.6484 C173.5625,1026.2266 175.6719,1028.1172 178.5625,1028.1172 C179.7813,1028.1172 180.9375,1027.8203 181.6875,1027.2734 C182.2656,1026.8672 182.5938,1026.4141 182.5938,1026.0234 C182.5938,1025.5703 182.2031,1025.1797 181.7344,1025.1797 C181.5156,1025.1797 181.3125,1025.2578 181.125,1025.4453 C180.6719,1025.9297 180.6719,1025.9297 180.4844,1026.0234 C180.0625,1026.2891 179.375,1026.4141 178.6094,1026.4141 C176.5625,1026.4141 175.2656,1025.3203 175.2656,1023.6172 L175.2656,1022.5234 C175.2656,1020.7422 176.5156,1019.4297 178.25,1019.4297 C178.8281,1019.4297 179.4375,1019.5859 179.9063,1019.8359 C180.3906,1020.1172 180.5625,1020.3359 180.6563,1020.7422 C180.7188,1021.1484 180.75,1021.2734 180.8906,1021.3984 C181.0313,1021.5391 181.2656,1021.6484 181.4844,1021.6484 C181.75,1021.6484 182.0156,1021.5078 182.1875,1021.2891 C182.2969,1021.1328 182.3281,1020.9453 182.3281,1020.5234 L182.3281,1019.1016 C182.3281,1018.6641 182.3125,1018.5391 182.2188,1018.3828 C182.0625,1018.1172 181.7813,1017.9766 181.4844,1017.9766 C181.1875,1017.9766 180.9844,1018.0703 180.7656,1018.3828 L180.5938,1018.3047 Z " fill="#000000"/><text fill="#000000" font-family="sans-serif" font-size="12" font-style="italic" lengthAdjust="spacing" textLength="68" x="243.25" y="1018.6387">&#171;Observer&#187;</text><text fill="#000000" font-family="sans-serif" font-size="14" lengthAdjust="spacing" textLength="157" x="198.75" y="1034.4639">BittiumTriggerSender</text><line style="stroke:#181818;stroke-width:0.5;" x1="50" x2="472" y1="1042.7656" y2="1042.7656"/><rect fill="none" height="6" style="stroke:#C82930;stroke-width:1.0;" width="6" x="57" y="1053.4141"/><text fill="#000000" font-family="sans-serif" font-size="14" lengthAdjust="spacing" textLength="183" x="69" y="1059.7607">IParallelPort parallel_port</text><rect fill="none" height="6" style="stroke:#C82930;stroke-width:1.0;" width="6" x="57" y="1069.7109"/><text fill="#000000" font-family="sans-serif" font-size="14" lengthAdjust="spacing" textLength="155" x="69" y="1076.0576">int trigger_duration_s</text><line style="stroke:#181818;stroke-width:0.5;" x1="50" x2="472" y1="1083.3594" y2="1083.3594"/><ellipse cx="60" cy="1097.0078" fill="#84BE84" rx="3" ry="3" style="stroke:#038048;stroke-width:1.0;"/><text fill="#000000" font-family="sans-serif" font-size="14" lengthAdjust="spacing" textLength="398" x="69" y="1100.3545">BittiumTriggerSender(parallel_port, trigger_duration_s)</text><polygon fill="#FFFF44" points="60,1108.3047,64,1112.3047,60,1116.3047,56,1112.3047" style="stroke:#B38D22;stroke-width:1.0;"/><text fill="#000000" font-family="sans-serif" font-size="14" lengthAdjust="spacing" textLength="255" x="69" y="1116.6514">void send_trigger(trigger: ETrigger)</text></g><g id="elem_n"><path d="M4211,153.5 L4211,208.8984 L4569,208.8984 L4569,163.5 L4559,153.5 L4211,153.5 " fill="#FEFFDD" style="stroke:#181818;stroke-width:0.5;"/><path d="M4559,153.5 L4559,163.5 L4569,163.5 L4559,153.5 " fill="#FEFFDD" style="stroke:#181818;stroke-width:1.0;"/><text fill="#000000" font-family="sans-serif" font-size="13" font-weight="bold" lengthAdjust="spacing" textLength="38" x="4217" y="170.5669">Note</text><text fill="#000000" font-family="sans-serif" font-size="13" lengthAdjust="spacing" textLength="299" x="4255" y="170.5669">: To save space, constructor parameter types,</text><text fill="#000000" font-family="sans-serif" font-size="13" lengthAdjust="spacing" textLength="308" x="4217" y="185.6997">which match the types of the class parameters,</text><text fill="#000000" font-family="sans-serif" font-size="13" lengthAdjust="spacing" textLength="107" x="4217" y="200.8325">are not specified</text></g><!--class Audio--><g id="elem_Audio"><rect codeLine="7" fill="#F1F1F1" height="80.5938" id="Audio" rx="2.5" ry="2.5" style="stroke:#181818;stroke-width:0.5;" width="194" x="1930" y="1255"/><ellipse cx="2002.75" cy="1271" fill="#ADD1B2" rx="11" ry="11" style="stroke:#181818;stroke-width:1.0;"/><path d="M2005.0938,1266.6719 C2004.1563,1266.2344 2003.5625,1266.0938 2002.6875,1266.0938 C2000.0625,1266.0938 1998.0625,1268.1719 1998.0625,1270.8906 L1998.0625,1272.0156 C1998.0625,1274.5938 2000.1719,1276.4844 2003.0625,1276.4844 C2004.2813,1276.4844 2005.4375,1276.1875 2006.1875,1275.6406 C2006.7656,1275.2344 2007.0938,1274.7813 2007.0938,1274.3906 C2007.0938,1273.9375 2006.7031,1273.5469 2006.2344,1273.5469 C2006.0156,1273.5469 2005.8125,1273.625 2005.625,1273.8125 C2005.1719,1274.2969 2005.1719,1274.2969 2004.9844,1274.3906 C2004.5625,1274.6563 2003.875,1274.7813 2003.1094,1274.7813 C2001.0625,1274.7813 1999.7656,1273.6875 1999.7656,1271.9844 L1999.7656,1270.8906 C1999.7656,1269.1094 2001.0156,1267.7969 2002.75,1267.7969 C2003.3281,1267.7969 2003.9375,1267.9531 2004.4063,1268.2031 C2004.8906,1268.4844 2005.0625,1268.7031 2005.1563,1269.1094 C2005.2188,1269.5156 2005.25,1269.6406 2005.3906,1269.7656 C2005.5313,1269.9063 2005.7656,1270.0156 2005.9844,1270.0156 C2006.25,1270.0156 2006.5156,1269.875 2006.6875,1269.6563 C2006.7969,1269.5 2006.8281,1269.3125 2006.8281,1268.8906 L2006.8281,1267.4688 C2006.8281,1267.0313 2006.8125,1266.9063 2006.7188,1266.75 C2006.5625,1266.4844 2006.2813,1266.3438 2005.9844,1266.3438 C2005.6875,1266.3438 2005.4844,1266.4375 2005.2656,1266.75 L2005.0938,1266.6719 Z " fill="#000000"/><text fill="#000000" font-family="sans-serif" font-size="14" lengthAdjust="spacing" textLength="40" x="2023.25" y="1275.8467">Audio</text><line style="stroke:#181818;stroke-width:0.5;" x1="1931" x2="2123" y1="1287" y2="1287"/><ellipse cx="1941" cy="1300.6484" fill="none" rx="3" ry="3" style="stroke:#038048;stroke-width:1.0;"/><text fill="#000000" font-family="sans-serif" font-size="14" lengthAdjust="spacing" textLength="143" x="1950" y="1303.9951">NDArray[float] array</text><ellipse cx="1941" cy="1316.9453" fill="none" rx="3" ry="3" style="stroke:#038048;stroke-width:1.0;"/><text fill="#000000" font-family="sans-serif" font-size="14" lengthAdjust="spacing" textLength="168" x="1950" y="1320.292">int sampling_frequency</text><line style="stroke:#181818;stroke-width:0.5;" x1="1931" x2="2123" y1="1327.5938" y2="1327.5938"/></g><!--class Experiment--><g id="elem_Experiment"><rect codeLine="220" fill="#F1F1F1" height="96.8906" id="Experiment" rx="2.5" ry="2.5" style="stroke:#181818;stroke-width:0.5;" width="876" x="43" y="132.5"/><ellipse cx="434.25" cy="148.5" fill="#ADD1B2" rx="11" ry="11" style="stroke:#181818;stroke-width:1.0;"/><path d="M436.5938,144.1719 C435.6563,143.7344 435.0625,143.5938 434.1875,143.5938 C431.5625,143.5938 429.5625,145.6719 429.5625,148.3906 L429.5625,149.5156 C429.5625,152.0938 431.6719,153.9844 434.5625,153.9844 C435.7813,153.9844 436.9375,153.6875 437.6875,153.1406 C438.2656,152.7344 438.5938,152.2813 438.5938,151.8906 C438.5938,151.4375 438.2031,151.0469 437.7344,151.0469 C437.5156,151.0469 437.3125,151.125 437.125,151.3125 C436.6719,151.7969 436.6719,151.7969 436.4844,151.8906 C436.0625,152.1563 435.375,152.2813 434.6094,152.2813 C432.5625,152.2813 431.2656,151.1875 431.2656,149.4844 L431.2656,148.3906 C431.2656,146.6094 432.5156,145.2969 434.25,145.2969 C434.8281,145.2969 435.4375,145.4531 435.9063,145.7031 C436.3906,145.9844 436.5625,146.2031 436.6563,146.6094 C436.7188,147.0156 436.75,147.1406 436.8906,147.2656 C437.0313,147.4063 437.2656,147.5156 437.4844,147.5156 C437.75,147.5156 438.0156,147.375 438.1875,147.1563 C438.2969,147 438.3281,146.8125 438.3281,146.3906 L438.3281,144.9688 C438.3281,144.5313 438.3125,144.4063 438.2188,144.25 C438.0625,143.9844 437.7813,143.8438 437.4844,143.8438 C437.1875,143.8438 436.9844,143.9375 436.7656,144.25 L436.5938,144.1719 Z " fill="#000000"/><text fill="#000000" font-family="sans-serif" font-size="14" lengthAdjust="spacing" textLength="85" x="454.75" y="153.3467">Experiment</text><line style="stroke:#181818;stroke-width:0.5;" x1="44" x2="918" y1="164.5" y2="164.5"/><line style="stroke:#181818;stroke-width:0.5;" x1="44" x2="918" y1="172.5" y2="172.5"/><ellipse cx="54" cy="186.1484" fill="#84BE84" rx="3" ry="3" style="stroke:#038048;stroke-width:1.0;"/><text fill="#000000" font-family="sans-serif" font-size="14" lengthAdjust="spacing" textLength="850" x="63" y="189.4951">Experiment(model: Model, view: AView, stimuli: List[Stimulus], auditory_stimulus_factories: List[AAudioTaggerFactory])</text><ellipse cx="54" cy="202.4453" fill="#84BE84" rx="3" ry="3" style="stroke:#038048;stroke-width:1.0;"/><text fill="#000000" font-family="sans-serif" font-size="14" lengthAdjust="spacing" textLength="146" x="63" y="205.792">void create_stimuli()</text><ellipse cx="54" cy="218.7422" fill="#84BE84" rx="3" ry="3" style="stroke:#038048;stroke-width:1.0;"/><text fill="#000000" font-family="sans-serif" font-size="14" lengthAdjust="spacing" textLength="67" x="63" y="222.0889">void run()</text></g><!--reverse link AObserver to Logger--><g id="link_AObserver_Logger"><path codeLine="54" d="M1067.245,805.6185 C1052.915,860.2755 1027.8,956.019 1011.44,1018.387 " fill="none" id="AObserver-backto-Logger" style="stroke:#181818;stroke-width:1.0;"/><polygon fill="none" points="1071.81,788.207,1061.4412,804.0969,1073.0489,807.1402,1071.81,788.207" style="stroke:#181818;stroke-width:1.0;"/></g><!--reverse link Stimulus to Audio--><g id="link_Stimulus_Audio"><path codeLine="80" d="M1946.3346,1138.258 C1967.3846,1179.034 1988.55,1220.024 2006.6,1254.988 " fill="none" id="Stimulus-backto-Audio" style="stroke:#181818;stroke-width:1.0;"/><polygon fill="#181818" points="1940.83,1127.595,1940.028,1134.7614,1946.3346,1138.258,1947.1366,1131.0916,1940.83,1127.595" style="stroke:#181818;stroke-width:1.0;"/><text fill="#000000" font-family="sans-serif" font-size="13" lengthAdjust="spacing" textLength="35" x="1989" y="1221.0669">audio</text><text fill="#000000" font-family="sans-serif" font-size="13" lengthAdjust="spacing" textLength="8" x="1936.1635" y="1147.9776">1</text><text fill="#000000" font-family="sans-serif" font-size="13" lengthAdjust="spacing" textLength="8" x="1994.4063" y="1243.8492">1</text></g><!--reverse link CreatedStimulus to Audio--><g id="link_CreatedStimulus_Audio"><path codeLine="93" d="M2193.1024,1159.691 C2149.4124,1195.149 2110.56,1226.677 2075.78,1254.912 " fill="none" id="CreatedStimulus-backto-Audio" style="stroke:#181818;stroke-width:1.0;"/><polygon fill="#181818" points="2202.42,1152.129,2195.2406,1152.8041,2193.1024,1159.691,2200.2819,1159.0158,2202.42,1152.129" style="stroke:#181818;stroke-width:1.0;"/><text fill="#000000" font-family="sans-serif" font-size="13" lengthAdjust="spacing" textLength="98" x="2127" y="1221.0669">modified_audio</text><text fill="#000000" font-family="sans-serif" font-size="13" lengthAdjust="spacing" textLength="8" x="2184.7452" y="1172.4895">1</text><text fill="#000000" font-family="sans-serif" font-size="13" lengthAdjust="spacing" textLength="8" x="2075.1967" y="1244.059">1</text></g><!--link Stimulus to CreatedStimulus--><g id="link_Stimulus_CreatedStimulus"><path codeLine="96" d="M2051.25,1063 C2062.75,1063 2062.25,1063 2073.75,1063 " fill="none" id="Stimulus-to-CreatedStimulus" style="stroke:#181818;stroke-width:1.0;"/><polygon fill="#181818" points="2085.75,1063,2079.75,1059,2073.75,1063,2079.75,1067,2085.75,1063" style="stroke:#181818;stroke-width:1.0;"/><text fill="#000000" font-family="sans-serif" font-size="13" lengthAdjust="spacing" textLength="8" x="2058.8426" y="1059.6711">1</text><text fill="#000000" font-family="sans-serif" font-size="13" lengthAdjust="spacing" textLength="7" x="2071.2441" y="1059.8168">*</text></g><!--reverse link Model to CreatedStimulus--><g id="link_Model_CreatedStimulus"><path codeLine="99" d="M2072.7422,812.8244 C2145.2322,829.5664 2197.18,847.29 2226,871 C2257.53,896.939 2277.77,936.966 2290.54,973.689 " fill="none" id="Model-backto-CreatedStimulus" style="stroke:#181818;stroke-width:1.0;"/><polygon fill="#181818" points="2061.05,810.124,2065.996,815.3716,2072.7422,812.8244,2067.7962,807.5768,2061.05,810.124" style="stroke:#181818;stroke-width:1.0;"/><text fill="#000000" font-family="sans-serif" font-size="13" lengthAdjust="spacing" textLength="105" x="2269" y="901.5669">stimulus_history</text><text fill="#000000" font-family="sans-serif" font-size="13" lengthAdjust="spacing" textLength="8" x="2068.973" y="808.2812">1</text><text fill="#000000" font-family="sans-serif" font-size="13" lengthAdjust="spacing" textLength="7" x="2281.6307" y="963.0316">*</text></g><!--reverse link Model to CreatedStimulus--><g id="link_Model_CreatedStimulus"><path codeLine="230" d="M1877.9415,848.1759 C1891.1015,857.7279 1894.21,860.701 1906,871 C1928.8,890.913 1922.98,909.348 1950,923 C1973.66,934.952 2043.54,923.634 2069,931 C2103.99,941.125 2139.61,956.84 2172.37,973.917 " fill="none" id="Model-backto-CreatedStimulus-1" style="stroke:#181818;stroke-width:1.0;"/><polygon fill="#181818" points="1868.23,841.127,1870.7361,847.8886,1877.9415,848.1759,1875.4354,841.4143,1868.23,841.127" style="stroke:#181818;stroke-width:1.0;"/><text fill="#000000" font-family="sans-serif" font-size="13" lengthAdjust="spacing" textLength="98" x="2035" y="884.0669">created_stimuli</text><path d="M1955,893.1328 L1955,918.1328 L2213,918.1328 L2213,903.1328 L2203,893.1328 L1955,893.1328 " fill="#FEFFDD" style="stroke:#181818;stroke-width:0.5;"/><path d="M2203,893.1328 L2203,903.1328 L2213,903.1328 L2203,893.1328 " fill="#FEFFDD" style="stroke:#181818;stroke-width:0.5;"/><text fill="#000000" font-family="sans-serif" font-size="13" lengthAdjust="spacing" textLength="237" x="1961" y="910.1997">Created by calling  `create_stimuli()`</text><text fill="#000000" font-family="sans-serif" font-size="13" lengthAdjust="spacing" textLength="8" x="1872.452" y="861.4341">1</text><text fill="#000000" font-family="sans-serif" font-size="13" lengthAdjust="spacing" textLength="7" x="2153.5999" y="962.9756">*</text></g><!--reverse link Model to EExperimentState--><g id="link_Model_EExperimentState"><path codeLine="100" d="M1570.3483,847.5588 C1555.1083,857.2978 1550.14,860.905 1536,871 C1502.37,895 1495.62,903.265 1465,931 C1444.43,949.636 1422.63,970.338 1402.69,989.68 " fill="none" id="Model-backto-EExperimentState" style="stroke:#181818;stroke-width:1.0;"/><polygon fill="none" points="1580.46,841.097,1573.2503,840.9573,1570.3483,847.5588,1577.5581,847.6984,1580.46,841.097" style="stroke:#181818;stroke-width:1.0;"/><text fill="#000000" font-family="sans-serif" font-size="13" lengthAdjust="spacing" textLength="114" x="1537" y="901.5669">experiment_state</text><text fill="#000000" font-family="sans-serif" font-size="13" lengthAdjust="spacing" textLength="7" x="1560.0971" y="861.4014">*</text><text fill="#000000" font-family="sans-serif" font-size="13" lengthAdjust="spacing" textLength="8" x="1401.4517" y="978.8085">1</text></g><!--link AObserver to Model--><g id="link_AObserver_Model"><path codeLine="101" d="M1302.09,756 C1332.38,756 1350.67,756 1380.96,756 " fill="none" id="AObserver-to-Model" style="stroke:#181818;stroke-width:1.0;"/><polygon fill="none" points="1392.96,756,1386.96,752,1380.96,756,1386.96,760,1392.96,756" style="stroke:#181818;stroke-width:1.0;"/><text fill="#000000" font-family="sans-serif" font-size="13" lengthAdjust="spacing" textLength="7" x="1310.1971" y="752.7944">*</text><text fill="#000000" font-family="sans-serif" font-size="13" lengthAdjust="spacing" textLength="8" x="1377.0372" y="752.8886">1</text></g><!--link Model to EModelUpdateIdentifier--><g id="link_Model_EModelUpdateIdentifier"><path codeLine="102" d="M1691.96,841.15 C1668.76,896.869 1641.4768,962.3972 1622.2168,1008.6422 " fill="none" id="Model-to-EModelUpdateIdentifier" style="stroke:#181818;stroke-width:1.0;stroke-dasharray:7.0,7.0;"/><polygon fill="#181818" points="1619.91,1014.181,1627.0628,1007.4106,1621.8323,1009.5653,1619.6776,1004.3349,1619.91,1014.181" style="stroke:#181818;stroke-width:1.0;"/><text fill="#000000" font-family="sans-serif" font-size="13" lengthAdjust="spacing" textLength="30" x="1680" y="901.5669">uses</text></g><!--reverse link constants to AObserver--><g id="link_constants_AObserver"><path codeLine="104" d="M1175.4653,941.0733 C1174.7299,937.4928 1173.9238,934.4626 1173,931 C1158.65,877.22 1125.05,821.606 1102.41,788.156 " fill="none" id="constants-backto-AObserver" style="stroke:#181818;stroke-width:1.0;stroke-dasharray:7.0,7.0;"/><polygon fill="#181818" points="1176.521,946.9797,1178.875,937.4163,1175.6412,942.0577,1170.9998,938.8239,1176.521,946.9797" style="stroke:#181818;stroke-width:1.0;"/><text fill="#000000" font-family="sans-serif" font-size="13" lengthAdjust="spacing" textLength="30" x="1172" y="901.5669">uses</text></g><!--link AView to AObserver--><g id="link_AView_AObserver"><path codeLine="106" d="M718.171,589.187 C824.062,637.713 924.4666,683.7238 995.9366,716.4778 " fill="none" id="AView-to-AObserver" style="stroke:#181818;stroke-width:1.0;"/><polygon fill="none" points="1012.3,723.977,998.4363,711.0233,993.4368,721.9323,1012.3,723.977" style="stroke:#181818;stroke-width:1.0;"/></g><!--link view to eeg--><!--reverse link AObserver to TriggerSender--><g id="link_AObserver_TriggerSender"><path codeLine="201" d="M1020.984,798.5722 C937.889,857.1002 774.284,972.342 691.241,1030.837 " fill="none" id="AObserver-backto-TriggerSender" style="stroke:#181818;stroke-width:1.0;"/><polygon fill="none" points="1035.7,788.207,1017.5289,793.6669,1024.439,803.4776,1035.7,788.207" style="stroke:#181818;stroke-width:1.0;"/></g><!--link BittiumTriggerSender to TriggerSender--><g id="link_BittiumTriggerSender_TriggerSender"><path codeLine="202" d="M473.225,1063 C484.878,1063 478.53,1063 490.183,1063 " fill="none" id="BittiumTriggerSender-to-TriggerSender" style="stroke:#181818;stroke-width:1.0;"/><polygon fill="none" points="508.183,1063,490.183,1057,490.183,1069,508.183,1063" style="stroke:#181818;stroke-width:1.0;"/></g><!--link BittiumTriggerSender to ETrigger--><g id="link_BittiumTriggerSender_ETrigger"><path codeLine="203" d="M271.094,1123.659 C278.655,1168.345 287.6949,1221.7771 293.7349,1257.4701 " fill="none" id="BittiumTriggerSender-to-ETrigger" style="stroke:#181818;stroke-width:1.0;stroke-dasharray:7.0,7.0;"/><polygon fill="#181818" points="294.736,1263.386,297.1783,1253.8448,293.9018,1258.4561,289.2904,1255.1796,294.736,1263.386" style="stroke:#181818;stroke-width:1.0;"/><text fill="#000000" font-family="sans-serif" font-size="13" lengthAdjust="spacing" textLength="30" x="289" y="1221.0669">uses</text></g><!--link BinauralTagger to AAudioTagger--><g id="link_BinauralTagger_AAudioTagger"><path codeLine="205" d="M2267.07,221.68 C2217.2,278.33 2138.013,368.2897 2088.033,425.0707 " fill="none" id="BinauralTagger-to-AAudioTagger" style="stroke:#181818;stroke-width:1.0;"/><polygon fill="none" points="2076.14,438.582,2092.5368,429.035,2083.5292,421.1063,2076.14,438.582" style="stroke:#181818;stroke-width:1.0;"/></g><!--link SpectrumShiftTagger to AAudioTagger--><g id="link_SpectrumShiftTagger_AAudioTagger"><path codeLine="206" d="M2041,221.68 C2041,278.33 2041,363.801 2041,420.582 " fill="none" id="SpectrumShiftTagger-to-AAudioTagger" style="stroke:#181818;stroke-width:1.0;"/><polygon fill="none" points="2041,438.582,2047,420.582,2035,420.582,2041,438.582" style="stroke:#181818;stroke-width:1.0;"/></g><!--link ShiftSumTagger to AAudioTagger--><g id="link_ShiftSumTagger_AAudioTagger"><path codeLine="207" d="M1811.46,221.68 C1862.1,278.33 1942.5748,368.3803 1993.3248,425.1613 " fill="none" id="ShiftSumTagger-to-AAudioTagger" style="stroke:#181818;stroke-width:1.0;"/><polygon fill="none" points="2005.32,438.582,1997.7984,421.1629,1988.8512,429.1597,2005.32,438.582" style="stroke:#181818;stroke-width:1.0;"/></g><!--link RawTagger to AAudioTagger--><g id="link_RawTagger_AAudioTagger"><path codeLine="208" d="M1053.7,205.32 C1064.62,231.23 1085.91,272.27 1118,294 C1222.74,364.92 1520.4922,415.204 1753.6322,445.718 " fill="none" id="RawTagger-to-AAudioTagger" style="stroke:#181818;stroke-width:1.0;"/><polygon fill="none" points="1771.48,448.054,1754.4109,439.7688,1752.8536,451.6673,1771.48,448.054" style="stroke:#181818;stroke-width:1.0;"/></g><!--link NoiseTaggingTagger to AAudioTagger--><g id="link_NoiseTaggingTagger_AAudioTagger"><path codeLine="209" d="M1580.75,270.16 C1704.44,326.15 1842.142,388.4806 1936.922,431.3876 " fill="none" id="NoiseTaggingTagger-to-AAudioTagger" style="stroke:#181818;stroke-width:1.0;"/><polygon fill="none" points="1953.32,438.811,1939.3965,425.9216,1934.4476,436.8536,1953.32,438.811" style="stroke:#181818;stroke-width:1.0;"/></g><!--link AMTagger to AAudioTagger--><g id="link_AMTagger_AAudioTagger"><path codeLine="210" d="M3836.51,237.53 C3796.91,258.57 3749.49,280.66 3704,294 C3226.82,433.955 2662.1948,468.8028 2328.5148,476.8178 " fill="none" id="AMTagger-to-AAudioTagger" style="stroke:#181818;stroke-width:1.0;"/><polygon fill="none" points="2310.52,477.25,2328.6589,482.816,2328.3707,470.8195,2310.52,477.25" style="stroke:#181818;stroke-width:1.0;"/></g><!--link FMTagger to AAudioTagger--><g id="link_FMTagger_AAudioTagger"><path codeLine="211" d="M2860.01,270.06 C2639.66,326.14 2382.3539,391.6225 2213.7239,434.5395 " fill="none" id="FMTagger-to-AAudioTagger" style="stroke:#181818;stroke-width:1.0;"/><polygon fill="none" points="2196.28,438.979,2215.2038,440.3541,2212.2441,428.7248,2196.28,438.979" style="stroke:#181818;stroke-width:1.0;"/></g><!--link FlippedFMTagger to AAudioTagger--><g id="link_FlippedFMTagger_AAudioTagger"><path codeLine="212" d="M2524.48,221.59 C2494.64,244.12 2455.64,272.12 2419,294 C2324.8,350.26 2227.4053,396.6926 2149.4253,431.5206 " fill="none" id="FlippedFMTagger-to-AAudioTagger" style="stroke:#181818;stroke-width:1.0;"/><polygon fill="none" points="2132.99,438.861,2151.8721,436.999,2146.9785,426.0421,2132.99,438.861" style="stroke:#181818;stroke-width:1.0;"/></g><!--reverse link AView to PsychopyView--><g id="link_AView_PsychopyView"><path codeLine="215" d="M462.9982,607.2051 C455.5342,659.7441 449.777,700.262 445.302,731.756 " fill="none" id="AView-backto-PsychopyView" style="stroke:#181818;stroke-width:1.0;"/><polygon fill="none" points="465.53,589.384,457.0579,606.3611,468.9386,608.049,465.53,589.384" style="stroke:#181818;stroke-width:1.0;"/></g><!--reverse link AView to CLIView--><g id="link_AView_CLIView"><path codeLine="216" d="M529.9804,606.1549 C550.4604,658.6939 566.663,700.262 578.939,731.756 " fill="none" id="AView-backto-CLIView" style="stroke:#181818;stroke-width:1.0;"/><polygon fill="none" points="523.443,589.384,524.3901,608.334,535.5707,603.9758,523.443,589.384" style="stroke:#181818;stroke-width:1.0;"/></g><!--reverse link Experiment to Model--><g id="link_Experiment_Model"><path codeLine="225" d="M614.0544,234.5307 C660.1034,255.6407 700.443,278.19 742,311 C868.09,410.538 831.628,512.709 973,589 C1109.19,662.493 1167.55,596.194 1319,628 C1372.91,639.321 1429.87,654.759 1483.57,670.973 " fill="none" id="Experiment-backto-Model" style="stroke:#181818;stroke-width:1.0;"/><polygon fill="#181818" points="603.146,229.53,606.9333,235.6665,614.0544,234.5307,610.2671,228.3942,603.146,229.53" style="stroke:#181818;stroke-width:1.0;"/><text fill="#000000" font-family="sans-serif" font-size="13" lengthAdjust="spacing" textLength="8" x="611.7603" y="249.4931">1</text><text fill="#000000" font-family="sans-serif" font-size="13" lengthAdjust="spacing" textLength="8" x="1453.5333" y="659.7898">1</text></g><!--reverse link Experiment to AView--><g id="link_Experiment_AView"><path codeLine="226" d="M481,241.64 C481,279.37 481,321.57 481,369.76 " fill="none" id="Experiment-backto-AView" style="stroke:#181818;stroke-width:1.0;"/><polygon fill="#181818" points="481,229.64,477,235.64,481,241.64,485,235.64,481,229.64" style="stroke:#181818;stroke-width:1.0;"/><text fill="#000000" font-family="sans-serif" font-size="13" lengthAdjust="spacing" textLength="8" x="472.4375" y="249.6186">1</text><text fill="#000000" font-family="sans-serif" font-size="13" lengthAdjust="spacing" textLength="8" x="472.7313" y="358.9464">1</text></g><!--link AAudioTagger to Model--><g id="link_AAudioTagger_Model"><path codeLine="228" d="M1995.68,520.121 C1950.76,559.392 1889.5742,612.8737 1832.1942,663.0387 " fill="none" id="AAudioTagger-to-Model" style="stroke:#181818;stroke-width:1.0;"/><polygon fill="#181818" points="1823.16,670.937,1830.3099,669.9993,1832.1942,663.0387,1825.0444,663.9765,1823.16,670.937" style="stroke:#181818;stroke-width:1.0;"/><text fill="#000000" font-family="sans-serif" font-size="13" lengthAdjust="spacing" textLength="7" x="1981.2044" y="539.5977">*</text><text fill="#000000" font-family="sans-serif" font-size="13" lengthAdjust="spacing" textLength="8" x="1823.08" y="660.0402">1</text></g><!--reverse link Model to Stimulus--><g id="link_Model_Stimulus"><path codeLine="229" d="M1783.0644,851.4695 C1812.5744,901.1935 1843.21,952.821 1870.28,998.442 " fill="none" id="Model-backto-Stimulus" style="stroke:#181818;stroke-width:1.0;"/><polygon fill="#181818" points="1776.94,841.15,1776.5624,848.3512,1783.0644,851.4695,1783.442,844.2683,1776.94,841.15" style="stroke:#181818;stroke-width:1.0;"/><text fill="#000000" font-family="sans-serif" font-size="13" lengthAdjust="spacing" textLength="73" x="1824" y="901.5669">raw_stimuli</text><text fill="#000000" font-family="sans-serif" font-size="13" lengthAdjust="spacing" textLength="8" x="1773.0315" y="861.4591">1</text><text fill="#000000" font-family="sans-serif" font-size="13" lengthAdjust="spacing" textLength="7" x="1858.7716" y="987.6083">*</text></g><!--link Experiment to auditory_tagging--><!--SRC=[hLXRRzis57xNho3I5wMsEcnxCm83dkDs1b8dY9rkGsgej4JRH6LH4wcaHfl_liEBH5AIswHO7-AAvyh3xrp8d0c2C4TvWD35Pho0pujVDkCHMZ74yGD1lC096QA4vLoKLI9OYGfSuWCHf4JYM10-1D77FKtsw805_1LxeWc8RTL7ac7EhPGIm2L1EHEWdYHqIqaQa3oLAoG8DF-aIYb3Nu5N_niiBYTbYO_tsunXiGODy66fD0Tb-51aDD_5svByMv4yqVId881DVCOxWXueUJGwyGOsX1DXt9jy0DB5nVM6a_A1bEEnO_hL56SPtcJa_bvvjHwY1Sl96d5MvMbSPFX8IijzIHDnFvjzAKX93oGNIu45XF2w49JbEBi7k-ir8Wqz5kIBu87TY_8bT9KFE-pdbl_L0wCf-bflw0bLHGeMuvmynbpGGvLLFAp_CqBJaW0rNPg5yn_fIPMYGXelG_qpGi3oGy7OyPdB6CJ97kSxaeP0nIFK3f5LE50AjHR3FCcFGqHJu9Lm0GzcxrbAiZl5Cs_MhOeDOvdhquw8652yfIN050uYR9jpU1yn5I4d2KGBS7LUeqZ-QBJSy6EoPyNnWyMJHvzUpJsI0y63TFi41clqkR3_wL3qkAtuK8roYUZns9gAhYWN2fr87tEyXmLM7YtK8gKXB76DB3f2Igf64wG6XXIHKWtsuYsMTOCIRfWdAejMUBSZvLj5EwxjQKHgnr0AwFRuCpksKIl93im1QcNQZsnustmlJHGhPRBYsJ8w0Jg94MeFu7-dii8xnYic8tUYM4KtMEnbkM2bu75AIw82R1tHqc46Fx9MDXmZ92MlwEV6fFohkL5KHT_6DeBQcnhIgZdWN73Z1ichGsSVZelpnMIwcd-OEGkhs-lBErYyNZIBjxFbQhvu5ozNazKidlqpMyRNDxFlqgTNrylPPSCn-_jcTZj_FrkiubuBbkx6M7lV2p1d3ulPNs1v_lxkwcxfBTv8ZRTzFcX7ftzE5k-Caq_TiwsHuvO0I4d8I7OeH7jDeiyvsIP_cUerl4LQLGNqCDK_XqYtqJK2UqHYxr1mlviAN4BDTFniN3lxzGozZYBrgr9vf9AUUHNGJmGNeCrQdJRMhjSZKSMX-GXL9cBeloHpUcHBlvE2zT9GbberMyHOEwbyFU-BQtZU5rbtjHFR3l57qNK5R7n3DzdQGUi9jB-d8EYNUotbCYrOhyecf1k0Lbj6YgybEq9dJTqsvV-i5WDk5XbtskaDSksgTkQOO-2DjcThYAQ-UJC-aMsW4X30puB0DiOt6R0tzSRXKEqsQXMffkasFKcY2QhUYVxhzAK6iAzQSwSp9gYpEC9KK-MVGtKUiPfAzSe8-P802ZDFr40Ow1atKIUW5GnDKj2cx7kL5hmiJKOu6MMyVxzg4o3P9DBySTWGx4mBB4DK_v6phRzXC1VlI4vA315qDVXOHvpk87DZq25d2oTNvKQNorljNTWuC_Gr3ziARBey1QsjldtPLfM3yhIgJ8r-PY3nFAnLklvr9CvThM4Tfrk2CoTiwlCSVPKvG9CdQCKABh6wd8Wg9JmkzXXW6qAZsS1zo09b2hKe8r_MdfqsqMhM8wrQZRMkq1ePePP_scXhkTUIeXZ-M30u4PLkE2TCJdCcG33FXRqwBT1FAp-fKjepuJd9qxL7Iowqs8jyKS3u_RTrVT8ar1XifIvmEDUjBXepMXGaVGueFSJvOXPuBl0xyy62KKvMkegrx4LDzvHvZ3Y1MxNZHNFLZhVSNTzG4J_ILEpTnOpaEx6FWHQqM_CKQlKQQd1AwkqCkaw547PLKa03u1qQE5odM9wETA6nweVApthBUlQFwwe0DqOm4tQfGXEqcbENj5lyw4NeoQ-bV4-tmXHJtgccIqbTLeTJPwgbD_wH-a9XpVETIhQ4Gn5bTL2IBxFLbNoEmJzeZgiIPpsssjPSoi2NwxNKN7MRjak8wRHwfbwLL0eRcuFwsozeGY- -_Dgl790lI0Wqx8LyVQejmBsCGI61WeB47gC3BWf0AdomZxbyeOBoNE4C6TF8rEMFEGVzGT-aOFGkIPvwGUoyX826jDcIgBsf_N91Mn-F41G0vEhlk-X5yniCfv6Hx0RkUUfnJNx4yjONsBCq5kCKZaxrCPFvWpuxeQTbs2DiJbllyXbRKsXGRsxH_PwcS5phI88Y2Fm0jc-NVTuX65Y1oLlhPrGJPNFopOJe3dSNty1aAnVwE7gIh9VDo_i-ZgOMzH6xvREFgvxl-cXllqVp-qnG3yj0ZRo7B7VTF601itcEjUE-WU30heJgJMkadvU6oBosIFbcdFr_dudCOugQc-k7gD0bbPLyttiA7A_TkvHoz1HneZVkNfKgStLn7FBeccolKCxxM0zVvyQbDv8s8gg8iHnbLDuY33lQ7542wIblB-XJU- -V0dSxJRPrBZx_0G00]--></g></svg>