<?xml version="1.0" encoding="us-ascii" standalone="no"?><svg xmlns="http://www.w3.org/2000/svg" xmlns:xlink="http://www.w3.org/1999/xlink" contentStyleType="text/css" height="794px" preserveAspectRatio="none" style="width:755px;height:794px;background:#FFFFFF;" version="1.1" viewBox="0 0 755 794" width="755px" zoomAndPan="magnify"><defs/><g><!--cluster model--><g id="cluster_model"><path d="M201.5,336 L251.5,336 A3.75,3.75 0 0 1 254,338.5 L261,358.2969 L495.5,358.2969 A2.5,2.5 0 0 1 498,360.7969 L498,778.5 A2.5,2.5 0 0 1 495.5,781 L201.5,781 A2.5,2.5 0 0 1 199,778.5 L199,338.5 A2.5,2.5 0 0 1 201.5,336 " fill="none" style="stroke:#000000;stroke-width:1.5;"/><line style="stroke:#000000;stroke-width:1.5;" x1="199" x2="261" y1="358.2969" y2="358.2969"/><text fill="#000000" font-family="sans-serif" font-size="14" font-weight="bold" lengthAdjust="spacing" textLength="49" x="203" y="350.9951">model</text></g><!--cluster view--><g id="cluster_view"><path d="M8.5,560 L45.5,560 A3.75,3.75 0 0 1 48,562.5 L55,582.2969 L172.5,582.2969 A2.5,2.5 0 0 1 175,584.7969 L175,778.5 A2.5,2.5 0 0 1 172.5,781 L8.5,781 A2.5,2.5 0 0 1 6,778.5 L6,562.5 A2.5,2.5 0 0 1 8.5,560 " fill="none" style="stroke:#000000;stroke-width:1.5;"/><line style="stroke:#000000;stroke-width:1.5;" x1="6" x2="55" y1="582.2969" y2="582.2969"/><text fill="#000000" font-family="sans-serif" font-size="14" font-weight="bold" lengthAdjust="spacing" textLength="36" x="10" y="574.9951">view</text></g><!--cluster eeg--><g id="cluster_eeg"><path d="M524.5,566 L553.5,566 A3.75,3.75 0 0 1 556,568.5 L563,588.2969 L695.5,588.2969 A2.5,2.5 0 0 1 698,590.7969 L698,784.5 A2.5,2.5 0 0 1 695.5,787 L524.5,787 A2.5,2.5 0 0 1 522,784.5 L522,568.5 A2.5,2.5 0 0 1 524.5,566 " fill="none" style="stroke:#000000;stroke-width:1.5;"/><line style="stroke:#000000;stroke-width:1.5;" x1="522" x2="563" y1="588.2969" y2="588.2969"/><text fill="#000000" font-family="sans-serif" font-size="14" font-weight="bold" lengthAdjust="spacing" textLength="28" x="526" y="580.9951">eeg</text></g><!--cluster audio_tagging--><g id="cluster_audio_tagging"><path d="M524.5,6 L640.5,6 A3.75,3.75 0 0 1 643,8.5 L650,28.2969 L745.5,28.2969 A2.5,2.5 0 0 1 748,30.7969 L748,422.5 A2.5,2.5 0 0 1 745.5,425 L524.5,425 A2.5,2.5 0 0 1 522,422.5 L522,8.5 A2.5,2.5 0 0 1 524.5,6 " fill="none" style="stroke:#000000;stroke-width:1.5;"/><line style="stroke:#000000;stroke-width:1.5;" x1="522" x2="650" y1="28.2969" y2="28.2969"/><text fill="#000000" font-family="sans-serif" font-size="14" font-weight="bold" lengthAdjust="spacing" textLength="115" x="526" y="20.9951">audio_tagging</text></g><!--entity Model--><g id="elem_Model"><rect fill="#F1F1F1" height="46.2969" rx="2.5" ry="2.5" style="stroke:#181818;stroke-width:0.5;" width="83" x="330.5" y="489"/><rect fill="#F1F1F1" height="10" style="stroke:#181818;stroke-width:0.5;" width="15" x="393.5" y="494"/><rect fill="#F1F1F1" height="2" style="stroke:#181818;stroke-width:0.5;" width="4" x="391.5" y="496"/><rect fill="#F1F1F1" height="2" style="stroke:#181818;stroke-width:0.5;" width="4" x="391.5" y="500"/><text fill="#000000" font-family="sans-serif" font-size="14" lengthAdjust="spacing" textLength="43" x="345.5" y="521.9951">Model</text></g><!--entity observer--><g id="elem_observer"><text fill="#000000" font-family="sans-serif" font-size="14" lengthAdjust="spacing" textLength="95" x="324.5" y="628.9951">observerable</text></g><!--entity model_provider--><g id="elem_model_provider"><ellipse cx="245" cy="400" fill="#F1F1F1" rx="8" ry="8" style="stroke:#181818;stroke-width:0.5;"/><text fill="#000000" font-family="sans-serif" font-size="14" lengthAdjust="spacing" textLength="45" x="222.5" y="429.9951">model</text></g><!--entity atf--><g id="elem_atf"><text fill="#000000" font-family="sans-serif" font-size="14" lengthAdjust="spacing" textLength="152" x="320" y="404.9951">audio_tagger_factory</text></g><!--entity Logger--><g id="elem_Logger"><rect fill="#F1F1F1" height="46.2969" rx="2.5" ry="2.5" style="stroke:#181818;stroke-width:0.5;" width="90" x="238" y="719"/><rect fill="#F1F1F1" height="10" style="stroke:#181818;stroke-width:0.5;" width="15" x="308" y="724"/><rect fill="#F1F1F1" height="2" style="stroke:#181818;stroke-width:0.5;" width="4" x="306" y="726"/><rect fill="#F1F1F1" height="2" style="stroke:#181818;stroke-width:0.5;" width="4" x="306" y="730"/><text fill="#000000" font-family="sans-serif" font-size="14" lengthAdjust="spacing" textLength="50" x="253" y="751.9951">Logger</text></g><!--entity logger_observer--><g id="elem_logger_observer"><ellipse cx="372" cy="742" fill="#F1F1F1" rx="8" ry="8" style="stroke:#181818;stroke-width:0.5;"/><text fill="#000000" font-family="sans-serif" font-size="14" lengthAdjust="spacing" textLength="64" x="340" y="771.9951">observer</text></g><!--entity AView--><g id="elem_AView"><rect fill="#F1F1F1" height="46.2969" rx="2.5" ry="2.5" style="stroke:#181818;stroke-width:0.5;" width="84" x="22" y="719"/><rect fill="#F1F1F1" height="10" style="stroke:#181818;stroke-width:0.5;" width="15" x="86" y="724"/><rect fill="#F1F1F1" height="2" style="stroke:#181818;stroke-width:0.5;" width="4" x="84" y="726"/><rect fill="#F1F1F1" height="2" style="stroke:#181818;stroke-width:0.5;" width="4" x="84" y="730"/><text fill="#000000" font-family="sans-serif" font-size="14" lengthAdjust="spacing" textLength="44" x="37" y="751.9951">AView</text></g><!--entity view_observer--><g id="elem_view_observer"><ellipse cx="150" cy="742" fill="#F1F1F1" rx="8" ry="8" style="stroke:#181818;stroke-width:0.5;"/><text fill="#000000" font-family="sans-serif" font-size="14" lengthAdjust="spacing" textLength="64" x="118" y="771.9951">observer</text></g><!--entity view_provider--><g id="elem_view_provider"><ellipse cx="98" cy="624" fill="#F1F1F1" rx="8" ry="8" style="stroke:#181818;stroke-width:0.5;"/><text fill="#000000" font-family="sans-serif" font-size="14" lengthAdjust="spacing" textLength="32" x="82" y="653.9951">view</text></g><!--entity TriggerSender--><g id="elem_TriggerSender"><rect fill="#F1F1F1" height="46.2969" rx="2.5" ry="2.5" style="stroke:#181818;stroke-width:0.5;" width="143" x="538.5" y="601"/><rect fill="#F1F1F1" height="10" style="stroke:#181818;stroke-width:0.5;" width="15" x="661.5" y="606"/><rect fill="#F1F1F1" height="2" style="stroke:#181818;stroke-width:0.5;" width="4" x="659.5" y="608"/><rect fill="#F1F1F1" height="2" style="stroke:#181818;stroke-width:0.5;" width="4" x="659.5" y="612"/><text fill="#000000" font-family="sans-serif" font-size="14" lengthAdjust="spacing" textLength="103" x="553.5" y="633.9951">TriggerSender</text></g><!--entity trigger_observer--><g id="elem_trigger_observer"><ellipse cx="594" cy="742" fill="#F1F1F1" rx="8" ry="8" style="stroke:#181818;stroke-width:0.5;"/><text fill="#000000" font-family="sans-serif" font-size="14" lengthAdjust="spacing" textLength="64" x="562" y="771.9951">observer</text></g><!--entity AAudioTagger--><g id="elem_AAudioTagger"><rect fill="#F1F1F1" height="46.2969" rx="2.5" ry="2.5" style="stroke:#181818;stroke-width:0.5;" width="140" x="565" y="41"/><rect fill="#F1F1F1" height="10" style="stroke:#181818;stroke-width:0.5;" width="15" x="685" y="46"/><rect fill="#F1F1F1" height="2" style="stroke:#181818;stroke-width:0.5;" width="4" x="683" y="48"/><rect fill="#F1F1F1" height="2" style="stroke:#181818;stroke-width:0.5;" width="4" x="683" y="52"/><text fill="#000000" font-family="sans-serif" font-size="14" lengthAdjust="spacing" textLength="100" x="580" y="73.9951">AAudioTagger</text></g><!--entity audio_tagger--><g id="elem_audio_tagger"><ellipse cx="635" cy="176" fill="#F1F1F1" rx="8" ry="8" style="stroke:#181818;stroke-width:0.5;"/><text fill="#000000" font-family="sans-serif" font-size="14" lengthAdjust="spacing" textLength="93" x="588.5" y="205.9951">audio_tagger</text></g><!--entity AAudioTaggerFactory--><g id="elem_AAudioTaggerFactory"><rect fill="#F1F1F1" height="46.2969" rx="2.5" ry="2.5" style="stroke:#181818;stroke-width:0.5;" width="194" x="538" y="265"/><rect fill="#F1F1F1" height="10" style="stroke:#181818;stroke-width:0.5;" width="15" x="712" y="270"/><rect fill="#F1F1F1" height="2" style="stroke:#181818;stroke-width:0.5;" width="4" x="710" y="272"/><rect fill="#F1F1F1" height="2" style="stroke:#181818;stroke-width:0.5;" width="4" x="710" y="276"/><text fill="#000000" font-family="sans-serif" font-size="14" lengthAdjust="spacing" textLength="154" x="553" y="297.9951">AAudioTaggerFactory</text></g><!--entity audio_tagger_factory--><g id="elem_audio_tagger_factory"><ellipse cx="591" cy="400" fill="#F1F1F1" rx="8" ry="8" style="stroke:#181818;stroke-width:0.5;"/><text fill="#000000" font-family="sans-serif" font-size="14" lengthAdjust="spacing" textLength="152" x="515" y="429.9951">audio_tagger_factory</text></g><!--entity Experiment--><g id="elem_Experiment"><rect fill="#F1F1F1" height="46.2969" rx="2.5" ry="2.5" style="stroke:#181818;stroke-width:0.5;" width="125" x="124.5" y="265"/><rect fill="#F1F1F1" height="10" style="stroke:#181818;stroke-width:0.5;" width="15" x="229.5" y="270"/><rect fill="#F1F1F1" height="2" style="stroke:#181818;stroke-width:0.5;" width="4" x="227.5" y="272"/><rect fill="#F1F1F1" height="2" style="stroke:#181818;stroke-width:0.5;" width="4" x="227.5" y="276"/><text fill="#000000" font-family="sans-serif" font-size="14" lengthAdjust="spacing" textLength="85" x="139.5" y="297.9951">Experiment</text></g><!--link Model to observer--><g id="link_Model_observer"><path d="M372,535.26 C372,556.102 372,576.807 372,595.82 " fill="none" id="Model-to-observer" style="stroke:#181818;stroke-width:1.0;"/><path d="M380.4572,602.7418 A9,9 0 0 0 363.5428 602.7418" fill="none" style="stroke:#181818;stroke-width:1.5;"/></g><!--link model_provider to Model--><g id="link_model_provider_Model"><path d="M254.134,408.911 C273.243,425.463 318.032,464.256 346.567,488.971 " fill="none" id="model_provider-Model" style="stroke:#181818;stroke-width:1.0;"/></g><!--reverse link atf to Model--><g id="link_atf_Model"><path d="M390.1181,427.9581 C385.9781,446.9311 381.432,467.77 376.886,488.607 " fill="none" id="atf-backto-Model" style="stroke:#181818;stroke-width:1.0;"/><path d="M383.331,419.3924 A9,9 0 0 0 399.8566 422.9984" fill="none" style="stroke:#181818;stroke-width:1.5;"/></g><!--link Logger to logger_observer--><g id="link_Logger_logger_observer"><path d="M328.195,742 C339.717,742 351.238,742 362.76,742 " fill="none" id="Logger-logger_observer" style="stroke:#181818;stroke-width:1.0;"/></g><!--link AView to view_observer--><g id="link_AView_view_observer"><path d="M106.328,742 C117.815,742 129.301,742 140.788,742 " fill="none" id="AView-view_observer" style="stroke:#181818;stroke-width:1.0;"/></g><!--link view_provider to AView--><g id="link_view_provider_AView"><path d="M95.555,633.342 C90.378,651.005 78.1615,692.684 70.5379,718.6941 " fill="none" id="view_provider-AView" style="stroke:#181818;stroke-width:1.0;"/></g><!--link TriggerSender to trigger_observer--><g id="link_TriggerSender_trigger_observer"><path d="M606.953,647.092 C603.344,673.254 597.519,715.4876 595.104,732.9975 " fill="none" id="TriggerSender-trigger_observer" style="stroke:#181818;stroke-width:1.0;"/></g><!--link AAudioTagger to audio_tagger--><g id="link_AAudioTagger_audio_tagger"><path d="M635,87.26 C635,111.869 635,150.227 635,166.856 " fill="none" id="AAudioTagger-audio_tagger" style="stroke:#181818;stroke-width:1.0;"/></g><!--reverse link audio_tagger to AAudioTaggerFactory--><g id="link_audio_tagger_AAudioTaggerFactory"><path d="M635,195.268 C635,211.956 635,240.164 635,264.713 " fill="none" id="audio_tagger-backto-AAudioTaggerFactory" style="stroke:#181818;stroke-width:1.0;"/><path d="M626.5428,188.3462 A9,9 0 0 0 643.4572 188.3462" fill="none" style="stroke:#181818;stroke-width:1.5;"/></g><!--link AAudioTaggerFactory to audio_tagger_factory--><g id="link_AAudioTaggerFactory_audio_tagger_factory"><path d="M626.096,311.26 C616.252,335.869 600.909,374.227 594.258,390.856 " fill="none" id="AAudioTaggerFactory-audio_tagger_factory" style="stroke:#181818;stroke-width:1.0;"/></g><!--link audio_tagger_factory to atf--><g id="link_audio_tagger_factory_atf"><path d="M581.639,400 C548.451,400 521.263,400 488.074,400 " fill="none" id="audio_tagger_factory-to-atf" style="stroke:#181818;stroke-width:1.0;stroke-dasharray:7.0,7.0;"/><polygon fill="#181818" points="482.074,400,491.074,404,487.074,400,491.074,396,482.074,400" style="stroke:#181818;stroke-width:1.0;"/></g><!--link Experiment to model_provider--><g id="link_Experiment_model_provider"><path d="M198.737,311.26 C211.713,335.869 227.2739,365.3813 236.0419,382.0103 " fill="none" id="Experiment-to-model_provider" style="stroke:#181818;stroke-width:1.0;"/><path d="M246.7513,384.1886 A9,9 0 0 0 231.7893 392.0777" fill="none" style="stroke:#181818;stroke-width:1.5;"/></g><!--link Experiment to view_provider--><g id="link_Experiment_view_provider"><path d="M181.092,311.173 C163.427,377.466 114.1129,562.5322 102.7779,605.0682 " fill="none" id="Experiment-to-view_provider" style="stroke:#181818;stroke-width:1.0;"/><path d="M109.1677,613.9343 A9,9 0 0 0 92.8236 609.5789" fill="none" style="stroke:#181818;stroke-width:1.5;"/></g><!--reverse link observer to view_observer--><g id="link_observer_view_observer"><path d="M331.9016,644.7035 C296.7866,662.0835 246.448,687.395 199,713 C185.032,720.5379 169.12,729.7483 159.318,735.4959 " fill="none" id="observer-backto-view_observer" style="stroke:#181818;stroke-width:1.0;stroke-dasharray:7.0,7.0;"/><polygon fill="#181818" points="337.279,642.042,327.4386,642.4493,332.7978,644.2599,330.9873,649.6192,337.279,642.042" style="stroke:#181818;stroke-width:1.0;"/></g><!--reverse link observer to logger_observer--><g id="link_observer_logger_observer"><path d="M372,648.116 C372,673.451 372,713.9612 372,732.7766 " fill="none" id="observer-backto-logger_observer" style="stroke:#181818;stroke-width:1.0;stroke-dasharray:7.0,7.0;"/><polygon fill="#181818" points="372,642.116,368,651.116,372,647.116,376,651.116,372,642.116" style="stroke:#181818;stroke-width:1.0;"/></g><!--reverse link observer to trigger_observer--><g id="link_observer_trigger_observer"><path d="M410.0748,644.8947 C461.9378,671.9947 554.849,720.543 584.983,736.2886 " fill="none" id="observer-backto-trigger_observer" style="stroke:#181818;stroke-width:1.0;stroke-dasharray:7.0,7.0;"/><polygon fill="#181818" points="404.757,642.116,410.8812,649.8292,409.1885,644.4316,414.5861,642.7389,404.757,642.116" style="stroke:#181818;stroke-width:1.0;"/></g><!--SRC=[VLEnReGm3Dtp5Hdf4BwWgiJGJktKqwqeW0z51O9oWRQgxj-R13XYXvOf-BrdFyVEAEiFsGBlTGCT_s7SVRNkHpt0OFcRZuPO9ok7w-eAPWOZgmwulDx_0oMGkH3P7Wxnx67DxWJXK8v6pwh1iabGCAehfqRfqigs1LDUP6sr-VRffBtW75a8aIvUjTTjNZPpNjy5f4HjB6mkZ4XWTcDiN2ziLl2Pt5TnTj6ZGfwDomHgg8AnJHtoRqfqOQjo4WIBtG6qYRcJKRwTTnYQuzkm2m7xH2ettPGLbTtdf8RKG55u-2JZQSIJNRgBI5mq0ZF-oVYoh4MIP8slsq7B4GlRSlsTHHppR-nmHtEJFoqhkPj-_Xh1gDuTsNuCxuOy08AIQTydzvZdP8SGH9SOWNIOlm00]--></g></svg>