<svg xmlns="http://www.w3.org/2000/svg" xmlns:xlink="http://www.w3.org/1999/xlink" contentStyleType="text/css" height="421px" preserveAspectRatio="none" style="width:657px;height:421px;background:#FFFFFF;" version="1.1" viewBox="0 0 657 421" width="657px" zoomAndPan="magnify"><defs/><g><!--cluster model--><g id="cluster_model"><path d="M199.5,78.3 L248.5,78.3 A3.75,3.75 0 0 1 251,80.8 L258,100.5969 L451.5,100.5969 A2.5,2.5 0 0 1 454,103.0969 L454,406.54 A2.5,2.5 0 0 1 451.5,409.04 L199.5,409.04 A2.5,2.5 0 0 1 197,406.54 L197,80.8 A2.5,2.5 0 0 1 199.5,78.3 " fill="none" style="stroke:#000000;stroke-width:1.5;"/><line style="stroke:#000000;stroke-width:1.5;" x1="197" x2="258" y1="100.5969" y2="100.5969"/><text fill="#000000" font-family="sans-serif" font-size="14" font-weight="bold" lengthAdjust="spacing" textLength="48" x="201" y="93.2951">model</text></g><!--cluster view--><g id="cluster_view"><path d="M8.5,311.74 L46.5,311.74 A3.75,3.75 0 0 1 49,314.24 L56,334.0369 L170.5,334.0369 A2.5,2.5 0 0 1 173,336.5369 L173,406.54 A2.5,2.5 0 0 1 170.5,409.04 L8.5,409.04 A2.5,2.5 0 0 1 6,406.54 L6,314.24 A2.5,2.5 0 0 1 8.5,311.74 " fill="none" style="stroke:#000000;stroke-width:1.5;"/><line style="stroke:#000000;stroke-width:1.5;" x1="6" x2="56" y1="334.0369" y2="334.0369"/><text fill="#000000" font-family="sans-serif" font-size="14" font-weight="bold" lengthAdjust="spacing" textLength="37" x="10" y="326.7351">view</text></g><!--cluster eeg--><g id="cluster_eeg"><path d="M480.5,199.59 L511.5,199.59 A3.75,3.75 0 0 1 514,202.09 L521,221.8869 L647.5,221.8869 A2.5,2.5 0 0 1 650,224.3869 L650,412.39 A2.5,2.5 0 0 1 647.5,414.89 L480.5,414.89 A2.5,2.5 0 0 1 478,412.39 L478,202.09 A2.5,2.5 0 0 1 480.5,199.59 " fill="none" style="stroke:#000000;stroke-width:1.5;"/><line style="stroke:#000000;stroke-width:1.5;" x1="478" x2="521" y1="221.8869" y2="221.8869"/><text fill="#000000" font-family="sans-serif" font-size="14" font-weight="bold" lengthAdjust="spacing" textLength="30" x="482" y="214.5851">eeg</text></g><!--cluster auditory_tagging--><g id="cluster_auditory_tagging"><path d="M480.5,78.3 L612.5,78.3 A3.75,3.75 0 0 1 615,80.8 L622,100.5969 L645.5,100.5969 A2.5,2.5 0 0 1 648,103.0969 L648,173.09 A2.5,2.5 0 0 1 645.5,175.59 L480.5,175.59 A2.5,2.5 0 0 1 478,173.09 L478,80.8 A2.5,2.5 0 0 1 480.5,78.3 " fill="none" style="stroke:#000000;stroke-width:1.5;"/><line style="stroke:#000000;stroke-width:1.5;" x1="478" x2="622" y1="100.5969" y2="100.5969"/><text fill="#000000" font-family="sans-serif" font-size="14" font-weight="bold" lengthAdjust="spacing" textLength="131" x="482" y="93.2951">auditory_tagging</text></g><!--entity Model--><g id="elem_Model"><rect fill="#F1F1F1" height="46.2969" rx="2.5" ry="2.5" style="stroke:#181818;stroke-width:0.5;" width="82" x="213" y="113.3"/><rect fill="#F1F1F1" height="10" style="stroke:#181818;stroke-width:0.5;" width="15" x="275" y="118.3"/><rect fill="#F1F1F1" height="2" style="stroke:#181818;stroke-width:0.5;" width="4" x="273" y="120.3"/><rect fill="#F1F1F1" height="2" style="stroke:#181818;stroke-width:0.5;" width="4" x="273" y="124.3"/><text fill="#000000" font-family="sans-serif" font-size="14" lengthAdjust="spacing" textLength="42" x="228" y="146.2951">Model</text></g><!--entity observer--><g id="elem_observer"><text fill="#000000" font-family="sans-serif" font-size="14" lengthAdjust="spacing" textLength="90" x="261" y="262.5851">observerable</text></g><!--entity Logger--><g id="elem_Logger"><rect fill="#F1F1F1" height="46.2969" rx="2.5" ry="2.5" style="stroke:#181818;stroke-width:0.5;" width="88" x="213" y="346.74"/><rect fill="#F1F1F1" height="10" style="stroke:#181818;stroke-width:0.5;" width="15" x="281" y="351.74"/><rect fill="#F1F1F1" height="2" style="stroke:#181818;stroke-width:0.5;" width="4" x="279" y="353.74"/><rect fill="#F1F1F1" height="2" style="stroke:#181818;stroke-width:0.5;" width="4" x="279" y="357.74"/><text fill="#000000" font-family="sans-serif" font-size="14" lengthAdjust="spacing" textLength="48" x="228" y="379.7351">Logger</text></g><!--entity logger_observer--><g id="elem_logger_observer"><ellipse cx="345" cy="369.89" fill="#F1F1F1" rx="8" ry="8" style="stroke:#181818;stroke-width:0.5;"/><text fill="#000000" font-family="sans-serif" font-size="14" lengthAdjust="spacing" textLength="61" x="314.5" y="399.8851">observer</text></g><!--entity AStimulus--><g id="elem_AStimulus"><rect fill="#F1F1F1" height="46.2969" rx="2.5" ry="2.5" style="stroke:#181818;stroke-width:0.5;" width="108" x="330" y="113.3"/><rect fill="#F1F1F1" height="10" style="stroke:#181818;stroke-width:0.5;" width="15" x="418" y="118.3"/><rect fill="#F1F1F1" height="2" style="stroke:#181818;stroke-width:0.5;" width="4" x="416" y="120.3"/><rect fill="#F1F1F1" height="2" style="stroke:#181818;stroke-width:0.5;" width="4" x="416" y="124.3"/><text fill="#000000" font-family="sans-serif" font-size="14" lengthAdjust="spacing" textLength="68" x="345" y="146.2951">AStimulus</text></g><!--entity AView--><g id="elem_AView"><rect fill="#F1F1F1" height="46.2969" rx="2.5" ry="2.5" style="stroke:#181818;stroke-width:0.5;" width="81" x="22.5" y="346.74"/><rect fill="#F1F1F1" height="10" style="stroke:#181818;stroke-width:0.5;" width="15" x="83.5" y="351.74"/><rect fill="#F1F1F1" height="2" style="stroke:#181818;stroke-width:0.5;" width="4" x="81.5" y="353.74"/><rect fill="#F1F1F1" height="2" style="stroke:#181818;stroke-width:0.5;" width="4" x="81.5" y="357.74"/><text fill="#000000" font-family="sans-serif" font-size="14" lengthAdjust="spacing" textLength="41" x="37.5" y="379.7351">AView</text></g><!--entity view_observer--><g id="elem_view_observer"><ellipse cx="148" cy="369.89" fill="#F1F1F1" rx="8" ry="8" style="stroke:#181818;stroke-width:0.5;"/><text fill="#000000" font-family="sans-serif" font-size="14" lengthAdjust="spacing" textLength="61" x="109.5" y="399.8851">observer</text></g><!--entity TriggerSender--><g id="elem_TriggerSender"><rect fill="#F1F1F1" height="46.2969" rx="2.5" ry="2.5" style="stroke:#181818;stroke-width:0.5;" width="139" x="494.5" y="234.59"/><rect fill="#F1F1F1" height="10" style="stroke:#181818;stroke-width:0.5;" width="15" x="613.5" y="239.59"/><rect fill="#F1F1F1" height="2" style="stroke:#181818;stroke-width:0.5;" width="4" x="611.5" y="241.59"/><rect fill="#F1F1F1" height="2" style="stroke:#181818;stroke-width:0.5;" width="4" x="611.5" y="245.59"/><text fill="#000000" font-family="sans-serif" font-size="14" lengthAdjust="spacing" textLength="99" x="509.5" y="267.5851">TriggerSender</text></g><!--entity trigger_observer--><g id="elem_trigger_observer"><ellipse cx="548" cy="369.89" fill="#F1F1F1" rx="8" ry="8" style="stroke:#181818;stroke-width:0.5;"/><text fill="#000000" font-family="sans-serif" font-size="14" lengthAdjust="spacing" textLength="61" x="517.5" y="399.8851">observer</text></g><!--entity AAudioTagger--><g id="elem_AAudioTagger"><rect fill="#F1F1F1" height="46.2969" rx="2.5" ry="2.5" style="stroke:#181818;stroke-width:0.5;" width="137" x="494.5" y="113.3"/><rect fill="#F1F1F1" height="10" style="stroke:#181818;stroke-width:0.5;" width="15" x="611.5" y="118.3"/><rect fill="#F1F1F1" height="2" style="stroke:#181818;stroke-width:0.5;" width="4" x="609.5" y="120.3"/><rect fill="#F1F1F1" height="2" style="stroke:#181818;stroke-width:0.5;" width="4" x="609.5" y="124.3"/><text fill="#000000" font-family="sans-serif" font-size="14" lengthAdjust="spacing" textLength="97" x="509.5" y="146.2951">AAudioTagger</text></g><!--entity Experiment--><g id="elem_Experiment"><rect fill="#F1F1F1" height="46.2969" rx="2.5" ry="2.5" style="stroke:#181818;stroke-width:0.5;" width="118" x="147" y="7"/><rect fill="#F1F1F1" height="10" style="stroke:#181818;stroke-width:0.5;" width="15" x="245" y="12"/><rect fill="#F1F1F1" height="2" style="stroke:#181818;stroke-width:0.5;" width="4" x="243" y="14"/><rect fill="#F1F1F1" height="2" style="stroke:#181818;stroke-width:0.5;" width="4" x="243" y="18"/><text fill="#000000" font-family="sans-serif" font-size="14" lengthAdjust="spacing" textLength="78" x="162" y="39.9951">Experiment</text></g><!--link Model to observer--><g id="link_Model_observer"><path d="M263.78,159.88 C273.84,182.97 285.3019,209.264 294.4619,230.264 " fill="none" id="Model-to-observer" style="stroke:#181818;stroke-width:1.0;"/><path d="M304.9812,233.2273 A9,9 0 0 0 289.4774 239.9898" fill="none" style="stroke:#181818;stroke-width:1.5;"/></g><!--link Logger to logger_observer--><g id="link_Logger_logger_observer"><path d="M301.34,369.89 C312.83,369.89 324.31,369.89 335.79,369.89 " fill="none" id="Logger-logger_observer" style="stroke:#181818;stroke-width:1.0;"/></g><!--link Model to AStimulus--><g id="link_Model_AStimulus"><path d="M295.39,136.44 C306.81,136.44 312.23,136.44 323.66,136.44 " fill="none" id="Model-to-AStimulus" style="stroke:#181818;stroke-width:1.0;"/><polygon fill="#181818" points="329.66,136.44,320.66,132.44,324.66,136.44,320.66,140.44,329.66,136.44" style="stroke:#181818;stroke-width:1.0;"/></g><!--link AView to view_observer--><g id="link_AView_view_observer"><path d="M103.84,369.89 C115.45,369.89 127.07,369.89 138.68,369.89 " fill="none" id="AView-view_observer" style="stroke:#181818;stroke-width:1.0;"/></g><!--link TriggerSender to trigger_observer--><g id="link_TriggerSender_trigger_observer"><path d="M560.72,281.3 C557.12,306.1 551.53,344.6 549.14,361.03 " fill="none" id="TriggerSender-trigger_observer" style="stroke:#181818;stroke-width:1.0;"/></g><!--link Experiment to Model--><g id="link_Experiment_Model"><path d="M216.42,53.78 C224.47,71.27 233.0502,89.9301 241.1002,107.4101 " fill="none" id="Experiment-to-Model" style="stroke:#181818;stroke-width:1.0;"/><polygon fill="#181818" points="243.61,112.86,243.4785,103.012,241.5185,108.3185,236.2121,106.3584,243.61,112.86" style="stroke:#181818;stroke-width:1.0;"/></g><!--link Experiment to AView--><g id="link_Experiment_AView"><path d="M196.51,53.57 C170.56,114.86 100.9797,279.185 74.9197,340.725 " fill="none" id="Experiment-to-AView" style="stroke:#181818;stroke-width:1.0;"/><polygon fill="#181818" points="72.58,346.25,79.7728,339.5222,74.5297,341.6458,72.4061,336.4027,72.58,346.25" style="stroke:#181818;stroke-width:1.0;"/></g><!--reverse link observer to view_observer--><g id="link_observer_view_observer"><path d="M244.9407,277.2359 C226.7607,284.2359 212.78,291.52 197,303.74 C176.18,319.85 159.75,346.94 152.32,360.56 " fill="none" id="observer-backto-view_observer" style="stroke:#181818;stroke-width:1.0;stroke-dasharray:7.0,7.0;"/><polygon fill="#181818" points="250.54,275.08,240.7038,274.5811,245.8739,276.8766,243.5784,282.0468,250.54,275.08" style="stroke:#181818;stroke-width:1.0;"/></g><!--reverse link observer to logger_observer--><g id="link_observer_logger_observer"><path d="M314.094,281.6055 C322.584,305.5655 335.62,342.41 342,360.43 " fill="none" id="observer-backto-logger_observer" style="stroke:#181818;stroke-width:1.0;stroke-dasharray:7.0,7.0;"/><polygon fill="#181818" points="312.09,275.95,311.3256,285.7692,313.76,280.6629,318.8662,283.0972,312.09,275.95" style="stroke:#181818;stroke-width:1.0;"/></g><!--reverse link observer to trigger_observer--><g id="link_observer_trigger_observer"><path d="M367.1133,272.7137 C395.6033,280.1937 424.63,289.53 454,303.74 C487.96,320.17 523.29,348.1 539.25,361.41 " fill="none" id="observer-backto-trigger_observer" style="stroke:#181818;stroke-width:1.0;stroke-dasharray:7.0,7.0;"/><polygon fill="#181818" points="361.31,271.19,368.9992,277.3444,366.1461,272.4597,371.0307,269.6066,361.31,271.19" style="stroke:#181818;stroke-width:1.0;"/></g><!--reverse link AAudioTagger to AStimulus--><g id="link_AAudioTagger_AStimulus"><path d="M488.26,136.44 C469.57,136.44 456.88,136.44 438.19,136.44 " fill="none" id="AAudioTagger-backto-AStimulus" style="stroke:#181818;stroke-width:1.0;"/><polygon fill="#181818" points="494.26,136.44,485.26,132.44,489.26,136.44,485.26,140.44,494.26,136.44" style="stroke:#181818;stroke-width:1.0;"/></g><!--SRC=[RLAxZiCW4Epv2kGgLv0lE4LoSTrTbIXjXEqLGeUDXN4kKPH_pu8TpEEeO6TsPtQNaRU_N03jTGUAFWZ5q-f-r0CCblwug8yftY2kcmdC5Gnl550-XRUdU39bRBU5itBVMeYLlFi8B5T8UUIIr5lOb1bMm5dT-cXbFwjv8h4HmmuHyYHaN7kzIlWhMgtF67rRgu8tF9Kpw79IUpx1kqknM0b0548d8rqpHnYw_sTX5qAgbcJXa4jM9CldJbfjxXVBXP13wQ6kaQ5FtAy34pVawpQ2aJrUoNP5lSFw5xBWCZKIx7_kzzau4YZVOm8M7P6mFSgK4ujSlm00]--></g></svg>