<?xml version="1.0" encoding="us-ascii" standalone="no"?><svg xmlns="http://www.w3.org/2000/svg" xmlns:xlink="http://www.w3.org/1999/xlink" contentStyleType="text/css" height="590px" preserveAspectRatio="none" style="width:865px;height:590px;background:#FFFFFF;" version="1.1" viewBox="0 0 865 590" width="865px" zoomAndPan="magnify"><defs/><g><!--cluster model--><g id="cluster_model"><path d="M384.5,6 L434.5,6 A3.75,3.75 0 0 1 437,8.5 L444,28.2969 L855.5,28.2969 A2.5,2.5 0 0 1 858,30.7969 L858,118.5 A2.5,2.5 0 0 1 855.5,121 L384.5,121 A2.5,2.5 0 0 1 382,118.5 L382,8.5 A2.5,2.5 0 0 1 384.5,6 " fill="none" style="stroke:#000000;stroke-width:1.5;"/><line style="stroke:#000000;stroke-width:1.5;" x1="382" x2="444" y1="28.2969" y2="28.2969"/><text fill="#000000" font-family="sans-serif" font-size="14" font-weight="bold" lengthAdjust="spacing" textLength="49" x="386" y="20.9951">model</text></g><!--cluster eeg--><g id="cluster_eeg"><path d="M8.5,154 L37.5,154 A3.75,3.75 0 0 1 40,156.5 L47,176.2969 L772.5,176.2969 A2.5,2.5 0 0 1 775,178.7969 L775,580.5 A2.5,2.5 0 0 1 772.5,583 L8.5,583 A2.5,2.5 0 0 1 6,580.5 L6,156.5 A2.5,2.5 0 0 1 8.5,154 " fill="none" style="stroke:#000000;stroke-width:1.5;"/><line style="stroke:#000000;stroke-width:1.5;" x1="6" x2="47" y1="176.2969" y2="176.2969"/><text fill="#000000" font-family="sans-serif" font-size="14" font-weight="bold" lengthAdjust="spacing" textLength="28" x="10" y="168.9951">eeg</text></g><!--class AObserver--><g id="elem_AObserver"><rect codeLine="2" fill="#F1F1F1" height="64.2969" id="AObserver" rx="2.5" ry="2.5" style="stroke:#181818;stroke-width:0.5;" width="444" x="398" y="41"/><ellipse cx="578.25" cy="57" fill="#A9DCDF" rx="11" ry="11" style="stroke:#181818;stroke-width:1.0;"/><path d="M580.3281,58.8125 L580.7188,59.7969 L580.3281,59.7969 C579.875,59.7969 579.7656,59.8125 579.6094,59.9219 C579.3594,60.0781 579.2031,60.3594 579.2031,60.6563 C579.2031,60.9219 579.3438,61.1719 579.5625,61.3281 C579.7031,61.4531 579.9063,61.5 580.3281,61.5 L582.6875,61.5 C583.0469,61.5 583.2656,61.4688 583.4063,61.375 C583.6563,61.2344 583.8125,60.9375 583.8125,60.6563 C583.8125,60.375 583.6719,60.125 583.4531,59.9688 C583.2813,59.8281 583.125,59.7969 582.6563,59.7969 L579.2656,51.5938 L575.5938,51.5938 C575.1406,51.5938 575.0156,51.6094 574.8594,51.7031 C574.6094,51.875 574.4531,52.1563 574.4531,52.4375 C574.4531,52.7188 574.5938,52.9688 574.8125,53.1406 C574.9844,53.25 575.1563,53.2813 575.5938,53.2813 L576.6719,53.2813 L574.0313,59.7969 C573.6094,59.7969 573.4531,59.8125 573.2969,59.9219 C573.0469,60.0781 572.8906,60.3594 572.8906,60.6563 C572.8906,61.2188 573.2656,61.5 574.0156,61.5 L576.2813,61.5 C576.6406,61.5 576.8594,61.4688 576.9844,61.375 C577.25,61.2344 577.3906,60.9375 577.3906,60.6563 C577.3906,60.375 577.2656,60.125 577.0469,59.9531 C576.875,59.8281 576.7344,59.7969 576.2813,59.7969 L575.8906,59.7969 L576.2813,58.8125 L580.3281,58.8125 Z M579.625,57.1094 L576.9531,57.1094 L578.2969,53.8438 L579.625,57.1094 Z " fill="#000000"/><text fill="#000000" font-family="sans-serif" font-size="14" font-style="italic" lengthAdjust="spacing" textLength="75" x="598.75" y="61.8467">AObserver</text><line style="stroke:#181818;stroke-width:0.5;" x1="399" x2="841" y1="73" y2="73"/><line style="stroke:#181818;stroke-width:0.5;" x1="399" x2="841" y1="81" y2="81"/><ellipse cx="409" cy="94.6484" fill="#84BE84" rx="3" ry="3" style="stroke:#038048;stroke-width:1.0;"/><text fill="#000000" font-family="sans-serif" font-size="14" lengthAdjust="spacing" textLength="418" x="418" y="97.9951">void update(data: Any, identifier: EModelUpdateIdentifier)</text></g><!--class ETrigger--><g id="elem_ETrigger"><rect codeLine="9" fill="#F1F1F1" height="64.2969" id="ETrigger" rx="2.5" ry="2.5" style="stroke:#181818;stroke-width:0.5;" width="501" x="22.5" y="387"/><ellipse cx="238.25" cy="403" fill="#EB937F" rx="11" ry="11" style="stroke:#181818;stroke-width:1.0;"/><path d="M237.0469,403.875 L238.5,403.875 L238.5,403.9844 C238.5,404.3906 238.5313,404.5469 238.6094,404.7031 C238.7656,404.9531 239.0469,405.1094 239.3438,405.1094 C239.5938,405.1094 239.8594,404.9688 240.0156,404.75 C240.1406,404.5938 240.1719,404.4375 240.1719,403.9844 L240.1719,402.0625 C240.1719,401.9063 240.1719,401.8594 240.1563,401.7031 C240.0938,401.2344 239.7813,400.9219 239.3281,400.9219 C239.0781,400.9219 238.8125,401.0625 238.6406,401.2813 C238.5313,401.4531 238.5,401.6094 238.5,402.0625 L238.5,402.1875 L237.0469,402.1875 L237.0469,399.7813 L241.0313,399.7813 L241.0313,400.6406 C241.0313,401.0469 241.0625,401.2188 241.1406,401.375 C241.3125,401.625 241.5938,401.7813 241.875,401.7813 C242.1406,401.7813 242.4063,401.6406 242.5781,401.4219 C242.6875,401.25 242.7188,401.1094 242.7188,400.6406 L242.7188,398.0938 L235.0938,398.0938 C234.6563,398.0938 234.5313,398.1094 234.375,398.2031 C234.125,398.3594 233.9688,398.6563 233.9688,398.9375 C233.9688,399.2188 234.1094,399.4688 234.3281,399.6406 C234.4844,399.75 234.6719,399.7813 235.0938,399.7813 L235.3438,399.7813 L235.3438,406.2969 L235.0938,406.2969 C234.6875,406.2969 234.5313,406.3125 234.375,406.4219 C234.125,406.5938 233.9688,406.8594 233.9688,407.1563 C233.9688,407.4219 234.1094,407.6719 234.3281,407.8281 C234.4688,407.9531 234.7031,408 235.0938,408 L243.0938,408 L243.0938,405.4219 C243.0938,404.9844 243.0625,404.8438 242.9844,404.6875 C242.8125,404.4375 242.5313,404.2813 242.25,404.2813 C241.9844,404.2813 241.7188,404.3906 241.5469,404.6406 C241.4375,404.7969 241.4063,404.9375 241.4063,405.4219 L241.4063,406.2969 L237.0469,406.2969 L237.0469,403.875 Z " fill="#000000"/><text fill="#000000" font-family="sans-serif" font-size="14" lengthAdjust="spacing" textLength="61" x="258.75" y="407.8467">ETrigger</text><line style="stroke:#181818;stroke-width:0.5;" x1="23.5" x2="522.5" y1="419" y2="419"/><line style="stroke:#181818;stroke-width:0.5;" x1="23.5" x2="522.5" y1="427" y2="427"/><ellipse cx="33.5" cy="440.6484" fill="#84BE84" rx="3" ry="3" style="stroke:#038048;stroke-width:1.0;"/><text fill="#000000" font-family="sans-serif" font-size="14" lengthAdjust="spacing" text-decoration="underline" textLength="475" x="42.5" y="443.9951">ETrigger get_trigger(data: Any, identifier: EModelUpdateIdentifier</text></g><g id="elem_GMN6"><path d="M177,512 L177,567.3984 A0,0 0 0 0 177,567.3984 L369,567.3984 A0,0 0 0 0 369,567.3984 L369,522 L359,512 L277,512 L273,451.134 L269,512 L177,512 A0,0 0 0 0 177,512 " fill="#FEFFDD" style="stroke:#181818;stroke-width:0.5;"/><path d="M359,512 L359,522 L369,522 L359,512 " fill="#FEFFDD" style="stroke:#181818;stroke-width:0.5;"/><text fill="#000000" font-family="sans-serif" font-size="13" lengthAdjust="spacing" textLength="165" x="183" y="529.0669">Contains tha mappings to</text><text fill="#000000" font-family="sans-serif" font-size="13" lengthAdjust="spacing" textLength="171" x="183" y="544.1997">the actual trigger numbers</text><text fill="#000000" font-family="sans-serif" font-size="13" lengthAdjust="spacing" textLength="28" x="183" y="559.3325">sent</text></g><!--class TriggerSender--><g id="elem_TriggerSender"><rect codeLine="14" fill="#F1F1F1" height="64.2969" id="TriggerSender" rx="2.5" ry="2.5" style="stroke:#181818;stroke-width:0.5;" width="277" x="481.5" y="217.5"/><ellipse cx="564.25" cy="233.5" fill="#A9DCDF" rx="11" ry="11" style="stroke:#181818;stroke-width:1.0;"/><path d="M566.3281,235.3125 L566.7188,236.2969 L566.3281,236.2969 C565.875,236.2969 565.7656,236.3125 565.6094,236.4219 C565.3594,236.5781 565.2031,236.8594 565.2031,237.1563 C565.2031,237.4219 565.3438,237.6719 565.5625,237.8281 C565.7031,237.9531 565.9063,238 566.3281,238 L568.6875,238 C569.0469,238 569.2656,237.9688 569.4063,237.875 C569.6563,237.7344 569.8125,237.4375 569.8125,237.1563 C569.8125,236.875 569.6719,236.625 569.4531,236.4688 C569.2813,236.3281 569.125,236.2969 568.6563,236.2969 L565.2656,228.0938 L561.5938,228.0938 C561.1406,228.0938 561.0156,228.1094 560.8594,228.2031 C560.6094,228.375 560.4531,228.6563 560.4531,228.9375 C560.4531,229.2188 560.5938,229.4688 560.8125,229.6406 C560.9844,229.75 561.1563,229.7813 561.5938,229.7813 L562.6719,229.7813 L560.0313,236.2969 C559.6094,236.2969 559.4531,236.3125 559.2969,236.4219 C559.0469,236.5781 558.8906,236.8594 558.8906,237.1563 C558.8906,237.7188 559.2656,238 560.0156,238 L562.2813,238 C562.6406,238 562.8594,237.9688 562.9844,237.875 C563.25,237.7344 563.3906,237.4375 563.3906,237.1563 C563.3906,236.875 563.2656,236.625 563.0469,236.4531 C562.875,236.3281 562.7344,236.2969 562.2813,236.2969 L561.8906,236.2969 L562.2813,235.3125 L566.3281,235.3125 Z M565.625,233.6094 L562.9531,233.6094 L564.2969,230.3438 L565.625,233.6094 Z " fill="#000000"/><text fill="#000000" font-family="sans-serif" font-size="14" font-style="italic" lengthAdjust="spacing" textLength="103" x="584.75" y="238.3467">TriggerSender</text><line style="stroke:#181818;stroke-width:0.5;" x1="482.5" x2="757.5" y1="249.5" y2="249.5"/><line style="stroke:#181818;stroke-width:0.5;" x1="482.5" x2="757.5" y1="257.5" y2="257.5"/><polygon fill="#FFFF44" points="492.5,266.1484,496.5,270.1484,492.5,274.1484,488.5,270.1484" style="stroke:#B38D22;stroke-width:1.0;"/><text fill="#000000" font-family="sans-serif" font-size="14" font-style="italic" lengthAdjust="spacing" textLength="251" x="501.5" y="274.4951">void send_trigger(trigger: ETrigger)</text></g><!--class BittiumTriggerSender--><g id="elem_BittiumTriggerSender"><rect codeLine="18" fill="#F1F1F1" height="121.4531" id="BittiumTriggerSender" rx="2.5" ry="2.5" style="stroke:#181818;stroke-width:0.5;" width="424" x="22" y="189"/><ellipse cx="151.25" cy="209.1328" fill="#ADD1B2" rx="11" ry="11" style="stroke:#181818;stroke-width:1.0;"/><path d="M153.5938,204.8047 C152.6563,204.3672 152.0625,204.2266 151.1875,204.2266 C148.5625,204.2266 146.5625,206.3047 146.5625,209.0234 L146.5625,210.1484 C146.5625,212.7266 148.6719,214.6172 151.5625,214.6172 C152.7813,214.6172 153.9375,214.3203 154.6875,213.7734 C155.2656,213.3672 155.5938,212.9141 155.5938,212.5234 C155.5938,212.0703 155.2031,211.6797 154.7344,211.6797 C154.5156,211.6797 154.3125,211.7578 154.125,211.9453 C153.6719,212.4297 153.6719,212.4297 153.4844,212.5234 C153.0625,212.7891 152.375,212.9141 151.6094,212.9141 C149.5625,212.9141 148.2656,211.8203 148.2656,210.1172 L148.2656,209.0234 C148.2656,207.2422 149.5156,205.9297 151.25,205.9297 C151.8281,205.9297 152.4375,206.0859 152.9063,206.3359 C153.3906,206.6172 153.5625,206.8359 153.6563,207.2422 C153.7188,207.6484 153.75,207.7734 153.8906,207.8984 C154.0313,208.0391 154.2656,208.1484 154.4844,208.1484 C154.75,208.1484 155.0156,208.0078 155.1875,207.7891 C155.2969,207.6328 155.3281,207.4453 155.3281,207.0234 L155.3281,205.6016 C155.3281,205.1641 155.3125,205.0391 155.2188,204.8828 C155.0625,204.6172 154.7813,204.4766 154.4844,204.4766 C154.1875,204.4766 153.9844,204.5703 153.7656,204.8828 L153.5938,204.8047 Z " fill="#000000"/><text fill="#000000" font-family="sans-serif" font-size="12" font-style="italic" lengthAdjust="spacing" textLength="68" x="216.25" y="205.1387">&#171;Observer&#187;</text><text fill="#000000" font-family="sans-serif" font-size="14" lengthAdjust="spacing" textLength="157" x="171.75" y="220.9639">BittiumTriggerSender</text><line style="stroke:#181818;stroke-width:0.5;" x1="23" x2="445" y1="229.2656" y2="229.2656"/><rect fill="none" height="6" style="stroke:#C82930;stroke-width:1.0;" width="6" x="30" y="239.9141"/><text fill="#000000" font-family="sans-serif" font-size="14" lengthAdjust="spacing" textLength="183" x="42" y="246.2607">IParallelPort parallel_port</text><rect fill="none" height="6" style="stroke:#C82930;stroke-width:1.0;" width="6" x="30" y="256.2109"/><text fill="#000000" font-family="sans-serif" font-size="14" lengthAdjust="spacing" textLength="155" x="42" y="262.5576">int trigger_duration_s</text><line style="stroke:#181818;stroke-width:0.5;" x1="23" x2="445" y1="269.8594" y2="269.8594"/><ellipse cx="33" cy="283.5078" fill="#84BE84" rx="3" ry="3" style="stroke:#038048;stroke-width:1.0;"/><text fill="#000000" font-family="sans-serif" font-size="14" lengthAdjust="spacing" textLength="398" x="42" y="286.8545">BittiumTriggerSender(parallel_port, trigger_duration_s)</text><polygon fill="#FFFF44" points="33,294.8047,37,298.8047,33,302.8047,29,298.8047" style="stroke:#B38D22;stroke-width:1.0;"/><text fill="#000000" font-family="sans-serif" font-size="14" lengthAdjust="spacing" textLength="255" x="42" y="303.1514">void send_trigger(trigger: ETrigger)</text></g><!--reverse link AObserver to TriggerSender--><g id="link_AObserver_TriggerSender"><path codeLine="25" d="M620,123.197 C620,154.861 620,185.606 620,217.279 " fill="none" id="AObserver-backto-TriggerSender" style="stroke:#181818;stroke-width:1.0;"/><polygon fill="none" points="620,105.197,614,123.197,626,123.197,620,105.197" style="stroke:#181818;stroke-width:1.0;"/></g><!--link BittiumTriggerSender to TriggerSender--><g id="link_BittiumTriggerSender_TriggerSender"><path codeLine="26" d="M446.225,249.5 C457.878,249.5 451.53,249.5 463.183,249.5 " fill="none" id="BittiumTriggerSender-to-TriggerSender" style="stroke:#181818;stroke-width:1.0;"/><polygon fill="none" points="481.183,249.5,463.183,243.5,463.183,255.5,481.183,249.5" style="stroke:#181818;stroke-width:1.0;"/></g><!--link BittiumTriggerSender to ETrigger--><g id="link_BittiumTriggerSender_ETrigger"><path codeLine="27" d="M247.86,310.026 C253.902,335.979 259.3753,359.4833 264.3913,381.0253 " fill="none" id="BittiumTriggerSender-to-ETrigger" style="stroke:#181818;stroke-width:1.0;stroke-dasharray:7.0,7.0;"/><polygon fill="#181818" points="265.752,386.869,267.6068,377.1964,264.6181,381.9993,259.8152,379.0106,265.752,386.869" style="stroke:#181818;stroke-width:1.0;"/><text fill="#000000" font-family="sans-serif" font-size="13" lengthAdjust="spacing" textLength="30" x="260" y="353.0669">uses</text></g><!--SRC=[bL91QiCm4Bph5KjwIKcS1uHWI4iEEPG6sju2HhOsZgWj6MaLAAd_NjcMqXfyQ7IGsVLePdQaXXUVl4IejS0AhWpyuhabmmk2ekBMmlOrjsWkQCBlRYqkMWfmZU24Sx_nDMpLrnAaG4No9D6iOVVISNxqcFsj_zXpjAnbZ3L17B4Sk56v6dRlHfObcg2sY3LSBN6IHGibKaP3ypvnralxJMb2o3MHha6VRf9hUDQAk5GMwCoXvaqZLUaBVLHqHl2XE5v1q0RlDaTZZyfw0JQLNU1zGoL6-Jtq-LqZkWNF86upKNGJVSNGkiz0_2I9fAj7_9jDlAaqZLh9_i0Dhogi3jeGDA786by5X5GK9yg4CpvYhJ8Rmf_IcOzObXE71xzXod-CrZs7SLI9IxxJtwV7fdn0OZhGg3SDNAtIFtSySnRjx0S0]--></g></svg>