<?xml version="1.0" encoding="us-ascii" standalone="no"?><svg xmlns="http://www.w3.org/2000/svg" xmlns:xlink="http://www.w3.org/1999/xlink" contentStyleType="text/css" height="712px" preserveAspectRatio="none" style="width:1578px;height:712px;background:#FFFFFF;" version="1.1" viewBox="0 0 1578 712" width="1578px" zoomAndPan="magnify"><defs/><g><!--cluster model--><g id="cluster_model"><path d="M1097.5,14.5 L1147.5,14.5 A3.75,3.75 0 0 1 1150,17 L1157,36.7969 L1568.5,36.7969 A2.5,2.5 0 0 1 1571,39.2969 L1571,127 A2.5,2.5 0 0 1 1568.5,129.5 L1097.5,129.5 A2.5,2.5 0 0 1 1095,127 L1095,17 A2.5,2.5 0 0 1 1097.5,14.5 " fill="none" style="stroke:#000000;stroke-width:1.5;"/><line style="stroke:#000000;stroke-width:1.5;" x1="1095" x2="1157" y1="36.7969" y2="36.7969"/><text fill="#000000" font-family="sans-serif" font-size="14" font-weight="bold" lengthAdjust="spacing" textLength="49" x="1099" y="29.4951">model</text></g><!--cluster eeg--><g id="cluster_eeg"><path d="M8.5,6 L37.5,6 A3.75,3.75 0 0 1 40,8.5 L47,28.2969 L1068.5,28.2969 A2.5,2.5 0 0 1 1071,30.7969 L1071,702.5 A2.5,2.5 0 0 1 1068.5,705 L8.5,705 A2.5,2.5 0 0 1 6,702.5 L6,8.5 A2.5,2.5 0 0 1 8.5,6 " fill="none" style="stroke:#000000;stroke-width:1.5;"/><line style="stroke:#000000;stroke-width:1.5;" x1="6" x2="47" y1="28.2969" y2="28.2969"/><text fill="#000000" font-family="sans-serif" font-size="14" font-weight="bold" lengthAdjust="spacing" textLength="28" x="10" y="20.9951">eeg</text></g><!--class AObserver--><g id="elem_AObserver"><rect codeLine="2" fill="#F1F1F1" height="64.2969" id="AObserver" rx="2.5" ry="2.5" style="stroke:#181818;stroke-width:0.5;" width="444" x="1111" y="49.5"/><ellipse cx="1291.25" cy="65.5" fill="#A9DCDF" rx="11" ry="11" style="stroke:#181818;stroke-width:1.0;"/><path d="M1293.3281,67.3125 L1293.7188,68.2969 L1293.3281,68.2969 C1292.875,68.2969 1292.7656,68.3125 1292.6094,68.4219 C1292.3594,68.5781 1292.2031,68.8594 1292.2031,69.1563 C1292.2031,69.4219 1292.3438,69.6719 1292.5625,69.8281 C1292.7031,69.9531 1292.9063,70 1293.3281,70 L1295.6875,70 C1296.0469,70 1296.2656,69.9688 1296.4063,69.875 C1296.6563,69.7344 1296.8125,69.4375 1296.8125,69.1563 C1296.8125,68.875 1296.6719,68.625 1296.4531,68.4688 C1296.2813,68.3281 1296.125,68.2969 1295.6563,68.2969 L1292.2656,60.0938 L1288.5938,60.0938 C1288.1406,60.0938 1288.0156,60.1094 1287.8594,60.2031 C1287.6094,60.375 1287.4531,60.6563 1287.4531,60.9375 C1287.4531,61.2188 1287.5938,61.4688 1287.8125,61.6406 C1287.9844,61.75 1288.1563,61.7813 1288.5938,61.7813 L1289.6719,61.7813 L1287.0313,68.2969 C1286.6094,68.2969 1286.4531,68.3125 1286.2969,68.4219 C1286.0469,68.5781 1285.8906,68.8594 1285.8906,69.1563 C1285.8906,69.7188 1286.2656,70 1287.0156,70 L1289.2813,70 C1289.6406,70 1289.8594,69.9688 1289.9844,69.875 C1290.25,69.7344 1290.3906,69.4375 1290.3906,69.1563 C1290.3906,68.875 1290.2656,68.625 1290.0469,68.4531 C1289.875,68.3281 1289.7344,68.2969 1289.2813,68.2969 L1288.8906,68.2969 L1289.2813,67.3125 L1293.3281,67.3125 Z M1292.625,65.6094 L1289.9531,65.6094 L1291.2969,62.3438 L1292.625,65.6094 Z " fill="#000000"/><text fill="#000000" font-family="sans-serif" font-size="14" font-style="italic" lengthAdjust="spacing" textLength="75" x="1311.75" y="70.3467">AObserver</text><line style="stroke:#181818;stroke-width:0.5;" x1="1112" x2="1554" y1="81.5" y2="81.5"/><line style="stroke:#181818;stroke-width:0.5;" x1="1112" x2="1554" y1="89.5" y2="89.5"/><ellipse cx="1122" cy="103.1484" fill="#84BE84" rx="3" ry="3" style="stroke:#038048;stroke-width:1.0;"/><text fill="#000000" font-family="sans-serif" font-size="14" lengthAdjust="spacing" textLength="418" x="1131" y="106.4951">void update(data: Any, identifier: EModelUpdateIdentifier)</text></g><!--class ETrigger--><g id="elem_ETrigger"><rect codeLine="10" fill="#F1F1F1" height="64.2969" id="ETrigger" rx="2.5" ry="2.5" style="stroke:#181818;stroke-width:0.5;" width="501" x="198.5" y="498"/><ellipse cx="414.25" cy="514" fill="#EB937F" rx="11" ry="11" style="stroke:#181818;stroke-width:1.0;"/><path d="M413.0469,514.875 L414.5,514.875 L414.5,514.9844 C414.5,515.3906 414.5313,515.5469 414.6094,515.7031 C414.7656,515.9531 415.0469,516.1094 415.3438,516.1094 C415.5938,516.1094 415.8594,515.9688 416.0156,515.75 C416.1406,515.5938 416.1719,515.4375 416.1719,514.9844 L416.1719,513.0625 C416.1719,512.9063 416.1719,512.8594 416.1563,512.7031 C416.0938,512.2344 415.7813,511.9219 415.3281,511.9219 C415.0781,511.9219 414.8125,512.0625 414.6406,512.2813 C414.5313,512.4531 414.5,512.6094 414.5,513.0625 L414.5,513.1875 L413.0469,513.1875 L413.0469,510.7813 L417.0313,510.7813 L417.0313,511.6406 C417.0313,512.0469 417.0625,512.2188 417.1406,512.375 C417.3125,512.625 417.5938,512.7813 417.875,512.7813 C418.1406,512.7813 418.4063,512.6406 418.5781,512.4219 C418.6875,512.25 418.7188,512.1094 418.7188,511.6406 L418.7188,509.0938 L411.0938,509.0938 C410.6563,509.0938 410.5313,509.1094 410.375,509.2031 C410.125,509.3594 409.9688,509.6563 409.9688,509.9375 C409.9688,510.2188 410.1094,510.4688 410.3281,510.6406 C410.4844,510.75 410.6719,510.7813 411.0938,510.7813 L411.3438,510.7813 L411.3438,517.2969 L411.0938,517.2969 C410.6875,517.2969 410.5313,517.3125 410.375,517.4219 C410.125,517.5938 409.9688,517.8594 409.9688,518.1563 C409.9688,518.4219 410.1094,518.6719 410.3281,518.8281 C410.4688,518.9531 410.7031,519 411.0938,519 L419.0938,519 L419.0938,516.4219 C419.0938,515.9844 419.0625,515.8438 418.9844,515.6875 C418.8125,515.4375 418.5313,515.2813 418.25,515.2813 C417.9844,515.2813 417.7188,515.3906 417.5469,515.6406 C417.4375,515.7969 417.4063,515.9375 417.4063,516.4219 L417.4063,517.2969 L413.0469,517.2969 L413.0469,514.875 Z " fill="#000000"/><text fill="#000000" font-family="sans-serif" font-size="14" lengthAdjust="spacing" textLength="61" x="434.75" y="518.8467">ETrigger</text><line style="stroke:#181818;stroke-width:0.5;" x1="199.5" x2="698.5" y1="530" y2="530"/><line style="stroke:#181818;stroke-width:0.5;" x1="199.5" x2="698.5" y1="538" y2="538"/><ellipse cx="209.5" cy="551.6484" fill="#84BE84" rx="3" ry="3" style="stroke:#038048;stroke-width:1.0;"/><text fill="#000000" font-family="sans-serif" font-size="14" lengthAdjust="spacing" text-decoration="underline" textLength="475" x="218.5" y="554.9951">ETrigger get_trigger(data: Any, identifier: EModelUpdateIdentifier</text></g><g id="elem_GMN6"><path d="M353,634 L353,689.3984 A0,0 0 0 0 353,689.3984 L545,689.3984 A0,0 0 0 0 545,689.3984 L545,644 L535,634 L453,634 L449,562.018 L445,634 L353,634 A0,0 0 0 0 353,634 " fill="#FEFFDD" style="stroke:#181818;stroke-width:0.5;"/><path d="M535,634 L535,644 L545,644 L535,634 " fill="#FEFFDD" style="stroke:#181818;stroke-width:0.5;"/><text fill="#000000" font-family="sans-serif" font-size="13" lengthAdjust="spacing" textLength="165" x="359" y="651.0669">Contains tha mappings to</text><text fill="#000000" font-family="sans-serif" font-size="13" lengthAdjust="spacing" textLength="171" x="359" y="666.1997">the actual trigger numbers</text><text fill="#000000" font-family="sans-serif" font-size="13" lengthAdjust="spacing" textLength="28" x="359" y="681.3325">sent</text></g><!--class ATriggerSender--><g id="elem_ATriggerSender"><rect codeLine="15" fill="#F1F1F1" height="227.2656" id="ATriggerSender" rx="2.5" ry="2.5" style="stroke:#181818;stroke-width:0.5;" width="423" x="631.5" y="183"/><ellipse cx="782.25" cy="199" fill="#A9DCDF" rx="11" ry="11" style="stroke:#181818;stroke-width:1.0;"/><path d="M784.3281,200.8125 L784.7188,201.7969 L784.3281,201.7969 C783.875,201.7969 783.7656,201.8125 783.6094,201.9219 C783.3594,202.0781 783.2031,202.3594 783.2031,202.6563 C783.2031,202.9219 783.3438,203.1719 783.5625,203.3281 C783.7031,203.4531 783.9063,203.5 784.3281,203.5 L786.6875,203.5 C787.0469,203.5 787.2656,203.4688 787.4063,203.375 C787.6563,203.2344 787.8125,202.9375 787.8125,202.6563 C787.8125,202.375 787.6719,202.125 787.4531,201.9688 C787.2813,201.8281 787.125,201.7969 786.6563,201.7969 L783.2656,193.5938 L779.5938,193.5938 C779.1406,193.5938 779.0156,193.6094 778.8594,193.7031 C778.6094,193.875 778.4531,194.1563 778.4531,194.4375 C778.4531,194.7188 778.5938,194.9688 778.8125,195.1406 C778.9844,195.25 779.1563,195.2813 779.5938,195.2813 L780.6719,195.2813 L778.0313,201.7969 C777.6094,201.7969 777.4531,201.8125 777.2969,201.9219 C777.0469,202.0781 776.8906,202.3594 776.8906,202.6563 C776.8906,203.2188 777.2656,203.5 778.0156,203.5 L780.2813,203.5 C780.6406,203.5 780.8594,203.4688 780.9844,203.375 C781.25,203.2344 781.3906,202.9375 781.3906,202.6563 C781.3906,202.375 781.2656,202.125 781.0469,201.9531 C780.875,201.8281 780.7344,201.7969 780.2813,201.7969 L779.8906,201.7969 L780.2813,200.8125 L784.3281,200.8125 Z M783.625,199.1094 L780.9531,199.1094 L782.2969,195.8438 L783.625,199.1094 Z " fill="#000000"/><text fill="#000000" font-family="sans-serif" font-size="14" font-style="italic" lengthAdjust="spacing" textLength="113" x="802.75" y="203.8467">ATriggerSender</text><line style="stroke:#181818;stroke-width:0.5;" x1="632.5" x2="1053.5" y1="215" y2="215"/><rect fill="none" height="6" style="stroke:#C82930;stroke-width:1.0;" width="6" x="639.5" y="225.6484"/><text fill="#000000" font-family="sans-serif" font-size="14" lengthAdjust="spacing" textLength="149" x="651.5" y="231.9951">Queue trigger_queue</text><rect fill="none" height="6" style="stroke:#C82930;stroke-width:1.0;" width="6" x="639.5" y="241.9453"/><text fill="#000000" font-family="sans-serif" font-size="14" lengthAdjust="spacing" textLength="180" x="651.5" y="248.292">float thread_timout_secs</text><rect fill="none" height="6" style="stroke:#C82930;stroke-width:1.0;" width="6" x="639.5" y="258.2422"/><text fill="#000000" font-family="sans-serif" font-size="14" lengthAdjust="spacing" textLength="102" x="651.5" y="264.5889">thread Thread</text><rect fill="none" height="6" style="stroke:#C82930;stroke-width:1.0;" width="6" x="639.5" y="274.5391"/><text fill="#000000" font-family="sans-serif" font-size="14" lengthAdjust="spacing" textLength="98" x="651.5" y="280.8857">bool exit_flag</text><rect fill="none" height="6" style="stroke:#C82930;stroke-width:1.0;" width="6" x="639.5" y="290.8359"/><text fill="#000000" font-family="sans-serif" font-size="14" lengthAdjust="spacing" textLength="204" x="651.5" y="297.1826">scheduler: trigger_scheduler</text><line style="stroke:#181818;stroke-width:0.5;" x1="632.5" x2="1053.5" y1="304.4844" y2="304.4844"/><ellipse cx="642.5" cy="318.1328" fill="#84BE84" rx="3" ry="3" style="stroke:#038048;stroke-width:1.0;"/><text fill="#000000" font-family="sans-serif" font-size="14" lengthAdjust="spacing" textLength="308" x="651.5" y="321.4795">ATriggerSender(thread_timout_secs: float)</text><rect fill="#F24D5C" height="6" style="stroke:#C82930;stroke-width:1.0;" width="6" x="639.5" y="331.4297"/><text fill="#000000" font-family="sans-serif" font-size="14" lengthAdjust="spacing" textLength="151" x="651.5" y="337.7764">void trigger_worker()</text><rect fill="#F24D5C" height="6" style="stroke:#C82930;stroke-width:1.0;" width="6" x="639.5" y="347.7266"/><text fill="#000000" font-family="sans-serif" font-size="14" lengthAdjust="spacing" textLength="397" x="651.5" y="354.0732">void queue_trigger(trigger: ETrigger, offset_secs: float)</text><polygon fill="#FFFF44" points="642.5,362.0234,646.5,366.0234,642.5,370.0234,638.5,366.0234" style="stroke:#B38D22;stroke-width:1.0;"/><text fill="#000000" font-family="sans-serif" font-size="14" font-style="italic" lengthAdjust="spacing" textLength="251" x="651.5" y="370.3701">void send_trigger(trigger: ETrigger)</text><ellipse cx="642.5" cy="383.3203" fill="#84BE84" rx="3" ry="3" style="stroke:#038048;stroke-width:1.0;"/><text fill="#000000" font-family="sans-serif" font-size="14" lengthAdjust="spacing" textLength="162" x="651.5" y="386.667">ATriggerSender start()</text><ellipse cx="642.5" cy="399.6172" fill="#84BE84" rx="3" ry="3" style="stroke:#038048;stroke-width:1.0;"/><text fill="#000000" font-family="sans-serif" font-size="14" lengthAdjust="spacing" textLength="94" x="651.5" y="402.9639">void __del__()</text></g><g id="elem_GMN10"><path d="M734.5,487 L734.5,572.6641 A0,0 0 0 0 734.5,572.6641 L1039.5,572.6641 A0,0 0 0 0 1039.5,572.6641 L1039.5,497 L1029.5,487 L882.99,487 L864.42,410.198 L874.99,487 L734.5,487 A0,0 0 0 0 734.5,487 " fill="#FEFFDD" style="stroke:#181818;stroke-width:0.5;"/><path d="M1029.5,487 L1029.5,497 L1039.5,497 L1029.5,487 " fill="#FEFFDD" style="stroke:#181818;stroke-width:0.5;"/><text fill="#000000" font-family="sans-serif" font-size="13" lengthAdjust="spacing" textLength="257" x="740.5" y="504.0669">This class uses a context management]</text><text fill="#000000" font-family="sans-serif" font-size="13" lengthAdjust="spacing" textLength="273" x="740.5" y="519.1997">(i.e. the with syntax) to start/stop threads.</text><text fill="#000000" font-family="sans-serif" font-size="13" lengthAdjust="spacing" textLength="284" x="740.5" y="534.3325">Call the start method to enter into a context</text><text fill="#000000" font-family="sans-serif" font-size="13" lengthAdjust="spacing" textLength="234" x="740.5" y="549.4653">which gets automatically cleaned up</text><text fill="#000000" font-family="sans-serif" font-size="13" lengthAdjust="spacing" textLength="131" x="740.5" y="564.5981">(the thread is killed).</text></g><!--class BittiumTriggerSender--><g id="elem_BittiumTriggerSender"><rect codeLine="37" fill="#F1F1F1" height="113.1875" id="BittiumTriggerSender" rx="2.5" ry="2.5" style="stroke:#181818;stroke-width:0.5;" width="574" x="22" y="240"/><ellipse cx="226.25" cy="256" fill="#ADD1B2" rx="11" ry="11" style="stroke:#181818;stroke-width:1.0;"/><path d="M228.5938,251.6719 C227.6563,251.2344 227.0625,251.0938 226.1875,251.0938 C223.5625,251.0938 221.5625,253.1719 221.5625,255.8906 L221.5625,257.0156 C221.5625,259.5938 223.6719,261.4844 226.5625,261.4844 C227.7813,261.4844 228.9375,261.1875 229.6875,260.6406 C230.2656,260.2344 230.5938,259.7813 230.5938,259.3906 C230.5938,258.9375 230.2031,258.5469 229.7344,258.5469 C229.5156,258.5469 229.3125,258.625 229.125,258.8125 C228.6719,259.2969 228.6719,259.2969 228.4844,259.3906 C228.0625,259.6563 227.375,259.7813 226.6094,259.7813 C224.5625,259.7813 223.2656,258.6875 223.2656,256.9844 L223.2656,255.8906 C223.2656,254.1094 224.5156,252.7969 226.25,252.7969 C226.8281,252.7969 227.4375,252.9531 227.9063,253.2031 C228.3906,253.4844 228.5625,253.7031 228.6563,254.1094 C228.7188,254.5156 228.75,254.6406 228.8906,254.7656 C229.0313,254.9063 229.2656,255.0156 229.4844,255.0156 C229.75,255.0156 230.0156,254.875 230.1875,254.6563 C230.2969,254.5 230.3281,254.3125 230.3281,253.8906 L230.3281,252.4688 C230.3281,252.0313 230.3125,251.9063 230.2188,251.75 C230.0625,251.4844 229.7813,251.3438 229.4844,251.3438 C229.1875,251.3438 228.9844,251.4375 228.7656,251.75 L228.5938,251.6719 Z " fill="#000000"/><text fill="#000000" font-family="sans-serif" font-size="14" lengthAdjust="spacing" textLength="157" x="246.75" y="260.8467">BittiumTriggerSender</text><line style="stroke:#181818;stroke-width:0.5;" x1="23" x2="595" y1="272" y2="272"/><rect fill="none" height="6" style="stroke:#C82930;stroke-width:1.0;" width="6" x="30" y="282.6484"/><text fill="#000000" font-family="sans-serif" font-size="14" lengthAdjust="spacing" textLength="183" x="42" y="288.9951">IParallelPort parallel_port</text><rect fill="none" height="6" style="stroke:#C82930;stroke-width:1.0;" width="6" x="30" y="298.9453"/><text fill="#000000" font-family="sans-serif" font-size="14" lengthAdjust="spacing" textLength="155" x="42" y="305.292">int trigger_duration_s</text><line style="stroke:#181818;stroke-width:0.5;" x1="23" x2="595" y1="312.5938" y2="312.5938"/><ellipse cx="33" cy="326.2422" fill="#84BE84" rx="3" ry="3" style="stroke:#038048;stroke-width:1.0;"/><text fill="#000000" font-family="sans-serif" font-size="14" lengthAdjust="spacing" textLength="548" x="42" y="329.5889">BittiumTriggerSender(thread_timout_secs, parallel_port, trigger_duration_s)</text><polygon fill="#FFFF44" points="33,337.5391,37,341.5391,33,345.5391,29,341.5391" style="stroke:#B38D22;stroke-width:1.0;"/><text fill="#000000" font-family="sans-serif" font-size="14" lengthAdjust="spacing" textLength="255" x="42" y="345.8857">void send_trigger(trigger: ETrigger)</text></g><!--class FileTriggerSender--><g id="elem_FileTriggerSender"><rect codeLine="44" fill="#F1F1F1" height="80.5938" id="FileTriggerSender" rx="2.5" ry="2.5" style="stroke:#181818;stroke-width:0.5;" width="390" x="648" y="41"/><ellipse cx="774.75" cy="57" fill="#ADD1B2" rx="11" ry="11" style="stroke:#181818;stroke-width:1.0;"/><path d="M777.0938,52.6719 C776.1563,52.2344 775.5625,52.0938 774.6875,52.0938 C772.0625,52.0938 770.0625,54.1719 770.0625,56.8906 L770.0625,58.0156 C770.0625,60.5938 772.1719,62.4844 775.0625,62.4844 C776.2813,62.4844 777.4375,62.1875 778.1875,61.6406 C778.7656,61.2344 779.0938,60.7813 779.0938,60.3906 C779.0938,59.9375 778.7031,59.5469 778.2344,59.5469 C778.0156,59.5469 777.8125,59.625 777.625,59.8125 C777.1719,60.2969 777.1719,60.2969 776.9844,60.3906 C776.5625,60.6563 775.875,60.7813 775.1094,60.7813 C773.0625,60.7813 771.7656,59.6875 771.7656,57.9844 L771.7656,56.8906 C771.7656,55.1094 773.0156,53.7969 774.75,53.7969 C775.3281,53.7969 775.9375,53.9531 776.4063,54.2031 C776.8906,54.4844 777.0625,54.7031 777.1563,55.1094 C777.2188,55.5156 777.25,55.6406 777.3906,55.7656 C777.5313,55.9063 777.7656,56.0156 777.9844,56.0156 C778.25,56.0156 778.5156,55.875 778.6875,55.6563 C778.7969,55.5 778.8281,55.3125 778.8281,54.8906 L778.8281,53.4688 C778.8281,53.0313 778.8125,52.9063 778.7188,52.75 C778.5625,52.4844 778.2813,52.3438 777.9844,52.3438 C777.6875,52.3438 777.4844,52.4375 777.2656,52.75 L777.0938,52.6719 Z " fill="#000000"/><text fill="#000000" font-family="sans-serif" font-size="14" lengthAdjust="spacing" textLength="128" x="795.25" y="61.8467">FileTriggerSender</text><line style="stroke:#181818;stroke-width:0.5;" x1="649" x2="1037" y1="73" y2="73"/><rect fill="none" height="6" style="stroke:#C82930;stroke-width:1.0;" width="6" x="656" y="83.6484"/><text fill="#000000" font-family="sans-serif" font-size="14" lengthAdjust="spacing" textLength="143" x="668" y="89.9951">PathLike target_file</text><line style="stroke:#181818;stroke-width:0.5;" x1="649" x2="1037" y1="97.2969" y2="97.2969"/><ellipse cx="659" cy="110.9453" fill="#84BE84" rx="3" ry="3" style="stroke:#038048;stroke-width:1.0;"/><text fill="#000000" font-family="sans-serif" font-size="14" lengthAdjust="spacing" textLength="364" x="668" y="114.292">FileTriggerSender(thread_timout_secs, target_file)</text></g><!--reverse link AObserver to ATriggerSender--><g id="link_AObserver_ATriggerSender"><path codeLine="50" d="M1244.982,120.7613 C1190.392,144.4893 1128.72,171.301 1054.67,203.488 " fill="none" id="AObserver-backto-ATriggerSender" style="stroke:#181818;stroke-width:1.0;"/><polygon fill="none" points="1261.49,113.586,1242.5902,115.2587,1247.3738,126.264,1261.49,113.586" style="stroke:#181818;stroke-width:1.0;"/></g><!--link BittiumTriggerSender to ATriggerSender--><g id="link_BittiumTriggerSender_ATriggerSender"><path codeLine="51" d="M596.077,296.5 C607.812,296.5 601.548,296.5 613.283,296.5 " fill="none" id="BittiumTriggerSender-to-ATriggerSender" style="stroke:#181818;stroke-width:1.0;"/><polygon fill="none" points="631.283,296.5,613.283,290.5,613.283,302.5,631.283,296.5" style="stroke:#181818;stroke-width:1.0;"/></g><!--link FileTriggerSender to ATriggerSender--><g id="link_FileTriggerSender_ATriggerSender"><path codeLine="52" d="M843,122.064 C843,139.509 843,142.983 843,164.806 " fill="none" id="FileTriggerSender-to-ATriggerSender" style="stroke:#181818;stroke-width:1.0;"/><polygon fill="none" points="843,182.806,849,164.806,837,164.806,843,182.806" style="stroke:#181818;stroke-width:1.0;"/></g><!--link ATriggerSender to ETrigger--><g id="link_ATriggerSender_ETrigger"><path codeLine="53" d="M651.482,410.029 C596.439,442.37 545.9972,472.0085 507.0182,494.9105 " fill="none" id="ATriggerSender-to-ETrigger" style="stroke:#181818;stroke-width:1.0;stroke-dasharray:7.0,7.0;"/><polygon fill="#181818" points="501.845,497.95,511.6311,496.8396,506.156,495.4171,507.5784,489.942,501.845,497.95" style="stroke:#181818;stroke-width:1.0;"/><text fill="#000000" font-family="sans-serif" font-size="13" lengthAdjust="spacing" textLength="30" x="600" y="453.0669">uses</text></g><!--SRC=[bLHDZzem4BtdLuos5n0VlNDOQRlQIYkrAbNfRQl894DYuTYfFLb0bF_UYUCaV0IfzI5WU-QzD-DdboBPYWoXC2agE4R0GwmTMP4G94eu1q_VrWxjEzgmNO_9kv4fL6Kg24Vy4GjuqeSfo1GroOr4ku2NhpNcJn_psgsFFSOfEaKyoi2Ec3NWgAi2NbPMPXdQG3Tfvt1q94Wc9yYGOceM_uyzyjpyqOOGreR8560s7UK2deqc8RK3oWKKeYobpdXYtZJb2DoLIYW8tC1grsZTctPC40qsBm3_G9rUT73slS8AMwJuTpthDpVA26895aKQaonCHR73nFKHpHwi_4-_l3P60UubnHibidxT9JccbQehR2cxfQW_rakveri12_3InZsoTqABkJDsotdNsxwwxiIexNNRzIaVmSRX7OOF7kBODlO4tEpqFjZuNZN0xh5qfgqnSHopJ-9ur1eJBjtHHQzowSAXLWuT24ZOAhWdTebc4nTiWLzTz4ZESGwrPNQISd07TjL-p3vgL7nqPCfmlcxUPJqBfNoI3u82AJTfdSJON83K_BVZxR9skKpo-awmg8ebrtU4WGwi5eN6-fxskchqu1skPokLmdJSAE0k-Sgz7vfAFqaYMHM39fwzBeLb7bHBmsBBC8bBdeK85jnP8wqi2pCw3YQU364FE6vwYJmT00n7sXZb7znnEglmirGuNDvIKFv5RhbTmjOFpeOZW_IRf47TPtc1beclF3chPdyU-oSs6cpupFgWYyNeLlWi7GYxuflF7yyUkuVQoGz_0G00]--></g></svg>