<?xml version="1.0" encoding="us-ascii" standalone="no"?><svg xmlns="http://www.w3.org/2000/svg" xmlns:xlink="http://www.w3.org/1999/xlink" contentStyleType="text/css" height="426px" preserveAspectRatio="none" style="width:1047px;height:426px;background:#FFFFFF;" version="1.1" viewBox="0 0 1047 426" width="1047px" zoomAndPan="magnify"><defs/><g><!--cluster model--><g id="cluster_model"><path d="M566.5,26.5 L616.5,26.5 A3.75,3.75 0 0 1 619,29 L626,48.7969 L1037.5,48.7969 A2.5,2.5 0 0 1 1040,51.2969 L1040,139 A2.5,2.5 0 0 1 1037.5,141.5 L566.5,141.5 A2.5,2.5 0 0 1 564,139 L564,29 A2.5,2.5 0 0 1 566.5,26.5 " fill="none" style="stroke:#000000;stroke-width:1.5;"/><line style="stroke:#000000;stroke-width:1.5;" x1="564" x2="626" y1="48.7969" y2="48.7969"/><text fill="#000000" font-family="sans-serif" font-size="14" font-weight="bold" lengthAdjust="spacing" textLength="49" x="568" y="41.4951">model</text></g><!--cluster eeg--><g id="cluster_eeg"><path d="M8.5,6 L37.5,6 A3.75,3.75 0 0 1 40,8.5 L47,28.2969 L537.5,28.2969 A2.5,2.5 0 0 1 540,30.7969 L540,416.5 A2.5,2.5 0 0 1 537.5,419 L8.5,419 A2.5,2.5 0 0 1 6,416.5 L6,8.5 A2.5,2.5 0 0 1 8.5,6 " fill="none" style="stroke:#000000;stroke-width:1.5;"/><line style="stroke:#000000;stroke-width:1.5;" x1="6" x2="47" y1="28.2969" y2="28.2969"/><text fill="#000000" font-family="sans-serif" font-size="14" font-weight="bold" lengthAdjust="spacing" textLength="28" x="10" y="20.9951">eeg</text></g><!--class AObserver--><g id="elem_AObserver"><rect codeLine="2" fill="#F1F1F1" height="64.2969" id="AObserver" rx="2.5" ry="2.5" style="stroke:#181818;stroke-width:0.5;" width="444" x="580" y="61.5"/><ellipse cx="760.25" cy="77.5" fill="#A9DCDF" rx="11" ry="11" style="stroke:#181818;stroke-width:1.0;"/><path d="M762.3281,79.3125 L762.7188,80.2969 L762.3281,80.2969 C761.875,80.2969 761.7656,80.3125 761.6094,80.4219 C761.3594,80.5781 761.2031,80.8594 761.2031,81.1563 C761.2031,81.4219 761.3438,81.6719 761.5625,81.8281 C761.7031,81.9531 761.9063,82 762.3281,82 L764.6875,82 C765.0469,82 765.2656,81.9688 765.4063,81.875 C765.6563,81.7344 765.8125,81.4375 765.8125,81.1563 C765.8125,80.875 765.6719,80.625 765.4531,80.4688 C765.2813,80.3281 765.125,80.2969 764.6563,80.2969 L761.2656,72.0938 L757.5938,72.0938 C757.1406,72.0938 757.0156,72.1094 756.8594,72.2031 C756.6094,72.375 756.4531,72.6563 756.4531,72.9375 C756.4531,73.2188 756.5938,73.4688 756.8125,73.6406 C756.9844,73.75 757.1563,73.7813 757.5938,73.7813 L758.6719,73.7813 L756.0313,80.2969 C755.6094,80.2969 755.4531,80.3125 755.2969,80.4219 C755.0469,80.5781 754.8906,80.8594 754.8906,81.1563 C754.8906,81.7188 755.2656,82 756.0156,82 L758.2813,82 C758.6406,82 758.8594,81.9688 758.9844,81.875 C759.25,81.7344 759.3906,81.4375 759.3906,81.1563 C759.3906,80.875 759.2656,80.625 759.0469,80.4531 C758.875,80.3281 758.7344,80.2969 758.2813,80.2969 L757.8906,80.2969 L758.2813,79.3125 L762.3281,79.3125 Z M761.625,77.6094 L758.9531,77.6094 L760.2969,74.3438 L761.625,77.6094 Z " fill="#000000"/><text fill="#000000" font-family="sans-serif" font-size="14" font-style="italic" lengthAdjust="spacing" textLength="75" x="780.75" y="82.3467">AObserver</text><line style="stroke:#181818;stroke-width:0.5;" x1="581" x2="1023" y1="93.5" y2="93.5"/><line style="stroke:#181818;stroke-width:0.5;" x1="581" x2="1023" y1="101.5" y2="101.5"/><ellipse cx="591" cy="115.1484" fill="#84BE84" rx="3" ry="3" style="stroke:#038048;stroke-width:1.0;"/><text fill="#000000" font-family="sans-serif" font-size="14" lengthAdjust="spacing" textLength="418" x="600" y="118.4951">void update(data: Any, identifier: EModelUpdateIdentifier)</text></g><!--class ETrigger--><g id="elem_ETrigger"><rect codeLine="9" fill="#F1F1F1" height="64.2969" id="ETrigger" rx="2.5" ry="2.5" style="stroke:#181818;stroke-width:0.5;" width="501" x="22.5" y="223"/><ellipse cx="238.25" cy="239" fill="#EB937F" rx="11" ry="11" style="stroke:#181818;stroke-width:1.0;"/><path d="M237.0469,239.875 L238.5,239.875 L238.5,239.9844 C238.5,240.3906 238.5313,240.5469 238.6094,240.7031 C238.7656,240.9531 239.0469,241.1094 239.3438,241.1094 C239.5938,241.1094 239.8594,240.9688 240.0156,240.75 C240.1406,240.5938 240.1719,240.4375 240.1719,239.9844 L240.1719,238.0625 C240.1719,237.9063 240.1719,237.8594 240.1563,237.7031 C240.0938,237.2344 239.7813,236.9219 239.3281,236.9219 C239.0781,236.9219 238.8125,237.0625 238.6406,237.2813 C238.5313,237.4531 238.5,237.6094 238.5,238.0625 L238.5,238.1875 L237.0469,238.1875 L237.0469,235.7813 L241.0313,235.7813 L241.0313,236.6406 C241.0313,237.0469 241.0625,237.2188 241.1406,237.375 C241.3125,237.625 241.5938,237.7813 241.875,237.7813 C242.1406,237.7813 242.4063,237.6406 242.5781,237.4219 C242.6875,237.25 242.7188,237.1094 242.7188,236.6406 L242.7188,234.0938 L235.0938,234.0938 C234.6563,234.0938 234.5313,234.1094 234.375,234.2031 C234.125,234.3594 233.9688,234.6563 233.9688,234.9375 C233.9688,235.2188 234.1094,235.4688 234.3281,235.6406 C234.4844,235.75 234.6719,235.7813 235.0938,235.7813 L235.3438,235.7813 L235.3438,242.2969 L235.0938,242.2969 C234.6875,242.2969 234.5313,242.3125 234.375,242.4219 C234.125,242.5938 233.9688,242.8594 233.9688,243.1563 C233.9688,243.4219 234.1094,243.6719 234.3281,243.8281 C234.4688,243.9531 234.7031,244 235.0938,244 L243.0938,244 L243.0938,241.4219 C243.0938,240.9844 243.0625,240.8438 242.9844,240.6875 C242.8125,240.4375 242.5313,240.2813 242.25,240.2813 C241.9844,240.2813 241.7188,240.3906 241.5469,240.6406 C241.4375,240.7969 241.4063,240.9375 241.4063,241.4219 L241.4063,242.2969 L237.0469,242.2969 L237.0469,239.875 Z " fill="#000000"/><text fill="#000000" font-family="sans-serif" font-size="14" lengthAdjust="spacing" textLength="61" x="258.75" y="243.8467">ETrigger</text><line style="stroke:#181818;stroke-width:0.5;" x1="23.5" x2="522.5" y1="255" y2="255"/><line style="stroke:#181818;stroke-width:0.5;" x1="23.5" x2="522.5" y1="263" y2="263"/><ellipse cx="33.5" cy="276.6484" fill="#84BE84" rx="3" ry="3" style="stroke:#038048;stroke-width:1.0;"/><text fill="#000000" font-family="sans-serif" font-size="14" lengthAdjust="spacing" text-decoration="underline" textLength="475" x="42.5" y="279.9951">ETrigger get_trigger(data: Any, identifier: EModelUpdateIdentifier</text></g><g id="elem_GMN6"><path d="M177,348 L177,403.3984 A0,0 0 0 0 177,403.3984 L369,403.3984 A0,0 0 0 0 369,403.3984 L369,358 L359,348 L277,348 L273,287.134 L269,348 L177,348 A0,0 0 0 0 177,348 " fill="#FEFFDD" style="stroke:#181818;stroke-width:0.5;"/><path d="M359,348 L359,358 L369,358 L359,348 " fill="#FEFFDD" style="stroke:#181818;stroke-width:0.5;"/><text fill="#000000" font-family="sans-serif" font-size="13" lengthAdjust="spacing" textLength="165" x="183" y="365.0669">Contains tha mappings to</text><text fill="#000000" font-family="sans-serif" font-size="13" lengthAdjust="spacing" textLength="171" x="183" y="380.1997">the actual trigger numbers</text><text fill="#000000" font-family="sans-serif" font-size="13" lengthAdjust="spacing" textLength="28" x="183" y="395.3325">sent</text></g><!--class BittiumTriggerSender--><g id="elem_BittiumTriggerSender"><rect codeLine="14" fill="#F1F1F1" height="105.1563" id="BittiumTriggerSender" rx="2.5" ry="2.5" style="stroke:#181818;stroke-width:0.5;" width="424" x="61" y="41"/><ellipse cx="190.25" cy="61.1328" fill="#ADD1B2" rx="11" ry="11" style="stroke:#181818;stroke-width:1.0;"/><path d="M192.5938,56.8047 C191.6563,56.3672 191.0625,56.2266 190.1875,56.2266 C187.5625,56.2266 185.5625,58.3047 185.5625,61.0234 L185.5625,62.1484 C185.5625,64.7266 187.6719,66.6172 190.5625,66.6172 C191.7813,66.6172 192.9375,66.3203 193.6875,65.7734 C194.2656,65.3672 194.5938,64.9141 194.5938,64.5234 C194.5938,64.0703 194.2031,63.6797 193.7344,63.6797 C193.5156,63.6797 193.3125,63.7578 193.125,63.9453 C192.6719,64.4297 192.6719,64.4297 192.4844,64.5234 C192.0625,64.7891 191.375,64.9141 190.6094,64.9141 C188.5625,64.9141 187.2656,63.8203 187.2656,62.1172 L187.2656,61.0234 C187.2656,59.2422 188.5156,57.9297 190.25,57.9297 C190.8281,57.9297 191.4375,58.0859 191.9063,58.3359 C192.3906,58.6172 192.5625,58.8359 192.6563,59.2422 C192.7188,59.6484 192.75,59.7734 192.8906,59.8984 C193.0313,60.0391 193.2656,60.1484 193.4844,60.1484 C193.75,60.1484 194.0156,60.0078 194.1875,59.7891 C194.2969,59.6328 194.3281,59.4453 194.3281,59.0234 L194.3281,57.6016 C194.3281,57.1641 194.3125,57.0391 194.2188,56.8828 C194.0625,56.6172 193.7813,56.4766 193.4844,56.4766 C193.1875,56.4766 192.9844,56.5703 192.7656,56.8828 L192.5938,56.8047 Z " fill="#000000"/><text fill="#000000" font-family="sans-serif" font-size="12" font-style="italic" lengthAdjust="spacing" textLength="68" x="255.25" y="57.1387">&#171;Observer&#187;</text><text fill="#000000" font-family="sans-serif" font-size="14" lengthAdjust="spacing" textLength="157" x="210.75" y="72.9639">BittiumTriggerSender</text><line style="stroke:#181818;stroke-width:0.5;" x1="62" x2="484" y1="81.2656" y2="81.2656"/><rect fill="none" height="6" style="stroke:#C82930;stroke-width:1.0;" width="6" x="69" y="91.9141"/><text fill="#000000" font-family="sans-serif" font-size="14" lengthAdjust="spacing" textLength="183" x="81" y="98.2607">IParallelPort parallel_port</text><rect fill="none" height="6" style="stroke:#C82930;stroke-width:1.0;" width="6" x="69" y="108.2109"/><text fill="#000000" font-family="sans-serif" font-size="14" lengthAdjust="spacing" textLength="155" x="81" y="114.5576">int trigger_duration_s</text><line style="stroke:#181818;stroke-width:0.5;" x1="62" x2="484" y1="121.8594" y2="121.8594"/><ellipse cx="72" cy="135.5078" fill="#84BE84" rx="3" ry="3" style="stroke:#038048;stroke-width:1.0;"/><text fill="#000000" font-family="sans-serif" font-size="14" lengthAdjust="spacing" textLength="398" x="81" y="138.8545">BittiumTriggerSender(parallel_port, trigger_duration_s)</text></g><!--link BittiumTriggerSender to AObserver--><g id="link_BittiumTriggerSender_AObserver"><path codeLine="20" d="M485.065,93.5 C516.635,93.5 530.204,93.5 561.774,93.5 " fill="none" id="BittiumTriggerSender-to-AObserver" style="stroke:#181818;stroke-width:1.0;"/><polygon fill="none" points="579.774,93.5,561.774,87.5,561.774,99.5,579.774,93.5" style="stroke:#181818;stroke-width:1.0;"/></g><!--link BittiumTriggerSender to ETrigger--><g id="link_BittiumTriggerSender_ETrigger"><path codeLine="21" d="M273,146.285 C273,171.573 273,195.156 273,216.914 " fill="none" id="BittiumTriggerSender-to-ETrigger" style="stroke:#181818;stroke-width:1.0;stroke-dasharray:7.0,7.0;"/><polygon fill="#181818" points="273,222.914,277,213.914,273,217.914,269,213.914,273,222.914" style="stroke:#181818;stroke-width:1.0;"/><text fill="#000000" font-family="sans-serif" font-size="13" lengthAdjust="spacing" textLength="30" x="274" y="189.0669">uses</text></g><!--SRC=[bP7FQiCm3CRlVWhHKql_F40fWMxqqCDOOTjf7K59rDGqaOsj54QNTv_JEjq6kKm7WMJv-zcVBEOdB0bgKr055mKXCFFYC1V8A_GUri-P9tSc5u-xc9wDBg2n1GgDGy8bhFbp1heW5dtGv9QmUUeqtwupstj_SjLeLQkKiX5ELDwqYPiQDgzEboMvI9lsDLoyeEYyXP8abLlpVt1rHOV4HWWo8s9gC8SxSWcFXWKrUv0ZGetMQYv3OVOiHu9WIeCLH3Q4rsRa_9vz0AXEz-ROWnRHJHr5NuWBSgjLRsEIz4REjpjqM5LKxOmJiB58RQZYX6RfSMdHkF1_mwcFpWnnndzKPWEN9oekOEWwpD_PEEJJXvj_9J-x7nvUB99VteqQJtxq3G00]--></g></svg>