<?xml version="1.0" encoding="us-ascii" standalone="no"?><svg xmlns="http://www.w3.org/2000/svg" xmlns:xlink="http://www.w3.org/1999/xlink" contentStyleType="text/css" height="412px" preserveAspectRatio="none" style="width:1286px;height:412px;background:#FFFFFF;" version="1.1" viewBox="0 0 1286 412" width="1286px" zoomAndPan="magnify"><defs/><g><!--cluster model--><g id="cluster_model"><path d="M8.5,167.5 L58.5,167.5 A3.75,3.75 0 0 1 61,170 L68,189.7969 L703.5,189.7969 A2.5,2.5 0 0 1 706,192.2969 L706,386 A2.5,2.5 0 0 1 703.5,388.5 L8.5,388.5 A2.5,2.5 0 0 1 6,386 L6,170 A2.5,2.5 0 0 1 8.5,167.5 " fill="none" style="stroke:#000000;stroke-width:1.5;"/><line style="stroke:#000000;stroke-width:1.5;" x1="6" x2="68" y1="189.7969" y2="189.7969"/><text fill="#000000" font-family="sans-serif" font-size="14" font-weight="bold" lengthAdjust="spacing" textLength="49" x="10" y="182.4951">model</text></g><!--cluster view--><g id="cluster_view"><path d="M759.5,151 L796.5,151 A3.75,3.75 0 0 1 799,153.5 L806,173.2969 L1276.5,173.2969 A2.5,2.5 0 0 1 1279,175.7969 L1279,402.5 A2.5,2.5 0 0 1 1276.5,405 L759.5,405 A2.5,2.5 0 0 1 757,402.5 L757,153.5 A2.5,2.5 0 0 1 759.5,151 " fill="none" style="stroke:#000000;stroke-width:1.5;"/><line style="stroke:#000000;stroke-width:1.5;" x1="757" x2="806" y1="173.2969" y2="173.2969"/><text fill="#000000" font-family="sans-serif" font-size="14" font-weight="bold" lengthAdjust="spacing" textLength="36" x="761" y="165.9951">view</text></g><!--class Model--><g id="elem_Model"><rect codeLine="2" fill="#F1F1F1" height="170.3438" id="Model" rx="2.5" ry="2.5" style="stroke:#181818;stroke-width:0.5;" width="668" x="22" y="202.5"/><ellipse cx="313.25" cy="222.6328" fill="#ADD1B2" rx="11" ry="11" style="stroke:#181818;stroke-width:1.0;"/><path d="M315.5938,218.3047 C314.6563,217.8672 314.0625,217.7266 313.1875,217.7266 C310.5625,217.7266 308.5625,219.8047 308.5625,222.5234 L308.5625,223.6484 C308.5625,226.2266 310.6719,228.1172 313.5625,228.1172 C314.7813,228.1172 315.9375,227.8203 316.6875,227.2734 C317.2656,226.8672 317.5938,226.4141 317.5938,226.0234 C317.5938,225.5703 317.2031,225.1797 316.7344,225.1797 C316.5156,225.1797 316.3125,225.2578 316.125,225.4453 C315.6719,225.9297 315.6719,225.9297 315.4844,226.0234 C315.0625,226.2891 314.375,226.4141 313.6094,226.4141 C311.5625,226.4141 310.2656,225.3203 310.2656,223.6172 L310.2656,222.5234 C310.2656,220.7422 311.5156,219.4297 313.25,219.4297 C313.8281,219.4297 314.4375,219.5859 314.9063,219.8359 C315.3906,220.1172 315.5625,220.3359 315.6563,220.7422 C315.7188,221.1484 315.75,221.2734 315.8906,221.3984 C316.0313,221.5391 316.2656,221.6484 316.4844,221.6484 C316.75,221.6484 317.0156,221.5078 317.1875,221.2891 C317.2969,221.1328 317.3281,220.9453 317.3281,220.5234 L317.3281,219.1016 C317.3281,218.6641 317.3125,218.5391 317.2188,218.3828 C317.0625,218.1172 316.7813,217.9766 316.4844,217.9766 C316.1875,217.9766 315.9844,218.0703 315.7656,218.3828 L315.5938,218.3047 Z " fill="#000000"/><text fill="#000000" font-family="sans-serif" font-size="12" font-style="italic" lengthAdjust="spacing" textLength="81" x="331.75" y="218.6387">&#171;Observable&#187;</text><text fill="#000000" font-family="sans-serif" font-size="14" lengthAdjust="spacing" textLength="43" x="350.75" y="234.4639">Model</text><line style="stroke:#181818;stroke-width:0.5;" x1="23" x2="689" y1="242.7656" y2="242.7656"/><rect fill="none" height="6" style="stroke:#C82930;stroke-width:1.0;" width="6" x="30" y="253.4141"/><text fill="#000000" font-family="sans-serif" font-size="14" lengthAdjust="spacing" textLength="166" x="42" y="259.7607">List[str] primer_history</text><line style="stroke:#181818;stroke-width:0.5;" x1="23" x2="689" y1="267.0625" y2="267.0625"/><rect fill="#F24D5C" height="6" style="stroke:#C82930;stroke-width:1.0;" width="6" x="30" y="277.7109"/><text fill="#000000" font-family="sans-serif" font-size="14" lengthAdjust="spacing" textLength="642" x="42" y="284.0576">Model(raw_stimuli: List[Stimulus], auditory_stimulus_factories: List[AAudioTaggerFactory])</text><rect fill="#F24D5C" height="6" style="stroke:#C82930;stroke-width:1.0;" width="6" x="30" y="294.0078"/><text fill="#000000" font-family="sans-serif" font-size="14" lengthAdjust="spacing" textLength="410" x="42" y="300.3545">void notify(data: Any, identifier: EModelUpdateIdentifier)</text><ellipse cx="33" cy="313.3047" fill="#84BE84" rx="3" ry="3" style="stroke:#038048;stroke-width:1.0;"/><text fill="#000000" font-family="sans-serif" font-size="14" lengthAdjust="spacing" textLength="218" x="42" y="316.6514">void register(view: AObserver)</text><ellipse cx="33" cy="329.6016" fill="#84BE84" rx="3" ry="3" style="stroke:#038048;stroke-width:1.0;"/><text fill="#000000" font-family="sans-serif" font-size="14" lengthAdjust="spacing" textLength="326" x="42" y="332.9482">void new_stimulus(stimulus: CreatedStimulus)</text><ellipse cx="33" cy="345.8984" fill="#84BE84" rx="3" ry="3" style="stroke:#038048;stroke-width:1.0;"/><text fill="#000000" font-family="sans-serif" font-size="14" lengthAdjust="spacing" textLength="316" x="42" y="349.2451">void new_primer(stimulus: CreatedStimulus)</text><ellipse cx="33" cy="362.1953" fill="#84BE84" rx="3" ry="3" style="stroke:#038048;stroke-width:1.0;"/><text fill="#000000" font-family="sans-serif" font-size="14" lengthAdjust="spacing" textLength="450" x="42" y="365.542">void change_experiment_state(new_state: EExperimentState)</text></g><!--class AView--><g id="elem_AView"><rect codeLine="16" fill="#F1F1F1" height="202.9375" id="AView" rx="2.5" ry="2.5" style="stroke:#181818;stroke-width:0.5;" width="489" x="773.5" y="186"/><ellipse cx="981.75" cy="206.1328" fill="#A9DCDF" rx="11" ry="11" style="stroke:#181818;stroke-width:1.0;"/><path d="M983.8281,207.9453 L984.2188,208.9297 L983.8281,208.9297 C983.375,208.9297 983.2656,208.9453 983.1094,209.0547 C982.8594,209.2109 982.7031,209.4922 982.7031,209.7891 C982.7031,210.0547 982.8438,210.3047 983.0625,210.4609 C983.2031,210.5859 983.4063,210.6328 983.8281,210.6328 L986.1875,210.6328 C986.5469,210.6328 986.7656,210.6016 986.9063,210.5078 C987.1563,210.3672 987.3125,210.0703 987.3125,209.7891 C987.3125,209.5078 987.1719,209.2578 986.9531,209.1016 C986.7813,208.9609 986.625,208.9297 986.1563,208.9297 L982.7656,200.7266 L979.0938,200.7266 C978.6406,200.7266 978.5156,200.7422 978.3594,200.8359 C978.1094,201.0078 977.9531,201.2891 977.9531,201.5703 C977.9531,201.8516 978.0938,202.1016 978.3125,202.2734 C978.4844,202.3828 978.6563,202.4141 979.0938,202.4141 L980.1719,202.4141 L977.5313,208.9297 C977.1094,208.9297 976.9531,208.9453 976.7969,209.0547 C976.5469,209.2109 976.3906,209.4922 976.3906,209.7891 C976.3906,210.3516 976.7656,210.6328 977.5156,210.6328 L979.7813,210.6328 C980.1406,210.6328 980.3594,210.6016 980.4844,210.5078 C980.75,210.3672 980.8906,210.0703 980.8906,209.7891 C980.8906,209.5078 980.7656,209.2578 980.5469,209.0859 C980.375,208.9609 980.2344,208.9297 979.7813,208.9297 L979.3906,208.9297 L979.7813,207.9453 L983.8281,207.9453 Z M983.125,206.2422 L980.4531,206.2422 L981.7969,202.9766 L983.125,206.2422 Z " fill="#000000"/><text fill="#000000" font-family="sans-serif" font-size="12" font-style="italic" lengthAdjust="spacing" textLength="68" x="1000.25" y="202.1387">&#171;Observer&#187;</text><text fill="#000000" font-family="sans-serif" font-size="14" font-style="italic" lengthAdjust="spacing" textLength="44" x="1012.25" y="217.9639">AView</text><line style="stroke:#181818;stroke-width:0.5;" x1="774.5" x2="1261.5" y1="226.2656" y2="226.2656"/><polygon fill="none" points="784.5,234.9141,788.5,238.9141,784.5,242.9141,780.5,238.9141" style="stroke:#B38D22;stroke-width:1.0;"/><text fill="#000000" font-family="sans-serif" font-size="14" lengthAdjust="spacing" textLength="260" x="793.5" y="243.2607">Callable[[Audio], None] sound_player</text><polygon fill="none" points="784.5,251.2109,788.5,255.2109,784.5,259.2109,780.5,255.2109" style="stroke:#B38D22;stroke-width:1.0;"/><text fill="#000000" font-family="sans-serif" font-size="14" lengthAdjust="spacing" textLength="408" x="793.5" y="259.5576">Dict[EExperimentState, Optional[str]] experiment_texts</text><line style="stroke:#181818;stroke-width:0.5;" x1="774.5" x2="1261.5" y1="266.8594" y2="266.8594"/><ellipse cx="784.5" cy="280.5078" fill="#84BE84" rx="3" ry="3" style="stroke:#038048;stroke-width:1.0;"/><text fill="#000000" font-family="sans-serif" font-size="14" lengthAdjust="spacing" textLength="286" x="793.5" y="283.8545">AView(sound_player, experiment_texts)</text><polygon fill="#FFFF44" points="784.5,291.8047,788.5,295.8047,784.5,299.8047,780.5,295.8047" style="stroke:#B38D22;stroke-width:1.0;"/><text fill="#000000" font-family="sans-serif" font-size="14" font-style="italic" lengthAdjust="spacing" textLength="382" x="793.5" y="300.1514">void update_new_stimulus(stimulus: CreatedStimulus)</text><polygon fill="#FFFF44" points="784.5,308.1016,788.5,312.1016,784.5,316.1016,780.5,312.1016" style="stroke:#B38D22;stroke-width:1.0;"/><text fill="#000000" font-family="sans-serif" font-size="14" font-style="italic" lengthAdjust="spacing" textLength="269" x="793.5" y="316.4482">void updated_new_primer(primer: str)</text><polygon fill="#FFFF44" points="784.5,324.3984,788.5,328.3984,784.5,332.3984,780.5,328.3984" style="stroke:#B38D22;stroke-width:1.0;"/><text fill="#000000" font-family="sans-serif" font-size="14" font-style="italic" lengthAdjust="spacing" textLength="463" x="793.5" y="332.7451">void update_experiment_state_changed(data: EExperimentState)</text><ellipse cx="784.5" cy="345.6953" fill="#84BE84" rx="3" ry="3" style="stroke:#038048;stroke-width:1.0;"/><text fill="#000000" font-family="sans-serif" font-size="14" lengthAdjust="spacing" textLength="413" x="793.5" y="349.042">void update(data: Any, identifier: EModelUpdateIdentifier</text><ellipse cx="784.5" cy="361.9922" fill="#84BE84" rx="3" ry="3" style="stroke:#038048;stroke-width:1.0;"/><text fill="#000000" font-family="sans-serif" font-size="14" font-style="italic" lengthAdjust="spacing" textLength="166" x="793.5" y="365.3389">bool get_confirmation()</text><ellipse cx="784.5" cy="378.2891" fill="#84BE84" rx="3" ry="3" style="stroke:#038048;stroke-width:1.0;"/><text fill="#000000" font-family="sans-serif" font-size="14" font-style="italic" lengthAdjust="spacing" textLength="131" x="793.5" y="381.6357">void wait(secs: int)</text></g><!--class Experiment--><g id="elem_Experiment"><rect codeLine="30" fill="#F1F1F1" height="96.8906" id="Experiment" rx="2.5" ry="2.5" style="stroke:#181818;stroke-width:0.5;" width="876" x="326" y="7"/><ellipse cx="717.25" cy="23" fill="#ADD1B2" rx="11" ry="11" style="stroke:#181818;stroke-width:1.0;"/><path d="M719.5938,18.6719 C718.6563,18.2344 718.0625,18.0938 717.1875,18.0938 C714.5625,18.0938 712.5625,20.1719 712.5625,22.8906 L712.5625,24.0156 C712.5625,26.5938 714.6719,28.4844 717.5625,28.4844 C718.7813,28.4844 719.9375,28.1875 720.6875,27.6406 C721.2656,27.2344 721.5938,26.7813 721.5938,26.3906 C721.5938,25.9375 721.2031,25.5469 720.7344,25.5469 C720.5156,25.5469 720.3125,25.625 720.125,25.8125 C719.6719,26.2969 719.6719,26.2969 719.4844,26.3906 C719.0625,26.6563 718.375,26.7813 717.6094,26.7813 C715.5625,26.7813 714.2656,25.6875 714.2656,23.9844 L714.2656,22.8906 C714.2656,21.1094 715.5156,19.7969 717.25,19.7969 C717.8281,19.7969 718.4375,19.9531 718.9063,20.2031 C719.3906,20.4844 719.5625,20.7031 719.6563,21.1094 C719.7188,21.5156 719.75,21.6406 719.8906,21.7656 C720.0313,21.9063 720.2656,22.0156 720.4844,22.0156 C720.75,22.0156 721.0156,21.875 721.1875,21.6563 C721.2969,21.5 721.3281,21.3125 721.3281,20.8906 L721.3281,19.4688 C721.3281,19.0313 721.3125,18.9063 721.2188,18.75 C721.0625,18.4844 720.7813,18.3438 720.4844,18.3438 C720.1875,18.3438 719.9844,18.4375 719.7656,18.75 L719.5938,18.6719 Z " fill="#000000"/><text fill="#000000" font-family="sans-serif" font-size="14" lengthAdjust="spacing" textLength="85" x="737.75" y="27.8467">Experiment</text><line style="stroke:#181818;stroke-width:0.5;" x1="327" x2="1201" y1="39" y2="39"/><line style="stroke:#181818;stroke-width:0.5;" x1="327" x2="1201" y1="47" y2="47"/><ellipse cx="337" cy="60.6484" fill="#84BE84" rx="3" ry="3" style="stroke:#038048;stroke-width:1.0;"/><text fill="#000000" font-family="sans-serif" font-size="14" lengthAdjust="spacing" textLength="850" x="346" y="63.9951">Experiment(model: Model, view: AView, stimuli: List[Stimulus], auditory_stimulus_factories: List[AAudioTaggerFactory])</text><ellipse cx="337" cy="76.9453" fill="#84BE84" rx="3" ry="3" style="stroke:#038048;stroke-width:1.0;"/><text fill="#000000" font-family="sans-serif" font-size="14" lengthAdjust="spacing" textLength="146" x="346" y="80.292">void create_stimuli()</text><ellipse cx="337" cy="93.2422" fill="#84BE84" rx="3" ry="3" style="stroke:#038048;stroke-width:1.0;"/><text fill="#000000" font-family="sans-serif" font-size="14" lengthAdjust="spacing" textLength="67" x="346" y="96.5889">void run()</text></g><!--reverse link Experiment to Model--><g id="link_Experiment_Model"><path codeLine="35" d="M669.0085,110.0488 C618.7085,138.4038 563.902,169.301 505.185,202.401 " fill="none" id="Experiment-backto-Model" style="stroke:#181818;stroke-width:1.0;"/><polygon fill="#181818" points="679.462,104.156,672.271,103.6179,669.0085,110.0488,676.1995,110.5869,679.462,104.156" style="stroke:#181818;stroke-width:1.0;"/><text fill="#000000" font-family="sans-serif" font-size="13" lengthAdjust="spacing" textLength="8" x="659.5647" y="123.7851">1</text><text fill="#000000" font-family="sans-serif" font-size="13" lengthAdjust="spacing" textLength="8" x="509.6618" y="191.5011">1</text></g><!--reverse link Experiment to AView--><g id="link_Experiment_AView"><path codeLine="36" d="M825.5242,112.2105 C851.6802,135.8945 875.438,157.409 906.788,185.796 " fill="none" id="Experiment-backto-AView" style="stroke:#181818;stroke-width:1.0;"/><polygon fill="#181818" points="816.629,104.156,818.3918,111.1483,825.5242,112.2105,823.7614,105.2182,816.629,104.156" style="stroke:#181818;stroke-width:1.0;"/><text fill="#000000" font-family="sans-serif" font-size="13" lengthAdjust="spacing" textLength="8" x="815.1635" y="123.7851">1</text><text fill="#000000" font-family="sans-serif" font-size="13" lengthAdjust="spacing" textLength="8" x="890.3271" y="174.8504">1</text></g><!--link Model to AView--><g id="link_Model_AView"><path codeLine="38" d="M690.394,287.5 C718.323,287.5 740.219,287.5 767.287,287.5 " fill="none" id="Model-to-AView" style="stroke:#181818;stroke-width:1.0;stroke-dasharray:7.0,7.0;"/><polygon fill="#181818" points="773.287,287.5,764.287,283.5,768.287,287.5,764.287,291.5,773.287,287.5" style="stroke:#181818;stroke-width:1.0;"/><text fill="#000000" font-family="sans-serif" font-size="13" lengthAdjust="spacing" textLength="47" x="708.25" y="280.5669">notifies</text></g><!--SRC=[jLHHQzim47xthpZQ5srn2dirnH2w3WRR-j1jBy4OnRwuOeva93cfAVdlEqjoPDAMhWyp0Jjttvs-k-zq7Q_-y0PXfsfiuIa1UggM6mFVdUNw-cvZKE_vfiKyz_xnMNuJngwDrGLqMknGbmzaK7f88iHbO9eVIcF5hcz51YxgtlthJP42xsinHWL4RyejhyWWq0JmQaKGzPCt3UelpZSK7-8PUoLgaCgAxS1gRda6Apca86gKP1EeCxXrF7vrvCQl9tlCiN0vD3Pq76gs5tYWBBxivpY9XnDPDdraSAEHqjTJQIz5-JxzUqprm6M39JvsE4PAI-SIdda6z4MbtPwSzwF5fpWc2VsweEnOJn2MRqWmwc5GUFMRN9F0gFCSehwNDxnjHz7NQoS0QVL3IIp0g5xMPTVo0NL4VnQLNP-pIU6kiq99thf1AM1MYiL7Q-AiB1mNDa-UFeF71bsw1ZrDzHoXT-gMxnNdbJnrETFBlp8WoDi4piKglOXrcCsNzOgI-opl6-IOOgDKE-VKe2qh9RT2x_Ye0pi_ReOzS66PmOgw9QITveZ6o8zAv1rcP14jpEsEp2-C5CBz6VLCuRzS_70zdAZJQc5pb-x7Me_9ZFN5fmluk5owjoFwcjCHJnA__QxqLUujcLyoHEyl]--></g></svg>