<?xml version="1.0" encoding="us-ascii" standalone="no"?><svg xmlns="http://www.w3.org/2000/svg" xmlns:xlink="http://www.w3.org/1999/xlink" contentStyleType="text/css" height="1810px" preserveAspectRatio="none" style="width:599px;height:1810px;background:#FFFFFF;" version="1.1" viewBox="0 0 599 1810" width="599px" zoomAndPan="magnify"><defs/><g><rect fill="none" height="20.9531" style="stroke:none;stroke-width:1.0;" width="566" x="15" y="12.7451"/><path d="M20,38.6982 L20,78.9639 L257,78.9639 L257,48.6982 L247,38.6982 L20,38.6982 " fill="#FEFFDD" style="stroke:#181818;stroke-width:0.5;"/><path d="M247,38.6982 L247,48.6982 L257,48.6982 L247,38.6982 " fill="#FEFFDD" style="stroke:#181818;stroke-width:0.5;"/><text fill="#000000" font-family="sans-serif" font-size="13" lengthAdjust="spacing" textLength="210" x="26" y="55.7651">LightBlue -&gt; operations on Model</text><text fill="#000000" font-family="sans-serif" font-size="13" lengthAdjust="spacing" textLength="216" x="26" y="70.8979">LightGreen -&gt; operations on View</text><ellipse cx="287" cy="58.8311" fill="#222222" rx="10" ry="10" style="stroke:#222222;stroke-width:1.0;"/><rect fill="#ADD8E6" height="33.9688" rx="12.5" ry="12.5" style="stroke:#181818;stroke-width:0.5;" width="113" x="230.5" y="98.9639"/><text fill="#000000" font-family="sans-serif" font-size="12" lengthAdjust="spacing" textLength="93" x="240.5" y="120.1025">create_stimuli()</text><rect fill="#ADD8E6" height="33.9688" rx="12.5" ry="12.5" style="stroke:#181818;stroke-width:0.5;" width="109" x="232.5" y="152.9326"/><text fill="#000000" font-family="sans-serif" font-size="12" lengthAdjust="spacing" textLength="89" x="242.5" y="174.0713">INTRODUCTION</text><rect fill="#ADD8E6" height="33.9688" rx="12.5" ry="12.5" style="stroke:#181818;stroke-width:0.5;" width="279" x="147.5" y="260.8701"/><text fill="#000000" font-family="sans-serif" font-size="12" lengthAdjust="spacing" textLength="259" x="157.5" y="282.0088">RESTING_STATE_EYES_OPEN_INTRODUCTION</text><rect fill="#ADD8E6" height="33.9688" rx="12.5" ry="12.5" style="stroke:#181818;stroke-width:0.5;" width="184" x="195" y="368.8076"/><text fill="#000000" font-family="sans-serif" font-size="12" lengthAdjust="spacing" textLength="164" x="205" y="389.9463">RESTING_STATE_EYES_OPEN</text><rect fill="#90EE90" height="33.9688" rx="12.5" ry="12.5" style="stroke:#181818;stroke-width:0.5;" width="183" x="195.5" y="422.7764"/><text fill="#000000" font-family="sans-serif" font-size="12" lengthAdjust="spacing" textLength="163" x="205.5" y="443.915">wait(RESTING_STATE_SECS)</text><rect fill="#ADD8E6" height="33.9688" rx="12.5" ry="12.5" style="stroke:#181818;stroke-width:0.5;" width="296" x="139" y="476.7451"/><text fill="#000000" font-family="sans-serif" font-size="12" lengthAdjust="spacing" textLength="276" x="149" y="497.8838">RESTING_STATE_EYES_CLOSED_INTRODUCTION</text><rect fill="#ADD8E6" height="33.9688" rx="12.5" ry="12.5" style="stroke:#181818;stroke-width:0.5;" width="201" x="186.5" y="584.6826"/><text fill="#000000" font-family="sans-serif" font-size="12" lengthAdjust="spacing" textLength="181" x="196.5" y="605.8213">RESTING_STATE_EYES_CLOSED</text><rect fill="#90EE90" height="33.9688" rx="12.5" ry="12.5" style="stroke:#181818;stroke-width:0.5;" width="183" x="195.5" y="638.6514"/><text fill="#000000" font-family="sans-serif" font-size="12" lengthAdjust="spacing" textLength="163" x="205.5" y="659.79">wait(RESTING_STATE_SECS)</text><rect fill="#ADD8E6" height="33.9688" rx="12.5" ry="12.5" style="stroke:#181818;stroke-width:0.5;" width="185" x="194.5" y="692.6201"/><text fill="#000000" font-family="sans-serif" font-size="12" lengthAdjust="spacing" textLength="165" x="204.5" y="713.7588">EXPERIMENT_INTRODUCTION</text><rect fill="#F1F1F1" height="33.9688" rx="12.5" ry="12.5" style="stroke:#181818;stroke-width:0.5;" width="178" x="198" y="844.5576"/><text fill="#000000" font-family="sans-serif" font-size="12" lengthAdjust="spacing" textLength="158" x="208" y="865.6963">stimulus = next_stimulus()</text><rect fill="#ADD8E6" height="33.9688" rx="12.5" ry="12.5" style="stroke:#181818;stroke-width:0.5;" width="90" x="242" y="898.5264"/><text fill="#000000" font-family="sans-serif" font-size="12" lengthAdjust="spacing" textLength="70" x="252" y="919.665">EXPERIMENT</text><rect fill="#ADD8E6" height="33.9688" rx="12.5" ry="12.5" style="stroke:#181818;stroke-width:0.5;" width="223" x="175.5" y="952.4951"/><text fill="#000000" font-family="sans-serif" font-size="12" lengthAdjust="spacing" textLength="203" x="185.5" y="973.6338">presente_primer(stimulus.primer)</text><rect fill="#90EE90" height="33.9688" rx="12.5" ry="12.5" style="stroke:#181818;stroke-width:0.5;" width="131" x="221.5" y="1006.4639"/><text fill="#000000" font-family="sans-serif" font-size="12" lengthAdjust="spacing" textLength="111" x="231.5" y="1027.6025">wait(PRIMER_SECS)</text><rect fill="#ADD8E6" height="33.9688" rx="12.5" ry="12.5" style="stroke:#181818;stroke-width:0.5;" width="181" x="196.5" y="1105.5303"/><text fill="#000000" font-family="sans-serif" font-size="12" lengthAdjust="spacing" textLength="161" x="206.5" y="1126.6689">present_stimulus(stimulus)</text><polygon fill="#F1F1F1" points="287,1060.4326,299,1072.4326,287,1084.4326,275,1072.4326,287,1060.4326" style="stroke:#181818;stroke-width:0.5;"/><polygon fill="#F1F1F1" points="241.5,1159.499,332.5,1159.499,344.5,1171.499,332.5,1183.499,241.5,1183.499,229.5,1171.499,241.5,1159.499" style="stroke:#181818;stroke-width:0.5;"/><text fill="#000000" font-family="sans-serif" font-size="11" lengthAdjust="spacing" textLength="91" x="241.5" y="1175.3071">next repetition?</text><text fill="#000000" font-family="sans-serif" font-size="11" lengthAdjust="spacing" textLength="21" x="344.5" y="1168.9048">yes</text><rect fill="#ADD8E6" height="33.9688" rx="12.5" ry="12.5" style="stroke:#181818;stroke-width:0.5;" width="58" x="258" y="1224.8979"/><text fill="#000000" font-family="sans-serif" font-size="12" lengthAdjust="spacing" textLength="38" x="268" y="1246.0366">BREAK</text><rect fill="#90EE90" height="33.9688" rx="12.5" ry="12.5" style="stroke:#181818;stroke-width:0.5;" width="129" x="222.5" y="1278.8667"/><text fill="#000000" font-family="sans-serif" font-size="12" lengthAdjust="spacing" textLength="109" x="232.5" y="1300.0054">wait(BREAK_SECS)</text><polygon fill="#F1F1F1" points="287,800.5576,299,812.5576,287,824.5576,275,812.5576,287,800.5576" style="stroke:#181818;stroke-width:0.5;"/><polygon fill="#F1F1F1" points="245.5,1386.8042,328.5,1386.8042,340.5,1398.8042,328.5,1410.8042,245.5,1410.8042,233.5,1398.8042,245.5,1386.8042" style="stroke:#181818;stroke-width:0.5;"/><text fill="#000000" font-family="sans-serif" font-size="11" lengthAdjust="spacing" textLength="83" x="245.5" y="1402.6123">next stimulus?</text><text fill="#000000" font-family="sans-serif" font-size="11" lengthAdjust="spacing" textLength="21" x="340.5" y="1396.21">yes</text><rect fill="#ADD8E6" height="33.9688" rx="12.5" ry="12.5" style="stroke:#181818;stroke-width:0.5;" width="279" x="147.5" y="1452.2031"/><text fill="#000000" font-family="sans-serif" font-size="12" lengthAdjust="spacing" textLength="259" x="157.5" y="1473.3418">RESTING_STATE_EYES_OPEN_INTRODUCTION</text><rect fill="#ADD8E6" height="33.9688" rx="12.5" ry="12.5" style="stroke:#181818;stroke-width:0.5;" width="184" x="195" y="1560.1406"/><text fill="#000000" font-family="sans-serif" font-size="12" lengthAdjust="spacing" textLength="164" x="205" y="1581.2793">RESTING_STATE_EYES_OPEN</text><rect fill="#90EE90" height="33.9688" rx="12.5" ry="12.5" style="stroke:#181818;stroke-width:0.5;" width="183" x="195.5" y="1614.1094"/><text fill="#000000" font-family="sans-serif" font-size="12" lengthAdjust="spacing" textLength="163" x="205.5" y="1635.248">wait(RESTING_STATE_SECS)</text><rect fill="#ADD8E6" height="33.9688" rx="12.5" ry="12.5" style="stroke:#181818;stroke-width:0.5;" width="296" x="139" y="1668.0781"/><text fill="#000000" font-family="sans-serif" font-size="12" lengthAdjust="spacing" textLength="276" x="149" y="1689.2168">RESTING_STATE_EYES_CLOSED_INTRODUCTION</text><line style="stroke:#000000;stroke-width:1.5;" x1="15" x2="15" y1="12.7451" y2="1798.0156"/><rect fill="#90EE90" height="33.9688" rx="12.5" ry="12.5" style="stroke:#181818;stroke-width:0.5;" width="130" x="445" y="206.9014"/><text fill="#000000" font-family="sans-serif" font-size="12" lengthAdjust="spacing" textLength="110" x="455" y="228.04">get_confirmation()</text><rect fill="#90EE90" height="33.9688" rx="12.5" ry="12.5" style="stroke:#181818;stroke-width:0.5;" width="130" x="445" y="314.8389"/><text fill="#000000" font-family="sans-serif" font-size="12" lengthAdjust="spacing" textLength="110" x="455" y="335.9775">get_confirmation()</text><rect fill="#90EE90" height="33.9688" rx="12.5" ry="12.5" style="stroke:#181818;stroke-width:0.5;" width="130" x="445" y="530.7139"/><text fill="#000000" font-family="sans-serif" font-size="12" lengthAdjust="spacing" textLength="110" x="455" y="551.8525">get_confirmation()</text><rect fill="#90EE90" height="33.9688" rx="12.5" ry="12.5" style="stroke:#181818;stroke-width:0.5;" width="130" x="445" y="746.5889"/><text fill="#000000" font-family="sans-serif" font-size="12" lengthAdjust="spacing" textLength="110" x="455" y="767.7275">get_confirmation()</text><rect fill="#90EE90" height="33.9688" rx="12.5" ry="12.5" style="stroke:#181818;stroke-width:0.5;" width="130" x="445" y="1332.8354"/><text fill="#000000" font-family="sans-serif" font-size="12" lengthAdjust="spacing" textLength="110" x="455" y="1353.9741">get_confirmation()</text><rect fill="#90EE90" height="33.9688" rx="12.5" ry="12.5" style="stroke:#181818;stroke-width:0.5;" width="130" x="445" y="1506.1719"/><text fill="#000000" font-family="sans-serif" font-size="12" lengthAdjust="spacing" textLength="110" x="455" y="1527.3105">get_confirmation()</text><rect fill="#90EE90" height="33.9688" rx="12.5" ry="12.5" style="stroke:#181818;stroke-width:0.5;" width="130" x="445" y="1722.0469"/><text fill="#000000" font-family="sans-serif" font-size="12" lengthAdjust="spacing" textLength="110" x="455" y="1743.1855">get_confirmation()</text><ellipse cx="510" cy="1787.0156" fill="none" rx="11" ry="11" style="stroke:#222222;stroke-width:1.0;"/><ellipse cx="510" cy="1787.0156" fill="#222222" rx="6" ry="6" style="stroke:#222222;stroke-width:1.0;"/><line style="stroke:#000000;stroke-width:1.5;" x1="439" x2="439" y1="12.7451" y2="1798.0156"/><line style="stroke:#000000;stroke-width:1.5;" x1="579" x2="579" y1="12.7451" y2="1798.0156"/><line style="stroke:#181818;stroke-width:1.0;" x1="287" x2="287" y1="68.8311" y2="98.9639"/><polygon fill="#181818" points="283,88.9639,287,98.9639,291,88.9639,287,92.9639" style="stroke:#181818;stroke-width:1.0;"/><line style="stroke:#181818;stroke-width:1.0;" x1="287" x2="287" y1="132.9326" y2="152.9326"/><polygon fill="#181818" points="283,142.9326,287,152.9326,291,142.9326,287,146.9326" style="stroke:#181818;stroke-width:1.0;"/><line style="stroke:#181818;stroke-width:1.0;" x1="287" x2="287" y1="402.7764" y2="422.7764"/><polygon fill="#181818" points="283,412.7764,287,422.7764,291,412.7764,287,416.7764" style="stroke:#181818;stroke-width:1.0;"/><line style="stroke:#181818;stroke-width:1.0;" x1="287" x2="287" y1="456.7451" y2="476.7451"/><polygon fill="#181818" points="283,466.7451,287,476.7451,291,466.7451,287,470.7451" style="stroke:#181818;stroke-width:1.0;"/><line style="stroke:#181818;stroke-width:1.0;" x1="287" x2="287" y1="618.6514" y2="638.6514"/><polygon fill="#181818" points="283,628.6514,287,638.6514,291,628.6514,287,632.6514" style="stroke:#181818;stroke-width:1.0;"/><line style="stroke:#181818;stroke-width:1.0;" x1="287" x2="287" y1="672.6201" y2="692.6201"/><polygon fill="#181818" points="283,682.6201,287,692.6201,291,682.6201,287,686.6201" style="stroke:#181818;stroke-width:1.0;"/><line style="stroke:#181818;stroke-width:1.0;" x1="287" x2="287" y1="878.5264" y2="898.5264"/><polygon fill="#181818" points="283,888.5264,287,898.5264,291,888.5264,287,892.5264" style="stroke:#181818;stroke-width:1.0;"/><line style="stroke:#181818;stroke-width:1.0;" x1="287" x2="287" y1="932.4951" y2="952.4951"/><polygon fill="#181818" points="283,942.4951,287,952.4951,291,942.4951,287,946.4951" style="stroke:#181818;stroke-width:1.0;"/><line style="stroke:#181818;stroke-width:1.0;" x1="287" x2="287" y1="986.4639" y2="1006.4639"/><polygon fill="#181818" points="283,996.4639,287,1006.4639,291,996.4639,287,1000.4639" style="stroke:#181818;stroke-width:1.0;"/><line style="stroke:#181818;stroke-width:1.0;" x1="287" x2="287" y1="1084.4326" y2="1105.5303"/><polygon fill="#181818" points="283,1095.5303,287,1105.5303,291,1095.5303,287,1099.5303" style="stroke:#181818;stroke-width:1.0;"/><line style="stroke:#181818;stroke-width:1.0;" x1="344.5" x2="389.5" y1="1171.499" y2="1171.499"/><polygon fill="#181818" points="385.5,1132.5146,389.5,1122.5146,393.5,1132.5146,389.5,1128.5146" style="stroke:#181818;stroke-width:1.0;"/><line style="stroke:#181818;stroke-width:1.0;" x1="389.5" x2="389.5" y1="1072.4326" y2="1171.499"/><line style="stroke:#181818;stroke-width:1.0;" x1="389.5" x2="299" y1="1072.4326" y2="1072.4326"/><polygon fill="#181818" points="309,1068.4326,299,1072.4326,309,1076.4326,305,1072.4326" style="stroke:#181818;stroke-width:1.0;"/><line style="stroke:#181818;stroke-width:1.0;" x1="287" x2="287" y1="1139.499" y2="1159.499"/><polygon fill="#181818" points="283,1149.499,287,1159.499,291,1149.499,287,1153.499" style="stroke:#181818;stroke-width:1.0;"/><line style="stroke:#181818;stroke-width:1.0;" x1="287" x2="287" y1="1040.4326" y2="1060.4326"/><polygon fill="#181818" points="283,1050.4326,287,1060.4326,291,1050.4326,287,1054.4326" style="stroke:#181818;stroke-width:1.0;"/><line style="stroke:#181818;stroke-width:1.0;" x1="287" x2="287" y1="1183.499" y2="1224.8979"/><polygon fill="#181818" points="283,1214.8979,287,1224.8979,291,1214.8979,287,1218.8979" style="stroke:#181818;stroke-width:1.0;"/><text fill="#000000" font-family="sans-serif" font-size="11" lengthAdjust="spacing" textLength="14" x="291" y="1204.8037">no</text><line style="stroke:#181818;stroke-width:1.0;" x1="287" x2="287" y1="1258.8667" y2="1278.8667"/><polygon fill="#181818" points="283,1268.8667,287,1278.8667,291,1268.8667,287,1272.8667" style="stroke:#181818;stroke-width:1.0;"/><line style="stroke:#181818;stroke-width:1.0;" x1="287" x2="287" y1="824.5576" y2="844.5576"/><polygon fill="#181818" points="283,834.5576,287,844.5576,291,834.5576,287,838.5576" style="stroke:#181818;stroke-width:1.0;"/><line style="stroke:#181818;stroke-width:1.0;" x1="233.5" x2="163.5" y1="1398.8042" y2="1398.8042"/><polygon fill="#181818" points="159.5,1104.4326,163.5,1094.4326,167.5,1104.4326,163.5,1100.4326" style="stroke:#181818;stroke-width:1.0;"/><line style="stroke:#181818;stroke-width:1.0;" x1="163.5" x2="163.5" y1="812.5576" y2="1398.8042"/><line style="stroke:#181818;stroke-width:1.0;" x1="163.5" x2="275" y1="812.5576" y2="812.5576"/><polygon fill="#181818" points="265,808.5576,275,812.5576,265,816.5576,269,812.5576" style="stroke:#181818;stroke-width:1.0;"/><line style="stroke:#181818;stroke-width:1.0;" x1="287" x2="287" y1="1410.8042" y2="1452.2031"/><polygon fill="#181818" points="283,1442.2031,287,1452.2031,291,1442.2031,287,1446.2031" style="stroke:#181818;stroke-width:1.0;"/><text fill="#000000" font-family="sans-serif" font-size="11" lengthAdjust="spacing" textLength="14" x="291" y="1432.1089">no</text><line style="stroke:#181818;stroke-width:1.0;" x1="287" x2="287" y1="1594.1094" y2="1614.1094"/><polygon fill="#181818" points="283,1604.1094,287,1614.1094,291,1604.1094,287,1608.1094" style="stroke:#181818;stroke-width:1.0;"/><line style="stroke:#181818;stroke-width:1.0;" x1="287" x2="287" y1="1648.0781" y2="1668.0781"/><polygon fill="#181818" points="283,1658.0781,287,1668.0781,291,1658.0781,287,1662.0781" style="stroke:#181818;stroke-width:1.0;"/><line style="stroke:#181818;stroke-width:1.0;" x1="510" x2="510" y1="1756.0156" y2="1776.0156"/><polygon fill="#181818" points="506,1766.0156,510,1776.0156,514,1766.0156,510,1770.0156" style="stroke:#181818;stroke-width:1.0;"/><line style="stroke:#181818;stroke-width:1.0;" x1="287" x2="287" y1="186.9014" y2="191.9014"/><line style="stroke:#181818;stroke-width:1.0;" x1="287" x2="510" y1="191.9014" y2="191.9014"/><line style="stroke:#181818;stroke-width:1.0;" x1="510" x2="510" y1="191.9014" y2="206.9014"/><polygon fill="#181818" points="506,196.9014,510,206.9014,514,196.9014,510,200.9014" style="stroke:#181818;stroke-width:1.0;"/><line style="stroke:#181818;stroke-width:1.0;" x1="510" x2="510" y1="240.8701" y2="245.8701"/><line style="stroke:#181818;stroke-width:1.0;" x1="510" x2="287" y1="245.8701" y2="245.8701"/><line style="stroke:#181818;stroke-width:1.0;" x1="287" x2="287" y1="245.8701" y2="260.8701"/><polygon fill="#181818" points="283,250.8701,287,260.8701,291,250.8701,287,254.8701" style="stroke:#181818;stroke-width:1.0;"/><line style="stroke:#181818;stroke-width:1.0;" x1="287" x2="287" y1="294.8389" y2="299.8389"/><line style="stroke:#181818;stroke-width:1.0;" x1="287" x2="510" y1="299.8389" y2="299.8389"/><line style="stroke:#181818;stroke-width:1.0;" x1="510" x2="510" y1="299.8389" y2="314.8389"/><polygon fill="#181818" points="506,304.8389,510,314.8389,514,304.8389,510,308.8389" style="stroke:#181818;stroke-width:1.0;"/><line style="stroke:#181818;stroke-width:1.0;" x1="510" x2="510" y1="348.8076" y2="353.8076"/><line style="stroke:#181818;stroke-width:1.0;" x1="510" x2="287" y1="353.8076" y2="353.8076"/><line style="stroke:#181818;stroke-width:1.0;" x1="287" x2="287" y1="353.8076" y2="368.8076"/><polygon fill="#181818" points="283,358.8076,287,368.8076,291,358.8076,287,362.8076" style="stroke:#181818;stroke-width:1.0;"/><line style="stroke:#181818;stroke-width:1.0;" x1="287" x2="287" y1="510.7139" y2="515.7139"/><line style="stroke:#181818;stroke-width:1.0;" x1="287" x2="510" y1="515.7139" y2="515.7139"/><line style="stroke:#181818;stroke-width:1.0;" x1="510" x2="510" y1="515.7139" y2="530.7139"/><polygon fill="#181818" points="506,520.7139,510,530.7139,514,520.7139,510,524.7139" style="stroke:#181818;stroke-width:1.0;"/><line style="stroke:#181818;stroke-width:1.0;" x1="510" x2="510" y1="564.6826" y2="569.6826"/><line style="stroke:#181818;stroke-width:1.0;" x1="510" x2="287" y1="569.6826" y2="569.6826"/><line style="stroke:#181818;stroke-width:1.0;" x1="287" x2="287" y1="569.6826" y2="584.6826"/><polygon fill="#181818" points="283,574.6826,287,584.6826,291,574.6826,287,578.6826" style="stroke:#181818;stroke-width:1.0;"/><line style="stroke:#181818;stroke-width:1.0;" x1="287" x2="287" y1="726.5889" y2="731.5889"/><line style="stroke:#181818;stroke-width:1.0;" x1="287" x2="510" y1="731.5889" y2="731.5889"/><line style="stroke:#181818;stroke-width:1.0;" x1="510" x2="510" y1="731.5889" y2="746.5889"/><polygon fill="#181818" points="506,736.5889,510,746.5889,514,736.5889,510,740.5889" style="stroke:#181818;stroke-width:1.0;"/><line style="stroke:#181818;stroke-width:1.0;" x1="287" x2="287" y1="1312.8354" y2="1317.8354"/><line style="stroke:#181818;stroke-width:1.0;" x1="287" x2="510" y1="1317.8354" y2="1317.8354"/><line style="stroke:#181818;stroke-width:1.0;" x1="510" x2="510" y1="1317.8354" y2="1332.8354"/><polygon fill="#181818" points="506,1322.8354,510,1332.8354,514,1322.8354,510,1326.8354" style="stroke:#181818;stroke-width:1.0;"/><line style="stroke:#181818;stroke-width:1.0;" x1="510" x2="510" y1="1366.8042" y2="1371.8042"/><line style="stroke:#181818;stroke-width:1.0;" x1="510" x2="287" y1="1371.8042" y2="1371.8042"/><line style="stroke:#181818;stroke-width:1.0;" x1="287" x2="287" y1="1371.8042" y2="1386.8042"/><polygon fill="#181818" points="283,1376.8042,287,1386.8042,291,1376.8042,287,1380.8042" style="stroke:#181818;stroke-width:1.0;"/><line style="stroke:#181818;stroke-width:1.0;" x1="510" x2="510" y1="780.5576" y2="785.5576"/><line style="stroke:#181818;stroke-width:1.0;" x1="510" x2="287" y1="785.5576" y2="785.5576"/><line style="stroke:#181818;stroke-width:1.0;" x1="287" x2="287" y1="785.5576" y2="800.5576"/><polygon fill="#181818" points="283,790.5576,287,800.5576,291,790.5576,287,794.5576" style="stroke:#181818;stroke-width:1.0;"/><line style="stroke:#181818;stroke-width:1.0;" x1="287" x2="287" y1="1486.1719" y2="1491.1719"/><line style="stroke:#181818;stroke-width:1.0;" x1="287" x2="510" y1="1491.1719" y2="1491.1719"/><line style="stroke:#181818;stroke-width:1.0;" x1="510" x2="510" y1="1491.1719" y2="1506.1719"/><polygon fill="#181818" points="506,1496.1719,510,1506.1719,514,1496.1719,510,1500.1719" style="stroke:#181818;stroke-width:1.0;"/><line style="stroke:#181818;stroke-width:1.0;" x1="510" x2="510" y1="1540.1406" y2="1545.1406"/><line style="stroke:#181818;stroke-width:1.0;" x1="510" x2="287" y1="1545.1406" y2="1545.1406"/><line style="stroke:#181818;stroke-width:1.0;" x1="287" x2="287" y1="1545.1406" y2="1560.1406"/><polygon fill="#181818" points="283,1550.1406,287,1560.1406,291,1550.1406,287,1554.1406" style="stroke:#181818;stroke-width:1.0;"/><line style="stroke:#181818;stroke-width:1.0;" x1="287" x2="287" y1="1702.0469" y2="1707.0469"/><line style="stroke:#181818;stroke-width:1.0;" x1="287" x2="510" y1="1707.0469" y2="1707.0469"/><line style="stroke:#181818;stroke-width:1.0;" x1="510" x2="510" y1="1707.0469" y2="1722.0469"/><polygon fill="#181818" points="506,1712.0469,510,1722.0469,514,1712.0469,510,1716.0469" style="stroke:#181818;stroke-width:1.0;"/><text fill="#000000" font-family="sans-serif" font-size="18" lengthAdjust="spacing" textLength="109" x="172.5" y="29.4531">Experiment</text><text fill="#000000" font-family="sans-serif" font-size="18" lengthAdjust="spacing" textLength="44" x="487" y="29.4531">User</text><!--SRC=[xPF1Ru8m5CRl_1LDTXWUrBjcMwOsXapH02xRYNJwn2RGalOvDV6F7mLHcBh3Cc_ZH7bVl-_toklz2Z7LdNOxZPd0THAtvZ9fipdoJuwxveApIB6a-G78B6jFjoaede30lQMHARIiPImPSX4H8H4iaZqZ7gsm5w-1D1-9p3PaTIaqaOACvGBYasYe0CIvwfN3nWAnA2ojkwDXPww08OGQURAEkTteLekE6tYJmQmVE1Etcy7EDAZzGP0dTIB0S2x5agiaJpC6zQOgTXxr0ySTXdxm7D2GlbC_d4of6zPZRfJIhJbk64UxhlHftpU-FrlrHnEV3cwFNEJy1fg-JQddZAaR_0MbWZGRa7p0EiMGh3Lv80As69Phiyi8BaASbL85EhE6C3KPoYvTMiMwvbNfUshil6F3HbDXkvnn8YnV3kx5Jh9PyHY8RPh9Fo4tX_3K85mJUmUwaOkpsoJa8RAIqVFeyyiLsBnMiXh5uUo_Yo-UVwu__mSrshAVAcl9-N_zhY1hbEaN]--></g></svg>