<?xml version="1.0" encoding="us-ascii" standalone="no"?><svg xmlns="http://www.w3.org/2000/svg" xmlns:xlink="http://www.w3.org/1999/xlink" contentStyleType="text/css" height="1007px" preserveAspectRatio="none" style="width:717px;height:1007px;background:#FFFFFF;" version="1.1" viewBox="0 0 717 1007" width="717px" zoomAndPan="magnify"><defs/><g><rect fill="none" height="20.9531" style="stroke:none;stroke-width:1.0;" width="684" x="15" y="12.7451"/><ellipse cx="89" cy="48.6982" fill="#222222" rx="10" ry="10" style="stroke:#222222;stroke-width:1.0;"/><rect fill="#F1F1F1" height="33.9688" rx="12.5" ry="12.5" style="stroke:#181818;stroke-width:0.5;" width="136" x="21" y="78.6982"/><text fill="#000000" font-family="sans-serif" font-size="12" lengthAdjust="spacing" textLength="116" x="31" y="99.8369">explain experiment</text><rect fill="#F1F1F1" height="33.9688" rx="12.5" ry="12.5" style="stroke:#181818;stroke-width:0.5;" width="112" x="33" y="919.8379"/><text fill="#000000" font-family="sans-serif" font-size="12" lengthAdjust="spacing" textLength="92" x="43" y="940.9766">stop exirement</text><ellipse cx="89" cy="984.8066" fill="none" rx="11" ry="11" style="stroke:#222222;stroke-width:1.0;"/><ellipse cx="89" cy="984.8066" fill="#222222" rx="6" ry="6" style="stroke:#222222;stroke-width:1.0;"/><line style="stroke:#000000;stroke-width:1.5;" x1="15" x2="15" y1="12.7451" y2="995.8066"/><rect fill="#F1F1F1" height="33.9688" rx="12.5" ry="12.5" style="stroke:#181818;stroke-width:0.5;" width="120" x="167" y="132.667"/><text fill="#000000" font-family="sans-serif" font-size="12" lengthAdjust="spacing" textLength="100" x="177" y="153.8057">start experiment</text><line style="stroke:#000000;stroke-width:1.5;" x1="161" x2="161" y1="12.7451" y2="995.8066"/><rect fill="#F1F1F1" height="33.9688" rx="12.5" ry="12.5" style="stroke:#181818;stroke-width:0.5;" width="83" x="418" y="186.6357"/><text fill="#000000" font-family="sans-serif" font-size="12" lengthAdjust="spacing" textLength="63" x="428" y="207.7744">show intro</text><rect fill="#555555" height="6" rx="2.5" ry="2.5" style="stroke:#555555;stroke-width:1.0;" width="327" x="297" y="240.6045"/><rect fill="#F1F1F1" height="33.9688" rx="12.5" ry="12.5" style="stroke:#181818;stroke-width:0.5;" width="132" x="309" y="266.6045"/><text fill="#000000" font-family="sans-serif" font-size="12" lengthAdjust="spacing" textLength="112" x="319" y="287.7432">show resting state</text><rect fill="#F1F1F1" height="33.9688" rx="12.5" ry="12.5" style="stroke:#181818;stroke-width:0.5;" width="141" x="469" y="266.6045"/><text fill="#000000" font-family="sans-serif" font-size="12" lengthAdjust="spacing" textLength="121" x="479" y="287.7432">record resting state</text><rect fill="#555555" height="6" rx="2.5" ry="2.5" style="stroke:#555555;stroke-width:1.0;" width="327" x="297" y="320.5732"/><text fill="#000000" font-family="sans-serif" font-size="11" lengthAdjust="spacing" textLength="35" x="629" y="324.3813">{and}</text><rect fill="#F1F1F1" height="33.9688" rx="12.5" ry="12.5" style="stroke:#181818;stroke-width:0.5;" width="106" x="406.5" y="390.5732"/><text fill="#000000" font-family="sans-serif" font-size="12" lengthAdjust="spacing" textLength="86" x="416.5" y="411.7119">draw scenario</text><rect fill="#F1F1F1" height="33.9688" rx="12.5" ry="12.5" style="stroke:#181818;stroke-width:0.5;" width="118" x="400.5" y="444.542"/><text fill="#000000" font-family="sans-serif" font-size="12" lengthAdjust="spacing" textLength="98" x="410.5" y="465.6807">draw stimulation</text><rect fill="#F1F1F1" height="33.9688" rx="12.5" ry="12.5" style="stroke:#181818;stroke-width:0.5;" width="180" x="369.5" y="498.5107"/><text fill="#000000" font-family="sans-serif" font-size="12" lengthAdjust="spacing" textLength="160" x="379.5" y="519.6494">prime subject for scenario</text><rect fill="#555555" height="6" rx="2.5" ry="2.5" style="stroke:#555555;stroke-width:1.0;" width="287" x="316" y="596.4795"/><rect fill="#F1F1F1" height="33.9688" rx="12.5" ry="12.5" style="stroke:#181818;stroke-width:0.5;" width="98" x="330" y="622.4795"/><text fill="#000000" font-family="sans-serif" font-size="12" lengthAdjust="spacing" textLength="78" x="340" y="643.6182">play stimulus</text><rect fill="#F1F1F1" height="33.9688" rx="12.5" ry="12.5" style="stroke:#181818;stroke-width:0.5;" width="133" x="456" y="622.4795"/><text fill="#000000" font-family="sans-serif" font-size="12" lengthAdjust="spacing" textLength="113" x="466" y="643.6182">record brainacivity</text><rect fill="#555555" height="6" rx="2.5" ry="2.5" style="stroke:#555555;stroke-width:1.0;" width="287" x="316" y="676.4482"/><text fill="#000000" font-family="sans-serif" font-size="11" lengthAdjust="spacing" textLength="35" x="608" y="680.2563">{and}</text><polygon fill="#F1F1F1" points="459.5,552.4795,471.5,564.4795,459.5,576.4795,447.5,564.4795,459.5,552.4795" style="stroke:#181818;stroke-width:0.5;"/><polygon fill="#F1F1F1" points="406.5,702.4482,512.5,702.4482,524.5,714.4482,512.5,726.4482,406.5,726.4482,394.5,714.4482,406.5,702.4482" style="stroke:#181818;stroke-width:0.5;"/><text fill="#000000" font-family="sans-serif" font-size="11" lengthAdjust="spacing" textLength="14" x="463.5" y="736.6587">no</text><text fill="#000000" font-family="sans-serif" font-size="11" lengthAdjust="spacing" textLength="106" x="406.5" y="718.2563">repeated 3 times?</text><text fill="#000000" font-family="sans-serif" font-size="11" lengthAdjust="spacing" textLength="21" x="524.5" y="711.854">yes</text><polygon fill="#F1F1F1" points="459.5,346.5732,471.5,358.5732,459.5,370.5732,447.5,358.5732,459.5,346.5732" style="stroke:#181818;stroke-width:0.5;"/><polygon fill="#F1F1F1" points="418,758.1587,501,758.1587,513,770.1587,501,782.1587,418,782.1587,406,770.1587,418,758.1587" style="stroke:#181818;stroke-width:0.5;"/><text fill="#000000" font-family="sans-serif" font-size="11" lengthAdjust="spacing" textLength="14" x="463.5" y="792.3691">no</text><text fill="#000000" font-family="sans-serif" font-size="11" lengthAdjust="spacing" textLength="83" x="418" y="773.9668">scenarios left?</text><text fill="#000000" font-family="sans-serif" font-size="11" lengthAdjust="spacing" textLength="21" x="513" y="767.5645">yes</text><rect fill="#555555" height="6" rx="2.5" ry="2.5" style="stroke:#555555;stroke-width:1.0;" width="327" x="297" y="813.8691"/><rect fill="#F1F1F1" height="33.9688" rx="12.5" ry="12.5" style="stroke:#181818;stroke-width:0.5;" width="132" x="309" y="839.8691"/><text fill="#000000" font-family="sans-serif" font-size="12" lengthAdjust="spacing" textLength="112" x="319" y="861.0078">show resting state</text><rect fill="#F1F1F1" height="33.9688" rx="12.5" ry="12.5" style="stroke:#181818;stroke-width:0.5;" width="141" x="469" y="839.8691"/><text fill="#000000" font-family="sans-serif" font-size="12" lengthAdjust="spacing" textLength="121" x="479" y="861.0078">record resting state</text><rect fill="#555555" height="6" rx="2.5" ry="2.5" style="stroke:#555555;stroke-width:1.0;" width="327" x="297" y="893.8379"/><text fill="#000000" font-family="sans-serif" font-size="11" lengthAdjust="spacing" textLength="35" x="629" y="897.646">{and}</text><line style="stroke:#000000;stroke-width:1.5;" x1="291" x2="291" y1="12.7451" y2="995.8066"/><line style="stroke:#000000;stroke-width:1.5;" x1="697" x2="697" y1="12.7451" y2="995.8066"/><line style="stroke:#181818;stroke-width:1.0;" x1="89" x2="89" y1="58.6982" y2="78.6982"/><polygon fill="#181818" points="85,68.6982,89,78.6982,93,68.6982,89,72.6982" style="stroke:#181818;stroke-width:1.0;"/><line style="stroke:#181818;stroke-width:1.0;" x1="89" x2="89" y1="953.8066" y2="973.8066"/><polygon fill="#181818" points="85,963.8066,89,973.8066,93,963.8066,89,967.8066" style="stroke:#181818;stroke-width:1.0;"/><line style="stroke:#181818;stroke-width:1.0;" x1="375" x2="375" y1="246.6045" y2="266.6045"/><polygon fill="#181818" points="371,256.6045,375,266.6045,379,256.6045,375,260.6045" style="stroke:#181818;stroke-width:1.0;"/><line style="stroke:#181818;stroke-width:1.0;" x1="539.5" x2="539.5" y1="246.6045" y2="266.6045"/><polygon fill="#181818" points="535.5,256.6045,539.5,266.6045,543.5,256.6045,539.5,260.6045" style="stroke:#181818;stroke-width:1.0;"/><line style="stroke:#181818;stroke-width:1.0;" x1="375" x2="375" y1="300.5732" y2="320.5732"/><polygon fill="#181818" points="371,310.5732,375,320.5732,379,310.5732,375,314.5732" style="stroke:#181818;stroke-width:1.0;"/><line style="stroke:#181818;stroke-width:1.0;" x1="539.5" x2="539.5" y1="300.5732" y2="320.5732"/><polygon fill="#181818" points="535.5,310.5732,539.5,320.5732,543.5,310.5732,539.5,314.5732" style="stroke:#181818;stroke-width:1.0;"/><line style="stroke:#181818;stroke-width:1.0;" x1="459.5" x2="459.5" y1="220.6045" y2="240.6045"/><polygon fill="#181818" points="455.5,230.6045,459.5,240.6045,463.5,230.6045,459.5,234.6045" style="stroke:#181818;stroke-width:1.0;"/><line style="stroke:#181818;stroke-width:1.0;" x1="459.5" x2="459.5" y1="424.542" y2="444.542"/><polygon fill="#181818" points="455.5,434.542,459.5,444.542,463.5,434.542,459.5,438.542" style="stroke:#181818;stroke-width:1.0;"/><line style="stroke:#181818;stroke-width:1.0;" x1="459.5" x2="459.5" y1="478.5107" y2="498.5107"/><polygon fill="#181818" points="455.5,488.5107,459.5,498.5107,463.5,488.5107,459.5,492.5107" style="stroke:#181818;stroke-width:1.0;"/><line style="stroke:#181818;stroke-width:1.0;" x1="379" x2="379" y1="602.4795" y2="622.4795"/><polygon fill="#181818" points="375,612.4795,379,622.4795,383,612.4795,379,616.4795" style="stroke:#181818;stroke-width:1.0;"/><line style="stroke:#181818;stroke-width:1.0;" x1="522.5" x2="522.5" y1="602.4795" y2="622.4795"/><polygon fill="#181818" points="518.5,612.4795,522.5,622.4795,526.5,612.4795,522.5,616.4795" style="stroke:#181818;stroke-width:1.0;"/><line style="stroke:#181818;stroke-width:1.0;" x1="379" x2="379" y1="656.4482" y2="676.4482"/><polygon fill="#181818" points="375,666.4482,379,676.4482,383,666.4482,379,670.4482" style="stroke:#181818;stroke-width:1.0;"/><line style="stroke:#181818;stroke-width:1.0;" x1="522.5" x2="522.5" y1="656.4482" y2="676.4482"/><polygon fill="#181818" points="518.5,666.4482,522.5,676.4482,526.5,666.4482,522.5,670.4482" style="stroke:#181818;stroke-width:1.0;"/><line style="stroke:#181818;stroke-width:1.0;" x1="459.5" x2="459.5" y1="576.4795" y2="596.4795"/><polygon fill="#181818" points="455.5,586.4795,459.5,596.4795,463.5,586.4795,459.5,590.4795" style="stroke:#181818;stroke-width:1.0;"/><line style="stroke:#181818;stroke-width:1.0;" x1="524.5" x2="655" y1="714.4482" y2="714.4482"/><polygon fill="#181818" points="651,649.4639,655,639.4639,659,649.4639,655,645.4639" style="stroke:#181818;stroke-width:1.0;"/><line style="stroke:#181818;stroke-width:1.0;" x1="655" x2="655" y1="564.4795" y2="714.4482"/><line style="stroke:#181818;stroke-width:1.0;" x1="655" x2="471.5" y1="564.4795" y2="564.4795"/><polygon fill="#181818" points="481.5,560.4795,471.5,564.4795,481.5,568.4795,477.5,564.4795" style="stroke:#181818;stroke-width:1.0;"/><line style="stroke:#181818;stroke-width:1.0;" x1="459.5" x2="459.5" y1="682.4482" y2="702.4482"/><polygon fill="#181818" points="455.5,692.4482,459.5,702.4482,463.5,692.4482,459.5,696.4482" style="stroke:#181818;stroke-width:1.0;"/><line style="stroke:#181818;stroke-width:1.0;" x1="459.5" x2="459.5" y1="532.4795" y2="552.4795"/><polygon fill="#181818" points="455.5,542.4795,459.5,552.4795,463.5,542.4795,459.5,546.4795" style="stroke:#181818;stroke-width:1.0;"/><line style="stroke:#181818;stroke-width:1.0;" x1="459.5" x2="459.5" y1="370.5732" y2="390.5732"/><polygon fill="#181818" points="455.5,380.5732,459.5,390.5732,463.5,380.5732,459.5,384.5732" style="stroke:#181818;stroke-width:1.0;"/><line style="stroke:#181818;stroke-width:1.0;" x1="513" x2="678" y1="770.1587" y2="770.1587"/><polygon fill="#181818" points="674,574.0107,678,564.0107,682,574.0107,678,570.0107" style="stroke:#181818;stroke-width:1.0;"/><line style="stroke:#181818;stroke-width:1.0;" x1="678" x2="678" y1="358.5732" y2="770.1587"/><line style="stroke:#181818;stroke-width:1.0;" x1="678" x2="471.5" y1="358.5732" y2="358.5732"/><polygon fill="#181818" points="481.5,354.5732,471.5,358.5732,481.5,362.5732,477.5,358.5732" style="stroke:#181818;stroke-width:1.0;"/><line style="stroke:#181818;stroke-width:1.0;" x1="459.5" x2="459.5" y1="726.4482" y2="758.1587"/><polygon fill="#181818" points="455.5,748.1587,459.5,758.1587,463.5,748.1587,459.5,752.1587" style="stroke:#181818;stroke-width:1.0;"/><line style="stroke:#181818;stroke-width:1.0;" x1="459.5" x2="459.5" y1="326.5732" y2="346.5732"/><polygon fill="#181818" points="455.5,336.5732,459.5,346.5732,463.5,336.5732,459.5,340.5732" style="stroke:#181818;stroke-width:1.0;"/><line style="stroke:#181818;stroke-width:1.0;" x1="375" x2="375" y1="819.8691" y2="839.8691"/><polygon fill="#181818" points="371,829.8691,375,839.8691,379,829.8691,375,833.8691" style="stroke:#181818;stroke-width:1.0;"/><line style="stroke:#181818;stroke-width:1.0;" x1="539.5" x2="539.5" y1="819.8691" y2="839.8691"/><polygon fill="#181818" points="535.5,829.8691,539.5,839.8691,543.5,829.8691,539.5,833.8691" style="stroke:#181818;stroke-width:1.0;"/><line style="stroke:#181818;stroke-width:1.0;" x1="375" x2="375" y1="873.8379" y2="893.8379"/><polygon fill="#181818" points="371,883.8379,375,893.8379,379,883.8379,375,887.8379" style="stroke:#181818;stroke-width:1.0;"/><line style="stroke:#181818;stroke-width:1.0;" x1="539.5" x2="539.5" y1="873.8379" y2="893.8379"/><polygon fill="#181818" points="535.5,883.8379,539.5,893.8379,543.5,883.8379,539.5,887.8379" style="stroke:#181818;stroke-width:1.0;"/><line style="stroke:#181818;stroke-width:1.0;" x1="459.5" x2="459.5" y1="782.1587" y2="813.8691"/><polygon fill="#181818" points="455.5,803.8691,459.5,813.8691,463.5,803.8691,459.5,807.8691" style="stroke:#181818;stroke-width:1.0;"/><line style="stroke:#181818;stroke-width:1.0;" x1="89" x2="89" y1="112.667" y2="117.667"/><line style="stroke:#181818;stroke-width:1.0;" x1="89" x2="227" y1="117.667" y2="117.667"/><line style="stroke:#181818;stroke-width:1.0;" x1="227" x2="227" y1="117.667" y2="132.667"/><polygon fill="#181818" points="223,122.667,227,132.667,231,122.667,227,126.667" style="stroke:#181818;stroke-width:1.0;"/><line style="stroke:#181818;stroke-width:1.0;" x1="227" x2="227" y1="166.6357" y2="171.6357"/><line style="stroke:#181818;stroke-width:1.0;" x1="227" x2="459.5" y1="171.6357" y2="171.6357"/><line style="stroke:#181818;stroke-width:1.0;" x1="459.5" x2="459.5" y1="171.6357" y2="186.6357"/><polygon fill="#181818" points="455.5,176.6357,459.5,186.6357,463.5,176.6357,459.5,180.6357" style="stroke:#181818;stroke-width:1.0;"/><line style="stroke:#181818;stroke-width:1.0;" x1="459.5" x2="459.5" y1="899.8379" y2="904.8379"/><line style="stroke:#181818;stroke-width:1.0;" x1="459.5" x2="89" y1="904.8379" y2="904.8379"/><line style="stroke:#181818;stroke-width:1.0;" x1="89" x2="89" y1="904.8379" y2="919.8379"/><polygon fill="#181818" points="85,909.8379,89,919.8379,93,909.8379,89,913.8379" style="stroke:#181818;stroke-width:1.0;"/><text fill="#000000" font-family="sans-serif" font-size="18" lengthAdjust="spacing" textLength="129" x="23.5" y="29.4531">Experimenter</text><text fill="#000000" font-family="sans-serif" font-size="18" lengthAdjust="spacing" textLength="69" x="191.5" y="29.4531">Subject</text><text fill="#000000" font-family="sans-serif" font-size="18" lengthAdjust="spacing" textLength="198" x="395" y="29.4531">Experiment Software</text><!--SRC=[hP91SeCm34NtFeMMiEwEBBhg2N821uj4BR4ziYXXGkzUsH3QC5tME-i_VtrhDB_T8Z9TqGloR4mIos8QlCNUaWVSr8Cnyt4ulMChisaAjbD_dE0OEXajeneswH9682yS5Ee2VnY0fSYOXFmPr4nm5S6UjMz66Dl0RW-XTr2uk_NkonZ6Y5OoxzYEa5hqbabRRHMXwz1ReU1BCUQ8a9QVPAjVRrJV_03MhFaqEerfjHfI0HTzYrkeDVA9jMPR-YIP3aNRfNwqWV52FLRB1HsyW7R0z5e39QWcJ3Nu853vK9kd5u_82Nhiv4_-_qSzFw-Axa28kWB4k6n0ldy3]--></g></svg>