<?xml version="1.0" encoding="us-ascii" standalone="no"?><svg xmlns="http://www.w3.org/2000/svg" xmlns:xlink="http://www.w3.org/1999/xlink" contentStyleType="text/css" height="825px" preserveAspectRatio="none" style="width:1945px;height:825px;background:#FFFFFF;" version="1.1" viewBox="0 0 1945 825" width="1945px" zoomAndPan="magnify"><defs/><g><!--cluster auditory_tagging--><g id="cluster_auditory_tagging"><path d="M474.5,6 L614.5,6 A3.75,3.75 0 0 1 617,8.5 L624,28.2969 L1195.5,28.2969 A2.5,2.5 0 0 1 1198,30.7969 L1198,118.5 A2.5,2.5 0 0 1 1195.5,121 L474.5,121 A2.5,2.5 0 0 1 472,118.5 L472,8.5 A2.5,2.5 0 0 1 474.5,6 " fill="none" style="stroke:#000000;stroke-width:1.5;"/><line style="stroke:#000000;stroke-width:1.5;" x1="472" x2="624" y1="28.2969" y2="28.2969"/><text fill="#000000" font-family="sans-serif" font-size="14" font-weight="bold" lengthAdjust="spacing" textLength="139" x="476" y="20.9951">auditory_tagging</text></g><!--cluster model--><g id="cluster_model"><path d="M8.5,154 L58.5,154 A3.75,3.75 0 0 1 61,156.5 L68,176.2969 L1935.5,176.2969 A2.5,2.5 0 0 1 1938,178.7969 L1938,672.5 A2.5,2.5 0 0 1 1935.5,675 L8.5,675 A2.5,2.5 0 0 1 6,672.5 L6,156.5 A2.5,2.5 0 0 1 8.5,154 " fill="none" style="stroke:#000000;stroke-width:1.5;"/><line style="stroke:#000000;stroke-width:1.5;" x1="6" x2="68" y1="176.2969" y2="176.2969"/><text fill="#000000" font-family="sans-serif" font-size="14" font-weight="bold" lengthAdjust="spacing" textLength="49" x="10" y="168.9951">model</text></g><!--cluster constants--><g id="cluster_constants"><path d="M410.5,430 L494.5,430 A3.75,3.75 0 0 1 497,432.5 L504,452.2969 L977.5,452.2969 A2.5,2.5 0 0 1 980,454.7969 L980,640.5 A2.5,2.5 0 0 1 977.5,643 L410.5,643 A2.5,2.5 0 0 1 408,640.5 L408,432.5 A2.5,2.5 0 0 1 410.5,430 " fill="none" style="stroke:#000000;stroke-width:1.5;"/><line style="stroke:#000000;stroke-width:1.5;" x1="408" x2="504" y1="452.2969" y2="452.2969"/><text fill="#000000" font-family="sans-serif" font-size="14" font-weight="bold" lengthAdjust="spacing" textLength="83" x="412" y="444.9951">constants</text></g><!--class AAudioTaggerFactory--><g id="elem_AAudioTaggerFactory"><rect codeLine="6" fill="#F1F1F1" height="64.2969" id="AAudioTaggerFactory" rx="2.5" ry="2.5" style="stroke:#181818;stroke-width:0.5;" width="693" x="488.5" y="41"/><ellipse cx="753.25" cy="57" fill="#A9DCDF" rx="11" ry="11" style="stroke:#181818;stroke-width:1.0;"/><path d="M755.3281,58.8125 L755.7188,59.7969 L755.3281,59.7969 C754.875,59.7969 754.7656,59.8125 754.6094,59.9219 C754.3594,60.0781 754.2031,60.3594 754.2031,60.6563 C754.2031,60.9219 754.3438,61.1719 754.5625,61.3281 C754.7031,61.4531 754.9063,61.5 755.3281,61.5 L757.6875,61.5 C758.0469,61.5 758.2656,61.4688 758.4063,61.375 C758.6563,61.2344 758.8125,60.9375 758.8125,60.6563 C758.8125,60.375 758.6719,60.125 758.4531,59.9688 C758.2813,59.8281 758.125,59.7969 757.6563,59.7969 L754.2656,51.5938 L750.5938,51.5938 C750.1406,51.5938 750.0156,51.6094 749.8594,51.7031 C749.6094,51.875 749.4531,52.1563 749.4531,52.4375 C749.4531,52.7188 749.5938,52.9688 749.8125,53.1406 C749.9844,53.25 750.1563,53.2813 750.5938,53.2813 L751.6719,53.2813 L749.0313,59.7969 C748.6094,59.7969 748.4531,59.8125 748.2969,59.9219 C748.0469,60.0781 747.8906,60.3594 747.8906,60.6563 C747.8906,61.2188 748.2656,61.5 749.0156,61.5 L751.2813,61.5 C751.6406,61.5 751.8594,61.4688 751.9844,61.375 C752.25,61.2344 752.3906,60.9375 752.3906,60.6563 C752.3906,60.375 752.2656,60.125 752.0469,59.9531 C751.875,59.8281 751.7344,59.7969 751.2813,59.7969 L750.8906,59.7969 L751.2813,58.8125 L755.3281,58.8125 Z M754.625,57.1094 L751.9531,57.1094 L753.2969,53.8438 L754.625,57.1094 Z " fill="#000000"/><text fill="#000000" font-family="sans-serif" font-size="14" font-style="italic" lengthAdjust="spacing" textLength="155" x="773.75" y="61.8467">AAudioTaggerFactory</text><line style="stroke:#181818;stroke-width:0.5;" x1="489.5" x2="1180.5" y1="73" y2="73"/><line style="stroke:#181818;stroke-width:0.5;" x1="489.5" x2="1180.5" y1="81" y2="81"/><ellipse cx="499.5" cy="94.6484" fill="#84BE84" rx="3" ry="3" style="stroke:#038048;stroke-width:1.0;"/><text fill="#000000" font-family="sans-serif" font-size="14" font-style="italic" lengthAdjust="spacing" textLength="667" x="508.5" y="97.9951">AAudioTagger create_auditory_stimulus(audio: Audio, stimuli_intervals: List[Tuple[float, float])</text></g><!--class AObserver--><g id="elem_AObserver"><rect codeLine="12" fill="#F1F1F1" height="64.2969" id="AObserver" rx="2.5" ry="2.5" style="stroke:#181818;stroke-width:0.5;" width="444" x="22" y="242"/><ellipse cx="202.25" cy="258" fill="#A9DCDF" rx="11" ry="11" style="stroke:#181818;stroke-width:1.0;"/><path d="M204.3281,259.8125 L204.7188,260.7969 L204.3281,260.7969 C203.875,260.7969 203.7656,260.8125 203.6094,260.9219 C203.3594,261.0781 203.2031,261.3594 203.2031,261.6563 C203.2031,261.9219 203.3438,262.1719 203.5625,262.3281 C203.7031,262.4531 203.9063,262.5 204.3281,262.5 L206.6875,262.5 C207.0469,262.5 207.2656,262.4688 207.4063,262.375 C207.6563,262.2344 207.8125,261.9375 207.8125,261.6563 C207.8125,261.375 207.6719,261.125 207.4531,260.9688 C207.2813,260.8281 207.125,260.7969 206.6563,260.7969 L203.2656,252.5938 L199.5938,252.5938 C199.1406,252.5938 199.0156,252.6094 198.8594,252.7031 C198.6094,252.875 198.4531,253.1563 198.4531,253.4375 C198.4531,253.7188 198.5938,253.9688 198.8125,254.1406 C198.9844,254.25 199.1563,254.2813 199.5938,254.2813 L200.6719,254.2813 L198.0313,260.7969 C197.6094,260.7969 197.4531,260.8125 197.2969,260.9219 C197.0469,261.0781 196.8906,261.3594 196.8906,261.6563 C196.8906,262.2188 197.2656,262.5 198.0156,262.5 L200.2813,262.5 C200.6406,262.5 200.8594,262.4688 200.9844,262.375 C201.25,262.2344 201.3906,261.9375 201.3906,261.6563 C201.3906,261.375 201.2656,261.125 201.0469,260.9531 C200.875,260.8281 200.7344,260.7969 200.2813,260.7969 L199.8906,260.7969 L200.2813,259.8125 L204.3281,259.8125 Z M203.625,258.1094 L200.9531,258.1094 L202.2969,254.8438 L203.625,258.1094 Z " fill="#000000"/><text fill="#000000" font-family="sans-serif" font-size="14" font-style="italic" lengthAdjust="spacing" textLength="75" x="222.75" y="262.8467">AObserver</text><line style="stroke:#181818;stroke-width:0.5;" x1="23" x2="465" y1="274" y2="274"/><line style="stroke:#181818;stroke-width:0.5;" x1="23" x2="465" y1="282" y2="282"/><ellipse cx="33" cy="295.6484" fill="#84BE84" rx="3" ry="3" style="stroke:#038048;stroke-width:1.0;"/><text fill="#000000" font-family="sans-serif" font-size="14" lengthAdjust="spacing" textLength="418" x="42" y="298.9951">void update(data: Any, identifier: EModelUpdateIdentifier)</text></g><!--class Model--><g id="elem_Model"><rect codeLine="16" fill="#F1F1F1" height="170.3438" id="Model" rx="2.5" ry="2.5" style="stroke:#181818;stroke-width:0.5;" width="668" x="501" y="189"/><ellipse cx="792.25" cy="209.1328" fill="#ADD1B2" rx="11" ry="11" style="stroke:#181818;stroke-width:1.0;"/><path d="M794.5938,204.8047 C793.6563,204.3672 793.0625,204.2266 792.1875,204.2266 C789.5625,204.2266 787.5625,206.3047 787.5625,209.0234 L787.5625,210.1484 C787.5625,212.7266 789.6719,214.6172 792.5625,214.6172 C793.7813,214.6172 794.9375,214.3203 795.6875,213.7734 C796.2656,213.3672 796.5938,212.9141 796.5938,212.5234 C796.5938,212.0703 796.2031,211.6797 795.7344,211.6797 C795.5156,211.6797 795.3125,211.7578 795.125,211.9453 C794.6719,212.4297 794.6719,212.4297 794.4844,212.5234 C794.0625,212.7891 793.375,212.9141 792.6094,212.9141 C790.5625,212.9141 789.2656,211.8203 789.2656,210.1172 L789.2656,209.0234 C789.2656,207.2422 790.5156,205.9297 792.25,205.9297 C792.8281,205.9297 793.4375,206.0859 793.9063,206.3359 C794.3906,206.6172 794.5625,206.8359 794.6563,207.2422 C794.7188,207.6484 794.75,207.7734 794.8906,207.8984 C795.0313,208.0391 795.2656,208.1484 795.4844,208.1484 C795.75,208.1484 796.0156,208.0078 796.1875,207.7891 C796.2969,207.6328 796.3281,207.4453 796.3281,207.0234 L796.3281,205.6016 C796.3281,205.1641 796.3125,205.0391 796.2188,204.8828 C796.0625,204.6172 795.7813,204.4766 795.4844,204.4766 C795.1875,204.4766 794.9844,204.5703 794.7656,204.8828 L794.5938,204.8047 Z " fill="#000000"/><text fill="#000000" font-family="sans-serif" font-size="12" font-style="italic" lengthAdjust="spacing" textLength="81" x="810.75" y="205.1387">&#171;Observable&#187;</text><text fill="#000000" font-family="sans-serif" font-size="14" lengthAdjust="spacing" textLength="43" x="829.75" y="220.9639">Model</text><line style="stroke:#181818;stroke-width:0.5;" x1="502" x2="1168" y1="229.2656" y2="229.2656"/><rect fill="none" height="6" style="stroke:#C82930;stroke-width:1.0;" width="6" x="509" y="239.9141"/><text fill="#000000" font-family="sans-serif" font-size="14" lengthAdjust="spacing" textLength="166" x="521" y="246.2607">List[str] primer_history</text><line style="stroke:#181818;stroke-width:0.5;" x1="502" x2="1168" y1="253.5625" y2="253.5625"/><rect fill="#F24D5C" height="6" style="stroke:#C82930;stroke-width:1.0;" width="6" x="509" y="264.2109"/><text fill="#000000" font-family="sans-serif" font-size="14" lengthAdjust="spacing" textLength="642" x="521" y="270.5576">Model(raw_stimuli: List[Stimulus], auditory_stimulus_factories: List[AAudioTaggerFactory])</text><rect fill="#F24D5C" height="6" style="stroke:#C82930;stroke-width:1.0;" width="6" x="509" y="280.5078"/><text fill="#000000" font-family="sans-serif" font-size="14" lengthAdjust="spacing" textLength="410" x="521" y="286.8545">void notify(data: Any, identifier: EModelUpdateIdentifier)</text><ellipse cx="512" cy="299.8047" fill="#84BE84" rx="3" ry="3" style="stroke:#038048;stroke-width:1.0;"/><text fill="#000000" font-family="sans-serif" font-size="14" lengthAdjust="spacing" textLength="309" x="521" y="303.1514">void register(view: AObserver, priority: int)</text><ellipse cx="512" cy="316.1016" fill="#84BE84" rx="3" ry="3" style="stroke:#038048;stroke-width:1.0;"/><text fill="#000000" font-family="sans-serif" font-size="14" lengthAdjust="spacing" textLength="326" x="521" y="319.4482">void new_stimulus(stimulus: CreatedStimulus)</text><ellipse cx="512" cy="332.3984" fill="#84BE84" rx="3" ry="3" style="stroke:#038048;stroke-width:1.0;"/><text fill="#000000" font-family="sans-serif" font-size="14" lengthAdjust="spacing" textLength="316" x="521" y="335.7451">void new_primer(stimulus: CreatedStimulus)</text><ellipse cx="512" cy="348.6953" fill="#84BE84" rx="3" ry="3" style="stroke:#038048;stroke-width:1.0;"/><text fill="#000000" font-family="sans-serif" font-size="14" lengthAdjust="spacing" textLength="450" x="521" y="352.042">void change_experiment_state(new_state: EExperimentState)</text></g><!--class Logger--><g id="elem_Logger"><rect codeLine="27" fill="#F1F1F1" height="88.8594" id="Logger" rx="2.5" ry="2.5" style="stroke:#181818;stroke-width:0.5;" width="284" x="97" y="501.5"/><ellipse cx="202.75" cy="521.6328" fill="#ADD1B2" rx="11" ry="11" style="stroke:#181818;stroke-width:1.0;"/><path d="M205.0938,517.3047 C204.1563,516.8672 203.5625,516.7266 202.6875,516.7266 C200.0625,516.7266 198.0625,518.8047 198.0625,521.5234 L198.0625,522.6484 C198.0625,525.2266 200.1719,527.1172 203.0625,527.1172 C204.2813,527.1172 205.4375,526.8203 206.1875,526.2734 C206.7656,525.8672 207.0938,525.4141 207.0938,525.0234 C207.0938,524.5703 206.7031,524.1797 206.2344,524.1797 C206.0156,524.1797 205.8125,524.2578 205.625,524.4453 C205.1719,524.9297 205.1719,524.9297 204.9844,525.0234 C204.5625,525.2891 203.875,525.4141 203.1094,525.4141 C201.0625,525.4141 199.7656,524.3203 199.7656,522.6172 L199.7656,521.5234 C199.7656,519.7422 201.0156,518.4297 202.75,518.4297 C203.3281,518.4297 203.9375,518.5859 204.4063,518.8359 C204.8906,519.1172 205.0625,519.3359 205.1563,519.7422 C205.2188,520.1484 205.25,520.2734 205.3906,520.3984 C205.5313,520.5391 205.7656,520.6484 205.9844,520.6484 C206.25,520.6484 206.5156,520.5078 206.6875,520.2891 C206.7969,520.1328 206.8281,519.9453 206.8281,519.5234 L206.8281,518.1016 C206.8281,517.6641 206.8125,517.5391 206.7188,517.3828 C206.5625,517.1172 206.2813,516.9766 205.9844,516.9766 C205.6875,516.9766 205.4844,517.0703 205.2656,517.3828 L205.0938,517.3047 Z " fill="#000000"/><text fill="#000000" font-family="sans-serif" font-size="12" font-style="italic" lengthAdjust="spacing" textLength="68" x="221.25" y="517.6387">&#171;Observer&#187;</text><text fill="#000000" font-family="sans-serif" font-size="14" lengthAdjust="spacing" textLength="50" x="230.25" y="533.4639">Logger</text><line style="stroke:#181818;stroke-width:0.5;" x1="98" x2="380" y1="541.7656" y2="541.7656"/><rect fill="none" height="6" style="stroke:#C82930;stroke-width:1.0;" width="6" x="105" y="552.4141"/><text fill="#000000" font-family="sans-serif" font-size="14" lengthAdjust="spacing" textLength="166" x="117" y="558.7607">Path exports_directory</text><line style="stroke:#181818;stroke-width:0.5;" x1="98" x2="380" y1="566.0625" y2="566.0625"/><ellipse cx="108" cy="579.7109" fill="#84BE84" rx="3" ry="3" style="stroke:#038048;stroke-width:1.0;"/><text fill="#000000" font-family="sans-serif" font-size="14" lengthAdjust="spacing" textLength="258" x="117" y="583.0576">Logger(logging_directory: PathLike)</text></g><!--class Stimulus--><g id="elem_Stimulus"><rect codeLine="50" fill="#F1F1F1" height="113.1875" id="Stimulus" rx="2.5" ry="2.5" style="stroke:#181818;stroke-width:0.5;" width="286" x="1341" y="489.5"/><ellipse cx="1449.25" cy="505.5" fill="#ADD1B2" rx="11" ry="11" style="stroke:#181818;stroke-width:1.0;"/><path d="M1451.5938,501.1719 C1450.6563,500.7344 1450.0625,500.5938 1449.1875,500.5938 C1446.5625,500.5938 1444.5625,502.6719 1444.5625,505.3906 L1444.5625,506.5156 C1444.5625,509.0938 1446.6719,510.9844 1449.5625,510.9844 C1450.7813,510.9844 1451.9375,510.6875 1452.6875,510.1406 C1453.2656,509.7344 1453.5938,509.2813 1453.5938,508.8906 C1453.5938,508.4375 1453.2031,508.0469 1452.7344,508.0469 C1452.5156,508.0469 1452.3125,508.125 1452.125,508.3125 C1451.6719,508.7969 1451.6719,508.7969 1451.4844,508.8906 C1451.0625,509.1563 1450.375,509.2813 1449.6094,509.2813 C1447.5625,509.2813 1446.2656,508.1875 1446.2656,506.4844 L1446.2656,505.3906 C1446.2656,503.6094 1447.5156,502.2969 1449.25,502.2969 C1449.8281,502.2969 1450.4375,502.4531 1450.9063,502.7031 C1451.3906,502.9844 1451.5625,503.2031 1451.6563,503.6094 C1451.7188,504.0156 1451.75,504.1406 1451.8906,504.2656 C1452.0313,504.4063 1452.2656,504.5156 1452.4844,504.5156 C1452.75,504.5156 1453.0156,504.375 1453.1875,504.1563 C1453.2969,504 1453.3281,503.8125 1453.3281,503.3906 L1453.3281,501.9688 C1453.3281,501.5313 1453.3125,501.4063 1453.2188,501.25 C1453.0625,500.9844 1452.7813,500.8438 1452.4844,500.8438 C1452.1875,500.8438 1451.9844,500.9375 1451.7656,501.25 L1451.5938,501.1719 Z " fill="#000000"/><text fill="#000000" font-family="sans-serif" font-size="14" lengthAdjust="spacing" textLength="61" x="1469.75" y="510.3467">Stimulus</text><line style="stroke:#181818;stroke-width:0.5;" x1="1342" x2="1626" y1="521.5" y2="521.5"/><ellipse cx="1352" cy="535.1484" fill="none" rx="3" ry="3" style="stroke:#038048;stroke-width:1.0;"/><text fill="#000000" font-family="sans-serif" font-size="14" lengthAdjust="spacing" textLength="80" x="1361" y="538.4951">str prompt</text><ellipse cx="1352" cy="551.4453" fill="none" rx="3" ry="3" style="stroke:#038048;stroke-width:1.0;"/><text fill="#000000" font-family="sans-serif" font-size="14" lengthAdjust="spacing" textLength="73" x="1361" y="554.792">str primer</text><ellipse cx="1352" cy="567.7422" fill="none" rx="3" ry="3" style="stroke:#038048;stroke-width:1.0;"/><text fill="#000000" font-family="sans-serif" font-size="14" lengthAdjust="spacing" textLength="115" x="1361" y="571.0889">List[str] options</text><ellipse cx="1352" cy="584.0391" fill="none" rx="3" ry="3" style="stroke:#038048;stroke-width:1.0;"/><text fill="#000000" font-family="sans-serif" font-size="14" lengthAdjust="spacing" textLength="260" x="1361" y="587.3857">List[Tuple[float, float]] time_stamps</text><line style="stroke:#181818;stroke-width:0.5;" x1="1342" x2="1626" y1="594.6875" y2="594.6875"/></g><!--class CreatedStimulus--><g id="elem_CreatedStimulus"><rect codeLine="58" fill="#F1F1F1" height="162.0781" id="CreatedStimulus" rx="2.5" ry="2.5" style="stroke:#181818;stroke-width:0.5;" width="450" x="1472" y="193"/><ellipse cx="1633.25" cy="209" fill="#ADD1B2" rx="11" ry="11" style="stroke:#181818;stroke-width:1.0;"/><path d="M1635.5938,204.6719 C1634.6563,204.2344 1634.0625,204.0938 1633.1875,204.0938 C1630.5625,204.0938 1628.5625,206.1719 1628.5625,208.8906 L1628.5625,210.0156 C1628.5625,212.5938 1630.6719,214.4844 1633.5625,214.4844 C1634.7813,214.4844 1635.9375,214.1875 1636.6875,213.6406 C1637.2656,213.2344 1637.5938,212.7813 1637.5938,212.3906 C1637.5938,211.9375 1637.2031,211.5469 1636.7344,211.5469 C1636.5156,211.5469 1636.3125,211.625 1636.125,211.8125 C1635.6719,212.2969 1635.6719,212.2969 1635.4844,212.3906 C1635.0625,212.6563 1634.375,212.7813 1633.6094,212.7813 C1631.5625,212.7813 1630.2656,211.6875 1630.2656,209.9844 L1630.2656,208.8906 C1630.2656,207.1094 1631.5156,205.7969 1633.25,205.7969 C1633.8281,205.7969 1634.4375,205.9531 1634.9063,206.2031 C1635.3906,206.4844 1635.5625,206.7031 1635.6563,207.1094 C1635.7188,207.5156 1635.75,207.6406 1635.8906,207.7656 C1636.0313,207.9063 1636.2656,208.0156 1636.4844,208.0156 C1636.75,208.0156 1637.0156,207.875 1637.1875,207.6563 C1637.2969,207.5 1637.3281,207.3125 1637.3281,206.8906 L1637.3281,205.4688 C1637.3281,205.0313 1637.3125,204.9063 1637.2188,204.75 C1637.0625,204.4844 1636.7813,204.3438 1636.4844,204.3438 C1636.1875,204.3438 1635.9844,204.4375 1635.7656,204.75 L1635.5938,204.6719 Z " fill="#000000"/><text fill="#000000" font-family="sans-serif" font-size="14" lengthAdjust="spacing" textLength="119" x="1653.75" y="213.8467">CreatedStimulus</text><line style="stroke:#181818;stroke-width:0.5;" x1="1473" x2="1921" y1="225" y2="225"/><rect fill="none" height="6" style="stroke:#C82930;stroke-width:1.0;" width="6" x="1480" y="235.6484"/><text fill="#000000" font-family="sans-serif" font-size="14" lengthAdjust="spacing" textLength="124" x="1492" y="241.9951">Stimulus stimulus</text><ellipse cx="1483" cy="254.9453" fill="none" rx="3" ry="3" style="stroke:#038048;stroke-width:1.0;"/><text fill="#000000" font-family="sans-serif" font-size="14" lengthAdjust="spacing" textLength="226" x="1492" y="258.292">Optional[str] used_tagger_label</text><line style="stroke:#181818;stroke-width:0.5;" x1="1473" x2="1921" y1="265.5938" y2="265.5938"/><ellipse cx="1483" cy="279.2422" fill="#84BE84" rx="3" ry="3" style="stroke:#038048;stroke-width:1.0;"/><text fill="#000000" font-family="sans-serif" font-size="14" lengthAdjust="spacing" textLength="424" x="1492" y="282.5889">CreatedStimulus(stimulus: Stimulus, modified_audio: Audio)</text><ellipse cx="1483" cy="295.5391" fill="#84BE84" rx="3" ry="3" style="stroke:#038048;stroke-width:1.0;"/><text fill="#000000" font-family="sans-serif" font-size="14" lengthAdjust="spacing" textLength="90" x="1492" y="298.8857">str prompt()</text><ellipse cx="1483" cy="311.8359" fill="#84BE84" rx="3" ry="3" style="stroke:#038048;stroke-width:1.0;"/><text fill="#000000" font-family="sans-serif" font-size="14" lengthAdjust="spacing" textLength="83" x="1492" y="315.1826">str primer()</text><ellipse cx="1483" cy="328.1328" fill="#84BE84" rx="3" ry="3" style="stroke:#038048;stroke-width:1.0;"/><text fill="#000000" font-family="sans-serif" font-size="14" lengthAdjust="spacing" textLength="125" x="1492" y="331.4795">List[str] options()</text><ellipse cx="1483" cy="344.4297" fill="#84BE84" rx="3" ry="3" style="stroke:#038048;stroke-width:1.0;"/><text fill="#000000" font-family="sans-serif" font-size="14" lengthAdjust="spacing" textLength="270" x="1492" y="347.7764">List[Tuple[float, float]] time_stamps()</text></g><!--class EExperimentState--><g id="elem_EExperimentState"><rect codeLine="34" fill="#F1F1F1" height="145.7813" id="EExperimentState" rx="2.5" ry="2.5" style="stroke:#181818;stroke-width:0.5;" width="235" x="451.5" y="473"/><ellipse cx="497.75" cy="489" fill="#EB937F" rx="11" ry="11" style="stroke:#181818;stroke-width:1.0;"/><path d="M496.5469,489.875 L498,489.875 L498,489.9844 C498,490.3906 498.0313,490.5469 498.1094,490.7031 C498.2656,490.9531 498.5469,491.1094 498.8438,491.1094 C499.0938,491.1094 499.3594,490.9688 499.5156,490.75 C499.6406,490.5938 499.6719,490.4375 499.6719,489.9844 L499.6719,488.0625 C499.6719,487.9063 499.6719,487.8594 499.6563,487.7031 C499.5938,487.2344 499.2813,486.9219 498.8281,486.9219 C498.5781,486.9219 498.3125,487.0625 498.1406,487.2813 C498.0313,487.4531 498,487.6094 498,488.0625 L498,488.1875 L496.5469,488.1875 L496.5469,485.7813 L500.5313,485.7813 L500.5313,486.6406 C500.5313,487.0469 500.5625,487.2188 500.6406,487.375 C500.8125,487.625 501.0938,487.7813 501.375,487.7813 C501.6406,487.7813 501.9063,487.6406 502.0781,487.4219 C502.1875,487.25 502.2188,487.1094 502.2188,486.6406 L502.2188,484.0938 L494.5938,484.0938 C494.1563,484.0938 494.0313,484.1094 493.875,484.2031 C493.625,484.3594 493.4688,484.6563 493.4688,484.9375 C493.4688,485.2188 493.6094,485.4688 493.8281,485.6406 C493.9844,485.75 494.1719,485.7813 494.5938,485.7813 L494.8438,485.7813 L494.8438,492.2969 L494.5938,492.2969 C494.1875,492.2969 494.0313,492.3125 493.875,492.4219 C493.625,492.5938 493.4688,492.8594 493.4688,493.1563 C493.4688,493.4219 493.6094,493.6719 493.8281,493.8281 C493.9688,493.9531 494.2031,494 494.5938,494 L502.5938,494 L502.5938,491.4219 C502.5938,490.9844 502.5625,490.8438 502.4844,490.6875 C502.3125,490.4375 502.0313,490.2813 501.75,490.2813 C501.4844,490.2813 501.2188,490.3906 501.0469,490.6406 C500.9375,490.7969 500.9063,490.9375 500.9063,491.4219 L500.9063,492.2969 L496.5469,492.2969 L496.5469,489.875 Z " fill="#000000"/><text fill="#000000" font-family="sans-serif" font-size="14" lengthAdjust="spacing" textLength="134" x="518.25" y="493.8467">EExperimentState</text><line style="stroke:#181818;stroke-width:0.5;" x1="452.5" x2="685.5" y1="505" y2="505"/><text fill="#000000" font-family="sans-serif" font-size="14" lengthAdjust="spacing" textLength="66" x="457.5" y="521.9951">INACTIVE</text><text fill="#000000" font-family="sans-serif" font-size="14" lengthAdjust="spacing" textLength="108" x="457.5" y="538.292">INTRODUCTION</text><text fill="#000000" font-family="sans-serif" font-size="14" lengthAdjust="spacing" textLength="204" x="457.5" y="554.5889">RESTING_STATE_EYES_OPEN</text><text fill="#000000" font-family="sans-serif" font-size="14" lengthAdjust="spacing" textLength="223" x="457.5" y="570.8857">RESTING_STATE_EYES_CLOSED</text><text fill="#000000" font-family="sans-serif" font-size="14" lengthAdjust="spacing" textLength="206" x="457.5" y="587.1826">EXPERIMENT_INTRODUCTION</text><text fill="#000000" font-family="sans-serif" font-size="14" lengthAdjust="spacing" textLength="91" x="457.5" y="603.4795">EXPERIMENT</text><line style="stroke:#181818;stroke-width:0.5;" x1="452.5" x2="685.5" y1="610.7813" y2="610.7813"/></g><!--class EModelUpdateIdentifier--><g id="elem_EModelUpdateIdentifier"><rect codeLine="43" fill="#F1F1F1" height="96.8906" id="EModelUpdateIdentifier" rx="2.5" ry="2.5" style="stroke:#181818;stroke-width:0.5;" width="234" x="722" y="497.5"/><ellipse cx="750.95" cy="513.5" fill="#EB937F" rx="11" ry="11" style="stroke:#181818;stroke-width:1.0;"/><path d="M749.7469,514.375 L751.2,514.375 L751.2,514.4844 C751.2,514.8906 751.2313,515.0469 751.3094,515.2031 C751.4656,515.4531 751.7469,515.6094 752.0438,515.6094 C752.2938,515.6094 752.5594,515.4688 752.7156,515.25 C752.8406,515.0938 752.8719,514.9375 752.8719,514.4844 L752.8719,512.5625 C752.8719,512.4063 752.8719,512.3594 752.8563,512.2031 C752.7938,511.7344 752.4813,511.4219 752.0281,511.4219 C751.7781,511.4219 751.5125,511.5625 751.3406,511.7813 C751.2313,511.9531 751.2,512.1094 751.2,512.5625 L751.2,512.6875 L749.7469,512.6875 L749.7469,510.2813 L753.7313,510.2813 L753.7313,511.1406 C753.7313,511.5469 753.7625,511.7188 753.8406,511.875 C754.0125,512.125 754.2938,512.2813 754.575,512.2813 C754.8406,512.2813 755.1063,512.1406 755.2781,511.9219 C755.3875,511.75 755.4188,511.6094 755.4188,511.1406 L755.4188,508.5938 L747.7938,508.5938 C747.3563,508.5938 747.2313,508.6094 747.075,508.7031 C746.825,508.8594 746.6688,509.1563 746.6688,509.4375 C746.6688,509.7188 746.8094,509.9688 747.0281,510.1406 C747.1844,510.25 747.3719,510.2813 747.7938,510.2813 L748.0438,510.2813 L748.0438,516.7969 L747.7938,516.7969 C747.3875,516.7969 747.2313,516.8125 747.075,516.9219 C746.825,517.0938 746.6688,517.3594 746.6688,517.6563 C746.6688,517.9219 746.8094,518.1719 747.0281,518.3281 C747.1688,518.4531 747.4031,518.5 747.7938,518.5 L755.7938,518.5 L755.7938,515.9219 C755.7938,515.4844 755.7625,515.3438 755.6844,515.1875 C755.5125,514.9375 755.2313,514.7813 754.95,514.7813 C754.6844,514.7813 754.4188,514.8906 754.2469,515.1406 C754.1375,515.2969 754.1063,515.4375 754.1063,515.9219 L754.1063,516.7969 L749.7469,516.7969 L749.7469,514.375 Z " fill="#000000"/><text fill="#000000" font-family="sans-serif" font-size="14" lengthAdjust="spacing" textLength="171" x="768.05" y="518.3467">EModelUpdateIdentifier</text><line style="stroke:#181818;stroke-width:0.5;" x1="723" x2="955" y1="529.5" y2="529.5"/><text fill="#000000" font-family="sans-serif" font-size="14" lengthAdjust="spacing" textLength="109" x="728" y="546.4951">NEW_STIMULUS</text><text fill="#000000" font-family="sans-serif" font-size="14" lengthAdjust="spacing" textLength="94" x="728" y="562.792">NEW_PRIMER</text><text fill="#000000" font-family="sans-serif" font-size="14" lengthAdjust="spacing" textLength="222" x="728" y="579.0889">EXPERIMENT_STATE_CHANGED</text><line style="stroke:#181818;stroke-width:0.5;" x1="723" x2="955" y1="586.3906" y2="586.3906"/></g><!--class Audio--><g id="elem_Audio"><rect codeLine="1" fill="#F1F1F1" height="80.5938" id="Audio" rx="2.5" ry="2.5" style="stroke:#181818;stroke-width:0.5;" width="194" x="1532" y="738"/><ellipse cx="1604.75" cy="754" fill="#ADD1B2" rx="11" ry="11" style="stroke:#181818;stroke-width:1.0;"/><path d="M1607.0938,749.6719 C1606.1563,749.2344 1605.5625,749.0938 1604.6875,749.0938 C1602.0625,749.0938 1600.0625,751.1719 1600.0625,753.8906 L1600.0625,755.0156 C1600.0625,757.5938 1602.1719,759.4844 1605.0625,759.4844 C1606.2813,759.4844 1607.4375,759.1875 1608.1875,758.6406 C1608.7656,758.2344 1609.0938,757.7813 1609.0938,757.3906 C1609.0938,756.9375 1608.7031,756.5469 1608.2344,756.5469 C1608.0156,756.5469 1607.8125,756.625 1607.625,756.8125 C1607.1719,757.2969 1607.1719,757.2969 1606.9844,757.3906 C1606.5625,757.6563 1605.875,757.7813 1605.1094,757.7813 C1603.0625,757.7813 1601.7656,756.6875 1601.7656,754.9844 L1601.7656,753.8906 C1601.7656,752.1094 1603.0156,750.7969 1604.75,750.7969 C1605.3281,750.7969 1605.9375,750.9531 1606.4063,751.2031 C1606.8906,751.4844 1607.0625,751.7031 1607.1563,752.1094 C1607.2188,752.5156 1607.25,752.6406 1607.3906,752.7656 C1607.5313,752.9063 1607.7656,753.0156 1607.9844,753.0156 C1608.25,753.0156 1608.5156,752.875 1608.6875,752.6563 C1608.7969,752.5 1608.8281,752.3125 1608.8281,751.8906 L1608.8281,750.4688 C1608.8281,750.0313 1608.8125,749.9063 1608.7188,749.75 C1608.5625,749.4844 1608.2813,749.3438 1607.9844,749.3438 C1607.6875,749.3438 1607.4844,749.4375 1607.2656,749.75 L1607.0938,749.6719 Z " fill="#000000"/><text fill="#000000" font-family="sans-serif" font-size="14" lengthAdjust="spacing" textLength="40" x="1625.25" y="758.8467">Audio</text><line style="stroke:#181818;stroke-width:0.5;" x1="1533" x2="1725" y1="770" y2="770"/><ellipse cx="1543" cy="783.6484" fill="none" rx="3" ry="3" style="stroke:#038048;stroke-width:1.0;"/><text fill="#000000" font-family="sans-serif" font-size="14" lengthAdjust="spacing" textLength="143" x="1552" y="786.9951">NDArray[float] array</text><ellipse cx="1543" cy="799.9453" fill="none" rx="3" ry="3" style="stroke:#038048;stroke-width:1.0;"/><text fill="#000000" font-family="sans-serif" font-size="14" lengthAdjust="spacing" textLength="168" x="1552" y="803.292">int sampling_frequency</text><line style="stroke:#181818;stroke-width:0.5;" x1="1533" x2="1725" y1="810.5938" y2="810.5938"/></g><!--reverse link AObserver to Logger--><g id="link_AObserver_Logger"><path codeLine="31" d="M243.0885,324.2329 C242.1985,372.2629 240.826,446.419 239.812,501.126 " fill="none" id="AObserver-backto-Logger" style="stroke:#181818;stroke-width:1.0;"/><polygon fill="none" points="243.422,306.236,237.0895,324.1217,249.0875,324.3441,243.422,306.236" style="stroke:#181818;stroke-width:1.0;"/></g><!--reverse link Stimulus to Audio--><g id="link_Stimulus_Audio"><path codeLine="56" d="M1525.3092,612.6617 C1551.6192,654.4897 1580.67,700.674 1604.15,737.9954 " fill="none" id="Stimulus-backto-Audio" style="stroke:#181818;stroke-width:1.0;"/><polygon fill="#181818" points="1518.92,602.504,1518.7287,609.7126,1525.3092,612.6617,1525.5005,605.4531,1518.92,602.504" style="stroke:#181818;stroke-width:1.0;"/><text fill="#000000" font-family="sans-serif" font-size="13" lengthAdjust="spacing" textLength="35" x="1583" y="704.0669">audio</text><text fill="#000000" font-family="sans-serif" font-size="13" lengthAdjust="spacing" textLength="8" x="1514.8816" y="622.7679">1</text><text fill="#000000" font-family="sans-serif" font-size="13" lengthAdjust="spacing" textLength="8" x="1591.1914" y="726.8578">1</text></g><!--link Audio to CreatedStimulus--><g id="link_Audio_CreatedStimulus"><path codeLine="68" d="M1636.14,737.5537 C1639.04,720.7361 1642.34,700.941 1645,683 C1661.84,569.456 1676.6352,449.5525 1686.3452,367.1775 " fill="none" id="Audio-to-CreatedStimulus" style="stroke:#181818;stroke-width:1.0;"/><polygon fill="#181818" points="1687.75,355.26,1683.0751,360.7505,1686.3452,367.1775,1691.0201,361.687,1687.75,355.26" style="stroke:#181818;stroke-width:1.0;"/><text fill="#000000" font-family="sans-serif" font-size="13" lengthAdjust="spacing" textLength="98" x="1681" y="550.5669">modified_audio</text><text fill="#000000" font-family="sans-serif" font-size="13" lengthAdjust="spacing" textLength="8" x="1628.6404" y="726.9424">1</text><text fill="#000000" font-family="sans-serif" font-size="13" lengthAdjust="spacing" textLength="8" x="1678.5699" y="375.2345">1</text></g><!--reverse link CreatedStimulus to Stimulus--><g id="link_CreatedStimulus_Stimulus"><path codeLine="71" d="M1626.2378,364.6994 C1592.1478,407.9134 1558.38,450.711 1527.85,489.416 " fill="none" id="CreatedStimulus-backto-Stimulus" style="stroke:#181818;stroke-width:1.0;"/><polygon fill="#181818" points="1633.67,355.278,1626.8134,357.5113,1626.2378,364.6994,1633.0944,362.4661,1633.67,355.278" style="stroke:#181818;stroke-width:1.0;"/><text fill="#000000" font-family="sans-serif" font-size="13" lengthAdjust="spacing" textLength="7" x="1620.718" y="375.2541">*</text><text fill="#000000" font-family="sans-serif" font-size="13" lengthAdjust="spacing" textLength="8" x="1524.9558" y="478.2686">1</text></g><!--reverse link Model to CreatedStimulus--><g id="link_Model_CreatedStimulus"><path codeLine="74" d="M1181.215,293.8255 C1248.995,295.7835 1307.78,296.048 1374,294 C1405.59,293.023 1438.89,291.51 1471.63,289.743 " fill="none" id="Model-backto-CreatedStimulus" style="stroke:#181818;stroke-width:1.0;"/><polygon fill="#181818" points="1169.22,293.479,1175.102,297.6506,1181.215,293.8255,1175.333,289.6539,1169.22,293.479" style="stroke:#181818;stroke-width:1.0;"/><text fill="#000000" font-family="sans-serif" font-size="13" lengthAdjust="spacing" textLength="105" x="1268" y="290.0669">stimulus_history</text><text fill="#000000" font-family="sans-serif" font-size="13" lengthAdjust="spacing" textLength="8" x="1177.147" y="290.8242">1</text><text fill="#000000" font-family="sans-serif" font-size="13" lengthAdjust="spacing" textLength="7" x="1457.1202" y="287.0813">*</text></g><!--reverse link Model to CreatedStimulus--><g id="link_Model_CreatedStimulus"><path codeLine="83" d="M1181.2,274 C1282.5,274 1379.33,274 1471.69,274 " fill="none" id="Model-backto-CreatedStimulus-1" style="stroke:#181818;stroke-width:1.0;"/><polygon fill="#181818" points="1169.2,274,1175.2,278,1181.2,274,1175.2,270,1169.2,274" style="stroke:#181818;stroke-width:1.0;"/><text fill="#000000" font-family="sans-serif" font-size="13" lengthAdjust="spacing" textLength="98" x="1271.5" y="232.0669">created_stimuli</text><path d="M1191.5,241.1328 L1191.5,266.1328 L1449.5,266.1328 L1449.5,251.1328 L1439.5,241.1328 L1191.5,241.1328 " fill="#FEFFDD" style="stroke:#181818;stroke-width:0.5;"/><path d="M1439.5,241.1328 L1439.5,251.1328 L1449.5,251.1328 L1439.5,241.1328 " fill="#FEFFDD" style="stroke:#181818;stroke-width:0.5;"/><text fill="#000000" font-family="sans-serif" font-size="13" lengthAdjust="spacing" textLength="237" x="1197.5" y="258.1997">Created by calling  `create_stimuli()`</text><text fill="#000000" font-family="sans-serif" font-size="13" lengthAdjust="spacing" textLength="8" x="1177.1266" y="270.8886">1</text><text fill="#000000" font-family="sans-serif" font-size="13" lengthAdjust="spacing" textLength="7" x="1457.1822" y="270.8217">*</text></g><!--reverse link Model to EExperimentState--><g id="link_Model_EExperimentState"><path codeLine="75" d="M734.6958,367.5526 C724.3498,377.4716 722.707,379.234 713,389 C686.367,415.795 657.977,446.142 633.505,472.901 " fill="none" id="Model-backto-EExperimentState" style="stroke:#181818;stroke-width:1.0;"/><polygon fill="none" points="743.358,359.248,736.2587,360.5129,734.6958,367.5526,741.7951,366.2877,743.358,359.248" style="stroke:#181818;stroke-width:1.0;"/><text fill="#000000" font-family="sans-serif" font-size="13" lengthAdjust="spacing" textLength="114" x="714" y="402.0669">experiment_state</text><text fill="#000000" font-family="sans-serif" font-size="13" lengthAdjust="spacing" textLength="7" x="728.1817" y="379.2764">*</text><text fill="#000000" font-family="sans-serif" font-size="13" lengthAdjust="spacing" textLength="8" x="631.461" y="462.0512">1</text></g><!--link AObserver to Model--><g id="link_AObserver_Model"><path codeLine="76" d="M466.202,274 C477.727,274 477.252,274 488.777,274 " fill="none" id="AObserver-to-Model" style="stroke:#181818;stroke-width:1.0;"/><polygon fill="none" points="500.777,274,494.777,270,488.777,274,494.777,278,500.777,274" style="stroke:#181818;stroke-width:1.0;"/><text fill="#000000" font-family="sans-serif" font-size="13" lengthAdjust="spacing" textLength="7" x="474.3132" y="270.7944">*</text><text fill="#000000" font-family="sans-serif" font-size="13" lengthAdjust="spacing" textLength="8" x="484.8499" y="270.8886">1</text></g><!--link Model to EModelUpdateIdentifier--><g id="link_Model_EModelUpdateIdentifier"><path codeLine="77" d="M836.249,359.319 C836.923,404.809 837.6411,453.2817 838.2061,491.4207 " fill="none" id="Model-to-EModelUpdateIdentifier" style="stroke:#181818;stroke-width:1.0;stroke-dasharray:7.0,7.0;"/><polygon fill="#181818" points="838.295,497.42,842.1612,488.3617,838.2209,492.4205,834.1621,488.4802,838.295,497.42" style="stroke:#181818;stroke-width:1.0;"/><text fill="#000000" font-family="sans-serif" font-size="13" lengthAdjust="spacing" textLength="30" x="838" y="402.0669">uses</text></g><!--reverse link constants to AObserver--><g id="link_constants_AObserver"><path codeLine="79" d="M416.3895,423.9862 C415.852,422.2545 416.8221,425.6289 416.2052,423.9318 C414.9715,420.5378 413.5751,417.219 412,414 C388.957,366.905 341.674,330.084 303.124,306.204 " fill="none" id="constants-backto-AObserver" style="stroke:#181818;stroke-width:1.0;stroke-dasharray:7.0,7.0;"/><polygon fill="#181818" points="418.1357,429.7265,419.3433,419.9519,416.6805,424.9429,411.6896,422.2801,418.1357,429.7265" style="stroke:#181818;stroke-width:1.0;"/><text fill="#000000" font-family="sans-serif" font-size="13" lengthAdjust="spacing" textLength="30" x="408" y="402.0669">uses</text></g><!--link AAudioTaggerFactory to Model--><g id="link_AAudioTaggerFactory_Model"><path codeLine="81" d="M835,105.094 C835,127.612 835,147.191 835,176.895 " fill="none" id="AAudioTaggerFactory-to-Model" style="stroke:#181818;stroke-width:1.0;"/><polygon fill="#181818" points="835,188.895,839,182.895,835,176.895,831,182.895,835,188.895" style="stroke:#181818;stroke-width:1.0;"/><text fill="#000000" font-family="sans-serif" font-size="13" lengthAdjust="spacing" textLength="7" x="827.2781" y="125.3102">*</text><text fill="#000000" font-family="sans-serif" font-size="13" lengthAdjust="spacing" textLength="8" x="826.6563" y="177.9946">1</text></g><!--reverse link Model to Stimulus--><g id="link_Model_Stimulus"><path codeLine="82" d="M1048.3096,363.743 C1150.2496,406.149 1259.95,451.789 1350.21,489.342 " fill="none" id="Model-backto-Stimulus" style="stroke:#181818;stroke-width:1.0;"/><polygon fill="#181818" points="1037.23,359.134,1041.2335,365.1317,1048.3096,363.743,1044.3061,357.7453,1037.23,359.134" style="stroke:#181818;stroke-width:1.0;"/><text fill="#000000" font-family="sans-serif" font-size="13" lengthAdjust="spacing" textLength="73" x="1141" y="402.0669">raw_stimuli</text><text fill="#000000" font-family="sans-serif" font-size="13" lengthAdjust="spacing" textLength="8" x="1046.8849" y="379.4417">1</text><text fill="#000000" font-family="sans-serif" font-size="13" lengthAdjust="spacing" textLength="7" x="1326.4778" y="478.5863">*</text></g><!--SRC=[dLRRRk8m47tFLrWyXPPKsjUeGa8qsqMYW23iHHLAJMAerH1d7QTTrENVTsmdiGdPYxOFGCSpSywS6KyIfxWeqAXCA4Fl3eA_wzdTY7DyVDob38iDml8VVK8pWGfyo5EQxQCT9zzBaiL7v-JaE7x1Uu8mv16C7oE1ztjmqYdnjX0SnmB56aoXXU11-4SmWty53H3s8Ngl8qyevWGB4ZK0XQ27CYqBLrgOhoiO86sc4J0b_1MdXO-cj12FOPcdH5SqGBgmle8y0Vk6_e4b9Asuj4dFjmLabAGgga3sbT44bNa2p5pum40ZEmuGJKWcw8uIxgFWGUPSAvz9Ow-nrPS6K7xezbRZu6rAXaC3vQagWD46vPmU28-UmG12ECP5PN0vVgl4eLNjgqggpG1To1VjL0CegONgQ4wbbC9G5MSCgZZ-JyL6DKxs04Uu-qh9cs_a7SZwW90u-WYQs0xBo9jfVVt3HsCr7KbTQLUKbktVO-9ddEr9H7xaH4Pc0d1bdpK3-0ML1itXIbewkZfbKiYwguGFXzRyU0iidX4WC2wAAA6SABqD4HtjfanT9kFX8navfIyDfFpKtiWhlPz38wXcKqzup38WducYea6oyd1HXqLnCXkDmyddm3A4o_dT6eppMMDS1gjmChkFLk4e3ABWMx2AvelWZ-VZwNmLt3KUmTT5i9my1BCmwaGmvxR6cdtdl5arp88lW3nvM4_NgpFZGcPSTd7GHCUVHhFxYkJfihVrvDWR0Mue330xvA9jazDdTRQvpYmN59hIEkhOLni4U4JEtY4lB4uDZTw77hhoFFKzqbjHBKURSslexM5iRFKLCPJcYYDEDUEo88bQyB25KhmbgTb1rwtyrdMhJGEvPMMBaiXUtVqk3Tr-bugszKB7YyE_AUdQLwWjZvOqFTFqdBxZT0TUcLxKHlcaqLjUf-MUSck5-gZNBETgn_VgCF1cNfMrVMaXhhshUXOSWoeqdjaC-lJcPlYREmGfeTT5pt7Cq-yc1VTcYnWFkx2o0hfyb9ovQIzJj_Nawl2xa4c_4IHD23oL268PWfUJbsQxe-qHnJYLBom8FLKl4LM4st_w1G00]--></g></svg>