<?xml version="1.0" encoding="us-ascii" standalone="no"?><svg xmlns="http://www.w3.org/2000/svg" xmlns:xlink="http://www.w3.org/1999/xlink" contentStyleType="text/css" height="715px" preserveAspectRatio="none" style="width:1678px;height:715px;background:#FFFFFF;" version="1.1" viewBox="0 0 1678 715" width="1678px" zoomAndPan="magnify"><defs/><g><!--cluster auditory_tagging--><g id="cluster_auditory_tagging"><path d="M978.5,6 L1118.5,6 A3.75,3.75 0 0 1 1121,8.5 L1128,28.2969 L1545.5,28.2969 A2.5,2.5 0 0 1 1548,30.7969 L1548,135.5 A2.5,2.5 0 0 1 1545.5,138 L978.5,138 A2.5,2.5 0 0 1 976,135.5 L976,8.5 A2.5,2.5 0 0 1 978.5,6 " fill="none" style="stroke:#000000;stroke-width:1.5;"/><line style="stroke:#000000;stroke-width:1.5;" x1="976" x2="1128" y1="28.2969" y2="28.2969"/><text fill="#000000" font-family="sans-serif" font-size="14" font-weight="bold" lengthAdjust="spacing" textLength="139" x="980" y="20.9951">auditory_tagging</text></g><!--cluster model--><g id="cluster_model"><path d="M8.5,187 L58.5,187 A3.75,3.75 0 0 1 61,189.5 L68,209.2969 L1418.5,209.2969 A2.5,2.5 0 0 1 1421,211.7969 L1421,705.5 A2.5,2.5 0 0 1 1418.5,708 L8.5,708 A2.5,2.5 0 0 1 6,705.5 L6,189.5 A2.5,2.5 0 0 1 8.5,187 " fill="none" style="stroke:#000000;stroke-width:1.5;"/><line style="stroke:#000000;stroke-width:1.5;" x1="6" x2="68" y1="209.2969" y2="209.2969"/><text fill="#000000" font-family="sans-serif" font-size="14" font-weight="bold" lengthAdjust="spacing" textLength="49" x="10" y="201.9951">model</text></g><!--cluster constants--><g id="cluster_constants"><path d="M375.5,463 L459.5,463 A3.75,3.75 0 0 1 462,465.5 L469,485.2969 L942.5,485.2969 A2.5,2.5 0 0 1 945,487.7969 L945,673.5 A2.5,2.5 0 0 1 942.5,676 L375.5,676 A2.5,2.5 0 0 1 373,673.5 L373,465.5 A2.5,2.5 0 0 1 375.5,463 " fill="none" style="stroke:#000000;stroke-width:1.5;"/><line style="stroke:#000000;stroke-width:1.5;" x1="373" x2="469" y1="485.2969" y2="485.2969"/><text fill="#000000" font-family="sans-serif" font-size="14" font-weight="bold" lengthAdjust="spacing" textLength="83" x="377" y="477.9951">constants</text></g><!--class AAudioTagger--><g id="elem_AAudioTagger"><rect codeLine="7" fill="#F1F1F1" height="80.5938" id="AAudioTagger" rx="2.5" ry="2.5" style="stroke:#181818;stroke-width:0.5;" width="539" x="992.5" y="41"/><ellipse cx="1206.75" cy="57" fill="#A9DCDF" rx="11" ry="11" style="stroke:#181818;stroke-width:1.0;"/><path d="M1208.8281,58.8125 L1209.2188,59.7969 L1208.8281,59.7969 C1208.375,59.7969 1208.2656,59.8125 1208.1094,59.9219 C1207.8594,60.0781 1207.7031,60.3594 1207.7031,60.6563 C1207.7031,60.9219 1207.8438,61.1719 1208.0625,61.3281 C1208.2031,61.4531 1208.4063,61.5 1208.8281,61.5 L1211.1875,61.5 C1211.5469,61.5 1211.7656,61.4688 1211.9063,61.375 C1212.1563,61.2344 1212.3125,60.9375 1212.3125,60.6563 C1212.3125,60.375 1212.1719,60.125 1211.9531,59.9688 C1211.7813,59.8281 1211.625,59.7969 1211.1563,59.7969 L1207.7656,51.5938 L1204.0938,51.5938 C1203.6406,51.5938 1203.5156,51.6094 1203.3594,51.7031 C1203.1094,51.875 1202.9531,52.1563 1202.9531,52.4375 C1202.9531,52.7188 1203.0938,52.9688 1203.3125,53.1406 C1203.4844,53.25 1203.6563,53.2813 1204.0938,53.2813 L1205.1719,53.2813 L1202.5313,59.7969 C1202.1094,59.7969 1201.9531,59.8125 1201.7969,59.9219 C1201.5469,60.0781 1201.3906,60.3594 1201.3906,60.6563 C1201.3906,61.2188 1201.7656,61.5 1202.5156,61.5 L1204.7813,61.5 C1205.1406,61.5 1205.3594,61.4688 1205.4844,61.375 C1205.75,61.2344 1205.8906,60.9375 1205.8906,60.6563 C1205.8906,60.375 1205.7656,60.125 1205.5469,59.9531 C1205.375,59.8281 1205.2344,59.7969 1204.7813,59.7969 L1204.3906,59.7969 L1204.7813,58.8125 L1208.8281,58.8125 Z M1208.125,57.1094 L1205.4531,57.1094 L1206.7969,53.8438 L1208.125,57.1094 Z " fill="#000000"/><text fill="#000000" font-family="sans-serif" font-size="14" font-style="italic" lengthAdjust="spacing" textLength="102" x="1227.25" y="61.8467">AAudioTagger</text><line style="stroke:#181818;stroke-width:0.5;" x1="993.5" x2="1530.5" y1="73" y2="73"/><line style="stroke:#181818;stroke-width:0.5;" x1="993.5" x2="1530.5" y1="81" y2="81"/><polygon fill="#FFFF44" points="1003.5,89.6484,1007.5,93.6484,1003.5,97.6484,999.5,93.6484" style="stroke:#B38D22;stroke-width:1.0;"/><text fill="#000000" font-family="sans-serif" font-size="14" font-style="italic" lengthAdjust="spacing" textLength="513" x="1012.5" y="97.9951">NDArray[float] modify_chunk(audio_array_chunk: NDArray[float], fs: int))</text><ellipse cx="1003.5" cy="110.9453" fill="#84BE84" rx="3" ry="3" style="stroke:#038048;stroke-width:1.0;"/><text fill="#000000" font-family="sans-serif" font-size="14" lengthAdjust="spacing" textLength="195" x="1012.5" y="114.292">Audio create(audio, stimuli)</text></g><!--class AObserver--><g id="elem_AObserver"><rect codeLine="14" fill="#F1F1F1" height="64.2969" id="AObserver" rx="2.5" ry="2.5" style="stroke:#181818;stroke-width:0.5;" width="444" x="22" y="275"/><ellipse cx="202.25" cy="291" fill="#A9DCDF" rx="11" ry="11" style="stroke:#181818;stroke-width:1.0;"/><path d="M204.3281,292.8125 L204.7188,293.7969 L204.3281,293.7969 C203.875,293.7969 203.7656,293.8125 203.6094,293.9219 C203.3594,294.0781 203.2031,294.3594 203.2031,294.6563 C203.2031,294.9219 203.3438,295.1719 203.5625,295.3281 C203.7031,295.4531 203.9063,295.5 204.3281,295.5 L206.6875,295.5 C207.0469,295.5 207.2656,295.4688 207.4063,295.375 C207.6563,295.2344 207.8125,294.9375 207.8125,294.6563 C207.8125,294.375 207.6719,294.125 207.4531,293.9688 C207.2813,293.8281 207.125,293.7969 206.6563,293.7969 L203.2656,285.5938 L199.5938,285.5938 C199.1406,285.5938 199.0156,285.6094 198.8594,285.7031 C198.6094,285.875 198.4531,286.1563 198.4531,286.4375 C198.4531,286.7188 198.5938,286.9688 198.8125,287.1406 C198.9844,287.25 199.1563,287.2813 199.5938,287.2813 L200.6719,287.2813 L198.0313,293.7969 C197.6094,293.7969 197.4531,293.8125 197.2969,293.9219 C197.0469,294.0781 196.8906,294.3594 196.8906,294.6563 C196.8906,295.2188 197.2656,295.5 198.0156,295.5 L200.2813,295.5 C200.6406,295.5 200.8594,295.4688 200.9844,295.375 C201.25,295.2344 201.3906,294.9375 201.3906,294.6563 C201.3906,294.375 201.2656,294.125 201.0469,293.9531 C200.875,293.8281 200.7344,293.7969 200.2813,293.7969 L199.8906,293.7969 L200.2813,292.8125 L204.3281,292.8125 Z M203.625,291.1094 L200.9531,291.1094 L202.2969,287.8438 L203.625,291.1094 Z " fill="#000000"/><text fill="#000000" font-family="sans-serif" font-size="14" font-style="italic" lengthAdjust="spacing" textLength="75" x="222.75" y="295.8467">AObserver</text><line style="stroke:#181818;stroke-width:0.5;" x1="23" x2="465" y1="307" y2="307"/><line style="stroke:#181818;stroke-width:0.5;" x1="23" x2="465" y1="315" y2="315"/><ellipse cx="33" cy="328.6484" fill="#84BE84" rx="3" ry="3" style="stroke:#038048;stroke-width:1.0;"/><text fill="#000000" font-family="sans-serif" font-size="14" lengthAdjust="spacing" textLength="418" x="42" y="331.9951">void update(data: Any, identifier: EModelUpdateIdentifier)</text></g><!--class Model--><g id="elem_Model"><rect codeLine="18" fill="#F1F1F1" height="170.3438" id="Model" rx="2.5" ry="2.5" style="stroke:#181818;stroke-width:0.5;" width="476" x="501" y="222"/><ellipse cx="696.25" cy="242.1328" fill="#ADD1B2" rx="11" ry="11" style="stroke:#181818;stroke-width:1.0;"/><path d="M698.5938,237.8047 C697.6563,237.3672 697.0625,237.2266 696.1875,237.2266 C693.5625,237.2266 691.5625,239.3047 691.5625,242.0234 L691.5625,243.1484 C691.5625,245.7266 693.6719,247.6172 696.5625,247.6172 C697.7813,247.6172 698.9375,247.3203 699.6875,246.7734 C700.2656,246.3672 700.5938,245.9141 700.5938,245.5234 C700.5938,245.0703 700.2031,244.6797 699.7344,244.6797 C699.5156,244.6797 699.3125,244.7578 699.125,244.9453 C698.6719,245.4297 698.6719,245.4297 698.4844,245.5234 C698.0625,245.7891 697.375,245.9141 696.6094,245.9141 C694.5625,245.9141 693.2656,244.8203 693.2656,243.1172 L693.2656,242.0234 C693.2656,240.2422 694.5156,238.9297 696.25,238.9297 C696.8281,238.9297 697.4375,239.0859 697.9063,239.3359 C698.3906,239.6172 698.5625,239.8359 698.6563,240.2422 C698.7188,240.6484 698.75,240.7734 698.8906,240.8984 C699.0313,241.0391 699.2656,241.1484 699.4844,241.1484 C699.75,241.1484 700.0156,241.0078 700.1875,240.7891 C700.2969,240.6328 700.3281,240.4453 700.3281,240.0234 L700.3281,238.6016 C700.3281,238.1641 700.3125,238.0391 700.2188,237.8828 C700.0625,237.6172 699.7813,237.4766 699.4844,237.4766 C699.1875,237.4766 698.9844,237.5703 698.7656,237.8828 L698.5938,237.8047 Z " fill="#000000"/><text fill="#000000" font-family="sans-serif" font-size="12" font-style="italic" lengthAdjust="spacing" textLength="81" x="714.75" y="238.1387">&#171;Observable&#187;</text><text fill="#000000" font-family="sans-serif" font-size="14" lengthAdjust="spacing" textLength="43" x="733.75" y="253.9639">Model</text><line style="stroke:#181818;stroke-width:0.5;" x1="502" x2="976" y1="262.2656" y2="262.2656"/><rect fill="none" height="6" style="stroke:#C82930;stroke-width:1.0;" width="6" x="509" y="272.9141"/><text fill="#000000" font-family="sans-serif" font-size="14" lengthAdjust="spacing" textLength="166" x="521" y="279.2607">List[str] primer_history</text><line style="stroke:#181818;stroke-width:0.5;" x1="502" x2="976" y1="286.5625" y2="286.5625"/><rect fill="#F24D5C" height="6" style="stroke:#C82930;stroke-width:1.0;" width="6" x="509" y="297.2109"/><text fill="#000000" font-family="sans-serif" font-size="14" lengthAdjust="spacing" textLength="265" x="521" y="303.5576">Model(stimuli: List[CreatedStimulus])</text><rect fill="#F24D5C" height="6" style="stroke:#C82930;stroke-width:1.0;" width="6" x="509" y="313.5078"/><text fill="#000000" font-family="sans-serif" font-size="14" lengthAdjust="spacing" textLength="410" x="521" y="319.8545">void notify(data: Any, identifier: EModelUpdateIdentifier)</text><ellipse cx="512" cy="332.8047" fill="#84BE84" rx="3" ry="3" style="stroke:#038048;stroke-width:1.0;"/><text fill="#000000" font-family="sans-serif" font-size="14" lengthAdjust="spacing" textLength="309" x="521" y="336.1514">void register(view: AObserver, priority: int)</text><ellipse cx="512" cy="349.1016" fill="#84BE84" rx="3" ry="3" style="stroke:#038048;stroke-width:1.0;"/><text fill="#000000" font-family="sans-serif" font-size="14" lengthAdjust="spacing" textLength="326" x="521" y="352.4482">void new_stimulus(stimulus: CreatedStimulus)</text><ellipse cx="512" cy="365.3984" fill="#84BE84" rx="3" ry="3" style="stroke:#038048;stroke-width:1.0;"/><text fill="#000000" font-family="sans-serif" font-size="14" lengthAdjust="spacing" textLength="316" x="521" y="368.7451">void new_primer(stimulus: CreatedStimulus)</text><ellipse cx="512" cy="381.6953" fill="#84BE84" rx="3" ry="3" style="stroke:#038048;stroke-width:1.0;"/><text fill="#000000" font-family="sans-serif" font-size="14" lengthAdjust="spacing" textLength="450" x="521" y="385.042">void change_experiment_state(new_state: EExperimentState)</text></g><!--class Logger--><g id="elem_Logger"><rect codeLine="28" fill="#F1F1F1" height="88.8594" id="Logger" rx="2.5" ry="2.5" style="stroke:#181818;stroke-width:0.5;" width="254" x="92" y="534.5"/><ellipse cx="182.75" cy="554.6328" fill="#ADD1B2" rx="11" ry="11" style="stroke:#181818;stroke-width:1.0;"/><path d="M185.0938,550.3047 C184.1563,549.8672 183.5625,549.7266 182.6875,549.7266 C180.0625,549.7266 178.0625,551.8047 178.0625,554.5234 L178.0625,555.6484 C178.0625,558.2266 180.1719,560.1172 183.0625,560.1172 C184.2813,560.1172 185.4375,559.8203 186.1875,559.2734 C186.7656,558.8672 187.0938,558.4141 187.0938,558.0234 C187.0938,557.5703 186.7031,557.1797 186.2344,557.1797 C186.0156,557.1797 185.8125,557.2578 185.625,557.4453 C185.1719,557.9297 185.1719,557.9297 184.9844,558.0234 C184.5625,558.2891 183.875,558.4141 183.1094,558.4141 C181.0625,558.4141 179.7656,557.3203 179.7656,555.6172 L179.7656,554.5234 C179.7656,552.7422 181.0156,551.4297 182.75,551.4297 C183.3281,551.4297 183.9375,551.5859 184.4063,551.8359 C184.8906,552.1172 185.0625,552.3359 185.1563,552.7422 C185.2188,553.1484 185.25,553.2734 185.3906,553.3984 C185.5313,553.5391 185.7656,553.6484 185.9844,553.6484 C186.25,553.6484 186.5156,553.5078 186.6875,553.2891 C186.7969,553.1328 186.8281,552.9453 186.8281,552.5234 L186.8281,551.1016 C186.8281,550.6641 186.8125,550.5391 186.7188,550.3828 C186.5625,550.1172 186.2813,549.9766 185.9844,549.9766 C185.6875,549.9766 185.4844,550.0703 185.2656,550.3828 L185.0938,550.3047 Z " fill="#000000"/><text fill="#000000" font-family="sans-serif" font-size="12" font-style="italic" lengthAdjust="spacing" textLength="68" x="201.25" y="550.6387">&#171;Observer&#187;</text><text fill="#000000" font-family="sans-serif" font-size="14" lengthAdjust="spacing" textLength="50" x="210.25" y="566.4639">Logger</text><line style="stroke:#181818;stroke-width:0.5;" x1="93" x2="345" y1="574.7656" y2="574.7656"/><rect fill="none" height="6" style="stroke:#C82930;stroke-width:1.0;" width="6" x="100" y="585.4141"/><text fill="#000000" font-family="sans-serif" font-size="14" lengthAdjust="spacing" textLength="166" x="112" y="591.7607">Path exports_directory</text><line style="stroke:#181818;stroke-width:0.5;" x1="93" x2="345" y1="599.0625" y2="599.0625"/><ellipse cx="103" cy="612.7109" fill="#84BE84" rx="3" ry="3" style="stroke:#038048;stroke-width:1.0;"/><text fill="#000000" font-family="sans-serif" font-size="14" lengthAdjust="spacing" textLength="228" x="112" y="616.0576">Logger(target_folder: PathLike)</text></g><!--class AStimulus--><g id="elem_AStimulus"><rect codeLine="51" fill="#F1F1F1" height="113.1875" id="AStimulus" rx="2.5" ry="2.5" style="stroke:#181818;stroke-width:0.5;" width="286" x="1119" y="250.5"/><ellipse cx="1222.25" cy="266.5" fill="#A9DCDF" rx="11" ry="11" style="stroke:#181818;stroke-width:1.0;"/><path d="M1224.3281,268.3125 L1224.7188,269.2969 L1224.3281,269.2969 C1223.875,269.2969 1223.7656,269.3125 1223.6094,269.4219 C1223.3594,269.5781 1223.2031,269.8594 1223.2031,270.1563 C1223.2031,270.4219 1223.3438,270.6719 1223.5625,270.8281 C1223.7031,270.9531 1223.9063,271 1224.3281,271 L1226.6875,271 C1227.0469,271 1227.2656,270.9688 1227.4063,270.875 C1227.6563,270.7344 1227.8125,270.4375 1227.8125,270.1563 C1227.8125,269.875 1227.6719,269.625 1227.4531,269.4688 C1227.2813,269.3281 1227.125,269.2969 1226.6563,269.2969 L1223.2656,261.0938 L1219.5938,261.0938 C1219.1406,261.0938 1219.0156,261.1094 1218.8594,261.2031 C1218.6094,261.375 1218.4531,261.6563 1218.4531,261.9375 C1218.4531,262.2188 1218.5938,262.4688 1218.8125,262.6406 C1218.9844,262.75 1219.1563,262.7813 1219.5938,262.7813 L1220.6719,262.7813 L1218.0313,269.2969 C1217.6094,269.2969 1217.4531,269.3125 1217.2969,269.4219 C1217.0469,269.5781 1216.8906,269.8594 1216.8906,270.1563 C1216.8906,270.7188 1217.2656,271 1218.0156,271 L1220.2813,271 C1220.6406,271 1220.8594,270.9688 1220.9844,270.875 C1221.25,270.7344 1221.3906,270.4375 1221.3906,270.1563 C1221.3906,269.875 1221.2656,269.625 1221.0469,269.4531 C1220.875,269.3281 1220.7344,269.2969 1220.2813,269.2969 L1219.8906,269.2969 L1220.2813,268.3125 L1224.3281,268.3125 Z M1223.625,266.6094 L1220.9531,266.6094 L1222.2969,263.3438 L1223.625,266.6094 Z " fill="#000000"/><text fill="#000000" font-family="sans-serif" font-size="14" font-style="italic" lengthAdjust="spacing" textLength="71" x="1242.75" y="271.3467">AStimulus</text><line style="stroke:#181818;stroke-width:0.5;" x1="1120" x2="1404" y1="282.5" y2="282.5"/><ellipse cx="1130" cy="296.1484" fill="none" rx="3" ry="3" style="stroke:#038048;stroke-width:1.0;"/><text fill="#000000" font-family="sans-serif" font-size="14" lengthAdjust="spacing" textLength="80" x="1139" y="299.4951">str prompt</text><ellipse cx="1130" cy="312.4453" fill="none" rx="3" ry="3" style="stroke:#038048;stroke-width:1.0;"/><text fill="#000000" font-family="sans-serif" font-size="14" lengthAdjust="spacing" textLength="73" x="1139" y="315.792">str primer</text><ellipse cx="1130" cy="328.7422" fill="none" rx="3" ry="3" style="stroke:#038048;stroke-width:1.0;"/><text fill="#000000" font-family="sans-serif" font-size="14" lengthAdjust="spacing" textLength="115" x="1139" y="332.0889">List[str] options</text><ellipse cx="1130" cy="345.0391" fill="none" rx="3" ry="3" style="stroke:#038048;stroke-width:1.0;"/><text fill="#000000" font-family="sans-serif" font-size="14" lengthAdjust="spacing" textLength="260" x="1139" y="348.3857">List[Tuple[float, float]] time_stamps</text><line style="stroke:#181818;stroke-width:0.5;" x1="1120" x2="1404" y1="355.6875" y2="355.6875"/></g><!--class Stimulus--><g id="elem_Stimulus"><rect codeLine="61" fill="#F1F1F1" height="64.2969" id="Stimulus" rx="2.5" ry="2.5" style="stroke:#181818;stroke-width:0.5;" width="142" x="990" y="547"/><ellipse cx="1027.05" cy="563" fill="#ADD1B2" rx="11" ry="11" style="stroke:#181818;stroke-width:1.0;"/><path d="M1029.3938,558.6719 C1028.4563,558.2344 1027.8625,558.0938 1026.9875,558.0938 C1024.3625,558.0938 1022.3625,560.1719 1022.3625,562.8906 L1022.3625,564.0156 C1022.3625,566.5938 1024.4719,568.4844 1027.3625,568.4844 C1028.5813,568.4844 1029.7375,568.1875 1030.4875,567.6406 C1031.0656,567.2344 1031.3938,566.7813 1031.3938,566.3906 C1031.3938,565.9375 1031.0031,565.5469 1030.5344,565.5469 C1030.3156,565.5469 1030.1125,565.625 1029.925,565.8125 C1029.4719,566.2969 1029.4719,566.2969 1029.2844,566.3906 C1028.8625,566.6563 1028.175,566.7813 1027.4094,566.7813 C1025.3625,566.7813 1024.0656,565.6875 1024.0656,563.9844 L1024.0656,562.8906 C1024.0656,561.1094 1025.3156,559.7969 1027.05,559.7969 C1027.6281,559.7969 1028.2375,559.9531 1028.7063,560.2031 C1029.1906,560.4844 1029.3625,560.7031 1029.4563,561.1094 C1029.5188,561.5156 1029.55,561.6406 1029.6906,561.7656 C1029.8313,561.9063 1030.0656,562.0156 1030.2844,562.0156 C1030.55,562.0156 1030.8156,561.875 1030.9875,561.6563 C1031.0969,561.5 1031.1281,561.3125 1031.1281,560.8906 L1031.1281,559.4688 C1031.1281,559.0313 1031.1125,558.9063 1031.0188,558.75 C1030.8625,558.4844 1030.5813,558.3438 1030.2844,558.3438 C1029.9875,558.3438 1029.7844,558.4375 1029.5656,558.75 L1029.3938,558.6719 Z " fill="#000000"/><text fill="#000000" font-family="sans-serif" font-size="14" lengthAdjust="spacing" textLength="61" x="1045.95" y="567.8467">Stimulus</text><line style="stroke:#181818;stroke-width:0.5;" x1="991" x2="1131" y1="579" y2="579"/><ellipse cx="1001" cy="592.6484" fill="none" rx="3" ry="3" style="stroke:#038048;stroke-width:1.0;"/><text fill="#000000" font-family="sans-serif" font-size="14" lengthAdjust="spacing" textLength="116" x="1010" y="595.9951">int target_index</text><line style="stroke:#181818;stroke-width:0.5;" x1="991" x2="1131" y1="603.2969" y2="603.2969"/></g><!--class AttentionCheckStimulus--><g id="elem_AttentionCheckStimulus"><rect codeLine="66" fill="#F1F1F1" height="48" id="AttentionCheckStimulus" rx="2.5" ry="2.5" style="stroke:#181818;stroke-width:0.5;" width="209" x="1167.5" y="555"/><ellipse cx="1182.5" cy="571" fill="#ADD1B2" rx="11" ry="11" style="stroke:#181818;stroke-width:1.0;"/><path d="M1184.8438,566.6719 C1183.9063,566.2344 1183.3125,566.0938 1182.4375,566.0938 C1179.8125,566.0938 1177.8125,568.1719 1177.8125,570.8906 L1177.8125,572.0156 C1177.8125,574.5938 1179.9219,576.4844 1182.8125,576.4844 C1184.0313,576.4844 1185.1875,576.1875 1185.9375,575.6406 C1186.5156,575.2344 1186.8438,574.7813 1186.8438,574.3906 C1186.8438,573.9375 1186.4531,573.5469 1185.9844,573.5469 C1185.7656,573.5469 1185.5625,573.625 1185.375,573.8125 C1184.9219,574.2969 1184.9219,574.2969 1184.7344,574.3906 C1184.3125,574.6563 1183.625,574.7813 1182.8594,574.7813 C1180.8125,574.7813 1179.5156,573.6875 1179.5156,571.9844 L1179.5156,570.8906 C1179.5156,569.1094 1180.7656,567.7969 1182.5,567.7969 C1183.0781,567.7969 1183.6875,567.9531 1184.1563,568.2031 C1184.6406,568.4844 1184.8125,568.7031 1184.9063,569.1094 C1184.9688,569.5156 1185,569.6406 1185.1406,569.7656 C1185.2813,569.9063 1185.5156,570.0156 1185.7344,570.0156 C1186,570.0156 1186.2656,569.875 1186.4375,569.6563 C1186.5469,569.5 1186.5781,569.3125 1186.5781,568.8906 L1186.5781,567.4688 C1186.5781,567.0313 1186.5625,566.9063 1186.4688,566.75 C1186.3125,566.4844 1186.0313,566.3438 1185.7344,566.3438 C1185.4375,566.3438 1185.2344,566.4375 1185.0156,566.75 L1184.8438,566.6719 Z " fill="#000000"/><text fill="#000000" font-family="sans-serif" font-size="14" lengthAdjust="spacing" textLength="177" x="1196.5" y="575.8467">AttentionCheckStimulus</text><line style="stroke:#181818;stroke-width:0.5;" x1="1168.5" x2="1375.5" y1="587" y2="587"/><line style="stroke:#181818;stroke-width:0.5;" x1="1168.5" x2="1375.5" y1="595" y2="595"/></g><!--class EExperimentState--><g id="elem_EExperimentState"><rect codeLine="35" fill="#F1F1F1" height="145.7813" id="EExperimentState" rx="2.5" ry="2.5" style="stroke:#181818;stroke-width:0.5;" width="235" x="416.5" y="506"/><ellipse cx="462.75" cy="522" fill="#EB937F" rx="11" ry="11" style="stroke:#181818;stroke-width:1.0;"/><path d="M461.5469,522.875 L463,522.875 L463,522.9844 C463,523.3906 463.0313,523.5469 463.1094,523.7031 C463.2656,523.9531 463.5469,524.1094 463.8438,524.1094 C464.0938,524.1094 464.3594,523.9688 464.5156,523.75 C464.6406,523.5938 464.6719,523.4375 464.6719,522.9844 L464.6719,521.0625 C464.6719,520.9063 464.6719,520.8594 464.6563,520.7031 C464.5938,520.2344 464.2813,519.9219 463.8281,519.9219 C463.5781,519.9219 463.3125,520.0625 463.1406,520.2813 C463.0313,520.4531 463,520.6094 463,521.0625 L463,521.1875 L461.5469,521.1875 L461.5469,518.7813 L465.5313,518.7813 L465.5313,519.6406 C465.5313,520.0469 465.5625,520.2188 465.6406,520.375 C465.8125,520.625 466.0938,520.7813 466.375,520.7813 C466.6406,520.7813 466.9063,520.6406 467.0781,520.4219 C467.1875,520.25 467.2188,520.1094 467.2188,519.6406 L467.2188,517.0938 L459.5938,517.0938 C459.1563,517.0938 459.0313,517.1094 458.875,517.2031 C458.625,517.3594 458.4688,517.6563 458.4688,517.9375 C458.4688,518.2188 458.6094,518.4688 458.8281,518.6406 C458.9844,518.75 459.1719,518.7813 459.5938,518.7813 L459.8438,518.7813 L459.8438,525.2969 L459.5938,525.2969 C459.1875,525.2969 459.0313,525.3125 458.875,525.4219 C458.625,525.5938 458.4688,525.8594 458.4688,526.1563 C458.4688,526.4219 458.6094,526.6719 458.8281,526.8281 C458.9688,526.9531 459.2031,527 459.5938,527 L467.5938,527 L467.5938,524.4219 C467.5938,523.9844 467.5625,523.8438 467.4844,523.6875 C467.3125,523.4375 467.0313,523.2813 466.75,523.2813 C466.4844,523.2813 466.2188,523.3906 466.0469,523.6406 C465.9375,523.7969 465.9063,523.9375 465.9063,524.4219 L465.9063,525.2969 L461.5469,525.2969 L461.5469,522.875 Z " fill="#000000"/><text fill="#000000" font-family="sans-serif" font-size="14" lengthAdjust="spacing" textLength="134" x="483.25" y="526.8467">EExperimentState</text><line style="stroke:#181818;stroke-width:0.5;" x1="417.5" x2="650.5" y1="538" y2="538"/><text fill="#000000" font-family="sans-serif" font-size="14" lengthAdjust="spacing" textLength="66" x="422.5" y="554.9951">INACTIVE</text><text fill="#000000" font-family="sans-serif" font-size="14" lengthAdjust="spacing" textLength="108" x="422.5" y="571.292">INTRODUCTION</text><text fill="#000000" font-family="sans-serif" font-size="14" lengthAdjust="spacing" textLength="204" x="422.5" y="587.5889">RESTING_STATE_EYES_OPEN</text><text fill="#000000" font-family="sans-serif" font-size="14" lengthAdjust="spacing" textLength="223" x="422.5" y="603.8857">RESTING_STATE_EYES_CLOSED</text><text fill="#000000" font-family="sans-serif" font-size="14" lengthAdjust="spacing" textLength="206" x="422.5" y="620.1826">EXPERIMENT_INTRODUCTION</text><text fill="#000000" font-family="sans-serif" font-size="14" lengthAdjust="spacing" textLength="91" x="422.5" y="636.4795">EXPERIMENT</text><line style="stroke:#181818;stroke-width:0.5;" x1="417.5" x2="650.5" y1="643.7813" y2="643.7813"/></g><!--class EModelUpdateIdentifier--><g id="elem_EModelUpdateIdentifier"><rect codeLine="44" fill="#F1F1F1" height="96.8906" id="EModelUpdateIdentifier" rx="2.5" ry="2.5" style="stroke:#181818;stroke-width:0.5;" width="234" x="687" y="530.5"/><ellipse cx="715.95" cy="546.5" fill="#EB937F" rx="11" ry="11" style="stroke:#181818;stroke-width:1.0;"/><path d="M714.7469,547.375 L716.2,547.375 L716.2,547.4844 C716.2,547.8906 716.2313,548.0469 716.3094,548.2031 C716.4656,548.4531 716.7469,548.6094 717.0438,548.6094 C717.2938,548.6094 717.5594,548.4688 717.7156,548.25 C717.8406,548.0938 717.8719,547.9375 717.8719,547.4844 L717.8719,545.5625 C717.8719,545.4063 717.8719,545.3594 717.8563,545.2031 C717.7938,544.7344 717.4813,544.4219 717.0281,544.4219 C716.7781,544.4219 716.5125,544.5625 716.3406,544.7813 C716.2313,544.9531 716.2,545.1094 716.2,545.5625 L716.2,545.6875 L714.7469,545.6875 L714.7469,543.2813 L718.7313,543.2813 L718.7313,544.1406 C718.7313,544.5469 718.7625,544.7188 718.8406,544.875 C719.0125,545.125 719.2938,545.2813 719.575,545.2813 C719.8406,545.2813 720.1063,545.1406 720.2781,544.9219 C720.3875,544.75 720.4188,544.6094 720.4188,544.1406 L720.4188,541.5938 L712.7938,541.5938 C712.3563,541.5938 712.2313,541.6094 712.075,541.7031 C711.825,541.8594 711.6688,542.1563 711.6688,542.4375 C711.6688,542.7188 711.8094,542.9688 712.0281,543.1406 C712.1844,543.25 712.3719,543.2813 712.7938,543.2813 L713.0438,543.2813 L713.0438,549.7969 L712.7938,549.7969 C712.3875,549.7969 712.2313,549.8125 712.075,549.9219 C711.825,550.0938 711.6688,550.3594 711.6688,550.6563 C711.6688,550.9219 711.8094,551.1719 712.0281,551.3281 C712.1688,551.4531 712.4031,551.5 712.7938,551.5 L720.7938,551.5 L720.7938,548.9219 C720.7938,548.4844 720.7625,548.3438 720.6844,548.1875 C720.5125,547.9375 720.2313,547.7813 719.95,547.7813 C719.6844,547.7813 719.4188,547.8906 719.2469,548.1406 C719.1375,548.2969 719.1063,548.4375 719.1063,548.9219 L719.1063,549.7969 L714.7469,549.7969 L714.7469,547.375 Z " fill="#000000"/><text fill="#000000" font-family="sans-serif" font-size="14" lengthAdjust="spacing" textLength="171" x="733.05" y="551.3467">EModelUpdateIdentifier</text><line style="stroke:#181818;stroke-width:0.5;" x1="688" x2="920" y1="562.5" y2="562.5"/><text fill="#000000" font-family="sans-serif" font-size="14" lengthAdjust="spacing" textLength="109" x="693" y="579.4951">NEW_STIMULUS</text><text fill="#000000" font-family="sans-serif" font-size="14" lengthAdjust="spacing" textLength="94" x="693" y="595.792">NEW_PRIMER</text><text fill="#000000" font-family="sans-serif" font-size="14" lengthAdjust="spacing" textLength="222" x="693" y="612.0889">EXPERIMENT_STATE_CHANGED</text><line style="stroke:#181818;stroke-width:0.5;" x1="688" x2="920" y1="619.3906" y2="619.3906"/></g><!--class Audio--><g id="elem_Audio"><rect codeLine="1" fill="#F1F1F1" height="80.5938" id="Audio" rx="2.5" ry="2.5" style="stroke:#181818;stroke-width:0.5;" width="194" x="1477" y="266.5"/><ellipse cx="1549.75" cy="282.5" fill="#ADD1B2" rx="11" ry="11" style="stroke:#181818;stroke-width:1.0;"/><path d="M1552.0938,278.1719 C1551.1563,277.7344 1550.5625,277.5938 1549.6875,277.5938 C1547.0625,277.5938 1545.0625,279.6719 1545.0625,282.3906 L1545.0625,283.5156 C1545.0625,286.0938 1547.1719,287.9844 1550.0625,287.9844 C1551.2813,287.9844 1552.4375,287.6875 1553.1875,287.1406 C1553.7656,286.7344 1554.0938,286.2813 1554.0938,285.8906 C1554.0938,285.4375 1553.7031,285.0469 1553.2344,285.0469 C1553.0156,285.0469 1552.8125,285.125 1552.625,285.3125 C1552.1719,285.7969 1552.1719,285.7969 1551.9844,285.8906 C1551.5625,286.1563 1550.875,286.2813 1550.1094,286.2813 C1548.0625,286.2813 1546.7656,285.1875 1546.7656,283.4844 L1546.7656,282.3906 C1546.7656,280.6094 1548.0156,279.2969 1549.75,279.2969 C1550.3281,279.2969 1550.9375,279.4531 1551.4063,279.7031 C1551.8906,279.9844 1552.0625,280.2031 1552.1563,280.6094 C1552.2188,281.0156 1552.25,281.1406 1552.3906,281.2656 C1552.5313,281.4063 1552.7656,281.5156 1552.9844,281.5156 C1553.25,281.5156 1553.5156,281.375 1553.6875,281.1563 C1553.7969,281 1553.8281,280.8125 1553.8281,280.3906 L1553.8281,278.9688 C1553.8281,278.5313 1553.8125,278.4063 1553.7188,278.25 C1553.5625,277.9844 1553.2813,277.8438 1552.9844,277.8438 C1552.6875,277.8438 1552.4844,277.9375 1552.2656,278.25 L1552.0938,278.1719 Z " fill="#000000"/><text fill="#000000" font-family="sans-serif" font-size="14" lengthAdjust="spacing" textLength="40" x="1570.25" y="287.3467">Audio</text><line style="stroke:#181818;stroke-width:0.5;" x1="1478" x2="1670" y1="298.5" y2="298.5"/><ellipse cx="1488" cy="312.1484" fill="none" rx="3" ry="3" style="stroke:#038048;stroke-width:1.0;"/><text fill="#000000" font-family="sans-serif" font-size="14" lengthAdjust="spacing" textLength="143" x="1497" y="315.4951">NDArray[float] array</text><ellipse cx="1488" cy="328.4453" fill="none" rx="3" ry="3" style="stroke:#038048;stroke-width:1.0;"/><text fill="#000000" font-family="sans-serif" font-size="14" lengthAdjust="spacing" textLength="168" x="1497" y="331.792">int sampling_frequency</text><line style="stroke:#181818;stroke-width:0.5;" x1="1478" x2="1670" y1="339.0938" y2="339.0938"/></g><!--reverse link AObserver to Logger--><g id="link_AObserver_Logger"><path codeLine="32" d="M239.4485,357.1593 C235.0015,405.1893 228.128,479.419 223.062,534.126 " fill="none" id="AObserver-backto-Logger" style="stroke:#181818;stroke-width:1.0;"/><polygon fill="none" points="241.108,339.236,233.4741,356.6062,245.423,357.7125,241.108,339.236" style="stroke:#181818;stroke-width:1.0;"/></g><!--link AAudioTagger to AStimulus--><g id="link_AAudioTagger_AStimulus"><path codeLine="57" d="M1262,122.2 C1262,157.825 1262,198.479 1262,238.311 " fill="none" id="AAudioTagger-to-AStimulus" style="stroke:#181818;stroke-width:1.0;"/><polygon fill="#181818" points="1262,250.311,1266,244.311,1262,238.311,1258,244.311,1262,250.311" style="stroke:#181818;stroke-width:1.0;"/><text fill="#000000" font-family="sans-serif" font-size="13" lengthAdjust="spacing" textLength="80" x="1263" y="167.0669">used_tagger</text><text fill="#000000" font-family="sans-serif" font-size="13" lengthAdjust="spacing" textLength="8" x="1253.3875" y="141.6888">1</text><text fill="#000000" font-family="sans-serif" font-size="13" lengthAdjust="spacing" textLength="7" x="1254.5734" y="239.5515">*</text></g><!--reverse link AStimulus to Audio--><g id="link_AStimulus_Audio"><path codeLine="58" d="M1417.22,307 C1441.41,307 1454.01,307 1476.67,307 " fill="none" id="AStimulus-backto-Audio" style="stroke:#181818;stroke-width:1.0;"/><polygon fill="#181818" points="1405.22,307,1411.22,311,1417.22,307,1411.22,303,1405.22,307" style="stroke:#181818;stroke-width:1.0;"/><text fill="#000000" font-family="sans-serif" font-size="13" lengthAdjust="spacing" textLength="35" x="1423.5" y="300.0669">audio</text><text fill="#000000" font-family="sans-serif" font-size="13" lengthAdjust="spacing" textLength="8" x="1412.811" y="303.6788">1</text><text fill="#000000" font-family="sans-serif" font-size="13" lengthAdjust="spacing" textLength="8" x="1460.9119" y="303.5133">1</text></g><!--reverse link AStimulus to Stimulus--><g id="link_AStimulus_Stimulus"><path codeLine="64" d="M1204.0356,377.5792 C1183.4856,402.6732 1170.75,418.983 1150,447 C1125.29,480.363 1098.76,519.945 1081.16,546.802 " fill="none" id="AStimulus-backto-Stimulus" style="stroke:#181818;stroke-width:1.0;"/><polygon fill="none" points="1215.44,363.653,1199.3935,373.7777,1208.6776,381.3807,1215.44,363.653" style="stroke:#181818;stroke-width:1.0;"/></g><!--reverse link AStimulus to AttentionCheckStimulus--><g id="link_AStimulus_AttentionCheckStimulus"><path codeLine="67" d="M1264.725,381.6047 C1266.905,440.5747 1269.59,512.9 1271.15,554.961 " fill="none" id="AStimulus-backto-AttentionCheckStimulus" style="stroke:#181818;stroke-width:1.0;"/><polygon fill="none" points="1264.06,363.617,1258.7291,381.8264,1270.7209,381.3831,1264.06,363.617" style="stroke:#181818;stroke-width:1.0;"/></g><!--reverse link Model to AStimulus--><g id="link_Model_AStimulus"><path codeLine="69" d="M989.161,307 C1037.56,307 1075.03,307 1118.88,307 " fill="none" id="Model-backto-AStimulus" style="stroke:#181818;stroke-width:1.0;"/><polygon fill="#181818" points="977.161,307,983.161,311,989.161,307,983.161,303,977.161,307" style="stroke:#181818;stroke-width:1.0;"/><text fill="#000000" font-family="sans-serif" font-size="13" lengthAdjust="spacing" textLength="105" x="995.5" y="300.0669">stimulus_history</text><text fill="#000000" font-family="sans-serif" font-size="13" lengthAdjust="spacing" textLength="8" x="985.1069" y="303.8173">1</text><text fill="#000000" font-family="sans-serif" font-size="13" lengthAdjust="spacing" textLength="7" x="1103.8617" y="303.6552">*</text></g><!--reverse link Model to AStimulus--><g id="link_Model_AStimulus"><path codeLine="70" d="M989.0184,328.4428 C1029.3934,329.7818 1058.9,329.375 1098,327 C1104.87,326.583 1111.9,326.068 1118.98,325.477 " fill="none" id="Model-backto-AStimulus-1" style="stroke:#181818;stroke-width:1.0;"/><polygon fill="#181818" points="977.025,328.045,982.8891,332.2417,989.0184,328.4428,983.1543,324.2461,977.025,328.045" style="stroke:#181818;stroke-width:1.0;"/><text fill="#000000" font-family="sans-serif" font-size="13" lengthAdjust="spacing" textLength="98" x="999" y="323.0669">created_stimuli</text><text fill="#000000" font-family="sans-serif" font-size="13" lengthAdjust="spacing" textLength="8" x="984.9664" y="325.5529">1</text><text fill="#000000" font-family="sans-serif" font-size="13" lengthAdjust="spacing" textLength="7" x="1103.9672" y="323.1427">*</text></g><!--reverse link Model to EExperimentState--><g id="link_Model_EExperimentState"><path codeLine="71" d="M658.9994,401.5823 C650.9124,411.4953 650.486,412.252 643,422 C622.374,448.859 600.791,479.219 582.323,505.97 " fill="none" id="Model-backto-EExperimentState" style="stroke:#181818;stroke-width:1.0;"/><polygon fill="none" points="666.585,392.284,659.6928,394.4047,658.9994,401.5823,665.8917,399.4617,666.585,392.284" style="stroke:#181818;stroke-width:1.0;"/><text fill="#000000" font-family="sans-serif" font-size="13" lengthAdjust="spacing" textLength="114" x="644" y="435.0669">experiment_state</text><text fill="#000000" font-family="sans-serif" font-size="13" lengthAdjust="spacing" textLength="7" x="653.0611" y="412.3155">*</text><text fill="#000000" font-family="sans-serif" font-size="13" lengthAdjust="spacing" textLength="8" x="578.8938" y="494.7504">1</text></g><!--link AObserver to Model--><g id="link_AObserver_Model"><path codeLine="72" d="M466.363,307 C477.901,307 477.438,307 488.975,307 " fill="none" id="AObserver-to-Model" style="stroke:#181818;stroke-width:1.0;"/><polygon fill="none" points="500.975,307,494.975,303,488.975,307,494.975,311,500.975,307" style="stroke:#181818;stroke-width:1.0;"/><text fill="#000000" font-family="sans-serif" font-size="13" lengthAdjust="spacing" textLength="7" x="473.7741" y="303.8181">*</text><text fill="#000000" font-family="sans-serif" font-size="13" lengthAdjust="spacing" textLength="8" x="485.0336" y="303.8173">1</text></g><!--link Model to EModelUpdateIdentifier--><g id="link_Model_EModelUpdateIdentifier"><path codeLine="74" d="M759.299,392.319 C770.25,437.809 781.9596,486.4477 791.1416,524.5867 " fill="none" id="Model-to-EModelUpdateIdentifier" style="stroke:#181818;stroke-width:1.0;stroke-dasharray:7.0,7.0;"/><polygon fill="#181818" points="792.546,530.42,794.3283,520.7338,791.3757,525.5589,786.5505,522.6063,792.546,530.42" style="stroke:#181818;stroke-width:1.0;"/><text fill="#000000" font-family="sans-serif" font-size="13" lengthAdjust="spacing" textLength="30" x="770" y="435.0669">uses</text></g><!--reverse link constants to AObserver--><g id="link_constants_AObserver"><path codeLine="76" d="M380.6683,456.603 C379.5797,453.1431 378.3854,450.3051 377,447 C358.407,402.644 318.649,364.208 287.42,339.067 " fill="none" id="constants-backto-AObserver" style="stroke:#181818;stroke-width:1.0;stroke-dasharray:7.0,7.0;"/><polygon fill="#181818" points="382.2328,462.3955,383.7477,452.6638,380.9291,457.5684,376.0244,454.7498,382.2328,462.3955" style="stroke:#181818;stroke-width:1.0;"/><text fill="#000000" font-family="sans-serif" font-size="13" lengthAdjust="spacing" textLength="30" x="374" y="435.0669">uses</text></g><!--SRC=[dLNRRk8m47tFLrZi2sr9fRv65HAYKHU90Y9XBwfGv2O6B8ATjPssKSk_xpZEnQH5NIqF46REp3dZ6K_Y54k9Hdb2ENfp47okPdSZ8N3nk4avLck4zH_ZeKmXYGzPIjassWZo9oSiBfoZusGutkCjGHWIAIwAIE7j5b1LJlmabS2nGh6XA_b2W11H8H3wrk5zguEEwC0JkYcYU9UpVLzJyAXKPImUEeqSe8tq46YzkAXINvdwOa6m8YR104b53tbA3UPe5m5q93sZVFuaYNYsP4FsPquJb6U9JWvVs4CZLWmGJGXJT4E9y93_e7EkIioaiTVSvOyXA77ezjRmuAUK38SjbJkbKZs2eZNA13qG4Ut00EVjj90oGx-gpaDbnBYiF0bAOoxN5osy5Cyu22h-Htnx089iWOg8_ZCbBrvxKWCjbGkg2jEKJXWZBv6iTFNh1mzr57yMPKxWtsFY7MPR4f7NZEX8fe1NjymeW2Uer6-SWRRK3MhxC-LwQEl-434SMfFWBh3Q8I3WGiaeeOB4PNCQ7IQwhx3O4XLjU9heyzLHKxe_OJD8vERk-x0zIzFcUavZpa0tKzAIG5X- -526vTUVoMmq3YS__8unNCxlLk2OpquSIpy89xFxA0X7eH_vl_qWcY_yBp7ZwJpmxqvG_g-5lvmy-BCmEilMOXhpqUbKz-auTcgS-Jz1pUHXDLq57nmBpR0yfyqKCVu-cjrR1HpjkzhT2lN8sLi1433v_92fhasFhJKJpPNccQBGqeuhpBEKcDK6cwtSS6i4V4GFxI6Jrj2qEdgNFNG9muDwDxsJTUkXN9AaNC-L22leHWU9AaZ7UEL2vuwzeJwhLRyOgg6cB26lbgO6Nero_TzEEL9Ajv6pyOx4-vR0P3ZdxYOyEcPvjcN08JHk3_NgJL4lpTuN0UPzaLJhYTPe077NDQVKlMd0qjqlDWjtKxUYQQ-qSLzV3yzCDkI4dicUuxHld-iKuCtzhn5_0G00]--></g></svg>