<?xml version="1.0" encoding="us-ascii" standalone="no"?><svg xmlns="http://www.w3.org/2000/svg" xmlns:xlink="http://www.w3.org/1999/xlink" contentStyleType="text/css" height="763px" preserveAspectRatio="none" style="width:1594px;height:763px;background:#FFFFFF;" version="1.1" viewBox="0 0 1594 763" width="1594px" zoomAndPan="magnify"><defs/><g><!--cluster auditory_tagging--><g id="cluster_auditory_tagging"><path d="M929.5,6 L1061.5,6 A3.75,3.75 0 0 1 1064,8.5 L1071,28.2969 L1466.5,28.2969 A2.5,2.5 0 0 1 1469,30.7969 L1469,135.09 A2.5,2.5 0 0 1 1466.5,137.59 L929.5,137.59 A2.5,2.5 0 0 1 927,135.09 L927,8.5 A2.5,2.5 0 0 1 929.5,6 " fill="none" style="stroke:#000000;stroke-width:1.5;"/><line style="stroke:#000000;stroke-width:1.5;" x1="927" x2="1071" y1="28.2969" y2="28.2969"/><text fill="#000000" font-family="sans-serif" font-size="14" font-weight="bold" lengthAdjust="spacing" textLength="131" x="931" y="20.9951">auditory_tagging</text></g><!--cluster model--><g id="cluster_model"><path d="M8.5,186.59 L57.5,186.59 A3.75,3.75 0 0 1 60,189.09 L67,208.8869 L1344.5,208.8869 A2.5,2.5 0 0 1 1347,211.3869 L1347,754.11 A2.5,2.5 0 0 1 1344.5,756.61 L8.5,756.61 A2.5,2.5 0 0 1 6,754.11 L6,189.09 A2.5,2.5 0 0 1 8.5,186.59 " fill="none" style="stroke:#000000;stroke-width:1.5;"/><line style="stroke:#000000;stroke-width:1.5;" x1="6" x2="67" y1="208.8869" y2="208.8869"/><text fill="#000000" font-family="sans-serif" font-size="14" font-weight="bold" lengthAdjust="spacing" textLength="48" x="10" y="201.5851">model</text></g><!--cluster constants--><g id="cluster_constants"><path d="M323.5,462.94 L402.5,462.94 A3.75,3.75 0 0 1 405,465.44 L412,485.2369 L882.5,485.2369 A2.5,2.5 0 0 1 885,487.7369 L885,722.11 A2.5,2.5 0 0 1 882.5,724.61 L323.5,724.61 A2.5,2.5 0 0 1 321,722.11 L321,465.44 A2.5,2.5 0 0 1 323.5,462.94 " fill="none" style="stroke:#000000;stroke-width:1.5;"/><line style="stroke:#000000;stroke-width:1.5;" x1="321" x2="412" y1="485.2369" y2="485.2369"/><text fill="#000000" font-family="sans-serif" font-size="14" font-weight="bold" lengthAdjust="spacing" textLength="78" x="325" y="477.9351">constants</text></g><!--class AAudioTagger--><g id="elem_AAudioTagger"><rect codeLine="7" fill="#F1F1F1" height="80.5938" id="AAudioTagger" rx="2.5" ry="2.5" style="stroke:#181818;stroke-width:0.5;" width="511" x="942.5" y="41"/><ellipse cx="1145.25" cy="57" fill="#A9DCDF" rx="11" ry="11" style="stroke:#181818;stroke-width:1.0;"/><path d="M1145.3594,52.3438 L1144.2031,57.4219 L1146.5313,57.4219 L1145.3594,52.3438 Z M1143.875,50.1094 L1146.8594,50.1094 L1150.2188,62.5 L1147.7656,62.5 L1147,59.4375 L1143.7188,59.4375 L1142.9688,62.5 L1140.5313,62.5 L1143.875,50.1094 Z " fill="#000000"/><text fill="#000000" font-family="sans-serif" font-size="14" font-style="italic" lengthAdjust="spacing" textLength="97" x="1165.75" y="61.8467">AAudioTagger</text><line style="stroke:#181818;stroke-width:0.5;" x1="943.5" x2="1452.5" y1="73" y2="73"/><line style="stroke:#181818;stroke-width:0.5;" x1="943.5" x2="1452.5" y1="81" y2="81"/><polygon fill="#FFFF44" points="953.5,89.6484,957.5,93.6484,953.5,97.6484,949.5,93.6484" style="stroke:#B38D22;stroke-width:1.0;"/><text fill="#000000" font-family="sans-serif" font-size="14" font-style="italic" lengthAdjust="spacing" textLength="485" x="962.5" y="97.9951">NDArray[float] modify_chunk(audio_array_chunk: NDArray[float], fs: int))</text><ellipse cx="953.5" cy="110.9453" fill="#84BE84" rx="3" ry="3" style="stroke:#038048;stroke-width:1.0;"/><text fill="#000000" font-family="sans-serif" font-size="14" lengthAdjust="spacing" textLength="187" x="962.5" y="114.292">Audio create(audio, stimuli)</text></g><!--class AObserver--><g id="elem_AObserver"><rect codeLine="14" fill="#F1F1F1" height="64.2969" id="AObserver" rx="2.5" ry="2.5" style="stroke:#181818;stroke-width:0.5;" width="417" x="22.5" y="274.62"/><ellipse cx="190.75" cy="290.62" fill="#A9DCDF" rx="11" ry="11" style="stroke:#181818;stroke-width:1.0;"/><path d="M190.8594,285.9638 L189.7031,291.0419 L192.0313,291.0419 L190.8594,285.9638 Z M189.375,283.7294 L192.3594,283.7294 L195.7188,296.12 L193.2656,296.12 L192.5,293.0575 L189.2188,293.0575 L188.4688,296.12 L186.0313,296.12 L189.375,283.7294 Z " fill="#000000"/><text fill="#000000" font-family="sans-serif" font-size="14" font-style="italic" lengthAdjust="spacing" textLength="72" x="211.25" y="295.4667">AObserver</text><line style="stroke:#181818;stroke-width:0.5;" x1="23.5" x2="438.5" y1="306.62" y2="306.62"/><line style="stroke:#181818;stroke-width:0.5;" x1="23.5" x2="438.5" y1="314.62" y2="314.62"/><ellipse cx="33.5" cy="328.2684" fill="#84BE84" rx="3" ry="3" style="stroke:#038048;stroke-width:1.0;"/><text fill="#000000" font-family="sans-serif" font-size="14" lengthAdjust="spacing" textLength="391" x="42.5" y="331.6151">void update(data: Any, identifier: EModelUpdateIdentifier)</text></g><!--class Model--><g id="elem_Model"><rect codeLine="18" fill="#F1F1F1" height="170.3438" id="Model" rx="2.5" ry="2.5" style="stroke:#181818;stroke-width:0.5;" width="450" x="475" y="221.59"/><ellipse cx="655.75" cy="241.7228" fill="#ADD1B2" rx="11" ry="11" style="stroke:#181818;stroke-width:1.0;"/><path d="M658.7188,247.3634 Q658.1406,247.6603 657.5,247.8009 Q656.8594,247.9572 656.1563,247.9572 Q653.6563,247.9572 652.3281,246.3166 Q651.0156,244.6603 651.0156,241.5353 Q651.0156,238.4103 652.3281,236.7541 Q653.6563,235.0978 656.1563,235.0978 Q656.8594,235.0978 657.5,235.2541 Q658.1563,235.4103 658.7188,235.7072 L658.7188,238.4259 Q658.0938,237.8478 657.5,237.5822 Q656.9063,237.3009 656.2813,237.3009 Q654.9375,237.3009 654.25,238.3791 Q653.5625,239.4416 653.5625,241.5353 Q653.5625,243.6291 654.25,244.7072 Q654.9375,245.7697 656.2813,245.7697 Q656.9063,245.7697 657.5,245.5041 Q658.0938,245.2228 658.7188,244.6447 L658.7188,247.3634 Z " fill="#000000"/><text fill="#000000" font-family="sans-serif" font-size="12" font-style="italic" lengthAdjust="spacing" textLength="84" x="674.25" y="237.7287">&#171;Observable&#187;</text><text fill="#000000" font-family="sans-serif" font-size="14" lengthAdjust="spacing" textLength="42" x="695.25" y="253.5539">Model</text><line style="stroke:#181818;stroke-width:0.5;" x1="476" x2="924" y1="261.8556" y2="261.8556"/><rect fill="none" height="6" style="stroke:#C82930;stroke-width:1.0;" width="6" x="483" y="272.5041"/><text fill="#000000" font-family="sans-serif" font-size="14" lengthAdjust="spacing" textLength="152" x="495" y="278.8507">List[str] primer_history</text><line style="stroke:#181818;stroke-width:0.5;" x1="476" x2="924" y1="286.1525" y2="286.1525"/><rect fill="#F24D5C" height="6" style="stroke:#C82930;stroke-width:1.0;" width="6" x="483" y="296.8009"/><text fill="#000000" font-family="sans-serif" font-size="14" lengthAdjust="spacing" textLength="252" x="495" y="303.1476">Model(stimuli: List[CreatedStimulus])</text><rect fill="#F24D5C" height="6" style="stroke:#C82930;stroke-width:1.0;" width="6" x="483" y="313.0978"/><text fill="#000000" font-family="sans-serif" font-size="14" lengthAdjust="spacing" textLength="379" x="495" y="319.4445">void notify(data: Any, identifier: EModelUpdateIdentifier)</text><ellipse cx="486" cy="332.3947" fill="#84BE84" rx="3" ry="3" style="stroke:#038048;stroke-width:1.0;"/><text fill="#000000" font-family="sans-serif" font-size="14" lengthAdjust="spacing" textLength="286" x="495" y="335.7414">void register(view: AObserver, priority: int)</text><ellipse cx="486" cy="348.6916" fill="#84BE84" rx="3" ry="3" style="stroke:#038048;stroke-width:1.0;"/><text fill="#000000" font-family="sans-serif" font-size="14" lengthAdjust="spacing" textLength="317" x="495" y="352.0382">void new_stimulus(stimulus: CreatedStimulus)</text><ellipse cx="486" cy="364.9884" fill="#84BE84" rx="3" ry="3" style="stroke:#038048;stroke-width:1.0;"/><text fill="#000000" font-family="sans-serif" font-size="14" lengthAdjust="spacing" textLength="303" x="495" y="368.3351">void new_primer(stimulus: CreatedStimulus)</text><ellipse cx="486" cy="381.2853" fill="#84BE84" rx="3" ry="3" style="stroke:#038048;stroke-width:1.0;"/><text fill="#000000" font-family="sans-serif" font-size="14" lengthAdjust="spacing" textLength="424" x="495" y="384.632">void change_experiment_state(new_state: EExperimentState)</text></g><!--class Logger--><g id="elem_Logger"><rect codeLine="28" fill="#F1F1F1" height="88.8594" id="Logger" rx="2.5" ry="2.5" style="stroke:#181818;stroke-width:0.5;" width="238" x="56" y="558.84"/><ellipse cx="137.75" cy="578.9728" fill="#ADD1B2" rx="11" ry="11" style="stroke:#181818;stroke-width:1.0;"/><path d="M140.7188,584.6134 Q140.1406,584.9103 139.5,585.0509 Q138.8594,585.2072 138.1563,585.2072 Q135.6563,585.2072 134.3281,583.5666 Q133.0156,581.9103 133.0156,578.7853 Q133.0156,575.6603 134.3281,574.0041 Q135.6563,572.3478 138.1563,572.3478 Q138.8594,572.3478 139.5,572.5041 Q140.1563,572.6603 140.7188,572.9572 L140.7188,575.6759 Q140.0938,575.0978 139.5,574.8322 Q138.9063,574.5509 138.2813,574.5509 Q136.9375,574.5509 136.25,575.6291 Q135.5625,576.6916 135.5625,578.7853 Q135.5625,580.8791 136.25,581.9572 Q136.9375,583.0197 138.2813,583.0197 Q138.9063,583.0197 139.5,582.7541 Q140.0938,582.4728 140.7188,581.8947 L140.7188,584.6134 Z " fill="#000000"/><text fill="#000000" font-family="sans-serif" font-size="12" font-style="italic" lengthAdjust="spacing" textLength="70" x="156.25" y="574.9787">&#171;Observer&#187;</text><text fill="#000000" font-family="sans-serif" font-size="14" lengthAdjust="spacing" textLength="48" x="167.25" y="590.8039">Logger</text><line style="stroke:#181818;stroke-width:0.5;" x1="57" x2="293" y1="599.1056" y2="599.1056"/><rect fill="none" height="6" style="stroke:#C82930;stroke-width:1.0;" width="6" x="64" y="609.7541"/><text fill="#000000" font-family="sans-serif" font-size="14" lengthAdjust="spacing" textLength="154" x="76" y="616.1007">Path exports_directory</text><line style="stroke:#181818;stroke-width:0.5;" x1="57" x2="293" y1="623.4025" y2="623.4025"/><ellipse cx="67" cy="637.0509" fill="#84BE84" rx="3" ry="3" style="stroke:#038048;stroke-width:1.0;"/><text fill="#000000" font-family="sans-serif" font-size="14" lengthAdjust="spacing" textLength="212" x="76" y="640.3976">Logger(target_folder: PathLike)</text></g><!--class AStimulus--><g id="elem_AStimulus"><rect codeLine="54" fill="#F1F1F1" height="113.1875" id="AStimulus" rx="2.5" ry="2.5" style="stroke:#181818;stroke-width:0.5;" width="266" x="1065" y="250.17"/><ellipse cx="1159.75" cy="266.17" fill="#A9DCDF" rx="11" ry="11" style="stroke:#181818;stroke-width:1.0;"/><path d="M1159.8594,261.5137 L1158.7031,266.5919 L1161.0313,266.5919 L1159.8594,261.5137 Z M1158.375,259.2794 L1161.3594,259.2794 L1164.7188,271.67 L1162.2656,271.67 L1161.5,268.6075 L1158.2188,268.6075 L1157.4688,271.67 L1155.0313,271.67 L1158.375,259.2794 Z " fill="#000000"/><text fill="#000000" font-family="sans-serif" font-size="14" font-style="italic" lengthAdjust="spacing" textLength="68" x="1180.25" y="271.0167">AStimulus</text><line style="stroke:#181818;stroke-width:0.5;" x1="1066" x2="1330" y1="282.17" y2="282.17"/><ellipse cx="1076" cy="295.8184" fill="none" rx="3" ry="3" style="stroke:#038048;stroke-width:1.0;"/><text fill="#000000" font-family="sans-serif" font-size="14" lengthAdjust="spacing" textLength="72" x="1085" y="299.1651">str prompt</text><ellipse cx="1076" cy="312.1153" fill="none" rx="3" ry="3" style="stroke:#038048;stroke-width:1.0;"/><text fill="#000000" font-family="sans-serif" font-size="14" lengthAdjust="spacing" textLength="66" x="1085" y="315.462">str primer</text><ellipse cx="1076" cy="328.4122" fill="none" rx="3" ry="3" style="stroke:#038048;stroke-width:1.0;"/><text fill="#000000" font-family="sans-serif" font-size="14" lengthAdjust="spacing" textLength="107" x="1085" y="331.7589">List[str] options</text><ellipse cx="1076" cy="344.7091" fill="none" rx="3" ry="3" style="stroke:#038048;stroke-width:1.0;"/><text fill="#000000" font-family="sans-serif" font-size="14" lengthAdjust="spacing" textLength="240" x="1085" y="348.0557">List[Tuple[float, float]] time_stamps</text><line style="stroke:#181818;stroke-width:0.5;" x1="1066" x2="1330" y1="355.3575" y2="355.3575"/></g><!--class Stimulus--><g id="elem_Stimulus"><rect codeLine="64" fill="#F1F1F1" height="64.2969" id="Stimulus" rx="2.5" ry="2.5" style="stroke:#181818;stroke-width:0.5;" width="132" x="957" y="571.13"/><ellipse cx="990.45" cy="587.13" fill="#ADD1B2" rx="11" ry="11" style="stroke:#181818;stroke-width:1.0;"/><path d="M993.4188,592.7706 Q992.8406,593.0675 992.2,593.2081 Q991.5594,593.3644 990.8563,593.3644 Q988.3563,593.3644 987.0281,591.7238 Q985.7156,590.0675 985.7156,586.9425 Q985.7156,583.8175 987.0281,582.1613 Q988.3563,580.505 990.8563,580.505 Q991.5594,580.505 992.2,580.6613 Q992.8563,580.8175 993.4188,581.1144 L993.4188,583.8331 Q992.7938,583.255 992.2,582.9894 Q991.6063,582.7081 990.9813,582.7081 Q989.6375,582.7081 988.95,583.7863 Q988.2625,584.8488 988.2625,586.9425 Q988.2625,589.0363 988.95,590.1144 Q989.6375,591.1769 990.9813,591.1769 Q991.6063,591.1769 992.2,590.9113 Q992.7938,590.63 993.4188,590.0519 L993.4188,592.7706 Z " fill="#000000"/><text fill="#000000" font-family="sans-serif" font-size="14" lengthAdjust="spacing" textLength="59" x="1008.55" y="591.9767">Stimulus</text><line style="stroke:#181818;stroke-width:0.5;" x1="958" x2="1088" y1="603.13" y2="603.13"/><ellipse cx="968" cy="616.7784" fill="none" rx="3" ry="3" style="stroke:#038048;stroke-width:1.0;"/><text fill="#000000" font-family="sans-serif" font-size="14" lengthAdjust="spacing" textLength="106" x="977" y="620.1251">int target_index</text><line style="stroke:#181818;stroke-width:0.5;" x1="958" x2="1088" y1="627.4269" y2="627.4269"/></g><!--class AttentionCheckStimulus--><g id="elem_AttentionCheckStimulus"><rect codeLine="69" fill="#F1F1F1" height="48" id="AttentionCheckStimulus" rx="2.5" ry="2.5" style="stroke:#181818;stroke-width:0.5;" width="198" x="1124" y="579.27"/><ellipse cx="1139" cy="595.27" fill="#ADD1B2" rx="11" ry="11" style="stroke:#181818;stroke-width:1.0;"/><path d="M1141.9688,600.9106 Q1141.3906,601.2075 1140.75,601.3481 Q1140.1094,601.5044 1139.4063,601.5044 Q1136.9063,601.5044 1135.5781,599.8638 Q1134.2656,598.2075 1134.2656,595.0825 Q1134.2656,591.9575 1135.5781,590.3013 Q1136.9063,588.645 1139.4063,588.645 Q1140.1094,588.645 1140.75,588.8013 Q1141.4063,588.9575 1141.9688,589.2544 L1141.9688,591.9731 Q1141.3438,591.395 1140.75,591.1294 Q1140.1563,590.8481 1139.5313,590.8481 Q1138.1875,590.8481 1137.5,591.9263 Q1136.8125,592.9888 1136.8125,595.0825 Q1136.8125,597.1763 1137.5,598.2544 Q1138.1875,599.3169 1139.5313,599.3169 Q1140.1563,599.3169 1140.75,599.0513 Q1141.3438,598.77 1141.9688,598.1919 L1141.9688,600.9106 Z " fill="#000000"/><text fill="#000000" font-family="sans-serif" font-size="14" lengthAdjust="spacing" textLength="166" x="1153" y="600.1167">AttentionCheckStimulus</text><line style="stroke:#181818;stroke-width:0.5;" x1="1125" x2="1321" y1="611.27" y2="611.27"/><line style="stroke:#181818;stroke-width:0.5;" x1="1125" x2="1321" y1="619.27" y2="619.27"/></g><!--class EExperimentState--><g id="elem_EExperimentState"><rect codeLine="35" fill="#F1F1F1" height="194.6719" id="EExperimentState" rx="2.5" ry="2.5" style="stroke:#181818;stroke-width:0.5;" width="232" x="364" y="505.94"/><ellipse cx="414.25" cy="521.94" fill="#EB937F" rx="11" ry="11" style="stroke:#181818;stroke-width:1.0;"/><path d="M418.3594,527.94 L410.6406,527.94 L410.6406,515.5494 L418.3594,515.5494 L418.3594,517.7056 L413.0938,517.7056 L413.0938,520.3775 L417.8594,520.3775 L417.8594,522.5337 L413.0938,522.5337 L413.0938,525.7837 L418.3594,525.7837 L418.3594,527.94 Z " fill="#000000"/><text fill="#000000" font-family="sans-serif" font-size="14" lengthAdjust="spacing" textLength="123" x="434.75" y="526.7867">EExperimentState</text><line style="stroke:#181818;stroke-width:0.5;" x1="365" x2="595" y1="537.94" y2="537.94"/><text fill="#000000" font-family="sans-serif" font-size="14" lengthAdjust="spacing" textLength="62" x="370" y="554.9351">INACTIVE</text><text fill="#000000" font-family="sans-serif" font-size="14" lengthAdjust="spacing" textLength="107" x="370" y="571.232">INTRODUCTION</text><text fill="#000000" font-family="sans-serif" font-size="14" lengthAdjust="spacing" textLength="202" x="370" y="587.5289">RESTING_STATE_EYES_OPEN</text><text fill="#000000" font-family="sans-serif" font-size="14" lengthAdjust="spacing" textLength="220" x="370" y="603.8257">RESTING_STATE_EYES_CLOSED</text><text fill="#000000" font-family="sans-serif" font-size="14" lengthAdjust="spacing" textLength="203" x="370" y="620.1226">EXPERIMENT_INTRODUCTION</text><text fill="#000000" font-family="sans-serif" font-size="14" lengthAdjust="spacing" textLength="89" x="370" y="636.4195">EXPERIMENT</text><text fill="#000000" font-family="sans-serif" font-size="14" lengthAdjust="spacing" textLength="47" x="370" y="652.7164">BREAK</text><text fill="#000000" font-family="sans-serif" font-size="14" lengthAdjust="spacing" textLength="51" x="370" y="669.0132">OUTRO</text><text fill="#000000" font-family="sans-serif" font-size="14" lengthAdjust="spacing" textLength="64" x="370" y="685.3101">EXAMPLE</text><line style="stroke:#181818;stroke-width:0.5;" x1="365" x2="595" y1="692.6119" y2="692.6119"/></g><!--class EModelUpdateIdentifier--><g id="elem_EModelUpdateIdentifier"><rect codeLine="47" fill="#F1F1F1" height="96.8906" id="EModelUpdateIdentifier" rx="2.5" ry="2.5" style="stroke:#181818;stroke-width:0.5;" width="230" x="631" y="554.83"/><ellipse cx="663.1" cy="570.83" fill="#EB937F" rx="11" ry="11" style="stroke:#181818;stroke-width:1.0;"/><path d="M667.2094,576.83 L659.4906,576.83 L659.4906,564.4394 L667.2094,564.4394 L667.2094,566.5956 L661.9438,566.5956 L661.9438,569.2675 L666.7094,569.2675 L666.7094,571.4238 L661.9438,571.4238 L661.9438,574.6738 L667.2094,574.6738 L667.2094,576.83 Z " fill="#000000"/><text fill="#000000" font-family="sans-serif" font-size="14" lengthAdjust="spacing" textLength="160" x="680.9" y="575.6767">EModelUpdateIdentifier</text><line style="stroke:#181818;stroke-width:0.5;" x1="632" x2="860" y1="586.83" y2="586.83"/><text fill="#000000" font-family="sans-serif" font-size="14" lengthAdjust="spacing" textLength="108" x="637" y="603.8251">NEW_STIMULUS</text><text fill="#000000" font-family="sans-serif" font-size="14" lengthAdjust="spacing" textLength="92" x="637" y="620.122">NEW_PRIMER</text><text fill="#000000" font-family="sans-serif" font-size="14" lengthAdjust="spacing" textLength="218" x="637" y="636.4189">EXPERIMENT_STATE_CHANGED</text><line style="stroke:#181818;stroke-width:0.5;" x1="632" x2="860" y1="643.7206" y2="643.7206"/></g><!--class Audio--><g id="elem_Audio"><rect codeLine="1" fill="#F1F1F1" height="80.5938" id="Audio" rx="2.5" ry="2.5" style="stroke:#181818;stroke-width:0.5;" width="185" x="1402.5" y="266.47"/><ellipse cx="1471.25" cy="282.47" fill="#ADD1B2" rx="11" ry="11" style="stroke:#181818;stroke-width:1.0;"/><path d="M1474.2188,288.1106 Q1473.6406,288.4075 1473,288.5481 Q1472.3594,288.7044 1471.6563,288.7044 Q1469.1563,288.7044 1467.8281,287.0638 Q1466.5156,285.4075 1466.5156,282.2825 Q1466.5156,279.1575 1467.8281,277.5013 Q1469.1563,275.845 1471.6563,275.845 Q1472.3594,275.845 1473,276.0013 Q1473.6563,276.1575 1474.2188,276.4544 L1474.2188,279.1731 Q1473.5938,278.595 1473,278.3294 Q1472.4063,278.0481 1471.7813,278.0481 Q1470.4375,278.0481 1469.75,279.1263 Q1469.0625,280.1888 1469.0625,282.2825 Q1469.0625,284.3763 1469.75,285.4544 Q1470.4375,286.5169 1471.7813,286.5169 Q1472.4063,286.5169 1473,286.2513 Q1473.5938,285.97 1474.2188,285.3919 L1474.2188,288.1106 Z " fill="#000000"/><text fill="#000000" font-family="sans-serif" font-size="14" lengthAdjust="spacing" textLength="39" x="1491.75" y="287.3167">Audio</text><line style="stroke:#181818;stroke-width:0.5;" x1="1403.5" x2="1586.5" y1="298.47" y2="298.47"/><ellipse cx="1413.5" cy="312.1184" fill="none" rx="3" ry="3" style="stroke:#038048;stroke-width:1.0;"/><text fill="#000000" font-family="sans-serif" font-size="14" lengthAdjust="spacing" textLength="131" x="1422.5" y="315.4651">NDArray[float] array</text><ellipse cx="1413.5" cy="328.4153" fill="none" rx="3" ry="3" style="stroke:#038048;stroke-width:1.0;"/><text fill="#000000" font-family="sans-serif" font-size="14" lengthAdjust="spacing" textLength="159" x="1422.5" y="331.762">int sampling_frequency</text><line style="stroke:#181818;stroke-width:0.5;" x1="1403.5" x2="1586.5" y1="339.0638" y2="339.0638"/></g><!--reverse link AObserver to Logger--><g id="link_AObserver_Logger"><path codeLine="32" d="M221.4767,356.9315 C217.0367,379.8515 214.33,393.98 209,421.94 C200.11,468.57 190.05,522.01 183.2,558.54 " fill="none" id="AObserver-backto-Logger" style="stroke:#181818;stroke-width:1.0;"/><polygon fill="none" points="224.9,339.26,215.5862,355.7904,227.3672,358.0726,224.9,339.26" style="stroke:#181818;stroke-width:1.0;"/></g><!--link AAudioTagger to AStimulus--><g id="link_AAudioTagger_AStimulus"><path codeLine="60" d="M1198,121.99 C1198,157.61 1198,198.26 1198,238.08 " fill="none" id="AAudioTagger-to-AStimulus" style="stroke:#181818;stroke-width:1.0;"/><polygon fill="#181818" points="1198,250.08,1202,244.08,1198,238.08,1194,244.08,1198,250.08" style="stroke:#181818;stroke-width:1.0;"/><text fill="#000000" font-family="sans-serif" font-size="13" lengthAdjust="spacing" textLength="80" x="1199" y="166.6569">used_tagger</text><text fill="#000000" font-family="sans-serif" font-size="13" lengthAdjust="spacing" textLength="8" x="1189.3625" y="141.7483">1</text><text fill="#000000" font-family="sans-serif" font-size="13" lengthAdjust="spacing" textLength="7" x="1190.5516" y="238.9319">*</text></g><!--reverse link AStimulus to Audio--><g id="link_AStimulus_Audio"><path codeLine="61" d="M1343.3,306.77 C1367.2,306.77 1379.63,306.77 1402.08,306.77 " fill="none" id="AStimulus-backto-Audio" style="stroke:#181818;stroke-width:1.0;"/><polygon fill="#181818" points="1331.3,306.77,1337.3,310.77,1343.3,306.77,1337.3,302.77,1331.3,306.77" style="stroke:#181818;stroke-width:1.0;"/><text fill="#000000" font-family="sans-serif" font-size="13" lengthAdjust="spacing" textLength="35" x="1349.25" y="299.8369">audio</text><text fill="#000000" font-family="sans-serif" font-size="13" lengthAdjust="spacing" textLength="8" x="1338.8086" y="303.4307">1</text><text fill="#000000" font-family="sans-serif" font-size="13" lengthAdjust="spacing" textLength="8" x="1386.3567" y="303.2448">1</text></g><!--reverse link AStimulus to Stimulus--><g id="link_AStimulus_Stimulus"><path codeLine="67" d="M1149.9764,378.6142 C1133.2364,403.7642 1123.63,419.04 1107,446.94 C1081.89,489.08 1055.35,539.22 1038.98,570.9 " fill="none" id="AStimulus-backto-Stimulus" style="stroke:#181818;stroke-width:1.0;"/><polygon fill="none" points="1159.95,363.63,1144.9817,375.2897,1154.9711,381.9388,1159.95,363.63" style="stroke:#181818;stroke-width:1.0;"/></g><!--reverse link AStimulus to AttentionCheckStimulus--><g id="link_AStimulus_AttentionCheckStimulus"><path codeLine="70" d="M1204.282,381.7855 C1209.792,446.7155 1217.09,532.67 1221.01,578.85 " fill="none" id="AStimulus-backto-AttentionCheckStimulus" style="stroke:#181818;stroke-width:1.0;"/><polygon fill="none" points="1202.76,363.85,1198.3035,382.2929,1210.2605,381.2782,1202.76,363.85" style="stroke:#181818;stroke-width:1.0;"/></g><!--reverse link Model to AStimulus--><g id="link_Model_AStimulus"><path codeLine="72" d="M937.32,306.77 C984.97,306.77 1021.79,306.77 1064.7,306.77 " fill="none" id="Model-backto-AStimulus" style="stroke:#181818;stroke-width:1.0;"/><polygon fill="#181818" points="925.32,306.77,931.32,310.77,937.32,306.77,931.32,302.77,925.32,306.77" style="stroke:#181818;stroke-width:1.0;"/><text fill="#000000" font-family="sans-serif" font-size="13" lengthAdjust="spacing" textLength="104" x="943" y="299.8369">stimulus_history</text><text fill="#000000" font-family="sans-serif" font-size="13" lengthAdjust="spacing" textLength="8" x="932.8446" y="303.5932">1</text><text fill="#000000" font-family="sans-serif" font-size="13" lengthAdjust="spacing" textLength="7" x="1049.7913" y="303.4075">*</text></g><!--reverse link Model to AStimulus--><g id="link_Model_AStimulus"><path codeLine="73" d="M937.1318,285.2372 C978.0218,283.7272 1008.3,284.13 1048,286.77 C1053.51,287.13 1059.12,287.57 1064.78,288.07 " fill="none" id="Model-backto-AStimulus-1" style="stroke:#181818;stroke-width:1.0;"/><polygon fill="#181818" points="925.14,285.68,931.2835,289.4559,937.1318,285.2372,930.9883,281.4613,925.14,285.68" style="stroke:#181818;stroke-width:1.0;"/><text fill="#000000" font-family="sans-serif" font-size="13" lengthAdjust="spacing" textLength="98" x="946" y="276.8369">created_stimuli</text><text fill="#000000" font-family="sans-serif" font-size="13" lengthAdjust="spacing" textLength="8" x="932.6587" y="281.8112">1</text><text fill="#000000" font-family="sans-serif" font-size="13" lengthAdjust="spacing" textLength="7" x="1049.8759" y="283.6264">*</text></g><!--reverse link Model to AStimulus--><g id="link_Model_AStimulus"><path codeLine="74" d="M937.1318,328.2928 C978.0218,329.8028 1008.3,329.4 1048,326.77 C1053.51,326.4 1059.12,325.96 1064.78,325.46 " fill="none" id="Model-backto-AStimulus-2" style="stroke:#181818;stroke-width:1.0;"/><polygon fill="#181818" points="925.14,327.85,930.9883,332.0687,937.1318,328.2928,931.2835,324.0741,925.14,327.85" style="stroke:#181818;stroke-width:1.0;"/><text fill="#000000" font-family="sans-serif" font-size="13" lengthAdjust="spacing" textLength="104" x="943" y="322.8369">example_stimuli</text><text fill="#000000" font-family="sans-serif" font-size="13" lengthAdjust="spacing" textLength="8" x="932.6587" y="325.3649">1</text><text fill="#000000" font-family="sans-serif" font-size="13" lengthAdjust="spacing" textLength="7" x="1049.8759" y="323.178">*</text></g><!--reverse link Model to EExperimentState--><g id="link_Model_EExperimentState"><path codeLine="75" d="M611.3614,401.4661 C602.9414,411.2261 602.55,412.12 595,421.94 C574.85,448.13 554.81,477.91 537.24,505.62 " fill="none" id="Model-backto-EExperimentState" style="stroke:#181818;stroke-width:1.0;"/><polygon fill="none" points="619.2,392.38,612.252,394.3102,611.3614,401.4661,618.3094,399.5359,619.2,392.38" style="stroke:#181818;stroke-width:1.0;"/><text fill="#000000" font-family="sans-serif" font-size="13" lengthAdjust="spacing" textLength="113" x="596" y="435.0069">experiment_state</text><text fill="#000000" font-family="sans-serif" font-size="13" lengthAdjust="spacing" textLength="7" x="605.4823" y="411.8725">*</text><text fill="#000000" font-family="sans-serif" font-size="13" lengthAdjust="spacing" textLength="8" x="533.1498" y="494.9694">1</text></g><!--link AObserver to Model--><g id="link_AObserver_Model"><path codeLine="76" d="M439.85,306.77 C451.45,306.77 451.05,306.77 462.66,306.77 " fill="none" id="AObserver-to-Model" style="stroke:#181818;stroke-width:1.0;"/><polygon fill="none" points="474.66,306.77,468.66,302.77,462.66,306.77,468.66,310.77,474.66,306.77" style="stroke:#181818;stroke-width:1.0;"/><text fill="#000000" font-family="sans-serif" font-size="13" lengthAdjust="spacing" textLength="7" x="447.4813" y="303.5698">*</text><text fill="#000000" font-family="sans-serif" font-size="13" lengthAdjust="spacing" textLength="8" x="459.1348" y="303.5932">1</text></g><!--link Model to EModelUpdateIdentifier--><g id="link_Model_EModelUpdateIdentifier"><path codeLine="78" d="M713.18,392.16 C721.41,444.85 730.7844,504.8318 737.6244,548.6418 " fill="none" id="Model-to-EModelUpdateIdentifier" style="stroke:#181818;stroke-width:1.0;stroke-dasharray:7.0,7.0;"/><polygon fill="#181818" points="738.55,554.57,741.1138,545.0607,737.7787,549.6298,733.2095,546.2948,738.55,554.57" style="stroke:#181818;stroke-width:1.0;"/><text fill="#000000" font-family="sans-serif" font-size="13" lengthAdjust="spacing" textLength="30" x="721" y="435.0069">uses</text></g><!--reverse link constants to AObserver--><g id="link_constants_AObserver"><path codeLine="80" d="M327.8861,456.6314 C326.8662,452.4314 326.2956,450.9863 325,446.94 C311.84,405.84 282.48,365.75 260.05,339.23 " fill="none" id="constants-backto-AObserver" style="stroke:#181818;stroke-width:1.0;stroke-dasharray:7.0,7.0;"/><polygon fill="#181818" points="329.2073,462.4841,331.1272,452.8242,328.1063,457.6069,323.3236,454.5859,329.2073,462.4841" style="stroke:#181818;stroke-width:1.0;"/><text fill="#000000" font-family="sans-serif" font-size="13" lengthAdjust="spacing" textLength="30" x="324" y="435.0069">uses</text></g><!--SRC=[dLNRRk8m47tFLrZi2sr9fRv65LAMHbsq5124lQX2aPiOi0XsrdQwHLt-VSTsxYtgQlC0oSoPcJCNZ-CKIudyFA4SlJe8dglfdIy4FZvkKexL6c7zOJMKAIJn8KifsqORGNxbXCL7v-Gu6OxtU4iG1aUAYsEay7OBgC8dVf9Au5YXs8OpyKA0454W4FhKYVjQ6ftGWITqSupYNSxsVHs2HuQLbNYeRJb06-aXu7fnKRY-ild5Wc15h8C1aeeUyfHQpAcP18GZwHdcioT9n7E3DdX_vZH1UPPev_23FUIpum3HX315DvG83mKFskVAOCQLl8nj_cm0WqEtjpOEVah9S5Y7SYTKgaTWj4QPe0SYeXq8eDvE3J4U-aLs7Z8M8vDviZJ2NAulQhWXppWGEluF-Re0WcmX517zPqf-UtMb1feg5rGTRLCwPepyZcJ1gr- -UAZ3-3qhMu5_jubtc6r9H5uoeYsPWhYwPPO1l46cGQLSQadPeBe_4ww7jkmF4SDXOnBSELOx106uK39Ag22nQKx5mrht5HPReg8DJnDTNsqreVjMD8j4Rkx-6TQrj6qkvpJc37Wp9HiK2CiFRz9ewFKpdlgZSFmjw0Z3nUnk1OhPjALO1CjmFBsFbg4V1b7mCrX6itdm8MOqcIs3knOg-34F5kE7O1f6PwFLc9RuyoBmlxOainLuw9Zw3_D9dTN9wLJbtJ7kr6OQV8SinW-hoMhvHZ7Np1RdShB9Zxxuq_j6ugVc6Uzkat9Kczi4471Y-25JNPaUzyOiLQk0Puh2A7HKOPwbnAv4s8XcCwuHn2Dws0-PR0nRpQDtsKENC7IeTzDhhMaFvP8aPgqN91f6Dzf854RQnZCN0NUQc-szNFM5KXm6oXBoqk1KmOiZK7utNVfAwJPoDjgHU5y7i1xEgRiEJuvTkdKQK8HAxQ5UkM7APTlxmC3UCqcnrkX7xicBlb992Q-y0uoxhgrgzqGRi_OUQxBYRkeMWUhLOTNNryCp9m5yGezbpt7gM-uw1NYrPqh4Nm00]--></g></svg>