<?xml version="1.0" encoding="us-ascii" standalone="no"?><svg xmlns="http://www.w3.org/2000/svg" xmlns:xlink="http://www.w3.org/1999/xlink" contentStyleType="text/css" height="858px" preserveAspectRatio="none" style="width:1797px;height:858px;background:#FFFFFF;" version="1.1" viewBox="0 0 1797 858" width="1797px" zoomAndPan="magnify"><defs/><g><!--cluster auditory_tagging--><g id="cluster_auditory_tagging"><path d="M1162.5,6 L1302.5,6 A3.75,3.75 0 0 1 1305,8.5 L1312,28.2969 L1729.5,28.2969 A2.5,2.5 0 0 1 1732,30.7969 L1732,135.5 A2.5,2.5 0 0 1 1729.5,138 L1162.5,138 A2.5,2.5 0 0 1 1160,135.5 L1160,8.5 A2.5,2.5 0 0 1 1162.5,6 " fill="none" style="stroke:#000000;stroke-width:1.5;"/><line style="stroke:#000000;stroke-width:1.5;" x1="1160" x2="1312" y1="28.2969" y2="28.2969"/><text fill="#000000" font-family="sans-serif" font-size="14" font-weight="bold" lengthAdjust="spacing" textLength="139" x="1164" y="20.9951">auditory_tagging</text></g><!--cluster model--><g id="cluster_model"><path d="M8.5,187 L58.5,187 A3.75,3.75 0 0 1 61,189.5 L68,209.2969 L1787.5,209.2969 A2.5,2.5 0 0 1 1790,211.7969 L1790,705.5 A2.5,2.5 0 0 1 1787.5,708 L8.5,708 A2.5,2.5 0 0 1 6,705.5 L6,189.5 A2.5,2.5 0 0 1 8.5,187 " fill="none" style="stroke:#000000;stroke-width:1.5;"/><line style="stroke:#000000;stroke-width:1.5;" x1="6" x2="68" y1="209.2969" y2="209.2969"/><text fill="#000000" font-family="sans-serif" font-size="14" font-weight="bold" lengthAdjust="spacing" textLength="49" x="10" y="201.9951">model</text></g><!--cluster constants--><g id="cluster_constants"><path d="M367.5,463 L451.5,463 A3.75,3.75 0 0 1 454,465.5 L461,485.2969 L934.5,485.2969 A2.5,2.5 0 0 1 937,487.7969 L937,673.5 A2.5,2.5 0 0 1 934.5,676 L367.5,676 A2.5,2.5 0 0 1 365,673.5 L365,465.5 A2.5,2.5 0 0 1 367.5,463 " fill="none" style="stroke:#000000;stroke-width:1.5;"/><line style="stroke:#000000;stroke-width:1.5;" x1="365" x2="461" y1="485.2969" y2="485.2969"/><text fill="#000000" font-family="sans-serif" font-size="14" font-weight="bold" lengthAdjust="spacing" textLength="83" x="369" y="477.9951">constants</text></g><!--class AAudioTagger--><g id="elem_AAudioTagger"><rect codeLine="7" fill="#F1F1F1" height="80.5938" id="AAudioTagger" rx="2.5" ry="2.5" style="stroke:#181818;stroke-width:0.5;" width="539" x="1176.5" y="41"/><ellipse cx="1390.75" cy="57" fill="#A9DCDF" rx="11" ry="11" style="stroke:#181818;stroke-width:1.0;"/><path d="M1392.8281,58.8125 L1393.2188,59.7969 L1392.8281,59.7969 C1392.375,59.7969 1392.2656,59.8125 1392.1094,59.9219 C1391.8594,60.0781 1391.7031,60.3594 1391.7031,60.6563 C1391.7031,60.9219 1391.8438,61.1719 1392.0625,61.3281 C1392.2031,61.4531 1392.4063,61.5 1392.8281,61.5 L1395.1875,61.5 C1395.5469,61.5 1395.7656,61.4688 1395.9063,61.375 C1396.1563,61.2344 1396.3125,60.9375 1396.3125,60.6563 C1396.3125,60.375 1396.1719,60.125 1395.9531,59.9688 C1395.7813,59.8281 1395.625,59.7969 1395.1563,59.7969 L1391.7656,51.5938 L1388.0938,51.5938 C1387.6406,51.5938 1387.5156,51.6094 1387.3594,51.7031 C1387.1094,51.875 1386.9531,52.1563 1386.9531,52.4375 C1386.9531,52.7188 1387.0938,52.9688 1387.3125,53.1406 C1387.4844,53.25 1387.6563,53.2813 1388.0938,53.2813 L1389.1719,53.2813 L1386.5313,59.7969 C1386.1094,59.7969 1385.9531,59.8125 1385.7969,59.9219 C1385.5469,60.0781 1385.3906,60.3594 1385.3906,60.6563 C1385.3906,61.2188 1385.7656,61.5 1386.5156,61.5 L1388.7813,61.5 C1389.1406,61.5 1389.3594,61.4688 1389.4844,61.375 C1389.75,61.2344 1389.8906,60.9375 1389.8906,60.6563 C1389.8906,60.375 1389.7656,60.125 1389.5469,59.9531 C1389.375,59.8281 1389.2344,59.7969 1388.7813,59.7969 L1388.3906,59.7969 L1388.7813,58.8125 L1392.8281,58.8125 Z M1392.125,57.1094 L1389.4531,57.1094 L1390.7969,53.8438 L1392.125,57.1094 Z " fill="#000000"/><text fill="#000000" font-family="sans-serif" font-size="14" font-style="italic" lengthAdjust="spacing" textLength="102" x="1411.25" y="61.8467">AAudioTagger</text><line style="stroke:#181818;stroke-width:0.5;" x1="1177.5" x2="1714.5" y1="73" y2="73"/><line style="stroke:#181818;stroke-width:0.5;" x1="1177.5" x2="1714.5" y1="81" y2="81"/><polygon fill="#FFFF44" points="1187.5,89.6484,1191.5,93.6484,1187.5,97.6484,1183.5,93.6484" style="stroke:#B38D22;stroke-width:1.0;"/><text fill="#000000" font-family="sans-serif" font-size="14" font-style="italic" lengthAdjust="spacing" textLength="513" x="1196.5" y="97.9951">NDArray[float] modify_chunk(audio_array_chunk: NDArray[float], fs: int))</text><ellipse cx="1187.5" cy="110.9453" fill="#84BE84" rx="3" ry="3" style="stroke:#038048;stroke-width:1.0;"/><text fill="#000000" font-family="sans-serif" font-size="14" lengthAdjust="spacing" textLength="195" x="1196.5" y="114.292">Audio create(audio, stimuli)</text></g><!--class AObserver--><g id="elem_AObserver"><rect codeLine="14" fill="#F1F1F1" height="64.2969" id="AObserver" rx="2.5" ry="2.5" style="stroke:#181818;stroke-width:0.5;" width="444" x="22" y="275"/><ellipse cx="202.25" cy="291" fill="#A9DCDF" rx="11" ry="11" style="stroke:#181818;stroke-width:1.0;"/><path d="M204.3281,292.8125 L204.7188,293.7969 L204.3281,293.7969 C203.875,293.7969 203.7656,293.8125 203.6094,293.9219 C203.3594,294.0781 203.2031,294.3594 203.2031,294.6563 C203.2031,294.9219 203.3438,295.1719 203.5625,295.3281 C203.7031,295.4531 203.9063,295.5 204.3281,295.5 L206.6875,295.5 C207.0469,295.5 207.2656,295.4688 207.4063,295.375 C207.6563,295.2344 207.8125,294.9375 207.8125,294.6563 C207.8125,294.375 207.6719,294.125 207.4531,293.9688 C207.2813,293.8281 207.125,293.7969 206.6563,293.7969 L203.2656,285.5938 L199.5938,285.5938 C199.1406,285.5938 199.0156,285.6094 198.8594,285.7031 C198.6094,285.875 198.4531,286.1563 198.4531,286.4375 C198.4531,286.7188 198.5938,286.9688 198.8125,287.1406 C198.9844,287.25 199.1563,287.2813 199.5938,287.2813 L200.6719,287.2813 L198.0313,293.7969 C197.6094,293.7969 197.4531,293.8125 197.2969,293.9219 C197.0469,294.0781 196.8906,294.3594 196.8906,294.6563 C196.8906,295.2188 197.2656,295.5 198.0156,295.5 L200.2813,295.5 C200.6406,295.5 200.8594,295.4688 200.9844,295.375 C201.25,295.2344 201.3906,294.9375 201.3906,294.6563 C201.3906,294.375 201.2656,294.125 201.0469,293.9531 C200.875,293.8281 200.7344,293.7969 200.2813,293.7969 L199.8906,293.7969 L200.2813,292.8125 L204.3281,292.8125 Z M203.625,291.1094 L200.9531,291.1094 L202.2969,287.8438 L203.625,291.1094 Z " fill="#000000"/><text fill="#000000" font-family="sans-serif" font-size="14" font-style="italic" lengthAdjust="spacing" textLength="75" x="222.75" y="295.8467">AObserver</text><line style="stroke:#181818;stroke-width:0.5;" x1="23" x2="465" y1="307" y2="307"/><line style="stroke:#181818;stroke-width:0.5;" x1="23" x2="465" y1="315" y2="315"/><ellipse cx="33" cy="328.6484" fill="#84BE84" rx="3" ry="3" style="stroke:#038048;stroke-width:1.0;"/><text fill="#000000" font-family="sans-serif" font-size="14" lengthAdjust="spacing" textLength="418" x="42" y="331.9951">void update(data: Any, identifier: EModelUpdateIdentifier)</text></g><!--class Model--><g id="elem_Model"><rect codeLine="18" fill="#F1F1F1" height="170.3438" id="Model" rx="2.5" ry="2.5" style="stroke:#181818;stroke-width:0.5;" width="476" x="501" y="222"/><ellipse cx="696.25" cy="242.1328" fill="#ADD1B2" rx="11" ry="11" style="stroke:#181818;stroke-width:1.0;"/><path d="M698.5938,237.8047 C697.6563,237.3672 697.0625,237.2266 696.1875,237.2266 C693.5625,237.2266 691.5625,239.3047 691.5625,242.0234 L691.5625,243.1484 C691.5625,245.7266 693.6719,247.6172 696.5625,247.6172 C697.7813,247.6172 698.9375,247.3203 699.6875,246.7734 C700.2656,246.3672 700.5938,245.9141 700.5938,245.5234 C700.5938,245.0703 700.2031,244.6797 699.7344,244.6797 C699.5156,244.6797 699.3125,244.7578 699.125,244.9453 C698.6719,245.4297 698.6719,245.4297 698.4844,245.5234 C698.0625,245.7891 697.375,245.9141 696.6094,245.9141 C694.5625,245.9141 693.2656,244.8203 693.2656,243.1172 L693.2656,242.0234 C693.2656,240.2422 694.5156,238.9297 696.25,238.9297 C696.8281,238.9297 697.4375,239.0859 697.9063,239.3359 C698.3906,239.6172 698.5625,239.8359 698.6563,240.2422 C698.7188,240.6484 698.75,240.7734 698.8906,240.8984 C699.0313,241.0391 699.2656,241.1484 699.4844,241.1484 C699.75,241.1484 700.0156,241.0078 700.1875,240.7891 C700.2969,240.6328 700.3281,240.4453 700.3281,240.0234 L700.3281,238.6016 C700.3281,238.1641 700.3125,238.0391 700.2188,237.8828 C700.0625,237.6172 699.7813,237.4766 699.4844,237.4766 C699.1875,237.4766 698.9844,237.5703 698.7656,237.8828 L698.5938,237.8047 Z " fill="#000000"/><text fill="#000000" font-family="sans-serif" font-size="12" font-style="italic" lengthAdjust="spacing" textLength="81" x="714.75" y="238.1387">&#171;Observable&#187;</text><text fill="#000000" font-family="sans-serif" font-size="14" lengthAdjust="spacing" textLength="43" x="733.75" y="253.9639">Model</text><line style="stroke:#181818;stroke-width:0.5;" x1="502" x2="976" y1="262.2656" y2="262.2656"/><rect fill="none" height="6" style="stroke:#C82930;stroke-width:1.0;" width="6" x="509" y="272.9141"/><text fill="#000000" font-family="sans-serif" font-size="14" lengthAdjust="spacing" textLength="166" x="521" y="279.2607">List[str] primer_history</text><line style="stroke:#181818;stroke-width:0.5;" x1="502" x2="976" y1="286.5625" y2="286.5625"/><rect fill="#F24D5C" height="6" style="stroke:#C82930;stroke-width:1.0;" width="6" x="509" y="297.2109"/><text fill="#000000" font-family="sans-serif" font-size="14" lengthAdjust="spacing" textLength="265" x="521" y="303.5576">Model(stimuli: List[CreatedStimulus])</text><rect fill="#F24D5C" height="6" style="stroke:#C82930;stroke-width:1.0;" width="6" x="509" y="313.5078"/><text fill="#000000" font-family="sans-serif" font-size="14" lengthAdjust="spacing" textLength="410" x="521" y="319.8545">void notify(data: Any, identifier: EModelUpdateIdentifier)</text><ellipse cx="512" cy="332.8047" fill="#84BE84" rx="3" ry="3" style="stroke:#038048;stroke-width:1.0;"/><text fill="#000000" font-family="sans-serif" font-size="14" lengthAdjust="spacing" textLength="309" x="521" y="336.1514">void register(view: AObserver, priority: int)</text><ellipse cx="512" cy="349.1016" fill="#84BE84" rx="3" ry="3" style="stroke:#038048;stroke-width:1.0;"/><text fill="#000000" font-family="sans-serif" font-size="14" lengthAdjust="spacing" textLength="326" x="521" y="352.4482">void new_stimulus(stimulus: CreatedStimulus)</text><ellipse cx="512" cy="365.3984" fill="#84BE84" rx="3" ry="3" style="stroke:#038048;stroke-width:1.0;"/><text fill="#000000" font-family="sans-serif" font-size="14" lengthAdjust="spacing" textLength="316" x="521" y="368.7451">void new_primer(stimulus: CreatedStimulus)</text><ellipse cx="512" cy="381.6953" fill="#84BE84" rx="3" ry="3" style="stroke:#038048;stroke-width:1.0;"/><text fill="#000000" font-family="sans-serif" font-size="14" lengthAdjust="spacing" textLength="450" x="521" y="385.042">void change_experiment_state(new_state: EExperimentState)</text></g><!--class Logger--><g id="elem_Logger"><rect codeLine="29" fill="#F1F1F1" height="88.8594" id="Logger" rx="2.5" ry="2.5" style="stroke:#181818;stroke-width:0.5;" width="254" x="84" y="534.5"/><ellipse cx="174.75" cy="554.6328" fill="#ADD1B2" rx="11" ry="11" style="stroke:#181818;stroke-width:1.0;"/><path d="M177.0938,550.3047 C176.1563,549.8672 175.5625,549.7266 174.6875,549.7266 C172.0625,549.7266 170.0625,551.8047 170.0625,554.5234 L170.0625,555.6484 C170.0625,558.2266 172.1719,560.1172 175.0625,560.1172 C176.2813,560.1172 177.4375,559.8203 178.1875,559.2734 C178.7656,558.8672 179.0938,558.4141 179.0938,558.0234 C179.0938,557.5703 178.7031,557.1797 178.2344,557.1797 C178.0156,557.1797 177.8125,557.2578 177.625,557.4453 C177.1719,557.9297 177.1719,557.9297 176.9844,558.0234 C176.5625,558.2891 175.875,558.4141 175.1094,558.4141 C173.0625,558.4141 171.7656,557.3203 171.7656,555.6172 L171.7656,554.5234 C171.7656,552.7422 173.0156,551.4297 174.75,551.4297 C175.3281,551.4297 175.9375,551.5859 176.4063,551.8359 C176.8906,552.1172 177.0625,552.3359 177.1563,552.7422 C177.2188,553.1484 177.25,553.2734 177.3906,553.3984 C177.5313,553.5391 177.7656,553.6484 177.9844,553.6484 C178.25,553.6484 178.5156,553.5078 178.6875,553.2891 C178.7969,553.1328 178.8281,552.9453 178.8281,552.5234 L178.8281,551.1016 C178.8281,550.6641 178.8125,550.5391 178.7188,550.3828 C178.5625,550.1172 178.2813,549.9766 177.9844,549.9766 C177.6875,549.9766 177.4844,550.0703 177.2656,550.3828 L177.0938,550.3047 Z " fill="#000000"/><text fill="#000000" font-family="sans-serif" font-size="12" font-style="italic" lengthAdjust="spacing" textLength="68" x="193.25" y="550.6387">&#171;Observer&#187;</text><text fill="#000000" font-family="sans-serif" font-size="14" lengthAdjust="spacing" textLength="50" x="202.25" y="566.4639">Logger</text><line style="stroke:#181818;stroke-width:0.5;" x1="85" x2="337" y1="574.7656" y2="574.7656"/><rect fill="none" height="6" style="stroke:#C82930;stroke-width:1.0;" width="6" x="92" y="585.4141"/><text fill="#000000" font-family="sans-serif" font-size="14" lengthAdjust="spacing" textLength="166" x="104" y="591.7607">Path exports_directory</text><line style="stroke:#181818;stroke-width:0.5;" x1="85" x2="337" y1="599.0625" y2="599.0625"/><ellipse cx="95" cy="612.7109" fill="#84BE84" rx="3" ry="3" style="stroke:#038048;stroke-width:1.0;"/><text fill="#000000" font-family="sans-serif" font-size="14" lengthAdjust="spacing" textLength="228" x="104" y="616.0576">Logger(target_folder: PathLike)</text></g><!--class Stimulus--><g id="elem_Stimulus"><rect codeLine="52" fill="#F1F1F1" height="129.4844" id="Stimulus" rx="2.5" ry="2.5" style="stroke:#181818;stroke-width:0.5;" width="286" x="1196" y="514.5"/><ellipse cx="1304.25" cy="530.5" fill="#ADD1B2" rx="11" ry="11" style="stroke:#181818;stroke-width:1.0;"/><path d="M1306.5938,526.1719 C1305.6563,525.7344 1305.0625,525.5938 1304.1875,525.5938 C1301.5625,525.5938 1299.5625,527.6719 1299.5625,530.3906 L1299.5625,531.5156 C1299.5625,534.0938 1301.6719,535.9844 1304.5625,535.9844 C1305.7813,535.9844 1306.9375,535.6875 1307.6875,535.1406 C1308.2656,534.7344 1308.5938,534.2813 1308.5938,533.8906 C1308.5938,533.4375 1308.2031,533.0469 1307.7344,533.0469 C1307.5156,533.0469 1307.3125,533.125 1307.125,533.3125 C1306.6719,533.7969 1306.6719,533.7969 1306.4844,533.8906 C1306.0625,534.1563 1305.375,534.2813 1304.6094,534.2813 C1302.5625,534.2813 1301.2656,533.1875 1301.2656,531.4844 L1301.2656,530.3906 C1301.2656,528.6094 1302.5156,527.2969 1304.25,527.2969 C1304.8281,527.2969 1305.4375,527.4531 1305.9063,527.7031 C1306.3906,527.9844 1306.5625,528.2031 1306.6563,528.6094 C1306.7188,529.0156 1306.75,529.1406 1306.8906,529.2656 C1307.0313,529.4063 1307.2656,529.5156 1307.4844,529.5156 C1307.75,529.5156 1308.0156,529.375 1308.1875,529.1563 C1308.2969,529 1308.3281,528.8125 1308.3281,528.3906 L1308.3281,526.9688 C1308.3281,526.5313 1308.3125,526.4063 1308.2188,526.25 C1308.0625,525.9844 1307.7813,525.8438 1307.4844,525.8438 C1307.1875,525.8438 1306.9844,525.9375 1306.7656,526.25 L1306.5938,526.1719 Z " fill="#000000"/><text fill="#000000" font-family="sans-serif" font-size="14" lengthAdjust="spacing" textLength="61" x="1324.75" y="535.3467">Stimulus</text><line style="stroke:#181818;stroke-width:0.5;" x1="1197" x2="1481" y1="546.5" y2="546.5"/><ellipse cx="1207" cy="560.1484" fill="none" rx="3" ry="3" style="stroke:#038048;stroke-width:1.0;"/><text fill="#000000" font-family="sans-serif" font-size="14" lengthAdjust="spacing" textLength="80" x="1216" y="563.4951">str prompt</text><ellipse cx="1207" cy="576.4453" fill="none" rx="3" ry="3" style="stroke:#038048;stroke-width:1.0;"/><text fill="#000000" font-family="sans-serif" font-size="14" lengthAdjust="spacing" textLength="73" x="1216" y="579.792">str primer</text><ellipse cx="1207" cy="592.7422" fill="none" rx="3" ry="3" style="stroke:#038048;stroke-width:1.0;"/><text fill="#000000" font-family="sans-serif" font-size="14" lengthAdjust="spacing" textLength="115" x="1216" y="596.0889">List[str] options</text><ellipse cx="1207" cy="609.0391" fill="none" rx="3" ry="3" style="stroke:#038048;stroke-width:1.0;"/><text fill="#000000" font-family="sans-serif" font-size="14" lengthAdjust="spacing" textLength="260" x="1216" y="612.3857">List[Tuple[float, float]] time_stamps</text><ellipse cx="1207" cy="625.3359" fill="none" rx="3" ry="3" style="stroke:#038048;stroke-width:1.0;"/><text fill="#000000" font-family="sans-serif" font-size="14" lengthAdjust="spacing" textLength="70" x="1216" y="628.6826">int target</text><line style="stroke:#181818;stroke-width:0.5;" x1="1197" x2="1481" y1="635.9844" y2="635.9844"/></g><!--class CreatedStimulus--><g id="elem_CreatedStimulus"><rect codeLine="61" fill="#F1F1F1" height="162.0781" id="CreatedStimulus" rx="2.5" ry="2.5" style="stroke:#181818;stroke-width:0.5;" width="655" x="1118.5" y="226"/><ellipse cx="1382.25" cy="242" fill="#ADD1B2" rx="11" ry="11" style="stroke:#181818;stroke-width:1.0;"/><path d="M1384.5938,237.6719 C1383.6563,237.2344 1383.0625,237.0938 1382.1875,237.0938 C1379.5625,237.0938 1377.5625,239.1719 1377.5625,241.8906 L1377.5625,243.0156 C1377.5625,245.5938 1379.6719,247.4844 1382.5625,247.4844 C1383.7813,247.4844 1384.9375,247.1875 1385.6875,246.6406 C1386.2656,246.2344 1386.5938,245.7813 1386.5938,245.3906 C1386.5938,244.9375 1386.2031,244.5469 1385.7344,244.5469 C1385.5156,244.5469 1385.3125,244.625 1385.125,244.8125 C1384.6719,245.2969 1384.6719,245.2969 1384.4844,245.3906 C1384.0625,245.6563 1383.375,245.7813 1382.6094,245.7813 C1380.5625,245.7813 1379.2656,244.6875 1379.2656,242.9844 L1379.2656,241.8906 C1379.2656,240.1094 1380.5156,238.7969 1382.25,238.7969 C1382.8281,238.7969 1383.4375,238.9531 1383.9063,239.2031 C1384.3906,239.4844 1384.5625,239.7031 1384.6563,240.1094 C1384.7188,240.5156 1384.75,240.6406 1384.8906,240.7656 C1385.0313,240.9063 1385.2656,241.0156 1385.4844,241.0156 C1385.75,241.0156 1386.0156,240.875 1386.1875,240.6563 C1386.2969,240.5 1386.3281,240.3125 1386.3281,239.8906 L1386.3281,238.4688 C1386.3281,238.0313 1386.3125,237.9063 1386.2188,237.75 C1386.0625,237.4844 1385.7813,237.3438 1385.4844,237.3438 C1385.1875,237.3438 1384.9844,237.4375 1384.7656,237.75 L1384.5938,237.6719 Z " fill="#000000"/><text fill="#000000" font-family="sans-serif" font-size="14" lengthAdjust="spacing" textLength="119" x="1402.75" y="246.8467">CreatedStimulus</text><line style="stroke:#181818;stroke-width:0.5;" x1="1119.5" x2="1772.5" y1="258" y2="258"/><ellipse cx="1129.5" cy="271.6484" fill="none" rx="3" ry="3" style="stroke:#038048;stroke-width:1.0;"/><text fill="#000000" font-family="sans-serif" font-size="14" lengthAdjust="spacing" textLength="226" x="1138.5" y="274.9951">Optional[str] used_tagger_label</text><line style="stroke:#181818;stroke-width:0.5;" x1="1119.5" x2="1772.5" y1="282.2969" y2="282.2969"/><ellipse cx="1129.5" cy="295.9453" fill="#84BE84" rx="3" ry="3" style="stroke:#038048;stroke-width:1.0;"/><text fill="#000000" font-family="sans-serif" font-size="14" lengthAdjust="spacing" textLength="629" x="1138.5" y="299.292">CreatedStimulus(stimulus: Stimulus, modified_audio: Audio, used_tagger: AAudioTagger)</text><ellipse cx="1129.5" cy="312.2422" fill="#84BE84" rx="3" ry="3" style="stroke:#038048;stroke-width:1.0;"/><text fill="#000000" font-family="sans-serif" font-size="14" lengthAdjust="spacing" textLength="90" x="1138.5" y="315.5889">str prompt()</text><ellipse cx="1129.5" cy="328.5391" fill="#84BE84" rx="3" ry="3" style="stroke:#038048;stroke-width:1.0;"/><text fill="#000000" font-family="sans-serif" font-size="14" lengthAdjust="spacing" textLength="83" x="1138.5" y="331.8857">str primer()</text><ellipse cx="1129.5" cy="344.8359" fill="#84BE84" rx="3" ry="3" style="stroke:#038048;stroke-width:1.0;"/><text fill="#000000" font-family="sans-serif" font-size="14" lengthAdjust="spacing" textLength="125" x="1138.5" y="348.1826">List[str] options()</text><ellipse cx="1129.5" cy="361.1328" fill="#84BE84" rx="3" ry="3" style="stroke:#038048;stroke-width:1.0;"/><text fill="#000000" font-family="sans-serif" font-size="14" lengthAdjust="spacing" textLength="270" x="1138.5" y="364.4795">List[Tuple[float, float]] time_stamps()</text><ellipse cx="1129.5" cy="377.4297" fill="#84BE84" rx="3" ry="3" style="stroke:#038048;stroke-width:1.0;"/><text fill="#000000" font-family="sans-serif" font-size="14" lengthAdjust="spacing" textLength="80" x="1138.5" y="380.7764">int target()</text></g><!--class EExperimentState--><g id="elem_EExperimentState"><rect codeLine="36" fill="#F1F1F1" height="145.7813" id="EExperimentState" rx="2.5" ry="2.5" style="stroke:#181818;stroke-width:0.5;" width="235" x="408.5" y="506"/><ellipse cx="454.75" cy="522" fill="#EB937F" rx="11" ry="11" style="stroke:#181818;stroke-width:1.0;"/><path d="M453.5469,522.875 L455,522.875 L455,522.9844 C455,523.3906 455.0313,523.5469 455.1094,523.7031 C455.2656,523.9531 455.5469,524.1094 455.8438,524.1094 C456.0938,524.1094 456.3594,523.9688 456.5156,523.75 C456.6406,523.5938 456.6719,523.4375 456.6719,522.9844 L456.6719,521.0625 C456.6719,520.9063 456.6719,520.8594 456.6563,520.7031 C456.5938,520.2344 456.2813,519.9219 455.8281,519.9219 C455.5781,519.9219 455.3125,520.0625 455.1406,520.2813 C455.0313,520.4531 455,520.6094 455,521.0625 L455,521.1875 L453.5469,521.1875 L453.5469,518.7813 L457.5313,518.7813 L457.5313,519.6406 C457.5313,520.0469 457.5625,520.2188 457.6406,520.375 C457.8125,520.625 458.0938,520.7813 458.375,520.7813 C458.6406,520.7813 458.9063,520.6406 459.0781,520.4219 C459.1875,520.25 459.2188,520.1094 459.2188,519.6406 L459.2188,517.0938 L451.5938,517.0938 C451.1563,517.0938 451.0313,517.1094 450.875,517.2031 C450.625,517.3594 450.4688,517.6563 450.4688,517.9375 C450.4688,518.2188 450.6094,518.4688 450.8281,518.6406 C450.9844,518.75 451.1719,518.7813 451.5938,518.7813 L451.8438,518.7813 L451.8438,525.2969 L451.5938,525.2969 C451.1875,525.2969 451.0313,525.3125 450.875,525.4219 C450.625,525.5938 450.4688,525.8594 450.4688,526.1563 C450.4688,526.4219 450.6094,526.6719 450.8281,526.8281 C450.9688,526.9531 451.2031,527 451.5938,527 L459.5938,527 L459.5938,524.4219 C459.5938,523.9844 459.5625,523.8438 459.4844,523.6875 C459.3125,523.4375 459.0313,523.2813 458.75,523.2813 C458.4844,523.2813 458.2188,523.3906 458.0469,523.6406 C457.9375,523.7969 457.9063,523.9375 457.9063,524.4219 L457.9063,525.2969 L453.5469,525.2969 L453.5469,522.875 Z " fill="#000000"/><text fill="#000000" font-family="sans-serif" font-size="14" lengthAdjust="spacing" textLength="134" x="475.25" y="526.8467">EExperimentState</text><line style="stroke:#181818;stroke-width:0.5;" x1="409.5" x2="642.5" y1="538" y2="538"/><text fill="#000000" font-family="sans-serif" font-size="14" lengthAdjust="spacing" textLength="66" x="414.5" y="554.9951">INACTIVE</text><text fill="#000000" font-family="sans-serif" font-size="14" lengthAdjust="spacing" textLength="108" x="414.5" y="571.292">INTRODUCTION</text><text fill="#000000" font-family="sans-serif" font-size="14" lengthAdjust="spacing" textLength="204" x="414.5" y="587.5889">RESTING_STATE_EYES_OPEN</text><text fill="#000000" font-family="sans-serif" font-size="14" lengthAdjust="spacing" textLength="223" x="414.5" y="603.8857">RESTING_STATE_EYES_CLOSED</text><text fill="#000000" font-family="sans-serif" font-size="14" lengthAdjust="spacing" textLength="206" x="414.5" y="620.1826">EXPERIMENT_INTRODUCTION</text><text fill="#000000" font-family="sans-serif" font-size="14" lengthAdjust="spacing" textLength="91" x="414.5" y="636.4795">EXPERIMENT</text><line style="stroke:#181818;stroke-width:0.5;" x1="409.5" x2="642.5" y1="643.7813" y2="643.7813"/></g><!--class EModelUpdateIdentifier--><g id="elem_EModelUpdateIdentifier"><rect codeLine="45" fill="#F1F1F1" height="96.8906" id="EModelUpdateIdentifier" rx="2.5" ry="2.5" style="stroke:#181818;stroke-width:0.5;" width="234" x="679" y="530.5"/><ellipse cx="707.95" cy="546.5" fill="#EB937F" rx="11" ry="11" style="stroke:#181818;stroke-width:1.0;"/><path d="M706.7469,547.375 L708.2,547.375 L708.2,547.4844 C708.2,547.8906 708.2313,548.0469 708.3094,548.2031 C708.4656,548.4531 708.7469,548.6094 709.0438,548.6094 C709.2938,548.6094 709.5594,548.4688 709.7156,548.25 C709.8406,548.0938 709.8719,547.9375 709.8719,547.4844 L709.8719,545.5625 C709.8719,545.4063 709.8719,545.3594 709.8563,545.2031 C709.7938,544.7344 709.4813,544.4219 709.0281,544.4219 C708.7781,544.4219 708.5125,544.5625 708.3406,544.7813 C708.2313,544.9531 708.2,545.1094 708.2,545.5625 L708.2,545.6875 L706.7469,545.6875 L706.7469,543.2813 L710.7313,543.2813 L710.7313,544.1406 C710.7313,544.5469 710.7625,544.7188 710.8406,544.875 C711.0125,545.125 711.2938,545.2813 711.575,545.2813 C711.8406,545.2813 712.1063,545.1406 712.2781,544.9219 C712.3875,544.75 712.4188,544.6094 712.4188,544.1406 L712.4188,541.5938 L704.7938,541.5938 C704.3563,541.5938 704.2313,541.6094 704.075,541.7031 C703.825,541.8594 703.6688,542.1563 703.6688,542.4375 C703.6688,542.7188 703.8094,542.9688 704.0281,543.1406 C704.1844,543.25 704.3719,543.2813 704.7938,543.2813 L705.0438,543.2813 L705.0438,549.7969 L704.7938,549.7969 C704.3875,549.7969 704.2313,549.8125 704.075,549.9219 C703.825,550.0938 703.6688,550.3594 703.6688,550.6563 C703.6688,550.9219 703.8094,551.1719 704.0281,551.3281 C704.1688,551.4531 704.4031,551.5 704.7938,551.5 L712.7938,551.5 L712.7938,548.9219 C712.7938,548.4844 712.7625,548.3438 712.6844,548.1875 C712.5125,547.9375 712.2313,547.7813 711.95,547.7813 C711.6844,547.7813 711.4188,547.8906 711.2469,548.1406 C711.1375,548.2969 711.1063,548.4375 711.1063,548.9219 L711.1063,549.7969 L706.7469,549.7969 L706.7469,547.375 Z " fill="#000000"/><text fill="#000000" font-family="sans-serif" font-size="14" lengthAdjust="spacing" textLength="171" x="725.05" y="551.3467">EModelUpdateIdentifier</text><line style="stroke:#181818;stroke-width:0.5;" x1="680" x2="912" y1="562.5" y2="562.5"/><text fill="#000000" font-family="sans-serif" font-size="14" lengthAdjust="spacing" textLength="109" x="685" y="579.4951">NEW_STIMULUS</text><text fill="#000000" font-family="sans-serif" font-size="14" lengthAdjust="spacing" textLength="94" x="685" y="595.792">NEW_PRIMER</text><text fill="#000000" font-family="sans-serif" font-size="14" lengthAdjust="spacing" textLength="222" x="685" y="612.0889">EXPERIMENT_STATE_CHANGED</text><line style="stroke:#181818;stroke-width:0.5;" x1="680" x2="912" y1="619.3906" y2="619.3906"/></g><!--class Audio--><g id="elem_Audio"><rect codeLine="1" fill="#F1F1F1" height="80.5938" id="Audio" rx="2.5" ry="2.5" style="stroke:#181818;stroke-width:0.5;" width="194" x="1387" y="771"/><ellipse cx="1459.75" cy="787" fill="#ADD1B2" rx="11" ry="11" style="stroke:#181818;stroke-width:1.0;"/><path d="M1462.0938,782.6719 C1461.1563,782.2344 1460.5625,782.0938 1459.6875,782.0938 C1457.0625,782.0938 1455.0625,784.1719 1455.0625,786.8906 L1455.0625,788.0156 C1455.0625,790.5938 1457.1719,792.4844 1460.0625,792.4844 C1461.2813,792.4844 1462.4375,792.1875 1463.1875,791.6406 C1463.7656,791.2344 1464.0938,790.7813 1464.0938,790.3906 C1464.0938,789.9375 1463.7031,789.5469 1463.2344,789.5469 C1463.0156,789.5469 1462.8125,789.625 1462.625,789.8125 C1462.1719,790.2969 1462.1719,790.2969 1461.9844,790.3906 C1461.5625,790.6563 1460.875,790.7813 1460.1094,790.7813 C1458.0625,790.7813 1456.7656,789.6875 1456.7656,787.9844 L1456.7656,786.8906 C1456.7656,785.1094 1458.0156,783.7969 1459.75,783.7969 C1460.3281,783.7969 1460.9375,783.9531 1461.4063,784.2031 C1461.8906,784.4844 1462.0625,784.7031 1462.1563,785.1094 C1462.2188,785.5156 1462.25,785.6406 1462.3906,785.7656 C1462.5313,785.9063 1462.7656,786.0156 1462.9844,786.0156 C1463.25,786.0156 1463.5156,785.875 1463.6875,785.6563 C1463.7969,785.5 1463.8281,785.3125 1463.8281,784.8906 L1463.8281,783.4688 C1463.8281,783.0313 1463.8125,782.9063 1463.7188,782.75 C1463.5625,782.4844 1463.2813,782.3438 1462.9844,782.3438 C1462.6875,782.3438 1462.4844,782.4375 1462.2656,782.75 L1462.0938,782.6719 Z " fill="#000000"/><text fill="#000000" font-family="sans-serif" font-size="14" lengthAdjust="spacing" textLength="40" x="1480.25" y="791.8467">Audio</text><line style="stroke:#181818;stroke-width:0.5;" x1="1388" x2="1580" y1="803" y2="803"/><ellipse cx="1398" cy="816.6484" fill="none" rx="3" ry="3" style="stroke:#038048;stroke-width:1.0;"/><text fill="#000000" font-family="sans-serif" font-size="14" lengthAdjust="spacing" textLength="143" x="1407" y="819.9951">NDArray[float] array</text><ellipse cx="1398" cy="832.9453" fill="none" rx="3" ry="3" style="stroke:#038048;stroke-width:1.0;"/><text fill="#000000" font-family="sans-serif" font-size="14" lengthAdjust="spacing" textLength="168" x="1407" y="836.292">int sampling_frequency</text><line style="stroke:#181818;stroke-width:0.5;" x1="1388" x2="1580" y1="843.5938" y2="843.5938"/></g><!--reverse link AObserver to Logger--><g id="link_AObserver_Logger"><path codeLine="33" d="M237.9984,357.1031 C232.1284,405.1331 223.049,479.419 216.362,534.126 " fill="none" id="AObserver-backto-Logger" style="stroke:#181818;stroke-width:1.0;"/><polygon fill="none" points="240.182,339.236,232.0427,356.3752,243.9541,357.8309,240.182,339.236" style="stroke:#181818;stroke-width:1.0;"/></g><!--reverse link Stimulus to Audio--><g id="link_Stimulus_Audio"><path codeLine="59" d="M1385.3995,653.7525 C1411.0495,694.5285 1437.15,736.024 1459.14,770.9883 " fill="none" id="Stimulus-backto-Audio" style="stroke:#181818;stroke-width:1.0;"/><polygon fill="#181818" points="1379.01,643.595,1378.8189,650.8036,1385.3995,653.7525,1385.5906,646.5439,1379.01,643.595" style="stroke:#181818;stroke-width:1.0;"/><text fill="#000000" font-family="sans-serif" font-size="13" lengthAdjust="spacing" textLength="35" x="1438" y="737.0669">audio</text><text fill="#000000" font-family="sans-serif" font-size="13" lengthAdjust="spacing" textLength="8" x="1375.1737" y="663.9776">1</text><text fill="#000000" font-family="sans-serif" font-size="13" lengthAdjust="spacing" textLength="8" x="1446.1797" y="759.8495">1</text></g><!--link Audio to CreatedStimulus--><g id="link_Audio_CreatedStimulus"><path codeLine="71" d="M1492.27,770.6848 C1495.35,753.8883 1498.48,734.074 1500,716 C1510.01,596.865 1522.02,564.51 1500,447 C1496.33,427.407 1494.1849,418.2642 1487.1049,399.3402 " fill="none" id="Audio-to-CreatedStimulus" style="stroke:#181818;stroke-width:1.0;"/><polygon fill="#181818" points="1482.9,388.101,1481.2561,395.1222,1487.1049,399.3402,1488.7488,392.319,1482.9,388.101" style="stroke:#181818;stroke-width:1.0;"/><text fill="#000000" font-family="sans-serif" font-size="13" lengthAdjust="spacing" textLength="98" x="1513" y="583.5669">modified_audio</text><text fill="#000000" font-family="sans-serif" font-size="13" lengthAdjust="spacing" textLength="8" x="1484.9772" y="759.7941">1</text><text fill="#000000" font-family="sans-serif" font-size="13" lengthAdjust="spacing" textLength="8" x="1477.8302" y="408.0614">1</text></g><!--link AAudioTagger to CreatedStimulus--><g id="link_AAudioTagger_CreatedStimulus"><path codeLine="72" d="M1446,122.2 C1446,150.925 1446,178.724 1446,213.943 " fill="none" id="AAudioTagger-to-CreatedStimulus" style="stroke:#181818;stroke-width:1.0;"/><polygon fill="#181818" points="1446,225.943,1450,219.943,1446,213.943,1442,219.943,1446,225.943" style="stroke:#181818;stroke-width:1.0;"/><text fill="#000000" font-family="sans-serif" font-size="13" lengthAdjust="spacing" textLength="80" x="1447" y="167.0669">used_tagger</text><text fill="#000000" font-family="sans-serif" font-size="13" lengthAdjust="spacing" textLength="8" x="1437.3875" y="141.6888">1</text><text fill="#000000" font-family="sans-serif" font-size="13" lengthAdjust="spacing" textLength="7" x="1438.6773" y="214.8486">*</text></g><!--reverse link CreatedStimulus to Stimulus--><g id="link_CreatedStimulus_Stimulus"><path codeLine="73" d="M1409.7678,399.4335 C1393.8078,439.6945 1379.18,476.615 1364.24,514.298 " fill="none" id="CreatedStimulus-backto-Stimulus" style="stroke:#181818;stroke-width:1.0;"/><polygon fill="#181818" points="1414.19,388.278,1408.2604,392.3817,1409.7678,399.4335,1415.6974,395.3298,1414.19,388.278" style="stroke:#181818;stroke-width:1.0;"/><text fill="#000000" font-family="sans-serif" font-size="13" lengthAdjust="spacing" textLength="7" x="1404.0452" y="408.2541">*</text><text fill="#000000" font-family="sans-serif" font-size="13" lengthAdjust="spacing" textLength="8" x="1358.5631" y="503.4486">1</text></g><!--reverse link Model to CreatedStimulus--><g id="link_Model_CreatedStimulus"><path codeLine="76" d="M989.372,307 C1034.67,307 1070.8,307 1118.31,307 " fill="none" id="Model-backto-CreatedStimulus" style="stroke:#181818;stroke-width:1.0;"/><polygon fill="#181818" points="977.372,307,983.372,311,989.372,307,983.372,303,977.372,307" style="stroke:#181818;stroke-width:1.0;"/><text fill="#000000" font-family="sans-serif" font-size="13" lengthAdjust="spacing" textLength="105" x="995.25" y="300.0669">stimulus_history</text><text fill="#000000" font-family="sans-serif" font-size="13" lengthAdjust="spacing" textLength="8" x="985.3248" y="303.8173">1</text><text fill="#000000" font-family="sans-serif" font-size="13" lengthAdjust="spacing" textLength="7" x="1103.5477" y="303.8918">*</text></g><!--reverse link Model to CreatedStimulus--><g id="link_Model_CreatedStimulus"><path codeLine="83" d="M989.2202,326.6847 C996.1322,327.0167 991,326.739 997.75,327 C1036.77,328.506 1077.69,328.655 1118.28,327.921 " fill="none" id="Model-backto-CreatedStimulus-1" style="stroke:#181818;stroke-width:1.0;"/><polygon fill="#181818" points="977.234,326.109,983.0352,330.3923,989.2202,326.6847,983.419,322.4015,977.234,326.109" style="stroke:#181818;stroke-width:1.0;"/><text fill="#000000" font-family="sans-serif" font-size="13" lengthAdjust="spacing" textLength="98" x="998.75" y="323.0669">created_stimuli</text><text fill="#000000" font-family="sans-serif" font-size="13" lengthAdjust="spacing" textLength="8" x="985.1823" y="323.5534">1</text><text fill="#000000" font-family="sans-serif" font-size="13" lengthAdjust="spacing" textLength="7" x="1103.517" y="325.3031">*</text></g><!--reverse link Model to EExperimentState--><g id="link_Model_EExperimentState"><path codeLine="77" d="M657.7969,401.2717 C649.4229,411.2677 648.806,412.201 641,422 C619.616,448.844 597.016,479.062 577.564,505.704 " fill="none" id="Model-backto-EExperimentState" style="stroke:#181818;stroke-width:1.0;"/><polygon fill="none" points="665.503,392.073,658.5837,394.1037,657.7969,401.2717,664.7162,399.241,665.503,392.073" style="stroke:#181818;stroke-width:1.0;"/><text fill="#000000" font-family="sans-serif" font-size="13" lengthAdjust="spacing" textLength="114" x="642" y="435.0669">experiment_state</text><text fill="#000000" font-family="sans-serif" font-size="13" lengthAdjust="spacing" textLength="7" x="651.6455" y="412.3753">*</text><text fill="#000000" font-family="sans-serif" font-size="13" lengthAdjust="spacing" textLength="8" x="574.2461" y="494.8348">1</text></g><!--link AObserver to Model--><g id="link_AObserver_Model"><path codeLine="78" d="M466.363,307 C477.901,307 477.438,307 488.975,307 " fill="none" id="AObserver-to-Model" style="stroke:#181818;stroke-width:1.0;"/><polygon fill="none" points="500.975,307,494.975,303,488.975,307,494.975,311,500.975,307" style="stroke:#181818;stroke-width:1.0;"/><text fill="#000000" font-family="sans-serif" font-size="13" lengthAdjust="spacing" textLength="7" x="473.7741" y="303.8181">*</text><text fill="#000000" font-family="sans-serif" font-size="13" lengthAdjust="spacing" textLength="8" x="485.0336" y="303.8173">1</text></g><!--link Model to EModelUpdateIdentifier--><g id="link_Model_EModelUpdateIdentifier"><path codeLine="79" d="M756.801,392.319 C766.404,437.809 776.6647,486.4104 784.7157,524.5494 " fill="none" id="Model-to-EModelUpdateIdentifier" style="stroke:#181818;stroke-width:1.0;stroke-dasharray:7.0,7.0;"/><polygon fill="#181818" points="785.955,530.42,788.0098,520.7879,784.9223,525.5278,780.1824,522.4402,785.955,530.42" style="stroke:#181818;stroke-width:1.0;"/><text fill="#000000" font-family="sans-serif" font-size="13" lengthAdjust="spacing" textLength="30" x="767" y="435.0669">uses</text></g><!--reverse link constants to AObserver--><g id="link_constants_AObserver"><path codeLine="81" d="M372.5356,456.6659 C371.4862,453.1899 370.3342,450.3261 369,447 C351.481,403.324 313.705,364.531 284.241,339.102 " fill="none" id="constants-backto-AObserver" style="stroke:#181818;stroke-width:1.0;stroke-dasharray:7.0,7.0;"/><polygon fill="#181818" points="374.0428,462.4735,375.6538,452.7573,372.7868,457.6339,367.9103,454.7669,374.0428,462.4735" style="stroke:#181818;stroke-width:1.0;"/><text fill="#000000" font-family="sans-serif" font-size="13" lengthAdjust="spacing" textLength="30" x="366" y="435.0669">uses</text></g><!--SRC=[dLNRRk8m47tFLrZiIsX9fNsDAgI8Hbqa2WZ2NbIXo2GcM0rnrd7QHLt-VSTsBYR0ThLv264yP-QSyNWSfRWea5V6bA5t2y5pEttmECU7vstAi5WZBF_e5Pe9LE1zdj8i2RUS_2n95XsiesNbE7h12K4O0Wd63w70IG9ULKoyAGJ7aK2HJgVo1U12UEM1qATEtlSQT4Hx5jFj8OnsPVPYonGiLAoqnKMdo07Q5Yu2hlr-5VfMwuiumOBe00DK2BelKwfzZgO8I4VIAyndcuBmLuCsH7zbD4Pb7ilWyC8kyhB30D6OP89kAU4kyfzap9No6JVsEhVwqGcK7xg_rtdm9YN3OPlAcT12F0EZDSevtHCUxi00zRPQ5nN1hjIvI256IdcyLCQoMFTRTqK-Oq3ey3_asm9maa0gmkrNIjxSjb83IPLnAWvwKpgmZBo5HSNBhZzSr65y2QKhyE-OQ8UpX8JaLquaCXEGLswPPW1VeDHl5fVISc639ansRRr1X0-7HYiuSons238mBeemffn4QdSQ8Xfj2ymJ8i8jIsDPO8cQq9ScdNnhJ-IKpkzXMqpDf6xKY6L0F1E5GO5avVvCXx4kd_7K6mNZhtx762nc3ojOc4rF5XR-CXXF7yDbu0L-wF_mb-5ixd_eCvhCblx3YPV_VUulna_-D0YlPcjz6lFHwgYxs8yTZLF_6x0PFwqcg-NPmbncM5pZfaMCldZJHqF0yRmNwaupXm4SJcXujiz5roQxrUY4vYIpN53OoCvIKEOfqHCD1feQR6i4-OZirNrkkCkfh1lAQ9-6Mkzp3zquZlfLOz1LGvgPEZe7nvGpK-HmggcM1OdLQ8V9a-8DITkTkUq4CSvbRHheGKuX1jPCF3sAZR3koUNGlrHNkt-figRrhBPdYnzLrmIqzRND0zejcYvqUbBfKxsNOJSILbOmGxjhbkKlK8siZV8UqtU8viCTvTQ1kgXNRqzzW_Hg67WpfuhQdIE0wuxFdf6EWNoThnrOUlNkRdZbs498q5dqBAkzM-zIS6-6M-jX2hkYIz_nSNMbq3y0]--></g></svg>