<?xml version="1.0" encoding="us-ascii" standalone="no"?><svg xmlns="http://www.w3.org/2000/svg" xmlns:xlink="http://www.w3.org/1999/xlink" contentStyleType="text/css" height="961px" preserveAspectRatio="none" style="width:1231px;height:961px;background:#FFFFFF;" version="1.1" viewBox="0 0 1231 961" width="1231px" zoomAndPan="magnify"><defs/><g><rect fill="none" height="20.9531" style="stroke:none;stroke-width:1.0;" width="1198" x="15" y="12.7451"/><ellipse cx="129" cy="48.6982" fill="#222222" rx="10" ry="10" style="stroke:#222222;stroke-width:1.0;"/><path d="M257,68.6982 L257,99.9639 L237,103.9639 L257,107.9639 L257,139.2295 A0,0 0 0 0 257,139.2295 L382,139.2295 A0,0 0 0 0 382,139.2295 L382,78.6982 L372,68.6982 L257,68.6982 A0,0 0 0 0 257,68.6982 " fill="#FEFFDD" style="stroke:#181818;stroke-width:0.5;"/><path d="M372,68.6982 L372,78.6982 L382,78.6982 L372,68.6982 " fill="#FEFFDD" style="stroke:#181818;stroke-width:0.5;"/><text fill="#000000" font-family="sans-serif" font-size="13" lengthAdjust="spacing" textLength="39" x="263" y="85.7651">audio,</text><text fill="#000000" font-family="sans-serif" font-size="13" lengthAdjust="spacing" textLength="104" x="263" y="100.8979">stimuli_intervals</text><text fill="#000000" font-family="sans-serif" font-size="13" lengthAdjust="spacing" textLength="104" x="263" y="116.0308">bits_per_second</text><text fill="#000000" font-family="sans-serif" font-size="13" lengthAdjust="spacing" textLength="63" x="263" y="131.1636">length_bit</text><rect fill="#F1F1F1" height="33.9688" rx="12.5" ry="12.5" style="stroke:#181818;stroke-width:0.5;" width="216" x="21" y="86.9795"/><text fill="#000000" font-family="sans-serif" font-size="12" lengthAdjust="spacing" textLength="196" x="31" y="108.1182">Construct NosieTaggingTagger()</text><rect fill="#F1F1F1" height="33.9688" rx="12.5" ry="12.5" style="stroke:#181818;stroke-width:0.5;" width="197" x="30.5" y="159.2295"/><text fill="#000000" font-family="sans-serif" font-size="12" lengthAdjust="spacing" textLength="177" x="40.5" y="180.3682">NosieTaggingTagger.create()</text><rect fill="#F1F1F1" height="33.9688" rx="12.5" ry="12.5" style="stroke:#181818;stroke-width:0.5;" width="135" x="61.5" y="873.7144"/><text fill="#000000" font-family="sans-serif" font-size="12" lengthAdjust="spacing" textLength="115" x="71.5" y="894.853">Further processing</text><ellipse cx="129" cy="938.6831" fill="none" rx="11" ry="11" style="stroke:#222222;stroke-width:1.0;"/><ellipse cx="129" cy="938.6831" fill="#222222" rx="6" ry="6" style="stroke:#222222;stroke-width:1.0;"/><line style="stroke:#000000;stroke-width:1.5;" x1="15" x2="15" y1="12.7451" y2="949.6831"/><rect fill="#F1F1F1" height="33.9688" rx="12.5" ry="12.5" style="stroke:#181818;stroke-width:0.5;" width="110" x="499.5" y="213.1982"/><text fill="#000000" font-family="sans-serif" font-size="12" lengthAdjust="spacing" textLength="90" x="509.5" y="234.3369">generate code</text><rect fill="#F1F1F1" height="33.9688" rx="12.5" ry="12.5" style="stroke:#181818;stroke-width:0.5;" width="171" x="469" y="473.0732"/><text fill="#000000" font-family="sans-serif" font-size="12" lengthAdjust="spacing" textLength="151" x="479" y="494.2119">get next stimulus interval</text><rect fill="#F1F1F1" height="33.9688" rx="12.5" ry="12.5" style="stroke:#181818;stroke-width:0.5;" width="252" x="428.5" y="527.042"/><text fill="#000000" font-family="sans-serif" font-size="12" lengthAdjust="spacing" textLength="232" x="438.5" y="548.1807">audio_chunk = audio[stimulus interval]</text><path d="M736,571.0107 L736,594.71 L716,598.71 L736,602.71 L736,626.4092 A0,0 0 0 0 736,626.4092 L913,626.4092 A0,0 0 0 0 913,626.4092 L913,581.0107 L903,571.0107 L736,571.0107 A0,0 0 0 0 736,571.0107 " fill="#FEFFDD" style="stroke:#181818;stroke-width:0.5;"/><path d="M903,571.0107 L903,581.0107 L913,581.0107 L903,571.0107 " fill="#FEFFDD" style="stroke:#181818;stroke-width:0.5;"/><text fill="#000000" font-family="sans-serif" font-size="13" lengthAdjust="spacing" textLength="145" x="742" y="588.0776">Cuts/extends the code</text><text fill="#000000" font-family="sans-serif" font-size="13" lengthAdjust="spacing" textLength="156" x="742" y="603.2104">depending on the length</text><text fill="#000000" font-family="sans-serif" font-size="13" lengthAdjust="spacing" textLength="90" x="742" y="618.3433">of the interval</text><rect fill="#F1F1F1" height="33.9688" rx="12.5" ry="12.5" style="stroke:#181818;stroke-width:0.5;" width="323" x="393" y="581.7256"/><text fill="#000000" font-family="sans-serif" font-size="12" lengthAdjust="spacing" textLength="303" x="403" y="602.8643">applied_code = get_code(code, stimulus interval)</text><rect fill="#F1F1F1" height="33.9688" rx="12.5" ry="12.5" style="stroke:#181818;stroke-width:0.5;" width="314" x="397.5" y="646.4092"/><text fill="#000000" font-family="sans-serif" font-size="12" lengthAdjust="spacing" textLength="294" x="407.5" y="667.5479">modulated_chunk = audio_chunk * applied_code</text><rect fill="#F1F1F1" height="33.9688" rx="12.5" ry="12.5" style="stroke:#181818;stroke-width:0.5;" width="226" x="441.5" y="700.3779"/><text fill="#000000" font-family="sans-serif" font-size="12" lengthAdjust="spacing" textLength="206" x="451.5" y="721.5166">insert modulated_chunk into audio</text><polygon fill="#F1F1F1" points="554.5,429.0732,566.5,441.0732,554.5,453.0732,542.5,441.0732,554.5,429.0732" style="stroke:#181818;stroke-width:0.5;"/><polygon fill="#F1F1F1" points="489.5,754.3467,619.5,754.3467,631.5,766.3467,619.5,778.3467,489.5,778.3467,477.5,766.3467,489.5,754.3467" style="stroke:#181818;stroke-width:0.5;"/><text fill="#000000" font-family="sans-serif" font-size="11" lengthAdjust="spacing" textLength="130" x="489.5" y="770.1548">next stimulus interval?</text><text fill="#000000" font-family="sans-serif" font-size="11" lengthAdjust="spacing" textLength="21" x="631.5" y="763.7524">yes</text><rect fill="#F1F1F1" height="33.9688" rx="12.5" ry="12.5" style="stroke:#181818;stroke-width:0.5;" width="93" x="508" y="819.7456"/><text fill="#000000" font-family="sans-serif" font-size="12" lengthAdjust="spacing" textLength="73" x="518" y="840.8843">return audio</text><line style="stroke:#000000;stroke-width:1.5;" x1="387" x2="387" y1="12.7451" y2="949.6831"/><rect fill="#F1F1F1" height="33.9688" rx="12.5" ry="12.5" style="stroke:#181818;stroke-width:0.5;" width="250" x="953.5" y="267.167"/><text fill="#000000" font-family="sans-serif" font-size="12" lengthAdjust="spacing" textLength="230" x="963.5" y="288.3057">code_raw = random sequence of -1/1</text><rect fill="#F1F1F1" height="33.9688" rx="12.5" ry="12.5" style="stroke:#181818;stroke-width:0.5;" width="257" x="950" y="321.1357"/><text fill="#000000" font-family="sans-serif" font-size="12" lengthAdjust="spacing" textLength="237" x="960" y="342.2744">code = np.repeat(code_raw, bit_width)</text><rect fill="#F1F1F1" height="33.9688" rx="12.5" ry="12.5" style="stroke:#181818;stroke-width:0.5;" width="91" x="1033" y="375.1045"/><text fill="#000000" font-family="sans-serif" font-size="12" lengthAdjust="spacing" textLength="71" x="1043" y="396.2432">return code</text><line style="stroke:#000000;stroke-width:1.5;" x1="944" x2="944" y1="12.7451" y2="949.6831"/><line style="stroke:#000000;stroke-width:1.5;" x1="1211" x2="1211" y1="12.7451" y2="949.6831"/><line style="stroke:#181818;stroke-width:1.0;" x1="129" x2="129" y1="58.6982" y2="86.9795"/><polygon fill="#181818" points="125,76.9795,129,86.9795,133,76.9795,129,80.9795" style="stroke:#181818;stroke-width:1.0;"/><line style="stroke:#181818;stroke-width:1.0;" x1="129" x2="129" y1="120.9482" y2="159.2295"/><polygon fill="#181818" points="125,149.2295,129,159.2295,133,149.2295,129,153.2295" style="stroke:#181818;stroke-width:1.0;"/><line style="stroke:#181818;stroke-width:1.0;" x1="129" x2="129" y1="907.6831" y2="927.6831"/><polygon fill="#181818" points="125,917.6831,129,927.6831,133,917.6831,129,921.6831" style="stroke:#181818;stroke-width:1.0;"/><line style="stroke:#181818;stroke-width:1.0;" x1="554.5" x2="554.5" y1="507.042" y2="527.042"/><polygon fill="#181818" points="550.5,517.042,554.5,527.042,558.5,517.042,554.5,521.042" style="stroke:#181818;stroke-width:1.0;"/><line style="stroke:#181818;stroke-width:1.0;" x1="554.5" x2="554.5" y1="561.0107" y2="581.7256"/><polygon fill="#181818" points="550.5,571.7256,554.5,581.7256,558.5,571.7256,554.5,575.7256" style="stroke:#181818;stroke-width:1.0;"/><line style="stroke:#181818;stroke-width:1.0;" x1="554.5" x2="554.5" y1="615.6943" y2="646.4092"/><polygon fill="#181818" points="550.5,636.4092,554.5,646.4092,558.5,636.4092,554.5,640.4092" style="stroke:#181818;stroke-width:1.0;"/><line style="stroke:#181818;stroke-width:1.0;" x1="554.5" x2="554.5" y1="680.3779" y2="700.3779"/><polygon fill="#181818" points="550.5,690.3779,554.5,700.3779,558.5,690.3779,554.5,694.3779" style="stroke:#181818;stroke-width:1.0;"/><line style="stroke:#181818;stroke-width:1.0;" x1="554.5" x2="554.5" y1="453.0732" y2="473.0732"/><polygon fill="#181818" points="550.5,463.0732,554.5,473.0732,558.5,463.0732,554.5,467.0732" style="stroke:#181818;stroke-width:1.0;"/><line style="stroke:#181818;stroke-width:1.0;" x1="631.5" x2="925" y1="766.3467" y2="766.3467"/><polygon fill="#181818" points="921,608.71,925,598.71,929,608.71,925,604.71" style="stroke:#181818;stroke-width:1.0;"/><line style="stroke:#181818;stroke-width:1.0;" x1="925" x2="925" y1="441.0732" y2="766.3467"/><line style="stroke:#181818;stroke-width:1.0;" x1="925" x2="566.5" y1="441.0732" y2="441.0732"/><polygon fill="#181818" points="576.5,437.0732,566.5,441.0732,576.5,445.0732,572.5,441.0732" style="stroke:#181818;stroke-width:1.0;"/><line style="stroke:#181818;stroke-width:1.0;" x1="554.5" x2="554.5" y1="734.3467" y2="754.3467"/><polygon fill="#181818" points="550.5,744.3467,554.5,754.3467,558.5,744.3467,554.5,748.3467" style="stroke:#181818;stroke-width:1.0;"/><line style="stroke:#181818;stroke-width:1.0;" x1="554.5" x2="554.5" y1="778.3467" y2="819.7456"/><polygon fill="#181818" points="550.5,809.7456,554.5,819.7456,558.5,809.7456,554.5,813.7456" style="stroke:#181818;stroke-width:1.0;"/><text fill="#000000" font-family="sans-serif" font-size="11" lengthAdjust="spacing" textLength="14" x="558.5" y="799.6514">no</text><line style="stroke:#181818;stroke-width:1.0;" x1="1078.5" x2="1078.5" y1="301.1357" y2="321.1357"/><polygon fill="#181818" points="1074.5,311.1357,1078.5,321.1357,1082.5,311.1357,1078.5,315.1357" style="stroke:#181818;stroke-width:1.0;"/><line style="stroke:#181818;stroke-width:1.0;" x1="1078.5" x2="1078.5" y1="355.1045" y2="375.1045"/><polygon fill="#181818" points="1074.5,365.1045,1078.5,375.1045,1082.5,365.1045,1078.5,369.1045" style="stroke:#181818;stroke-width:1.0;"/><line style="stroke:#181818;stroke-width:1.0;" x1="129" x2="129" y1="193.1982" y2="198.1982"/><line style="stroke:#181818;stroke-width:1.0;" x1="129" x2="554.5" y1="198.1982" y2="198.1982"/><line style="stroke:#181818;stroke-width:1.0;" x1="554.5" x2="554.5" y1="198.1982" y2="213.1982"/><polygon fill="#181818" points="550.5,203.1982,554.5,213.1982,558.5,203.1982,554.5,207.1982" style="stroke:#181818;stroke-width:1.0;"/><line style="stroke:#181818;stroke-width:1.0;" x1="554.5" x2="554.5" y1="247.167" y2="252.167"/><line style="stroke:#181818;stroke-width:1.0;" x1="554.5" x2="1078.5" y1="252.167" y2="252.167"/><line style="stroke:#181818;stroke-width:1.0;" x1="1078.5" x2="1078.5" y1="252.167" y2="267.167"/><polygon fill="#181818" points="1074.5,257.167,1078.5,267.167,1082.5,257.167,1078.5,261.167" style="stroke:#181818;stroke-width:1.0;"/><line style="stroke:#181818;stroke-width:1.0;" x1="1078.5" x2="1078.5" y1="409.0732" y2="414.0732"/><line style="stroke:#181818;stroke-width:1.0;" x1="1078.5" x2="554.5" y1="414.0732" y2="414.0732"/><line style="stroke:#181818;stroke-width:1.0;" x1="554.5" x2="554.5" y1="414.0732" y2="429.0732"/><polygon fill="#181818" points="550.5,419.0732,554.5,429.0732,558.5,419.0732,554.5,423.0732" style="stroke:#181818;stroke-width:1.0;"/><line style="stroke:#181818;stroke-width:1.0;" x1="554.5" x2="554.5" y1="853.7144" y2="858.7144"/><line style="stroke:#181818;stroke-width:1.0;" x1="554.5" x2="129" y1="858.7144" y2="858.7144"/><line style="stroke:#181818;stroke-width:1.0;" x1="129" x2="129" y1="858.7144" y2="873.7144"/><polygon fill="#181818" points="125,863.7144,129,873.7144,133,863.7144,129,867.7144" style="stroke:#181818;stroke-width:1.0;"/><text fill="#000000" font-family="sans-serif" font-size="18" lengthAdjust="spacing" textLength="44" x="179" y="29.4531">Main</text><text fill="#000000" font-family="sans-serif" font-size="18" lengthAdjust="spacing" textLength="187" x="572" y="29.4531">NosieTaggingTagger</text><text fill="#000000" font-family="sans-serif" font-size="18" lengthAdjust="spacing" textLength="136" x="1009.5" y="29.4531">Generate code</text><!--SRC=[RLF1Rjim3BthAtXRCYGnUhMnzL1WEssdtOR1K2NE5cPJ7aKrAv2F7otRMTTK5qdae_ZUe_sk5vbINLNJO4doE9nS72lh93m5UJxwO3ksu_4HnHfp-M83NKmIosBgXqX9E3k1hp45_6QxBb0tRyYxVMCe2WA7hXS3kcps8HxACKaOyn3QG8ByP8TKeez1KZiXjmbT95zY0r8dVQifW-HXVjAO-hRVoJ5QmRcjkTocBwRka90L0Yvwd56VNmOKC6yjspDy0BRaumW9VsSaXn1_ml6kkciMa09eEZ5Esd6tLHrc-kqvUEcLGyqecMdhjM2Be3V9cP9IYWA4VsJr9oVO36fMHF6mTNscNygYtBxVW7yqAtYQXe2-NJdhw-LOA1zkU-oNibTJczT3bbGfBvr00kaNnwvPh-B8gng8LBBBpAvvDM-ERcrA_3hBGdICFWyw2V-_ilNs7buAMRK5IiW2hokrILoAczLqEFTXmDtRjjxl8IJOFMFQc-D7Yly6jxwnVV7rfymgWc7Yw30bLTleRn2dlm00]--></g></svg>