<?xml version="1.0" encoding="us-ascii" standalone="no"?><svg xmlns="http://www.w3.org/2000/svg" xmlns:xlink="http://www.w3.org/1999/xlink" contentStyleType="text/css" height="780px" preserveAspectRatio="none" style="width:747px;height:780px;background:#FFFFFF;" version="1.1" viewBox="0 0 747 780" width="747px" zoomAndPan="magnify"><defs/><g><rect fill="none" height="20.9531" style="stroke:none;stroke-width:1.0;" width="714" x="15" y="12.7451"/><ellipse cx="104.5" cy="48.6982" fill="#222222" rx="10" ry="10" style="stroke:#222222;stroke-width:1.0;"/><path d="M196,68.6982 L196,92.3975 L176,96.3975 L196,100.3975 L196,124.0967 A0,0 0 0 0 196,124.0967 L321,124.0967 A0,0 0 0 0 321,124.0967 L321,78.6982 L311,68.6982 L196,68.6982 A0,0 0 0 0 196,68.6982 " fill="#FEFFDD" style="stroke:#181818;stroke-width:0.5;"/><path d="M311,68.6982 L311,78.6982 L321,78.6982 L311,68.6982 " fill="#FEFFDD" style="stroke:#181818;stroke-width:0.5;"/><text fill="#000000" font-family="sans-serif" font-size="13" lengthAdjust="spacing" textLength="39" x="202" y="85.7651">audio,</text><text fill="#000000" font-family="sans-serif" font-size="13" lengthAdjust="spacing" textLength="104" x="202" y="100.8979">stimuli_intervals</text><text fill="#000000" font-family="sans-serif" font-size="13" lengthAdjust="spacing" textLength="51" x="202" y="116.0308">shift_by</text><rect fill="#F1F1F1" height="33.9688" rx="12.5" ry="12.5" style="stroke:#181818;stroke-width:0.5;" width="143" x="33" y="79.4131"/><text fill="#000000" font-family="sans-serif" font-size="12" lengthAdjust="spacing" textLength="123" x="43" y="100.5518">Construct ShiftSum()</text><rect fill="#F1F1F1" height="33.9688" rx="12.5" ry="12.5" style="stroke:#181818;stroke-width:0.5;" width="167" x="21" y="144.0967"/><text fill="#000000" font-family="sans-serif" font-size="12" lengthAdjust="spacing" textLength="147" x="31" y="165.2354">ShiftSumTagger.create()</text><rect fill="#F1F1F1" height="33.9688" rx="12.5" ry="12.5" style="stroke:#181818;stroke-width:0.5;" width="135" x="37" y="692.7456"/><text fill="#000000" font-family="sans-serif" font-size="12" lengthAdjust="spacing" textLength="115" x="47" y="713.8843">Further processing</text><ellipse cx="104.5" cy="757.7144" fill="none" rx="11" ry="11" style="stroke:#222222;stroke-width:1.0;"/><ellipse cx="104.5" cy="757.7144" fill="#222222" rx="6" ry="6" style="stroke:#222222;stroke-width:1.0;"/><line style="stroke:#000000;stroke-width:1.5;" x1="15" x2="15" y1="12.7451" y2="768.7144"/><rect fill="#F1F1F1" height="33.9688" rx="12.5" ry="12.5" style="stroke:#181818;stroke-width:0.5;" width="171" x="428.5" y="242.0654"/><text fill="#000000" font-family="sans-serif" font-size="12" lengthAdjust="spacing" textLength="151" x="438.5" y="263.2041">get next stimulus interval</text><rect fill="#F1F1F1" height="33.9688" rx="12.5" ry="12.5" style="stroke:#181818;stroke-width:0.5;" width="252" x="388" y="296.0342"/><text fill="#000000" font-family="sans-serif" font-size="12" lengthAdjust="spacing" textLength="232" x="398" y="317.1729">audio_chunk = audio[stimulus interval]</text><rect fill="#F1F1F1" height="33.9688" rx="12.5" ry="12.5" style="stroke:#181818;stroke-width:0.5;" width="309" x="359.5" y="350.0029"/><text fill="#000000" font-family="sans-serif" font-size="12" lengthAdjust="spacing" textLength="289" x="369.5" y="371.1416">multiplier = e ^ ((2 PI j * shift_by * n) / audio.fs)</text><rect fill="#F1F1F1" height="33.9688" rx="12.5" ry="12.5" style="stroke:#181818;stroke-width:0.5;" width="364" x="332" y="411.4717"/><text fill="#000000" font-family="sans-serif" font-size="12" lengthAdjust="spacing" textLength="344" x="342" y="432.6104">audio_shifted = real(audio_chunk * multiplier_duplicated)</text><rect fill="#F1F1F1" height="33.9688" rx="12.5" ry="12.5" style="stroke:#181818;stroke-width:0.5;" width="309" x="359.5" y="465.4404"/><text fill="#000000" font-family="sans-serif" font-size="12" lengthAdjust="spacing" textLength="289" x="369.5" y="486.5791">audio_combined = audio_shifted + audio_chunk</text><rect fill="#F1F1F1" height="33.9688" rx="12.5" ry="12.5" style="stroke:#181818;stroke-width:0.5;" width="220" x="404" y="519.4092"/><text fill="#000000" font-family="sans-serif" font-size="12" lengthAdjust="spacing" textLength="200" x="414" y="540.5479">insert audio_combined into audio</text><polygon fill="#F1F1F1" points="514,198.0654,526,210.0654,514,222.0654,502,210.0654,514,198.0654" style="stroke:#181818;stroke-width:0.5;"/><polygon fill="#F1F1F1" points="449,573.3779,579,573.3779,591,585.3779,579,597.3779,449,597.3779,437,585.3779,449,573.3779" style="stroke:#181818;stroke-width:0.5;"/><text fill="#000000" font-family="sans-serif" font-size="11" lengthAdjust="spacing" textLength="130" x="449" y="589.186">next stimulus interval?</text><text fill="#000000" font-family="sans-serif" font-size="11" lengthAdjust="spacing" textLength="21" x="591" y="582.7837">yes</text><rect fill="#F1F1F1" height="33.9688" rx="12.5" ry="12.5" style="stroke:#181818;stroke-width:0.5;" width="93" x="467.5" y="638.7769"/><text fill="#000000" font-family="sans-serif" font-size="12" lengthAdjust="spacing" textLength="73" x="477.5" y="659.9155">return audio</text><line style="stroke:#000000;stroke-width:1.5;" x1="326" x2="326" y1="12.7451" y2="768.7144"/><line style="stroke:#000000;stroke-width:1.5;" x1="727" x2="727" y1="12.7451" y2="768.7144"/><line style="stroke:#181818;stroke-width:1.0;" x1="104.5" x2="104.5" y1="58.6982" y2="79.4131"/><polygon fill="#181818" points="100.5,69.4131,104.5,79.4131,108.5,69.4131,104.5,73.4131" style="stroke:#181818;stroke-width:1.0;"/><line style="stroke:#181818;stroke-width:1.0;" x1="104.5" x2="104.5" y1="113.3818" y2="144.0967"/><polygon fill="#181818" points="100.5,134.0967,104.5,144.0967,108.5,134.0967,104.5,138.0967" style="stroke:#181818;stroke-width:1.0;"/><line style="stroke:#181818;stroke-width:1.0;" x1="104.5" x2="104.5" y1="726.7144" y2="746.7144"/><polygon fill="#181818" points="100.5,736.7144,104.5,746.7144,108.5,736.7144,104.5,740.7144" style="stroke:#181818;stroke-width:1.0;"/><line style="stroke:#181818;stroke-width:1.0;" x1="514" x2="514" y1="276.0342" y2="296.0342"/><polygon fill="#181818" points="510,286.0342,514,296.0342,518,286.0342,514,290.0342" style="stroke:#181818;stroke-width:1.0;"/><line style="stroke:#181818;stroke-width:1.0;" x1="514" x2="514" y1="330.0029" y2="350.0029"/><polygon fill="#181818" points="510,340.0029,514,350.0029,518,340.0029,514,344.0029" style="stroke:#181818;stroke-width:1.0;"/><line style="stroke:#181818;stroke-width:1.0;" x1="514" x2="514" y1="383.9717" y2="411.4717"/><polygon fill="#181818" points="510,401.4717,514,411.4717,518,401.4717,514,405.4717" style="stroke:#181818;stroke-width:1.0;"/><line style="stroke:#181818;stroke-width:1.0;" x1="514" x2="514" y1="445.4404" y2="465.4404"/><polygon fill="#181818" points="510,455.4404,514,465.4404,518,455.4404,514,459.4404" style="stroke:#181818;stroke-width:1.0;"/><line style="stroke:#181818;stroke-width:1.0;" x1="514" x2="514" y1="499.4092" y2="519.4092"/><polygon fill="#181818" points="510,509.4092,514,519.4092,518,509.4092,514,513.4092" style="stroke:#181818;stroke-width:1.0;"/><line style="stroke:#181818;stroke-width:1.0;" x1="514" x2="514" y1="222.0654" y2="242.0654"/><polygon fill="#181818" points="510,232.0654,514,242.0654,518,232.0654,514,236.0654" style="stroke:#181818;stroke-width:1.0;"/><line style="stroke:#181818;stroke-width:1.0;" x1="591" x2="708" y1="585.3779" y2="585.3779"/><polygon fill="#181818" points="704,403.9717,708,393.9717,712,403.9717,708,399.9717" style="stroke:#181818;stroke-width:1.0;"/><line style="stroke:#181818;stroke-width:1.0;" x1="708" x2="708" y1="210.0654" y2="585.3779"/><line style="stroke:#181818;stroke-width:1.0;" x1="708" x2="526" y1="210.0654" y2="210.0654"/><polygon fill="#181818" points="536,206.0654,526,210.0654,536,214.0654,532,210.0654" style="stroke:#181818;stroke-width:1.0;"/><line style="stroke:#181818;stroke-width:1.0;" x1="514" x2="514" y1="553.3779" y2="573.3779"/><polygon fill="#181818" points="510,563.3779,514,573.3779,518,563.3779,514,567.3779" style="stroke:#181818;stroke-width:1.0;"/><line style="stroke:#181818;stroke-width:1.0;" x1="514" x2="514" y1="597.3779" y2="638.7769"/><polygon fill="#181818" points="510,628.7769,514,638.7769,518,628.7769,514,632.7769" style="stroke:#181818;stroke-width:1.0;"/><text fill="#000000" font-family="sans-serif" font-size="11" lengthAdjust="spacing" textLength="14" x="518" y="618.6826">no</text><line style="stroke:#181818;stroke-width:1.0;" x1="104.5" x2="104.5" y1="178.0654" y2="183.0654"/><line style="stroke:#181818;stroke-width:1.0;" x1="104.5" x2="514" y1="183.0654" y2="183.0654"/><line style="stroke:#181818;stroke-width:1.0;" x1="514" x2="514" y1="183.0654" y2="198.0654"/><polygon fill="#181818" points="510,188.0654,514,198.0654,518,188.0654,514,192.0654" style="stroke:#181818;stroke-width:1.0;"/><line style="stroke:#181818;stroke-width:1.0;" x1="514" x2="514" y1="672.7456" y2="677.7456"/><line style="stroke:#181818;stroke-width:1.0;" x1="514" x2="104.5" y1="677.7456" y2="677.7456"/><line style="stroke:#181818;stroke-width:1.0;" x1="104.5" x2="104.5" y1="677.7456" y2="692.7456"/><polygon fill="#181818" points="100.5,682.7456,104.5,692.7456,108.5,682.7456,104.5,686.7456" style="stroke:#181818;stroke-width:1.0;"/><text fill="#000000" font-family="sans-serif" font-size="18" lengthAdjust="spacing" textLength="44" x="148.5" y="29.4531">Main</text><text fill="#000000" font-family="sans-serif" font-size="18" lengthAdjust="spacing" textLength="148" x="452.5" y="29.4531">ShiftSumTagger</text><!--SRC=[RP9DJyCm38Rl-HM-qGwwIXnR0GSa90v8IEE6eCfQhpMqQPKuWqdzyNZf2XkGIophVLv_96SDy-2oD1rQRTXtxRBikrINJ5lYNLAHhgtkaZMoLcfyq6H6vLXRLjbjRnnRNpAi6jhmodTHd2lJCuAbkc45ShIlgBy8eMFgV4i56KQxrQsRidksMEyKcWhsi5BPxFUawnhjihIe6VVcok8WSG37KzKOabcD30O_-L3DEvZB2HqKeQEYRBnvXwkfl-S_ufTy4akMQMW9hMWHNY6ABk7n7jvWyTsvX2Q6TB9QRboS7nSAAgm4bodQwBZw0dxiYyhBNSgSrIalpx4c4mnE3S_XoEk0a75e6NwHCbG_vVB30k6ZeHQZ_nTr4mCvY7ReOfLS6u4oY-ojcJtcVv3TUSkDh6QmVOdEaQbp-Hpzy0K0]--></g></svg>