<?xml version="1.0" encoding="us-ascii" standalone="no"?><svg xmlns="http://www.w3.org/2000/svg" xmlns:xlink="http://www.w3.org/1999/xlink" contentStyleType="text/css" height="375px" preserveAspectRatio="none" style="width:1035px;height:375px;background:#FFFFFF;" version="1.1" viewBox="0 0 1035 375" width="1035px" zoomAndPan="magnify"><defs/><g><!--cluster model--><g id="cluster_model"><path d="M554.5,75.5 L604.5,75.5 A3.75,3.75 0 0 1 607,78 L614,97.7969 L1025.5,97.7969 A2.5,2.5 0 0 1 1028,100.2969 L1028,188 A2.5,2.5 0 0 1 1025.5,190.5 L554.5,190.5 A2.5,2.5 0 0 1 552,188 L552,78 A2.5,2.5 0 0 1 554.5,75.5 " fill="none" style="stroke:#000000;stroke-width:1.5;"/><line style="stroke:#000000;stroke-width:1.5;" x1="552" x2="614" y1="97.7969" y2="97.7969"/><text fill="#000000" font-family="sans-serif" font-size="14" font-weight="bold" lengthAdjust="spacing" textLength="49" x="556" y="90.4951">model</text></g><!--cluster view--><g id="cluster_view"><path d="M8.5,6 L45.5,6 A3.75,3.75 0 0 1 48,8.5 L55,28.2969 L525.5,28.2969 A2.5,2.5 0 0 1 528,30.7969 L528,365.5 A2.5,2.5 0 0 1 525.5,368 L8.5,368 A2.5,2.5 0 0 1 6,365.5 L6,8.5 A2.5,2.5 0 0 1 8.5,6 " fill="none" style="stroke:#000000;stroke-width:1.5;"/><line style="stroke:#000000;stroke-width:1.5;" x1="6" x2="55" y1="28.2969" y2="28.2969"/><text fill="#000000" font-family="sans-serif" font-size="14" font-weight="bold" lengthAdjust="spacing" textLength="36" x="10" y="20.9951">view</text></g><!--class AObserver--><g id="elem_AObserver"><rect codeLine="2" fill="#F1F1F1" height="64.2969" id="AObserver" rx="2.5" ry="2.5" style="stroke:#181818;stroke-width:0.5;" width="444" x="568" y="110.5"/><ellipse cx="748.25" cy="126.5" fill="#A9DCDF" rx="11" ry="11" style="stroke:#181818;stroke-width:1.0;"/><path d="M750.3281,128.3125 L750.7188,129.2969 L750.3281,129.2969 C749.875,129.2969 749.7656,129.3125 749.6094,129.4219 C749.3594,129.5781 749.2031,129.8594 749.2031,130.1563 C749.2031,130.4219 749.3438,130.6719 749.5625,130.8281 C749.7031,130.9531 749.9063,131 750.3281,131 L752.6875,131 C753.0469,131 753.2656,130.9688 753.4063,130.875 C753.6563,130.7344 753.8125,130.4375 753.8125,130.1563 C753.8125,129.875 753.6719,129.625 753.4531,129.4688 C753.2813,129.3281 753.125,129.2969 752.6563,129.2969 L749.2656,121.0938 L745.5938,121.0938 C745.1406,121.0938 745.0156,121.1094 744.8594,121.2031 C744.6094,121.375 744.4531,121.6563 744.4531,121.9375 C744.4531,122.2188 744.5938,122.4688 744.8125,122.6406 C744.9844,122.75 745.1563,122.7813 745.5938,122.7813 L746.6719,122.7813 L744.0313,129.2969 C743.6094,129.2969 743.4531,129.3125 743.2969,129.4219 C743.0469,129.5781 742.8906,129.8594 742.8906,130.1563 C742.8906,130.7188 743.2656,131 744.0156,131 L746.2813,131 C746.6406,131 746.8594,130.9688 746.9844,130.875 C747.25,130.7344 747.3906,130.4375 747.3906,130.1563 C747.3906,129.875 747.2656,129.625 747.0469,129.4531 C746.875,129.3281 746.7344,129.2969 746.2813,129.2969 L745.8906,129.2969 L746.2813,128.3125 L750.3281,128.3125 Z M749.625,126.6094 L746.9531,126.6094 L748.2969,123.3438 L749.625,126.6094 Z " fill="#000000"/><text fill="#000000" font-family="sans-serif" font-size="14" font-style="italic" lengthAdjust="spacing" textLength="75" x="768.75" y="131.3467">AObserver</text><line style="stroke:#181818;stroke-width:0.5;" x1="569" x2="1011" y1="142.5" y2="142.5"/><line style="stroke:#181818;stroke-width:0.5;" x1="569" x2="1011" y1="150.5" y2="150.5"/><ellipse cx="579" cy="164.1484" fill="#84BE84" rx="3" ry="3" style="stroke:#038048;stroke-width:1.0;"/><text fill="#000000" font-family="sans-serif" font-size="14" lengthAdjust="spacing" textLength="418" x="588" y="167.4951">void update(data: Any, identifier: EModelUpdateIdentifier)</text></g><!--class AView--><g id="elem_AView"><rect codeLine="8" fill="#F1F1F1" height="202.9375" id="AView" rx="2.5" ry="2.5" style="stroke:#181818;stroke-width:0.5;" width="489" x="22.5" y="41"/><ellipse cx="230.75" cy="61.1328" fill="#A9DCDF" rx="11" ry="11" style="stroke:#181818;stroke-width:1.0;"/><path d="M232.8281,62.9453 L233.2188,63.9297 L232.8281,63.9297 C232.375,63.9297 232.2656,63.9453 232.1094,64.0547 C231.8594,64.2109 231.7031,64.4922 231.7031,64.7891 C231.7031,65.0547 231.8438,65.3047 232.0625,65.4609 C232.2031,65.5859 232.4063,65.6328 232.8281,65.6328 L235.1875,65.6328 C235.5469,65.6328 235.7656,65.6016 235.9063,65.5078 C236.1563,65.3672 236.3125,65.0703 236.3125,64.7891 C236.3125,64.5078 236.1719,64.2578 235.9531,64.1016 C235.7813,63.9609 235.625,63.9297 235.1563,63.9297 L231.7656,55.7266 L228.0938,55.7266 C227.6406,55.7266 227.5156,55.7422 227.3594,55.8359 C227.1094,56.0078 226.9531,56.2891 226.9531,56.5703 C226.9531,56.8516 227.0938,57.1016 227.3125,57.2734 C227.4844,57.3828 227.6563,57.4141 228.0938,57.4141 L229.1719,57.4141 L226.5313,63.9297 C226.1094,63.9297 225.9531,63.9453 225.7969,64.0547 C225.5469,64.2109 225.3906,64.4922 225.3906,64.7891 C225.3906,65.3516 225.7656,65.6328 226.5156,65.6328 L228.7813,65.6328 C229.1406,65.6328 229.3594,65.6016 229.4844,65.5078 C229.75,65.3672 229.8906,65.0703 229.8906,64.7891 C229.8906,64.5078 229.7656,64.2578 229.5469,64.0859 C229.375,63.9609 229.2344,63.9297 228.7813,63.9297 L228.3906,63.9297 L228.7813,62.9453 L232.8281,62.9453 Z M232.125,61.2422 L229.4531,61.2422 L230.7969,57.9766 L232.125,61.2422 Z " fill="#000000"/><text fill="#000000" font-family="sans-serif" font-size="12" font-style="italic" lengthAdjust="spacing" textLength="68" x="249.25" y="57.1387">&#171;Observer&#187;</text><text fill="#000000" font-family="sans-serif" font-size="14" font-style="italic" lengthAdjust="spacing" textLength="44" x="261.25" y="72.9639">AView</text><line style="stroke:#181818;stroke-width:0.5;" x1="23.5" x2="510.5" y1="81.2656" y2="81.2656"/><polygon fill="none" points="33.5,89.9141,37.5,93.9141,33.5,97.9141,29.5,93.9141" style="stroke:#B38D22;stroke-width:1.0;"/><text fill="#000000" font-family="sans-serif" font-size="14" lengthAdjust="spacing" textLength="260" x="42.5" y="98.2607">Callable[[Audio], None] sound_player</text><polygon fill="none" points="33.5,106.2109,37.5,110.2109,33.5,114.2109,29.5,110.2109" style="stroke:#B38D22;stroke-width:1.0;"/><text fill="#000000" font-family="sans-serif" font-size="14" lengthAdjust="spacing" textLength="408" x="42.5" y="114.5576">Dict[EExperimentState, Optional[str]] experiment_texts</text><line style="stroke:#181818;stroke-width:0.5;" x1="23.5" x2="510.5" y1="121.8594" y2="121.8594"/><ellipse cx="33.5" cy="135.5078" fill="#84BE84" rx="3" ry="3" style="stroke:#038048;stroke-width:1.0;"/><text fill="#000000" font-family="sans-serif" font-size="14" lengthAdjust="spacing" textLength="286" x="42.5" y="138.8545">AView(sound_player, experiment_texts)</text><polygon fill="#FFFF44" points="33.5,146.8047,37.5,150.8047,33.5,154.8047,29.5,150.8047" style="stroke:#B38D22;stroke-width:1.0;"/><text fill="#000000" font-family="sans-serif" font-size="14" font-style="italic" lengthAdjust="spacing" textLength="382" x="42.5" y="155.1514">void update_new_stimulus(stimulus: CreatedStimulus)</text><polygon fill="#FFFF44" points="33.5,163.1016,37.5,167.1016,33.5,171.1016,29.5,167.1016" style="stroke:#B38D22;stroke-width:1.0;"/><text fill="#000000" font-family="sans-serif" font-size="14" font-style="italic" lengthAdjust="spacing" textLength="269" x="42.5" y="171.4482">void updated_new_primer(primer: str)</text><polygon fill="#FFFF44" points="33.5,179.3984,37.5,183.3984,33.5,187.3984,29.5,183.3984" style="stroke:#B38D22;stroke-width:1.0;"/><text fill="#000000" font-family="sans-serif" font-size="14" font-style="italic" lengthAdjust="spacing" textLength="463" x="42.5" y="187.7451">void update_experiment_state_changed(data: EExperimentState)</text><ellipse cx="33.5" cy="200.6953" fill="#84BE84" rx="3" ry="3" style="stroke:#038048;stroke-width:1.0;"/><text fill="#000000" font-family="sans-serif" font-size="14" lengthAdjust="spacing" textLength="413" x="42.5" y="204.042">void update(data: Any, identifier: EModelUpdateIdentifier</text><ellipse cx="33.5" cy="216.9922" fill="#84BE84" rx="3" ry="3" style="stroke:#038048;stroke-width:1.0;"/><text fill="#000000" font-family="sans-serif" font-size="14" font-style="italic" lengthAdjust="spacing" textLength="166" x="42.5" y="220.3389">bool get_confirmation()</text><ellipse cx="33.5" cy="233.2891" fill="#84BE84" rx="3" ry="3" style="stroke:#038048;stroke-width:1.0;"/><text fill="#000000" font-family="sans-serif" font-size="14" font-style="italic" lengthAdjust="spacing" textLength="131" x="42.5" y="236.6357">void wait(secs: int)</text></g><!--class PsychopyView--><g id="elem_PsychopyView"><rect codeLine="21" fill="#F1F1F1" height="48" id="PsychopyView" rx="2.5" ry="2.5" style="stroke:#181818;stroke-width:0.5;" width="134" x="127" y="304"/><ellipse cx="142" cy="320" fill="#ADD1B2" rx="11" ry="11" style="stroke:#181818;stroke-width:1.0;"/><path d="M144.3438,315.6719 C143.4063,315.2344 142.8125,315.0938 141.9375,315.0938 C139.3125,315.0938 137.3125,317.1719 137.3125,319.8906 L137.3125,321.0156 C137.3125,323.5938 139.4219,325.4844 142.3125,325.4844 C143.5313,325.4844 144.6875,325.1875 145.4375,324.6406 C146.0156,324.2344 146.3438,323.7813 146.3438,323.3906 C146.3438,322.9375 145.9531,322.5469 145.4844,322.5469 C145.2656,322.5469 145.0625,322.625 144.875,322.8125 C144.4219,323.2969 144.4219,323.2969 144.2344,323.3906 C143.8125,323.6563 143.125,323.7813 142.3594,323.7813 C140.3125,323.7813 139.0156,322.6875 139.0156,320.9844 L139.0156,319.8906 C139.0156,318.1094 140.2656,316.7969 142,316.7969 C142.5781,316.7969 143.1875,316.9531 143.6563,317.2031 C144.1406,317.4844 144.3125,317.7031 144.4063,318.1094 C144.4688,318.5156 144.5,318.6406 144.6406,318.7656 C144.7813,318.9063 145.0156,319.0156 145.2344,319.0156 C145.5,319.0156 145.7656,318.875 145.9375,318.6563 C146.0469,318.5 146.0781,318.3125 146.0781,317.8906 L146.0781,316.4688 C146.0781,316.0313 146.0625,315.9063 145.9688,315.75 C145.8125,315.4844 145.5313,315.3438 145.2344,315.3438 C144.9375,315.3438 144.7344,315.4375 144.5156,315.75 L144.3438,315.6719 Z " fill="#000000"/><text fill="#000000" font-family="sans-serif" font-size="14" lengthAdjust="spacing" textLength="102" x="156" y="324.8467">PsychopyView</text><line style="stroke:#181818;stroke-width:0.5;" x1="128" x2="260" y1="336" y2="336"/><line style="stroke:#181818;stroke-width:0.5;" x1="128" x2="260" y1="344" y2="344"/></g><!--class CLIView--><g id="elem_CLIView"><rect codeLine="24" fill="#F1F1F1" height="48" id="CLIView" rx="2.5" ry="2.5" style="stroke:#181818;stroke-width:0.5;" width="88" x="296" y="304"/><ellipse cx="311" cy="320" fill="#ADD1B2" rx="11" ry="11" style="stroke:#181818;stroke-width:1.0;"/><path d="M313.3438,315.6719 C312.4063,315.2344 311.8125,315.0938 310.9375,315.0938 C308.3125,315.0938 306.3125,317.1719 306.3125,319.8906 L306.3125,321.0156 C306.3125,323.5938 308.4219,325.4844 311.3125,325.4844 C312.5313,325.4844 313.6875,325.1875 314.4375,324.6406 C315.0156,324.2344 315.3438,323.7813 315.3438,323.3906 C315.3438,322.9375 314.9531,322.5469 314.4844,322.5469 C314.2656,322.5469 314.0625,322.625 313.875,322.8125 C313.4219,323.2969 313.4219,323.2969 313.2344,323.3906 C312.8125,323.6563 312.125,323.7813 311.3594,323.7813 C309.3125,323.7813 308.0156,322.6875 308.0156,320.9844 L308.0156,319.8906 C308.0156,318.1094 309.2656,316.7969 311,316.7969 C311.5781,316.7969 312.1875,316.9531 312.6563,317.2031 C313.1406,317.4844 313.3125,317.7031 313.4063,318.1094 C313.4688,318.5156 313.5,318.6406 313.6406,318.7656 C313.7813,318.9063 314.0156,319.0156 314.2344,319.0156 C314.5,319.0156 314.7656,318.875 314.9375,318.6563 C315.0469,318.5 315.0781,318.3125 315.0781,317.8906 L315.0781,316.4688 C315.0781,316.0313 315.0625,315.9063 314.9688,315.75 C314.8125,315.4844 314.5313,315.3438 314.2344,315.3438 C313.9375,315.3438 313.7344,315.4375 313.5156,315.75 L313.3438,315.6719 Z " fill="#000000"/><text fill="#000000" font-family="sans-serif" font-size="14" lengthAdjust="spacing" textLength="56" x="325" y="324.8467">CLIView</text><line style="stroke:#181818;stroke-width:0.5;" x1="297" x2="383" y1="336" y2="336"/><line style="stroke:#181818;stroke-width:0.5;" x1="297" x2="383" y1="344" y2="344"/></g><!--reverse link AView to PsychopyView--><g id="link_AView_PsychopyView"><path codeLine="28" d="M220.3224,260.8331 C211.4224,283.2051 209.458,288.1424 203.266,303.7087 " fill="none" id="AView-backto-PsychopyView" style="stroke:#181818;stroke-width:1.0;"/><polygon fill="none" points="226.976,244.108,214.7474,258.6153,225.8975,263.051,226.976,244.108" style="stroke:#181818;stroke-width:1.0;"/></g><!--reverse link AView to CLIView--><g id="link_AView_CLIView"><path codeLine="29" d="M313.6776,260.8331 C322.5776,283.2051 324.542,288.1424 330.734,303.7087 " fill="none" id="AView-backto-CLIView" style="stroke:#181818;stroke-width:1.0;"/><polygon fill="none" points="307.024,244.108,308.1025,263.051,319.2526,258.6153,307.024,244.108" style="stroke:#181818;stroke-width:1.0;"/></g><!--link AView to AObserver--><g id="link_AView_AObserver"><path codeLine="31" d="M511.646,142.5 C530.402,142.5 531.158,142.5 549.914,142.5 " fill="none" id="AView-to-AObserver" style="stroke:#181818;stroke-width:1.0;"/><polygon fill="none" points="567.914,142.5,549.914,136.5,549.914,148.5,567.914,142.5" style="stroke:#181818;stroke-width:1.0;"/></g><!--SRC=[hLFHQi8m57tlLrpOIsNj3nGHnFaWR7CWywMKaZPN3KkJaAHgKVzzQMtNwXY-B0zDkUVcd9DxRnJ9lyWMeP0KEPmyS8jancgIMyWvCGQcoyoWtgDkuNezxoMZK2fABFhkGoAOYYe0Hb5Ojc6e8vY_rPoVJSxY9pvgE2xUnVDKgxrdUFX3UksWyRWpC9aCB3pD2ESaunZ7qv8ocGJmBWKcO6GfQAeugL3tsIyij_5yVbIeMU7ChAop5S1IMIO5uR7JJHB07porUBJ6ws_SUF67vC6lz56lrnJerDtdqjOg5NX8ZML5oKlZTpyHp3GwbAxQm4CUsX2fMblxroq2b_BOmC2ogKkGvZiYjaZRBjvNQFGFBUyfCYdvqDCMRPfBiM6w87KV_7kvGUw1CEiRp5srcB3T63NRTLW-J9NlfAhM_JZTuBFNnGtamAQdC3w7uStfORmzrUM6EZnF-YVn3G00]--></g></svg>